M48
;Layer_Color=9474304
;FILE_FORMAT=4:4
METRIC,LZ
;TYPE=PLATED
T01F00S00C0.3000
T02F00S00C0.4000
%
T01
X0125952Y00007302
X0126942Y00011852
X01277572Y00018632
X01283468Y0002682
X01287437Y00037223
X01249437Y00057048
X01288466Y00099614
X01249437Y00142048
X01288466Y00184676
X01249437Y00227048
X01288466Y00269736
X01249437Y00312048
X01232937
X01164437
X01147937
X01079937
X01063437
X00994437
X00977937
X00909437
X00892937
Y00227048
X00909437
X00977937
X00994437
X01063437
X01079937
X01147937
X01164437
X01232937
Y00142048
X01164437
X01147937
X01079937
X01063437
X00994437
X00977937
X00909437
X00892937
Y00057048
X00909437
X00977937
X00994437
X01063437
X01079937
X01147937
X01164437
X01232937
X011995Y000055
X01114929Y000055
X01029816Y00005409
X0094486Y000055
X00859735
X00774479
X0068951
X00604541
X00519622
X00553437Y00057048
X00569937
X00637937
X00654437
X00722937
X00739437
X00808437
X00824937
Y00142048
X00808437
X00739437
X00722937
X00654437
X00637937
X00569937
X00553437
X00484437
X00467937
Y00057048
X00484437
Y00227048
X00467937
Y00312048
X00484437
X00553437
X00569937
X00637937
X00654437
X00722937
X00739437
X00808437
X00824937
Y00227048
X00808437
X00739437
X00722937
X00654437
X00637937
X00569937
X00553437
X00399437
X00382937
X00315038Y00226805
X00298538
X00229538
X00213038
X00144538
X00128038
X0006Y00227
Y00142
X00128038Y00141805
X00144538
X00213038
X00229538
X00298538
X00315038
X00382937Y00142048
X00399437
Y00057048
X00382937
X00315038Y00056805
X00298538
X00229538
X00213038
X00144538
X00128038
X0006Y00057
X00094583Y000055
X0017965
X00264421
X00349685
X00434506
X00399437Y00312048
X00382937
X00315038Y00311805
X00298538
X00229538
X00213038
X00144538
X00128038
X0006Y00312
X000435
X00005534Y00269408
X000435Y00227
X00005534Y00184345
X000435Y00142
X00005534Y0009958
X00007297Y00034535
X00012142Y0002418
X00018674Y00016389
X00026621Y00010641
X00037119Y00006588
X000435Y00057
X00005534Y00354611
X00043Y00397
X00005534Y00439325
X000435Y00482
X00005534Y00524561
X000435Y00567
X00005534Y0060938
X000435Y00652
X00005534Y00694425
X0006Y00652
X00128038Y00651805
X00144538
X00213038
X00229538
X00298538
X00315038
X00382937Y00652048
X00399437
Y00567048
X00382937
X00315038Y00566805
X00298538
X00229538
X00213038
X00144538
X00128038
X0006Y00567
Y00482
X00128038Y00481805
X00144538
X00213038
X00229538
X00298538
X00315038
X00382937Y00482048
X00399437
X00398937Y00397048
X00382437
X00314538Y00396805
X00298038
X00229038
X00212538
X00144038
X00127538
X000595Y00397
X00467437Y00397048
X00483937
X00552937
X00569437
X00637437
X00653937
X00722437
X00738937
X00807937
X00824437
X00824937Y00482048
X00808437
X00739437
X00722937
X00654437
X00637937
X00569937
X00553437
X00484437
X00467937
Y00567048
X00484437
X00553437
X00569937
X00637937
X00654437
X00722937
X00739437
X00808437
X00824937
Y00652048
X00808437
X00816897Y0069576
X007315Y0069833
X00739437Y00652048
X00722937
X00654437
X00637937
X00569937
X00553437
X00484437
X00467937
X00892937
X00909437
X00902522Y00695692
X00988022Y00694692
X00994437Y00652048
X00977937
Y00567048
X00994437
X01063437
X01079937
X01147937
X01164437
X01232937
Y00652048
X01242522Y00695192
X01157522Y00694692
X01164437Y00652048
X01147937
X01079937
X01063437
X01073022Y00695192
X01079937Y00482048
X01063437
X00994437
X00977937
X00909437
X008935Y00481988
X00892937Y00567048
X00909437
X00908937Y00397048
X00892437
X00977437
X00993937
X01062937
X01079437
X01147437
X01163937
X01232437
X01232937Y00482048
X01164437
X01147937
X01249437
X01288466Y00439587
X012505Y00397
X01288466Y00354526
Y00524649
X01249437Y00567048
X01288466Y00609618
X01249437Y00652048
X01288466Y0069468
X01286942Y00758755
X01281575Y00770397
X01275701Y00777348
X01267363Y00783436
X01257113Y00787382
X0125018Y00737
X012335
X01165
X011485
X01145Y007885
X01153968Y00788456
X01162968Y0078851
X0117135Y00788497
X01199957Y007885
X01114947
X01030018
X00987Y0075048
X00995Y00737
X009785
X0091
X008935
X00859835Y007885
X01064Y00737
X0108081Y00736974
X008255Y00737
X00809
X0074
X007235
X00655
X00639
X00646151Y0075677
X00643598Y007885
X00634631
X00652598
X00660981
X0068949
X0060505
X00562Y00752
X00554Y00737
X005705
X00485
X004685
X004775Y007525
X00519714Y007885
X00774907
X00434948
X00392Y00751
X004Y00737
X003835
X00315602Y00736757
X00299101
X00307Y00752
X00264358Y007885
X00222Y007525
X00230101Y00736757
X00213601
X00145101
X00128601
X00137Y007525
X00095071Y007885
X00179267
X00060563Y00736953
X00349938Y007885
X00034609Y00786738
X00024232Y0078195
X00016527Y00775491
X00010577Y00767262
X0000663Y00757011
X00052Y007525
X00044063Y00736953
T02
X00647Y0009954
M30
