M48
;Layer_Color=9474304
;FILE_FORMAT=4:4
METRIC,LZ
;TYPE=PLATED
T01F00S00C0.3000
T02F00S00C1.0000
T03F00S00C1.1000
T04F00S00C2.2000
;TYPE=NON_PLATED
T05F00S00C1.0000
T06F00S00C1.2000
%
T01
X00103437Y00106986
X00146838Y001113
X00147Y0014
X00127833Y0014432
X00098Y00183
X0019184Y00282055
X00192Y00312
X00173191Y00314809
X0039Y00313
X00409Y0031
X00407695Y00282285
X00528Y00314
X0056Y00316
X00579Y00309
X00578645Y0028204
X00641Y00144
X00659Y00139
X00658429Y001113
X00487653
X00488Y00136
X00470539Y00144093
X00409Y001
X00316917Y001113
X00317Y0014
X00299Y00144
X00277Y00107354
X0074Y00116
X00777442Y00119
X00767Y00147
X00817Y00143785
X00830721Y00143334
X00836Y00155
X0085Y00142
X00896Y00146
X00901Y00129748
X00914979Y00127805
X00921Y00133
X00931493Y00131572
X00958Y00145
X00962Y00159
X00995511Y00168469
X00996Y00142
X01007Y00134
X00998Y00122
X00971996Y00110995
X0097231Y00098166
X00946008Y00096588
X00924Y00083
X00912
X008919Y0008
Y00069
Y00059052
X00880009Y000683
X00869123
X00881225Y00102356
X0089Y00112
X00890084Y00121851
X00834Y00101
X00825
X00818007Y00107481
X00803411Y0003031
X00837382Y00030353
X00899476Y00033749
X00915Y00044
X0093
X00945
X0096
X00924795Y00032442
X01018861Y00064938
X01036861
X01029861Y00077938
X01047Y00111
X01044Y0012
X01055Y00134
X01046235Y00164765
X01036428Y00156854
X01015996Y00153339
X0105Y00266
X01036Y00314
X0092Y00309
X0090164Y00315063
X00919863Y0028204
X007494
X0075Y0031
X00730471Y00315
X0078Y00047
X01112493Y00070457
X01108317Y00090523
X01104Y001
X01082711Y00110515
X0108294Y00120112
X0109Y00129
X01077587Y00135735
X01083Y00154
X01092518Y0015425
X01116Y00157
X01114Y00128
X01155945Y00125113
X01155868Y0013257
X01177664Y00121088
X0121667Y0012108
X0122767
Y0013208
X0121667
X0123867
Y0012108
Y0011008
X0122767
X0121667
X01195346Y0008558
X01186Y00086
X01192553Y00059332
X01216239Y00040322
X01241Y00052
Y00075
X0127661Y00064
X01276611Y00033676
X01298Y0009
X01325Y00091
X01303526Y00114986
X01280232Y0012081
X01284Y00135
X01285941Y00172838
X0127Y00184
X0123867Y00180737
X01238Y00206
X01256379Y0021636
X01278Y00223
X01312036Y00234964
X01338258Y00250727
X01314696Y0028548
X01260965Y00280862
X01259357Y00309143
X01243Y00315
X01219
X01185971Y00293762
X01132Y00279
Y00259
X01132001Y0024766
X01090946Y00283144
X01092Y00309688
X01073Y00316
X01088Y00183
X01098Y00188
X01079868Y00169184
X01148232Y00161929
X01186389Y00160932
X012Y00178
X01154Y0009477
X01153577Y0008263
X01345Y00121
X0135Y00141
X01323Y00156
X01366685Y00167003
X01399Y00184578
X01402858Y00128904
X01414Y001
X01371
X01379Y00075
X01431807Y0028204
X01433Y00312
X01414Y00316
X01544Y00293
X01584683Y00314809
X01603693Y0031054
X01602707Y0028204
X01773797Y00281509
X01774Y00308
X0175581Y00315
X01683Y00139
X0166512Y00144334
X01683596Y001113
X01812607Y00106141
X01835Y00144
X01854Y00139
X01511Y00141
X01493021Y00141979
X01510882Y001113
X01533Y00113705
X01502Y00013
X01855104Y00107258
X02024872Y001113
X02025082Y00140776
X02008Y00145061
X02176696Y00144884
X02195492Y00141032
X02195316Y001113
X02115253Y0028204
X02115Y00312
X02096879Y00316
X02076Y00312
X0194397Y00312982
X01926055Y00314336
X01944823Y0028204
X02412081
X02412Y00309
X02393Y00315
X02366Y00141
X02347592Y00144071
X02366378Y00111399
X02324Y00107
X02535919Y001113
X02537Y00139
X02518035Y00144
X02574Y00293
X0253678Y0053814
Y00567
X0251832Y00571
X02366Y00483
X02348Y00485
X02365843Y0045277
X02285981Y006235
X0228605Y00649969
X02267Y00657
X02245Y00654
X02192529Y00597394
X02182789Y00600223
X02150078Y00596595
X02153Y00586
X0211532Y006235
Y00652
X0209676Y00657697
X01944795Y00651
X0192613Y00656
X0194469Y006235
X02006Y00485
X02024Y00483
X02024576Y0045277
X02154Y00448
X02194911Y0045277
X02195177Y00482761
X02176874Y00485007
X01854Y00479
X01835Y00485
X01853296Y0045277
X01683304
X01683Y00483
X01665Y00485
X01642Y00448
X01512336Y0045277
X01512Y00484
X01494149Y00485
X01603078Y00623508
X01603035Y00649965
X0158461Y00658
X01732Y00655
X0175534Y00657
X01774361Y00651039
X01773904Y006235
X0143233Y006205
X01432Y00652
X01414Y00656
X01262Y00652
X01243Y00656
X0122012Y00657
X01261695Y006235
X01287Y00603
X01316Y00486
X01342Y00483
X01341099Y0045277
X01374Y00437
X01231798Y00420914
X01226161Y00413812
X01204Y00451
X01193Y00448
X0117108Y0045277
X0117Y00483
X01152275Y00485625
X01129803Y00450169
X01091343Y006235
X01091Y0065
X01073362Y00657196
X00920435Y00652
X0090168Y00656173
X00920144Y006235
X0074938
X00750328Y00653042
X0073094Y00656
X0070792
X00811Y00485
X0083Y0048
X00829703Y0045277
X00999885
X01001Y00481
X00981802Y00486393
X00658Y00482
X0064Y00485
X00658987Y0045277
X00619361Y0044937
X00488053Y00452882
X00488Y00481
X00469Y00485
X00408105Y006235
X00408335Y00652009
X00389385Y00656652
X0056021Y00657
X0057867Y00652
X0057869Y006235
X0019185
X0019184Y00652
X0017338Y00656964
X00207Y00485
X00224939Y00483134
X0022529Y0045277
X00098931Y00498069
X00104138Y00799555
X0014647Y0079427
X00146653Y00823642
X00128186Y008269
X00089Y00885
X0010499Y01000869
X0014647Y01005
Y01031
X00128069Y01038211
X0029871Y01037731
X0031717Y01031
Y01005
X0048798
X0048879Y01032527
X00469916Y01037717
X0060906Y01038
X00640701Y01037452
X0065862Y01031
Y01005
X00659Y00821
X00639578Y00826604
X00659362Y0079427
X00488
X00489Y00823
X00469Y00827
X00318Y00821
X00299098Y00826872
X00318022Y0079427
X00276Y00788
X00788291Y00788291
X00830588Y0079427
X0083Y00821
X00811Y00827
X0098167Y00826
X01Y00822
X01000007Y0079427
X0100013Y01005
Y01031
X00982Y01037
X00938245Y01075724
X0082929Y01031
X00811Y01037
X00788057Y0101178
X00828145Y01005
X0112127Y01038
X01152549Y01037392
X0117079Y01031
Y01005
X0134162
Y01031
X01323351Y01036871
X01368079Y01003421
X01338091Y00928075
X01319Y00928
X01303
X0131Y00848
X01327
X01346
X01343Y00822
X01323515Y00827296
X01343Y0079427
X01300082Y00790661
X01284Y00848
X01171573Y00821427
X01151828Y00826809
X01170023Y00792937
X0139077Y00795871
X01512Y0079427
X01512301Y0082443
X0149388Y00827
X01663868Y00826868
X01683Y00824061
X01682588Y0079427
X01812567Y00790519
X0183536Y00828
X0185362Y01005
X01854121Y0103234
X01835591Y01038056
X01811931Y01010669
X0168294Y01005
Y01031
X0166491Y01037507
X0163347Y01038
X0167478Y01081221
X0151234Y01031
X01493817Y0103783
X0151234Y01005
X0202462
Y01033753
X02005955Y01037407
X0214588Y01038
X02177439Y01036631
X0219545Y01031
Y01005
X02196Y00821
X02177265Y00826745
X02196Y0079427
X02026
Y00821
X02005702Y00827
X01855Y00822
Y0079427
X02409918Y00790953
X02452Y0079427
Y00820904
X0243316Y00826209
X02527783Y00836221
X02537Y0084
X02535289Y00785236
X02544964Y00785243
X0253623Y01005
X0253662Y01031
X02518Y01038
X0236605Y01031
X02347591Y01038
X02365654Y01005
T02
X010111Y000407
X010365
X010619
X010873
X011127
X011381
X011635
X011889
T03
X0005837Y000398
X0009687Y000723
X0014687
X0018537Y000398
X002291
Y001598
X0018537
X0019224Y0024304
X0014224
X0010374Y0021054
X0005837Y001598
X0010374Y0033054
X0023074
Y0021054
X0031984
X0035834Y0024304
X0040834
X0044684Y0021054
X0049057
X0052907Y0024304
X0057907
X0061757Y0021054
X006613
Y0033054
X0061757
X0049057
X0044684
X0031984
X003561Y001598
X0039984
Y000398
X003561
X003176Y000723
X002676
X0043834
X0048834
X0052684Y000398
X0057057
X0060907Y000723
X0065907
X0057057Y001598
X0052684
X0069757
X0074279
X007498Y0024304
X006998
X007883Y0021054
X0083204
X0087054Y0024304
X0092054
X0095904Y0021054
X0100277
X0104127Y0024304
X0100277Y0033054
X0095904
X0083204
X007883
X0086979Y001598
Y000398
X0083129Y000723
X0078129
X0074279Y000398
X0069757
X0109127Y0024304
X0112977Y0021054
X011735
X01212Y0024304
X01262
X013005Y0021054
X0134423
X0138273Y0024304
X0143273
X0142279Y001598
Y000398
X0134423Y0033054
X013005
X011735
X0112977
X0147123
X0151497
Y0021054
X0147123
X0155347Y0024304
X0160347
X0164197Y0021054
X016857
X017242Y0024304
X017742
X018127Y0021054
X0176575Y001598
X0172202
Y000398
X0176575
X0180425Y000723
X0185425
X0168352
X0163352
X0159502Y000398
X0154979
X0151129Y000723
X0146129
X0154979Y001598
X0159502
X0164197Y0033054
X016857
X018127
X0185643
Y0021054
X0189493Y0024304
X0194493
X0198343Y0021054
X0202717
X0206567Y0024304
X0211567
X0215417Y0021054
X0210722Y001598
X0206349
Y000398
X0210722
X0214572Y000723
X0219572
X0223422Y000398
Y001598
X0215417Y0033054
X0202717
X0198343
X0193649Y001598
X0189275
Y000398
X0193649
X0197499Y000723
X0202499
X0227795Y000398
X0231645Y000723
X0236645
X0240495Y000398
X0244868
X0248718Y000723
X0253718
X0257568Y000398
Y001598
X0244868
X0240495
X0241182Y0024304
X0236182
X0232332Y0021054
X0227795Y001598
X0232332Y0033054
X0245032
Y0021054
X0240495Y0038127
X0236645Y0041377
X0231645
X0227795Y0038127
Y0050127
X0228645Y005845
X0232495Y00552
Y00672
X0236332Y007223
X0240182Y007548
X0245182
X0249032Y007223
X0244868Y0058664
Y0046664
X0248718Y0049914
X0253718
X0257568Y0046664
Y0058664
X0240495Y0050127
X0223417
X0223645Y005845
X0219795Y00552
X0215422
X0211572Y005845
X0206572
X0202722Y00552
X0198349
X0194499Y005845
X0189499
X0185649Y00552
X018927Y0050127
X0193643
Y0038127
X018927
X0197493Y0041377
X0202493
X0206343Y0038127
X0210717
X0214567Y0041377
X0219567
X0223417Y0038127
X0210717Y0050127
X0206343
X0202722Y00672
X0198349
X0197515Y007548
X0202515
X0206365Y007223
X0210738
X0214588Y007548
X0219588
X0223438Y007223
X0219795Y00672
X0215422
X0193665Y007223
X018927
X0185649Y00672
X018127
X018042Y007548
X018542
X017657Y007223
X0172197
X0168347Y007548
X0163347
X0159497Y007223
X0155123
X0151273Y007548
X0146273
X0147123Y00672
X0151497
Y00552
X0147123
X0155347Y005845
X0160347
X0164197Y00552
X016857
X017242Y005845
X017742
X018127Y00552
X017657Y0050127
X0172197
Y0038127
X017657
X018042Y0041377
X018542
X0168347
X0163347
X0159497Y0038127
X0155123
X0151273Y0041377
X0146273
X0155123Y0050127
X0159497
X0164197Y00672
X016857
X0142423Y007223
X013805
X01342Y007548
X01292
X012535Y007223
X0120977
X0117127Y007548
X0112127
X0108277Y007223
X0112977Y00672
X011735
Y00552
X0112977
X0109127Y005845
X0108277Y0050127
Y0038127
X0112127Y0041377
X0117127
X0120977Y0038127
X012535
X01292Y0041377
X01342
X013805Y0038127
X0142423
Y0050127
X013805
X0138273Y005845
X0143273
X0134423Y00552
X013005
X01262Y005845
X01212
X0120977Y0050127
X012535
X013005Y00672
X0134423
X0100277
X0095904
X0095054Y007548
X0100054
X0103904Y007223
X0091204
X008683
X008298Y007548
X007798
X007413Y007223
X0069756
X006998Y005845
X007498
X007883Y00552
X0083204
X0087054Y005845
X0092054
X0095904Y00552
X0100277
X0104127Y005845
X0103904Y0050127
Y0038127
X0100054Y0041377
X0095054
X0091204Y0038127
X008683
X008298Y0041377
X007798
X007413Y0038127
X0069757
Y0050127
X007413
X008683
X0091204
X0083204Y00672
X007883
X006613
X0061757
X0060906Y007548
X0065906
X0057056Y007223
X0052684
X0048834Y007548
X0043834
X0039984Y007223
X003561
X003176Y007548
X002676
X0031984Y00672
Y00552
X0035834Y005845
X0040834
X0044684Y00552
X0049057
X0052907Y005845
X0057907
X0061757Y00552
X006613
X0065907Y0041377
X0060907
X0057057Y0038127
X0052684
X0048834Y0041377
X0043834
X0039984Y0038127
Y0050127
X0052684
X0057057
X0049057Y00672
X0044684
X0023074
X002291Y007223
X0018537
X0014687Y007548
X0009687
X0005837Y007223
X0010374Y00672
Y00552
X0014224Y005845
X0019224
X0023074Y00552
X0026421Y0050127
Y0038127
X0022571Y0041377
X0017571
X0013721Y0038127
Y0050127
X0018537Y008423
X002291
Y0093303
X0018537
X0014687Y0096553
X0009687
X0005837Y0093303
Y008423
Y0105303
X0018537
X002291
X002676Y0096553
X003176
X003561Y0093303
X0039984
X0043834Y0096553
X0048834
X0052684Y0093303
X0057056
X0060906Y0096553
X0065906
X0057056Y0105303
X0052684
X0039984
X003561
Y008423
X0039984
X0052684
X0057056
X0069756
X007413
Y0093303
X0069756
X007798Y0096553
X008298
X008683Y0093303
X0091204
X0095054Y0096553
X0100054
X0103904Y0093303
Y008423
X0091204
X008683
Y0105303
X0091204
X0103904
X007413
X0069756
X0108277
Y0093303
X0112127Y0096553
X0117127
X0120977Y0093303
X012535
X01292Y0096553
X01342
X013805Y0093303
X0142423
Y008423
X013805
X012535
X0120977
X0108277
X0120977Y0105303
X012535
X013805
X0142423
X0146273Y0096553
X0151273
X0155123Y0093303
X0159497
X0163347Y0096553
X0168347
X0172197Y0093303
X017657
X018042Y0096553
X018542
X017657Y0105303
X0172197
X0159497
X0155123
Y008423
X0159497
X0172197
X017657
X018927
X0193665
Y0093303
X018927
X0197515Y0096553
X0202515
X0206365Y0093303
X0210738
X0214588Y0096553
X0219588
X0223438Y0093303
Y008423
X0210738
X0206365
Y0105303
X0210738
X0223438
X0193665
X018927
X0227795
Y0093303
X0231645Y0096553
X0236645
X0240495Y0093303
X0244868
X0248718Y0096553
X0253718
X0257568Y0093303
Y0105303
X0244868
X0240495
X0236332Y008423
X0249032
T04
X00019Y0011964
X0091703Y-0000606
X0171703
X0261505Y0011279
X00019Y0098049
X0091703Y0109889
X0171703
X0261505Y0098049
T05
X0006387Y000723
X002346
X0010924Y0024304
X0032534
X0049607
X0057607Y000723
X0040534
X0074829
X006668Y0024304
X0083754
X0100827
X01179
X0134973
X0142829Y000723
X0160052
X0177125
X016912Y0024304
X0152047
X0186193
X0203267
X0211272Y000723
X0194199
X0228345
X0245418
X0232882Y0024304
X0228345Y0041377
X0245418Y0049914
X0236882Y007548
X0211288
X0194215
X0186199Y005845
X0203272
X0220345
X0211267Y0041377
X0194193
X017712
X0160047
X0152047Y005845
X016912
X017712Y007548
X0160047
X0142973
X01259
X0108827
X01179Y005845
X0134973
X0142973Y0041377
X01259
X0108827
X0091754
X007468
X006668Y005845
X0083754
X0100827
X0091754Y007548
X007468
X0057606
X0040534
X0032534Y005845
X0049607
X0057607Y0041377
X0040534
X0014271
X0010924Y005845
X0006387Y007548
X002346
Y0096553
X0006387
X0040534
X0057606
X007468
X0091754
X0108827
X01259
X0142973
X0160047
X017712
X0194215
X0211288
X0228345
X0245418
T06
X0017987Y001273
X0022524Y0029804
X0044134
X0061207
X0052134Y001273
X003506
X0069207
X0086429
X007828Y0029804
X0095354
X0112427
X01295
X0146573
X0163647
X018072
X0171652Y001273
X0154429
X0188725
X0205799
X0222872
X0214867Y0029804
X0197793
X0244482
X0239945Y001273
X0257018
Y0055414
X0239945Y0046877
X0231945Y006395
X0214872
X0197799
X0205793Y0046877
X018872
X0222867
X0171647
X0154573
X0146573Y006395
X0163647
X018072
X01295
X0112427
X0120427Y0046877
X01375
X0103354
X008628
X0069207
X007828Y006395
X0095354
X0061207
X0044134
X0052134Y0046877
X0025871
X0022524Y006395
X0017987Y008098
Y0102053
X003506
X0052134
Y008098
X003506
X0069206
X008628
X0103354
Y0102053
X008628
X0069206
X0120427
X01375
Y008098
X0120427
X0154573
X0171647
Y0102053
X0154573
X018872
X0205815
X0222888
Y008098
X0205815
X018872
X0248482
X0257018Y0102053
X0239945
M30
