M48
;Layer_Color=9474304
;FILE_FORMAT=4:4
METRIC,LZ
;TYPE=PLATED
T01F00S00C0.2000
T02F00S00C0.6000
T03F00S00C1.1000
T04F00S00C3.0000
%
T01
X00128Y000505
X00178
X002035Y000595
X00227519Y00059855
X00228Y000505
X00278
X00328
X00403Y001005
X00261Y001245
Y001405
X00267921Y00140469
X002385Y001355
X00202408Y00139383
X002065Y001245
X00177408Y00139383
X00134Y00118
Y00108
X0012Y00142
X00086Y001415
Y00122
X00078Y000505
X00072139Y00148139
X000715Y00165
X00071648Y00174622
X00093782Y00153112
X001115Y001505
X0012
Y00159
X001095Y002105
X00101
X001055Y00219
X00118059Y00245196
X001165Y00258
X00074Y002555
X00078Y002505
X0007Y002465
X00076Y002365
X00071Y002725
X00064
Y002805
X00071
X000745Y003065
X00053Y003005
X00113855Y00306376
X00108355Y00336376
X00114855Y00366376
X000755Y003665
X00078Y003505
X00028
X00053Y004005
X00103
X00078Y004505
X00028Y002505
X00053Y002005
X00028Y001505
X001285
X00148Y00153
X001535Y001765
X00142
X00153Y002005
X001755Y00223
X00176Y00243
X001745Y00254
X00182Y00261
X001995Y00262
X002055
X002145
X00221
X0023
X00236
X00223Y00275
X002095
X0019634Y00292539
X001955Y003015
X002064Y003049
X00206465Y00314455
X002003Y00315003
X002117Y00309701
X00217Y003097
X002223
X002269Y00314571
X002329Y003097
X002382
X00238313Y00304678
X002475Y003
X002585Y003075
X00268574Y00304333
X002755Y00301
Y00295
Y00289
X00283Y002905
X002845Y003045
X00278Y00307
X00293Y00312
X00298558Y0031188
X00315Y00306
X00311Y00326
X00332768Y00315628
X00352Y003115
X00357718Y0031504
X00378Y003135
X00382Y002995
X00403Y003005
X003645Y002905
X00345Y00291
X00351Y002505
X00378Y002505
X00324Y002515
X00296Y00244
X0029Y00243
X00293Y00258
X002835Y002695
X00258Y00243
X00251Y002335
X002365Y00234
X002215
X002065
X002025Y00215
X00213841
X00221
X00229
X002355
X002625Y00191
X002595Y00183
X00275Y001775
X00292Y001945
X00301Y001865
X00305Y001645
X00328Y001505
X00320088Y00208669
X002945Y00212
X00303Y002215
X00353Y002005
X00261Y001565
X002385Y001515
X002245Y00158
X00217408Y00173279
X002075Y001485
X00199908Y00155883
X00179408Y00162383
X0019Y00183
X001655Y002475
X00159Y00256
X00151Y002645
X001505Y002755
Y003
X0015432Y0029643
X0015844Y0029313
X001625Y002895
X00171Y002985
X001805Y00335543
X00181477Y00353021
X00194269Y00340519
X00199156Y003387
X00199Y003333
X00204004Y00331039
X002295Y00331
X002382Y003193
X00223Y00299933
X00228Y002905
X00228Y003505
X002612Y003317
X00272Y003305
X002855Y00355
X00328Y003505
X00336228Y00340925
X00362228Y00338925
X00378Y003505
X00403Y004005
X00353
X00303
X00253
X00203
X00153
X00140378Y00365817
X00128378Y00312817
X00128Y002505
X001305Y002265
X00128Y004505
X00178
X00228
X00278
X00328
T02
X001958Y002832
X002488Y003362
T03
X001569Y000791
X001823
Y001045
X001569
X002077
X002331
Y000791
X002077
X002585
X002839
Y001045
X002585
X003093
Y000791
X003347
Y001045
X003356Y001835
X00361
X003864
Y002255
X00361
X003356
X00336Y002695
X003614
X003868
T04
X00387Y0004
X0004
X0004Y004405
X00387
M30
