M48
;Layer_Color=9474304
;FILE_FORMAT=4:4
METRIC,LZ
;TYPE=PLATED
T01F00S00C0.2000
T02F00S00C1.1000
T03F00S00C2.0000
;TYPE=NON_PLATED
T04F00S00C0.7000
%
T01
X00843Y002425
X00858
X00873
X00888Y00243
X00903
X00918
X00933Y002425
X00948
X00963
X00828Y00243
X00813Y002425
X00798
X00783
X00768Y00243
X00753
X00738
X00723Y002425
X00708
X00693
X00678Y00243
X00663
X00648
X006325
X00613Y002435
X00603Y00233
X00593252Y00223477
X00583252Y00213477
X0052455Y00222166
X00532328Y00229944
X00516772
X00508994Y00237722
X00516772Y002455
X00501216
X0052455Y00237722
X00532328Y002455
X00540107Y00237722
X00547885Y002455
X005273Y00202
X00487Y002005
X00454525Y00192887
X004545Y00187
X00448016Y00186962
X00448156Y00193
X0044525Y00223608
X0046632Y00228636
X005023Y00152
X005523
X006023
X006273Y00102
X005773
X005273
X004773
X005023Y00052
X005523
X006023
X004023
X003523
X0035Y00076
X00337779Y00103285
X003273Y00102
X003523Y00152
X00366778Y00140285
X004023Y00152
X004273Y00102
X00421632Y00217002
X00422632Y00223502
X00413632
X003773Y00202
X003273
X00279983Y00202654
X0023Y002025
X00221259Y00201966
X002125Y002025
Y00213
X00221009Y00212966
X0023Y002125
Y002225
X00220759Y00222466
X002125Y002225
X00209Y001695
X00236Y00148
X00245
X00219Y00122
X002273Y00102
X001773
X00182587Y00119388
Y00127388
X00193148Y00119265
X00149174Y00113238
X001523Y00152
X00168Y001955
X001273Y00202
X000773
X00049025Y00193475
X000773Y00102
X00104Y00112
X001023Y00052
X001523
X002023
X00198Y000345
X001895
X002523Y00052
X003023
Y00152
X00162Y002395
X000523Y00052
X0010475Y0024675
X001365Y0026
X001485Y00292
X00184Y00291
X00198Y00287
X002075
X00255847Y00280454
X00266847
X00276346Y00275954
X00278846Y00267454
X00279347Y00257954
X00279846Y00248954
X003023Y00252
X00319905Y00342015
X0032Y003635
X004023Y00352
X00425Y00333
X004273Y00302
X003773Y00402
X004023Y00452
X003523
X003023
X002523
X00231Y00422
X00224364Y00422118
X00217864
X002273Y00402
X002023Y00352
X00139Y003365
Y00329
Y003215
X00131
Y00329
Y003365
X001215
Y00329
Y003215
X000773Y00402
X000523Y00452
X001523
X00164204Y0043491
X00173204
X00169Y0043
X004523Y00452
X005023
X005523
X006023
X006273Y00402
X005773
X005273
X005345Y003735
X005523Y00352
X006023
X006273Y00302
X006305Y00261
X006215Y002515
X00648Y00253
X00648Y002655
X00663
X00663Y00253
X00678
X00678Y002655
X00693Y00265
X00693Y002525
X00708
X00708Y00265
X00723
X00723Y002525
X00738Y00253
X00738Y002655
X00753
X00753Y00253
X00768
X00768Y002655
X00783Y00265
X00783Y002525
X00798
X00798Y00265
X00813
X00813Y002525
X00828Y00253
X00828Y002655
X005773Y00302
X005273
X0052455Y00268834
X00532328Y00261056
X00516772
X00508994Y00253278
X0052455
X00540107
X004773Y00302
X005023Y00352
X004523
X004773Y00402
X00843Y00265
X00843Y002525
X00858
X00858Y00265
X00873
X00873Y002525
X00888Y00253
X00888Y002655
X00903
X00903Y00253
X00918
X00918Y002655
X00933Y00265
X00933Y002525
X00948
X00948Y00265
X00963
X00963Y002525
T02
X001038Y000905
X001292
T03
X00622Y00021
X00021
Y00469
X006203
T04
X001265Y0034575
Y0038725
M30
