G04*
G04 #@! TF.GenerationSoftware,Altium Limited,Altium Designer,24.2.2 (26)*
G04*
G04 Layer_Physical_Order=2*
G04 Layer_Color=36540*
%FSLAX44Y44*%
%MOMM*%
G71*
G04*
G04 #@! TF.SameCoordinates,2B7E99FB-4F0D-402E-9D71-9E8D4FD60802*
G04*
G04*
G04 #@! TF.FilePolarity,Positive*
G04*
G01*
G75*
%ADD36C,1.0000*%
%ADD40C,2.0800*%
%ADD41R,2.0800X2.0800*%
%ADD42R,2.0000X2.0000*%
%ADD43C,1.2000*%
%ADD44R,1.5500X2.2000*%
%ADD45C,2.2000*%
%ADD46C,0.6000*%
%ADD47C,0.5000*%
G36*
X2586000Y1078000D02*
X2585995Y1065030D01*
X2563680D01*
Y1041030D01*
X2584573D01*
X2585987Y1039615D01*
X2585955Y945030D01*
X2563680D01*
Y921030D01*
X2584532D01*
X2585946Y919615D01*
X2585838Y598640D01*
X2563680D01*
Y574640D01*
X2584415D01*
X2585829Y573226D01*
X2585797Y478640D01*
X2563680D01*
Y454640D01*
X2584374D01*
X2585788Y453226D01*
X2585693Y171800D01*
X2563680D01*
Y147800D01*
X2584271D01*
X2585685Y146385D01*
X2585652Y51800D01*
X2563680D01*
Y27800D01*
X2584230D01*
X2585644Y26386D01*
X2585640Y13640D01*
X2577000Y5000D01*
X1738389D01*
X1738358Y5042D01*
X1738329Y5128D01*
X1737368Y6791D01*
X1737309Y6859D01*
X1737273Y6941D01*
X1736171Y8515D01*
X1736106Y8577D01*
X1736062Y8656D01*
X1734828Y10128D01*
X1734757Y10184D01*
X1734707Y10259D01*
X1733349Y11617D01*
X1733274Y11667D01*
X1733218Y11738D01*
X1731746Y12973D01*
X1731667Y13016D01*
X1731605Y13081D01*
X1730031Y14183D01*
X1729949Y14219D01*
X1729881Y14278D01*
X1728218Y15239D01*
X1728132Y15268D01*
X1728060Y15321D01*
X1726319Y16133D01*
X1726231Y16154D01*
X1726154Y16201D01*
X1724349Y16858D01*
X1724260Y16872D01*
X1724180Y16911D01*
X1722324Y17409D01*
X1722234Y17415D01*
X1722150Y17447D01*
X1720258Y17781D01*
X1720168Y17779D01*
X1720082Y17804D01*
X1718168Y17971D01*
X1718079Y17962D01*
X1717991Y17979D01*
X1716069Y17979D01*
X1715981Y17962D01*
X1715892Y17971D01*
X1713978Y17804D01*
X1713891Y17779D01*
X1713802Y17781D01*
X1711910Y17447D01*
X1711826Y17415D01*
X1711736Y17409D01*
X1709880Y16911D01*
X1709800Y16872D01*
X1709711Y16858D01*
X1707905Y16201D01*
X1707829Y16154D01*
X1707741Y16133D01*
X1706000Y15321D01*
X1705927Y15268D01*
X1705842Y15239D01*
X1704178Y14278D01*
X1704111Y14219D01*
X1704028Y14183D01*
X1702455Y13081D01*
X1702393Y13016D01*
X1702314Y12973D01*
X1700842Y11738D01*
X1700786Y11667D01*
X1700711Y11617D01*
X1699353Y10259D01*
X1699302Y10184D01*
X1699232Y10128D01*
X1697997Y8656D01*
X1697954Y8577D01*
X1697889Y8515D01*
X1696787Y6941D01*
X1696751Y6859D01*
X1696692Y6791D01*
X1695731Y5128D01*
X1695702Y5042D01*
X1695671Y5000D01*
X938389D01*
X938358Y5042D01*
X938329Y5128D01*
X937368Y6791D01*
X937309Y6859D01*
X937273Y6941D01*
X936171Y8515D01*
X936106Y8577D01*
X936062Y8656D01*
X934828Y10128D01*
X934757Y10184D01*
X934707Y10259D01*
X933349Y11617D01*
X933274Y11667D01*
X933218Y11738D01*
X931746Y12973D01*
X931667Y13016D01*
X931605Y13081D01*
X930031Y14183D01*
X929949Y14219D01*
X929881Y14278D01*
X928218Y15239D01*
X928132Y15268D01*
X928060Y15321D01*
X926319Y16133D01*
X926231Y16154D01*
X926154Y16201D01*
X924349Y16858D01*
X924260Y16872D01*
X924180Y16911D01*
X922324Y17409D01*
X922234Y17415D01*
X922150Y17447D01*
X920258Y17781D01*
X920168Y17779D01*
X920082Y17804D01*
X918168Y17971D01*
X918079Y17962D01*
X917990Y17979D01*
X916069Y17979D01*
X915981Y17962D01*
X915892Y17971D01*
X913978Y17804D01*
X913892Y17779D01*
X913802Y17781D01*
X911910Y17447D01*
X911826Y17415D01*
X911736Y17409D01*
X909880Y16911D01*
X909800Y16872D01*
X909711Y16858D01*
X907906Y16201D01*
X907829Y16154D01*
X907741Y16133D01*
X906000Y15321D01*
X905928Y15268D01*
X905842Y15239D01*
X904178Y14278D01*
X904111Y14219D01*
X904028Y14183D01*
X902455Y13081D01*
X902393Y13016D01*
X902314Y12973D01*
X900842Y11738D01*
X900786Y11667D01*
X900711Y11617D01*
X899352Y10259D01*
X899302Y10184D01*
X899232Y10128D01*
X897998Y8656D01*
X897954Y8577D01*
X897889Y8515D01*
X896787Y6941D01*
X896751Y6859D01*
X896692Y6791D01*
X895731Y5128D01*
X895702Y5042D01*
X895671Y5000D01*
X54000D01*
X48439Y10826D01*
Y27800D01*
X70370D01*
Y51800D01*
X48439D01*
Y147800D01*
X70370D01*
Y171800D01*
X48439D01*
X48439Y710300D01*
X70370D01*
Y734300D01*
X48439D01*
Y830300D01*
X70370D01*
Y854300D01*
X48439D01*
Y921030D01*
X70370D01*
Y945030D01*
X48439D01*
Y1041030D01*
X70370D01*
Y1065030D01*
X48439D01*
Y1079780D01*
X54000Y1085000D01*
X897175Y1085335D01*
X897889Y1084315D01*
X897954Y1084253D01*
X897998Y1084174D01*
X899232Y1082702D01*
X899303Y1082646D01*
X899352Y1082571D01*
X900711Y1081212D01*
X900786Y1081162D01*
X900842Y1081092D01*
X902314Y1079857D01*
X902393Y1079814D01*
X902455Y1079749D01*
X904028Y1078647D01*
X904111Y1078611D01*
X904179Y1078552D01*
X905842Y1077591D01*
X905928Y1077562D01*
X906000Y1077509D01*
X907741Y1076697D01*
X907829Y1076676D01*
X907906Y1076629D01*
X909711Y1075972D01*
X909800Y1075958D01*
X909880Y1075919D01*
X911736Y1075421D01*
X911826Y1075415D01*
X911910Y1075383D01*
X913802Y1075049D01*
X913892Y1075051D01*
X913978Y1075026D01*
X915892Y1074859D01*
X915981Y1074868D01*
X916069Y1074851D01*
X917991Y1074851D01*
X918079Y1074868D01*
X918168Y1074859D01*
X920082Y1075026D01*
X920169Y1075051D01*
X920258Y1075049D01*
X922150Y1075383D01*
X922234Y1075415D01*
X922324Y1075421D01*
X924180Y1075919D01*
X924260Y1075958D01*
X924349Y1075972D01*
X926154Y1076629D01*
X926231Y1076676D01*
X926319Y1076697D01*
X928060Y1077509D01*
X928132Y1077562D01*
X928218Y1077591D01*
X929882Y1078552D01*
X929949Y1078611D01*
X930032Y1078647D01*
X931605Y1079749D01*
X931667Y1079814D01*
X931746Y1079857D01*
X933218Y1081092D01*
X933274Y1081162D01*
X933349Y1081212D01*
X934707Y1082571D01*
X934758Y1082646D01*
X934828Y1082702D01*
X936062Y1084174D01*
X936106Y1084253D01*
X936171Y1084315D01*
X936896Y1085351D01*
X1696952Y1085653D01*
X1697889Y1084315D01*
X1697954Y1084253D01*
X1697997Y1084174D01*
X1699232Y1082702D01*
X1699303Y1082646D01*
X1699353Y1082571D01*
X1700711Y1081212D01*
X1700786Y1081162D01*
X1700842Y1081092D01*
X1702314Y1079857D01*
X1702393Y1079814D01*
X1702455Y1079749D01*
X1704028Y1078647D01*
X1704111Y1078611D01*
X1704179Y1078552D01*
X1705842Y1077591D01*
X1705927Y1077562D01*
X1706000Y1077509D01*
X1707741Y1076697D01*
X1707829Y1076676D01*
X1707906Y1076629D01*
X1709711Y1075972D01*
X1709800Y1075958D01*
X1709880Y1075919D01*
X1711736Y1075421D01*
X1711826Y1075415D01*
X1711910Y1075383D01*
X1713802Y1075049D01*
X1713892Y1075051D01*
X1713978Y1075026D01*
X1715892Y1074859D01*
X1715981Y1074868D01*
X1716069Y1074851D01*
X1717991Y1074851D01*
X1718079Y1074868D01*
X1718168Y1074859D01*
X1720082Y1075026D01*
X1720168Y1075051D01*
X1720258Y1075049D01*
X1722150Y1075383D01*
X1722234Y1075415D01*
X1722324Y1075421D01*
X1724180Y1075919D01*
X1724260Y1075958D01*
X1724349Y1075972D01*
X1726154Y1076629D01*
X1726231Y1076676D01*
X1726319Y1076697D01*
X1728060Y1077509D01*
X1728132Y1077562D01*
X1728218Y1077591D01*
X1729881Y1078552D01*
X1729949Y1078611D01*
X1730031Y1078647D01*
X1731605Y1079749D01*
X1731667Y1079814D01*
X1731746Y1079857D01*
X1733218Y1081092D01*
X1733274Y1081162D01*
X1733349Y1081212D01*
X1734707Y1082571D01*
X1734758Y1082646D01*
X1734828Y1082702D01*
X1736062Y1084174D01*
X1736106Y1084253D01*
X1736171Y1084315D01*
X1737119Y1085669D01*
X2577000Y1086003D01*
X2586000Y1078000D01*
D02*
G37*
%LPC*%
G36*
X2460680Y1065030D02*
X2436680D01*
Y1041030D01*
X2460680D01*
Y1065030D01*
D02*
G37*
G36*
X2416950D02*
X2392950D01*
Y1041030D01*
X2416950D01*
Y1065030D01*
D02*
G37*
G36*
X2289950D02*
X2265950D01*
Y1041030D01*
X2289950D01*
Y1065030D01*
D02*
G37*
G36*
X2246380D02*
X2222380D01*
Y1041030D01*
X2246380D01*
Y1065030D01*
D02*
G37*
G36*
X2119380D02*
X2095380D01*
Y1041030D01*
X2119380D01*
Y1065030D01*
D02*
G37*
G36*
X2075650D02*
X2051650D01*
Y1041030D01*
X2075650D01*
Y1065030D01*
D02*
G37*
G36*
X1948650D02*
X1924650D01*
Y1041030D01*
X1948650D01*
Y1065030D01*
D02*
G37*
G36*
X1904700D02*
X1880700D01*
Y1041030D01*
X1904700D01*
Y1065030D01*
D02*
G37*
G36*
X1777700D02*
X1753700D01*
Y1041030D01*
X1777700D01*
Y1065030D01*
D02*
G37*
G36*
X1733970D02*
X1709970D01*
Y1041030D01*
X1733970D01*
Y1065030D01*
D02*
G37*
G36*
X1606970D02*
X1582970D01*
Y1041030D01*
X1606970D01*
Y1065030D01*
D02*
G37*
G36*
X1563230D02*
X1539230D01*
Y1041030D01*
X1563230D01*
Y1065030D01*
D02*
G37*
G36*
X1436230D02*
X1412230D01*
Y1041030D01*
X1436230D01*
Y1065030D01*
D02*
G37*
G36*
X1392500D02*
X1368500D01*
Y1041030D01*
X1392500D01*
Y1065030D01*
D02*
G37*
G36*
X1265500D02*
X1241500D01*
Y1041030D01*
X1265500D01*
Y1065030D01*
D02*
G37*
G36*
X1221770D02*
X1197770D01*
Y1041030D01*
X1221770D01*
Y1065030D01*
D02*
G37*
G36*
X1094770D02*
X1070770D01*
Y1041030D01*
X1094770D01*
Y1065030D01*
D02*
G37*
G36*
X1051040D02*
X1027040D01*
Y1041030D01*
X1051040D01*
Y1065030D01*
D02*
G37*
G36*
X924040D02*
X900040D01*
Y1041030D01*
X924040D01*
Y1065030D01*
D02*
G37*
G36*
X880300D02*
X856300D01*
Y1041030D01*
X880300D01*
Y1065030D01*
D02*
G37*
G36*
X753300D02*
X729300D01*
Y1041030D01*
X753300D01*
Y1065030D01*
D02*
G37*
G36*
X709560D02*
X685560D01*
Y1041030D01*
X709560D01*
Y1065030D01*
D02*
G37*
G36*
X582560D02*
X558560D01*
Y1041030D01*
X582560D01*
Y1065030D01*
D02*
G37*
G36*
X538840D02*
X514840D01*
Y1041030D01*
X538840D01*
Y1065030D01*
D02*
G37*
G36*
X411840D02*
X387840D01*
Y1041030D01*
X411840D01*
Y1065030D01*
D02*
G37*
G36*
X368100D02*
X344100D01*
Y1041030D01*
X368100D01*
Y1065030D01*
D02*
G37*
G36*
X241100D02*
X217100D01*
Y1041030D01*
X241100D01*
Y1065030D01*
D02*
G37*
G36*
X197370D02*
X173370D01*
Y1041030D01*
X197370D01*
Y1065030D01*
D02*
G37*
G36*
X2146875Y1043000D02*
X2144885D01*
X2143048Y1042239D01*
X2141641Y1040832D01*
X2140880Y1038995D01*
Y1037005D01*
X2141641Y1035168D01*
X2143048Y1033761D01*
X2144885Y1033000D01*
X2146875D01*
X2148712Y1033761D01*
X2150119Y1035168D01*
X2150880Y1037005D01*
Y1038995D01*
X2150119Y1040832D01*
X2148712Y1042239D01*
X2146875Y1043000D01*
D02*
G37*
G36*
X1634465D02*
X1632475D01*
X1630638Y1042239D01*
X1629231Y1040832D01*
X1628470Y1038995D01*
Y1037005D01*
X1629231Y1035168D01*
X1630638Y1033761D01*
X1632475Y1033000D01*
X1634465D01*
X1636302Y1033761D01*
X1637709Y1035168D01*
X1638470Y1037005D01*
Y1038995D01*
X1637709Y1040832D01*
X1636302Y1042239D01*
X1634465Y1043000D01*
D02*
G37*
G36*
X1122265D02*
X1120275D01*
X1118438Y1042239D01*
X1117031Y1040832D01*
X1116270Y1038995D01*
Y1037005D01*
X1117031Y1035168D01*
X1118438Y1033761D01*
X1120275Y1033000D01*
X1122265D01*
X1124102Y1033761D01*
X1125509Y1035168D01*
X1126270Y1037005D01*
Y1038995D01*
X1125509Y1040832D01*
X1124102Y1042239D01*
X1122265Y1043000D01*
D02*
G37*
G36*
X610055D02*
X608065D01*
X606228Y1042239D01*
X604821Y1040832D01*
X604060Y1038995D01*
Y1037005D01*
X604821Y1035168D01*
X606228Y1033761D01*
X608065Y1033000D01*
X610055D01*
X611892Y1033761D01*
X613299Y1035168D01*
X614060Y1037005D01*
Y1038995D01*
X613299Y1040832D01*
X611892Y1042239D01*
X610055Y1043000D01*
D02*
G37*
G36*
X2571102Y1027530D02*
X2569258D01*
X2567478Y1027053D01*
X2565882Y1026131D01*
X2564579Y1024828D01*
X2563657Y1023232D01*
X2563180Y1021452D01*
Y1019609D01*
X2563657Y1017828D01*
X2564579Y1016232D01*
X2565882Y1014929D01*
X2567478Y1014007D01*
X2569258Y1013530D01*
X2571102D01*
X2572882Y1014007D01*
X2574478Y1014929D01*
X2575781Y1016232D01*
X2576703Y1017828D01*
X2577180Y1019609D01*
Y1021452D01*
X2576703Y1023232D01*
X2575781Y1024828D01*
X2574478Y1026131D01*
X2572882Y1027053D01*
X2571102Y1027530D01*
D02*
G37*
G36*
X2400372D02*
X2398528D01*
X2396748Y1027053D01*
X2395152Y1026131D01*
X2393849Y1024828D01*
X2392927Y1023232D01*
X2392450Y1021452D01*
Y1019609D01*
X2392927Y1017828D01*
X2393849Y1016232D01*
X2395152Y1014929D01*
X2396748Y1014007D01*
X2398528Y1013530D01*
X2400372D01*
X2402152Y1014007D01*
X2403748Y1014929D01*
X2405051Y1016232D01*
X2405973Y1017828D01*
X2406450Y1019609D01*
Y1021452D01*
X2405973Y1023232D01*
X2405051Y1024828D01*
X2403748Y1026131D01*
X2402152Y1027053D01*
X2400372Y1027530D01*
D02*
G37*
G36*
X2229802D02*
X2227959D01*
X2226178Y1027053D01*
X2224582Y1026131D01*
X2223279Y1024828D01*
X2222357Y1023232D01*
X2221880Y1021452D01*
Y1019609D01*
X2222357Y1017828D01*
X2223279Y1016232D01*
X2224582Y1014929D01*
X2226178Y1014007D01*
X2227959Y1013530D01*
X2229802D01*
X2231582Y1014007D01*
X2233178Y1014929D01*
X2234481Y1016232D01*
X2235403Y1017828D01*
X2235880Y1019609D01*
Y1021452D01*
X2235403Y1023232D01*
X2234481Y1024828D01*
X2233178Y1026131D01*
X2231582Y1027053D01*
X2229802Y1027530D01*
D02*
G37*
G36*
X2059072D02*
X2057228D01*
X2055448Y1027053D01*
X2053852Y1026131D01*
X2052549Y1024828D01*
X2051627Y1023232D01*
X2051150Y1021452D01*
Y1019609D01*
X2051627Y1017828D01*
X2052549Y1016232D01*
X2053852Y1014929D01*
X2055448Y1014007D01*
X2057228Y1013530D01*
X2059072D01*
X2060852Y1014007D01*
X2062448Y1014929D01*
X2063751Y1016232D01*
X2064673Y1017828D01*
X2065150Y1019609D01*
Y1021452D01*
X2064673Y1023232D01*
X2063751Y1024828D01*
X2062448Y1026131D01*
X2060852Y1027053D01*
X2059072Y1027530D01*
D02*
G37*
G36*
X1888122D02*
X1886278D01*
X1884498Y1027053D01*
X1882902Y1026131D01*
X1881599Y1024828D01*
X1880677Y1023232D01*
X1880200Y1021452D01*
Y1019609D01*
X1880677Y1017828D01*
X1881599Y1016232D01*
X1882902Y1014929D01*
X1884498Y1014007D01*
X1886278Y1013530D01*
X1888122D01*
X1889902Y1014007D01*
X1891498Y1014929D01*
X1892801Y1016232D01*
X1893723Y1017828D01*
X1894200Y1019609D01*
Y1021452D01*
X1893723Y1023232D01*
X1892801Y1024828D01*
X1891498Y1026131D01*
X1889902Y1027053D01*
X1888122Y1027530D01*
D02*
G37*
G36*
X1717392D02*
X1715548D01*
X1713768Y1027053D01*
X1712172Y1026131D01*
X1710869Y1024828D01*
X1709947Y1023232D01*
X1709470Y1021452D01*
Y1019609D01*
X1709947Y1017828D01*
X1710869Y1016232D01*
X1712172Y1014929D01*
X1713768Y1014007D01*
X1715548Y1013530D01*
X1717392D01*
X1719172Y1014007D01*
X1720768Y1014929D01*
X1722071Y1016232D01*
X1722993Y1017828D01*
X1723470Y1019609D01*
Y1021452D01*
X1722993Y1023232D01*
X1722071Y1024828D01*
X1720768Y1026131D01*
X1719172Y1027053D01*
X1717392Y1027530D01*
D02*
G37*
G36*
X1546652D02*
X1544808D01*
X1543028Y1027053D01*
X1541432Y1026131D01*
X1540129Y1024828D01*
X1539207Y1023232D01*
X1538730Y1021452D01*
Y1019609D01*
X1539207Y1017828D01*
X1540129Y1016232D01*
X1541432Y1014929D01*
X1543028Y1014007D01*
X1544808Y1013530D01*
X1546652D01*
X1548432Y1014007D01*
X1550028Y1014929D01*
X1551331Y1016232D01*
X1552253Y1017828D01*
X1552730Y1019609D01*
Y1021452D01*
X1552253Y1023232D01*
X1551331Y1024828D01*
X1550028Y1026131D01*
X1548432Y1027053D01*
X1546652Y1027530D01*
D02*
G37*
G36*
X1375922D02*
X1374079D01*
X1372298Y1027053D01*
X1370702Y1026131D01*
X1369399Y1024828D01*
X1368477Y1023232D01*
X1368000Y1021452D01*
Y1019609D01*
X1368477Y1017828D01*
X1369399Y1016232D01*
X1370702Y1014929D01*
X1372298Y1014007D01*
X1374079Y1013530D01*
X1375922D01*
X1377702Y1014007D01*
X1379298Y1014929D01*
X1380601Y1016232D01*
X1381523Y1017828D01*
X1382000Y1019609D01*
Y1021452D01*
X1381523Y1023232D01*
X1380601Y1024828D01*
X1379298Y1026131D01*
X1377702Y1027053D01*
X1375922Y1027530D01*
D02*
G37*
G36*
X1205192D02*
X1203348D01*
X1201568Y1027053D01*
X1199972Y1026131D01*
X1198669Y1024828D01*
X1197747Y1023232D01*
X1197270Y1021452D01*
Y1019609D01*
X1197747Y1017828D01*
X1198669Y1016232D01*
X1199972Y1014929D01*
X1201568Y1014007D01*
X1203348Y1013530D01*
X1205192D01*
X1206972Y1014007D01*
X1208568Y1014929D01*
X1209871Y1016232D01*
X1210793Y1017828D01*
X1211270Y1019609D01*
Y1021452D01*
X1210793Y1023232D01*
X1209871Y1024828D01*
X1208568Y1026131D01*
X1206972Y1027053D01*
X1205192Y1027530D01*
D02*
G37*
G36*
X1034462D02*
X1032618D01*
X1030838Y1027053D01*
X1029242Y1026131D01*
X1027939Y1024828D01*
X1027017Y1023232D01*
X1026540Y1021452D01*
Y1019609D01*
X1027017Y1017828D01*
X1027939Y1016232D01*
X1029242Y1014929D01*
X1030838Y1014007D01*
X1032618Y1013530D01*
X1034462D01*
X1036242Y1014007D01*
X1037838Y1014929D01*
X1039141Y1016232D01*
X1040063Y1017828D01*
X1040540Y1019609D01*
Y1021452D01*
X1040063Y1023232D01*
X1039141Y1024828D01*
X1037838Y1026131D01*
X1036242Y1027053D01*
X1034462Y1027530D01*
D02*
G37*
G36*
X863722D02*
X861878D01*
X860098Y1027053D01*
X858502Y1026131D01*
X857199Y1024828D01*
X856277Y1023232D01*
X855800Y1021452D01*
Y1019609D01*
X856277Y1017828D01*
X857199Y1016232D01*
X858502Y1014929D01*
X860098Y1014007D01*
X861878Y1013530D01*
X863722D01*
X865502Y1014007D01*
X867098Y1014929D01*
X868401Y1016232D01*
X869323Y1017828D01*
X869800Y1019609D01*
Y1021452D01*
X869323Y1023232D01*
X868401Y1024828D01*
X867098Y1026131D01*
X865502Y1027053D01*
X863722Y1027530D01*
D02*
G37*
G36*
X692982D02*
X691138D01*
X689358Y1027053D01*
X687762Y1026131D01*
X686459Y1024828D01*
X685537Y1023232D01*
X685060Y1021452D01*
Y1019609D01*
X685537Y1017828D01*
X686459Y1016232D01*
X687762Y1014929D01*
X689358Y1014007D01*
X691138Y1013530D01*
X692982D01*
X694762Y1014007D01*
X696358Y1014929D01*
X697661Y1016232D01*
X698583Y1017828D01*
X699060Y1019609D01*
Y1021452D01*
X698583Y1023232D01*
X697661Y1024828D01*
X696358Y1026131D01*
X694762Y1027053D01*
X692982Y1027530D01*
D02*
G37*
G36*
X522262D02*
X520418D01*
X518638Y1027053D01*
X517042Y1026131D01*
X515739Y1024828D01*
X514817Y1023232D01*
X514340Y1021452D01*
Y1019609D01*
X514817Y1017828D01*
X515739Y1016232D01*
X517042Y1014929D01*
X518638Y1014007D01*
X520418Y1013530D01*
X522262D01*
X524042Y1014007D01*
X525638Y1014929D01*
X526941Y1016232D01*
X527863Y1017828D01*
X528340Y1019609D01*
Y1021452D01*
X527863Y1023232D01*
X526941Y1024828D01*
X525638Y1026131D01*
X524042Y1027053D01*
X522262Y1027530D01*
D02*
G37*
G36*
X351522D02*
X349678D01*
X347898Y1027053D01*
X346302Y1026131D01*
X344999Y1024828D01*
X344077Y1023232D01*
X343600Y1021452D01*
Y1019609D01*
X344077Y1017828D01*
X344999Y1016232D01*
X346302Y1014929D01*
X347898Y1014007D01*
X349678Y1013530D01*
X351522D01*
X353302Y1014007D01*
X354898Y1014929D01*
X356201Y1016232D01*
X357123Y1017828D01*
X357600Y1019609D01*
Y1021452D01*
X357123Y1023232D01*
X356201Y1024828D01*
X354898Y1026131D01*
X353302Y1027053D01*
X351522Y1027530D01*
D02*
G37*
G36*
X180792D02*
X178948D01*
X177168Y1027053D01*
X175572Y1026131D01*
X174269Y1024828D01*
X173347Y1023232D01*
X172870Y1021452D01*
Y1019609D01*
X173347Y1017828D01*
X174269Y1016232D01*
X175572Y1014929D01*
X177168Y1014007D01*
X178948Y1013530D01*
X180792D01*
X182572Y1014007D01*
X184168Y1014929D01*
X185471Y1016232D01*
X186393Y1017828D01*
X186870Y1019609D01*
Y1021452D01*
X186393Y1023232D01*
X185471Y1024828D01*
X184168Y1026131D01*
X182572Y1027053D01*
X180792Y1027530D01*
D02*
G37*
G36*
X2537224Y1010000D02*
X2535235D01*
X2533398Y1009239D01*
X2531991Y1007832D01*
X2531230Y1005995D01*
Y1004005D01*
X2531991Y1002168D01*
X2533398Y1000761D01*
X2535235Y1000000D01*
X2537224D01*
X2539062Y1000761D01*
X2540469Y1002168D01*
X2541230Y1004005D01*
Y1005995D01*
X2540469Y1007832D01*
X2539062Y1009239D01*
X2537224Y1010000D01*
D02*
G37*
G36*
X2366649D02*
X2364659D01*
X2362822Y1009239D01*
X2361415Y1007832D01*
X2360654Y1005995D01*
Y1004005D01*
X2361415Y1002168D01*
X2362822Y1000761D01*
X2364659Y1000000D01*
X2366649D01*
X2368486Y1000761D01*
X2369893Y1002168D01*
X2370654Y1004005D01*
Y1005995D01*
X2369893Y1007832D01*
X2368486Y1009239D01*
X2366649Y1010000D01*
D02*
G37*
G36*
X2196445D02*
X2194455D01*
X2192618Y1009239D01*
X2191211Y1007832D01*
X2190450Y1005995D01*
Y1004005D01*
X2191211Y1002168D01*
X2192618Y1000761D01*
X2194455Y1000000D01*
X2196445D01*
X2198282Y1000761D01*
X2199689Y1002168D01*
X2200450Y1004005D01*
Y1005995D01*
X2199689Y1007832D01*
X2198282Y1009239D01*
X2196445Y1010000D01*
D02*
G37*
G36*
X2025615D02*
X2023625D01*
X2021788Y1009239D01*
X2020381Y1007832D01*
X2019620Y1005995D01*
Y1004005D01*
X2020381Y1002168D01*
X2021788Y1000761D01*
X2023625Y1000000D01*
X2025615D01*
X2027452Y1000761D01*
X2028859Y1002168D01*
X2029620Y1004005D01*
Y1005995D01*
X2028859Y1007832D01*
X2027452Y1009239D01*
X2025615Y1010000D01*
D02*
G37*
G36*
X1854615D02*
X1852625D01*
X1850788Y1009239D01*
X1849381Y1007832D01*
X1848620Y1005995D01*
Y1004005D01*
X1849381Y1002168D01*
X1850788Y1000761D01*
X1852625Y1000000D01*
X1854615D01*
X1856452Y1000761D01*
X1857859Y1002168D01*
X1858620Y1004005D01*
Y1005995D01*
X1857859Y1007832D01*
X1856452Y1009239D01*
X1854615Y1010000D01*
D02*
G37*
G36*
X1683935D02*
X1681945D01*
X1680108Y1009239D01*
X1678701Y1007832D01*
X1677940Y1005995D01*
Y1004005D01*
X1678701Y1002168D01*
X1680108Y1000761D01*
X1681945Y1000000D01*
X1683935D01*
X1685772Y1000761D01*
X1687179Y1002168D01*
X1687940Y1004005D01*
Y1005995D01*
X1687179Y1007832D01*
X1685772Y1009239D01*
X1683935Y1010000D01*
D02*
G37*
G36*
X1513335D02*
X1511345D01*
X1509508Y1009239D01*
X1508101Y1007832D01*
X1507340Y1005995D01*
Y1004005D01*
X1508101Y1002168D01*
X1509508Y1000761D01*
X1511345Y1000000D01*
X1513335D01*
X1515172Y1000761D01*
X1516579Y1002168D01*
X1517340Y1004005D01*
Y1005995D01*
X1516579Y1007832D01*
X1515172Y1009239D01*
X1513335Y1010000D01*
D02*
G37*
G36*
X1342615D02*
X1340625D01*
X1338788Y1009239D01*
X1337381Y1007832D01*
X1336620Y1005995D01*
Y1004005D01*
X1337381Y1002168D01*
X1338788Y1000761D01*
X1340625Y1000000D01*
X1342615D01*
X1344452Y1000761D01*
X1345859Y1002168D01*
X1346620Y1004005D01*
Y1005995D01*
X1345859Y1007832D01*
X1344452Y1009239D01*
X1342615Y1010000D01*
D02*
G37*
G36*
X1171785D02*
X1169795D01*
X1167958Y1009239D01*
X1166551Y1007832D01*
X1165790Y1005995D01*
Y1004005D01*
X1166551Y1002168D01*
X1167958Y1000761D01*
X1169795Y1000000D01*
X1171785D01*
X1173622Y1000761D01*
X1175029Y1002168D01*
X1175790Y1004005D01*
Y1005995D01*
X1175029Y1007832D01*
X1173622Y1009239D01*
X1171785Y1010000D01*
D02*
G37*
G36*
X1001125D02*
X999135D01*
X997298Y1009239D01*
X995891Y1007832D01*
X995130Y1005995D01*
Y1004005D01*
X995891Y1002168D01*
X997298Y1000761D01*
X999135Y1000000D01*
X1001125D01*
X1002962Y1000761D01*
X1004369Y1002168D01*
X1005130Y1004005D01*
Y1005995D01*
X1004369Y1007832D01*
X1002962Y1009239D01*
X1001125Y1010000D01*
D02*
G37*
G36*
X829140D02*
X827150D01*
X825313Y1009239D01*
X823906Y1007832D01*
X823145Y1005995D01*
Y1004005D01*
X823906Y1002168D01*
X825313Y1000761D01*
X827150Y1000000D01*
X829140D01*
X830977Y1000761D01*
X832384Y1002168D01*
X833145Y1004005D01*
Y1005995D01*
X832384Y1007832D01*
X830977Y1009239D01*
X829140Y1010000D01*
D02*
G37*
G36*
X659615D02*
X657625D01*
X655788Y1009239D01*
X654381Y1007832D01*
X653620Y1005995D01*
Y1004005D01*
X654381Y1002168D01*
X655788Y1000761D01*
X657625Y1000000D01*
X659615D01*
X661452Y1000761D01*
X662859Y1002168D01*
X663620Y1004005D01*
Y1005995D01*
X662859Y1007832D01*
X661452Y1009239D01*
X659615Y1010000D01*
D02*
G37*
G36*
X488975D02*
X486985D01*
X485148Y1009239D01*
X483741Y1007832D01*
X482980Y1005995D01*
Y1004005D01*
X483741Y1002168D01*
X485148Y1000761D01*
X486985Y1000000D01*
X488975D01*
X490812Y1000761D01*
X492219Y1002168D01*
X492980Y1004005D01*
Y1005995D01*
X492219Y1007832D01*
X490812Y1009239D01*
X488975Y1010000D01*
D02*
G37*
G36*
X318165D02*
X316175D01*
X314338Y1009239D01*
X312931Y1007832D01*
X312170Y1005995D01*
Y1004005D01*
X312931Y1002168D01*
X314338Y1000761D01*
X316175Y1000000D01*
X318165D01*
X320002Y1000761D01*
X321409Y1002168D01*
X322170Y1004005D01*
Y1005995D01*
X321409Y1007832D01*
X320002Y1009239D01*
X318165Y1010000D01*
D02*
G37*
G36*
X147465D02*
X145475D01*
X143638Y1009239D01*
X142231Y1007832D01*
X141470Y1005995D01*
Y1004005D01*
X142231Y1002168D01*
X143638Y1000761D01*
X145475Y1000000D01*
X147465D01*
X149302Y1000761D01*
X150709Y1002168D01*
X151470Y1004005D01*
Y1005995D01*
X150709Y1007832D01*
X149302Y1009239D01*
X147465Y1010000D01*
D02*
G37*
G36*
X1369073Y1008421D02*
X1367084D01*
X1365246Y1007660D01*
X1363840Y1006254D01*
X1363079Y1004416D01*
Y1002427D01*
X1363840Y1000589D01*
X1365246Y999183D01*
X1367084Y998421D01*
X1369073D01*
X1370911Y999183D01*
X1372318Y1000589D01*
X1373079Y1002427D01*
Y1004416D01*
X1372318Y1006254D01*
X1370911Y1007660D01*
X1369073Y1008421D01*
D02*
G37*
G36*
X105985Y1005869D02*
X103995D01*
X102158Y1005107D01*
X100751Y1003701D01*
X99990Y1001863D01*
Y999874D01*
X100751Y998036D01*
X102158Y996630D01*
X103995Y995869D01*
X105985D01*
X107822Y996630D01*
X109229Y998036D01*
X109990Y999874D01*
Y1001863D01*
X109229Y1003701D01*
X107822Y1005107D01*
X105985Y1005869D01*
D02*
G37*
G36*
X2455373Y971530D02*
X2452986D01*
X2450781Y970617D01*
X2449093Y968929D01*
X2448180Y966723D01*
Y964337D01*
X2449093Y962131D01*
X2450781Y960443D01*
X2452986Y959530D01*
X2455373D01*
X2457579Y960443D01*
X2459267Y962131D01*
X2460180Y964337D01*
Y966723D01*
X2459267Y968929D01*
X2457579Y970617D01*
X2455373Y971530D01*
D02*
G37*
G36*
X2284644D02*
X2282256D01*
X2280051Y970617D01*
X2278363Y968929D01*
X2277450Y966723D01*
Y964337D01*
X2278363Y962131D01*
X2280051Y960443D01*
X2282256Y959530D01*
X2284644D01*
X2286849Y960443D01*
X2288537Y962131D01*
X2289450Y964337D01*
Y966723D01*
X2288537Y968929D01*
X2286849Y970617D01*
X2284644Y971530D01*
D02*
G37*
G36*
X2114073D02*
X2111687D01*
X2109481Y970617D01*
X2107793Y968929D01*
X2106880Y966723D01*
Y964337D01*
X2107793Y962131D01*
X2109481Y960443D01*
X2111687Y959530D01*
X2114073D01*
X2116279Y960443D01*
X2117967Y962131D01*
X2118880Y964337D01*
Y966723D01*
X2117967Y968929D01*
X2116279Y970617D01*
X2114073Y971530D01*
D02*
G37*
G36*
X1943344D02*
X1940957D01*
X1938751Y970617D01*
X1937063Y968929D01*
X1936150Y966723D01*
Y964337D01*
X1937063Y962131D01*
X1938751Y960443D01*
X1940957Y959530D01*
X1943344D01*
X1945549Y960443D01*
X1947236Y962131D01*
X1948150Y964337D01*
Y966723D01*
X1947236Y968929D01*
X1945549Y970617D01*
X1943344Y971530D01*
D02*
G37*
G36*
X1772393D02*
X1770007D01*
X1767801Y970617D01*
X1766113Y968929D01*
X1765200Y966723D01*
Y964337D01*
X1766113Y962131D01*
X1767801Y960443D01*
X1770007Y959530D01*
X1772393D01*
X1774599Y960443D01*
X1776286Y962131D01*
X1777200Y964337D01*
Y966723D01*
X1776286Y968929D01*
X1774599Y970617D01*
X1772393Y971530D01*
D02*
G37*
G36*
X1601663D02*
X1599276D01*
X1597071Y970617D01*
X1595383Y968929D01*
X1594470Y966723D01*
Y964337D01*
X1595383Y962131D01*
X1597071Y960443D01*
X1599276Y959530D01*
X1601663D01*
X1603869Y960443D01*
X1605556Y962131D01*
X1606470Y964337D01*
Y966723D01*
X1605556Y968929D01*
X1603869Y970617D01*
X1601663Y971530D01*
D02*
G37*
G36*
X1430923D02*
X1428537D01*
X1426331Y970617D01*
X1424643Y968929D01*
X1423730Y966723D01*
Y964337D01*
X1424643Y962131D01*
X1426331Y960443D01*
X1428537Y959530D01*
X1430923D01*
X1433129Y960443D01*
X1434816Y962131D01*
X1435730Y964337D01*
Y966723D01*
X1434816Y968929D01*
X1433129Y970617D01*
X1430923Y971530D01*
D02*
G37*
G36*
X1260193D02*
X1257806D01*
X1255601Y970617D01*
X1253913Y968929D01*
X1253000Y966723D01*
Y964337D01*
X1253913Y962131D01*
X1255601Y960443D01*
X1257806Y959530D01*
X1260193D01*
X1262399Y960443D01*
X1264087Y962131D01*
X1265000Y964337D01*
Y966723D01*
X1264087Y968929D01*
X1262399Y970617D01*
X1260193Y971530D01*
D02*
G37*
G36*
X1089464D02*
X1087076D01*
X1084871Y970617D01*
X1083183Y968929D01*
X1082270Y966723D01*
Y964337D01*
X1083183Y962131D01*
X1084871Y960443D01*
X1087076Y959530D01*
X1089464D01*
X1091669Y960443D01*
X1093356Y962131D01*
X1094270Y964337D01*
Y966723D01*
X1093356Y968929D01*
X1091669Y970617D01*
X1089464Y971530D01*
D02*
G37*
G36*
X918734D02*
X916347D01*
X914141Y970617D01*
X912453Y968929D01*
X911540Y966723D01*
Y964337D01*
X912453Y962131D01*
X914141Y960443D01*
X916347Y959530D01*
X918734D01*
X920939Y960443D01*
X922627Y962131D01*
X923540Y964337D01*
Y966723D01*
X922627Y968929D01*
X920939Y970617D01*
X918734Y971530D01*
D02*
G37*
G36*
X747993D02*
X745607D01*
X743401Y970617D01*
X741713Y968929D01*
X740800Y966723D01*
Y964337D01*
X741713Y962131D01*
X743401Y960443D01*
X745607Y959530D01*
X747993D01*
X750199Y960443D01*
X751887Y962131D01*
X752800Y964337D01*
Y966723D01*
X751887Y968929D01*
X750199Y970617D01*
X747993Y971530D01*
D02*
G37*
G36*
X577253D02*
X574866D01*
X572661Y970617D01*
X570973Y968929D01*
X570060Y966723D01*
Y964337D01*
X570973Y962131D01*
X572661Y960443D01*
X574866Y959530D01*
X577253D01*
X579459Y960443D01*
X581147Y962131D01*
X582060Y964337D01*
Y966723D01*
X581147Y968929D01*
X579459Y970617D01*
X577253Y971530D01*
D02*
G37*
G36*
X406534D02*
X404146D01*
X401941Y970617D01*
X400253Y968929D01*
X399340Y966723D01*
Y964337D01*
X400253Y962131D01*
X401941Y960443D01*
X404146Y959530D01*
X406534D01*
X408739Y960443D01*
X410426Y962131D01*
X411340Y964337D01*
Y966723D01*
X410426Y968929D01*
X408739Y970617D01*
X406534Y971530D01*
D02*
G37*
G36*
X235793D02*
X233407D01*
X231201Y970617D01*
X229513Y968929D01*
X228600Y966723D01*
Y964337D01*
X229513Y962131D01*
X231201Y960443D01*
X233407Y959530D01*
X235793D01*
X237999Y960443D01*
X239687Y962131D01*
X240600Y964337D01*
Y966723D01*
X239687Y968929D01*
X237999Y970617D01*
X235793Y971530D01*
D02*
G37*
G36*
X65063D02*
X62677D01*
X60471Y970617D01*
X58783Y968929D01*
X57870Y966723D01*
Y964337D01*
X58783Y962131D01*
X60471Y960443D01*
X62677Y959530D01*
X65063D01*
X67269Y960443D01*
X68956Y962131D01*
X69870Y964337D01*
Y966723D01*
X68956Y968929D01*
X67269Y970617D01*
X65063Y971530D01*
D02*
G37*
G36*
X2546930Y978530D02*
X2527430D01*
Y952530D01*
X2546930D01*
Y978530D01*
D02*
G37*
G36*
X2496930D02*
X2477430D01*
Y952530D01*
X2496930D01*
Y978530D01*
D02*
G37*
G36*
X2376200D02*
X2356700D01*
Y952530D01*
X2376200D01*
Y978530D01*
D02*
G37*
G36*
X2326200D02*
X2306700D01*
Y952530D01*
X2326200D01*
Y978530D01*
D02*
G37*
G36*
X2205630D02*
X2186130D01*
Y952530D01*
X2205630D01*
Y978530D01*
D02*
G37*
G36*
X2155630D02*
X2136130D01*
Y952530D01*
X2155630D01*
Y978530D01*
D02*
G37*
G36*
X2034900D02*
X2015400D01*
Y952530D01*
X2034900D01*
Y978530D01*
D02*
G37*
G36*
X1984900D02*
X1965400D01*
Y952530D01*
X1984900D01*
Y978530D01*
D02*
G37*
G36*
X1863950D02*
X1844450D01*
Y952530D01*
X1863950D01*
Y978530D01*
D02*
G37*
G36*
X1813950D02*
X1794450D01*
Y952530D01*
X1813950D01*
Y978530D01*
D02*
G37*
G36*
X1693220D02*
X1673720D01*
Y952530D01*
X1693220D01*
Y978530D01*
D02*
G37*
G36*
X1643220D02*
X1623720D01*
Y952530D01*
X1643220D01*
Y978530D01*
D02*
G37*
G36*
X1522480D02*
X1502980D01*
Y952530D01*
X1522480D01*
Y978530D01*
D02*
G37*
G36*
X1472480D02*
X1452980D01*
Y952530D01*
X1472480D01*
Y978530D01*
D02*
G37*
G36*
X1351750D02*
X1332250D01*
Y952530D01*
X1351750D01*
Y978530D01*
D02*
G37*
G36*
X1301750D02*
X1282250D01*
Y952530D01*
X1301750D01*
Y978530D01*
D02*
G37*
G36*
X1181020D02*
X1161520D01*
Y952530D01*
X1181020D01*
Y978530D01*
D02*
G37*
G36*
X1131020D02*
X1111520D01*
Y952530D01*
X1131020D01*
Y978530D01*
D02*
G37*
G36*
X1010290D02*
X990790D01*
Y952530D01*
X1010290D01*
Y978530D01*
D02*
G37*
G36*
X960290D02*
X940790D01*
Y952530D01*
X960290D01*
Y978530D01*
D02*
G37*
G36*
X839550D02*
X820050D01*
Y952530D01*
X839550D01*
Y978530D01*
D02*
G37*
G36*
X789550D02*
X770050D01*
Y952530D01*
X789550D01*
Y978530D01*
D02*
G37*
G36*
X668810D02*
X649310D01*
Y952530D01*
X668810D01*
Y978530D01*
D02*
G37*
G36*
X618810D02*
X599310D01*
Y952530D01*
X618810D01*
Y978530D01*
D02*
G37*
G36*
X498090D02*
X478590D01*
Y952530D01*
X498090D01*
Y978530D01*
D02*
G37*
G36*
X448090D02*
X428590D01*
Y952530D01*
X448090D01*
Y978530D01*
D02*
G37*
G36*
X327350D02*
X307850D01*
Y952530D01*
X327350D01*
Y978530D01*
D02*
G37*
G36*
X277350D02*
X257850D01*
Y952530D01*
X277350D01*
Y978530D01*
D02*
G37*
G36*
X156620D02*
X137120D01*
Y952530D01*
X156620D01*
Y978530D01*
D02*
G37*
G36*
X106620D02*
X87120D01*
Y952530D01*
X106620D01*
Y978530D01*
D02*
G37*
G36*
X1339086Y933075D02*
X1337097D01*
X1335259Y932314D01*
X1333853Y930908D01*
X1333091Y929070D01*
Y927081D01*
X1333853Y925243D01*
X1335259Y923837D01*
X1337097Y923075D01*
X1339086D01*
X1340924Y923837D01*
X1342330Y925243D01*
X1343091Y927081D01*
Y929070D01*
X1342330Y930908D01*
X1340924Y932314D01*
X1339086Y933075D01*
D02*
G37*
G36*
X1319995Y933000D02*
X1318005D01*
X1316168Y932239D01*
X1314761Y930832D01*
X1314000Y928995D01*
Y927005D01*
X1314761Y925168D01*
X1316168Y923761D01*
X1318005Y923000D01*
X1319995D01*
X1321832Y923761D01*
X1323239Y925168D01*
X1324000Y927005D01*
Y928995D01*
X1323239Y930832D01*
X1321832Y932239D01*
X1319995Y933000D01*
D02*
G37*
G36*
X1303995D02*
X1302005D01*
X1300168Y932239D01*
X1298761Y930832D01*
X1298000Y928995D01*
Y927005D01*
X1298761Y925168D01*
X1300168Y923761D01*
X1302005Y923000D01*
X1303995D01*
X1305832Y923761D01*
X1307239Y925168D01*
X1308000Y927005D01*
Y928995D01*
X1307239Y930832D01*
X1305832Y932239D01*
X1303995Y933000D01*
D02*
G37*
G36*
X2460680Y945030D02*
X2436680D01*
Y921030D01*
X2460680D01*
Y945030D01*
D02*
G37*
G36*
X2416950D02*
X2392950D01*
Y921030D01*
X2416950D01*
Y945030D01*
D02*
G37*
G36*
X2289950D02*
X2265950D01*
Y921030D01*
X2289950D01*
Y945030D01*
D02*
G37*
G36*
X2246380D02*
X2222380D01*
Y921030D01*
X2246380D01*
Y945030D01*
D02*
G37*
G36*
X2119380D02*
X2095380D01*
Y921030D01*
X2119380D01*
Y945030D01*
D02*
G37*
G36*
X2075650D02*
X2051650D01*
Y921030D01*
X2075650D01*
Y945030D01*
D02*
G37*
G36*
X1948650D02*
X1924650D01*
Y921030D01*
X1948650D01*
Y945030D01*
D02*
G37*
G36*
X1904700D02*
X1880700D01*
Y921030D01*
X1904700D01*
Y945030D01*
D02*
G37*
G36*
X1777700D02*
X1753700D01*
Y921030D01*
X1777700D01*
Y945030D01*
D02*
G37*
G36*
X1733970D02*
X1709970D01*
Y921030D01*
X1733970D01*
Y945030D01*
D02*
G37*
G36*
X1606970D02*
X1582970D01*
Y921030D01*
X1606970D01*
Y945030D01*
D02*
G37*
G36*
X1563230D02*
X1539230D01*
Y921030D01*
X1563230D01*
Y945030D01*
D02*
G37*
G36*
X1436230D02*
X1412230D01*
Y921030D01*
X1436230D01*
Y945030D01*
D02*
G37*
G36*
X1392500D02*
X1368500D01*
Y921030D01*
X1392500D01*
Y945030D01*
D02*
G37*
G36*
X1265500D02*
X1241500D01*
Y921030D01*
X1265500D01*
Y945030D01*
D02*
G37*
G36*
X1221770D02*
X1197770D01*
Y921030D01*
X1221770D01*
Y945030D01*
D02*
G37*
G36*
X1094770D02*
X1070770D01*
Y921030D01*
X1094770D01*
Y945030D01*
D02*
G37*
G36*
X1051040D02*
X1027040D01*
Y921030D01*
X1051040D01*
Y945030D01*
D02*
G37*
G36*
X924040D02*
X900040D01*
Y921030D01*
X924040D01*
Y945030D01*
D02*
G37*
G36*
X880300D02*
X856300D01*
Y921030D01*
X880300D01*
Y945030D01*
D02*
G37*
G36*
X753300D02*
X729300D01*
Y921030D01*
X753300D01*
Y945030D01*
D02*
G37*
G36*
X709560D02*
X685560D01*
Y921030D01*
X709560D01*
Y945030D01*
D02*
G37*
G36*
X582560D02*
X558560D01*
Y921030D01*
X582560D01*
Y945030D01*
D02*
G37*
G36*
X538840D02*
X514840D01*
Y921030D01*
X538840D01*
Y945030D01*
D02*
G37*
G36*
X411840D02*
X387840D01*
Y921030D01*
X411840D01*
Y945030D01*
D02*
G37*
G36*
X368100D02*
X344100D01*
Y921030D01*
X368100D01*
Y945030D01*
D02*
G37*
G36*
X241100D02*
X217100D01*
Y921030D01*
X241100D01*
Y945030D01*
D02*
G37*
G36*
X197370D02*
X173370D01*
Y921030D01*
X197370D01*
Y945030D01*
D02*
G37*
G36*
X89995Y890000D02*
X88005D01*
X86168Y889239D01*
X84761Y887832D01*
X84000Y885995D01*
Y884005D01*
X84761Y882168D01*
X86168Y880761D01*
X88005Y880000D01*
X89995D01*
X91832Y880761D01*
X93239Y882168D01*
X94000Y884005D01*
Y885995D01*
X93239Y887832D01*
X91832Y889239D01*
X89995Y890000D01*
D02*
G37*
G36*
X1346995Y853000D02*
X1345005D01*
X1343168Y852239D01*
X1341761Y850832D01*
X1341000Y848995D01*
Y847005D01*
X1341761Y845168D01*
X1343168Y843761D01*
X1345005Y843000D01*
X1346995D01*
X1348832Y843761D01*
X1350239Y845168D01*
X1351000Y847005D01*
Y848995D01*
X1350239Y850832D01*
X1348832Y852239D01*
X1346995Y853000D01*
D02*
G37*
G36*
X1327995D02*
X1326005D01*
X1324168Y852239D01*
X1322761Y850832D01*
X1322000Y848995D01*
Y847005D01*
X1322761Y845168D01*
X1324168Y843761D01*
X1326005Y843000D01*
X1327995D01*
X1329832Y843761D01*
X1331239Y845168D01*
X1332000Y847005D01*
Y848995D01*
X1331239Y850832D01*
X1329832Y852239D01*
X1327995Y853000D01*
D02*
G37*
G36*
X1310995D02*
X1309005D01*
X1307168Y852239D01*
X1305761Y850832D01*
X1305000Y848995D01*
Y847005D01*
X1305761Y845168D01*
X1307168Y843761D01*
X1309005Y843000D01*
X1310995D01*
X1312832Y843761D01*
X1314239Y845168D01*
X1315000Y847005D01*
Y848995D01*
X1314239Y850832D01*
X1312832Y852239D01*
X1310995Y853000D01*
D02*
G37*
G36*
X1284995D02*
X1283005D01*
X1281168Y852239D01*
X1279761Y850832D01*
X1279000Y848995D01*
Y847005D01*
X1279761Y845168D01*
X1281168Y843761D01*
X1283005Y843000D01*
X1284995D01*
X1286832Y843761D01*
X1288239Y845168D01*
X1289000Y847005D01*
Y848995D01*
X1288239Y850832D01*
X1286832Y852239D01*
X1284995Y853000D01*
D02*
G37*
G36*
X2537995Y845000D02*
X2536005D01*
X2534168Y844239D01*
X2532761Y842832D01*
X2532000Y840995D01*
Y839005D01*
X2532761Y837168D01*
X2534168Y835761D01*
X2536005Y835000D01*
X2537995D01*
X2539832Y835761D01*
X2541239Y837168D01*
X2542000Y839005D01*
Y840995D01*
X2541239Y842832D01*
X2539832Y844239D01*
X2537995Y845000D01*
D02*
G37*
G36*
X2502320Y854300D02*
X2478320D01*
Y830300D01*
X2502320D01*
Y854300D01*
D02*
G37*
G36*
X2375320D02*
X2351320D01*
Y830300D01*
X2375320D01*
Y854300D01*
D02*
G37*
G36*
X2246380D02*
X2222380D01*
Y830300D01*
X2246380D01*
Y854300D01*
D02*
G37*
G36*
X2119380D02*
X2095380D01*
Y830300D01*
X2119380D01*
Y854300D01*
D02*
G37*
G36*
X2075650D02*
X2051650D01*
Y830300D01*
X2075650D01*
Y854300D01*
D02*
G37*
G36*
X1948650D02*
X1924650D01*
Y830300D01*
X1948650D01*
Y854300D01*
D02*
G37*
G36*
X1904700D02*
X1880700D01*
Y830300D01*
X1904700D01*
Y854300D01*
D02*
G37*
G36*
X1777700D02*
X1753700D01*
Y830300D01*
X1777700D01*
Y854300D01*
D02*
G37*
G36*
X1733970D02*
X1709970D01*
Y830300D01*
X1733970D01*
Y854300D01*
D02*
G37*
G36*
X1606970D02*
X1582970D01*
Y830300D01*
X1606970D01*
Y854300D01*
D02*
G37*
G36*
X1563230D02*
X1539230D01*
Y830300D01*
X1563230D01*
Y854300D01*
D02*
G37*
G36*
X1436230D02*
X1412230D01*
Y830300D01*
X1436230D01*
Y854300D01*
D02*
G37*
G36*
X1392500D02*
X1368500D01*
Y830300D01*
X1392500D01*
Y854300D01*
D02*
G37*
G36*
X1265500D02*
X1241500D01*
Y830300D01*
X1265500D01*
Y854300D01*
D02*
G37*
G36*
X1221770D02*
X1197770D01*
Y830300D01*
X1221770D01*
Y854300D01*
D02*
G37*
G36*
X1094770D02*
X1070770D01*
Y830300D01*
X1094770D01*
Y854300D01*
D02*
G37*
G36*
X1051040D02*
X1027040D01*
Y830300D01*
X1051040D01*
Y854300D01*
D02*
G37*
G36*
X924040D02*
X900040D01*
Y830300D01*
X924040D01*
Y854300D01*
D02*
G37*
G36*
X880300D02*
X856300D01*
Y830300D01*
X880300D01*
Y854300D01*
D02*
G37*
G36*
X753300D02*
X729300D01*
Y830300D01*
X753300D01*
Y854300D01*
D02*
G37*
G36*
X709560D02*
X685560D01*
Y830300D01*
X709560D01*
Y854300D01*
D02*
G37*
G36*
X582560D02*
X558560D01*
Y830300D01*
X582560D01*
Y854300D01*
D02*
G37*
G36*
X538840D02*
X514840D01*
Y830300D01*
X538840D01*
Y854300D01*
D02*
G37*
G36*
X411840D02*
X387840D01*
Y830300D01*
X411840D01*
Y854300D01*
D02*
G37*
G36*
X368100D02*
X344100D01*
Y830300D01*
X368100D01*
Y854300D01*
D02*
G37*
G36*
X241100D02*
X217100D01*
Y830300D01*
X241100D01*
Y854300D01*
D02*
G37*
G36*
X197370D02*
X173370D01*
Y830300D01*
X197370D01*
Y854300D01*
D02*
G37*
G36*
X2485742Y816800D02*
X2483898D01*
X2482118Y816323D01*
X2480522Y815401D01*
X2479219Y814098D01*
X2478297Y812502D01*
X2477820Y810722D01*
Y808878D01*
X2478297Y807098D01*
X2479219Y805502D01*
X2480522Y804199D01*
X2482118Y803277D01*
X2483898Y802800D01*
X2485742D01*
X2487522Y803277D01*
X2489118Y804199D01*
X2490421Y805502D01*
X2491343Y807098D01*
X2491820Y808878D01*
Y810722D01*
X2491343Y812502D01*
X2490421Y814098D01*
X2489118Y815401D01*
X2487522Y816323D01*
X2485742Y816800D01*
D02*
G37*
G36*
X2229802D02*
X2227959D01*
X2226178Y816323D01*
X2224582Y815401D01*
X2223279Y814098D01*
X2222357Y812502D01*
X2221880Y810722D01*
Y808878D01*
X2222357Y807098D01*
X2223279Y805502D01*
X2224582Y804199D01*
X2226178Y803277D01*
X2227959Y802800D01*
X2229802D01*
X2231582Y803277D01*
X2233178Y804199D01*
X2234481Y805502D01*
X2235403Y807098D01*
X2235880Y808878D01*
Y810722D01*
X2235403Y812502D01*
X2234481Y814098D01*
X2233178Y815401D01*
X2231582Y816323D01*
X2229802Y816800D01*
D02*
G37*
G36*
X2059072D02*
X2057228D01*
X2055448Y816323D01*
X2053852Y815401D01*
X2052549Y814098D01*
X2051627Y812502D01*
X2051150Y810722D01*
Y808878D01*
X2051627Y807098D01*
X2052549Y805502D01*
X2053852Y804199D01*
X2055448Y803277D01*
X2057228Y802800D01*
X2059072D01*
X2060852Y803277D01*
X2062448Y804199D01*
X2063751Y805502D01*
X2064673Y807098D01*
X2065150Y808878D01*
Y810722D01*
X2064673Y812502D01*
X2063751Y814098D01*
X2062448Y815401D01*
X2060852Y816323D01*
X2059072Y816800D01*
D02*
G37*
G36*
X1888122D02*
X1886278D01*
X1884498Y816323D01*
X1882902Y815401D01*
X1881599Y814098D01*
X1880677Y812502D01*
X1880200Y810722D01*
Y808878D01*
X1880677Y807098D01*
X1881599Y805502D01*
X1882902Y804199D01*
X1884498Y803277D01*
X1886278Y802800D01*
X1888122D01*
X1889902Y803277D01*
X1891498Y804199D01*
X1892801Y805502D01*
X1893723Y807098D01*
X1894200Y808878D01*
Y810722D01*
X1893723Y812502D01*
X1892801Y814098D01*
X1891498Y815401D01*
X1889902Y816323D01*
X1888122Y816800D01*
D02*
G37*
G36*
X1717392D02*
X1715548D01*
X1713768Y816323D01*
X1712172Y815401D01*
X1710869Y814098D01*
X1709947Y812502D01*
X1709470Y810722D01*
Y808878D01*
X1709947Y807098D01*
X1710869Y805502D01*
X1712172Y804199D01*
X1713768Y803277D01*
X1715548Y802800D01*
X1717392D01*
X1719172Y803277D01*
X1720768Y804199D01*
X1722071Y805502D01*
X1722993Y807098D01*
X1723470Y808878D01*
Y810722D01*
X1722993Y812502D01*
X1722071Y814098D01*
X1720768Y815401D01*
X1719172Y816323D01*
X1717392Y816800D01*
D02*
G37*
G36*
X1546652D02*
X1544808D01*
X1543028Y816323D01*
X1541432Y815401D01*
X1540129Y814098D01*
X1539207Y812502D01*
X1538730Y810722D01*
Y808878D01*
X1539207Y807098D01*
X1540129Y805502D01*
X1541432Y804199D01*
X1543028Y803277D01*
X1544808Y802800D01*
X1546652D01*
X1548432Y803277D01*
X1550028Y804199D01*
X1551331Y805502D01*
X1552253Y807098D01*
X1552730Y808878D01*
Y810722D01*
X1552253Y812502D01*
X1551331Y814098D01*
X1550028Y815401D01*
X1548432Y816323D01*
X1546652Y816800D01*
D02*
G37*
G36*
X1375922D02*
X1374079D01*
X1372298Y816323D01*
X1370702Y815401D01*
X1369399Y814098D01*
X1368477Y812502D01*
X1368000Y810722D01*
Y808878D01*
X1368477Y807098D01*
X1369399Y805502D01*
X1370702Y804199D01*
X1372298Y803277D01*
X1374079Y802800D01*
X1375922D01*
X1377702Y803277D01*
X1379298Y804199D01*
X1380601Y805502D01*
X1381523Y807098D01*
X1382000Y808878D01*
Y810722D01*
X1381523Y812502D01*
X1380601Y814098D01*
X1379298Y815401D01*
X1377702Y816323D01*
X1375922Y816800D01*
D02*
G37*
G36*
X1205192D02*
X1203348D01*
X1201568Y816323D01*
X1199972Y815401D01*
X1198669Y814098D01*
X1197747Y812502D01*
X1197270Y810722D01*
Y808878D01*
X1197747Y807098D01*
X1198669Y805502D01*
X1199972Y804199D01*
X1201568Y803277D01*
X1203348Y802800D01*
X1205192D01*
X1206972Y803277D01*
X1208568Y804199D01*
X1209871Y805502D01*
X1210793Y807098D01*
X1211270Y808878D01*
Y810722D01*
X1210793Y812502D01*
X1209871Y814098D01*
X1208568Y815401D01*
X1206972Y816323D01*
X1205192Y816800D01*
D02*
G37*
G36*
X1034462D02*
X1032618D01*
X1030838Y816323D01*
X1029242Y815401D01*
X1027939Y814098D01*
X1027017Y812502D01*
X1026540Y810722D01*
Y808878D01*
X1027017Y807098D01*
X1027939Y805502D01*
X1029242Y804199D01*
X1030838Y803277D01*
X1032618Y802800D01*
X1034462D01*
X1036242Y803277D01*
X1037838Y804199D01*
X1039141Y805502D01*
X1040063Y807098D01*
X1040540Y808878D01*
Y810722D01*
X1040063Y812502D01*
X1039141Y814098D01*
X1037838Y815401D01*
X1036242Y816323D01*
X1034462Y816800D01*
D02*
G37*
G36*
X863722D02*
X861878D01*
X860098Y816323D01*
X858502Y815401D01*
X857199Y814098D01*
X856277Y812502D01*
X855800Y810722D01*
Y808878D01*
X856277Y807098D01*
X857199Y805502D01*
X858502Y804199D01*
X860098Y803277D01*
X861878Y802800D01*
X863722D01*
X865502Y803277D01*
X867098Y804199D01*
X868401Y805502D01*
X869323Y807098D01*
X869800Y808878D01*
Y810722D01*
X869323Y812502D01*
X868401Y814098D01*
X867098Y815401D01*
X865502Y816323D01*
X863722Y816800D01*
D02*
G37*
G36*
X692982D02*
X691138D01*
X689358Y816323D01*
X687762Y815401D01*
X686459Y814098D01*
X685537Y812502D01*
X685060Y810722D01*
Y808878D01*
X685537Y807098D01*
X686459Y805502D01*
X687762Y804199D01*
X689358Y803277D01*
X691138Y802800D01*
X692982D01*
X694762Y803277D01*
X696358Y804199D01*
X697661Y805502D01*
X698583Y807098D01*
X699060Y808878D01*
Y810722D01*
X698583Y812502D01*
X697661Y814098D01*
X696358Y815401D01*
X694762Y816323D01*
X692982Y816800D01*
D02*
G37*
G36*
X522262D02*
X520418D01*
X518638Y816323D01*
X517042Y815401D01*
X515739Y814098D01*
X514817Y812502D01*
X514340Y810722D01*
Y808878D01*
X514817Y807098D01*
X515739Y805502D01*
X517042Y804199D01*
X518638Y803277D01*
X520418Y802800D01*
X522262D01*
X524042Y803277D01*
X525638Y804199D01*
X526941Y805502D01*
X527863Y807098D01*
X528340Y808878D01*
Y810722D01*
X527863Y812502D01*
X526941Y814098D01*
X525638Y815401D01*
X524042Y816323D01*
X522262Y816800D01*
D02*
G37*
G36*
X351522D02*
X349678D01*
X347898Y816323D01*
X346302Y815401D01*
X344999Y814098D01*
X344077Y812502D01*
X343600Y810722D01*
Y808878D01*
X344077Y807098D01*
X344999Y805502D01*
X346302Y804199D01*
X347898Y803277D01*
X349678Y802800D01*
X351522D01*
X353302Y803277D01*
X354898Y804199D01*
X356201Y805502D01*
X357123Y807098D01*
X357600Y808878D01*
Y810722D01*
X357123Y812502D01*
X356201Y814098D01*
X354898Y815401D01*
X353302Y816323D01*
X351522Y816800D01*
D02*
G37*
G36*
X180792D02*
X178948D01*
X177168Y816323D01*
X175572Y815401D01*
X174269Y814098D01*
X173347Y812502D01*
X172870Y810722D01*
Y808878D01*
X173347Y807098D01*
X174269Y805502D01*
X175572Y804199D01*
X177168Y803277D01*
X178948Y802800D01*
X180792D01*
X182572Y803277D01*
X184168Y804199D01*
X185471Y805502D01*
X186393Y807098D01*
X186870Y808878D01*
Y810722D01*
X186393Y812502D01*
X185471Y814098D01*
X184168Y815401D01*
X182572Y816323D01*
X180792Y816800D01*
D02*
G37*
G36*
X1391764Y800871D02*
X1389775D01*
X1387937Y800109D01*
X1386531Y798703D01*
X1385770Y796865D01*
Y794876D01*
X1386531Y793038D01*
X1387937Y791632D01*
X1389775Y790871D01*
X1391764D01*
X1393602Y791632D01*
X1395009Y793038D01*
X1395770Y794876D01*
Y796865D01*
X1395009Y798703D01*
X1393602Y800109D01*
X1391764Y800871D01*
D02*
G37*
G36*
X2452995Y799270D02*
X2451005D01*
X2449168Y798509D01*
X2447761Y797102D01*
X2447000Y795265D01*
Y793275D01*
X2447761Y791438D01*
X2449168Y790031D01*
X2451005Y789270D01*
X2452995D01*
X2454832Y790031D01*
X2456239Y791438D01*
X2457000Y793275D01*
Y795265D01*
X2456239Y797102D01*
X2454832Y798509D01*
X2452995Y799270D01*
D02*
G37*
G36*
X2196995D02*
X2195005D01*
X2193168Y798509D01*
X2191761Y797102D01*
X2191000Y795265D01*
Y793275D01*
X2191761Y791438D01*
X2193168Y790031D01*
X2195005Y789270D01*
X2196995D01*
X2198832Y790031D01*
X2200239Y791438D01*
X2201000Y793275D01*
Y795265D01*
X2200239Y797102D01*
X2198832Y798509D01*
X2196995Y799270D01*
D02*
G37*
G36*
X2026995D02*
X2025005D01*
X2023168Y798509D01*
X2021761Y797102D01*
X2021000Y795265D01*
Y793275D01*
X2021761Y791438D01*
X2023168Y790031D01*
X2025005Y789270D01*
X2026995D01*
X2028832Y790031D01*
X2030239Y791438D01*
X2031000Y793275D01*
Y795265D01*
X2030239Y797102D01*
X2028832Y798509D01*
X2026995Y799270D01*
D02*
G37*
G36*
X1855995D02*
X1854005D01*
X1852168Y798509D01*
X1850761Y797102D01*
X1850000Y795265D01*
Y793275D01*
X1850761Y791438D01*
X1852168Y790031D01*
X1854005Y789270D01*
X1855995D01*
X1857832Y790031D01*
X1859239Y791438D01*
X1860000Y793275D01*
Y795265D01*
X1859239Y797102D01*
X1857832Y798509D01*
X1855995Y799270D01*
D02*
G37*
G36*
X1683582D02*
X1681593D01*
X1679756Y798509D01*
X1678349Y797102D01*
X1677588Y795265D01*
Y793275D01*
X1678349Y791438D01*
X1679756Y790031D01*
X1681593Y789270D01*
X1683582D01*
X1685420Y790031D01*
X1686827Y791438D01*
X1687588Y793275D01*
Y795265D01*
X1686827Y797102D01*
X1685420Y798509D01*
X1683582Y799270D01*
D02*
G37*
G36*
X1512995D02*
X1511005D01*
X1509168Y798509D01*
X1507761Y797102D01*
X1507000Y795265D01*
Y793275D01*
X1507761Y791438D01*
X1509168Y790031D01*
X1511005Y789270D01*
X1512995D01*
X1514832Y790031D01*
X1516239Y791438D01*
X1517000Y793275D01*
Y795265D01*
X1516239Y797102D01*
X1514832Y798509D01*
X1512995Y799270D01*
D02*
G37*
G36*
X1343995D02*
X1342005D01*
X1340168Y798509D01*
X1338761Y797102D01*
X1338000Y795265D01*
Y793275D01*
X1338761Y791438D01*
X1340168Y790031D01*
X1342005Y789270D01*
X1343995D01*
X1345832Y790031D01*
X1347239Y791438D01*
X1348000Y793275D01*
Y795265D01*
X1347239Y797102D01*
X1345832Y798509D01*
X1343995Y799270D01*
D02*
G37*
G36*
X1001002D02*
X999012D01*
X997175Y798509D01*
X995768Y797102D01*
X995007Y795265D01*
Y793275D01*
X995768Y791438D01*
X997175Y790031D01*
X999012Y789270D01*
X1001002D01*
X1002839Y790031D01*
X1004246Y791438D01*
X1005007Y793275D01*
Y795265D01*
X1004246Y797102D01*
X1002839Y798509D01*
X1001002Y799270D01*
D02*
G37*
G36*
X831582D02*
X829593D01*
X827756Y798509D01*
X826349Y797102D01*
X825588Y795265D01*
Y793275D01*
X826349Y791438D01*
X827756Y790031D01*
X829593Y789270D01*
X831582D01*
X833420Y790031D01*
X834827Y791438D01*
X835588Y793275D01*
Y795265D01*
X834827Y797102D01*
X833420Y798509D01*
X831582Y799270D01*
D02*
G37*
G36*
X660356D02*
X658367D01*
X656529Y798509D01*
X655123Y797102D01*
X654362Y795265D01*
Y793275D01*
X655123Y791438D01*
X656529Y790031D01*
X658367Y789270D01*
X660356D01*
X662194Y790031D01*
X663600Y791438D01*
X664362Y793275D01*
Y795265D01*
X663600Y797102D01*
X662194Y798509D01*
X660356Y799270D01*
D02*
G37*
G36*
X488995D02*
X487005D01*
X485168Y798509D01*
X483761Y797102D01*
X483000Y795265D01*
Y793275D01*
X483761Y791438D01*
X485168Y790031D01*
X487005Y789270D01*
X488995D01*
X490832Y790031D01*
X492239Y791438D01*
X493000Y793275D01*
Y795265D01*
X492239Y797102D01*
X490832Y798509D01*
X488995Y799270D01*
D02*
G37*
G36*
X319017D02*
X317027D01*
X315190Y798509D01*
X313783Y797102D01*
X313022Y795265D01*
Y793275D01*
X313783Y791438D01*
X315190Y790031D01*
X317027Y789270D01*
X319017D01*
X320854Y790031D01*
X322261Y791438D01*
X323022Y793275D01*
Y795265D01*
X322261Y797102D01*
X320854Y798509D01*
X319017Y799270D01*
D02*
G37*
G36*
X147465D02*
X145475D01*
X143638Y798509D01*
X142231Y797102D01*
X141470Y795265D01*
Y793275D01*
X142231Y791438D01*
X143638Y790031D01*
X145475Y789270D01*
X147465D01*
X149302Y790031D01*
X150709Y791438D01*
X151470Y793275D01*
Y795265D01*
X150709Y797102D01*
X149302Y798509D01*
X147465Y799270D01*
D02*
G37*
G36*
X1171018Y797937D02*
X1169028D01*
X1167191Y797176D01*
X1165784Y795770D01*
X1165023Y793932D01*
Y791943D01*
X1165784Y790105D01*
X1167191Y788699D01*
X1169028Y787937D01*
X1171018D01*
X1172855Y788699D01*
X1174262Y790105D01*
X1175023Y791943D01*
Y793932D01*
X1174262Y795770D01*
X1172855Y797176D01*
X1171018Y797937D01*
D02*
G37*
G36*
X2410913Y795953D02*
X2408924D01*
X2407086Y795192D01*
X2405679Y793785D01*
X2404918Y791948D01*
Y789959D01*
X2405679Y788121D01*
X2407086Y786714D01*
X2408924Y785953D01*
X2410913D01*
X2412751Y786714D01*
X2414157Y788121D01*
X2414918Y789959D01*
Y791948D01*
X2414157Y793785D01*
X2412751Y795192D01*
X2410913Y795953D01*
D02*
G37*
G36*
X1301076Y795661D02*
X1299087D01*
X1297249Y794900D01*
X1295843Y793493D01*
X1295082Y791655D01*
Y789666D01*
X1295843Y787829D01*
X1297249Y786422D01*
X1299087Y785661D01*
X1301076D01*
X1302914Y786422D01*
X1304321Y787829D01*
X1305082Y789666D01*
Y791655D01*
X1304321Y793493D01*
X1302914Y794900D01*
X1301076Y795661D01*
D02*
G37*
G36*
X1813562Y795519D02*
X1811573D01*
X1809735Y794758D01*
X1808328Y793352D01*
X1807567Y791514D01*
Y789525D01*
X1808328Y787687D01*
X1809735Y786281D01*
X1811573Y785519D01*
X1813562D01*
X1815399Y786281D01*
X1816806Y787687D01*
X1817567Y789525D01*
Y791514D01*
X1816806Y793352D01*
X1815399Y794758D01*
X1813562Y795519D01*
D02*
G37*
G36*
X789285Y793291D02*
X787296D01*
X785458Y792529D01*
X784052Y791123D01*
X783291Y789285D01*
Y787296D01*
X784052Y785458D01*
X785458Y784052D01*
X787296Y783291D01*
X789285D01*
X791123Y784052D01*
X792529Y785458D01*
X793291Y787296D01*
Y789285D01*
X792529Y791123D01*
X791123Y792529D01*
X789285Y793291D01*
D02*
G37*
G36*
X276995Y793000D02*
X275005D01*
X273168Y792239D01*
X271761Y790832D01*
X271000Y788995D01*
Y787005D01*
X271761Y785168D01*
X273168Y783761D01*
X275005Y783000D01*
X276995D01*
X278832Y783761D01*
X280239Y785168D01*
X281000Y787005D01*
Y788995D01*
X280239Y790832D01*
X278832Y792239D01*
X276995Y793000D01*
D02*
G37*
G36*
X2536283Y790236D02*
X2534294D01*
X2532456Y789474D01*
X2531050Y788068D01*
X2530289Y786230D01*
Y784241D01*
X2531050Y782403D01*
X2532456Y780997D01*
X2534294Y780236D01*
X2536283D01*
X2538121Y780997D01*
X2539527Y782403D01*
X2540289Y784241D01*
Y786230D01*
X2539527Y788068D01*
X2538121Y789474D01*
X2536283Y790236D01*
D02*
G37*
G36*
X2370013Y760800D02*
X2367626D01*
X2365421Y759887D01*
X2363733Y758199D01*
X2362820Y755993D01*
Y753607D01*
X2363733Y751401D01*
X2365421Y749714D01*
X2367626Y748800D01*
X2370013D01*
X2372219Y749714D01*
X2373907Y751401D01*
X2374820Y753607D01*
Y755993D01*
X2373907Y758199D01*
X2372219Y759887D01*
X2370013Y760800D01*
D02*
G37*
G36*
X2114073D02*
X2111687D01*
X2109481Y759887D01*
X2107793Y758199D01*
X2106880Y755993D01*
Y753607D01*
X2107793Y751401D01*
X2109481Y749714D01*
X2111687Y748800D01*
X2114073D01*
X2116279Y749714D01*
X2117967Y751401D01*
X2118880Y753607D01*
Y755993D01*
X2117967Y758199D01*
X2116279Y759887D01*
X2114073Y760800D01*
D02*
G37*
G36*
X1943344D02*
X1940957D01*
X1938751Y759887D01*
X1937063Y758199D01*
X1936150Y755993D01*
Y753607D01*
X1937063Y751401D01*
X1938751Y749714D01*
X1940957Y748800D01*
X1943344D01*
X1945549Y749714D01*
X1947236Y751401D01*
X1948150Y753607D01*
Y755993D01*
X1947236Y758199D01*
X1945549Y759887D01*
X1943344Y760800D01*
D02*
G37*
G36*
X1772393D02*
X1770007D01*
X1767801Y759887D01*
X1766113Y758199D01*
X1765200Y755993D01*
Y753607D01*
X1766113Y751401D01*
X1767801Y749714D01*
X1770007Y748800D01*
X1772393D01*
X1774599Y749714D01*
X1776286Y751401D01*
X1777200Y753607D01*
Y755993D01*
X1776286Y758199D01*
X1774599Y759887D01*
X1772393Y760800D01*
D02*
G37*
G36*
X1601663D02*
X1599276D01*
X1597071Y759887D01*
X1595383Y758199D01*
X1594470Y755993D01*
Y753607D01*
X1595383Y751401D01*
X1597071Y749714D01*
X1599276Y748800D01*
X1601663D01*
X1603869Y749714D01*
X1605556Y751401D01*
X1606470Y753607D01*
Y755993D01*
X1605556Y758199D01*
X1603869Y759887D01*
X1601663Y760800D01*
D02*
G37*
G36*
X1430923D02*
X1428537D01*
X1426331Y759887D01*
X1424643Y758199D01*
X1423730Y755993D01*
Y753607D01*
X1424643Y751401D01*
X1426331Y749714D01*
X1428537Y748800D01*
X1430923D01*
X1433129Y749714D01*
X1434816Y751401D01*
X1435730Y753607D01*
Y755993D01*
X1434816Y758199D01*
X1433129Y759887D01*
X1430923Y760800D01*
D02*
G37*
G36*
X1260193D02*
X1257806D01*
X1255601Y759887D01*
X1253913Y758199D01*
X1253000Y755993D01*
Y753607D01*
X1253913Y751401D01*
X1255601Y749714D01*
X1257806Y748800D01*
X1260193D01*
X1262399Y749714D01*
X1264087Y751401D01*
X1265000Y753607D01*
Y755993D01*
X1264087Y758199D01*
X1262399Y759887D01*
X1260193Y760800D01*
D02*
G37*
G36*
X1089464D02*
X1087076D01*
X1084871Y759887D01*
X1083183Y758199D01*
X1082270Y755993D01*
Y753607D01*
X1083183Y751401D01*
X1084871Y749714D01*
X1087076Y748800D01*
X1089464D01*
X1091669Y749714D01*
X1093356Y751401D01*
X1094270Y753607D01*
Y755993D01*
X1093356Y758199D01*
X1091669Y759887D01*
X1089464Y760800D01*
D02*
G37*
G36*
X918734D02*
X916347D01*
X914141Y759887D01*
X912453Y758199D01*
X911540Y755993D01*
Y753607D01*
X912453Y751401D01*
X914141Y749714D01*
X916347Y748800D01*
X918734D01*
X920939Y749714D01*
X922627Y751401D01*
X923540Y753607D01*
Y755993D01*
X922627Y758199D01*
X920939Y759887D01*
X918734Y760800D01*
D02*
G37*
G36*
X747993D02*
X745607D01*
X743401Y759887D01*
X741713Y758199D01*
X740800Y755993D01*
Y753607D01*
X741713Y751401D01*
X743401Y749714D01*
X745607Y748800D01*
X747993D01*
X750199Y749714D01*
X751887Y751401D01*
X752800Y753607D01*
Y755993D01*
X751887Y758199D01*
X750199Y759887D01*
X747993Y760800D01*
D02*
G37*
G36*
X577253D02*
X574866D01*
X572661Y759887D01*
X570973Y758199D01*
X570060Y755993D01*
Y753607D01*
X570973Y751401D01*
X572661Y749714D01*
X574866Y748800D01*
X577253D01*
X579459Y749714D01*
X581147Y751401D01*
X582060Y753607D01*
Y755993D01*
X581147Y758199D01*
X579459Y759887D01*
X577253Y760800D01*
D02*
G37*
G36*
X406534D02*
X404146D01*
X401941Y759887D01*
X400253Y758199D01*
X399340Y755993D01*
Y753607D01*
X400253Y751401D01*
X401941Y749714D01*
X404146Y748800D01*
X406534D01*
X408739Y749714D01*
X410426Y751401D01*
X411340Y753607D01*
Y755993D01*
X410426Y758199D01*
X408739Y759887D01*
X406534Y760800D01*
D02*
G37*
G36*
X235793D02*
X233407D01*
X231201Y759887D01*
X229513Y758199D01*
X228600Y755993D01*
Y753607D01*
X229513Y751401D01*
X231201Y749714D01*
X233407Y748800D01*
X235793D01*
X237999Y749714D01*
X239687Y751401D01*
X240600Y753607D01*
Y755993D01*
X239687Y758199D01*
X237999Y759887D01*
X235793Y760800D01*
D02*
G37*
G36*
X65063D02*
X62677D01*
X60471Y759887D01*
X58783Y758199D01*
X57870Y755993D01*
Y753607D01*
X58783Y751401D01*
X60471Y749714D01*
X62677Y748800D01*
X65063D01*
X67269Y749714D01*
X68956Y751401D01*
X69870Y753607D01*
Y755993D01*
X68956Y758199D01*
X67269Y759887D01*
X65063Y760800D01*
D02*
G37*
G36*
X2461570Y767800D02*
X2442070D01*
Y741800D01*
X2461570D01*
Y767800D01*
D02*
G37*
G36*
X2411570D02*
X2392070D01*
Y741800D01*
X2411570D01*
Y767800D01*
D02*
G37*
G36*
X2205630D02*
X2186130D01*
Y741800D01*
X2205630D01*
Y767800D01*
D02*
G37*
G36*
X2155630D02*
X2136130D01*
Y741800D01*
X2155630D01*
Y767800D01*
D02*
G37*
G36*
X2034900D02*
X2015400D01*
Y741800D01*
X2034900D01*
Y767800D01*
D02*
G37*
G36*
X1984900D02*
X1965400D01*
Y741800D01*
X1984900D01*
Y767800D01*
D02*
G37*
G36*
X1863950D02*
X1844450D01*
Y741800D01*
X1863950D01*
Y767800D01*
D02*
G37*
G36*
X1813950D02*
X1794450D01*
Y741800D01*
X1813950D01*
Y767800D01*
D02*
G37*
G36*
X1693220D02*
X1673720D01*
Y741800D01*
X1693220D01*
Y767800D01*
D02*
G37*
G36*
X1643220D02*
X1623720D01*
Y741800D01*
X1643220D01*
Y767800D01*
D02*
G37*
G36*
X1522480D02*
X1502980D01*
Y741800D01*
X1522480D01*
Y767800D01*
D02*
G37*
G36*
X1472480D02*
X1452980D01*
Y741800D01*
X1472480D01*
Y767800D01*
D02*
G37*
G36*
X1351750D02*
X1332250D01*
Y741800D01*
X1351750D01*
Y767800D01*
D02*
G37*
G36*
X1301750D02*
X1282250D01*
Y741800D01*
X1301750D01*
Y767800D01*
D02*
G37*
G36*
X1181020D02*
X1161520D01*
Y741800D01*
X1181020D01*
Y767800D01*
D02*
G37*
G36*
X1131020D02*
X1111520D01*
Y741800D01*
X1131020D01*
Y767800D01*
D02*
G37*
G36*
X1010290D02*
X990790D01*
Y741800D01*
X1010290D01*
Y767800D01*
D02*
G37*
G36*
X960290D02*
X940790D01*
Y741800D01*
X960290D01*
Y767800D01*
D02*
G37*
G36*
X839550D02*
X820050D01*
Y741800D01*
X839550D01*
Y767800D01*
D02*
G37*
G36*
X789550D02*
X770050D01*
Y741800D01*
X789550D01*
Y767800D01*
D02*
G37*
G36*
X668810D02*
X649310D01*
Y741800D01*
X668810D01*
Y767800D01*
D02*
G37*
G36*
X618810D02*
X599310D01*
Y741800D01*
X618810D01*
Y767800D01*
D02*
G37*
G36*
X498090D02*
X478590D01*
Y741800D01*
X498090D01*
Y767800D01*
D02*
G37*
G36*
X448090D02*
X428590D01*
Y741800D01*
X448090D01*
Y767800D01*
D02*
G37*
G36*
X327350D02*
X307850D01*
Y741800D01*
X327350D01*
Y767800D01*
D02*
G37*
G36*
X277350D02*
X257850D01*
Y741800D01*
X277350D01*
Y767800D01*
D02*
G37*
G36*
X156620D02*
X137120D01*
Y741800D01*
X156620D01*
Y767800D01*
D02*
G37*
G36*
X106620D02*
X87120D01*
Y741800D01*
X106620D01*
Y767800D01*
D02*
G37*
G36*
X2502320Y734300D02*
X2478320D01*
Y710300D01*
X2502320D01*
Y734300D01*
D02*
G37*
G36*
X2375320D02*
X2351320D01*
Y710300D01*
X2375320D01*
Y734300D01*
D02*
G37*
G36*
X2246380D02*
X2222380D01*
Y710300D01*
X2246380D01*
Y734300D01*
D02*
G37*
G36*
X2119380D02*
X2095380D01*
Y710300D01*
X2119380D01*
Y734300D01*
D02*
G37*
G36*
X2075650D02*
X2051650D01*
Y710300D01*
X2075650D01*
Y734300D01*
D02*
G37*
G36*
X1948650D02*
X1924650D01*
Y710300D01*
X1948650D01*
Y734300D01*
D02*
G37*
G36*
X1904700D02*
X1880700D01*
Y710300D01*
X1904700D01*
Y734300D01*
D02*
G37*
G36*
X1777700D02*
X1753700D01*
Y710300D01*
X1777700D01*
Y734300D01*
D02*
G37*
G36*
X1733970D02*
X1709970D01*
Y710300D01*
X1733970D01*
Y734300D01*
D02*
G37*
G36*
X1606970D02*
X1582970D01*
Y710300D01*
X1606970D01*
Y734300D01*
D02*
G37*
G36*
X1563230D02*
X1539230D01*
Y710300D01*
X1563230D01*
Y734300D01*
D02*
G37*
G36*
X1436230D02*
X1412230D01*
Y710300D01*
X1436230D01*
Y734300D01*
D02*
G37*
G36*
X1392500D02*
X1368500D01*
Y710300D01*
X1392500D01*
Y734300D01*
D02*
G37*
G36*
X1265500D02*
X1241500D01*
Y710300D01*
X1265500D01*
Y734300D01*
D02*
G37*
G36*
X1221770D02*
X1197770D01*
Y710300D01*
X1221770D01*
Y734300D01*
D02*
G37*
G36*
X1094770D02*
X1070770D01*
Y710300D01*
X1094770D01*
Y734300D01*
D02*
G37*
G36*
X1051040D02*
X1027040D01*
Y710300D01*
X1051040D01*
Y734300D01*
D02*
G37*
G36*
X924040D02*
X900040D01*
Y710300D01*
X924040D01*
Y734300D01*
D02*
G37*
G36*
X880300D02*
X856300D01*
Y710300D01*
X880300D01*
Y734300D01*
D02*
G37*
G36*
X753300D02*
X729300D01*
Y710300D01*
X753300D01*
Y734300D01*
D02*
G37*
G36*
X709560D02*
X685560D01*
Y710300D01*
X709560D01*
Y734300D01*
D02*
G37*
G36*
X582560D02*
X558560D01*
Y710300D01*
X582560D01*
Y734300D01*
D02*
G37*
G36*
X538840D02*
X514840D01*
Y710300D01*
X538840D01*
Y734300D01*
D02*
G37*
G36*
X411840D02*
X387840D01*
Y710300D01*
X411840D01*
Y734300D01*
D02*
G37*
G36*
X368100D02*
X344100D01*
Y710300D01*
X368100D01*
Y734300D01*
D02*
G37*
G36*
X241100D02*
X217100D01*
Y710300D01*
X241100D01*
Y734300D01*
D02*
G37*
G36*
X197370D02*
X173370D01*
Y710300D01*
X197370D01*
Y734300D01*
D02*
G37*
G36*
X2336950Y684000D02*
X2312950D01*
Y660000D01*
X2336950D01*
Y684000D01*
D02*
G37*
G36*
X2209950D02*
X2185950D01*
Y660000D01*
X2209950D01*
Y684000D01*
D02*
G37*
G36*
X2166220D02*
X2142220D01*
Y660000D01*
X2166220D01*
Y684000D01*
D02*
G37*
G36*
X2039220D02*
X2015220D01*
Y660000D01*
X2039220D01*
Y684000D01*
D02*
G37*
G36*
X1995490D02*
X1971490D01*
Y660000D01*
X1995490D01*
Y684000D01*
D02*
G37*
G36*
X1868490D02*
X1844490D01*
Y660000D01*
X1868490D01*
Y684000D01*
D02*
G37*
G36*
X1824700D02*
X1800700D01*
Y660000D01*
X1824700D01*
Y684000D01*
D02*
G37*
G36*
X1697700D02*
X1673700D01*
Y660000D01*
X1697700D01*
Y684000D01*
D02*
G37*
G36*
X1653970D02*
X1629970D01*
Y660000D01*
X1653970D01*
Y684000D01*
D02*
G37*
G36*
X1526970D02*
X1502970D01*
Y660000D01*
X1526970D01*
Y684000D01*
D02*
G37*
G36*
X1483230D02*
X1459230D01*
Y660000D01*
X1483230D01*
Y684000D01*
D02*
G37*
G36*
X1356230D02*
X1332230D01*
Y660000D01*
X1356230D01*
Y684000D01*
D02*
G37*
G36*
X1312500D02*
X1288500D01*
Y660000D01*
X1312500D01*
Y684000D01*
D02*
G37*
G36*
X1185500D02*
X1161500D01*
Y660000D01*
X1185500D01*
Y684000D01*
D02*
G37*
G36*
X1141770D02*
X1117770D01*
Y660000D01*
X1141770D01*
Y684000D01*
D02*
G37*
G36*
X1014770D02*
X990770D01*
Y660000D01*
X1014770D01*
Y684000D01*
D02*
G37*
G36*
X971040D02*
X947040D01*
Y660000D01*
X971040D01*
Y684000D01*
D02*
G37*
G36*
X844040D02*
X820040D01*
Y660000D01*
X844040D01*
Y684000D01*
D02*
G37*
G36*
X800300D02*
X776300D01*
Y660000D01*
X800300D01*
Y684000D01*
D02*
G37*
G36*
X673300D02*
X649300D01*
Y660000D01*
X673300D01*
Y684000D01*
D02*
G37*
G36*
X629570D02*
X605570D01*
Y660000D01*
X629570D01*
Y684000D01*
D02*
G37*
G36*
X502570D02*
X478570D01*
Y660000D01*
X502570D01*
Y684000D01*
D02*
G37*
G36*
X458840D02*
X434840D01*
Y660000D01*
X458840D01*
Y684000D01*
D02*
G37*
G36*
X331840D02*
X307840D01*
Y660000D01*
X331840D01*
Y684000D01*
D02*
G37*
G36*
X242740D02*
X218740D01*
Y660000D01*
X242740D01*
Y684000D01*
D02*
G37*
G36*
X115740D02*
X91740D01*
Y660000D01*
X115740D01*
Y684000D01*
D02*
G37*
G36*
X1221115Y662000D02*
X1219125D01*
X1217288Y661239D01*
X1215881Y659832D01*
X1215120Y657995D01*
Y656005D01*
X1215881Y654168D01*
X1217288Y652761D01*
X1219125Y652000D01*
X1221115D01*
X1222952Y652761D01*
X1224359Y654168D01*
X1225120Y656005D01*
Y657995D01*
X1224359Y659832D01*
X1222952Y661239D01*
X1221115Y662000D01*
D02*
G37*
G36*
X708915Y661000D02*
X706925D01*
X705088Y660239D01*
X703681Y658832D01*
X702920Y656995D01*
Y655005D01*
X703681Y653168D01*
X705088Y651761D01*
X706925Y651000D01*
X708915D01*
X710752Y651761D01*
X712159Y653168D01*
X712920Y655005D01*
Y656995D01*
X712159Y658832D01*
X710752Y660239D01*
X708915Y661000D01*
D02*
G37*
G36*
X1732995Y660000D02*
X1731005D01*
X1729168Y659239D01*
X1727761Y657832D01*
X1727000Y655995D01*
Y654005D01*
X1727761Y652168D01*
X1729168Y650761D01*
X1731005Y650000D01*
X1732995D01*
X1734832Y650761D01*
X1736239Y652168D01*
X1737000Y654005D01*
Y655995D01*
X1736239Y657832D01*
X1734832Y659239D01*
X1732995Y660000D01*
D02*
G37*
G36*
X2245995Y659000D02*
X2244005D01*
X2242168Y658239D01*
X2240761Y656832D01*
X2240000Y654995D01*
Y653005D01*
X2240761Y651168D01*
X2242168Y649761D01*
X2244005Y649000D01*
X2245995D01*
X2247832Y649761D01*
X2249239Y651168D01*
X2250000Y653005D01*
Y654995D01*
X2249239Y656832D01*
X2247832Y658239D01*
X2245995Y659000D01*
D02*
G37*
G36*
X2320372Y646500D02*
X2318528D01*
X2316748Y646023D01*
X2315152Y645101D01*
X2313849Y643798D01*
X2312927Y642202D01*
X2312450Y640422D01*
Y638578D01*
X2312927Y636798D01*
X2313849Y635202D01*
X2315152Y633899D01*
X2316748Y632977D01*
X2318528Y632500D01*
X2320372D01*
X2322152Y632977D01*
X2323748Y633899D01*
X2325051Y635202D01*
X2325973Y636798D01*
X2326450Y638578D01*
Y640422D01*
X2325973Y642202D01*
X2325051Y643798D01*
X2323748Y645101D01*
X2322152Y646023D01*
X2320372Y646500D01*
D02*
G37*
G36*
X2149642D02*
X2147798D01*
X2146018Y646023D01*
X2144422Y645101D01*
X2143119Y643798D01*
X2142197Y642202D01*
X2141720Y640422D01*
Y638578D01*
X2142197Y636798D01*
X2143119Y635202D01*
X2144422Y633899D01*
X2146018Y632977D01*
X2147798Y632500D01*
X2149642D01*
X2151422Y632977D01*
X2153018Y633899D01*
X2154321Y635202D01*
X2155243Y636798D01*
X2155720Y638578D01*
Y640422D01*
X2155243Y642202D01*
X2154321Y643798D01*
X2153018Y645101D01*
X2151422Y646023D01*
X2149642Y646500D01*
D02*
G37*
G36*
X1978912D02*
X1977068D01*
X1975288Y646023D01*
X1973692Y645101D01*
X1972389Y643798D01*
X1971467Y642202D01*
X1970990Y640422D01*
Y638578D01*
X1971467Y636798D01*
X1972389Y635202D01*
X1973692Y633899D01*
X1975288Y632977D01*
X1977068Y632500D01*
X1978912D01*
X1980692Y632977D01*
X1982288Y633899D01*
X1983591Y635202D01*
X1984513Y636798D01*
X1984990Y638578D01*
Y640422D01*
X1984513Y642202D01*
X1983591Y643798D01*
X1982288Y645101D01*
X1980692Y646023D01*
X1978912Y646500D01*
D02*
G37*
G36*
X1808122D02*
X1806279D01*
X1804498Y646023D01*
X1802902Y645101D01*
X1801599Y643798D01*
X1800677Y642202D01*
X1800200Y640422D01*
Y638578D01*
X1800677Y636798D01*
X1801599Y635202D01*
X1802902Y633899D01*
X1804498Y632977D01*
X1806279Y632500D01*
X1808122D01*
X1809902Y632977D01*
X1811498Y633899D01*
X1812801Y635202D01*
X1813723Y636798D01*
X1814200Y638578D01*
Y640422D01*
X1813723Y642202D01*
X1812801Y643798D01*
X1811498Y645101D01*
X1809902Y646023D01*
X1808122Y646500D01*
D02*
G37*
G36*
X1637392D02*
X1635548D01*
X1633768Y646023D01*
X1632172Y645101D01*
X1630869Y643798D01*
X1629947Y642202D01*
X1629470Y640422D01*
Y638578D01*
X1629947Y636798D01*
X1630869Y635202D01*
X1632172Y633899D01*
X1633768Y632977D01*
X1635548Y632500D01*
X1637392D01*
X1639172Y632977D01*
X1640768Y633899D01*
X1642071Y635202D01*
X1642993Y636798D01*
X1643470Y638578D01*
Y640422D01*
X1642993Y642202D01*
X1642071Y643798D01*
X1640768Y645101D01*
X1639172Y646023D01*
X1637392Y646500D01*
D02*
G37*
G36*
X1466652D02*
X1464808D01*
X1463028Y646023D01*
X1461432Y645101D01*
X1460129Y643798D01*
X1459207Y642202D01*
X1458730Y640422D01*
Y638578D01*
X1459207Y636798D01*
X1460129Y635202D01*
X1461432Y633899D01*
X1463028Y632977D01*
X1464808Y632500D01*
X1466652D01*
X1468432Y632977D01*
X1470028Y633899D01*
X1471331Y635202D01*
X1472253Y636798D01*
X1472730Y638578D01*
Y640422D01*
X1472253Y642202D01*
X1471331Y643798D01*
X1470028Y645101D01*
X1468432Y646023D01*
X1466652Y646500D01*
D02*
G37*
G36*
X1295922D02*
X1294078D01*
X1292298Y646023D01*
X1290702Y645101D01*
X1289399Y643798D01*
X1288477Y642202D01*
X1288000Y640422D01*
Y638578D01*
X1288477Y636798D01*
X1289399Y635202D01*
X1290702Y633899D01*
X1292298Y632977D01*
X1294078Y632500D01*
X1295922D01*
X1297702Y632977D01*
X1299298Y633899D01*
X1300601Y635202D01*
X1301523Y636798D01*
X1302000Y638578D01*
Y640422D01*
X1301523Y642202D01*
X1300601Y643798D01*
X1299298Y645101D01*
X1297702Y646023D01*
X1295922Y646500D01*
D02*
G37*
G36*
X1125192D02*
X1123348D01*
X1121568Y646023D01*
X1119972Y645101D01*
X1118669Y643798D01*
X1117747Y642202D01*
X1117270Y640422D01*
Y638578D01*
X1117747Y636798D01*
X1118669Y635202D01*
X1119972Y633899D01*
X1121568Y632977D01*
X1123348Y632500D01*
X1125192D01*
X1126972Y632977D01*
X1128568Y633899D01*
X1129871Y635202D01*
X1130793Y636798D01*
X1131270Y638578D01*
Y640422D01*
X1130793Y642202D01*
X1129871Y643798D01*
X1128568Y645101D01*
X1126972Y646023D01*
X1125192Y646500D01*
D02*
G37*
G36*
X954462D02*
X952618D01*
X950838Y646023D01*
X949242Y645101D01*
X947939Y643798D01*
X947017Y642202D01*
X946540Y640422D01*
Y638578D01*
X947017Y636798D01*
X947939Y635202D01*
X949242Y633899D01*
X950838Y632977D01*
X952618Y632500D01*
X954462D01*
X956242Y632977D01*
X957838Y633899D01*
X959141Y635202D01*
X960063Y636798D01*
X960540Y638578D01*
Y640422D01*
X960063Y642202D01*
X959141Y643798D01*
X957838Y645101D01*
X956242Y646023D01*
X954462Y646500D01*
D02*
G37*
G36*
X783722D02*
X781878D01*
X780098Y646023D01*
X778502Y645101D01*
X777199Y643798D01*
X776277Y642202D01*
X775800Y640422D01*
Y638578D01*
X776277Y636798D01*
X777199Y635202D01*
X778502Y633899D01*
X780098Y632977D01*
X781878Y632500D01*
X783722D01*
X785502Y632977D01*
X787098Y633899D01*
X788401Y635202D01*
X789323Y636798D01*
X789800Y638578D01*
Y640422D01*
X789323Y642202D01*
X788401Y643798D01*
X787098Y645101D01*
X785502Y646023D01*
X783722Y646500D01*
D02*
G37*
G36*
X612992D02*
X611148D01*
X609368Y646023D01*
X607772Y645101D01*
X606469Y643798D01*
X605547Y642202D01*
X605070Y640422D01*
Y638578D01*
X605547Y636798D01*
X606469Y635202D01*
X607772Y633899D01*
X609368Y632977D01*
X611148Y632500D01*
X612992D01*
X614772Y632977D01*
X616368Y633899D01*
X617671Y635202D01*
X618593Y636798D01*
X619070Y638578D01*
Y640422D01*
X618593Y642202D01*
X617671Y643798D01*
X616368Y645101D01*
X614772Y646023D01*
X612992Y646500D01*
D02*
G37*
G36*
X442262D02*
X440418D01*
X438638Y646023D01*
X437042Y645101D01*
X435739Y643798D01*
X434817Y642202D01*
X434340Y640422D01*
Y638578D01*
X434817Y636798D01*
X435739Y635202D01*
X437042Y633899D01*
X438638Y632977D01*
X440418Y632500D01*
X442262D01*
X444042Y632977D01*
X445638Y633899D01*
X446941Y635202D01*
X447863Y636798D01*
X448340Y638578D01*
Y640422D01*
X447863Y642202D01*
X446941Y643798D01*
X445638Y645101D01*
X444042Y646023D01*
X442262Y646500D01*
D02*
G37*
G36*
X226162D02*
X224318D01*
X222538Y646023D01*
X220942Y645101D01*
X219639Y643798D01*
X218717Y642202D01*
X218240Y640422D01*
Y638578D01*
X218717Y636798D01*
X219639Y635202D01*
X220942Y633899D01*
X222538Y632977D01*
X224318Y632500D01*
X226162D01*
X227942Y632977D01*
X229538Y633899D01*
X230841Y635202D01*
X231763Y636798D01*
X232240Y638578D01*
Y640422D01*
X231763Y642202D01*
X230841Y643798D01*
X229538Y645101D01*
X227942Y646023D01*
X226162Y646500D01*
D02*
G37*
G36*
X1604073Y628508D02*
X1602084D01*
X1600246Y627747D01*
X1598839Y626340D01*
X1598078Y624503D01*
Y622514D01*
X1598839Y620676D01*
X1600246Y619269D01*
X1602084Y618508D01*
X1604073D01*
X1605910Y619269D01*
X1607317Y620676D01*
X1608078Y622514D01*
Y624503D01*
X1607317Y626340D01*
X1605910Y627747D01*
X1604073Y628508D01*
D02*
G37*
G36*
X2286976Y628500D02*
X2284987D01*
X2283149Y627739D01*
X2281742Y626332D01*
X2280981Y624495D01*
Y622505D01*
X2281742Y620668D01*
X2283149Y619261D01*
X2284987Y618500D01*
X2286976D01*
X2288813Y619261D01*
X2290220Y620668D01*
X2290981Y622505D01*
Y624495D01*
X2290220Y626332D01*
X2288813Y627739D01*
X2286976Y628500D01*
D02*
G37*
G36*
X2116315D02*
X2114325D01*
X2112488Y627739D01*
X2111081Y626332D01*
X2110320Y624495D01*
Y622505D01*
X2111081Y620668D01*
X2112488Y619261D01*
X2114325Y618500D01*
X2116315D01*
X2118152Y619261D01*
X2119559Y620668D01*
X2120320Y622505D01*
Y624495D01*
X2119559Y626332D01*
X2118152Y627739D01*
X2116315Y628500D01*
D02*
G37*
G36*
X1945685D02*
X1943696D01*
X1941858Y627739D01*
X1940451Y626332D01*
X1939690Y624495D01*
Y622505D01*
X1940451Y620668D01*
X1941858Y619261D01*
X1943696Y618500D01*
X1945685D01*
X1947522Y619261D01*
X1948929Y620668D01*
X1949690Y622505D01*
Y624495D01*
X1948929Y626332D01*
X1947522Y627739D01*
X1945685Y628500D01*
D02*
G37*
G36*
X1774898D02*
X1772909D01*
X1771071Y627739D01*
X1769665Y626332D01*
X1768904Y624495D01*
Y622505D01*
X1769665Y620668D01*
X1771071Y619261D01*
X1772909Y618500D01*
X1774898D01*
X1776736Y619261D01*
X1778142Y620668D01*
X1778904Y622505D01*
Y624495D01*
X1778142Y626332D01*
X1776736Y627739D01*
X1774898Y628500D01*
D02*
G37*
G36*
X1262690D02*
X1260701D01*
X1258863Y627739D01*
X1257457Y626332D01*
X1256695Y624495D01*
Y622505D01*
X1257457Y620668D01*
X1258863Y619261D01*
X1260701Y618500D01*
X1262690D01*
X1264528Y619261D01*
X1265934Y620668D01*
X1266695Y622505D01*
Y624495D01*
X1265934Y626332D01*
X1264528Y627739D01*
X1262690Y628500D01*
D02*
G37*
G36*
X1092337D02*
X1090348D01*
X1088510Y627739D01*
X1087104Y626332D01*
X1086343Y624495D01*
Y622505D01*
X1087104Y620668D01*
X1088510Y619261D01*
X1090348Y618500D01*
X1092337D01*
X1094175Y619261D01*
X1095581Y620668D01*
X1096343Y622505D01*
Y624495D01*
X1095581Y626332D01*
X1094175Y627739D01*
X1092337Y628500D01*
D02*
G37*
G36*
X921138D02*
X919149D01*
X917311Y627739D01*
X915905Y626332D01*
X915144Y624495D01*
Y622505D01*
X915905Y620668D01*
X917311Y619261D01*
X919149Y618500D01*
X921138D01*
X922976Y619261D01*
X924382Y620668D01*
X925144Y622505D01*
Y624495D01*
X924382Y626332D01*
X922976Y627739D01*
X921138Y628500D01*
D02*
G37*
G36*
X750374D02*
X748385D01*
X746547Y627739D01*
X745141Y626332D01*
X744380Y624495D01*
Y622505D01*
X745141Y620668D01*
X746547Y619261D01*
X748385Y618500D01*
X750374D01*
X752212Y619261D01*
X753618Y620668D01*
X754380Y622505D01*
Y624495D01*
X753618Y626332D01*
X752212Y627739D01*
X750374Y628500D01*
D02*
G37*
G36*
X579684D02*
X577695D01*
X575857Y627739D01*
X574451Y626332D01*
X573690Y624495D01*
Y622505D01*
X574451Y620668D01*
X575857Y619261D01*
X577695Y618500D01*
X579684D01*
X581522Y619261D01*
X582929Y620668D01*
X583690Y622505D01*
Y624495D01*
X582929Y626332D01*
X581522Y627739D01*
X579684Y628500D01*
D02*
G37*
G36*
X409099D02*
X407110D01*
X405272Y627739D01*
X403866Y626332D01*
X403105Y624495D01*
Y622505D01*
X403866Y620668D01*
X405272Y619261D01*
X407110Y618500D01*
X409099D01*
X410937Y619261D01*
X412343Y620668D01*
X413105Y622505D01*
Y624495D01*
X412343Y626332D01*
X410937Y627739D01*
X409099Y628500D01*
D02*
G37*
G36*
X192845D02*
X190856D01*
X189018Y627739D01*
X187612Y626332D01*
X186850Y624495D01*
Y622505D01*
X187612Y620668D01*
X189018Y619261D01*
X190856Y618500D01*
X192845D01*
X194683Y619261D01*
X196089Y620668D01*
X196850Y622505D01*
Y624495D01*
X196089Y626332D01*
X194683Y627739D01*
X192845Y628500D01*
D02*
G37*
G36*
X1433325Y625500D02*
X1431335D01*
X1429498Y624739D01*
X1428091Y623332D01*
X1427330Y621495D01*
Y619506D01*
X1428091Y617668D01*
X1429498Y616261D01*
X1431335Y615500D01*
X1433325D01*
X1435162Y616261D01*
X1436569Y617668D01*
X1437330Y619506D01*
Y621495D01*
X1436569Y623332D01*
X1435162Y624739D01*
X1433325Y625500D01*
D02*
G37*
G36*
X1287995Y608000D02*
X1286005D01*
X1284168Y607239D01*
X1282761Y605832D01*
X1282000Y603995D01*
Y602005D01*
X1282761Y600168D01*
X1284168Y598761D01*
X1286005Y598000D01*
X1287995D01*
X1289832Y598761D01*
X1291239Y600168D01*
X1292000Y602005D01*
Y603995D01*
X1291239Y605832D01*
X1289832Y607239D01*
X1287995Y608000D01*
D02*
G37*
G36*
X2183783Y605223D02*
X2181794D01*
X2179956Y604462D01*
X2178550Y603055D01*
X2177789Y601217D01*
Y599228D01*
X2178550Y597391D01*
X2179956Y595984D01*
X2181794Y595223D01*
X2183783D01*
X2185621Y595984D01*
X2187027Y597391D01*
X2187789Y599228D01*
Y601217D01*
X2187027Y603055D01*
X2185621Y604462D01*
X2183783Y605223D01*
D02*
G37*
G36*
X2153995Y591000D02*
X2152005D01*
X2150168Y590239D01*
X2148761Y588832D01*
X2148000Y586995D01*
Y585005D01*
X2148761Y583168D01*
X2150168Y581761D01*
X2152005Y581000D01*
X2153995D01*
X2155832Y581761D01*
X2157239Y583168D01*
X2158000Y585005D01*
Y586995D01*
X2157239Y588832D01*
X2155832Y590239D01*
X2153995Y591000D01*
D02*
G37*
G36*
X2204644Y590500D02*
X2202256D01*
X2200051Y589587D01*
X2198363Y587899D01*
X2197450Y585694D01*
Y583307D01*
X2198363Y581101D01*
X2200051Y579413D01*
X2202256Y578500D01*
X2204644D01*
X2206849Y579413D01*
X2208537Y581101D01*
X2209450Y583307D01*
Y585694D01*
X2208537Y587899D01*
X2206849Y589587D01*
X2204644Y590500D01*
D02*
G37*
G36*
X2033914D02*
X2031526D01*
X2029321Y589587D01*
X2027633Y587899D01*
X2026720Y585694D01*
Y583307D01*
X2027633Y581101D01*
X2029321Y579413D01*
X2031526Y578500D01*
X2033914D01*
X2036119Y579413D01*
X2037807Y581101D01*
X2038720Y583307D01*
Y585694D01*
X2037807Y587899D01*
X2036119Y589587D01*
X2033914Y590500D01*
D02*
G37*
G36*
X1863183D02*
X1860797D01*
X1858591Y589587D01*
X1856903Y587899D01*
X1855990Y585694D01*
Y583307D01*
X1856903Y581101D01*
X1858591Y579413D01*
X1860797Y578500D01*
X1863183D01*
X1865389Y579413D01*
X1867077Y581101D01*
X1867990Y583307D01*
Y585694D01*
X1867077Y587899D01*
X1865389Y589587D01*
X1863183Y590500D01*
D02*
G37*
G36*
X1692393D02*
X1690007D01*
X1687801Y589587D01*
X1686113Y587899D01*
X1685200Y585694D01*
Y583307D01*
X1686113Y581101D01*
X1687801Y579413D01*
X1690007Y578500D01*
X1692393D01*
X1694599Y579413D01*
X1696286Y581101D01*
X1697200Y583307D01*
Y585694D01*
X1696286Y587899D01*
X1694599Y589587D01*
X1692393Y590500D01*
D02*
G37*
G36*
X1521664D02*
X1519276D01*
X1517071Y589587D01*
X1515383Y587899D01*
X1514470Y585694D01*
Y583307D01*
X1515383Y581101D01*
X1517071Y579413D01*
X1519276Y578500D01*
X1521664D01*
X1523869Y579413D01*
X1525556Y581101D01*
X1526470Y583307D01*
Y585694D01*
X1525556Y587899D01*
X1523869Y589587D01*
X1521664Y590500D01*
D02*
G37*
G36*
X1350923D02*
X1348537D01*
X1346331Y589587D01*
X1344643Y587899D01*
X1343730Y585694D01*
Y583307D01*
X1344643Y581101D01*
X1346331Y579413D01*
X1348537Y578500D01*
X1350923D01*
X1353129Y579413D01*
X1354816Y581101D01*
X1355730Y583307D01*
Y585694D01*
X1354816Y587899D01*
X1353129Y589587D01*
X1350923Y590500D01*
D02*
G37*
G36*
X1180193D02*
X1177806D01*
X1175601Y589587D01*
X1173913Y587899D01*
X1173000Y585694D01*
Y583307D01*
X1173913Y581101D01*
X1175601Y579413D01*
X1177806Y578500D01*
X1180193D01*
X1182399Y579413D01*
X1184087Y581101D01*
X1185000Y583307D01*
Y585694D01*
X1184087Y587899D01*
X1182399Y589587D01*
X1180193Y590500D01*
D02*
G37*
G36*
X1009464D02*
X1007076D01*
X1004871Y589587D01*
X1003183Y587899D01*
X1002270Y585694D01*
Y583307D01*
X1003183Y581101D01*
X1004871Y579413D01*
X1007076Y578500D01*
X1009464D01*
X1011669Y579413D01*
X1013356Y581101D01*
X1014270Y583307D01*
Y585694D01*
X1013356Y587899D01*
X1011669Y589587D01*
X1009464Y590500D01*
D02*
G37*
G36*
X838734D02*
X836347D01*
X834141Y589587D01*
X832453Y587899D01*
X831540Y585694D01*
Y583307D01*
X832453Y581101D01*
X834141Y579413D01*
X836347Y578500D01*
X838734D01*
X840939Y579413D01*
X842626Y581101D01*
X843540Y583307D01*
Y585694D01*
X842626Y587899D01*
X840939Y589587D01*
X838734Y590500D01*
D02*
G37*
G36*
X667993D02*
X665607D01*
X663401Y589587D01*
X661713Y587899D01*
X660800Y585694D01*
Y583307D01*
X661713Y581101D01*
X663401Y579413D01*
X665607Y578500D01*
X667993D01*
X670199Y579413D01*
X671887Y581101D01*
X672800Y583307D01*
Y585694D01*
X671887Y587899D01*
X670199Y589587D01*
X667993Y590500D01*
D02*
G37*
G36*
X497263D02*
X494877D01*
X492671Y589587D01*
X490983Y587899D01*
X490070Y585694D01*
Y583307D01*
X490983Y581101D01*
X492671Y579413D01*
X494877Y578500D01*
X497263D01*
X499469Y579413D01*
X501157Y581101D01*
X502070Y583307D01*
Y585694D01*
X501157Y587899D01*
X499469Y589587D01*
X497263Y590500D01*
D02*
G37*
G36*
X326534D02*
X324146D01*
X321941Y589587D01*
X320253Y587899D01*
X319340Y585694D01*
Y583307D01*
X320253Y581101D01*
X321941Y579413D01*
X324146Y578500D01*
X326534D01*
X328739Y579413D01*
X330426Y581101D01*
X331340Y583307D01*
Y585694D01*
X330426Y587899D01*
X328739Y589587D01*
X326534Y590500D01*
D02*
G37*
G36*
X110434D02*
X108047D01*
X105841Y589587D01*
X104153Y587899D01*
X103240Y585694D01*
Y583307D01*
X104153Y581101D01*
X105841Y579413D01*
X108047Y578500D01*
X110434D01*
X112639Y579413D01*
X114326Y581101D01*
X115240Y583307D01*
Y585694D01*
X114326Y587899D01*
X112639Y589587D01*
X110434Y590500D01*
D02*
G37*
G36*
X2460680Y598640D02*
X2436680D01*
Y574640D01*
X2460680D01*
Y598640D01*
D02*
G37*
G36*
X2296200Y597500D02*
X2276700D01*
Y571500D01*
X2296200D01*
Y597500D01*
D02*
G37*
G36*
X2246200D02*
X2226700D01*
Y571500D01*
X2246200D01*
Y597500D01*
D02*
G37*
G36*
X2125470D02*
X2105970D01*
Y571500D01*
X2125470D01*
Y597500D01*
D02*
G37*
G36*
X2075470D02*
X2055970D01*
Y571500D01*
X2075470D01*
Y597500D01*
D02*
G37*
G36*
X1954740D02*
X1935240D01*
Y571500D01*
X1954740D01*
Y597500D01*
D02*
G37*
G36*
X1904740D02*
X1885240D01*
Y571500D01*
X1904740D01*
Y597500D01*
D02*
G37*
G36*
X1783950D02*
X1764450D01*
Y571500D01*
X1783950D01*
Y597500D01*
D02*
G37*
G36*
X1733950D02*
X1714450D01*
Y571500D01*
X1733950D01*
Y597500D01*
D02*
G37*
G36*
X1613220D02*
X1593720D01*
Y571500D01*
X1613220D01*
Y597500D01*
D02*
G37*
G36*
X1563220D02*
X1543720D01*
Y571500D01*
X1563220D01*
Y597500D01*
D02*
G37*
G36*
X1442480D02*
X1422980D01*
Y571500D01*
X1442480D01*
Y597500D01*
D02*
G37*
G36*
X1392480D02*
X1372980D01*
Y571500D01*
X1392480D01*
Y597500D01*
D02*
G37*
G36*
X1271750D02*
X1252250D01*
Y571500D01*
X1271750D01*
Y597500D01*
D02*
G37*
G36*
X1221750D02*
X1202250D01*
Y571500D01*
X1221750D01*
Y597500D01*
D02*
G37*
G36*
X1101020D02*
X1081520D01*
Y571500D01*
X1101020D01*
Y597500D01*
D02*
G37*
G36*
X1051020D02*
X1031520D01*
Y571500D01*
X1051020D01*
Y597500D01*
D02*
G37*
G36*
X930290D02*
X910790D01*
Y571500D01*
X930290D01*
Y597500D01*
D02*
G37*
G36*
X880290D02*
X860790D01*
Y571500D01*
X880290D01*
Y597500D01*
D02*
G37*
G36*
X759550D02*
X740050D01*
Y571500D01*
X759550D01*
Y597500D01*
D02*
G37*
G36*
X709550D02*
X690050D01*
Y571500D01*
X709550D01*
Y597500D01*
D02*
G37*
G36*
X588820D02*
X569320D01*
Y571500D01*
X588820D01*
Y597500D01*
D02*
G37*
G36*
X538820D02*
X519320D01*
Y571500D01*
X538820D01*
Y597500D01*
D02*
G37*
G36*
X418090D02*
X398590D01*
Y571500D01*
X418090D01*
Y597500D01*
D02*
G37*
G36*
X368090D02*
X348590D01*
Y571500D01*
X368090D01*
Y597500D01*
D02*
G37*
G36*
X201990D02*
X182490D01*
Y571500D01*
X201990D01*
Y597500D01*
D02*
G37*
G36*
X151990D02*
X132490D01*
Y571500D01*
X151990D01*
Y597500D01*
D02*
G37*
G36*
X2571102Y561140D02*
X2569258D01*
X2567478Y560663D01*
X2565882Y559741D01*
X2564579Y558438D01*
X2563657Y556842D01*
X2563180Y555062D01*
Y553218D01*
X2563657Y551438D01*
X2564579Y549842D01*
X2565882Y548539D01*
X2567478Y547617D01*
X2569258Y547140D01*
X2571102D01*
X2572882Y547617D01*
X2574478Y548539D01*
X2575781Y549842D01*
X2576703Y551438D01*
X2577180Y553218D01*
Y555062D01*
X2576703Y556842D01*
X2575781Y558438D01*
X2574478Y559741D01*
X2572882Y560663D01*
X2571102Y561140D01*
D02*
G37*
G36*
X2336950Y564000D02*
X2312950D01*
Y540000D01*
X2336950D01*
Y564000D01*
D02*
G37*
G36*
X2209950D02*
X2185950D01*
Y540000D01*
X2209950D01*
Y564000D01*
D02*
G37*
G36*
X2166220D02*
X2142220D01*
Y540000D01*
X2166220D01*
Y564000D01*
D02*
G37*
G36*
X2039220D02*
X2015220D01*
Y540000D01*
X2039220D01*
Y564000D01*
D02*
G37*
G36*
X1995490D02*
X1971490D01*
Y540000D01*
X1995490D01*
Y564000D01*
D02*
G37*
G36*
X1868490D02*
X1844490D01*
Y540000D01*
X1868490D01*
Y564000D01*
D02*
G37*
G36*
X1824700D02*
X1800700D01*
Y540000D01*
X1824700D01*
Y564000D01*
D02*
G37*
G36*
X1697700D02*
X1673700D01*
Y540000D01*
X1697700D01*
Y564000D01*
D02*
G37*
G36*
X1653970D02*
X1629970D01*
Y540000D01*
X1653970D01*
Y564000D01*
D02*
G37*
G36*
X1526970D02*
X1502970D01*
Y540000D01*
X1526970D01*
Y564000D01*
D02*
G37*
G36*
X1483230D02*
X1459230D01*
Y540000D01*
X1483230D01*
Y564000D01*
D02*
G37*
G36*
X1356230D02*
X1332230D01*
Y540000D01*
X1356230D01*
Y564000D01*
D02*
G37*
G36*
X1312500D02*
X1288500D01*
Y540000D01*
X1312500D01*
Y564000D01*
D02*
G37*
G36*
X1185500D02*
X1161500D01*
Y540000D01*
X1185500D01*
Y564000D01*
D02*
G37*
G36*
X1141770D02*
X1117770D01*
Y540000D01*
X1141770D01*
Y564000D01*
D02*
G37*
G36*
X1014770D02*
X990770D01*
Y540000D01*
X1014770D01*
Y564000D01*
D02*
G37*
G36*
X971040D02*
X947040D01*
Y540000D01*
X971040D01*
Y564000D01*
D02*
G37*
G36*
X844040D02*
X820040D01*
Y540000D01*
X844040D01*
Y564000D01*
D02*
G37*
G36*
X800300D02*
X776300D01*
Y540000D01*
X800300D01*
Y564000D01*
D02*
G37*
G36*
X673300D02*
X649300D01*
Y540000D01*
X673300D01*
Y564000D01*
D02*
G37*
G36*
X629570D02*
X605570D01*
Y540000D01*
X629570D01*
Y564000D01*
D02*
G37*
G36*
X502570D02*
X478570D01*
Y540000D01*
X502570D01*
Y564000D01*
D02*
G37*
G36*
X458840D02*
X434840D01*
Y540000D01*
X458840D01*
Y564000D01*
D02*
G37*
G36*
X331840D02*
X307840D01*
Y540000D01*
X331840D01*
Y564000D01*
D02*
G37*
G36*
X242740D02*
X218740D01*
Y540000D01*
X242740D01*
Y564000D01*
D02*
G37*
G36*
X115740D02*
X91740D01*
Y540000D01*
X115740D01*
Y564000D01*
D02*
G37*
G36*
X2537775Y543140D02*
X2535785D01*
X2533948Y542379D01*
X2532541Y540972D01*
X2531780Y539135D01*
Y537145D01*
X2532541Y535308D01*
X2533948Y533901D01*
X2535785Y533140D01*
X2537775D01*
X2539612Y533901D01*
X2541019Y535308D01*
X2541780Y537145D01*
Y539135D01*
X2541019Y540972D01*
X2539612Y542379D01*
X2537775Y543140D01*
D02*
G37*
G36*
X2455373Y505140D02*
X2452986D01*
X2450781Y504227D01*
X2449093Y502539D01*
X2448180Y500334D01*
Y497947D01*
X2449093Y495741D01*
X2450781Y494053D01*
X2452986Y493140D01*
X2455373D01*
X2457579Y494053D01*
X2459267Y495741D01*
X2460180Y497947D01*
Y500334D01*
X2459267Y502539D01*
X2457579Y504227D01*
X2455373Y505140D01*
D02*
G37*
G36*
X2416950Y513270D02*
X2392950D01*
Y489270D01*
X2416950D01*
Y513270D01*
D02*
G37*
G36*
X2289950D02*
X2265950D01*
Y489270D01*
X2289950D01*
Y513270D01*
D02*
G37*
G36*
X2246170D02*
X2222170D01*
Y489270D01*
X2246170D01*
Y513270D01*
D02*
G37*
G36*
X2119170D02*
X2095170D01*
Y489270D01*
X2119170D01*
Y513270D01*
D02*
G37*
G36*
X2075430D02*
X2051430D01*
Y489270D01*
X2075430D01*
Y513270D01*
D02*
G37*
G36*
X1948430D02*
X1924430D01*
Y489270D01*
X1948430D01*
Y513270D01*
D02*
G37*
G36*
X1904700D02*
X1880700D01*
Y489270D01*
X1904700D01*
Y513270D01*
D02*
G37*
G36*
X1777700D02*
X1753700D01*
Y489270D01*
X1777700D01*
Y513270D01*
D02*
G37*
G36*
X1733970D02*
X1709970D01*
Y489270D01*
X1733970D01*
Y513270D01*
D02*
G37*
G36*
X1606970D02*
X1582970D01*
Y489270D01*
X1606970D01*
Y513270D01*
D02*
G37*
G36*
X1563230D02*
X1539230D01*
Y489270D01*
X1563230D01*
Y513270D01*
D02*
G37*
G36*
X1436230D02*
X1412230D01*
Y489270D01*
X1436230D01*
Y513270D01*
D02*
G37*
G36*
X1392500D02*
X1368500D01*
Y489270D01*
X1392500D01*
Y513270D01*
D02*
G37*
G36*
X1265500D02*
X1241500D01*
Y489270D01*
X1265500D01*
Y513270D01*
D02*
G37*
G36*
X1221770D02*
X1197770D01*
Y489270D01*
X1221770D01*
Y513270D01*
D02*
G37*
G36*
X1094770D02*
X1070770D01*
Y489270D01*
X1094770D01*
Y513270D01*
D02*
G37*
G36*
X1051040D02*
X1027040D01*
Y489270D01*
X1051040D01*
Y513270D01*
D02*
G37*
G36*
X924040D02*
X900040D01*
Y489270D01*
X924040D01*
Y513270D01*
D02*
G37*
G36*
X880300D02*
X856300D01*
Y489270D01*
X880300D01*
Y513270D01*
D02*
G37*
G36*
X753300D02*
X729300D01*
Y489270D01*
X753300D01*
Y513270D01*
D02*
G37*
G36*
X709570D02*
X685570D01*
Y489270D01*
X709570D01*
Y513270D01*
D02*
G37*
G36*
X582570D02*
X558570D01*
Y489270D01*
X582570D01*
Y513270D01*
D02*
G37*
G36*
X538840D02*
X514840D01*
Y489270D01*
X538840D01*
Y513270D01*
D02*
G37*
G36*
X411840D02*
X387840D01*
Y489270D01*
X411840D01*
Y513270D01*
D02*
G37*
G36*
X276210D02*
X252210D01*
Y489270D01*
X276210D01*
Y513270D01*
D02*
G37*
G36*
X149210D02*
X125210D01*
Y489270D01*
X149210D01*
Y513270D01*
D02*
G37*
G36*
X2546930Y512140D02*
X2527430D01*
Y486140D01*
X2546930D01*
Y512140D01*
D02*
G37*
G36*
X2496930D02*
X2477430D01*
Y486140D01*
X2496930D01*
Y512140D01*
D02*
G37*
G36*
X2400372Y475770D02*
X2398528D01*
X2396748Y475293D01*
X2395152Y474371D01*
X2393849Y473068D01*
X2392927Y471472D01*
X2392450Y469692D01*
Y467849D01*
X2392927Y466068D01*
X2393849Y464472D01*
X2395152Y463169D01*
X2396748Y462247D01*
X2398528Y461770D01*
X2400372D01*
X2402152Y462247D01*
X2403748Y463169D01*
X2405051Y464472D01*
X2405973Y466068D01*
X2406450Y467849D01*
Y469692D01*
X2405973Y471472D01*
X2405051Y473068D01*
X2403748Y474371D01*
X2402152Y475293D01*
X2400372Y475770D01*
D02*
G37*
G36*
X2229592D02*
X2227749D01*
X2225968Y475293D01*
X2224372Y474371D01*
X2223069Y473068D01*
X2222147Y471472D01*
X2221670Y469692D01*
Y467849D01*
X2222147Y466068D01*
X2223069Y464472D01*
X2224372Y463169D01*
X2225968Y462247D01*
X2227749Y461770D01*
X2229592D01*
X2231372Y462247D01*
X2232968Y463169D01*
X2234271Y464472D01*
X2235193Y466068D01*
X2235670Y467849D01*
Y469692D01*
X2235193Y471472D01*
X2234271Y473068D01*
X2232968Y474371D01*
X2231372Y475293D01*
X2229592Y475770D01*
D02*
G37*
G36*
X2058852D02*
X2057009D01*
X2055228Y475293D01*
X2053632Y474371D01*
X2052329Y473068D01*
X2051407Y471472D01*
X2050930Y469692D01*
Y467849D01*
X2051407Y466068D01*
X2052329Y464472D01*
X2053632Y463169D01*
X2055228Y462247D01*
X2057009Y461770D01*
X2058852D01*
X2060632Y462247D01*
X2062228Y463169D01*
X2063531Y464472D01*
X2064453Y466068D01*
X2064930Y467849D01*
Y469692D01*
X2064453Y471472D01*
X2063531Y473068D01*
X2062228Y474371D01*
X2060632Y475293D01*
X2058852Y475770D01*
D02*
G37*
G36*
X1888122D02*
X1886278D01*
X1884498Y475293D01*
X1882902Y474371D01*
X1881599Y473068D01*
X1880677Y471472D01*
X1880200Y469692D01*
Y467849D01*
X1880677Y466068D01*
X1881599Y464472D01*
X1882902Y463169D01*
X1884498Y462247D01*
X1886278Y461770D01*
X1888122D01*
X1889902Y462247D01*
X1891498Y463169D01*
X1892801Y464472D01*
X1893723Y466068D01*
X1894200Y467849D01*
Y469692D01*
X1893723Y471472D01*
X1892801Y473068D01*
X1891498Y474371D01*
X1889902Y475293D01*
X1888122Y475770D01*
D02*
G37*
G36*
X1717392D02*
X1715548D01*
X1713768Y475293D01*
X1712172Y474371D01*
X1710869Y473068D01*
X1709947Y471472D01*
X1709470Y469692D01*
Y467849D01*
X1709947Y466068D01*
X1710869Y464472D01*
X1712172Y463169D01*
X1713768Y462247D01*
X1715548Y461770D01*
X1717392D01*
X1719172Y462247D01*
X1720768Y463169D01*
X1722071Y464472D01*
X1722993Y466068D01*
X1723470Y467849D01*
Y469692D01*
X1722993Y471472D01*
X1722071Y473068D01*
X1720768Y474371D01*
X1719172Y475293D01*
X1717392Y475770D01*
D02*
G37*
G36*
X1546652D02*
X1544808D01*
X1543028Y475293D01*
X1541432Y474371D01*
X1540129Y473068D01*
X1539207Y471472D01*
X1538730Y469692D01*
Y467849D01*
X1539207Y466068D01*
X1540129Y464472D01*
X1541432Y463169D01*
X1543028Y462247D01*
X1544808Y461770D01*
X1546652D01*
X1548432Y462247D01*
X1550028Y463169D01*
X1551331Y464472D01*
X1552253Y466068D01*
X1552730Y467849D01*
Y469692D01*
X1552253Y471472D01*
X1551331Y473068D01*
X1550028Y474371D01*
X1548432Y475293D01*
X1546652Y475770D01*
D02*
G37*
G36*
X1375922D02*
X1374079D01*
X1372298Y475293D01*
X1370702Y474371D01*
X1369399Y473068D01*
X1368477Y471472D01*
X1368000Y469692D01*
Y467849D01*
X1368477Y466068D01*
X1369399Y464472D01*
X1370702Y463169D01*
X1372298Y462247D01*
X1374079Y461770D01*
X1375922D01*
X1377702Y462247D01*
X1379298Y463169D01*
X1380601Y464472D01*
X1381523Y466068D01*
X1382000Y467849D01*
Y469692D01*
X1381523Y471472D01*
X1380601Y473068D01*
X1379298Y474371D01*
X1377702Y475293D01*
X1375922Y475770D01*
D02*
G37*
G36*
X1205192D02*
X1203348D01*
X1201568Y475293D01*
X1199972Y474371D01*
X1198669Y473068D01*
X1197747Y471472D01*
X1197270Y469692D01*
Y467849D01*
X1197747Y466068D01*
X1198669Y464472D01*
X1199972Y463169D01*
X1201568Y462247D01*
X1203348Y461770D01*
X1205192D01*
X1206972Y462247D01*
X1208568Y463169D01*
X1209871Y464472D01*
X1210793Y466068D01*
X1211270Y467849D01*
Y469692D01*
X1210793Y471472D01*
X1209871Y473068D01*
X1208568Y474371D01*
X1206972Y475293D01*
X1205192Y475770D01*
D02*
G37*
G36*
X1034462D02*
X1032618D01*
X1030838Y475293D01*
X1029242Y474371D01*
X1027939Y473068D01*
X1027017Y471472D01*
X1026540Y469692D01*
Y467849D01*
X1027017Y466068D01*
X1027939Y464472D01*
X1029242Y463169D01*
X1030838Y462247D01*
X1032618Y461770D01*
X1034462D01*
X1036242Y462247D01*
X1037838Y463169D01*
X1039141Y464472D01*
X1040063Y466068D01*
X1040540Y467849D01*
Y469692D01*
X1040063Y471472D01*
X1039141Y473068D01*
X1037838Y474371D01*
X1036242Y475293D01*
X1034462Y475770D01*
D02*
G37*
G36*
X863722D02*
X861878D01*
X860098Y475293D01*
X858502Y474371D01*
X857199Y473068D01*
X856277Y471472D01*
X855800Y469692D01*
Y467849D01*
X856277Y466068D01*
X857199Y464472D01*
X858502Y463169D01*
X860098Y462247D01*
X861878Y461770D01*
X863722D01*
X865502Y462247D01*
X867098Y463169D01*
X868401Y464472D01*
X869323Y466068D01*
X869800Y467849D01*
Y469692D01*
X869323Y471472D01*
X868401Y473068D01*
X867098Y474371D01*
X865502Y475293D01*
X863722Y475770D01*
D02*
G37*
G36*
X692992D02*
X691149D01*
X689368Y475293D01*
X687772Y474371D01*
X686469Y473068D01*
X685547Y471472D01*
X685070Y469692D01*
Y467849D01*
X685547Y466068D01*
X686469Y464472D01*
X687772Y463169D01*
X689368Y462247D01*
X691149Y461770D01*
X692992D01*
X694772Y462247D01*
X696368Y463169D01*
X697671Y464472D01*
X698593Y466068D01*
X699070Y467849D01*
Y469692D01*
X698593Y471472D01*
X697671Y473068D01*
X696368Y474371D01*
X694772Y475293D01*
X692992Y475770D01*
D02*
G37*
G36*
X522262D02*
X520418D01*
X518638Y475293D01*
X517042Y474371D01*
X515739Y473068D01*
X514817Y471472D01*
X514340Y469692D01*
Y467849D01*
X514817Y466068D01*
X515739Y464472D01*
X517042Y463169D01*
X518638Y462247D01*
X520418Y461770D01*
X522262D01*
X524042Y462247D01*
X525638Y463169D01*
X526941Y464472D01*
X527863Y466068D01*
X528340Y467849D01*
Y469692D01*
X527863Y471472D01*
X526941Y473068D01*
X525638Y474371D01*
X524042Y475293D01*
X522262Y475770D01*
D02*
G37*
G36*
X259632D02*
X257789D01*
X256008Y475293D01*
X254412Y474371D01*
X253109Y473068D01*
X252187Y471472D01*
X251710Y469692D01*
Y467849D01*
X252187Y466068D01*
X253109Y464472D01*
X254412Y463169D01*
X256008Y462247D01*
X257789Y461770D01*
X259632D01*
X261412Y462247D01*
X263008Y463169D01*
X264311Y464472D01*
X265233Y466068D01*
X265710Y467849D01*
Y469692D01*
X265233Y471472D01*
X264311Y473068D01*
X263008Y474371D01*
X261412Y475293D01*
X259632Y475770D01*
D02*
G37*
G36*
X2460680Y478640D02*
X2436680D01*
Y454640D01*
X2460680D01*
Y478640D01*
D02*
G37*
G36*
X489047Y457882D02*
X487058D01*
X485220Y457121D01*
X483814Y455715D01*
X483053Y453877D01*
Y451888D01*
X483814Y450050D01*
X485220Y448644D01*
X487058Y447882D01*
X489047D01*
X490885Y448644D01*
X492291Y450050D01*
X493053Y451888D01*
Y453877D01*
X492291Y455715D01*
X490885Y457121D01*
X489047Y457882D01*
D02*
G37*
G36*
X2366837Y457770D02*
X2364848D01*
X2363010Y457009D01*
X2361604Y455602D01*
X2360843Y453765D01*
Y451775D01*
X2361604Y449938D01*
X2363010Y448531D01*
X2364848Y447770D01*
X2366837D01*
X2368675Y448531D01*
X2370081Y449938D01*
X2370843Y451775D01*
Y453765D01*
X2370081Y455602D01*
X2368675Y457009D01*
X2366837Y457770D01*
D02*
G37*
G36*
X2195906D02*
X2193917D01*
X2192079Y457009D01*
X2190672Y455602D01*
X2189911Y453765D01*
Y451775D01*
X2190672Y449938D01*
X2192079Y448531D01*
X2193917Y447770D01*
X2195906D01*
X2197744Y448531D01*
X2199150Y449938D01*
X2199911Y451775D01*
Y453765D01*
X2199150Y455602D01*
X2197744Y457009D01*
X2195906Y457770D01*
D02*
G37*
G36*
X2025571D02*
X2023581D01*
X2021744Y457009D01*
X2020337Y455602D01*
X2019576Y453765D01*
Y451775D01*
X2020337Y449938D01*
X2021744Y448531D01*
X2023581Y447770D01*
X2025571D01*
X2027408Y448531D01*
X2028815Y449938D01*
X2029576Y451775D01*
Y453765D01*
X2028815Y455602D01*
X2027408Y457009D01*
X2025571Y457770D01*
D02*
G37*
G36*
X1854290D02*
X1852301D01*
X1850463Y457009D01*
X1849057Y455602D01*
X1848296Y453765D01*
Y451775D01*
X1849057Y449938D01*
X1850463Y448531D01*
X1852301Y447770D01*
X1854290D01*
X1856128Y448531D01*
X1857534Y449938D01*
X1858296Y451775D01*
Y453765D01*
X1857534Y455602D01*
X1856128Y457009D01*
X1854290Y457770D01*
D02*
G37*
G36*
X1684298D02*
X1682309D01*
X1680472Y457009D01*
X1679065Y455602D01*
X1678304Y453765D01*
Y451775D01*
X1679065Y449938D01*
X1680472Y448531D01*
X1682309Y447770D01*
X1684298D01*
X1686136Y448531D01*
X1687543Y449938D01*
X1688304Y451775D01*
Y453765D01*
X1687543Y455602D01*
X1686136Y457009D01*
X1684298Y457770D01*
D02*
G37*
G36*
X1513331D02*
X1511342D01*
X1509504Y457009D01*
X1508097Y455602D01*
X1507336Y453765D01*
Y451775D01*
X1508097Y449938D01*
X1509504Y448531D01*
X1511342Y447770D01*
X1513331D01*
X1515168Y448531D01*
X1516575Y449938D01*
X1517336Y451775D01*
Y453765D01*
X1516575Y455602D01*
X1515168Y457009D01*
X1513331Y457770D01*
D02*
G37*
G36*
X1342094D02*
X1340104D01*
X1338267Y457009D01*
X1336860Y455602D01*
X1336099Y453765D01*
Y451775D01*
X1336860Y449938D01*
X1338267Y448531D01*
X1340104Y447770D01*
X1342094D01*
X1343931Y448531D01*
X1345338Y449938D01*
X1346099Y451775D01*
Y453765D01*
X1345338Y455602D01*
X1343931Y457009D01*
X1342094Y457770D01*
D02*
G37*
G36*
X1172075D02*
X1170085D01*
X1168248Y457009D01*
X1166841Y455602D01*
X1166080Y453765D01*
Y451775D01*
X1166841Y449938D01*
X1168248Y448531D01*
X1170085Y447770D01*
X1172075D01*
X1173912Y448531D01*
X1175319Y449938D01*
X1176080Y451775D01*
Y453765D01*
X1175319Y455602D01*
X1173912Y457009D01*
X1172075Y457770D01*
D02*
G37*
G36*
X1000880D02*
X998891D01*
X997053Y457009D01*
X995646Y455602D01*
X994885Y453765D01*
Y451775D01*
X995646Y449938D01*
X997053Y448531D01*
X998891Y447770D01*
X1000880D01*
X1002718Y448531D01*
X1004124Y449938D01*
X1004885Y451775D01*
Y453765D01*
X1004124Y455602D01*
X1002718Y457009D01*
X1000880Y457770D01*
D02*
G37*
G36*
X830697D02*
X828708D01*
X826870Y457009D01*
X825464Y455602D01*
X824703Y453765D01*
Y451775D01*
X825464Y449938D01*
X826870Y448531D01*
X828708Y447770D01*
X830697D01*
X832535Y448531D01*
X833942Y449938D01*
X834703Y451775D01*
Y453765D01*
X833942Y455602D01*
X832535Y457009D01*
X830697Y457770D01*
D02*
G37*
G36*
X659982D02*
X657993D01*
X656155Y457009D01*
X654749Y455602D01*
X653987Y453765D01*
Y451775D01*
X654749Y449938D01*
X656155Y448531D01*
X657993Y447770D01*
X659982D01*
X661820Y448531D01*
X663226Y449938D01*
X663987Y451775D01*
Y453765D01*
X663226Y455602D01*
X661820Y457009D01*
X659982Y457770D01*
D02*
G37*
G36*
X226285D02*
X224296D01*
X222458Y457009D01*
X221051Y455602D01*
X220290Y453765D01*
Y451775D01*
X221051Y449938D01*
X222458Y448531D01*
X224296Y447770D01*
X226285D01*
X228122Y448531D01*
X229529Y449938D01*
X230290Y451775D01*
Y453765D01*
X229529Y455602D01*
X228122Y457009D01*
X226285Y457770D01*
D02*
G37*
G36*
X1130798Y455169D02*
X1128809D01*
X1126971Y454408D01*
X1125564Y453001D01*
X1124803Y451163D01*
Y449174D01*
X1125564Y447336D01*
X1126971Y445930D01*
X1128809Y445169D01*
X1130798D01*
X1132635Y445930D01*
X1134042Y447336D01*
X1134803Y449174D01*
Y451163D01*
X1134042Y453001D01*
X1132635Y454408D01*
X1130798Y455169D01*
D02*
G37*
G36*
X620356Y454370D02*
X618367D01*
X616529Y453609D01*
X615122Y452202D01*
X614361Y450364D01*
Y448375D01*
X615122Y446538D01*
X616529Y445131D01*
X618367Y444370D01*
X620356D01*
X622193Y445131D01*
X623600Y446538D01*
X624361Y448375D01*
Y450364D01*
X623600Y452202D01*
X622193Y453609D01*
X620356Y454370D01*
D02*
G37*
G36*
X2154995Y453000D02*
X2153005D01*
X2151168Y452239D01*
X2149761Y450832D01*
X2149000Y448995D01*
Y447005D01*
X2149761Y445168D01*
X2151168Y443761D01*
X2153005Y443000D01*
X2154995D01*
X2156832Y443761D01*
X2158239Y445168D01*
X2159000Y447005D01*
Y448995D01*
X2158239Y450832D01*
X2156832Y452239D01*
X2154995Y453000D01*
D02*
G37*
G36*
X1642995D02*
X1641005D01*
X1639168Y452239D01*
X1637761Y450832D01*
X1637000Y448995D01*
Y447005D01*
X1637761Y445168D01*
X1639168Y443761D01*
X1641005Y443000D01*
X1642995D01*
X1644832Y443761D01*
X1646239Y445168D01*
X1647000Y447005D01*
Y448995D01*
X1646239Y450832D01*
X1644832Y452239D01*
X1642995Y453000D01*
D02*
G37*
G36*
X1193995D02*
X1192005D01*
X1190168Y452239D01*
X1188761Y450832D01*
X1188000Y448995D01*
Y447005D01*
X1188761Y445168D01*
X1190168Y443761D01*
X1192005Y443000D01*
X1193995D01*
X1195832Y443761D01*
X1197239Y445168D01*
X1198000Y447005D01*
Y448995D01*
X1197239Y450832D01*
X1195832Y452239D01*
X1193995Y453000D01*
D02*
G37*
G36*
X1374995Y442000D02*
X1373005D01*
X1371168Y441239D01*
X1369761Y439832D01*
X1369000Y437995D01*
Y436005D01*
X1369761Y434168D01*
X1371168Y432761D01*
X1373005Y432000D01*
X1374995D01*
X1376832Y432761D01*
X1378239Y434168D01*
X1379000Y436005D01*
Y437995D01*
X1378239Y439832D01*
X1376832Y441239D01*
X1374995Y442000D01*
D02*
G37*
G36*
X1232793Y425914D02*
X1230804D01*
X1228966Y425153D01*
X1227559Y423746D01*
X1226798Y421909D01*
Y419920D01*
X1227559Y418082D01*
X1228966Y416675D01*
X1230804Y415914D01*
X1232793D01*
X1234630Y416675D01*
X1236037Y418082D01*
X1236798Y419920D01*
Y421909D01*
X1236037Y423746D01*
X1234630Y425153D01*
X1232793Y425914D01*
D02*
G37*
G36*
X2284644Y419770D02*
X2282256D01*
X2280051Y418857D01*
X2278363Y417169D01*
X2277450Y414963D01*
Y412577D01*
X2278363Y410371D01*
X2280051Y408684D01*
X2282256Y407770D01*
X2284644D01*
X2286849Y408684D01*
X2288537Y410371D01*
X2289450Y412577D01*
Y414963D01*
X2288537Y417169D01*
X2286849Y418857D01*
X2284644Y419770D01*
D02*
G37*
G36*
X2113864D02*
X2111476D01*
X2109271Y418857D01*
X2107583Y417169D01*
X2106670Y414963D01*
Y412577D01*
X2107583Y410371D01*
X2109271Y408684D01*
X2111476Y407770D01*
X2113864D01*
X2116069Y408684D01*
X2117757Y410371D01*
X2118670Y412577D01*
Y414963D01*
X2117757Y417169D01*
X2116069Y418857D01*
X2113864Y419770D01*
D02*
G37*
G36*
X1943123D02*
X1940737D01*
X1938531Y418857D01*
X1936843Y417169D01*
X1935930Y414963D01*
Y412577D01*
X1936843Y410371D01*
X1938531Y408684D01*
X1940737Y407770D01*
X1943123D01*
X1945329Y408684D01*
X1947017Y410371D01*
X1947930Y412577D01*
Y414963D01*
X1947017Y417169D01*
X1945329Y418857D01*
X1943123Y419770D01*
D02*
G37*
G36*
X1772393D02*
X1770007D01*
X1767801Y418857D01*
X1766113Y417169D01*
X1765200Y414963D01*
Y412577D01*
X1766113Y410371D01*
X1767801Y408684D01*
X1770007Y407770D01*
X1772393D01*
X1774599Y408684D01*
X1776286Y410371D01*
X1777200Y412577D01*
Y414963D01*
X1776286Y417169D01*
X1774599Y418857D01*
X1772393Y419770D01*
D02*
G37*
G36*
X1601663D02*
X1599276D01*
X1597071Y418857D01*
X1595383Y417169D01*
X1594470Y414963D01*
Y412577D01*
X1595383Y410371D01*
X1597071Y408684D01*
X1599276Y407770D01*
X1601663D01*
X1603869Y408684D01*
X1605556Y410371D01*
X1606470Y412577D01*
Y414963D01*
X1605556Y417169D01*
X1603869Y418857D01*
X1601663Y419770D01*
D02*
G37*
G36*
X1430923D02*
X1428537D01*
X1426331Y418857D01*
X1424643Y417169D01*
X1423730Y414963D01*
Y412577D01*
X1424643Y410371D01*
X1426331Y408684D01*
X1428537Y407770D01*
X1430923D01*
X1433129Y408684D01*
X1434816Y410371D01*
X1435730Y412577D01*
Y414963D01*
X1434816Y417169D01*
X1433129Y418857D01*
X1430923Y419770D01*
D02*
G37*
G36*
X1260193D02*
X1257806D01*
X1255601Y418857D01*
X1253913Y417169D01*
X1253000Y414963D01*
Y412577D01*
X1253913Y410371D01*
X1255601Y408684D01*
X1257806Y407770D01*
X1260193D01*
X1262399Y408684D01*
X1264087Y410371D01*
X1265000Y412577D01*
Y414963D01*
X1264087Y417169D01*
X1262399Y418857D01*
X1260193Y419770D01*
D02*
G37*
G36*
X1089464D02*
X1087076D01*
X1084871Y418857D01*
X1083183Y417169D01*
X1082270Y414963D01*
Y412577D01*
X1083183Y410371D01*
X1084871Y408684D01*
X1087076Y407770D01*
X1089464D01*
X1091669Y408684D01*
X1093356Y410371D01*
X1094270Y412577D01*
Y414963D01*
X1093356Y417169D01*
X1091669Y418857D01*
X1089464Y419770D01*
D02*
G37*
G36*
X918734D02*
X916347D01*
X914141Y418857D01*
X912453Y417169D01*
X911540Y414963D01*
Y412577D01*
X912453Y410371D01*
X914141Y408684D01*
X916347Y407770D01*
X918734D01*
X920939Y408684D01*
X922627Y410371D01*
X923540Y412577D01*
Y414963D01*
X922627Y417169D01*
X920939Y418857D01*
X918734Y419770D01*
D02*
G37*
G36*
X747993D02*
X745607D01*
X743401Y418857D01*
X741713Y417169D01*
X740800Y414963D01*
Y412577D01*
X741713Y410371D01*
X743401Y408684D01*
X745607Y407770D01*
X747993D01*
X750199Y408684D01*
X751887Y410371D01*
X752800Y412577D01*
Y414963D01*
X751887Y417169D01*
X750199Y418857D01*
X747993Y419770D01*
D02*
G37*
G36*
X577263D02*
X574877D01*
X572671Y418857D01*
X570983Y417169D01*
X570070Y414963D01*
Y412577D01*
X570983Y410371D01*
X572671Y408684D01*
X574877Y407770D01*
X577263D01*
X579469Y408684D01*
X581157Y410371D01*
X582070Y412577D01*
Y414963D01*
X581157Y417169D01*
X579469Y418857D01*
X577263Y419770D01*
D02*
G37*
G36*
X406534D02*
X404146D01*
X401941Y418857D01*
X400253Y417169D01*
X399340Y414963D01*
Y412577D01*
X400253Y410371D01*
X401941Y408684D01*
X404146Y407770D01*
X406534D01*
X408739Y408684D01*
X410426Y410371D01*
X411340Y412577D01*
Y414963D01*
X410426Y417169D01*
X408739Y418857D01*
X406534Y419770D01*
D02*
G37*
G36*
X143904D02*
X141517D01*
X139311Y418857D01*
X137623Y417169D01*
X136710Y414963D01*
Y412577D01*
X137623Y410371D01*
X139311Y408684D01*
X141517Y407770D01*
X143904D01*
X146109Y408684D01*
X147797Y410371D01*
X148710Y412577D01*
Y414963D01*
X147797Y417169D01*
X146109Y418857D01*
X143904Y419770D01*
D02*
G37*
G36*
X2376200Y426770D02*
X2356700D01*
Y400770D01*
X2376200D01*
Y426770D01*
D02*
G37*
G36*
X2326200D02*
X2306700D01*
Y400770D01*
X2326200D01*
Y426770D01*
D02*
G37*
G36*
X2205420D02*
X2185920D01*
Y400770D01*
X2205420D01*
Y426770D01*
D02*
G37*
G36*
X2155420D02*
X2135920D01*
Y400770D01*
X2155420D01*
Y426770D01*
D02*
G37*
G36*
X2034680D02*
X2015180D01*
Y400770D01*
X2034680D01*
Y426770D01*
D02*
G37*
G36*
X1984680D02*
X1965180D01*
Y400770D01*
X1984680D01*
Y426770D01*
D02*
G37*
G36*
X1863950D02*
X1844450D01*
Y400770D01*
X1863950D01*
Y426770D01*
D02*
G37*
G36*
X1813950D02*
X1794450D01*
Y400770D01*
X1813950D01*
Y426770D01*
D02*
G37*
G36*
X1693220D02*
X1673720D01*
Y400770D01*
X1693220D01*
Y426770D01*
D02*
G37*
G36*
X1643220D02*
X1623720D01*
Y400770D01*
X1643220D01*
Y426770D01*
D02*
G37*
G36*
X1522480D02*
X1502980D01*
Y400770D01*
X1522480D01*
Y426770D01*
D02*
G37*
G36*
X1472480D02*
X1452980D01*
Y400770D01*
X1472480D01*
Y426770D01*
D02*
G37*
G36*
X1351750D02*
X1332250D01*
Y400770D01*
X1351750D01*
Y426770D01*
D02*
G37*
G36*
X1301750D02*
X1282250D01*
Y400770D01*
X1301750D01*
Y426770D01*
D02*
G37*
G36*
X1181020D02*
X1161520D01*
Y400770D01*
X1181020D01*
Y426770D01*
D02*
G37*
G36*
X1131020D02*
X1111520D01*
Y400770D01*
X1131020D01*
Y426770D01*
D02*
G37*
G36*
X1010290D02*
X990790D01*
Y400770D01*
X1010290D01*
Y426770D01*
D02*
G37*
G36*
X960290D02*
X940790D01*
Y400770D01*
X960290D01*
Y426770D01*
D02*
G37*
G36*
X839550D02*
X820050D01*
Y400770D01*
X839550D01*
Y426770D01*
D02*
G37*
G36*
X789550D02*
X770050D01*
Y400770D01*
X789550D01*
Y426770D01*
D02*
G37*
G36*
X668820D02*
X649320D01*
Y400770D01*
X668820D01*
Y426770D01*
D02*
G37*
G36*
X618820D02*
X599320D01*
Y400770D01*
X618820D01*
Y426770D01*
D02*
G37*
G36*
X498090D02*
X478590D01*
Y400770D01*
X498090D01*
Y426770D01*
D02*
G37*
G36*
X448090D02*
X428590D01*
Y400770D01*
X448090D01*
Y426770D01*
D02*
G37*
G36*
X235460D02*
X215960D01*
Y400770D01*
X235460D01*
Y426770D01*
D02*
G37*
G36*
X185460D02*
X165960D01*
Y400770D01*
X185460D01*
Y426770D01*
D02*
G37*
G36*
X2416950Y393270D02*
X2392950D01*
Y369270D01*
X2416950D01*
Y393270D01*
D02*
G37*
G36*
X2289950D02*
X2265950D01*
Y369270D01*
X2289950D01*
Y393270D01*
D02*
G37*
G36*
X2246170D02*
X2222170D01*
Y369270D01*
X2246170D01*
Y393270D01*
D02*
G37*
G36*
X2119170D02*
X2095170D01*
Y369270D01*
X2119170D01*
Y393270D01*
D02*
G37*
G36*
X2075430D02*
X2051430D01*
Y369270D01*
X2075430D01*
Y393270D01*
D02*
G37*
G36*
X1948430D02*
X1924430D01*
Y369270D01*
X1948430D01*
Y393270D01*
D02*
G37*
G36*
X1904700D02*
X1880700D01*
Y369270D01*
X1904700D01*
Y393270D01*
D02*
G37*
G36*
X1777700D02*
X1753700D01*
Y369270D01*
X1777700D01*
Y393270D01*
D02*
G37*
G36*
X1733970D02*
X1709970D01*
Y369270D01*
X1733970D01*
Y393270D01*
D02*
G37*
G36*
X1606970D02*
X1582970D01*
Y369270D01*
X1606970D01*
Y393270D01*
D02*
G37*
G36*
X1563230D02*
X1539230D01*
Y369270D01*
X1563230D01*
Y393270D01*
D02*
G37*
G36*
X1436230D02*
X1412230D01*
Y369270D01*
X1436230D01*
Y393270D01*
D02*
G37*
G36*
X1392500D02*
X1368500D01*
Y369270D01*
X1392500D01*
Y393270D01*
D02*
G37*
G36*
X1265500D02*
X1241500D01*
Y369270D01*
X1265500D01*
Y393270D01*
D02*
G37*
G36*
X1221770D02*
X1197770D01*
Y369270D01*
X1221770D01*
Y393270D01*
D02*
G37*
G36*
X1094770D02*
X1070770D01*
Y369270D01*
X1094770D01*
Y393270D01*
D02*
G37*
G36*
X1051040D02*
X1027040D01*
Y369270D01*
X1051040D01*
Y393270D01*
D02*
G37*
G36*
X924040D02*
X900040D01*
Y369270D01*
X924040D01*
Y393270D01*
D02*
G37*
G36*
X880300D02*
X856300D01*
Y369270D01*
X880300D01*
Y393270D01*
D02*
G37*
G36*
X753300D02*
X729300D01*
Y369270D01*
X753300D01*
Y393270D01*
D02*
G37*
G36*
X709570D02*
X685570D01*
Y369270D01*
X709570D01*
Y393270D01*
D02*
G37*
G36*
X582570D02*
X558570D01*
Y369270D01*
X582570D01*
Y393270D01*
D02*
G37*
G36*
X538840D02*
X514840D01*
Y369270D01*
X538840D01*
Y393270D01*
D02*
G37*
G36*
X411840D02*
X387840D01*
Y369270D01*
X411840D01*
Y393270D01*
D02*
G37*
G36*
X276210D02*
X252210D01*
Y369270D01*
X276210D01*
Y393270D01*
D02*
G37*
G36*
X149210D02*
X125210D01*
Y369270D01*
X149210D01*
Y393270D01*
D02*
G37*
G36*
X2462320Y342540D02*
X2438320D01*
Y318540D01*
X2462320D01*
Y342540D01*
D02*
G37*
G36*
X2335320D02*
X2311320D01*
Y318540D01*
X2335320D01*
Y342540D01*
D02*
G37*
G36*
X2166170D02*
X2142170D01*
Y318540D01*
X2166170D01*
Y342540D01*
D02*
G37*
G36*
X2039170D02*
X2015170D01*
Y318540D01*
X2039170D01*
Y342540D01*
D02*
G37*
G36*
X1995430D02*
X1971430D01*
Y318540D01*
X1995430D01*
Y342540D01*
D02*
G37*
G36*
X1868430D02*
X1844430D01*
Y318540D01*
X1868430D01*
Y342540D01*
D02*
G37*
G36*
X1824700D02*
X1800700D01*
Y318540D01*
X1824700D01*
Y342540D01*
D02*
G37*
G36*
X1697700D02*
X1673700D01*
Y318540D01*
X1697700D01*
Y342540D01*
D02*
G37*
G36*
X1653970D02*
X1629970D01*
Y318540D01*
X1653970D01*
Y342540D01*
D02*
G37*
G36*
X1526970D02*
X1502970D01*
Y318540D01*
X1526970D01*
Y342540D01*
D02*
G37*
G36*
X1483230D02*
X1459230D01*
Y318540D01*
X1483230D01*
Y342540D01*
D02*
G37*
G36*
X1356230D02*
X1332230D01*
Y318540D01*
X1356230D01*
Y342540D01*
D02*
G37*
G36*
X1312500D02*
X1288500D01*
Y318540D01*
X1312500D01*
Y342540D01*
D02*
G37*
G36*
X1185500D02*
X1161500D01*
Y318540D01*
X1185500D01*
Y342540D01*
D02*
G37*
G36*
X1141770D02*
X1117770D01*
Y318540D01*
X1141770D01*
Y342540D01*
D02*
G37*
G36*
X1014770D02*
X990770D01*
Y318540D01*
X1014770D01*
Y342540D01*
D02*
G37*
G36*
X971040D02*
X947040D01*
Y318540D01*
X971040D01*
Y342540D01*
D02*
G37*
G36*
X844040D02*
X820040D01*
Y318540D01*
X844040D01*
Y342540D01*
D02*
G37*
G36*
X800300D02*
X776300D01*
Y318540D01*
X800300D01*
Y342540D01*
D02*
G37*
G36*
X673300D02*
X649300D01*
Y318540D01*
X673300D01*
Y342540D01*
D02*
G37*
G36*
X629570D02*
X605570D01*
Y318540D01*
X629570D01*
Y342540D01*
D02*
G37*
G36*
X502570D02*
X478570D01*
Y318540D01*
X502570D01*
Y342540D01*
D02*
G37*
G36*
X458840D02*
X434840D01*
Y318540D01*
X458840D01*
Y342540D01*
D02*
G37*
G36*
X331840D02*
X307840D01*
Y318540D01*
X331840D01*
Y342540D01*
D02*
G37*
G36*
X242740D02*
X218740D01*
Y318540D01*
X242740D01*
Y342540D01*
D02*
G37*
G36*
X115740D02*
X91740D01*
Y318540D01*
X115740D01*
Y342540D01*
D02*
G37*
G36*
X1036995Y319000D02*
X1035005D01*
X1033168Y318239D01*
X1031761Y316832D01*
X1031000Y314995D01*
Y313005D01*
X1031761Y311168D01*
X1033168Y309761D01*
X1035005Y309000D01*
X1036995D01*
X1038832Y309761D01*
X1040239Y311168D01*
X1041000Y313005D01*
Y314995D01*
X1040239Y316832D01*
X1038832Y318239D01*
X1036995Y319000D01*
D02*
G37*
G36*
X528995D02*
X527005D01*
X525168Y318239D01*
X523761Y316832D01*
X523000Y314995D01*
Y313005D01*
X523761Y311168D01*
X525168Y309761D01*
X527005Y309000D01*
X528995D01*
X530832Y309761D01*
X532239Y311168D01*
X533000Y313005D01*
Y314995D01*
X532239Y316832D01*
X530832Y318239D01*
X528995Y319000D01*
D02*
G37*
G36*
X2076995Y317000D02*
X2075005D01*
X2073168Y316239D01*
X2071761Y314832D01*
X2071000Y312995D01*
Y311005D01*
X2071761Y309168D01*
X2073168Y307761D01*
X2075005Y307000D01*
X2076995D01*
X2078832Y307761D01*
X2080239Y309168D01*
X2081000Y311005D01*
Y312995D01*
X2080239Y314832D01*
X2078832Y316239D01*
X2076995Y317000D01*
D02*
G37*
G36*
X2445742Y305040D02*
X2443898D01*
X2442118Y304563D01*
X2440522Y303641D01*
X2439219Y302338D01*
X2438297Y300742D01*
X2437820Y298962D01*
Y297118D01*
X2438297Y295338D01*
X2439219Y293742D01*
X2440522Y292439D01*
X2442118Y291517D01*
X2443898Y291040D01*
X2445742D01*
X2447522Y291517D01*
X2449118Y292439D01*
X2450421Y293742D01*
X2451343Y295338D01*
X2451820Y297118D01*
Y298962D01*
X2451343Y300742D01*
X2450421Y302338D01*
X2449118Y303641D01*
X2447522Y304563D01*
X2445742Y305040D01*
D02*
G37*
G36*
X2149592D02*
X2147749D01*
X2145968Y304563D01*
X2144372Y303641D01*
X2143069Y302338D01*
X2142147Y300742D01*
X2141670Y298962D01*
Y297118D01*
X2142147Y295338D01*
X2143069Y293742D01*
X2144372Y292439D01*
X2145968Y291517D01*
X2147749Y291040D01*
X2149592D01*
X2151372Y291517D01*
X2152968Y292439D01*
X2154271Y293742D01*
X2155193Y295338D01*
X2155670Y297118D01*
Y298962D01*
X2155193Y300742D01*
X2154271Y302338D01*
X2152968Y303641D01*
X2151372Y304563D01*
X2149592Y305040D01*
D02*
G37*
G36*
X1978852D02*
X1977008D01*
X1975228Y304563D01*
X1973632Y303641D01*
X1972329Y302338D01*
X1971407Y300742D01*
X1970930Y298962D01*
Y297118D01*
X1971407Y295338D01*
X1972329Y293742D01*
X1973632Y292439D01*
X1975228Y291517D01*
X1977008Y291040D01*
X1978852D01*
X1980632Y291517D01*
X1982228Y292439D01*
X1983531Y293742D01*
X1984453Y295338D01*
X1984930Y297118D01*
Y298962D01*
X1984453Y300742D01*
X1983531Y302338D01*
X1982228Y303641D01*
X1980632Y304563D01*
X1978852Y305040D01*
D02*
G37*
G36*
X1808122D02*
X1806279D01*
X1804498Y304563D01*
X1802902Y303641D01*
X1801599Y302338D01*
X1800677Y300742D01*
X1800200Y298962D01*
Y297118D01*
X1800677Y295338D01*
X1801599Y293742D01*
X1802902Y292439D01*
X1804498Y291517D01*
X1806279Y291040D01*
X1808122D01*
X1809902Y291517D01*
X1811498Y292439D01*
X1812801Y293742D01*
X1813723Y295338D01*
X1814200Y297118D01*
Y298962D01*
X1813723Y300742D01*
X1812801Y302338D01*
X1811498Y303641D01*
X1809902Y304563D01*
X1808122Y305040D01*
D02*
G37*
G36*
X1637392D02*
X1635548D01*
X1633768Y304563D01*
X1632172Y303641D01*
X1630869Y302338D01*
X1629947Y300742D01*
X1629470Y298962D01*
Y297118D01*
X1629947Y295338D01*
X1630869Y293742D01*
X1632172Y292439D01*
X1633768Y291517D01*
X1635548Y291040D01*
X1637392D01*
X1639172Y291517D01*
X1640768Y292439D01*
X1642071Y293742D01*
X1642993Y295338D01*
X1643470Y297118D01*
Y298962D01*
X1642993Y300742D01*
X1642071Y302338D01*
X1640768Y303641D01*
X1639172Y304563D01*
X1637392Y305040D01*
D02*
G37*
G36*
X1466652D02*
X1464808D01*
X1463028Y304563D01*
X1461432Y303641D01*
X1460129Y302338D01*
X1459207Y300742D01*
X1458730Y298962D01*
Y297118D01*
X1459207Y295338D01*
X1460129Y293742D01*
X1461432Y292439D01*
X1463028Y291517D01*
X1464808Y291040D01*
X1466652D01*
X1468432Y291517D01*
X1470028Y292439D01*
X1471331Y293742D01*
X1472253Y295338D01*
X1472730Y297118D01*
Y298962D01*
X1472253Y300742D01*
X1471331Y302338D01*
X1470028Y303641D01*
X1468432Y304563D01*
X1466652Y305040D01*
D02*
G37*
G36*
X1295922D02*
X1294078D01*
X1292298Y304563D01*
X1290702Y303641D01*
X1289399Y302338D01*
X1288477Y300742D01*
X1288000Y298962D01*
Y297118D01*
X1288477Y295338D01*
X1289399Y293742D01*
X1290702Y292439D01*
X1292298Y291517D01*
X1294078Y291040D01*
X1295922D01*
X1297702Y291517D01*
X1299298Y292439D01*
X1300601Y293742D01*
X1301523Y295338D01*
X1302000Y297118D01*
Y298962D01*
X1301523Y300742D01*
X1300601Y302338D01*
X1299298Y303641D01*
X1297702Y304563D01*
X1295922Y305040D01*
D02*
G37*
G36*
X1125192D02*
X1123348D01*
X1121568Y304563D01*
X1119972Y303641D01*
X1118669Y302338D01*
X1117747Y300742D01*
X1117270Y298962D01*
Y297118D01*
X1117747Y295338D01*
X1118669Y293742D01*
X1119972Y292439D01*
X1121568Y291517D01*
X1123348Y291040D01*
X1125192D01*
X1126972Y291517D01*
X1128568Y292439D01*
X1129871Y293742D01*
X1130793Y295338D01*
X1131270Y297118D01*
Y298962D01*
X1130793Y300742D01*
X1129871Y302338D01*
X1128568Y303641D01*
X1126972Y304563D01*
X1125192Y305040D01*
D02*
G37*
G36*
X954462D02*
X952618D01*
X950838Y304563D01*
X949242Y303641D01*
X947939Y302338D01*
X947017Y300742D01*
X946540Y298962D01*
Y297118D01*
X947017Y295338D01*
X947939Y293742D01*
X949242Y292439D01*
X950838Y291517D01*
X952618Y291040D01*
X954462D01*
X956242Y291517D01*
X957838Y292439D01*
X959141Y293742D01*
X960063Y295338D01*
X960540Y297118D01*
Y298962D01*
X960063Y300742D01*
X959141Y302338D01*
X957838Y303641D01*
X956242Y304563D01*
X954462Y305040D01*
D02*
G37*
G36*
X783722D02*
X781878D01*
X780098Y304563D01*
X778502Y303641D01*
X777199Y302338D01*
X776277Y300742D01*
X775800Y298962D01*
Y297118D01*
X776277Y295338D01*
X777199Y293742D01*
X778502Y292439D01*
X780098Y291517D01*
X781878Y291040D01*
X783722D01*
X785502Y291517D01*
X787098Y292439D01*
X788401Y293742D01*
X789323Y295338D01*
X789800Y297118D01*
Y298962D01*
X789323Y300742D01*
X788401Y302338D01*
X787098Y303641D01*
X785502Y304563D01*
X783722Y305040D01*
D02*
G37*
G36*
X612992D02*
X611148D01*
X609368Y304563D01*
X607772Y303641D01*
X606469Y302338D01*
X605547Y300742D01*
X605070Y298962D01*
Y297118D01*
X605547Y295338D01*
X606469Y293742D01*
X607772Y292439D01*
X609368Y291517D01*
X611148Y291040D01*
X612992D01*
X614772Y291517D01*
X616368Y292439D01*
X617671Y293742D01*
X618593Y295338D01*
X619070Y297118D01*
Y298962D01*
X618593Y300742D01*
X617671Y302338D01*
X616368Y303641D01*
X614772Y304563D01*
X612992Y305040D01*
D02*
G37*
G36*
X442262D02*
X440418D01*
X438638Y304563D01*
X437042Y303641D01*
X435739Y302338D01*
X434817Y300742D01*
X434340Y298962D01*
Y297118D01*
X434817Y295338D01*
X435739Y293742D01*
X437042Y292439D01*
X438638Y291517D01*
X440418Y291040D01*
X442262D01*
X444042Y291517D01*
X445638Y292439D01*
X446941Y293742D01*
X447863Y295338D01*
X448340Y297118D01*
Y298962D01*
X447863Y300742D01*
X446941Y302338D01*
X445638Y303641D01*
X444042Y304563D01*
X442262Y305040D01*
D02*
G37*
G36*
X226162D02*
X224318D01*
X222538Y304563D01*
X220942Y303641D01*
X219639Y302338D01*
X218717Y300742D01*
X218240Y298962D01*
Y297118D01*
X218717Y295338D01*
X219639Y293742D01*
X220942Y292439D01*
X222538Y291517D01*
X224318Y291040D01*
X226162D01*
X227942Y291517D01*
X229538Y292439D01*
X230841Y293742D01*
X231763Y295338D01*
X232240Y297118D01*
Y298962D01*
X231763Y300742D01*
X230841Y302338D01*
X229538Y303641D01*
X227942Y304563D01*
X226162Y305040D01*
D02*
G37*
G36*
X2574995Y298000D02*
X2573005D01*
X2571168Y297239D01*
X2569761Y295832D01*
X2569000Y293995D01*
Y292005D01*
X2569761Y290168D01*
X2571168Y288761D01*
X2573005Y288000D01*
X2574995D01*
X2576832Y288761D01*
X2578239Y290168D01*
X2579000Y292005D01*
Y293995D01*
X2578239Y295832D01*
X2576832Y297239D01*
X2574995Y298000D01*
D02*
G37*
G36*
X1544995D02*
X1543005D01*
X1541168Y297239D01*
X1539761Y295832D01*
X1539000Y293995D01*
Y292005D01*
X1539761Y290168D01*
X1541168Y288761D01*
X1543005Y288000D01*
X1544995D01*
X1546832Y288761D01*
X1548239Y290168D01*
X1549000Y292005D01*
Y293995D01*
X1548239Y295832D01*
X1546832Y297239D01*
X1544995Y298000D01*
D02*
G37*
G36*
X1091941Y288144D02*
X1089952D01*
X1088114Y287383D01*
X1086708Y285977D01*
X1085946Y284139D01*
Y282150D01*
X1086708Y280312D01*
X1088114Y278906D01*
X1089952Y278144D01*
X1091941D01*
X1093779Y278906D01*
X1095185Y280312D01*
X1095946Y282150D01*
Y284139D01*
X1095185Y285977D01*
X1093779Y287383D01*
X1091941Y288144D01*
D02*
G37*
G36*
X408690Y287285D02*
X406701D01*
X404863Y286524D01*
X403456Y285117D01*
X402695Y283279D01*
Y281290D01*
X403456Y279453D01*
X404863Y278046D01*
X406701Y277285D01*
X408690D01*
X410528Y278046D01*
X411934Y279453D01*
X412695Y281290D01*
Y283279D01*
X411934Y285117D01*
X410528Y286524D01*
X408690Y287285D01*
D02*
G37*
G36*
X192835Y287055D02*
X190846D01*
X189008Y286294D01*
X187601Y284888D01*
X186840Y283050D01*
Y281061D01*
X187601Y279223D01*
X189008Y277817D01*
X190846Y277055D01*
X192835D01*
X194672Y277817D01*
X196079Y279223D01*
X196840Y281061D01*
Y283050D01*
X196079Y284888D01*
X194672Y286294D01*
X192835Y287055D01*
D02*
G37*
G36*
X2413076Y287040D02*
X2411087D01*
X2409249Y286279D01*
X2407843Y284872D01*
X2407081Y283035D01*
Y281045D01*
X2407843Y279208D01*
X2409249Y277801D01*
X2411087Y277040D01*
X2413076D01*
X2414913Y277801D01*
X2416320Y279208D01*
X2417081Y281045D01*
Y283035D01*
X2416320Y284872D01*
X2414913Y286279D01*
X2413076Y287040D01*
D02*
G37*
G36*
X2116248D02*
X2114259D01*
X2112421Y286279D01*
X2111014Y284872D01*
X2110253Y283035D01*
Y281045D01*
X2111014Y279208D01*
X2112421Y277801D01*
X2114259Y277040D01*
X2116248D01*
X2118085Y277801D01*
X2119492Y279208D01*
X2120253Y281045D01*
Y283035D01*
X2119492Y284872D01*
X2118085Y286279D01*
X2116248Y287040D01*
D02*
G37*
G36*
X1945817D02*
X1943828D01*
X1941990Y286279D01*
X1940584Y284872D01*
X1939823Y283035D01*
Y281045D01*
X1940584Y279208D01*
X1941990Y277801D01*
X1943828Y277040D01*
X1945817D01*
X1947655Y277801D01*
X1949061Y279208D01*
X1949823Y281045D01*
Y283035D01*
X1949061Y284872D01*
X1947655Y286279D01*
X1945817Y287040D01*
D02*
G37*
G36*
X1603701D02*
X1601712D01*
X1599875Y286279D01*
X1598468Y284872D01*
X1597707Y283035D01*
Y281045D01*
X1598468Y279208D01*
X1599875Y277801D01*
X1601712Y277040D01*
X1603701D01*
X1605539Y277801D01*
X1606946Y279208D01*
X1607707Y281045D01*
Y283035D01*
X1606946Y284872D01*
X1605539Y286279D01*
X1603701Y287040D01*
D02*
G37*
G36*
X1432801D02*
X1430812D01*
X1428975Y286279D01*
X1427568Y284872D01*
X1426807Y283035D01*
Y281045D01*
X1427568Y279208D01*
X1428975Y277801D01*
X1430812Y277040D01*
X1432801D01*
X1434639Y277801D01*
X1436046Y279208D01*
X1436807Y281045D01*
Y283035D01*
X1436046Y284872D01*
X1434639Y286279D01*
X1432801Y287040D01*
D02*
G37*
G36*
X920857D02*
X918868D01*
X917031Y286279D01*
X915624Y284872D01*
X914863Y283035D01*
Y281045D01*
X915624Y279208D01*
X917031Y277801D01*
X918868Y277040D01*
X920857D01*
X922695Y277801D01*
X924102Y279208D01*
X924863Y281045D01*
Y283035D01*
X924102Y284872D01*
X922695Y286279D01*
X920857Y287040D01*
D02*
G37*
G36*
X750395D02*
X748406D01*
X746568Y286279D01*
X745162Y284872D01*
X744400Y283035D01*
Y281045D01*
X745162Y279208D01*
X746568Y277801D01*
X748406Y277040D01*
X750395D01*
X752233Y277801D01*
X753639Y279208D01*
X754400Y281045D01*
Y283035D01*
X753639Y284872D01*
X752233Y286279D01*
X750395Y287040D01*
D02*
G37*
G36*
X579640D02*
X577651D01*
X575813Y286279D01*
X574406Y284872D01*
X573645Y283035D01*
Y281045D01*
X574406Y279208D01*
X575813Y277801D01*
X577651Y277040D01*
X579640D01*
X581478Y277801D01*
X582884Y279208D01*
X583645Y281045D01*
Y283035D01*
X582884Y284872D01*
X581478Y286279D01*
X579640Y287040D01*
D02*
G37*
G36*
X1774792Y286509D02*
X1772803D01*
X1770965Y285748D01*
X1769559Y284342D01*
X1768797Y282504D01*
Y280515D01*
X1769559Y278677D01*
X1770965Y277270D01*
X1772803Y276509D01*
X1774792D01*
X1776630Y277270D01*
X1778036Y278677D01*
X1778797Y280515D01*
Y282504D01*
X1778036Y284342D01*
X1776630Y285748D01*
X1774792Y286509D01*
D02*
G37*
G36*
X1261959Y285862D02*
X1259970D01*
X1258132Y285101D01*
X1256726Y283694D01*
X1255965Y281857D01*
Y279868D01*
X1256726Y278030D01*
X1258132Y276623D01*
X1259970Y275862D01*
X1261959D01*
X1263797Y276623D01*
X1265203Y278030D01*
X1265965Y279868D01*
Y281857D01*
X1265203Y283694D01*
X1263797Y285101D01*
X1261959Y285862D01*
D02*
G37*
G36*
X2330013Y249040D02*
X2327626D01*
X2325421Y248127D01*
X2323733Y246439D01*
X2322820Y244233D01*
Y241847D01*
X2323733Y239641D01*
X2325421Y237953D01*
X2327626Y237040D01*
X2330013D01*
X2332219Y237953D01*
X2333907Y239641D01*
X2334820Y241847D01*
Y244233D01*
X2333907Y246439D01*
X2332219Y248127D01*
X2330013Y249040D01*
D02*
G37*
G36*
X2033864D02*
X2031476D01*
X2029271Y248127D01*
X2027583Y246439D01*
X2026670Y244233D01*
Y241847D01*
X2027583Y239641D01*
X2029271Y237953D01*
X2031476Y237040D01*
X2033864D01*
X2036069Y237953D01*
X2037757Y239641D01*
X2038670Y241847D01*
Y244233D01*
X2037757Y246439D01*
X2036069Y248127D01*
X2033864Y249040D01*
D02*
G37*
G36*
X1863123D02*
X1860737D01*
X1858531Y248127D01*
X1856843Y246439D01*
X1855930Y244233D01*
Y241847D01*
X1856843Y239641D01*
X1858531Y237953D01*
X1860737Y237040D01*
X1863123D01*
X1865329Y237953D01*
X1867016Y239641D01*
X1867930Y241847D01*
Y244233D01*
X1867016Y246439D01*
X1865329Y248127D01*
X1863123Y249040D01*
D02*
G37*
G36*
X1692393D02*
X1690007D01*
X1687801Y248127D01*
X1686113Y246439D01*
X1685200Y244233D01*
Y241847D01*
X1686113Y239641D01*
X1687801Y237953D01*
X1690007Y237040D01*
X1692393D01*
X1694599Y237953D01*
X1696286Y239641D01*
X1697200Y241847D01*
Y244233D01*
X1696286Y246439D01*
X1694599Y248127D01*
X1692393Y249040D01*
D02*
G37*
G36*
X1521664D02*
X1519276D01*
X1517071Y248127D01*
X1515383Y246439D01*
X1514470Y244233D01*
Y241847D01*
X1515383Y239641D01*
X1517071Y237953D01*
X1519276Y237040D01*
X1521664D01*
X1523869Y237953D01*
X1525556Y239641D01*
X1526470Y241847D01*
Y244233D01*
X1525556Y246439D01*
X1523869Y248127D01*
X1521664Y249040D01*
D02*
G37*
G36*
X1350923D02*
X1348537D01*
X1346331Y248127D01*
X1344643Y246439D01*
X1343730Y244233D01*
Y241847D01*
X1344643Y239641D01*
X1346331Y237953D01*
X1348537Y237040D01*
X1350923D01*
X1353129Y237953D01*
X1354816Y239641D01*
X1355730Y241847D01*
Y244233D01*
X1354816Y246439D01*
X1353129Y248127D01*
X1350923Y249040D01*
D02*
G37*
G36*
X1180193D02*
X1177806D01*
X1175601Y248127D01*
X1173913Y246439D01*
X1173000Y244233D01*
Y241847D01*
X1173913Y239641D01*
X1175601Y237953D01*
X1177806Y237040D01*
X1180193D01*
X1182399Y237953D01*
X1184087Y239641D01*
X1185000Y241847D01*
Y244233D01*
X1184087Y246439D01*
X1182399Y248127D01*
X1180193Y249040D01*
D02*
G37*
G36*
X1009464D02*
X1007076D01*
X1004871Y248127D01*
X1003183Y246439D01*
X1002270Y244233D01*
Y241847D01*
X1003183Y239641D01*
X1004871Y237953D01*
X1007076Y237040D01*
X1009464D01*
X1011669Y237953D01*
X1013356Y239641D01*
X1014270Y241847D01*
Y244233D01*
X1013356Y246439D01*
X1011669Y248127D01*
X1009464Y249040D01*
D02*
G37*
G36*
X838734D02*
X836347D01*
X834141Y248127D01*
X832453Y246439D01*
X831540Y244233D01*
Y241847D01*
X832453Y239641D01*
X834141Y237953D01*
X836347Y237040D01*
X838734D01*
X840939Y237953D01*
X842626Y239641D01*
X843540Y241847D01*
Y244233D01*
X842626Y246439D01*
X840939Y248127D01*
X838734Y249040D01*
D02*
G37*
G36*
X667993D02*
X665607D01*
X663401Y248127D01*
X661713Y246439D01*
X660800Y244233D01*
Y241847D01*
X661713Y239641D01*
X663401Y237953D01*
X665607Y237040D01*
X667993D01*
X670199Y237953D01*
X671887Y239641D01*
X672800Y241847D01*
Y244233D01*
X671887Y246439D01*
X670199Y248127D01*
X667993Y249040D01*
D02*
G37*
G36*
X497263D02*
X494877D01*
X492671Y248127D01*
X490983Y246439D01*
X490070Y244233D01*
Y241847D01*
X490983Y239641D01*
X492671Y237953D01*
X494877Y237040D01*
X497263D01*
X499469Y237953D01*
X501157Y239641D01*
X502070Y241847D01*
Y244233D01*
X501157Y246439D01*
X499469Y248127D01*
X497263Y249040D01*
D02*
G37*
G36*
X326534D02*
X324146D01*
X321941Y248127D01*
X320253Y246439D01*
X319340Y244233D01*
Y241847D01*
X320253Y239641D01*
X321941Y237953D01*
X324146Y237040D01*
X326534D01*
X328739Y237953D01*
X330426Y239641D01*
X331340Y241847D01*
Y244233D01*
X330426Y246439D01*
X328739Y248127D01*
X326534Y249040D01*
D02*
G37*
G36*
X110434D02*
X108047D01*
X105841Y248127D01*
X104153Y246439D01*
X103240Y244233D01*
Y241847D01*
X104153Y239641D01*
X105841Y237953D01*
X108047Y237040D01*
X110434D01*
X112639Y237953D01*
X114326Y239641D01*
X115240Y241847D01*
Y244233D01*
X114326Y246439D01*
X112639Y248127D01*
X110434Y249040D01*
D02*
G37*
G36*
X2421570Y256040D02*
X2402070D01*
Y230040D01*
X2421570D01*
Y256040D01*
D02*
G37*
G36*
X2371570D02*
X2352070D01*
Y230040D01*
X2371570D01*
Y256040D01*
D02*
G37*
G36*
X2125420D02*
X2105920D01*
Y230040D01*
X2125420D01*
Y256040D01*
D02*
G37*
G36*
X2075420D02*
X2055920D01*
Y230040D01*
X2075420D01*
Y256040D01*
D02*
G37*
G36*
X1954680D02*
X1935180D01*
Y230040D01*
X1954680D01*
Y256040D01*
D02*
G37*
G36*
X1904680D02*
X1885180D01*
Y230040D01*
X1904680D01*
Y256040D01*
D02*
G37*
G36*
X1783950D02*
X1764450D01*
Y230040D01*
X1783950D01*
Y256040D01*
D02*
G37*
G36*
X1733950D02*
X1714450D01*
Y230040D01*
X1733950D01*
Y256040D01*
D02*
G37*
G36*
X1613220D02*
X1593720D01*
Y230040D01*
X1613220D01*
Y256040D01*
D02*
G37*
G36*
X1563220D02*
X1543720D01*
Y230040D01*
X1563220D01*
Y256040D01*
D02*
G37*
G36*
X1442480D02*
X1422980D01*
Y230040D01*
X1442480D01*
Y256040D01*
D02*
G37*
G36*
X1392480D02*
X1372980D01*
Y230040D01*
X1392480D01*
Y256040D01*
D02*
G37*
G36*
X1271750D02*
X1252250D01*
Y230040D01*
X1271750D01*
Y256040D01*
D02*
G37*
G36*
X1221750D02*
X1202250D01*
Y230040D01*
X1221750D01*
Y256040D01*
D02*
G37*
G36*
X1101020D02*
X1081520D01*
Y230040D01*
X1101020D01*
Y256040D01*
D02*
G37*
G36*
X1051020D02*
X1031520D01*
Y230040D01*
X1051020D01*
Y256040D01*
D02*
G37*
G36*
X930290D02*
X910790D01*
Y230040D01*
X930290D01*
Y256040D01*
D02*
G37*
G36*
X880290D02*
X860790D01*
Y230040D01*
X880290D01*
Y256040D01*
D02*
G37*
G36*
X759550D02*
X740050D01*
Y230040D01*
X759550D01*
Y256040D01*
D02*
G37*
G36*
X709550D02*
X690050D01*
Y230040D01*
X709550D01*
Y256040D01*
D02*
G37*
G36*
X588820D02*
X569320D01*
Y230040D01*
X588820D01*
Y256040D01*
D02*
G37*
G36*
X538820D02*
X519320D01*
Y230040D01*
X538820D01*
Y256040D01*
D02*
G37*
G36*
X418090D02*
X398590D01*
Y230040D01*
X418090D01*
Y256040D01*
D02*
G37*
G36*
X368090D02*
X348590D01*
Y230040D01*
X368090D01*
Y256040D01*
D02*
G37*
G36*
X201990D02*
X182490D01*
Y230040D01*
X201990D01*
Y256040D01*
D02*
G37*
G36*
X151990D02*
X132490D01*
Y230040D01*
X151990D01*
Y256040D01*
D02*
G37*
G36*
X1278995Y228000D02*
X1277005D01*
X1275168Y227239D01*
X1273761Y225832D01*
X1273000Y223995D01*
Y222005D01*
X1273761Y220168D01*
X1275168Y218761D01*
X1277005Y218000D01*
X1278995D01*
X1280832Y218761D01*
X1282239Y220168D01*
X1283000Y222005D01*
Y223995D01*
X1282239Y225832D01*
X1280832Y227239D01*
X1278995Y228000D01*
D02*
G37*
G36*
X2462320Y222540D02*
X2438320D01*
Y198540D01*
X2462320D01*
Y222540D01*
D02*
G37*
G36*
X2335320D02*
X2311320D01*
Y198540D01*
X2335320D01*
Y222540D01*
D02*
G37*
G36*
X2166170D02*
X2142170D01*
Y198540D01*
X2166170D01*
Y222540D01*
D02*
G37*
G36*
X2039170D02*
X2015170D01*
Y198540D01*
X2039170D01*
Y222540D01*
D02*
G37*
G36*
X1995430D02*
X1971430D01*
Y198540D01*
X1995430D01*
Y222540D01*
D02*
G37*
G36*
X1868430D02*
X1844430D01*
Y198540D01*
X1868430D01*
Y222540D01*
D02*
G37*
G36*
X1824700D02*
X1800700D01*
Y198540D01*
X1824700D01*
Y222540D01*
D02*
G37*
G36*
X1697700D02*
X1673700D01*
Y198540D01*
X1697700D01*
Y222540D01*
D02*
G37*
G36*
X1653970D02*
X1629970D01*
Y198540D01*
X1653970D01*
Y222540D01*
D02*
G37*
G36*
X1526970D02*
X1502970D01*
Y198540D01*
X1526970D01*
Y222540D01*
D02*
G37*
G36*
X1483230D02*
X1459230D01*
Y198540D01*
X1483230D01*
Y222540D01*
D02*
G37*
G36*
X1356230D02*
X1332230D01*
Y198540D01*
X1356230D01*
Y222540D01*
D02*
G37*
G36*
X1312500D02*
X1288500D01*
Y198540D01*
X1312500D01*
Y222540D01*
D02*
G37*
G36*
X1185500D02*
X1161500D01*
Y198540D01*
X1185500D01*
Y222540D01*
D02*
G37*
G36*
X1141770D02*
X1117770D01*
Y198540D01*
X1141770D01*
Y222540D01*
D02*
G37*
G36*
X1014770D02*
X990770D01*
Y198540D01*
X1014770D01*
Y222540D01*
D02*
G37*
G36*
X971040D02*
X947040D01*
Y198540D01*
X971040D01*
Y222540D01*
D02*
G37*
G36*
X844040D02*
X820040D01*
Y198540D01*
X844040D01*
Y222540D01*
D02*
G37*
G36*
X800300D02*
X776300D01*
Y198540D01*
X800300D01*
Y222540D01*
D02*
G37*
G36*
X673300D02*
X649300D01*
Y198540D01*
X673300D01*
Y222540D01*
D02*
G37*
G36*
X629570D02*
X605570D01*
Y198540D01*
X629570D01*
Y222540D01*
D02*
G37*
G36*
X502570D02*
X478570D01*
Y198540D01*
X502570D01*
Y222540D01*
D02*
G37*
G36*
X458840D02*
X434840D01*
Y198540D01*
X458840D01*
Y222540D01*
D02*
G37*
G36*
X331840D02*
X307840D01*
Y198540D01*
X331840D01*
Y222540D01*
D02*
G37*
G36*
X242740D02*
X218740D01*
Y198540D01*
X242740D01*
Y222540D01*
D02*
G37*
G36*
X115740D02*
X91740D01*
Y198540D01*
X115740D01*
Y222540D01*
D02*
G37*
G36*
X1098995Y193000D02*
X1097005D01*
X1095168Y192239D01*
X1093761Y190832D01*
X1093000Y188995D01*
Y187899D01*
X1091000Y187071D01*
X1090832Y187239D01*
X1088995Y188000D01*
X1087005D01*
X1085168Y187239D01*
X1083761Y185832D01*
X1083000Y183995D01*
Y182005D01*
X1083761Y180168D01*
X1085168Y178761D01*
X1087005Y178000D01*
X1088995D01*
X1090832Y178761D01*
X1092239Y180168D01*
X1093000Y182005D01*
Y183100D01*
X1095000Y183929D01*
X1095168Y183761D01*
X1097005Y183000D01*
X1098995D01*
X1100832Y183761D01*
X1102239Y185168D01*
X1103000Y187005D01*
Y188995D01*
X1102239Y190832D01*
X1100832Y192239D01*
X1098995Y193000D01*
D02*
G37*
G36*
X98995Y188000D02*
X97005D01*
X95168Y187239D01*
X93761Y185832D01*
X93000Y183995D01*
Y182005D01*
X93761Y180168D01*
X95168Y178761D01*
X97005Y178000D01*
X98995D01*
X100832Y178761D01*
X102239Y180168D01*
X103000Y182005D01*
Y183995D01*
X102239Y185832D01*
X100832Y187239D01*
X98995Y188000D01*
D02*
G37*
G36*
X1239664Y185737D02*
X1237675D01*
X1235838Y184975D01*
X1234431Y183569D01*
X1233670Y181731D01*
Y179742D01*
X1234431Y177904D01*
X1235838Y176498D01*
X1237675Y175737D01*
X1239664D01*
X1241502Y176498D01*
X1242909Y177904D01*
X1243670Y179742D01*
Y181731D01*
X1242909Y183569D01*
X1241502Y184975D01*
X1239664Y185737D01*
D02*
G37*
G36*
X1200995Y183000D02*
X1199005D01*
X1197168Y182239D01*
X1195761Y180832D01*
X1195000Y178995D01*
Y177005D01*
X1195761Y175168D01*
X1197168Y173761D01*
X1199005Y173000D01*
X1200995D01*
X1202832Y173761D01*
X1204239Y175168D01*
X1205000Y177005D01*
Y178995D01*
X1204239Y180832D01*
X1202832Y182239D01*
X1200995Y183000D01*
D02*
G37*
G36*
X996506Y173469D02*
X994516D01*
X992679Y172708D01*
X991272Y171301D01*
X990511Y169463D01*
Y167474D01*
X991272Y165636D01*
X992679Y164230D01*
X994516Y163469D01*
X996506D01*
X998343Y164230D01*
X999750Y165636D01*
X1000511Y167474D01*
Y169463D01*
X999750Y171301D01*
X998343Y172708D01*
X996506Y173469D01*
D02*
G37*
G36*
X1047229Y169765D02*
X1045240D01*
X1043402Y169004D01*
X1041996Y167598D01*
X1041235Y165760D01*
Y163771D01*
X1041996Y161933D01*
X1043402Y160527D01*
X1045240Y159765D01*
X1047229D01*
X1049067Y160527D01*
X1050473Y161933D01*
X1051235Y163771D01*
Y165760D01*
X1050473Y167598D01*
X1049067Y169004D01*
X1047229Y169765D01*
D02*
G37*
G36*
X962995Y164000D02*
X961005D01*
X959168Y163239D01*
X957761Y161832D01*
X957000Y159995D01*
Y158005D01*
X957761Y156168D01*
X959168Y154761D01*
X961005Y154000D01*
X962995D01*
X964832Y154761D01*
X966239Y156168D01*
X967000Y158005D01*
Y159995D01*
X966239Y161832D01*
X964832Y163239D01*
X962995Y164000D01*
D02*
G37*
G36*
X836995Y160000D02*
X835005D01*
X833168Y159239D01*
X831761Y157832D01*
X831000Y155995D01*
Y154005D01*
X831761Y152168D01*
X833168Y150761D01*
X835005Y150000D01*
X836995D01*
X838832Y150761D01*
X840239Y152168D01*
X841000Y154005D01*
Y155995D01*
X840239Y157832D01*
X838832Y159239D01*
X836995Y160000D01*
D02*
G37*
G36*
X1093512Y159250D02*
X1091523D01*
X1089686Y158489D01*
X1088279Y157082D01*
X1087518Y155245D01*
Y153255D01*
X1088279Y151418D01*
X1089686Y150011D01*
X1091523Y149250D01*
X1093512D01*
X1095350Y150011D01*
X1096757Y151418D01*
X1097518Y153255D01*
Y155245D01*
X1096757Y157082D01*
X1095350Y158489D01*
X1093512Y159250D01*
D02*
G37*
G36*
X2460680Y171800D02*
X2436680D01*
Y147800D01*
X2460680D01*
Y171800D01*
D02*
G37*
G36*
X2416950D02*
X2392950D01*
Y147800D01*
X2416950D01*
Y171800D01*
D02*
G37*
G36*
X2289950D02*
X2265950D01*
Y147800D01*
X2289950D01*
Y171800D01*
D02*
G37*
G36*
X2246220D02*
X2222220D01*
Y147800D01*
X2246220D01*
Y171800D01*
D02*
G37*
G36*
X2119220D02*
X2095220D01*
Y147800D01*
X2119220D01*
Y171800D01*
D02*
G37*
G36*
X2075490D02*
X2051490D01*
Y147800D01*
X2075490D01*
Y171800D01*
D02*
G37*
G36*
X1948490D02*
X1924490D01*
Y147800D01*
X1948490D01*
Y171800D01*
D02*
G37*
G36*
X1904750D02*
X1880750D01*
Y147800D01*
X1904750D01*
Y171800D01*
D02*
G37*
G36*
X1777750D02*
X1753750D01*
Y147800D01*
X1777750D01*
Y171800D01*
D02*
G37*
G36*
X1734020D02*
X1710020D01*
Y147800D01*
X1734020D01*
Y171800D01*
D02*
G37*
G36*
X1607020D02*
X1583020D01*
Y147800D01*
X1607020D01*
Y171800D01*
D02*
G37*
G36*
X1561790D02*
X1537790D01*
Y147800D01*
X1561790D01*
Y171800D01*
D02*
G37*
G36*
X1434790D02*
X1410790D01*
Y147800D01*
X1434790D01*
Y171800D01*
D02*
G37*
G36*
X881790D02*
X857790D01*
Y147800D01*
X881790D01*
Y171800D01*
D02*
G37*
G36*
X754790D02*
X730790D01*
Y147800D01*
X754790D01*
Y171800D01*
D02*
G37*
G36*
X709570D02*
X685570D01*
Y147800D01*
X709570D01*
Y171800D01*
D02*
G37*
G36*
X582570D02*
X558570D01*
Y147800D01*
X582570D01*
Y171800D01*
D02*
G37*
G36*
X538840D02*
X514840D01*
Y147800D01*
X538840D01*
Y171800D01*
D02*
G37*
G36*
X411840D02*
X387840D01*
Y147800D01*
X411840D01*
Y171800D01*
D02*
G37*
G36*
X368100D02*
X344100D01*
Y147800D01*
X368100D01*
Y171800D01*
D02*
G37*
G36*
X241100D02*
X217100D01*
Y147800D01*
X241100D01*
Y171800D01*
D02*
G37*
G36*
X197370D02*
X173370D01*
Y147800D01*
X197370D01*
Y171800D01*
D02*
G37*
G36*
X767995Y152000D02*
X766005D01*
X764168Y151239D01*
X762761Y149832D01*
X762000Y147995D01*
Y146005D01*
X762761Y144168D01*
X764168Y142761D01*
X766005Y142000D01*
X767995D01*
X769832Y142761D01*
X771239Y144168D01*
X772000Y146005D01*
Y147995D01*
X771239Y149832D01*
X769832Y151239D01*
X767995Y152000D01*
D02*
G37*
G36*
X896995Y151000D02*
X895005D01*
X893168Y150239D01*
X891761Y148832D01*
X891000Y146994D01*
Y145005D01*
X891761Y143168D01*
X893168Y141761D01*
X895005Y141000D01*
X896995D01*
X898832Y141761D01*
X900239Y143168D01*
X901000Y145005D01*
Y146994D01*
X900239Y148832D01*
X898832Y150239D01*
X896995Y151000D01*
D02*
G37*
G36*
X850995Y147000D02*
X849005D01*
X847168Y146239D01*
X845761Y144832D01*
X845000Y142995D01*
Y141005D01*
X845761Y139168D01*
X847168Y137761D01*
X849005Y137000D01*
X850995D01*
X852832Y137761D01*
X854239Y139168D01*
X855000Y141005D01*
Y142995D01*
X854239Y144832D01*
X852832Y146239D01*
X850995Y147000D01*
D02*
G37*
G36*
X1055995Y139000D02*
X1054006D01*
X1052168Y138239D01*
X1050761Y136832D01*
X1050000Y134995D01*
Y133005D01*
X1050761Y131168D01*
X1052168Y129761D01*
X1054006Y129000D01*
X1055995D01*
X1057832Y129761D01*
X1059239Y131168D01*
X1060000Y133005D01*
Y134995D01*
X1059239Y136832D01*
X1057832Y138239D01*
X1055995Y139000D01*
D02*
G37*
G36*
X1007995D02*
X1006005D01*
X1004168Y138239D01*
X1002761Y136832D01*
X1002000Y134995D01*
Y133005D01*
X1002761Y131168D01*
X1004168Y129761D01*
X1006005Y129000D01*
X1007995D01*
X1009832Y129761D01*
X1011239Y131168D01*
X1012000Y133005D01*
Y134995D01*
X1011239Y136832D01*
X1009832Y138239D01*
X1007995Y139000D01*
D02*
G37*
G36*
X1090995Y134000D02*
X1089005D01*
X1087168Y133239D01*
X1085761Y131832D01*
X1085000Y129995D01*
Y128005D01*
X1085585Y126594D01*
X1084667Y125307D01*
X1084253Y124981D01*
X1083935Y125112D01*
X1081946D01*
X1080108Y124351D01*
X1078702Y122945D01*
X1077940Y121107D01*
Y119118D01*
X1078702Y117280D01*
X1079302Y116679D01*
X1079757Y115160D01*
X1079247Y114122D01*
X1078473Y113347D01*
X1077711Y111509D01*
Y109520D01*
X1078473Y107682D01*
X1079879Y106276D01*
X1081717Y105515D01*
X1083706D01*
X1085544Y106276D01*
X1086950Y107682D01*
X1087711Y109520D01*
Y111509D01*
X1086950Y113347D01*
X1086349Y113948D01*
X1085894Y115467D01*
X1086405Y116506D01*
X1087179Y117280D01*
X1087940Y119118D01*
Y121107D01*
X1087356Y122519D01*
X1088273Y123806D01*
X1088688Y124132D01*
X1089005Y124000D01*
X1090995D01*
X1092832Y124761D01*
X1094239Y126168D01*
X1095000Y128005D01*
Y129995D01*
X1094239Y131832D01*
X1092832Y133239D01*
X1090995Y134000D01*
D02*
G37*
G36*
X921995Y138000D02*
X920005D01*
X918168Y137239D01*
X916761Y135832D01*
X916273Y134653D01*
X916000Y133995D01*
X914067Y132805D01*
X913985D01*
X912147Y132044D01*
X910740Y130637D01*
X909979Y128799D01*
Y126810D01*
X910740Y124972D01*
X912147Y123566D01*
X913985Y122805D01*
X915974D01*
X917811Y123566D01*
X919218Y124972D01*
X919707Y126152D01*
X919979Y126810D01*
X921912Y128000D01*
X921995D01*
X923832Y128761D01*
X925239Y130168D01*
X926000Y132005D01*
Y133995D01*
X925239Y135832D01*
X923832Y137239D01*
X921995Y138000D01*
D02*
G37*
G36*
X2571102Y134300D02*
X2569258D01*
X2567478Y133823D01*
X2565882Y132901D01*
X2564579Y131598D01*
X2563657Y130002D01*
X2563180Y128222D01*
Y126378D01*
X2563657Y124598D01*
X2564579Y123002D01*
X2565882Y121699D01*
X2567478Y120777D01*
X2569258Y120300D01*
X2571102D01*
X2572882Y120777D01*
X2574478Y121699D01*
X2575781Y123002D01*
X2576703Y124598D01*
X2577180Y126378D01*
Y128222D01*
X2576703Y130002D01*
X2575781Y131598D01*
X2574478Y132901D01*
X2572882Y133823D01*
X2571102Y134300D01*
D02*
G37*
G36*
X2400372D02*
X2398528D01*
X2396748Y133823D01*
X2395152Y132901D01*
X2393849Y131598D01*
X2392927Y130002D01*
X2392450Y128222D01*
Y126378D01*
X2392927Y124598D01*
X2393849Y123002D01*
X2395152Y121699D01*
X2396748Y120777D01*
X2398528Y120300D01*
X2400372D01*
X2402152Y120777D01*
X2403748Y121699D01*
X2405051Y123002D01*
X2405973Y124598D01*
X2406450Y126378D01*
Y128222D01*
X2405973Y130002D01*
X2405051Y131598D01*
X2403748Y132901D01*
X2402152Y133823D01*
X2400372Y134300D01*
D02*
G37*
G36*
X2229642D02*
X2227798D01*
X2226018Y133823D01*
X2224422Y132901D01*
X2223119Y131598D01*
X2222197Y130002D01*
X2221720Y128222D01*
Y126378D01*
X2222197Y124598D01*
X2223119Y123002D01*
X2224422Y121699D01*
X2226018Y120777D01*
X2227798Y120300D01*
X2229642D01*
X2231422Y120777D01*
X2233018Y121699D01*
X2234321Y123002D01*
X2235243Y124598D01*
X2235720Y126378D01*
Y128222D01*
X2235243Y130002D01*
X2234321Y131598D01*
X2233018Y132901D01*
X2231422Y133823D01*
X2229642Y134300D01*
D02*
G37*
G36*
X2058912D02*
X2057068D01*
X2055288Y133823D01*
X2053692Y132901D01*
X2052389Y131598D01*
X2051467Y130002D01*
X2050990Y128222D01*
Y126378D01*
X2051467Y124598D01*
X2052389Y123002D01*
X2053692Y121699D01*
X2055288Y120777D01*
X2057068Y120300D01*
X2058912D01*
X2060692Y120777D01*
X2062288Y121699D01*
X2063591Y123002D01*
X2064513Y124598D01*
X2064990Y126378D01*
Y128222D01*
X2064513Y130002D01*
X2063591Y131598D01*
X2062288Y132901D01*
X2060692Y133823D01*
X2058912Y134300D01*
D02*
G37*
G36*
X1888172D02*
X1886328D01*
X1884548Y133823D01*
X1882952Y132901D01*
X1881649Y131598D01*
X1880727Y130002D01*
X1880250Y128222D01*
Y126378D01*
X1880727Y124598D01*
X1881649Y123002D01*
X1882952Y121699D01*
X1884548Y120777D01*
X1886328Y120300D01*
X1888172D01*
X1889952Y120777D01*
X1891548Y121699D01*
X1892851Y123002D01*
X1893773Y124598D01*
X1894250Y126378D01*
Y128222D01*
X1893773Y130002D01*
X1892851Y131598D01*
X1891548Y132901D01*
X1889952Y133823D01*
X1888172Y134300D01*
D02*
G37*
G36*
X1717442D02*
X1715598D01*
X1713818Y133823D01*
X1712222Y132901D01*
X1710919Y131598D01*
X1709997Y130002D01*
X1709520Y128222D01*
Y126378D01*
X1709997Y124598D01*
X1710919Y123002D01*
X1712222Y121699D01*
X1713818Y120777D01*
X1715598Y120300D01*
X1717442D01*
X1719222Y120777D01*
X1720818Y121699D01*
X1722121Y123002D01*
X1723043Y124598D01*
X1723520Y126378D01*
Y128222D01*
X1723043Y130002D01*
X1722121Y131598D01*
X1720818Y132901D01*
X1719222Y133823D01*
X1717442Y134300D01*
D02*
G37*
G36*
X1545212D02*
X1543368D01*
X1541588Y133823D01*
X1539992Y132901D01*
X1538689Y131598D01*
X1537767Y130002D01*
X1537290Y128222D01*
Y126378D01*
X1537767Y124598D01*
X1538689Y123002D01*
X1539992Y121699D01*
X1541588Y120777D01*
X1543368Y120300D01*
X1545212D01*
X1546992Y120777D01*
X1548588Y121699D01*
X1549891Y123002D01*
X1550813Y124598D01*
X1551290Y126378D01*
Y128222D01*
X1550813Y130002D01*
X1549891Y131598D01*
X1548588Y132901D01*
X1546992Y133823D01*
X1545212Y134300D01*
D02*
G37*
G36*
X865212D02*
X863369D01*
X861588Y133823D01*
X859992Y132901D01*
X858689Y131598D01*
X857767Y130002D01*
X857290Y128222D01*
Y126378D01*
X857767Y124598D01*
X858689Y123002D01*
X859992Y121699D01*
X861588Y120777D01*
X863369Y120300D01*
X865212D01*
X866992Y120777D01*
X868588Y121699D01*
X869891Y123002D01*
X870813Y124598D01*
X871290Y126378D01*
Y128222D01*
X870813Y130002D01*
X869891Y131598D01*
X868588Y132901D01*
X866992Y133823D01*
X865212Y134300D01*
D02*
G37*
G36*
X692992D02*
X691149D01*
X689368Y133823D01*
X687772Y132901D01*
X686469Y131598D01*
X685547Y130002D01*
X685070Y128222D01*
Y126378D01*
X685547Y124598D01*
X686469Y123002D01*
X687772Y121699D01*
X689368Y120777D01*
X691149Y120300D01*
X692992D01*
X694772Y120777D01*
X696368Y121699D01*
X697671Y123002D01*
X698593Y124598D01*
X699070Y126378D01*
Y128222D01*
X698593Y130002D01*
X697671Y131598D01*
X696368Y132901D01*
X694772Y133823D01*
X692992Y134300D01*
D02*
G37*
G36*
X522262D02*
X520418D01*
X518638Y133823D01*
X517042Y132901D01*
X515739Y131598D01*
X514817Y130002D01*
X514340Y128222D01*
Y126378D01*
X514817Y124598D01*
X515739Y123002D01*
X517042Y121699D01*
X518638Y120777D01*
X520418Y120300D01*
X522262D01*
X524042Y120777D01*
X525638Y121699D01*
X526941Y123002D01*
X527863Y124598D01*
X528340Y126378D01*
Y128222D01*
X527863Y130002D01*
X526941Y131598D01*
X525638Y132901D01*
X524042Y133823D01*
X522262Y134300D01*
D02*
G37*
G36*
X351522D02*
X349678D01*
X347898Y133823D01*
X346302Y132901D01*
X344999Y131598D01*
X344077Y130002D01*
X343600Y128222D01*
Y126378D01*
X344077Y124598D01*
X344999Y123002D01*
X346302Y121699D01*
X347898Y120777D01*
X349678Y120300D01*
X351522D01*
X353302Y120777D01*
X354898Y121699D01*
X356201Y123002D01*
X357123Y124598D01*
X357600Y126378D01*
Y128222D01*
X357123Y130002D01*
X356201Y131598D01*
X354898Y132901D01*
X353302Y133823D01*
X351522Y134300D01*
D02*
G37*
G36*
X180792D02*
X178948D01*
X177168Y133823D01*
X175572Y132901D01*
X174269Y131598D01*
X173347Y130002D01*
X172870Y128222D01*
Y126378D01*
X173347Y124598D01*
X174269Y123002D01*
X175572Y121699D01*
X177168Y120777D01*
X178948Y120300D01*
X180792D01*
X182572Y120777D01*
X184168Y121699D01*
X185471Y123002D01*
X186393Y124598D01*
X186870Y126378D01*
Y128222D01*
X186393Y130002D01*
X185471Y131598D01*
X184168Y132901D01*
X182572Y133823D01*
X180792Y134300D01*
D02*
G37*
G36*
X1178659Y126088D02*
X1176670D01*
X1174832Y125327D01*
X1173426Y123920D01*
X1172664Y122083D01*
Y120094D01*
X1173426Y118256D01*
X1174832Y116849D01*
X1176670Y116088D01*
X1178659D01*
X1180497Y116849D01*
X1181903Y118256D01*
X1182664Y120094D01*
Y122083D01*
X1181903Y123920D01*
X1180497Y125327D01*
X1178659Y126088D01*
D02*
G37*
G36*
X1281226Y125810D02*
X1279237D01*
X1277400Y125048D01*
X1275993Y123642D01*
X1275232Y121804D01*
Y119815D01*
X1275993Y117977D01*
X1277400Y116571D01*
X1279237Y115810D01*
X1281226D01*
X1283064Y116571D01*
X1284471Y117977D01*
X1285232Y119815D01*
Y121804D01*
X1284471Y123642D01*
X1283064Y125048D01*
X1281226Y125810D01*
D02*
G37*
G36*
X1044995Y125000D02*
X1043005D01*
X1041168Y124239D01*
X1039761Y122832D01*
X1039000Y120995D01*
Y119005D01*
X1039761Y117168D01*
X1041168Y115761D01*
X1043005Y115000D01*
X1044995D01*
X1046832Y115761D01*
X1048239Y117168D01*
X1049000Y119005D01*
Y120995D01*
X1048239Y122832D01*
X1046832Y124239D01*
X1044995Y125000D01*
D02*
G37*
G36*
X778437Y124000D02*
X776448D01*
X774610Y123239D01*
X773204Y121832D01*
X772442Y119995D01*
Y118005D01*
X773204Y116168D01*
X774610Y114761D01*
X776448Y114000D01*
X778437D01*
X780275Y114761D01*
X781681Y116168D01*
X782442Y118005D01*
Y119995D01*
X781681Y121832D01*
X780275Y123239D01*
X778437Y124000D01*
D02*
G37*
G36*
X740995Y121000D02*
X739005D01*
X737168Y120239D01*
X735761Y118832D01*
X735000Y116995D01*
Y115005D01*
X735761Y113168D01*
X737168Y111761D01*
X739005Y111000D01*
X740995D01*
X742832Y111761D01*
X744239Y113168D01*
X745000Y115005D01*
Y116995D01*
X744239Y118832D01*
X742832Y120239D01*
X740995Y121000D01*
D02*
G37*
G36*
X1533995Y118705D02*
X1532005D01*
X1530168Y117943D01*
X1528761Y116537D01*
X1528000Y114699D01*
Y112710D01*
X1528761Y110872D01*
X1530168Y109466D01*
X1532005Y108705D01*
X1533995D01*
X1535832Y109466D01*
X1537239Y110872D01*
X1538000Y112710D01*
Y114699D01*
X1537239Y116537D01*
X1535832Y117943D01*
X1533995Y118705D01*
D02*
G37*
G36*
X2367372Y116399D02*
X2365383D01*
X2363545Y115638D01*
X2362139Y114231D01*
X2361378Y112393D01*
Y110404D01*
X2362139Y108567D01*
X2363545Y107160D01*
X2365383Y106399D01*
X2367372D01*
X2369210Y107160D01*
X2370616Y108567D01*
X2371378Y110404D01*
Y112393D01*
X2370616Y114231D01*
X2369210Y115638D01*
X2367372Y116399D01*
D02*
G37*
G36*
X2536914Y116300D02*
X2534925D01*
X2533087Y115539D01*
X2531681Y114132D01*
X2530919Y112295D01*
Y110305D01*
X2531681Y108468D01*
X2533087Y107061D01*
X2534925Y106300D01*
X2536914D01*
X2538752Y107061D01*
X2540158Y108468D01*
X2540919Y110305D01*
Y112295D01*
X2540158Y114132D01*
X2538752Y115539D01*
X2536914Y116300D01*
D02*
G37*
G36*
X2196311D02*
X2194321D01*
X2192484Y115539D01*
X2191077Y114132D01*
X2190316Y112295D01*
Y110305D01*
X2191077Y108468D01*
X2192484Y107061D01*
X2194321Y106300D01*
X2196311D01*
X2198148Y107061D01*
X2199555Y108468D01*
X2200316Y110305D01*
Y112295D01*
X2199555Y114132D01*
X2198148Y115539D01*
X2196311Y116300D01*
D02*
G37*
G36*
X2025866D02*
X2023877D01*
X2022039Y115539D01*
X2020633Y114132D01*
X2019872Y112295D01*
Y110305D01*
X2020633Y108468D01*
X2022039Y107061D01*
X2023877Y106300D01*
X2025866D01*
X2027704Y107061D01*
X2029111Y108468D01*
X2029872Y110305D01*
Y112295D01*
X2029111Y114132D01*
X2027704Y115539D01*
X2025866Y116300D01*
D02*
G37*
G36*
X1684591D02*
X1682602D01*
X1680764Y115539D01*
X1679357Y114132D01*
X1678596Y112295D01*
Y110305D01*
X1679357Y108468D01*
X1680764Y107061D01*
X1682602Y106300D01*
X1684591D01*
X1686429Y107061D01*
X1687835Y108468D01*
X1688596Y110305D01*
Y112295D01*
X1687835Y114132D01*
X1686429Y115539D01*
X1684591Y116300D01*
D02*
G37*
G36*
X1511877D02*
X1509888D01*
X1508050Y115539D01*
X1506644Y114132D01*
X1505883Y112295D01*
Y110305D01*
X1506644Y108468D01*
X1508050Y107061D01*
X1509888Y106300D01*
X1511877D01*
X1513715Y107061D01*
X1515121Y108468D01*
X1515882Y110305D01*
Y112295D01*
X1515121Y114132D01*
X1513715Y115539D01*
X1511877Y116300D01*
D02*
G37*
G36*
X659423D02*
X657434D01*
X655597Y115539D01*
X654190Y114132D01*
X653429Y112295D01*
Y110305D01*
X654190Y108468D01*
X655597Y107061D01*
X657434Y106300D01*
X659423D01*
X661261Y107061D01*
X662668Y108468D01*
X663429Y110305D01*
Y112295D01*
X662668Y114132D01*
X661261Y115539D01*
X659423Y116300D01*
D02*
G37*
G36*
X488648D02*
X486659D01*
X484821Y115539D01*
X483415Y114132D01*
X482653Y112295D01*
Y110305D01*
X483415Y108468D01*
X484821Y107061D01*
X486659Y106300D01*
X488648D01*
X490486Y107061D01*
X491892Y108468D01*
X492653Y110305D01*
Y112295D01*
X491892Y114132D01*
X490486Y115539D01*
X488648Y116300D01*
D02*
G37*
G36*
X317912D02*
X315923D01*
X314085Y115539D01*
X312678Y114132D01*
X311917Y112295D01*
Y110305D01*
X312678Y108468D01*
X314085Y107061D01*
X315923Y106300D01*
X317912D01*
X319749Y107061D01*
X321156Y108468D01*
X321917Y110305D01*
Y112295D01*
X321156Y114132D01*
X319749Y115539D01*
X317912Y116300D01*
D02*
G37*
G36*
X147833D02*
X145843D01*
X144006Y115539D01*
X142599Y114132D01*
X141838Y112295D01*
Y110305D01*
X142599Y108468D01*
X144006Y107061D01*
X145843Y106300D01*
X147833D01*
X149670Y107061D01*
X151077Y108468D01*
X151838Y110305D01*
Y112295D01*
X151077Y114132D01*
X149670Y115539D01*
X147833Y116300D01*
D02*
G37*
G36*
X972991Y115995D02*
X971002D01*
X969164Y115234D01*
X967757Y113827D01*
X966996Y111990D01*
Y110000D01*
X967757Y108163D01*
X969164Y106756D01*
X971002Y105995D01*
X972991D01*
X974828Y106756D01*
X976235Y108163D01*
X976996Y110000D01*
Y111990D01*
X976235Y113827D01*
X974828Y115234D01*
X972991Y115995D01*
D02*
G37*
G36*
X277995Y112354D02*
X276005D01*
X274168Y111593D01*
X272761Y110187D01*
X272000Y108349D01*
Y106360D01*
X272761Y104522D01*
X274168Y103116D01*
X276005Y102354D01*
X277995D01*
X279832Y103116D01*
X281239Y104522D01*
X282000Y106360D01*
Y108349D01*
X281239Y110187D01*
X279832Y111593D01*
X277995Y112354D01*
D02*
G37*
G36*
X1856098Y112258D02*
X1854109D01*
X1852272Y111497D01*
X1850865Y110091D01*
X1850104Y108253D01*
Y106264D01*
X1850865Y104426D01*
X1852272Y103020D01*
X1854109Y102258D01*
X1856098D01*
X1857936Y103020D01*
X1859343Y104426D01*
X1860104Y106264D01*
Y108253D01*
X1859343Y110091D01*
X1857936Y111497D01*
X1856098Y112258D01*
D02*
G37*
G36*
X2324995Y112000D02*
X2323005D01*
X2321168Y111239D01*
X2319761Y109832D01*
X2319000Y107995D01*
Y106005D01*
X2319761Y104168D01*
X2321168Y102761D01*
X2323005Y102000D01*
X2324995D01*
X2326832Y102761D01*
X2328239Y104168D01*
X2329000Y106005D01*
Y107995D01*
X2328239Y109832D01*
X2326832Y111239D01*
X2324995Y112000D01*
D02*
G37*
G36*
X1813602Y111141D02*
X1811613D01*
X1809775Y110379D01*
X1808369Y108973D01*
X1807607Y107135D01*
Y105146D01*
X1808369Y103308D01*
X1809775Y101902D01*
X1811613Y101141D01*
X1813602D01*
X1815440Y101902D01*
X1816846Y103308D01*
X1817607Y105146D01*
Y107135D01*
X1816846Y108973D01*
X1815440Y110379D01*
X1813602Y111141D01*
D02*
G37*
G36*
X819002Y112481D02*
X817013D01*
X815175Y111720D01*
X813769Y110313D01*
X813007Y108475D01*
Y106486D01*
X813769Y104648D01*
X815175Y103242D01*
X817013Y102481D01*
X818152D01*
X819152Y102218D01*
X820000Y100729D01*
Y100005D01*
X820761Y98168D01*
X822168Y96761D01*
X824005Y96000D01*
X825995D01*
X827832Y96761D01*
X828193Y97122D01*
X829500Y97993D01*
X830807Y97122D01*
X831168Y96761D01*
X833005Y96000D01*
X834995D01*
X836832Y96761D01*
X838239Y98168D01*
X839000Y100005D01*
Y101995D01*
X838239Y103832D01*
X836832Y105239D01*
X834995Y106000D01*
X833005D01*
X831168Y105239D01*
X830807Y104878D01*
X829500Y104007D01*
X828193Y104878D01*
X827832Y105239D01*
X825995Y106000D01*
X824855D01*
X823856Y106263D01*
X823007Y107751D01*
Y108475D01*
X822246Y110313D01*
X820840Y111720D01*
X819002Y112481D01*
D02*
G37*
G36*
X1414995Y105000D02*
X1413005D01*
X1411168Y104239D01*
X1409761Y102832D01*
X1409000Y100995D01*
Y99005D01*
X1409761Y97168D01*
X1411168Y95761D01*
X1413005Y95000D01*
X1414995D01*
X1416832Y95761D01*
X1418239Y97168D01*
X1419000Y99005D01*
Y100995D01*
X1418239Y102832D01*
X1416832Y104239D01*
X1414995Y105000D01*
D02*
G37*
G36*
X409995D02*
X408005D01*
X406168Y104239D01*
X404761Y102832D01*
X404000Y100995D01*
Y99005D01*
X404761Y97168D01*
X406168Y95761D01*
X408005Y95000D01*
X409995D01*
X411832Y95761D01*
X413239Y97168D01*
X414000Y99005D01*
Y100995D01*
X413239Y102832D01*
X411832Y104239D01*
X409995Y105000D01*
D02*
G37*
G36*
X947002Y101588D02*
X945013D01*
X943175Y100827D01*
X941769Y99420D01*
X941008Y97583D01*
Y95594D01*
X941769Y93756D01*
X943175Y92349D01*
X945013Y91588D01*
X947002D01*
X948840Y92349D01*
X950246Y93756D01*
X951008Y95594D01*
Y97583D01*
X950246Y99420D01*
X948840Y100827D01*
X947002Y101588D01*
D02*
G37*
G36*
X1186995Y91000D02*
X1185005D01*
X1183168Y90239D01*
X1181761Y88832D01*
X1181000Y86995D01*
Y85005D01*
X1181761Y83168D01*
X1183168Y81761D01*
X1185005Y81000D01*
X1186995D01*
X1188832Y81761D01*
X1189199Y82128D01*
X1190919Y82687D01*
X1191769Y82085D01*
X1192513Y81341D01*
X1194351Y80580D01*
X1196340D01*
X1198178Y81341D01*
X1199585Y82748D01*
X1200346Y84586D01*
Y86575D01*
X1199585Y88412D01*
X1198178Y89819D01*
X1196340Y90580D01*
X1194351D01*
X1192513Y89819D01*
X1192147Y89452D01*
X1190427Y88893D01*
X1189576Y89495D01*
X1188832Y90239D01*
X1186995Y91000D01*
D02*
G37*
G36*
X1030856Y82938D02*
X1028867D01*
X1027029Y82177D01*
X1025623Y80770D01*
X1024861Y78932D01*
Y76943D01*
X1025623Y75106D01*
X1027029Y73699D01*
X1028867Y72938D01*
X1030856D01*
X1032694Y73699D01*
X1034100Y75106D01*
X1034861Y76943D01*
Y78932D01*
X1034100Y80770D01*
X1032694Y82177D01*
X1030856Y82938D01*
D02*
G37*
G36*
X1379995Y80000D02*
X1378005D01*
X1376168Y79239D01*
X1374761Y77832D01*
X1374000Y75995D01*
Y74005D01*
X1374761Y72168D01*
X1376168Y70761D01*
X1378005Y70000D01*
X1379995D01*
X1381832Y70761D01*
X1383239Y72168D01*
X1384000Y74005D01*
Y75995D01*
X1383239Y77832D01*
X1381832Y79239D01*
X1379995Y80000D01*
D02*
G37*
G36*
X1241995D02*
X1240005D01*
X1238168Y79239D01*
X1236761Y77832D01*
X1236000Y75995D01*
Y74005D01*
X1236761Y72168D01*
X1238168Y70761D01*
X1240005Y70000D01*
X1241995D01*
X1243832Y70761D01*
X1245239Y72168D01*
X1246000Y74005D01*
Y75995D01*
X1245239Y77832D01*
X1243832Y79239D01*
X1241995Y80000D01*
D02*
G37*
G36*
X2455373Y78300D02*
X2452986D01*
X2450781Y77387D01*
X2449093Y75699D01*
X2448180Y73493D01*
Y71107D01*
X2449093Y68901D01*
X2450781Y67214D01*
X2452986Y66300D01*
X2455373D01*
X2457579Y67214D01*
X2459267Y68901D01*
X2460180Y71107D01*
Y73493D01*
X2459267Y75699D01*
X2457579Y77387D01*
X2455373Y78300D01*
D02*
G37*
G36*
X2284644D02*
X2282256D01*
X2280051Y77387D01*
X2278363Y75699D01*
X2277450Y73493D01*
Y71107D01*
X2278363Y68901D01*
X2280051Y67214D01*
X2282256Y66300D01*
X2284644D01*
X2286849Y67214D01*
X2288537Y68901D01*
X2289450Y71107D01*
Y73493D01*
X2288537Y75699D01*
X2286849Y77387D01*
X2284644Y78300D01*
D02*
G37*
G36*
X2113914D02*
X2111526D01*
X2109321Y77387D01*
X2107633Y75699D01*
X2106720Y73493D01*
Y71107D01*
X2107633Y68901D01*
X2109321Y67214D01*
X2111526Y66300D01*
X2113914D01*
X2116119Y67214D01*
X2117807Y68901D01*
X2118720Y71107D01*
Y73493D01*
X2117807Y75699D01*
X2116119Y77387D01*
X2113914Y78300D01*
D02*
G37*
G36*
X1943183D02*
X1940797D01*
X1938591Y77387D01*
X1936903Y75699D01*
X1935990Y73493D01*
Y71107D01*
X1936903Y68901D01*
X1938591Y67214D01*
X1940797Y66300D01*
X1943183D01*
X1945389Y67214D01*
X1947077Y68901D01*
X1947990Y71107D01*
Y73493D01*
X1947077Y75699D01*
X1945389Y77387D01*
X1943183Y78300D01*
D02*
G37*
G36*
X1772444D02*
X1770056D01*
X1767851Y77387D01*
X1766163Y75699D01*
X1765250Y73493D01*
Y71107D01*
X1766163Y68901D01*
X1767851Y67214D01*
X1770056Y66300D01*
X1772444D01*
X1774649Y67214D01*
X1776337Y68901D01*
X1777250Y71107D01*
Y73493D01*
X1776337Y75699D01*
X1774649Y77387D01*
X1772444Y78300D01*
D02*
G37*
G36*
X1601714D02*
X1599326D01*
X1597121Y77387D01*
X1595433Y75699D01*
X1594520Y73493D01*
Y71107D01*
X1595433Y68901D01*
X1597121Y67214D01*
X1599326Y66300D01*
X1601714D01*
X1603919Y67214D01*
X1605607Y68901D01*
X1606520Y71107D01*
Y73493D01*
X1605607Y75699D01*
X1603919Y77387D01*
X1601714Y78300D01*
D02*
G37*
G36*
X1429483D02*
X1427097D01*
X1424891Y77387D01*
X1423203Y75699D01*
X1422290Y73493D01*
Y71107D01*
X1423203Y68901D01*
X1424891Y67214D01*
X1427097Y66300D01*
X1429483D01*
X1431689Y67214D01*
X1433376Y68901D01*
X1434290Y71107D01*
Y73493D01*
X1433376Y75699D01*
X1431689Y77387D01*
X1429483Y78300D01*
D02*
G37*
G36*
X749483D02*
X747096D01*
X744891Y77387D01*
X743203Y75699D01*
X742290Y73493D01*
Y71107D01*
X743203Y68901D01*
X744891Y67214D01*
X747096Y66300D01*
X749483D01*
X751689Y67214D01*
X753376Y68901D01*
X754290Y71107D01*
Y73493D01*
X753376Y75699D01*
X751689Y77387D01*
X749483Y78300D01*
D02*
G37*
G36*
X577263D02*
X574877D01*
X572671Y77387D01*
X570983Y75699D01*
X570070Y73493D01*
Y71107D01*
X570983Y68901D01*
X572671Y67214D01*
X574877Y66300D01*
X577263D01*
X579469Y67214D01*
X581157Y68901D01*
X582070Y71107D01*
Y73493D01*
X581157Y75699D01*
X579469Y77387D01*
X577263Y78300D01*
D02*
G37*
G36*
X406534D02*
X404146D01*
X401941Y77387D01*
X400253Y75699D01*
X399340Y73493D01*
Y71107D01*
X400253Y68901D01*
X401941Y67214D01*
X404146Y66300D01*
X406534D01*
X408739Y67214D01*
X410426Y68901D01*
X411340Y71107D01*
Y73493D01*
X410426Y75699D01*
X408739Y77387D01*
X406534Y78300D01*
D02*
G37*
G36*
X235793D02*
X233407D01*
X231201Y77387D01*
X229513Y75699D01*
X228600Y73493D01*
Y71107D01*
X229513Y68901D01*
X231201Y67214D01*
X233407Y66300D01*
X235793D01*
X237999Y67214D01*
X239687Y68901D01*
X240600Y71107D01*
Y73493D01*
X239687Y75699D01*
X237999Y77387D01*
X235793Y78300D01*
D02*
G37*
G36*
X65063D02*
X62677D01*
X60471Y77387D01*
X58783Y75699D01*
X57870Y73493D01*
Y71107D01*
X58783Y68901D01*
X60471Y67214D01*
X62677Y66300D01*
X65063D01*
X67269Y67214D01*
X68956Y68901D01*
X69870Y71107D01*
Y73493D01*
X68956Y75699D01*
X67269Y77387D01*
X65063Y78300D01*
D02*
G37*
G36*
X1037856Y69938D02*
X1035867D01*
X1034029Y69177D01*
X1032623Y67770D01*
X1031861Y65932D01*
Y63943D01*
X1032623Y62106D01*
X1034029Y60699D01*
X1035867Y59938D01*
X1037856D01*
X1039694Y60699D01*
X1041100Y62106D01*
X1041861Y63943D01*
Y65932D01*
X1041100Y67770D01*
X1039694Y69177D01*
X1037856Y69938D01*
D02*
G37*
G36*
X1019856D02*
X1017867D01*
X1016029Y69177D01*
X1014623Y67770D01*
X1013861Y65932D01*
Y63943D01*
X1014623Y62106D01*
X1016029Y60699D01*
X1017867Y59938D01*
X1019856D01*
X1021694Y60699D01*
X1023100Y62106D01*
X1023861Y63943D01*
Y65932D01*
X1023100Y67770D01*
X1021694Y69177D01*
X1019856Y69938D01*
D02*
G37*
G36*
X2546930Y85300D02*
X2527430D01*
Y59300D01*
X2546930D01*
Y85300D01*
D02*
G37*
G36*
X2496930D02*
X2477430D01*
Y59300D01*
X2496930D01*
Y85300D01*
D02*
G37*
G36*
X2376200D02*
X2356700D01*
Y59300D01*
X2376200D01*
Y85300D01*
D02*
G37*
G36*
X2326200D02*
X2306700D01*
Y59300D01*
X2326200D01*
Y85300D01*
D02*
G37*
G36*
X2205470D02*
X2185970D01*
Y59300D01*
X2205470D01*
Y85300D01*
D02*
G37*
G36*
X2155470D02*
X2135970D01*
Y59300D01*
X2155470D01*
Y85300D01*
D02*
G37*
G36*
X2034740D02*
X2015240D01*
Y59300D01*
X2034740D01*
Y85300D01*
D02*
G37*
G36*
X1984740D02*
X1965240D01*
Y59300D01*
X1984740D01*
Y85300D01*
D02*
G37*
G36*
X1864000D02*
X1844500D01*
Y59300D01*
X1864000D01*
Y85300D01*
D02*
G37*
G36*
X1814000D02*
X1794500D01*
Y59300D01*
X1814000D01*
Y85300D01*
D02*
G37*
G36*
X1693270D02*
X1673770D01*
Y59300D01*
X1693270D01*
Y85300D01*
D02*
G37*
G36*
X1643270D02*
X1623770D01*
Y59300D01*
X1643270D01*
Y85300D01*
D02*
G37*
G36*
X1521040D02*
X1501540D01*
Y59300D01*
X1521040D01*
Y85300D01*
D02*
G37*
G36*
X1471040D02*
X1451540D01*
Y59300D01*
X1471040D01*
Y85300D01*
D02*
G37*
G36*
X841040D02*
X821540D01*
Y59300D01*
X841040D01*
Y85300D01*
D02*
G37*
G36*
X791040D02*
X771540D01*
Y59300D01*
X791040D01*
Y85300D01*
D02*
G37*
G36*
X668820D02*
X649320D01*
Y59300D01*
X668820D01*
Y85300D01*
D02*
G37*
G36*
X618820D02*
X599320D01*
Y59300D01*
X618820D01*
Y85300D01*
D02*
G37*
G36*
X498090D02*
X478590D01*
Y59300D01*
X498090D01*
Y85300D01*
D02*
G37*
G36*
X448090D02*
X428590D01*
Y59300D01*
X448090D01*
Y85300D01*
D02*
G37*
G36*
X327350D02*
X307850D01*
Y59300D01*
X327350D01*
Y85300D01*
D02*
G37*
G36*
X277350D02*
X257850D01*
Y59300D01*
X277350D01*
Y85300D01*
D02*
G37*
G36*
X156620D02*
X137120D01*
Y59300D01*
X156620D01*
Y85300D01*
D02*
G37*
G36*
X106620D02*
X87120D01*
Y59300D01*
X106620D01*
Y85300D01*
D02*
G37*
G36*
X892895Y85000D02*
X890905D01*
X889068Y84239D01*
X887661Y82832D01*
X886900Y80995D01*
Y79005D01*
X887661Y77168D01*
X889068Y75761D01*
X889499Y75582D01*
Y73418D01*
X889068Y73239D01*
X887661Y71832D01*
X886900Y69995D01*
Y68005D01*
X887661Y66168D01*
X888577Y65252D01*
X888884Y64026D01*
X888577Y62800D01*
X887661Y61884D01*
X886900Y60047D01*
Y58057D01*
X887661Y56220D01*
X889068Y54813D01*
X890905Y54052D01*
X892895D01*
X894732Y54813D01*
X896139Y56220D01*
X896900Y58057D01*
Y60047D01*
X896139Y61884D01*
X895223Y62800D01*
X894916Y64026D01*
X895223Y65252D01*
X896139Y66168D01*
X896900Y68005D01*
Y69995D01*
X896139Y71832D01*
X894732Y73239D01*
X894301Y73418D01*
Y75582D01*
X894732Y75761D01*
X896139Y77168D01*
X896900Y79005D01*
Y80995D01*
X896139Y82832D01*
X894732Y84239D01*
X892895Y85000D01*
D02*
G37*
G36*
X1038132Y53100D02*
X1034867D01*
X1031714Y52255D01*
X1028886Y50623D01*
X1026578Y48314D01*
X1025500Y46448D01*
X1023500Y46983D01*
Y53100D01*
X998700D01*
Y28300D01*
X1023500D01*
Y34417D01*
X1025500Y34952D01*
X1026578Y33086D01*
X1028886Y30777D01*
X1031714Y29145D01*
X1034867Y28300D01*
X1038132D01*
X1041286Y29145D01*
X1044114Y30777D01*
X1046423Y33086D01*
X1048055Y35914D01*
X1048900Y39067D01*
Y42333D01*
X1048055Y45486D01*
X1046423Y48314D01*
X1044114Y50623D01*
X1041286Y52255D01*
X1038132Y53100D01*
D02*
G37*
G36*
X1190533D02*
X1187268D01*
X1184114Y52255D01*
X1181286Y50623D01*
X1178978Y48314D01*
X1177345Y45486D01*
X1177235Y45077D01*
X1175165D01*
X1175055Y45486D01*
X1173422Y48314D01*
X1171114Y50623D01*
X1168286Y52255D01*
X1165133Y53100D01*
X1161868D01*
X1158714Y52255D01*
X1155886Y50623D01*
X1153577Y48314D01*
X1151945Y45486D01*
X1151835Y45077D01*
X1149765D01*
X1149655Y45486D01*
X1148023Y48314D01*
X1145714Y50623D01*
X1142886Y52255D01*
X1139733Y53100D01*
X1136468D01*
X1133314Y52255D01*
X1130486Y50623D01*
X1128177Y48314D01*
X1126545Y45486D01*
X1126435Y45077D01*
X1124365D01*
X1124255Y45486D01*
X1122623Y48314D01*
X1120314Y50623D01*
X1117486Y52255D01*
X1114333Y53100D01*
X1111068D01*
X1107914Y52255D01*
X1105086Y50623D01*
X1102777Y48314D01*
X1101145Y45486D01*
X1100300Y42333D01*
Y39067D01*
X1101145Y35914D01*
X1102777Y33086D01*
X1105086Y30777D01*
X1107914Y29145D01*
X1111068Y28300D01*
X1114333D01*
X1117486Y29145D01*
X1120314Y30777D01*
X1122623Y33086D01*
X1124255Y35914D01*
X1124365Y36323D01*
X1126435D01*
X1126545Y35914D01*
X1128177Y33086D01*
X1130486Y30777D01*
X1133314Y29145D01*
X1136468Y28300D01*
X1139733D01*
X1142886Y29145D01*
X1145714Y30777D01*
X1148023Y33086D01*
X1149655Y35914D01*
X1149765Y36323D01*
X1151835D01*
X1151945Y35914D01*
X1153577Y33086D01*
X1155886Y30777D01*
X1158714Y29145D01*
X1161868Y28300D01*
X1165133D01*
X1168286Y29145D01*
X1171114Y30777D01*
X1173422Y33086D01*
X1175055Y35914D01*
X1175165Y36323D01*
X1177235D01*
X1177345Y35914D01*
X1178978Y33086D01*
X1181286Y30777D01*
X1184114Y29145D01*
X1187268Y28300D01*
X1190533D01*
X1193686Y29145D01*
X1196514Y30777D01*
X1198822Y33086D01*
X1200455Y35914D01*
X1201300Y39067D01*
Y42333D01*
X1200455Y45486D01*
X1198822Y48314D01*
X1196514Y50623D01*
X1193686Y52255D01*
X1190533Y53100D01*
D02*
G37*
G36*
X780995Y52000D02*
X779005D01*
X777168Y51239D01*
X775761Y49832D01*
X775000Y47995D01*
Y46005D01*
X775761Y44168D01*
X777168Y42761D01*
X779005Y42000D01*
X780995D01*
X782832Y42761D01*
X784239Y44168D01*
X785000Y46005D01*
Y47995D01*
X784239Y49832D01*
X782832Y51239D01*
X780995Y52000D01*
D02*
G37*
G36*
X960995Y49000D02*
X959005D01*
X957168Y48239D01*
X955761Y46832D01*
X955000Y44995D01*
Y43005D01*
X955761Y41168D01*
X957168Y39761D01*
X959005Y39000D01*
X960995D01*
X962832Y39761D01*
X964239Y41168D01*
X965000Y43005D01*
Y44995D01*
X964239Y46832D01*
X962832Y48239D01*
X960995Y49000D01*
D02*
G37*
G36*
X945995D02*
X944005D01*
X942168Y48239D01*
X940761Y46832D01*
X940000Y44995D01*
Y43005D01*
X940761Y41168D01*
X942168Y39761D01*
X944005Y39000D01*
X945995D01*
X947832Y39761D01*
X949239Y41168D01*
X950000Y43005D01*
Y44995D01*
X949239Y46832D01*
X947832Y48239D01*
X945995Y49000D01*
D02*
G37*
G36*
X930995D02*
X929005D01*
X927168Y48239D01*
X925761Y46832D01*
X925000Y44995D01*
Y43005D01*
X925761Y41168D01*
X927168Y39761D01*
X929005Y39000D01*
X930995D01*
X932832Y39761D01*
X934239Y41168D01*
X935000Y43005D01*
Y44995D01*
X934239Y46832D01*
X932832Y48239D01*
X930995Y49000D01*
D02*
G37*
G36*
X915995D02*
X914005D01*
X912168Y48239D01*
X910761Y46832D01*
X910000Y44995D01*
Y43005D01*
X910761Y41168D01*
X912168Y39761D01*
X914005Y39000D01*
X915995D01*
X917832Y39761D01*
X919239Y41168D01*
X920000Y43005D01*
Y44995D01*
X919239Y46832D01*
X917832Y48239D01*
X915995Y49000D01*
D02*
G37*
G36*
X900470Y38749D02*
X898481D01*
X896644Y37988D01*
X895237Y36581D01*
X894476Y34743D01*
Y32754D01*
X895237Y30917D01*
X896644Y29510D01*
X898481Y28749D01*
X900470D01*
X902308Y29510D01*
X903715Y30917D01*
X904476Y32754D01*
Y34743D01*
X903715Y36581D01*
X902308Y37988D01*
X900470Y38749D01*
D02*
G37*
G36*
X2460680Y51800D02*
X2436680D01*
Y27800D01*
X2460680D01*
Y51800D01*
D02*
G37*
G36*
X2416950D02*
X2392950D01*
Y27800D01*
X2416950D01*
Y51800D01*
D02*
G37*
G36*
X2289950D02*
X2265950D01*
Y27800D01*
X2289950D01*
Y51800D01*
D02*
G37*
G36*
X2246220D02*
X2222220D01*
Y27800D01*
X2246220D01*
Y51800D01*
D02*
G37*
G36*
X2119220D02*
X2095220D01*
Y27800D01*
X2119220D01*
Y51800D01*
D02*
G37*
G36*
X2075490D02*
X2051490D01*
Y27800D01*
X2075490D01*
Y51800D01*
D02*
G37*
G36*
X1948490D02*
X1924490D01*
Y27800D01*
X1948490D01*
Y51800D01*
D02*
G37*
G36*
X1904750D02*
X1880750D01*
Y27800D01*
X1904750D01*
Y51800D01*
D02*
G37*
G36*
X1777750D02*
X1753750D01*
Y27800D01*
X1777750D01*
Y51800D01*
D02*
G37*
G36*
X1734020D02*
X1710020D01*
Y27800D01*
X1734020D01*
Y51800D01*
D02*
G37*
G36*
X1607020D02*
X1583020D01*
Y27800D01*
X1607020D01*
Y51800D01*
D02*
G37*
G36*
X1561790D02*
X1537790D01*
Y27800D01*
X1561790D01*
Y51800D01*
D02*
G37*
G36*
X1434790D02*
X1410790D01*
Y27800D01*
X1434790D01*
Y51800D01*
D02*
G37*
G36*
X881790D02*
X857790D01*
Y27800D01*
X881790D01*
Y51800D01*
D02*
G37*
G36*
X754790D02*
X730790D01*
Y27800D01*
X754790D01*
Y51800D01*
D02*
G37*
G36*
X709570D02*
X685570D01*
Y27800D01*
X709570D01*
Y51800D01*
D02*
G37*
G36*
X582570D02*
X558570D01*
Y27800D01*
X582570D01*
Y51800D01*
D02*
G37*
G36*
X538840D02*
X514840D01*
Y27800D01*
X538840D01*
Y51800D01*
D02*
G37*
G36*
X411840D02*
X387840D01*
Y27800D01*
X411840D01*
Y51800D01*
D02*
G37*
G36*
X368100D02*
X344100D01*
Y27800D01*
X368100D01*
Y51800D01*
D02*
G37*
G36*
X241100D02*
X217100D01*
Y27800D01*
X241100D01*
Y51800D01*
D02*
G37*
G36*
X197370D02*
X173370D01*
Y27800D01*
X197370D01*
Y51800D01*
D02*
G37*
G36*
X838376Y35353D02*
X836387D01*
X834549Y34592D01*
X833143Y33185D01*
X832382Y31348D01*
Y29359D01*
X833143Y27521D01*
X834549Y26114D01*
X836387Y25353D01*
X838376D01*
X840214Y26114D01*
X841620Y27521D01*
X842382Y29359D01*
Y31348D01*
X841620Y33185D01*
X840214Y34592D01*
X838376Y35353D01*
D02*
G37*
G36*
X804405Y35310D02*
X802416D01*
X800579Y34548D01*
X799172Y33142D01*
X798411Y31304D01*
Y29315D01*
X799172Y27477D01*
X800579Y26071D01*
X802416Y25310D01*
X804405D01*
X806243Y26071D01*
X807650Y27477D01*
X808411Y29315D01*
Y31304D01*
X807650Y33142D01*
X806243Y34548D01*
X804405Y35310D01*
D02*
G37*
%LPD*%
G36*
G01X2632050Y1002490D02*
G01Y958490D01*
G01X2615050D01*
G01Y958490D01*
G02Y1002490I0J22000D01*
G01Y1002490D01*
G01X2632050D01*
D02*
G37*
G36*
G01Y134790D02*
G01Y90790D01*
G01X2615050D01*
G01Y90790D01*
G02Y134790I0J22000D01*
G01Y134790D01*
G01X2632050D01*
D02*
G37*
G36*
G01X1695030Y1115890D02*
G01X1739030D01*
G01Y1098890D01*
G01X1739030D01*
G02X1695030I-22000J0D01*
G01X1695030D01*
G01Y1115890D01*
D02*
G37*
G36*
G01X895030D02*
G01X939030D01*
G01Y1098890D01*
G01X939030D01*
G02X895030I-22000J0D01*
G01X895030D01*
G01Y1115890D01*
D02*
G37*
G36*
G01X1739030Y-23060D02*
G01X1695030D01*
G01Y-6060D01*
G01X1695030D01*
G02X1739030I22000J0D01*
G01X1739030D01*
G01Y-23060D01*
D02*
G37*
G36*
G01X939030D02*
G01X895030D01*
G01Y-6060D01*
G01X895030D01*
G02X939030I22000J0D01*
G01X939030D01*
G01Y-23060D01*
D02*
G37*
G36*
G01X2000Y958490D02*
G01Y1002490D01*
G01X19000D01*
G01Y1002490D01*
G02Y958490I0J-22000D01*
G01Y958490D01*
G01X2000D01*
D02*
G37*
G36*
G01Y97640D02*
G01Y141640D01*
G01X19000D01*
G01Y141640D01*
G02Y97640I0J-22000D01*
G01Y97640D01*
G01X2000D01*
D02*
G37*
D36*
X576060Y965530D02*
D03*
X917540D02*
D03*
X1088270D02*
D03*
X1259000D02*
D03*
X1429730D02*
D03*
X1600470D02*
D03*
X1771200D02*
D03*
X1942150D02*
D03*
X2112880D02*
D03*
X2283450D02*
D03*
X2454180D02*
D03*
X63870D02*
D03*
X234600D02*
D03*
X405340D02*
D03*
X746800D02*
D03*
X63870Y754800D02*
D03*
X234600D02*
D03*
X405340D02*
D03*
X576060D02*
D03*
X746800D02*
D03*
X917540D02*
D03*
X1088270D02*
D03*
X1259000D02*
D03*
X1429730D02*
D03*
X1600470D02*
D03*
X1771200D02*
D03*
X1942150D02*
D03*
X2112880D02*
D03*
X2368820D02*
D03*
X109240Y584500D02*
D03*
X325340D02*
D03*
X496070D02*
D03*
X666800D02*
D03*
X837540D02*
D03*
X1008270D02*
D03*
X1179000D02*
D03*
X1349730D02*
D03*
X1520470D02*
D03*
X1691200D02*
D03*
X1861990D02*
D03*
X2032720D02*
D03*
X2203450D02*
D03*
X2454180Y499140D02*
D03*
X142710Y413770D02*
D03*
X405340D02*
D03*
X576070D02*
D03*
X746800D02*
D03*
X917540D02*
D03*
X1088270D02*
D03*
X1259000D02*
D03*
X1429730D02*
D03*
X1600470D02*
D03*
X1771200D02*
D03*
X1941930D02*
D03*
X2112670D02*
D03*
X2283450D02*
D03*
X109240Y243040D02*
D03*
X325340D02*
D03*
X496070D02*
D03*
X666800D02*
D03*
X837540D02*
D03*
X1008270D02*
D03*
X1179000D02*
D03*
X1349730D02*
D03*
X1520470D02*
D03*
X1691200D02*
D03*
X1861930D02*
D03*
X2032670D02*
D03*
X2328820D02*
D03*
X63870Y72300D02*
D03*
X234600D02*
D03*
X405340D02*
D03*
X576070D02*
D03*
X1428290D02*
D03*
X1600520D02*
D03*
X1771250D02*
D03*
X1941990D02*
D03*
X2112720D02*
D03*
X2283450D02*
D03*
X2454180D02*
D03*
X748290D02*
D03*
D40*
X1138100Y40700D02*
D03*
X1112700D02*
D03*
X1087300D02*
D03*
X1061900D02*
D03*
X1036500D02*
D03*
X1188900D02*
D03*
X1163500D02*
D03*
D41*
X1011100D02*
D03*
D42*
X570560Y933030D02*
D03*
X697560Y1053030D02*
D03*
X570560D02*
D03*
X697560Y933030D02*
D03*
X1039040D02*
D03*
X912040Y1053030D02*
D03*
X1039040D02*
D03*
X912040Y933030D02*
D03*
X1082770D02*
D03*
X1209770Y1053030D02*
D03*
X1082770D02*
D03*
X1209770Y933030D02*
D03*
X1380500D02*
D03*
X1253500Y1053030D02*
D03*
X1380500D02*
D03*
X1253500Y933030D02*
D03*
X1424230D02*
D03*
X1551230Y1053030D02*
D03*
X1424230D02*
D03*
X1551230Y933030D02*
D03*
X1721970D02*
D03*
X1594970Y1053030D02*
D03*
X1721970D02*
D03*
X1594970Y933030D02*
D03*
X1765700D02*
D03*
X1892700Y1053030D02*
D03*
X1765700D02*
D03*
X1892700Y933030D02*
D03*
X2063650D02*
D03*
X1936650Y1053030D02*
D03*
X2063650D02*
D03*
X1936650Y933030D02*
D03*
X2107380D02*
D03*
X2234380Y1053030D02*
D03*
X2107380D02*
D03*
X2234380Y933030D02*
D03*
X2404950D02*
D03*
X2277950Y1053030D02*
D03*
X2404950D02*
D03*
X2277950Y933030D02*
D03*
X2448680D02*
D03*
X2575680Y1053030D02*
D03*
X2448680D02*
D03*
X2575680Y933030D02*
D03*
X185370D02*
D03*
X58370Y1053030D02*
D03*
X185370D02*
D03*
X58370Y933030D02*
D03*
X229100D02*
D03*
X356100Y1053030D02*
D03*
X229100D02*
D03*
X356100Y933030D02*
D03*
X526840D02*
D03*
X399840Y1053030D02*
D03*
X526840D02*
D03*
X399840Y933030D02*
D03*
X741300D02*
D03*
X868300Y1053030D02*
D03*
X741300D02*
D03*
X868300Y933030D02*
D03*
X185370Y722300D02*
D03*
X58370Y842300D02*
D03*
X185370D02*
D03*
X58370Y722300D02*
D03*
X229100D02*
D03*
X356100Y842300D02*
D03*
X229100D02*
D03*
X356100Y722300D02*
D03*
X526840D02*
D03*
X399840Y842300D02*
D03*
X526840D02*
D03*
X399840Y722300D02*
D03*
X570560D02*
D03*
X697560Y842300D02*
D03*
X570560D02*
D03*
X697560Y722300D02*
D03*
X868300D02*
D03*
X741300Y842300D02*
D03*
X868300D02*
D03*
X741300Y722300D02*
D03*
X912040D02*
D03*
X1039040Y842300D02*
D03*
X912040D02*
D03*
X1039040Y722300D02*
D03*
X1209770D02*
D03*
X1082770Y842300D02*
D03*
X1209770D02*
D03*
X1082770Y722300D02*
D03*
X1253500D02*
D03*
X1380500Y842300D02*
D03*
X1253500D02*
D03*
X1380500Y722300D02*
D03*
X1551230D02*
D03*
X1424230Y842300D02*
D03*
X1551230D02*
D03*
X1424230Y722300D02*
D03*
X1594970D02*
D03*
X1721970Y842300D02*
D03*
X1594970D02*
D03*
X1721970Y722300D02*
D03*
X1892700D02*
D03*
X1765700Y842300D02*
D03*
X1892700D02*
D03*
X1765700Y722300D02*
D03*
X1936650D02*
D03*
X2063650Y842300D02*
D03*
X1936650D02*
D03*
X2063650Y722300D02*
D03*
X2234380D02*
D03*
X2107380Y842300D02*
D03*
X2234380D02*
D03*
X2107380Y722300D02*
D03*
X2363320D02*
D03*
X2490320Y842300D02*
D03*
X2363320D02*
D03*
X2490320Y722300D02*
D03*
X230740Y552000D02*
D03*
X103740Y672000D02*
D03*
X230740D02*
D03*
X103740Y552000D02*
D03*
X319840D02*
D03*
X446840Y672000D02*
D03*
X319840D02*
D03*
X446840Y552000D02*
D03*
X617570D02*
D03*
X490570Y672000D02*
D03*
X617570D02*
D03*
X490570Y552000D02*
D03*
X661300D02*
D03*
X788300Y672000D02*
D03*
X661300D02*
D03*
X788300Y552000D02*
D03*
X959040D02*
D03*
X832040Y672000D02*
D03*
X959040D02*
D03*
X832040Y552000D02*
D03*
X1002770D02*
D03*
X1129770Y672000D02*
D03*
X1002770D02*
D03*
X1129770Y552000D02*
D03*
X1300500D02*
D03*
X1173500Y672000D02*
D03*
X1300500D02*
D03*
X1173500Y552000D02*
D03*
X1344230D02*
D03*
X1471230Y672000D02*
D03*
X1344230D02*
D03*
X1471230Y552000D02*
D03*
X1641970D02*
D03*
X1514970Y672000D02*
D03*
X1641970D02*
D03*
X1514970Y552000D02*
D03*
X1685700D02*
D03*
X1812700Y672000D02*
D03*
X1685700D02*
D03*
X1812700Y552000D02*
D03*
X1983490D02*
D03*
X1856490Y672000D02*
D03*
X1983490D02*
D03*
X1856490Y552000D02*
D03*
X2027220D02*
D03*
X2154220Y672000D02*
D03*
X2027220D02*
D03*
X2154220Y552000D02*
D03*
X2324950D02*
D03*
X2197950Y672000D02*
D03*
X2324950D02*
D03*
X2197950Y552000D02*
D03*
X2448680Y466640D02*
D03*
X2575680Y586640D02*
D03*
X2448680D02*
D03*
X2575680Y466640D02*
D03*
X264210Y381270D02*
D03*
X137210Y501270D02*
D03*
X264210D02*
D03*
X137210Y381270D02*
D03*
X399840D02*
D03*
X526840Y501270D02*
D03*
X399840D02*
D03*
X526840Y381270D02*
D03*
X697570D02*
D03*
X570570Y501270D02*
D03*
X697570D02*
D03*
X570570Y381270D02*
D03*
X741300D02*
D03*
X868300Y501270D02*
D03*
X741300D02*
D03*
X868300Y381270D02*
D03*
X1039040D02*
D03*
X912040Y501270D02*
D03*
X1039040D02*
D03*
X912040Y381270D02*
D03*
X1082770D02*
D03*
X1209770Y501270D02*
D03*
X1082770D02*
D03*
X1209770Y381270D02*
D03*
X1380500D02*
D03*
X1253500Y501270D02*
D03*
X1380500D02*
D03*
X1253500Y381270D02*
D03*
X1424230D02*
D03*
X1551230Y501270D02*
D03*
X1424230D02*
D03*
X1551230Y381270D02*
D03*
X1721970D02*
D03*
X1594970Y501270D02*
D03*
X1721970D02*
D03*
X1594970Y381270D02*
D03*
X1765700D02*
D03*
X1892700Y501270D02*
D03*
X1765700D02*
D03*
X1892700Y381270D02*
D03*
X2063430D02*
D03*
X1936430Y501270D02*
D03*
X2063430D02*
D03*
X1936430Y381270D02*
D03*
X2107170D02*
D03*
X2234170Y501270D02*
D03*
X2107170D02*
D03*
X2234170Y381270D02*
D03*
X2404950D02*
D03*
X2277950Y501270D02*
D03*
X2404950D02*
D03*
X2277950Y381270D02*
D03*
X103740Y210540D02*
D03*
X230740Y330540D02*
D03*
X103740D02*
D03*
X230740Y210540D02*
D03*
X446840D02*
D03*
X319840Y330540D02*
D03*
X446840D02*
D03*
X319840Y210540D02*
D03*
X490570D02*
D03*
X617570Y330540D02*
D03*
X490570D02*
D03*
X617570Y210540D02*
D03*
X788300D02*
D03*
X661300Y330540D02*
D03*
X788300D02*
D03*
X661300Y210540D02*
D03*
X832040D02*
D03*
X959040Y330540D02*
D03*
X832040D02*
D03*
X959040Y210540D02*
D03*
X1129770D02*
D03*
X1002770Y330540D02*
D03*
X1129770D02*
D03*
X1002770Y210540D02*
D03*
X1173500D02*
D03*
X1300500Y330540D02*
D03*
X1173500D02*
D03*
X1300500Y210540D02*
D03*
X1471230D02*
D03*
X1344230Y330540D02*
D03*
X1471230D02*
D03*
X1344230Y210540D02*
D03*
X1514970D02*
D03*
X1641970Y330540D02*
D03*
X1514970D02*
D03*
X1641970Y210540D02*
D03*
X1812700D02*
D03*
X1685700Y330540D02*
D03*
X1812700D02*
D03*
X1685700Y210540D02*
D03*
X1856430D02*
D03*
X1983430Y330540D02*
D03*
X1856430D02*
D03*
X1983430Y210540D02*
D03*
X2154170D02*
D03*
X2027170Y330540D02*
D03*
X2154170D02*
D03*
X2027170Y210540D02*
D03*
X2323320D02*
D03*
X2450320Y330540D02*
D03*
X2323320D02*
D03*
X2450320Y210540D02*
D03*
X185370Y39800D02*
D03*
X58370Y159800D02*
D03*
X185370D02*
D03*
X58370Y39800D02*
D03*
X229100D02*
D03*
X356100Y159800D02*
D03*
X229100D02*
D03*
X356100Y39800D02*
D03*
X526840D02*
D03*
X399840Y159800D02*
D03*
X526840D02*
D03*
X399840Y39800D02*
D03*
X570570D02*
D03*
X697570Y159800D02*
D03*
X570570D02*
D03*
X697570Y39800D02*
D03*
X1549790D02*
D03*
X1422790Y159800D02*
D03*
X1549790D02*
D03*
X1422790Y39800D02*
D03*
X1595020D02*
D03*
X1722020Y159800D02*
D03*
X1595020D02*
D03*
X1722020Y39800D02*
D03*
X1892750D02*
D03*
X1765750Y159800D02*
D03*
X1892750D02*
D03*
X1765750Y39800D02*
D03*
X1936490D02*
D03*
X2063490Y159800D02*
D03*
X1936490D02*
D03*
X2063490Y39800D02*
D03*
X2234220D02*
D03*
X2107220Y159800D02*
D03*
X2234220D02*
D03*
X2107220Y39800D02*
D03*
X2277950D02*
D03*
X2404950Y159800D02*
D03*
X2277950D02*
D03*
X2404950Y39800D02*
D03*
X2575680D02*
D03*
X2448680Y159800D02*
D03*
X2575680D02*
D03*
X2448680Y39800D02*
D03*
X742790D02*
D03*
X869790Y159800D02*
D03*
X742790D02*
D03*
X869790Y39800D02*
D03*
D43*
X692060Y1020530D02*
D03*
X1033540D02*
D03*
X1204270D02*
D03*
X1375000D02*
D03*
X1545730D02*
D03*
X1716470D02*
D03*
X1887200D02*
D03*
X2058150D02*
D03*
X2228880D02*
D03*
X2399450D02*
D03*
X2570180D02*
D03*
X179870D02*
D03*
X350600D02*
D03*
X521340D02*
D03*
X862800D02*
D03*
X179870Y809800D02*
D03*
X350600D02*
D03*
X521340D02*
D03*
X692060D02*
D03*
X862800D02*
D03*
X1033540D02*
D03*
X1204270D02*
D03*
X1375000D02*
D03*
X1545730D02*
D03*
X1716470D02*
D03*
X1887200D02*
D03*
X2058150D02*
D03*
X2228880D02*
D03*
X2484820D02*
D03*
X225240Y639500D02*
D03*
X441340D02*
D03*
X612070D02*
D03*
X782800D02*
D03*
X953540D02*
D03*
X1124270D02*
D03*
X1295000D02*
D03*
X1465730D02*
D03*
X1636470D02*
D03*
X1807200D02*
D03*
X1977990D02*
D03*
X2148720D02*
D03*
X2319450D02*
D03*
X2570180Y554140D02*
D03*
X258710Y468770D02*
D03*
X521340D02*
D03*
X692070D02*
D03*
X862800D02*
D03*
X1033540D02*
D03*
X1204270D02*
D03*
X1375000D02*
D03*
X1545730D02*
D03*
X1716470D02*
D03*
X1887200D02*
D03*
X2057930D02*
D03*
X2228670D02*
D03*
X2399450D02*
D03*
X225240Y298040D02*
D03*
X441340D02*
D03*
X612070D02*
D03*
X782800D02*
D03*
X953540D02*
D03*
X1124270D02*
D03*
X1295000D02*
D03*
X1465730D02*
D03*
X1636470D02*
D03*
X1807200D02*
D03*
X1977930D02*
D03*
X2148670D02*
D03*
X2444820D02*
D03*
X179870Y127300D02*
D03*
X350600D02*
D03*
X521340D02*
D03*
X692070D02*
D03*
X1544290D02*
D03*
X1716520D02*
D03*
X1887250D02*
D03*
X2057990D02*
D03*
X2228720D02*
D03*
X2399450D02*
D03*
X2570180D02*
D03*
X864290D02*
D03*
D44*
X659060Y965530D02*
D03*
X609060D02*
D03*
X950540D02*
D03*
X1000540D02*
D03*
X1171270D02*
D03*
X1121270D02*
D03*
X1292000D02*
D03*
X1342000D02*
D03*
X1512730D02*
D03*
X1462730D02*
D03*
X1633470D02*
D03*
X1683470D02*
D03*
X1854200D02*
D03*
X1804200D02*
D03*
X1975150D02*
D03*
X2025150D02*
D03*
X2195880D02*
D03*
X2145880D02*
D03*
X2316450D02*
D03*
X2366450D02*
D03*
X2537180D02*
D03*
X2487180D02*
D03*
X96870D02*
D03*
X146870D02*
D03*
X317600D02*
D03*
X267600D02*
D03*
X438340D02*
D03*
X488340D02*
D03*
X829800D02*
D03*
X779800D02*
D03*
X96870Y754800D02*
D03*
X146870D02*
D03*
X317600D02*
D03*
X267600D02*
D03*
X438340D02*
D03*
X488340D02*
D03*
X659060D02*
D03*
X609060D02*
D03*
X779800D02*
D03*
X829800D02*
D03*
X1000540D02*
D03*
X950540D02*
D03*
X1121270D02*
D03*
X1171270D02*
D03*
X1342000D02*
D03*
X1292000D02*
D03*
X1462730D02*
D03*
X1512730D02*
D03*
X1683470D02*
D03*
X1633470D02*
D03*
X1804200D02*
D03*
X1854200D02*
D03*
X2025150D02*
D03*
X1975150D02*
D03*
X2145880D02*
D03*
X2195880D02*
D03*
X2451820D02*
D03*
X2401820D02*
D03*
X142240Y584500D02*
D03*
X192240D02*
D03*
X408340D02*
D03*
X358340D02*
D03*
X529070D02*
D03*
X579070D02*
D03*
X749800D02*
D03*
X699800D02*
D03*
X870540D02*
D03*
X920540D02*
D03*
X1091270D02*
D03*
X1041270D02*
D03*
X1212000D02*
D03*
X1262000D02*
D03*
X1432730D02*
D03*
X1382730D02*
D03*
X1553470D02*
D03*
X1603470D02*
D03*
X1774200D02*
D03*
X1724200D02*
D03*
X1894990D02*
D03*
X1944990D02*
D03*
X2115720D02*
D03*
X2065720D02*
D03*
X2236450D02*
D03*
X2286450D02*
D03*
X2537180Y499140D02*
D03*
X2487180D02*
D03*
X175710Y413770D02*
D03*
X225710D02*
D03*
X488340D02*
D03*
X438340D02*
D03*
X609070D02*
D03*
X659070D02*
D03*
X829800D02*
D03*
X779800D02*
D03*
X950540D02*
D03*
X1000540D02*
D03*
X1171270D02*
D03*
X1121270D02*
D03*
X1292000D02*
D03*
X1342000D02*
D03*
X1512730D02*
D03*
X1462730D02*
D03*
X1633470D02*
D03*
X1683470D02*
D03*
X1854200D02*
D03*
X1804200D02*
D03*
X1974930D02*
D03*
X2024930D02*
D03*
X2195670D02*
D03*
X2145670D02*
D03*
X2316450D02*
D03*
X2366450D02*
D03*
X192240Y243040D02*
D03*
X142240D02*
D03*
X358340D02*
D03*
X408340D02*
D03*
X579070D02*
D03*
X529070D02*
D03*
X699800D02*
D03*
X749800D02*
D03*
X920540D02*
D03*
X870540D02*
D03*
X1041270D02*
D03*
X1091270D02*
D03*
X1262000D02*
D03*
X1212000D02*
D03*
X1382730D02*
D03*
X1432730D02*
D03*
X1603470D02*
D03*
X1553470D02*
D03*
X1724200D02*
D03*
X1774200D02*
D03*
X1944930D02*
D03*
X1894930D02*
D03*
X2065670D02*
D03*
X2115670D02*
D03*
X2411820D02*
D03*
X2361820D02*
D03*
X96870Y72300D02*
D03*
X146870D02*
D03*
X317600D02*
D03*
X267600D02*
D03*
X438340D02*
D03*
X488340D02*
D03*
X659070D02*
D03*
X609070D02*
D03*
X1461290D02*
D03*
X1511290D02*
D03*
X1683520D02*
D03*
X1633520D02*
D03*
X1804250D02*
D03*
X1854250D02*
D03*
X2024990D02*
D03*
X1974990D02*
D03*
X2145720D02*
D03*
X2195720D02*
D03*
X2366450D02*
D03*
X2316450D02*
D03*
X2487180D02*
D03*
X2537180D02*
D03*
X831290D02*
D03*
X781290D02*
D03*
D45*
X2615050Y980490D02*
D03*
Y112790D02*
D03*
X1717030Y1098890D02*
D03*
X917030D02*
D03*
X1717030Y-6060D02*
D03*
X917030D02*
D03*
X19000Y980490D02*
D03*
Y119640D02*
D03*
D46*
X89000Y885000D02*
D03*
X1116000Y157000D02*
D03*
X995511Y168469D02*
D03*
X1512000Y484000D02*
D03*
X2192529Y597394D02*
D03*
X1944795Y651000D02*
D03*
X2177439Y1036631D02*
D03*
X146838Y111300D02*
D03*
X317000Y140000D02*
D03*
X971996Y110995D02*
D03*
X972310Y98166D02*
D03*
X817000Y143785D02*
D03*
X818007Y107481D02*
D03*
X1399000Y184578D02*
D03*
X1511000Y141000D02*
D03*
X1774000Y308000D02*
D03*
X1342000Y483000D02*
D03*
X920435Y652000D02*
D03*
X750328Y653042D02*
D03*
X488790Y1032527D02*
D03*
X1379000Y75000D02*
D03*
X1092000Y309688D02*
D03*
X1325000Y91000D02*
D03*
X1015996Y153339D02*
D03*
X1278000Y223000D02*
D03*
X1314696Y285480D02*
D03*
X1312036Y234964D02*
D03*
X1270000Y184000D02*
D03*
X1256379Y216360D02*
D03*
X1285941Y172838D02*
D03*
X1238670Y180737D02*
D03*
X1238000Y206000D02*
D03*
X1219000Y315000D02*
D03*
X1200000Y178000D02*
D03*
X1132000Y259000D02*
D03*
Y279000D02*
D03*
X1090946Y283144D02*
D03*
X1185971Y293762D02*
D03*
X1050000Y266000D02*
D03*
X1073000Y316000D02*
D03*
X777442Y119000D02*
D03*
X1366685Y167003D02*
D03*
X1284000Y135000D02*
D03*
X1280232Y120810D02*
D03*
X1303526Y114986D02*
D03*
X1345000Y121000D02*
D03*
X1350000Y141000D02*
D03*
X1371000Y100000D02*
D03*
X1298000Y90000D02*
D03*
X1276610Y64000D02*
D03*
X1241000Y75000D02*
D03*
Y52000D02*
D03*
X1186389Y160932D02*
D03*
X1092518Y154250D02*
D03*
X1148232Y161929D02*
D03*
X850000Y142000D02*
D03*
X830721Y143334D02*
D03*
X836000Y155000D02*
D03*
X880009Y68300D02*
D03*
X869123D02*
D03*
X891900Y69000D02*
D03*
X899476Y33749D02*
D03*
X924795Y32442D02*
D03*
X825000Y101000D02*
D03*
X834000D02*
D03*
X1153577Y82630D02*
D03*
X1155945Y125113D02*
D03*
X1177664Y121088D02*
D03*
X1154000Y94770D02*
D03*
X1155868Y132570D02*
D03*
X1186000Y86000D02*
D03*
X1192553Y59332D02*
D03*
X1195346Y85580D02*
D03*
X1276611Y33676D02*
D03*
X1132001Y247660D02*
D03*
X1533000Y113705D02*
D03*
X1316000Y486000D02*
D03*
X1544000Y293000D02*
D03*
X1602707Y282040D02*
D03*
X1584683Y314809D02*
D03*
X1603693Y310540D02*
D03*
X1036000Y314000D02*
D03*
X528000D02*
D03*
X1259357Y309143D02*
D03*
X1079868Y169184D02*
D03*
X1083000Y154000D02*
D03*
X640701Y1037452D02*
D03*
X1811931Y1010669D02*
D03*
X931493Y131572D02*
D03*
X1664910Y1037507D02*
D03*
X2096760Y657697D02*
D03*
X2347592Y144071D02*
D03*
X2096879Y316000D02*
D03*
X2347591Y1038000D02*
D03*
X470539Y144093D02*
D03*
X1926055Y314336D02*
D03*
X1943970Y312982D02*
D03*
X2176874Y485007D02*
D03*
X2195177Y482761D02*
D03*
X1077587Y135735D02*
D03*
X2409918Y790953D02*
D03*
X881225Y102356D02*
D03*
X1073362Y657196D02*
D03*
X1151828Y826809D02*
D03*
X1171573Y821427D02*
D03*
X469916Y1037717D02*
D03*
X1755810Y315000D02*
D03*
X1323515Y827296D02*
D03*
X2005955Y1037407D02*
D03*
X298710Y1037731D02*
D03*
X619361Y449370D02*
D03*
X1665120Y144334D02*
D03*
X1493880Y827000D02*
D03*
X1512301Y824430D02*
D03*
X1835591Y1038056D02*
D03*
X1854121Y1032340D02*
D03*
X128069Y1038211D02*
D03*
X981802Y486393D02*
D03*
X2267000Y657000D02*
D03*
X1663868Y826868D02*
D03*
X128186Y826900D02*
D03*
X146653Y823642D02*
D03*
X2025082Y140776D02*
D03*
X1152275Y485625D02*
D03*
X389385Y656652D02*
D03*
X1835360Y828000D02*
D03*
X1493817Y1037830D02*
D03*
X2176696Y144884D02*
D03*
X2195492Y141032D02*
D03*
X299098Y826872D02*
D03*
X2005702Y827000D02*
D03*
X1323351Y1036871D02*
D03*
X224939Y483134D02*
D03*
X901640Y315063D02*
D03*
X1774361Y651039D02*
D03*
X469000Y827000D02*
D03*
X2177265Y826745D02*
D03*
X1152549Y1037392D02*
D03*
X730471Y315000D02*
D03*
X639578Y826604D02*
D03*
X2433160Y826209D02*
D03*
X982000Y1037000D02*
D03*
X127833Y144320D02*
D03*
X560000Y316000D02*
D03*
X811000Y827000D02*
D03*
X2518000Y1038000D02*
D03*
X811000Y1037000D02*
D03*
X1243000Y656000D02*
D03*
X1170023Y792937D02*
D03*
X914979Y127805D02*
D03*
X1082711Y110515D02*
D03*
X1082940Y120112D02*
D03*
X98931Y498069D02*
D03*
X767000Y147000D02*
D03*
X1502000Y13000D02*
D03*
X1432000Y652000D02*
D03*
X1414000Y656000D02*
D03*
X408335Y652009D02*
D03*
X2574000Y293000D02*
D03*
X2393000Y315000D02*
D03*
X2518035Y144000D02*
D03*
X788057Y1011780D02*
D03*
X837382Y30353D02*
D03*
X104138Y799555D02*
D03*
X98000Y183000D02*
D03*
X103437Y106986D02*
D03*
X1674780Y1081221D02*
D03*
X938245Y1075724D02*
D03*
X1327000Y848000D02*
D03*
X1303000Y928000D02*
D03*
X1338091Y928075D02*
D03*
X1319000Y928000D02*
D03*
X1284000Y848000D02*
D03*
X1310000D02*
D03*
X1346000D02*
D03*
X2537000Y139000D02*
D03*
X2535919Y111300D02*
D03*
X2366378Y111399D02*
D03*
X2366000Y141000D02*
D03*
X2195316Y111300D02*
D03*
X2024872D02*
D03*
X1835000Y144000D02*
D03*
X1812607Y106141D02*
D03*
X1683596Y111300D02*
D03*
X1683000Y139000D02*
D03*
X1510882Y111300D02*
D03*
X1493021Y141979D02*
D03*
X658429Y111300D02*
D03*
X659000Y139000D02*
D03*
X641000Y144000D02*
D03*
X277000Y107354D02*
D03*
X299000Y144000D02*
D03*
X316917Y111300D02*
D03*
X147000Y140000D02*
D03*
X2412081Y282040D02*
D03*
X2412000Y309000D02*
D03*
X2076000Y312000D02*
D03*
X2115000D02*
D03*
X2115253Y282040D02*
D03*
X1944823D02*
D03*
X1433000Y312000D02*
D03*
X1431807Y282040D02*
D03*
X1414000Y316000D02*
D03*
X920000Y309000D02*
D03*
X919863Y282040D02*
D03*
X749400D02*
D03*
X579000Y309000D02*
D03*
X578645Y282040D02*
D03*
X407695Y282285D02*
D03*
X409000Y310000D02*
D03*
X191840Y282055D02*
D03*
X173191Y314809D02*
D03*
X192000Y312000D02*
D03*
X2348000Y485000D02*
D03*
X2365843Y452770D02*
D03*
X1193000Y448000D02*
D03*
X1001000Y481000D02*
D03*
X488053Y452882D02*
D03*
X469000Y485000D02*
D03*
X2366000Y483000D02*
D03*
X2154000Y448000D02*
D03*
X2194911Y452770D02*
D03*
X2006000Y485000D02*
D03*
X2024000Y483000D02*
D03*
X2024576Y452770D02*
D03*
X1835000Y485000D02*
D03*
X1854000Y479000D02*
D03*
X1853296Y452770D02*
D03*
X1665000Y485000D02*
D03*
X1683000Y483000D02*
D03*
X1683304Y452770D02*
D03*
X1642000Y448000D02*
D03*
X1494149Y485000D02*
D03*
X1512336Y452770D02*
D03*
X1341099D02*
D03*
X1170000Y483000D02*
D03*
X1171080Y452770D02*
D03*
X999885D02*
D03*
X829703D02*
D03*
X830000Y480000D02*
D03*
X811000Y485000D02*
D03*
X640000D02*
D03*
X658000Y482000D02*
D03*
X658987Y452770D02*
D03*
X488000Y481000D02*
D03*
X207000Y485000D02*
D03*
X225290Y452770D02*
D03*
X2245000Y654000D02*
D03*
X2285981Y623500D02*
D03*
X1944690D02*
D03*
X1773904D02*
D03*
X1732000Y655000D02*
D03*
X1603035Y649965D02*
D03*
X1603078Y623508D02*
D03*
X1262000Y652000D02*
D03*
X1261695Y623500D02*
D03*
X1220120Y657000D02*
D03*
X1091343Y623500D02*
D03*
X1091000Y650000D02*
D03*
X191850Y623500D02*
D03*
X408105D02*
D03*
X578690D02*
D03*
X749380D02*
D03*
X920144D02*
D03*
X730940Y656000D02*
D03*
X707920D02*
D03*
X276000Y788000D02*
D03*
X1926130Y656000D02*
D03*
X1432330Y620500D02*
D03*
X1682588Y794270D02*
D03*
X890000Y112000D02*
D03*
X1047000Y111000D02*
D03*
X1046235Y164765D02*
D03*
X1098000Y188000D02*
D03*
X1088000Y183000D02*
D03*
X958000Y145000D02*
D03*
X996000Y142000D02*
D03*
X1007000Y134000D02*
D03*
X1036428Y156854D02*
D03*
X998000Y122000D02*
D03*
X962000Y159000D02*
D03*
X891900Y80000D02*
D03*
Y59052D02*
D03*
X946008Y96588D02*
D03*
X1029861Y77938D02*
D03*
X1036861Y64938D02*
D03*
X1018861D02*
D03*
X1112493Y70457D02*
D03*
X1108317Y90523D02*
D03*
X1104000Y100000D02*
D03*
X890084Y121851D02*
D03*
X896000Y146000D02*
D03*
X901000Y129748D02*
D03*
X921000Y133000D02*
D03*
X924000Y83000D02*
D03*
X912000D02*
D03*
X960000Y44000D02*
D03*
X945000D02*
D03*
X930000D02*
D03*
X915000D02*
D03*
X1204000Y451000D02*
D03*
X1226161Y413812D02*
D03*
X1231798Y420914D02*
D03*
X1055000Y134000D02*
D03*
X1044000Y120000D02*
D03*
X1216239Y40322D02*
D03*
X780000Y47000D02*
D03*
X803411Y30310D02*
D03*
X740000Y116000D02*
D03*
X1414000Y100000D02*
D03*
X1323000Y156000D02*
D03*
X1338258Y250727D02*
D03*
X1114000Y128000D02*
D03*
X1090000Y129000D02*
D03*
X1402858Y128904D02*
D03*
X1243000Y315000D02*
D03*
X1390770Y795871D02*
D03*
X1300082Y790661D02*
D03*
X1343000Y822000D02*
D03*
X146470Y794270D02*
D03*
X1374000Y437000D02*
D03*
X1287000Y603000D02*
D03*
X2182789Y600223D02*
D03*
X2153000Y586000D02*
D03*
X2150078Y596595D02*
D03*
X2286050Y649969D02*
D03*
X2544964Y785243D02*
D03*
X2527783Y836221D02*
D03*
X2537000Y840000D02*
D03*
X2535289Y785236D02*
D03*
X1343000Y794270D02*
D03*
X2115320Y623500D02*
D03*
X1755340Y657000D02*
D03*
X487653Y111300D02*
D03*
X488000Y136000D02*
D03*
X409000Y100000D02*
D03*
X901680Y656173D02*
D03*
X390000Y313000D02*
D03*
X191840Y652000D02*
D03*
X1368079Y1003421D02*
D03*
X659000Y821000D02*
D03*
X173380Y656964D02*
D03*
X318022Y794270D02*
D03*
X659362D02*
D03*
X788291Y788291D02*
D03*
X981670Y826000D02*
D03*
X1855000Y822000D02*
D03*
X489000Y823000D02*
D03*
X318000Y821000D02*
D03*
X2536780Y567000D02*
D03*
X1584610Y658000D02*
D03*
X2008000Y145061D02*
D03*
X750000Y310000D02*
D03*
X2452000Y794270D02*
D03*
X2115320Y652000D02*
D03*
X578670D02*
D03*
X1855104Y107258D02*
D03*
X1260965Y280862D02*
D03*
X1773797Y281509D02*
D03*
X1000007Y794270D02*
D03*
X2324000Y107000D02*
D03*
X1812567Y790519D02*
D03*
X1129803Y450169D02*
D03*
X104990Y1000869D02*
D03*
X609060Y1038000D02*
D03*
X1121270D02*
D03*
X1633470D02*
D03*
X2145880D02*
D03*
X146470Y1005000D02*
D03*
X317170D02*
D03*
X487980D02*
D03*
X658620D02*
D03*
X828145D02*
D03*
X1000130D02*
D03*
X1170790D02*
D03*
X1341620D02*
D03*
X2536780Y538140D02*
D03*
X1855000Y794270D02*
D03*
X2026000D02*
D03*
X2024620Y1005000D02*
D03*
X1512340D02*
D03*
X1682940D02*
D03*
X1853620D02*
D03*
X2196000Y794270D02*
D03*
X2195450Y1005000D02*
D03*
X2365654D02*
D03*
X2536230D02*
D03*
X2452000Y820904D02*
D03*
X1854000Y139000D02*
D03*
X1683000Y824061D02*
D03*
X1512000Y794270D02*
D03*
X830588D02*
D03*
X488000D02*
D03*
X2518320Y571000D02*
D03*
X2196000Y821000D02*
D03*
X2026000D02*
D03*
X1000000Y822000D02*
D03*
X830000Y821000D02*
D03*
X2024620Y1033753D02*
D03*
X2195450Y1031000D02*
D03*
X1341620D02*
D03*
X1000130D02*
D03*
X317170D02*
D03*
X146470D02*
D03*
X1512340D02*
D03*
X2366050D02*
D03*
X2536620D02*
D03*
X829290D02*
D03*
X1682940D02*
D03*
X658620D02*
D03*
X1170790D02*
D03*
X560210Y657000D02*
D03*
D47*
X1238670Y110080D02*
D03*
Y121080D02*
D03*
Y132080D02*
D03*
X1227670Y110080D02*
D03*
Y121080D02*
D03*
Y132080D02*
D03*
X1216670Y110080D02*
D03*
Y121080D02*
D03*
Y132080D02*
D03*
M02*
