G04*
G04 #@! TF.GenerationSoftware,Altium Limited,Altium Designer,24.2.2 (26)*
G04*
G04 Layer_Color=8388736*
%FSLAX44Y44*%
%MOMM*%
G71*
G04*
G04 #@! TF.SameCoordinates,2B7E99FB-4F0D-402E-9D71-9E8D4FD60802*
G04*
G04*
G04 #@! TF.FilePolarity,Positive*
G04*
G01*
G75*
%ADD96C,0.1000*%
%ADD97C,0.0500*%
D96*
X1206170Y147580D02*
G03*
X1206170Y147580I-5000J0D01*
G01*
X1134500Y157500D02*
G03*
X1134500Y157500I-4000J0D01*
G01*
X919750Y94750D02*
Y109250D01*
X897750Y94750D02*
Y109250D01*
X919750D01*
X897750Y94750D02*
X919750D01*
X913750Y52000D02*
X928250D01*
X913750Y74000D02*
X928250D01*
Y52000D02*
Y74000D01*
X913750Y52000D02*
Y74000D01*
X1091000Y107750D02*
Y122250D01*
X1113000Y107750D02*
Y122250D01*
X1091000Y107750D02*
X1113000D01*
X1091000Y122250D02*
X1113000D01*
X1082845Y61414D02*
Y75914D01*
X1104845Y61414D02*
Y75914D01*
X1082845Y61414D02*
X1104845D01*
X1082845Y75914D02*
X1104845D01*
X1263170Y85580D02*
Y156580D01*
X1192170Y85580D02*
Y156580D01*
Y85580D02*
X1263170D01*
X1192170Y156580D02*
X1263170D01*
X1371000Y114000D02*
Y148000D01*
X1319000Y114000D02*
Y148000D01*
X1371000D01*
X1319000Y114000D02*
X1371000D01*
X1053330Y283594D02*
X1063330D01*
X1053330Y289594D02*
X1063330D01*
X1053330Y283594D02*
Y289594D01*
X1063330Y283594D02*
Y289594D01*
X1253903Y202414D02*
X1263903D01*
X1253903Y208414D02*
X1263903D01*
X1253903Y202414D02*
Y208414D01*
X1263903Y202414D02*
Y208414D01*
X1319502Y272423D02*
X1329502D01*
X1319502Y278423D02*
X1329502D01*
X1319502Y272423D02*
Y278423D01*
X1329502Y272423D02*
Y278423D01*
X1246546Y331059D02*
Y341059D01*
X1240546Y331059D02*
Y341059D01*
Y331059D02*
X1246546D01*
X1240546Y341059D02*
X1246546D01*
X1401756Y197502D02*
Y207502D01*
X1395756Y197502D02*
Y207502D01*
Y197502D02*
X1401756D01*
X1395756Y207502D02*
X1401756D01*
X1300000Y278750D02*
X1310000D01*
X1300000Y272750D02*
X1310000D01*
Y278750D01*
X1300000Y272750D02*
Y278750D01*
X1285268Y21319D02*
Y31319D01*
X1291268Y21319D02*
Y31319D01*
X1285268D02*
X1291268D01*
X1285268Y21319D02*
X1291268D01*
X1291270Y36446D02*
Y46446D01*
X1285270Y36446D02*
Y46446D01*
Y36446D02*
X1291270D01*
X1285270Y46446D02*
X1291270D01*
X1285270Y51594D02*
Y61594D01*
X1291270Y51594D02*
Y61594D01*
X1285270D02*
X1291270D01*
X1285270Y51594D02*
X1291270D01*
X1291224Y66726D02*
Y76726D01*
X1285224Y66726D02*
Y76726D01*
Y66726D02*
X1291224D01*
X1285224Y76726D02*
X1291224D01*
X1285257Y82013D02*
Y92013D01*
X1291257Y82013D02*
Y92013D01*
X1285257D02*
X1291257D01*
X1285257Y82013D02*
X1291257D01*
X1351091Y164365D02*
X1361091D01*
X1351091Y158365D02*
X1361091D01*
Y164365D01*
X1351091Y158365D02*
Y164365D01*
X1351091Y176301D02*
X1361091D01*
X1351091Y170301D02*
X1361091D01*
Y176301D01*
X1351091Y170301D02*
Y176301D01*
X1275019Y160818D02*
X1285019D01*
X1275019Y166818D02*
X1285019D01*
X1275019Y160818D02*
Y166818D01*
X1285019Y160818D02*
Y166818D01*
X1224041Y294649D02*
Y304649D01*
X1230041Y294649D02*
Y304649D01*
X1224041D02*
X1230041D01*
X1224041Y294649D02*
X1230041D01*
X1053330Y295783D02*
X1063330D01*
X1053330Y301783D02*
X1063330D01*
X1053330Y295783D02*
Y301783D01*
X1063330Y295783D02*
Y301783D01*
X1088427Y292982D02*
X1098427D01*
X1088427Y298982D02*
X1098427D01*
X1088427Y292982D02*
Y298982D01*
X1098427Y292982D02*
Y298982D01*
X1137500Y280695D02*
X1147500D01*
X1137500Y286695D02*
X1147500D01*
X1137500Y280695D02*
Y286695D01*
X1147500Y280695D02*
Y286695D01*
X1137500Y268483D02*
X1147500D01*
X1137500Y274483D02*
X1147500D01*
X1137500Y268483D02*
Y274483D01*
X1147500Y268483D02*
Y274483D01*
X1137500Y256370D02*
X1147500D01*
X1137500Y262370D02*
X1147500D01*
X1137500Y256370D02*
Y262370D01*
X1147500Y256370D02*
Y262370D01*
X1137500Y244317D02*
X1147500D01*
X1137500Y250317D02*
X1147500D01*
X1137500Y244317D02*
Y250317D01*
X1147500Y244317D02*
Y250317D01*
X1122500Y165500D02*
X1143500D01*
X1122500Y134500D02*
X1143500D01*
X1122500D02*
Y165500D01*
X1143500Y134500D02*
Y165500D01*
X1055000Y127000D02*
X1077000D01*
X1055000Y141000D02*
X1077000D01*
Y127000D02*
Y141000D01*
X1055000Y127000D02*
Y141000D01*
X968000Y144000D02*
X990000D01*
X968000Y158000D02*
X990000D01*
Y144000D02*
Y158000D01*
X968000Y144000D02*
Y158000D01*
X930500Y124000D02*
X943500D01*
X930500Y102000D02*
X943500D01*
Y124000D01*
X930500Y102000D02*
Y124000D01*
X824647Y127084D02*
X846647D01*
X824647Y113084D02*
X846647D01*
X824647D02*
Y127084D01*
X846647Y113084D02*
Y127084D01*
X1048500Y132500D02*
Y149500D01*
X1039500Y132500D02*
Y149500D01*
Y132500D02*
X1048500D01*
X1039500Y149500D02*
X1048500D01*
X915500Y141500D02*
Y158500D01*
X906500Y141500D02*
Y158500D01*
Y141500D02*
X915500D01*
X906500Y158500D02*
X915500D01*
D97*
X885166Y74250D02*
Y91750D01*
X875666Y74250D02*
Y91750D01*
Y74250D02*
X885166D01*
X875666Y91750D02*
X885166D01*
X873750Y74250D02*
Y91750D01*
X864250Y74250D02*
Y91750D01*
Y74250D02*
X873750D01*
X864250Y91750D02*
X873750D01*
X953394Y119250D02*
Y136750D01*
X962894Y119250D02*
Y136750D01*
X953394D02*
X962894D01*
X953394Y119250D02*
X962894D01*
X900250Y112250D02*
X917750D01*
X900250Y121750D02*
X917750D01*
X900250Y112250D02*
Y121750D01*
X917750Y112250D02*
Y121750D01*
X901250Y55250D02*
Y72750D01*
X910750Y55250D02*
Y72750D01*
X901250D02*
X910750D01*
X901250Y55250D02*
X910750D01*
X1161421Y77884D02*
X1178921D01*
X1161421Y87384D02*
X1178921D01*
X1161421Y77884D02*
Y87384D01*
X1178921Y77884D02*
Y87384D01*
X1161387Y90021D02*
X1178887D01*
X1161387Y99521D02*
X1178887D01*
X1161387Y90021D02*
Y99521D01*
X1178887Y90021D02*
Y99521D01*
X954750Y95250D02*
Y100750D01*
X965250Y95250D02*
Y100750D01*
X954750Y95250D02*
X965250D01*
X954750Y100750D02*
X965250D01*
X1062750Y153753D02*
Y159253D01*
X1073250Y153753D02*
Y159253D01*
X1062750Y153753D02*
X1073250D01*
X1062750Y159253D02*
X1073250D01*
X1296252Y243066D02*
Y248566D01*
X1306752Y243066D02*
Y248566D01*
X1296252Y243066D02*
X1306752D01*
X1296252Y248566D02*
X1306752D01*
X1222750Y318746D02*
Y324246D01*
X1233250Y318746D02*
Y324246D01*
X1222750Y318746D02*
X1233250D01*
X1222750Y324246D02*
X1233250D01*
X1378506Y194752D02*
Y200252D01*
X1389006Y194752D02*
Y200252D01*
X1378506Y194752D02*
X1389006D01*
X1378506Y200252D02*
X1389006D01*
X1319252Y243066D02*
Y248566D01*
X1329752Y243066D02*
Y248566D01*
X1319252Y243066D02*
X1329752D01*
X1319252Y248566D02*
X1329752D01*
X1253750Y185250D02*
Y190750D01*
X1264250Y185250D02*
Y190750D01*
X1253750Y185250D02*
X1264250D01*
X1253750Y190750D02*
X1264250D01*
X994250Y159250D02*
X999750D01*
X994250Y148750D02*
X999750D01*
X994250D02*
Y159250D01*
X999750Y148750D02*
Y159250D01*
X938638Y89904D02*
Y95404D01*
X928138Y89904D02*
Y95404D01*
X938638D01*
X928138Y89904D02*
X938638D01*
X1168959Y290442D02*
Y295942D01*
X1179458Y290442D02*
Y295942D01*
X1168959Y290442D02*
X1179458D01*
X1168959Y295942D02*
X1179458D01*
X1113216Y139295D02*
X1118716D01*
X1113216Y149795D02*
X1118716D01*
Y139295D02*
Y149795D01*
X1113216Y139295D02*
Y149795D01*
X1357651Y103422D02*
Y108922D01*
X1368151Y103422D02*
Y108922D01*
X1357651Y103422D02*
X1368151D01*
X1357651Y108922D02*
X1368151D01*
X1308250Y142750D02*
X1313750D01*
X1308250Y153250D02*
X1313750D01*
Y142750D02*
Y153250D01*
X1308250Y142750D02*
Y153250D01*
X1172250Y118250D02*
Y123750D01*
X1161750Y118250D02*
Y123750D01*
X1172250D01*
X1161750Y118250D02*
X1172250D01*
X1203071Y166963D02*
Y172463D01*
X1192571Y166963D02*
Y172463D01*
X1203071D01*
X1192571Y166963D02*
X1203071D01*
X1185181Y74099D02*
X1190682D01*
X1185181Y63599D02*
X1190682D01*
X1185181D02*
Y74099D01*
X1190682Y63599D02*
Y74099D01*
X1097812Y124880D02*
Y130380D01*
X1108312Y124880D02*
Y130380D01*
X1097812Y124880D02*
X1108312D01*
X1097812Y130380D02*
X1108312D01*
X1235476Y187701D02*
X1240976D01*
X1235476Y198201D02*
X1240976D01*
Y187701D02*
Y198201D01*
X1235476Y187701D02*
Y198201D01*
X1286750Y117250D02*
Y122750D01*
X1297250Y117250D02*
Y122750D01*
X1286750Y117250D02*
X1297250D01*
X1286750Y122750D02*
X1297250D01*
X1238250Y70250D02*
X1243750D01*
X1238250Y59750D02*
X1243750D01*
X1238250D02*
Y70250D01*
X1243750Y59750D02*
Y70250D01*
X1194181Y74099D02*
X1199681D01*
X1194181Y63599D02*
X1199681D01*
X1194181D02*
Y74099D01*
X1199681Y63599D02*
Y74099D01*
X1172250Y126250D02*
Y131750D01*
X1161750Y126250D02*
Y131750D01*
X1172250D01*
X1161750Y126250D02*
X1172250D01*
X1286750Y109250D02*
Y114750D01*
X1297250Y109250D02*
Y114750D01*
X1286750Y109250D02*
X1297250D01*
X1286750Y114750D02*
X1297250D01*
X1172250Y134250D02*
Y139750D01*
X1161750Y134250D02*
Y139750D01*
X1172250D01*
X1161750Y134250D02*
X1172250D01*
X981234Y118843D02*
Y124343D01*
X970734Y118843D02*
Y124343D01*
X981234D01*
X970734Y118843D02*
X981234D01*
X1078580Y283855D02*
Y289355D01*
X1068080Y283855D02*
Y289355D01*
X1078580D01*
X1068080Y283855D02*
X1078580D01*
X1253752Y193150D02*
Y198650D01*
X1264252Y193150D02*
Y198650D01*
X1253752Y193150D02*
X1264252D01*
X1253752Y198650D02*
X1264252D01*
X1319252Y259066D02*
Y264566D01*
X1329752Y259066D02*
Y264566D01*
X1319252Y259066D02*
X1329752D01*
X1319252Y264566D02*
X1329752D01*
X1222750Y336131D02*
Y341631D01*
X1233250Y336131D02*
Y341631D01*
X1222750Y336131D02*
X1233250D01*
X1222750Y341631D02*
X1233250D01*
X1378506Y202752D02*
Y208251D01*
X1389006Y202752D02*
Y208251D01*
X1378506Y202752D02*
X1389006D01*
X1378506Y208251D02*
X1389006D01*
X1295752Y253566D02*
X1301252D01*
X1295752Y264066D02*
X1301252D01*
Y253566D02*
Y264066D01*
X1295752Y253566D02*
Y264066D01*
X1280518Y23569D02*
Y29069D01*
X1270018Y23569D02*
Y29069D01*
X1280518D01*
X1270018Y23569D02*
X1280518D01*
X1278520Y42252D02*
Y47753D01*
X1268020Y42252D02*
Y47753D01*
X1278520D01*
X1268020Y42252D02*
X1278520D01*
Y50250D02*
Y55750D01*
X1268020Y50250D02*
Y55750D01*
X1278520D01*
X1268020Y50250D02*
X1278520D01*
X1280520Y69085D02*
Y74585D01*
X1270020Y69085D02*
Y74585D01*
X1280520D01*
X1270020Y69085D02*
X1280520D01*
X1275864Y81912D02*
X1281364D01*
X1275864Y92412D02*
X1281364D01*
Y81912D02*
Y92412D01*
X1275864Y81912D02*
Y92412D01*
X1345873Y158359D02*
Y163859D01*
X1335373Y158359D02*
Y163859D01*
X1345873D01*
X1335373Y158359D02*
X1345873D01*
Y166359D02*
Y171859D01*
X1335373Y166359D02*
Y171859D01*
X1345873D01*
X1335373Y166359D02*
X1345873D01*
X1285250Y151250D02*
Y156750D01*
X1274750Y151250D02*
Y156750D01*
X1285250D01*
X1274750Y151250D02*
X1285250D01*
X1224325Y289903D02*
X1229825D01*
X1224325Y279403D02*
X1229825D01*
X1224325D02*
Y289903D01*
X1229825Y279403D02*
Y289903D01*
X1068080Y296038D02*
Y301538D01*
X1078580Y296038D02*
Y301538D01*
X1068080Y296038D02*
X1078580D01*
X1068080Y301538D02*
X1078580D01*
X1103177Y292860D02*
Y298360D01*
X1113677Y292860D02*
Y298360D01*
X1103177Y292860D02*
X1113677D01*
X1103177Y298360D02*
X1113677D01*
X1152250Y280872D02*
Y286372D01*
X1162750Y280872D02*
Y286372D01*
X1152250Y280872D02*
X1162750D01*
X1152250Y286372D02*
X1162750D01*
X1152250Y268773D02*
Y274273D01*
X1162750Y268773D02*
Y274273D01*
X1152250Y268773D02*
X1162750D01*
X1152250Y274273D02*
X1162750D01*
X1152250Y256895D02*
Y262395D01*
X1162750Y256895D02*
Y262395D01*
X1152250Y256895D02*
X1162750D01*
X1152250Y262395D02*
X1162750D01*
X1152250Y244137D02*
Y249638D01*
X1162750Y244137D02*
Y249638D01*
X1152250Y244137D02*
X1162750D01*
X1152250Y249638D02*
X1162750D01*
X878250Y111750D02*
X883750D01*
X878250Y122250D02*
X883750D01*
Y111750D02*
Y122250D01*
X878250Y111750D02*
Y122250D01*
X863247Y111260D02*
Y116761D01*
X873747Y111260D02*
Y116761D01*
X863247Y111260D02*
X873747D01*
X863247Y116761D02*
X873747D01*
X850602Y116413D02*
X856102D01*
X850602Y126913D02*
X856102D01*
Y116413D02*
Y126913D01*
X850602Y116413D02*
Y126913D01*
X850600Y111749D02*
X856100D01*
X850600Y101249D02*
X856100D01*
X850600D02*
Y111749D01*
X856100Y101249D02*
Y111749D01*
X1404750Y107250D02*
Y112750D01*
X1415250Y107250D02*
Y112750D01*
X1404750Y107250D02*
X1415250D01*
X1404750Y112750D02*
X1415250D01*
X981262Y126894D02*
Y132394D01*
X970762Y126894D02*
Y132394D01*
X981262D01*
X970762Y126894D02*
X981262D01*
X1018220Y157035D02*
Y162535D01*
X1028720Y157035D02*
Y162535D01*
X1018220Y157035D02*
X1028720D01*
X1018220Y162535D02*
X1028720D01*
X938750Y129250D02*
Y134750D01*
X949250Y129250D02*
Y134750D01*
X938750Y129250D02*
X949250D01*
X938750Y134750D02*
X949250D01*
X1028716Y166053D02*
Y171553D01*
X1018215Y166053D02*
Y171553D01*
X1028716D01*
X1018215Y166053D02*
X1028716D01*
X938750Y138250D02*
Y143750D01*
X949250Y138250D02*
Y143750D01*
X938750Y138250D02*
X949250D01*
X938750Y143750D02*
X949250D01*
X965250Y108250D02*
Y113750D01*
X954750Y108250D02*
Y113750D01*
X965250D01*
X954750Y108250D02*
X965250D01*
X1055750Y109250D02*
Y114750D01*
X1066250Y109250D02*
Y114750D01*
X1055750Y109250D02*
X1066250D01*
X1055750Y114750D02*
X1066250D01*
X1062719Y170088D02*
Y175588D01*
X1073219Y170088D02*
Y175588D01*
X1062719Y170088D02*
X1073219D01*
X1062719Y175588D02*
X1073219D01*
X1062687Y161896D02*
Y167396D01*
X1073187Y161896D02*
Y167396D01*
X1062687Y161896D02*
X1073187D01*
X1062687Y167396D02*
X1073187D01*
X1064019Y101235D02*
Y106735D01*
X1074519Y101235D02*
Y106735D01*
X1064019Y101235D02*
X1074519D01*
X1064019Y106735D02*
X1074519D01*
X1206107Y41553D02*
X1211607D01*
X1206107Y31053D02*
X1211607D01*
X1206107D02*
Y41553D01*
X1211607Y31053D02*
Y41553D01*
X1107852Y79196D02*
Y84696D01*
X1097352Y79196D02*
Y84696D01*
X1107852D01*
X1097352Y79196D02*
X1107852D01*
X1092830Y79250D02*
Y84750D01*
X1082330Y79250D02*
Y84750D01*
X1092830D01*
X1082330Y79250D02*
X1092830D01*
X1508750Y12250D02*
Y17750D01*
X1519250Y12250D02*
Y17750D01*
X1508750Y12250D02*
X1519250D01*
X1508750Y17750D02*
X1519250D01*
X918045Y29193D02*
Y34693D01*
X907545Y29193D02*
Y34693D01*
X918045D01*
X907545Y29193D02*
X918045D01*
X1098949Y168129D02*
Y173629D01*
X1109449Y168129D02*
Y173629D01*
X1098949Y168129D02*
X1109449D01*
X1098949Y173629D02*
X1109449D01*
X1105136Y152767D02*
X1110636D01*
X1105136Y163267D02*
X1110636D01*
Y152767D02*
Y163267D01*
X1105136Y152767D02*
Y163267D01*
X1301964Y123258D02*
Y128758D01*
X1312464Y123258D02*
Y128758D01*
X1301964Y123258D02*
X1312464D01*
X1301964Y128758D02*
X1312464D01*
X1304751Y264066D02*
X1310252D01*
X1304751Y253566D02*
X1310252D01*
X1304751D02*
Y264066D01*
X1310252Y253566D02*
Y264066D01*
X1233250Y327500D02*
Y333000D01*
X1222750Y327500D02*
Y333000D01*
X1233250D01*
X1222750Y327500D02*
X1233250D01*
X1389066Y186452D02*
Y191952D01*
X1378566Y186452D02*
Y191952D01*
X1389066D01*
X1378566Y186452D02*
X1389066D01*
X1329752Y251066D02*
Y256567D01*
X1319252Y251066D02*
Y256567D01*
X1329752D01*
X1319252Y251066D02*
X1329752D01*
X1253750Y177250D02*
Y182750D01*
X1264250Y177250D02*
Y182750D01*
X1253750Y177250D02*
X1264250D01*
X1253750Y182750D02*
X1264250D01*
X1179421Y282356D02*
Y287856D01*
X1168921Y282356D02*
Y287856D01*
X1179421D01*
X1168921Y282356D02*
X1179421D01*
X1164774Y110157D02*
Y115657D01*
X1175274Y110157D02*
Y115657D01*
X1164774Y110157D02*
X1175274D01*
X1164774Y115657D02*
X1175274D01*
X1164807Y102098D02*
Y107598D01*
X1175306Y102098D02*
Y107598D01*
X1164807Y102098D02*
X1175306D01*
X1164807Y107598D02*
X1175306D01*
M02*
