G04*
G04 #@! TF.GenerationSoftware,Altium Limited,Altium Designer,24.2.2 (26)*
G04*
G04 Layer_Color=128*
%FSLAX44Y44*%
%MOMM*%
G71*
G04*
G04 #@! TF.SameCoordinates,2B7E99FB-4F0D-402E-9D71-9E8D4FD60802*
G04*
G04*
G04 #@! TF.FilePolarity,Positive*
G04*
G01*
G75*
%ADD102C,0.1270*%
D102*
X1133100Y40700D02*
X1143100D01*
X1138100Y35700D02*
Y45700D01*
X1107700Y40700D02*
X1117700D01*
X1112700Y35700D02*
Y45700D01*
X1082300Y40700D02*
X1092300D01*
X1087300Y35700D02*
Y45700D01*
X1056900Y40700D02*
X1066900D01*
X1061900Y35700D02*
Y45700D01*
X1031500Y40700D02*
X1041500D01*
X1036500Y35700D02*
Y45700D01*
X1006100Y40700D02*
X1016100D01*
X1011100Y35700D02*
Y45700D01*
X1183900Y40700D02*
X1193900D01*
X1188900Y35700D02*
Y45700D01*
X1158500Y40700D02*
X1168500D01*
X1163500Y35700D02*
Y45700D01*
X565060Y933030D02*
X576060D01*
X570560Y927530D02*
Y938530D01*
X692060Y1053030D02*
X703060D01*
X697560Y1047530D02*
Y1058530D01*
X686060Y1020530D02*
X698060D01*
X692060Y1014530D02*
Y1026530D01*
X571060Y965530D02*
X581060D01*
X576060Y960530D02*
Y970530D01*
X565060Y1053030D02*
X576060D01*
X570560Y1047530D02*
Y1058530D01*
X692060Y933030D02*
X703060D01*
X697560Y927530D02*
Y938530D01*
X653560Y965530D02*
X664560D01*
X659060Y960030D02*
Y971030D01*
X603560Y965530D02*
X614560D01*
X609060Y960030D02*
Y971030D01*
X945040Y965530D02*
X956040D01*
X950540Y960030D02*
Y971030D01*
X995040Y965530D02*
X1006040D01*
X1000540Y960030D02*
Y971030D01*
X1033540Y933030D02*
X1044540D01*
X1039040Y927530D02*
Y938530D01*
X906540Y1053030D02*
X917540D01*
X912040Y1047530D02*
Y1058530D01*
X912540Y965530D02*
X922540D01*
X917540Y960530D02*
Y970530D01*
X1027540Y1020530D02*
X1039540D01*
X1033540Y1014530D02*
Y1026530D01*
Y1053030D02*
X1044540D01*
X1039040Y1047530D02*
Y1058530D01*
X906540Y933030D02*
X917540D01*
X912040Y927530D02*
Y938530D01*
X1077270Y933030D02*
X1088270D01*
X1082770Y927530D02*
Y938530D01*
X1204270Y1053030D02*
X1215270D01*
X1209770Y1047530D02*
Y1058530D01*
X1198270Y1020530D02*
X1210270D01*
X1204270Y1014530D02*
Y1026530D01*
X1083270Y965530D02*
X1093270D01*
X1088270Y960530D02*
Y970530D01*
X1077270Y1053030D02*
X1088270D01*
X1082770Y1047530D02*
Y1058530D01*
X1204270Y933030D02*
X1215270D01*
X1209770Y927530D02*
Y938530D01*
X1165770Y965530D02*
X1176770D01*
X1171270Y960030D02*
Y971030D01*
X1115770Y965530D02*
X1126770D01*
X1121270Y960030D02*
Y971030D01*
X1286500Y965530D02*
X1297500D01*
X1292000Y960030D02*
Y971030D01*
X1336500Y965530D02*
X1347500D01*
X1342000Y960030D02*
Y971030D01*
X1375000Y933030D02*
X1386000D01*
X1380500Y927530D02*
Y938530D01*
X1248000Y1053030D02*
X1259000D01*
X1253500Y1047530D02*
Y1058530D01*
X1254000Y965530D02*
X1264000D01*
X1259000Y960530D02*
Y970530D01*
X1369000Y1020530D02*
X1381000D01*
X1375000Y1014530D02*
Y1026530D01*
Y1053030D02*
X1386000D01*
X1380500Y1047530D02*
Y1058530D01*
X1248000Y933030D02*
X1259000D01*
X1253500Y927530D02*
Y938530D01*
X1418730Y933030D02*
X1429730D01*
X1424230Y927530D02*
Y938530D01*
X1545730Y1053030D02*
X1556730D01*
X1551230Y1047530D02*
Y1058530D01*
X1539730Y1020530D02*
X1551730D01*
X1545730Y1014530D02*
Y1026530D01*
X1424730Y965530D02*
X1434730D01*
X1429730Y960530D02*
Y970530D01*
X1418730Y1053030D02*
X1429730D01*
X1424230Y1047530D02*
Y1058530D01*
X1545730Y933030D02*
X1556730D01*
X1551230Y927530D02*
Y938530D01*
X1507230Y965530D02*
X1518230D01*
X1512730Y960030D02*
Y971030D01*
X1457230Y965530D02*
X1468230D01*
X1462730Y960030D02*
Y971030D01*
X1627970Y965530D02*
X1638970D01*
X1633470Y960030D02*
Y971030D01*
X1677970Y965530D02*
X1688970D01*
X1683470Y960030D02*
Y971030D01*
X1716470Y933030D02*
X1727470D01*
X1721970Y927530D02*
Y938530D01*
X1589470Y1053030D02*
X1600470D01*
X1594970Y1047530D02*
Y1058530D01*
X1595470Y965530D02*
X1605470D01*
X1600470Y960530D02*
Y970530D01*
X1710470Y1020530D02*
X1722470D01*
X1716470Y1014530D02*
Y1026530D01*
Y1053030D02*
X1727470D01*
X1721970Y1047530D02*
Y1058530D01*
X1589470Y933030D02*
X1600470D01*
X1594970Y927530D02*
Y938530D01*
X1760200Y933030D02*
X1771200D01*
X1765700Y927530D02*
Y938530D01*
X1887200Y1053030D02*
X1898200D01*
X1892700Y1047530D02*
Y1058530D01*
X1881200Y1020530D02*
X1893200D01*
X1887200Y1014530D02*
Y1026530D01*
X1766200Y965530D02*
X1776200D01*
X1771200Y960530D02*
Y970530D01*
X1760200Y1053030D02*
X1771200D01*
X1765700Y1047530D02*
Y1058530D01*
X1887200Y933030D02*
X1898200D01*
X1892700Y927530D02*
Y938530D01*
X1848700Y965530D02*
X1859700D01*
X1854200Y960030D02*
Y971030D01*
X1798700Y965530D02*
X1809700D01*
X1804200Y960030D02*
Y971030D01*
X1969650Y965530D02*
X1980650D01*
X1975150Y960030D02*
Y971030D01*
X2019650Y965530D02*
X2030650D01*
X2025150Y960030D02*
Y971030D01*
X2058150Y933030D02*
X2069150D01*
X2063650Y927530D02*
Y938530D01*
X1931150Y1053030D02*
X1942150D01*
X1936650Y1047530D02*
Y1058530D01*
X1937150Y965530D02*
X1947150D01*
X1942150Y960530D02*
Y970530D01*
X2052150Y1020530D02*
X2064150D01*
X2058150Y1014530D02*
Y1026530D01*
Y1053030D02*
X2069150D01*
X2063650Y1047530D02*
Y1058530D01*
X1931150Y933030D02*
X1942150D01*
X1936650Y927530D02*
Y938530D01*
X2101880Y933030D02*
X2112880D01*
X2107380Y927530D02*
Y938530D01*
X2228880Y1053030D02*
X2239880D01*
X2234380Y1047530D02*
Y1058530D01*
X2222880Y1020530D02*
X2234880D01*
X2228880Y1014530D02*
Y1026530D01*
X2107880Y965530D02*
X2117880D01*
X2112880Y960530D02*
Y970530D01*
X2101880Y1053030D02*
X2112880D01*
X2107380Y1047530D02*
Y1058530D01*
X2228880Y933030D02*
X2239880D01*
X2234380Y927530D02*
Y938530D01*
X2190380Y965530D02*
X2201380D01*
X2195880Y960030D02*
Y971030D01*
X2140380Y965530D02*
X2151380D01*
X2145880Y960030D02*
Y971030D01*
X2310950Y965530D02*
X2321950D01*
X2316450Y960030D02*
Y971030D01*
X2360950Y965530D02*
X2371950D01*
X2366450Y960030D02*
Y971030D01*
X2399450Y933030D02*
X2410450D01*
X2404950Y927530D02*
Y938530D01*
X2272450Y1053030D02*
X2283450D01*
X2277950Y1047530D02*
Y1058530D01*
X2278450Y965530D02*
X2288450D01*
X2283450Y960530D02*
Y970530D01*
X2393450Y1020530D02*
X2405450D01*
X2399450Y1014530D02*
Y1026530D01*
Y1053030D02*
X2410450D01*
X2404950Y1047530D02*
Y1058530D01*
X2272450Y933030D02*
X2283450D01*
X2277950Y927530D02*
Y938530D01*
X2443180Y933030D02*
X2454180D01*
X2448680Y927530D02*
Y938530D01*
X2570180Y1053030D02*
X2581180D01*
X2575680Y1047530D02*
Y1058530D01*
X2564180Y1020530D02*
X2576180D01*
X2570180Y1014530D02*
Y1026530D01*
X2449180Y965530D02*
X2459180D01*
X2454180Y960530D02*
Y970530D01*
X2443180Y1053030D02*
X2454180D01*
X2448680Y1047530D02*
Y1058530D01*
X2570180Y933030D02*
X2581180D01*
X2575680Y927530D02*
Y938530D01*
X2531680Y965530D02*
X2542680D01*
X2537180Y960030D02*
Y971030D01*
X2481680Y965530D02*
X2492680D01*
X2487180Y960030D02*
Y971030D01*
X91370Y965530D02*
X102370D01*
X96870Y960030D02*
Y971030D01*
X141370Y965530D02*
X152370D01*
X146870Y960030D02*
Y971030D01*
X179870Y933030D02*
X190870D01*
X185370Y927530D02*
Y938530D01*
X52870Y1053030D02*
X63870D01*
X58370Y1047530D02*
Y1058530D01*
X58870Y965530D02*
X68870D01*
X63870Y960530D02*
Y970530D01*
X173870Y1020530D02*
X185870D01*
X179870Y1014530D02*
Y1026530D01*
Y1053030D02*
X190870D01*
X185370Y1047530D02*
Y1058530D01*
X52870Y933030D02*
X63870D01*
X58370Y927530D02*
Y938530D01*
X223600Y933030D02*
X234600D01*
X229100Y927530D02*
Y938530D01*
X350600Y1053030D02*
X361600D01*
X356100Y1047530D02*
Y1058530D01*
X344600Y1020530D02*
X356600D01*
X350600Y1014530D02*
Y1026530D01*
X229600Y965530D02*
X239600D01*
X234600Y960530D02*
Y970530D01*
X223600Y1053030D02*
X234600D01*
X229100Y1047530D02*
Y1058530D01*
X350600Y933030D02*
X361600D01*
X356100Y927530D02*
Y938530D01*
X312100Y965530D02*
X323100D01*
X317600Y960030D02*
Y971030D01*
X262100Y965530D02*
X273100D01*
X267600Y960030D02*
Y971030D01*
X432840Y965530D02*
X443840D01*
X438340Y960030D02*
Y971030D01*
X482840Y965530D02*
X493840D01*
X488340Y960030D02*
Y971030D01*
X521340Y933030D02*
X532340D01*
X526840Y927530D02*
Y938530D01*
X394340Y1053030D02*
X405340D01*
X399840Y1047530D02*
Y1058530D01*
X400340Y965530D02*
X410340D01*
X405340Y960530D02*
Y970530D01*
X515340Y1020530D02*
X527340D01*
X521340Y1014530D02*
Y1026530D01*
Y1053030D02*
X532340D01*
X526840Y1047530D02*
Y1058530D01*
X394340Y933030D02*
X405340D01*
X399840Y927530D02*
Y938530D01*
X735800Y933030D02*
X746800D01*
X741300Y927530D02*
Y938530D01*
X862800Y1053030D02*
X873800D01*
X868300Y1047530D02*
Y1058530D01*
X856800Y1020530D02*
X868800D01*
X862800Y1014530D02*
Y1026530D01*
X741800Y965530D02*
X751800D01*
X746800Y960530D02*
Y970530D01*
X735800Y1053030D02*
X746800D01*
X741300Y1047530D02*
Y1058530D01*
X862800Y933030D02*
X873800D01*
X868300Y927530D02*
Y938530D01*
X824300Y965530D02*
X835300D01*
X829800Y960030D02*
Y971030D01*
X774300Y965530D02*
X785300D01*
X779800Y960030D02*
Y971030D01*
X91370Y754800D02*
X102370D01*
X96870Y749300D02*
Y760300D01*
X141370Y754800D02*
X152370D01*
X146870Y749300D02*
Y760300D01*
X179870Y722300D02*
X190870D01*
X185370Y716800D02*
Y727800D01*
X52870Y842300D02*
X63870D01*
X58370Y836800D02*
Y847800D01*
X58870Y754800D02*
X68870D01*
X63870Y749800D02*
Y759800D01*
X173870Y809800D02*
X185870D01*
X179870Y803800D02*
Y815800D01*
Y842300D02*
X190870D01*
X185370Y836800D02*
Y847800D01*
X52870Y722300D02*
X63870D01*
X58370Y716800D02*
Y727800D01*
X223600Y722300D02*
X234600D01*
X229100Y716800D02*
Y727800D01*
X350600Y842300D02*
X361600D01*
X356100Y836800D02*
Y847800D01*
X344600Y809800D02*
X356600D01*
X350600Y803800D02*
Y815800D01*
X229600Y754800D02*
X239600D01*
X234600Y749800D02*
Y759800D01*
X223600Y842300D02*
X234600D01*
X229100Y836800D02*
Y847800D01*
X350600Y722300D02*
X361600D01*
X356100Y716800D02*
Y727800D01*
X312100Y754800D02*
X323100D01*
X317600Y749300D02*
Y760300D01*
X262100Y754800D02*
X273100D01*
X267600Y749300D02*
Y760300D01*
X432840Y754800D02*
X443840D01*
X438340Y749300D02*
Y760300D01*
X482840Y754800D02*
X493840D01*
X488340Y749300D02*
Y760300D01*
X521340Y722300D02*
X532340D01*
X526840Y716800D02*
Y727800D01*
X394340Y842300D02*
X405340D01*
X399840Y836800D02*
Y847800D01*
X400340Y754800D02*
X410340D01*
X405340Y749800D02*
Y759800D01*
X515340Y809800D02*
X527340D01*
X521340Y803800D02*
Y815800D01*
Y842300D02*
X532340D01*
X526840Y836800D02*
Y847800D01*
X394340Y722300D02*
X405340D01*
X399840Y716800D02*
Y727800D01*
X565060Y722300D02*
X576060D01*
X570560Y716800D02*
Y727800D01*
X692060Y842300D02*
X703060D01*
X697560Y836800D02*
Y847800D01*
X686060Y809800D02*
X698060D01*
X692060Y803800D02*
Y815800D01*
X571060Y754800D02*
X581060D01*
X576060Y749800D02*
Y759800D01*
X565060Y842300D02*
X576060D01*
X570560Y836800D02*
Y847800D01*
X692060Y722300D02*
X703060D01*
X697560Y716800D02*
Y727800D01*
X653560Y754800D02*
X664560D01*
X659060Y749300D02*
Y760300D01*
X603560Y754800D02*
X614560D01*
X609060Y749300D02*
Y760300D01*
X774300Y754800D02*
X785300D01*
X779800Y749300D02*
Y760300D01*
X824300Y754800D02*
X835300D01*
X829800Y749300D02*
Y760300D01*
X862800Y722300D02*
X873800D01*
X868300Y716800D02*
Y727800D01*
X735800Y842300D02*
X746800D01*
X741300Y836800D02*
Y847800D01*
X741800Y754800D02*
X751800D01*
X746800Y749800D02*
Y759800D01*
X856800Y809800D02*
X868800D01*
X862800Y803800D02*
Y815800D01*
Y842300D02*
X873800D01*
X868300Y836800D02*
Y847800D01*
X735800Y722300D02*
X746800D01*
X741300Y716800D02*
Y727800D01*
X906540Y722300D02*
X917540D01*
X912040Y716800D02*
Y727800D01*
X1033540Y842300D02*
X1044540D01*
X1039040Y836800D02*
Y847800D01*
X1027540Y809800D02*
X1039540D01*
X1033540Y803800D02*
Y815800D01*
X912540Y754800D02*
X922540D01*
X917540Y749800D02*
Y759800D01*
X906540Y842300D02*
X917540D01*
X912040Y836800D02*
Y847800D01*
X1033540Y722300D02*
X1044540D01*
X1039040Y716800D02*
Y727800D01*
X995040Y754800D02*
X1006040D01*
X1000540Y749300D02*
Y760300D01*
X945040Y754800D02*
X956040D01*
X950540Y749300D02*
Y760300D01*
X1115770Y754800D02*
X1126770D01*
X1121270Y749300D02*
Y760300D01*
X1165770Y754800D02*
X1176770D01*
X1171270Y749300D02*
Y760300D01*
X1204270Y722300D02*
X1215270D01*
X1209770Y716800D02*
Y727800D01*
X1077270Y842300D02*
X1088270D01*
X1082770Y836800D02*
Y847800D01*
X1083270Y754800D02*
X1093270D01*
X1088270Y749800D02*
Y759800D01*
X1198270Y809800D02*
X1210270D01*
X1204270Y803800D02*
Y815800D01*
Y842300D02*
X1215270D01*
X1209770Y836800D02*
Y847800D01*
X1077270Y722300D02*
X1088270D01*
X1082770Y716800D02*
Y727800D01*
X1248000Y722300D02*
X1259000D01*
X1253500Y716800D02*
Y727800D01*
X1375000Y842300D02*
X1386000D01*
X1380500Y836800D02*
Y847800D01*
X1369000Y809800D02*
X1381000D01*
X1375000Y803800D02*
Y815800D01*
X1254000Y754800D02*
X1264000D01*
X1259000Y749800D02*
Y759800D01*
X1248000Y842300D02*
X1259000D01*
X1253500Y836800D02*
Y847800D01*
X1375000Y722300D02*
X1386000D01*
X1380500Y716800D02*
Y727800D01*
X1336500Y754800D02*
X1347500D01*
X1342000Y749300D02*
Y760300D01*
X1286500Y754800D02*
X1297500D01*
X1292000Y749300D02*
Y760300D01*
X1457230Y754800D02*
X1468230D01*
X1462730Y749300D02*
Y760300D01*
X1507230Y754800D02*
X1518230D01*
X1512730Y749300D02*
Y760300D01*
X1545730Y722300D02*
X1556730D01*
X1551230Y716800D02*
Y727800D01*
X1418730Y842300D02*
X1429730D01*
X1424230Y836800D02*
Y847800D01*
X1424730Y754800D02*
X1434730D01*
X1429730Y749800D02*
Y759800D01*
X1539730Y809800D02*
X1551730D01*
X1545730Y803800D02*
Y815800D01*
Y842300D02*
X1556730D01*
X1551230Y836800D02*
Y847800D01*
X1418730Y722300D02*
X1429730D01*
X1424230Y716800D02*
Y727800D01*
X1589470Y722300D02*
X1600470D01*
X1594970Y716800D02*
Y727800D01*
X1716470Y842300D02*
X1727470D01*
X1721970Y836800D02*
Y847800D01*
X1710470Y809800D02*
X1722470D01*
X1716470Y803800D02*
Y815800D01*
X1595470Y754800D02*
X1605470D01*
X1600470Y749800D02*
Y759800D01*
X1589470Y842300D02*
X1600470D01*
X1594970Y836800D02*
Y847800D01*
X1716470Y722300D02*
X1727470D01*
X1721970Y716800D02*
Y727800D01*
X1677970Y754800D02*
X1688970D01*
X1683470Y749300D02*
Y760300D01*
X1627970Y754800D02*
X1638970D01*
X1633470Y749300D02*
Y760300D01*
X1798700Y754800D02*
X1809700D01*
X1804200Y749300D02*
Y760300D01*
X1848700Y754800D02*
X1859700D01*
X1854200Y749300D02*
Y760300D01*
X1887200Y722300D02*
X1898200D01*
X1892700Y716800D02*
Y727800D01*
X1760200Y842300D02*
X1771200D01*
X1765700Y836800D02*
Y847800D01*
X1766200Y754800D02*
X1776200D01*
X1771200Y749800D02*
Y759800D01*
X1881200Y809800D02*
X1893200D01*
X1887200Y803800D02*
Y815800D01*
Y842300D02*
X1898200D01*
X1892700Y836800D02*
Y847800D01*
X1760200Y722300D02*
X1771200D01*
X1765700Y716800D02*
Y727800D01*
X1931150Y722300D02*
X1942150D01*
X1936650Y716800D02*
Y727800D01*
X2058150Y842300D02*
X2069150D01*
X2063650Y836800D02*
Y847800D01*
X2052150Y809800D02*
X2064150D01*
X2058150Y803800D02*
Y815800D01*
X1937150Y754800D02*
X1947150D01*
X1942150Y749800D02*
Y759800D01*
X1931150Y842300D02*
X1942150D01*
X1936650Y836800D02*
Y847800D01*
X2058150Y722300D02*
X2069150D01*
X2063650Y716800D02*
Y727800D01*
X2019650Y754800D02*
X2030650D01*
X2025150Y749300D02*
Y760300D01*
X1969650Y754800D02*
X1980650D01*
X1975150Y749300D02*
Y760300D01*
X2140380Y754800D02*
X2151380D01*
X2145880Y749300D02*
Y760300D01*
X2190380Y754800D02*
X2201380D01*
X2195880Y749300D02*
Y760300D01*
X2228880Y722300D02*
X2239880D01*
X2234380Y716800D02*
Y727800D01*
X2101880Y842300D02*
X2112880D01*
X2107380Y836800D02*
Y847800D01*
X2107880Y754800D02*
X2117880D01*
X2112880Y749800D02*
Y759800D01*
X2222880Y809800D02*
X2234880D01*
X2228880Y803800D02*
Y815800D01*
Y842300D02*
X2239880D01*
X2234380Y836800D02*
Y847800D01*
X2101880Y722300D02*
X2112880D01*
X2107380Y716800D02*
Y727800D01*
X2357820Y722300D02*
X2368820D01*
X2363320Y716800D02*
Y727800D01*
X2484820Y842300D02*
X2495820D01*
X2490320Y836800D02*
Y847800D01*
X2478820Y809800D02*
X2490820D01*
X2484820Y803800D02*
Y815800D01*
X2363820Y754800D02*
X2373820D01*
X2368820Y749800D02*
Y759800D01*
X2357820Y842300D02*
X2368820D01*
X2363320Y836800D02*
Y847800D01*
X2484820Y722300D02*
X2495820D01*
X2490320Y716800D02*
Y727800D01*
X2446320Y754800D02*
X2457320D01*
X2451820Y749300D02*
Y760300D01*
X2396320Y754800D02*
X2407320D01*
X2401820Y749300D02*
Y760300D01*
X136740Y584500D02*
X147740D01*
X142240Y579000D02*
Y590000D01*
X186740Y584500D02*
X197740D01*
X192240Y579000D02*
Y590000D01*
X225240Y552000D02*
X236240D01*
X230740Y546500D02*
Y557500D01*
X98240Y672000D02*
X109240D01*
X103740Y666500D02*
Y677500D01*
X104240Y584500D02*
X114240D01*
X109240Y579500D02*
Y589500D01*
X219240Y639500D02*
X231240D01*
X225240Y633500D02*
Y645500D01*
Y672000D02*
X236240D01*
X230740Y666500D02*
Y677500D01*
X98240Y552000D02*
X109240D01*
X103740Y546500D02*
Y557500D01*
X314340Y552000D02*
X325340D01*
X319840Y546500D02*
Y557500D01*
X441340Y672000D02*
X452340D01*
X446840Y666500D02*
Y677500D01*
X435340Y639500D02*
X447340D01*
X441340Y633500D02*
Y645500D01*
X320340Y584500D02*
X330340D01*
X325340Y579500D02*
Y589500D01*
X314340Y672000D02*
X325340D01*
X319840Y666500D02*
Y677500D01*
X441340Y552000D02*
X452340D01*
X446840Y546500D02*
Y557500D01*
X402840Y584500D02*
X413840D01*
X408340Y579000D02*
Y590000D01*
X352840Y584500D02*
X363840D01*
X358340Y579000D02*
Y590000D01*
X523570Y584500D02*
X534570D01*
X529070Y579000D02*
Y590000D01*
X573570Y584500D02*
X584570D01*
X579070Y579000D02*
Y590000D01*
X612070Y552000D02*
X623070D01*
X617570Y546500D02*
Y557500D01*
X485070Y672000D02*
X496070D01*
X490570Y666500D02*
Y677500D01*
X491070Y584500D02*
X501070D01*
X496070Y579500D02*
Y589500D01*
X606070Y639500D02*
X618070D01*
X612070Y633500D02*
Y645500D01*
Y672000D02*
X623070D01*
X617570Y666500D02*
Y677500D01*
X485070Y552000D02*
X496070D01*
X490570Y546500D02*
Y557500D01*
X655800Y552000D02*
X666800D01*
X661300Y546500D02*
Y557500D01*
X782800Y672000D02*
X793800D01*
X788300Y666500D02*
Y677500D01*
X776800Y639500D02*
X788800D01*
X782800Y633500D02*
Y645500D01*
X661800Y584500D02*
X671800D01*
X666800Y579500D02*
Y589500D01*
X655800Y672000D02*
X666800D01*
X661300Y666500D02*
Y677500D01*
X782800Y552000D02*
X793800D01*
X788300Y546500D02*
Y557500D01*
X744300Y584500D02*
X755300D01*
X749800Y579000D02*
Y590000D01*
X694300Y584500D02*
X705300D01*
X699800Y579000D02*
Y590000D01*
X865040Y584500D02*
X876040D01*
X870540Y579000D02*
Y590000D01*
X915040Y584500D02*
X926040D01*
X920540Y579000D02*
Y590000D01*
X953540Y552000D02*
X964540D01*
X959040Y546500D02*
Y557500D01*
X826540Y672000D02*
X837540D01*
X832040Y666500D02*
Y677500D01*
X832540Y584500D02*
X842540D01*
X837540Y579500D02*
Y589500D01*
X947540Y639500D02*
X959540D01*
X953540Y633500D02*
Y645500D01*
Y672000D02*
X964540D01*
X959040Y666500D02*
Y677500D01*
X826540Y552000D02*
X837540D01*
X832040Y546500D02*
Y557500D01*
X997270Y552000D02*
X1008270D01*
X1002770Y546500D02*
Y557500D01*
X1124270Y672000D02*
X1135270D01*
X1129770Y666500D02*
Y677500D01*
X1118270Y639500D02*
X1130270D01*
X1124270Y633500D02*
Y645500D01*
X1003270Y584500D02*
X1013270D01*
X1008270Y579500D02*
Y589500D01*
X997270Y672000D02*
X1008270D01*
X1002770Y666500D02*
Y677500D01*
X1124270Y552000D02*
X1135270D01*
X1129770Y546500D02*
Y557500D01*
X1085770Y584500D02*
X1096770D01*
X1091270Y579000D02*
Y590000D01*
X1035770Y584500D02*
X1046770D01*
X1041270Y579000D02*
Y590000D01*
X1206500Y584500D02*
X1217500D01*
X1212000Y579000D02*
Y590000D01*
X1256500Y584500D02*
X1267500D01*
X1262000Y579000D02*
Y590000D01*
X1295000Y552000D02*
X1306000D01*
X1300500Y546500D02*
Y557500D01*
X1168000Y672000D02*
X1179000D01*
X1173500Y666500D02*
Y677500D01*
X1174000Y584500D02*
X1184000D01*
X1179000Y579500D02*
Y589500D01*
X1289000Y639500D02*
X1301000D01*
X1295000Y633500D02*
Y645500D01*
Y672000D02*
X1306000D01*
X1300500Y666500D02*
Y677500D01*
X1168000Y552000D02*
X1179000D01*
X1173500Y546500D02*
Y557500D01*
X1338730Y552000D02*
X1349730D01*
X1344230Y546500D02*
Y557500D01*
X1465730Y672000D02*
X1476730D01*
X1471230Y666500D02*
Y677500D01*
X1459730Y639500D02*
X1471730D01*
X1465730Y633500D02*
Y645500D01*
X1344730Y584500D02*
X1354730D01*
X1349730Y579500D02*
Y589500D01*
X1338730Y672000D02*
X1349730D01*
X1344230Y666500D02*
Y677500D01*
X1465730Y552000D02*
X1476730D01*
X1471230Y546500D02*
Y557500D01*
X1427230Y584500D02*
X1438230D01*
X1432730Y579000D02*
Y590000D01*
X1377230Y584500D02*
X1388230D01*
X1382730Y579000D02*
Y590000D01*
X1547970Y584500D02*
X1558970D01*
X1553470Y579000D02*
Y590000D01*
X1597970Y584500D02*
X1608970D01*
X1603470Y579000D02*
Y590000D01*
X1636470Y552000D02*
X1647470D01*
X1641970Y546500D02*
Y557500D01*
X1509470Y672000D02*
X1520470D01*
X1514970Y666500D02*
Y677500D01*
X1515470Y584500D02*
X1525470D01*
X1520470Y579500D02*
Y589500D01*
X1630470Y639500D02*
X1642470D01*
X1636470Y633500D02*
Y645500D01*
Y672000D02*
X1647470D01*
X1641970Y666500D02*
Y677500D01*
X1509470Y552000D02*
X1520470D01*
X1514970Y546500D02*
Y557500D01*
X1680200Y552000D02*
X1691200D01*
X1685700Y546500D02*
Y557500D01*
X1807200Y672000D02*
X1818200D01*
X1812700Y666500D02*
Y677500D01*
X1801200Y639500D02*
X1813200D01*
X1807200Y633500D02*
Y645500D01*
X1686200Y584500D02*
X1696200D01*
X1691200Y579500D02*
Y589500D01*
X1680200Y672000D02*
X1691200D01*
X1685700Y666500D02*
Y677500D01*
X1807200Y552000D02*
X1818200D01*
X1812700Y546500D02*
Y557500D01*
X1768700Y584500D02*
X1779700D01*
X1774200Y579000D02*
Y590000D01*
X1718700Y584500D02*
X1729700D01*
X1724200Y579000D02*
Y590000D01*
X1889490Y584500D02*
X1900490D01*
X1894990Y579000D02*
Y590000D01*
X1939490Y584500D02*
X1950490D01*
X1944990Y579000D02*
Y590000D01*
X1977990Y552000D02*
X1988990D01*
X1983490Y546500D02*
Y557500D01*
X1850990Y672000D02*
X1861990D01*
X1856490Y666500D02*
Y677500D01*
X1856990Y584500D02*
X1866990D01*
X1861990Y579500D02*
Y589500D01*
X1971990Y639500D02*
X1983990D01*
X1977990Y633500D02*
Y645500D01*
Y672000D02*
X1988990D01*
X1983490Y666500D02*
Y677500D01*
X1850990Y552000D02*
X1861990D01*
X1856490Y546500D02*
Y557500D01*
X2021720Y552000D02*
X2032720D01*
X2027220Y546500D02*
Y557500D01*
X2148720Y672000D02*
X2159720D01*
X2154220Y666500D02*
Y677500D01*
X2142720Y639500D02*
X2154720D01*
X2148720Y633500D02*
Y645500D01*
X2027720Y584500D02*
X2037720D01*
X2032720Y579500D02*
Y589500D01*
X2021720Y672000D02*
X2032720D01*
X2027220Y666500D02*
Y677500D01*
X2148720Y552000D02*
X2159720D01*
X2154220Y546500D02*
Y557500D01*
X2110220Y584500D02*
X2121220D01*
X2115720Y579000D02*
Y590000D01*
X2060220Y584500D02*
X2071220D01*
X2065720Y579000D02*
Y590000D01*
X2230950Y584500D02*
X2241950D01*
X2236450Y579000D02*
Y590000D01*
X2280950Y584500D02*
X2291950D01*
X2286450Y579000D02*
Y590000D01*
X2319450Y552000D02*
X2330450D01*
X2324950Y546500D02*
Y557500D01*
X2192450Y672000D02*
X2203450D01*
X2197950Y666500D02*
Y677500D01*
X2198450Y584500D02*
X2208450D01*
X2203450Y579500D02*
Y589500D01*
X2313450Y639500D02*
X2325450D01*
X2319450Y633500D02*
Y645500D01*
Y672000D02*
X2330450D01*
X2324950Y666500D02*
Y677500D01*
X2192450Y552000D02*
X2203450D01*
X2197950Y546500D02*
Y557500D01*
X2443180Y466640D02*
X2454180D01*
X2448680Y461140D02*
Y472140D01*
X2570180Y586640D02*
X2581180D01*
X2575680Y581140D02*
Y592140D01*
X2564180Y554140D02*
X2576180D01*
X2570180Y548140D02*
Y560140D01*
X2449180Y499140D02*
X2459180D01*
X2454180Y494140D02*
Y504140D01*
X2443180Y586640D02*
X2454180D01*
X2448680Y581140D02*
Y592140D01*
X2570180Y466640D02*
X2581180D01*
X2575680Y461140D02*
Y472140D01*
X2531680Y499140D02*
X2542680D01*
X2537180Y493640D02*
Y504640D01*
X2481680Y499140D02*
X2492680D01*
X2487180Y493640D02*
Y504640D01*
X170210Y413770D02*
X181210D01*
X175710Y408270D02*
Y419270D01*
X220210Y413770D02*
X231210D01*
X225710Y408270D02*
Y419270D01*
X258710Y381270D02*
X269710D01*
X264210Y375770D02*
Y386770D01*
X131710Y501270D02*
X142710D01*
X137210Y495770D02*
Y506770D01*
X137710Y413770D02*
X147710D01*
X142710Y408770D02*
Y418770D01*
X252710Y468770D02*
X264710D01*
X258710Y462770D02*
Y474770D01*
Y501270D02*
X269710D01*
X264210Y495770D02*
Y506770D01*
X131710Y381270D02*
X142710D01*
X137210Y375770D02*
Y386770D01*
X394340Y381270D02*
X405340D01*
X399840Y375770D02*
Y386770D01*
X521340Y501270D02*
X532340D01*
X526840Y495770D02*
Y506770D01*
X515340Y468770D02*
X527340D01*
X521340Y462770D02*
Y474770D01*
X400340Y413770D02*
X410340D01*
X405340Y408770D02*
Y418770D01*
X394340Y501270D02*
X405340D01*
X399840Y495770D02*
Y506770D01*
X521340Y381270D02*
X532340D01*
X526840Y375770D02*
Y386770D01*
X482840Y413770D02*
X493840D01*
X488340Y408270D02*
Y419270D01*
X432840Y413770D02*
X443840D01*
X438340Y408270D02*
Y419270D01*
X603570Y413770D02*
X614570D01*
X609070Y408270D02*
Y419270D01*
X653570Y413770D02*
X664570D01*
X659070Y408270D02*
Y419270D01*
X692070Y381270D02*
X703070D01*
X697570Y375770D02*
Y386770D01*
X565070Y501270D02*
X576070D01*
X570570Y495770D02*
Y506770D01*
X571070Y413770D02*
X581070D01*
X576070Y408770D02*
Y418770D01*
X686070Y468770D02*
X698070D01*
X692070Y462770D02*
Y474770D01*
Y501270D02*
X703070D01*
X697570Y495770D02*
Y506770D01*
X565070Y381270D02*
X576070D01*
X570570Y375770D02*
Y386770D01*
X735800Y381270D02*
X746800D01*
X741300Y375770D02*
Y386770D01*
X862800Y501270D02*
X873800D01*
X868300Y495770D02*
Y506770D01*
X856800Y468770D02*
X868800D01*
X862800Y462770D02*
Y474770D01*
X741800Y413770D02*
X751800D01*
X746800Y408770D02*
Y418770D01*
X735800Y501270D02*
X746800D01*
X741300Y495770D02*
Y506770D01*
X862800Y381270D02*
X873800D01*
X868300Y375770D02*
Y386770D01*
X824300Y413770D02*
X835300D01*
X829800Y408270D02*
Y419270D01*
X774300Y413770D02*
X785300D01*
X779800Y408270D02*
Y419270D01*
X945040Y413770D02*
X956040D01*
X950540Y408270D02*
Y419270D01*
X995040Y413770D02*
X1006040D01*
X1000540Y408270D02*
Y419270D01*
X1033540Y381270D02*
X1044540D01*
X1039040Y375770D02*
Y386770D01*
X906540Y501270D02*
X917540D01*
X912040Y495770D02*
Y506770D01*
X912540Y413770D02*
X922540D01*
X917540Y408770D02*
Y418770D01*
X1027540Y468770D02*
X1039540D01*
X1033540Y462770D02*
Y474770D01*
Y501270D02*
X1044540D01*
X1039040Y495770D02*
Y506770D01*
X906540Y381270D02*
X917540D01*
X912040Y375770D02*
Y386770D01*
X1077270Y381270D02*
X1088270D01*
X1082770Y375770D02*
Y386770D01*
X1204270Y501270D02*
X1215270D01*
X1209770Y495770D02*
Y506770D01*
X1198270Y468770D02*
X1210270D01*
X1204270Y462770D02*
Y474770D01*
X1083270Y413770D02*
X1093270D01*
X1088270Y408770D02*
Y418770D01*
X1077270Y501270D02*
X1088270D01*
X1082770Y495770D02*
Y506770D01*
X1204270Y381270D02*
X1215270D01*
X1209770Y375770D02*
Y386770D01*
X1165770Y413770D02*
X1176770D01*
X1171270Y408270D02*
Y419270D01*
X1115770Y413770D02*
X1126770D01*
X1121270Y408270D02*
Y419270D01*
X1286500Y413770D02*
X1297500D01*
X1292000Y408270D02*
Y419270D01*
X1336500Y413770D02*
X1347500D01*
X1342000Y408270D02*
Y419270D01*
X1375000Y381270D02*
X1386000D01*
X1380500Y375770D02*
Y386770D01*
X1248000Y501270D02*
X1259000D01*
X1253500Y495770D02*
Y506770D01*
X1254000Y413770D02*
X1264000D01*
X1259000Y408770D02*
Y418770D01*
X1369000Y468770D02*
X1381000D01*
X1375000Y462770D02*
Y474770D01*
Y501270D02*
X1386000D01*
X1380500Y495770D02*
Y506770D01*
X1248000Y381270D02*
X1259000D01*
X1253500Y375770D02*
Y386770D01*
X1418730Y381270D02*
X1429730D01*
X1424230Y375770D02*
Y386770D01*
X1545730Y501270D02*
X1556730D01*
X1551230Y495770D02*
Y506770D01*
X1539730Y468770D02*
X1551730D01*
X1545730Y462770D02*
Y474770D01*
X1424730Y413770D02*
X1434730D01*
X1429730Y408770D02*
Y418770D01*
X1418730Y501270D02*
X1429730D01*
X1424230Y495770D02*
Y506770D01*
X1545730Y381270D02*
X1556730D01*
X1551230Y375770D02*
Y386770D01*
X1507230Y413770D02*
X1518230D01*
X1512730Y408270D02*
Y419270D01*
X1457230Y413770D02*
X1468230D01*
X1462730Y408270D02*
Y419270D01*
X1627970Y413770D02*
X1638970D01*
X1633470Y408270D02*
Y419270D01*
X1677970Y413770D02*
X1688970D01*
X1683470Y408270D02*
Y419270D01*
X1716470Y381270D02*
X1727470D01*
X1721970Y375770D02*
Y386770D01*
X1589470Y501270D02*
X1600470D01*
X1594970Y495770D02*
Y506770D01*
X1595470Y413770D02*
X1605470D01*
X1600470Y408770D02*
Y418770D01*
X1710470Y468770D02*
X1722470D01*
X1716470Y462770D02*
Y474770D01*
Y501270D02*
X1727470D01*
X1721970Y495770D02*
Y506770D01*
X1589470Y381270D02*
X1600470D01*
X1594970Y375770D02*
Y386770D01*
X1760200Y381270D02*
X1771200D01*
X1765700Y375770D02*
Y386770D01*
X1887200Y501270D02*
X1898200D01*
X1892700Y495770D02*
Y506770D01*
X1881200Y468770D02*
X1893200D01*
X1887200Y462770D02*
Y474770D01*
X1766200Y413770D02*
X1776200D01*
X1771200Y408770D02*
Y418770D01*
X1760200Y501270D02*
X1771200D01*
X1765700Y495770D02*
Y506770D01*
X1887200Y381270D02*
X1898200D01*
X1892700Y375770D02*
Y386770D01*
X1848700Y413770D02*
X1859700D01*
X1854200Y408270D02*
Y419270D01*
X1798700Y413770D02*
X1809700D01*
X1804200Y408270D02*
Y419270D01*
X1969430Y413770D02*
X1980430D01*
X1974930Y408270D02*
Y419270D01*
X2019430Y413770D02*
X2030430D01*
X2024930Y408270D02*
Y419270D01*
X2057930Y381270D02*
X2068930D01*
X2063430Y375770D02*
Y386770D01*
X1930930Y501270D02*
X1941930D01*
X1936430Y495770D02*
Y506770D01*
X1936930Y413770D02*
X1946930D01*
X1941930Y408770D02*
Y418770D01*
X2051930Y468770D02*
X2063930D01*
X2057930Y462770D02*
Y474770D01*
Y501270D02*
X2068930D01*
X2063430Y495770D02*
Y506770D01*
X1930930Y381270D02*
X1941930D01*
X1936430Y375770D02*
Y386770D01*
X2101670Y381270D02*
X2112670D01*
X2107170Y375770D02*
Y386770D01*
X2228670Y501270D02*
X2239670D01*
X2234170Y495770D02*
Y506770D01*
X2222670Y468770D02*
X2234670D01*
X2228670Y462770D02*
Y474770D01*
X2107670Y413770D02*
X2117670D01*
X2112670Y408770D02*
Y418770D01*
X2101670Y501270D02*
X2112670D01*
X2107170Y495770D02*
Y506770D01*
X2228670Y381270D02*
X2239670D01*
X2234170Y375770D02*
Y386770D01*
X2190170Y413770D02*
X2201170D01*
X2195670Y408270D02*
Y419270D01*
X2140170Y413770D02*
X2151170D01*
X2145670Y408270D02*
Y419270D01*
X2310950Y413770D02*
X2321950D01*
X2316450Y408270D02*
Y419270D01*
X2360950Y413770D02*
X2371950D01*
X2366450Y408270D02*
Y419270D01*
X2399450Y381270D02*
X2410450D01*
X2404950Y375770D02*
Y386770D01*
X2272450Y501270D02*
X2283450D01*
X2277950Y495770D02*
Y506770D01*
X2278450Y413770D02*
X2288450D01*
X2283450Y408770D02*
Y418770D01*
X2393450Y468770D02*
X2405450D01*
X2399450Y462770D02*
Y474770D01*
Y501270D02*
X2410450D01*
X2404950Y495770D02*
Y506770D01*
X2272450Y381270D02*
X2283450D01*
X2277950Y375770D02*
Y386770D01*
X98240Y210540D02*
X109240D01*
X103740Y205040D02*
Y216040D01*
X225240Y330540D02*
X236240D01*
X230740Y325040D02*
Y336040D01*
X219240Y298040D02*
X231240D01*
X225240Y292040D02*
Y304040D01*
X104240Y243040D02*
X114240D01*
X109240Y238040D02*
Y248040D01*
X98240Y330540D02*
X109240D01*
X103740Y325040D02*
Y336040D01*
X225240Y210540D02*
X236240D01*
X230740Y205040D02*
Y216040D01*
X186740Y243040D02*
X197740D01*
X192240Y237540D02*
Y248540D01*
X136740Y243040D02*
X147740D01*
X142240Y237540D02*
Y248540D01*
X352840Y243040D02*
X363840D01*
X358340Y237540D02*
Y248540D01*
X402840Y243040D02*
X413840D01*
X408340Y237540D02*
Y248540D01*
X441340Y210540D02*
X452340D01*
X446840Y205040D02*
Y216040D01*
X314340Y330540D02*
X325340D01*
X319840Y325040D02*
Y336040D01*
X320340Y243040D02*
X330340D01*
X325340Y238040D02*
Y248040D01*
X435340Y298040D02*
X447340D01*
X441340Y292040D02*
Y304040D01*
Y330540D02*
X452340D01*
X446840Y325040D02*
Y336040D01*
X314340Y210540D02*
X325340D01*
X319840Y205040D02*
Y216040D01*
X485070Y210540D02*
X496070D01*
X490570Y205040D02*
Y216040D01*
X612070Y330540D02*
X623070D01*
X617570Y325040D02*
Y336040D01*
X606070Y298040D02*
X618070D01*
X612070Y292040D02*
Y304040D01*
X491070Y243040D02*
X501070D01*
X496070Y238040D02*
Y248040D01*
X485070Y330540D02*
X496070D01*
X490570Y325040D02*
Y336040D01*
X612070Y210540D02*
X623070D01*
X617570Y205040D02*
Y216040D01*
X573570Y243040D02*
X584570D01*
X579070Y237540D02*
Y248540D01*
X523570Y243040D02*
X534570D01*
X529070Y237540D02*
Y248540D01*
X694300Y243040D02*
X705300D01*
X699800Y237540D02*
Y248540D01*
X744300Y243040D02*
X755300D01*
X749800Y237540D02*
Y248540D01*
X782800Y210540D02*
X793800D01*
X788300Y205040D02*
Y216040D01*
X655800Y330540D02*
X666800D01*
X661300Y325040D02*
Y336040D01*
X661800Y243040D02*
X671800D01*
X666800Y238040D02*
Y248040D01*
X776800Y298040D02*
X788800D01*
X782800Y292040D02*
Y304040D01*
Y330540D02*
X793800D01*
X788300Y325040D02*
Y336040D01*
X655800Y210540D02*
X666800D01*
X661300Y205040D02*
Y216040D01*
X826540Y210540D02*
X837540D01*
X832040Y205040D02*
Y216040D01*
X953540Y330540D02*
X964540D01*
X959040Y325040D02*
Y336040D01*
X947540Y298040D02*
X959540D01*
X953540Y292040D02*
Y304040D01*
X832540Y243040D02*
X842540D01*
X837540Y238040D02*
Y248040D01*
X826540Y330540D02*
X837540D01*
X832040Y325040D02*
Y336040D01*
X953540Y210540D02*
X964540D01*
X959040Y205040D02*
Y216040D01*
X915040Y243040D02*
X926040D01*
X920540Y237540D02*
Y248540D01*
X865040Y243040D02*
X876040D01*
X870540Y237540D02*
Y248540D01*
X1035770Y243040D02*
X1046770D01*
X1041270Y237540D02*
Y248540D01*
X1085770Y243040D02*
X1096770D01*
X1091270Y237540D02*
Y248540D01*
X1124270Y210540D02*
X1135270D01*
X1129770Y205040D02*
Y216040D01*
X997270Y330540D02*
X1008270D01*
X1002770Y325040D02*
Y336040D01*
X1003270Y243040D02*
X1013270D01*
X1008270Y238040D02*
Y248040D01*
X1118270Y298040D02*
X1130270D01*
X1124270Y292040D02*
Y304040D01*
Y330540D02*
X1135270D01*
X1129770Y325040D02*
Y336040D01*
X997270Y210540D02*
X1008270D01*
X1002770Y205040D02*
Y216040D01*
X1168000Y210540D02*
X1179000D01*
X1173500Y205040D02*
Y216040D01*
X1295000Y330540D02*
X1306000D01*
X1300500Y325040D02*
Y336040D01*
X1289000Y298040D02*
X1301000D01*
X1295000Y292040D02*
Y304040D01*
X1174000Y243040D02*
X1184000D01*
X1179000Y238040D02*
Y248040D01*
X1168000Y330540D02*
X1179000D01*
X1173500Y325040D02*
Y336040D01*
X1295000Y210540D02*
X1306000D01*
X1300500Y205040D02*
Y216040D01*
X1256500Y243040D02*
X1267500D01*
X1262000Y237540D02*
Y248540D01*
X1206500Y243040D02*
X1217500D01*
X1212000Y237540D02*
Y248540D01*
X1377230Y243040D02*
X1388230D01*
X1382730Y237540D02*
Y248540D01*
X1427230Y243040D02*
X1438230D01*
X1432730Y237540D02*
Y248540D01*
X1465730Y210540D02*
X1476730D01*
X1471230Y205040D02*
Y216040D01*
X1338730Y330540D02*
X1349730D01*
X1344230Y325040D02*
Y336040D01*
X1344730Y243040D02*
X1354730D01*
X1349730Y238040D02*
Y248040D01*
X1459730Y298040D02*
X1471730D01*
X1465730Y292040D02*
Y304040D01*
Y330540D02*
X1476730D01*
X1471230Y325040D02*
Y336040D01*
X1338730Y210540D02*
X1349730D01*
X1344230Y205040D02*
Y216040D01*
X1509470Y210540D02*
X1520470D01*
X1514970Y205040D02*
Y216040D01*
X1636470Y330540D02*
X1647470D01*
X1641970Y325040D02*
Y336040D01*
X1630470Y298040D02*
X1642470D01*
X1636470Y292040D02*
Y304040D01*
X1515470Y243040D02*
X1525470D01*
X1520470Y238040D02*
Y248040D01*
X1509470Y330540D02*
X1520470D01*
X1514970Y325040D02*
Y336040D01*
X1636470Y210540D02*
X1647470D01*
X1641970Y205040D02*
Y216040D01*
X1597970Y243040D02*
X1608970D01*
X1603470Y237540D02*
Y248540D01*
X1547970Y243040D02*
X1558970D01*
X1553470Y237540D02*
Y248540D01*
X1718700Y243040D02*
X1729700D01*
X1724200Y237540D02*
Y248540D01*
X1768700Y243040D02*
X1779700D01*
X1774200Y237540D02*
Y248540D01*
X1807200Y210540D02*
X1818200D01*
X1812700Y205040D02*
Y216040D01*
X1680200Y330540D02*
X1691200D01*
X1685700Y325040D02*
Y336040D01*
X1686200Y243040D02*
X1696200D01*
X1691200Y238040D02*
Y248040D01*
X1801200Y298040D02*
X1813200D01*
X1807200Y292040D02*
Y304040D01*
Y330540D02*
X1818200D01*
X1812700Y325040D02*
Y336040D01*
X1680200Y210540D02*
X1691200D01*
X1685700Y205040D02*
Y216040D01*
X1850930Y210540D02*
X1861930D01*
X1856430Y205040D02*
Y216040D01*
X1977930Y330540D02*
X1988930D01*
X1983430Y325040D02*
Y336040D01*
X1971930Y298040D02*
X1983930D01*
X1977930Y292040D02*
Y304040D01*
X1856930Y243040D02*
X1866930D01*
X1861930Y238040D02*
Y248040D01*
X1850930Y330540D02*
X1861930D01*
X1856430Y325040D02*
Y336040D01*
X1977930Y210540D02*
X1988930D01*
X1983430Y205040D02*
Y216040D01*
X1939430Y243040D02*
X1950430D01*
X1944930Y237540D02*
Y248540D01*
X1889430Y243040D02*
X1900430D01*
X1894930Y237540D02*
Y248540D01*
X2060170Y243040D02*
X2071170D01*
X2065670Y237540D02*
Y248540D01*
X2110170Y243040D02*
X2121170D01*
X2115670Y237540D02*
Y248540D01*
X2148670Y210540D02*
X2159670D01*
X2154170Y205040D02*
Y216040D01*
X2021670Y330540D02*
X2032670D01*
X2027170Y325040D02*
Y336040D01*
X2027670Y243040D02*
X2037670D01*
X2032670Y238040D02*
Y248040D01*
X2142670Y298040D02*
X2154670D01*
X2148670Y292040D02*
Y304040D01*
Y330540D02*
X2159670D01*
X2154170Y325040D02*
Y336040D01*
X2021670Y210540D02*
X2032670D01*
X2027170Y205040D02*
Y216040D01*
X2317820Y210540D02*
X2328820D01*
X2323320Y205040D02*
Y216040D01*
X2444820Y330540D02*
X2455820D01*
X2450320Y325040D02*
Y336040D01*
X2438820Y298040D02*
X2450820D01*
X2444820Y292040D02*
Y304040D01*
X2323820Y243040D02*
X2333820D01*
X2328820Y238040D02*
Y248040D01*
X2317820Y330540D02*
X2328820D01*
X2323320Y325040D02*
Y336040D01*
X2444820Y210540D02*
X2455820D01*
X2450320Y205040D02*
Y216040D01*
X2406320Y243040D02*
X2417320D01*
X2411820Y237540D02*
Y248540D01*
X2356320Y243040D02*
X2367320D01*
X2361820Y237540D02*
Y248540D01*
X91370Y72300D02*
X102370D01*
X96870Y66800D02*
Y77800D01*
X141370Y72300D02*
X152370D01*
X146870Y66800D02*
Y77800D01*
X179870Y39800D02*
X190870D01*
X185370Y34300D02*
Y45300D01*
X52870Y159800D02*
X63870D01*
X58370Y154300D02*
Y165300D01*
X58870Y72300D02*
X68870D01*
X63870Y67300D02*
Y77300D01*
X173870Y127300D02*
X185870D01*
X179870Y121300D02*
Y133300D01*
Y159800D02*
X190870D01*
X185370Y154300D02*
Y165300D01*
X52870Y39800D02*
X63870D01*
X58370Y34300D02*
Y45300D01*
X223600Y39800D02*
X234600D01*
X229100Y34300D02*
Y45300D01*
X350600Y159800D02*
X361600D01*
X356100Y154300D02*
Y165300D01*
X344600Y127300D02*
X356600D01*
X350600Y121300D02*
Y133300D01*
X229600Y72300D02*
X239600D01*
X234600Y67300D02*
Y77300D01*
X223600Y159800D02*
X234600D01*
X229100Y154300D02*
Y165300D01*
X350600Y39800D02*
X361600D01*
X356100Y34300D02*
Y45300D01*
X312100Y72300D02*
X323100D01*
X317600Y66800D02*
Y77800D01*
X262100Y72300D02*
X273100D01*
X267600Y66800D02*
Y77800D01*
X432840Y72300D02*
X443840D01*
X438340Y66800D02*
Y77800D01*
X482840Y72300D02*
X493840D01*
X488340Y66800D02*
Y77800D01*
X521340Y39800D02*
X532340D01*
X526840Y34300D02*
Y45300D01*
X394340Y159800D02*
X405340D01*
X399840Y154300D02*
Y165300D01*
X400340Y72300D02*
X410340D01*
X405340Y67300D02*
Y77300D01*
X515340Y127300D02*
X527340D01*
X521340Y121300D02*
Y133300D01*
Y159800D02*
X532340D01*
X526840Y154300D02*
Y165300D01*
X394340Y39800D02*
X405340D01*
X399840Y34300D02*
Y45300D01*
X565070Y39800D02*
X576070D01*
X570570Y34300D02*
Y45300D01*
X692070Y159800D02*
X703070D01*
X697570Y154300D02*
Y165300D01*
X686070Y127300D02*
X698070D01*
X692070Y121300D02*
Y133300D01*
X571070Y72300D02*
X581070D01*
X576070Y67300D02*
Y77300D01*
X565070Y159800D02*
X576070D01*
X570570Y154300D02*
Y165300D01*
X692070Y39800D02*
X703070D01*
X697570Y34300D02*
Y45300D01*
X653570Y72300D02*
X664570D01*
X659070Y66800D02*
Y77800D01*
X603570Y72300D02*
X614570D01*
X609070Y66800D02*
Y77800D01*
X1455790Y72300D02*
X1466790D01*
X1461290Y66800D02*
Y77800D01*
X1505790Y72300D02*
X1516790D01*
X1511290Y66800D02*
Y77800D01*
X1544290Y39800D02*
X1555290D01*
X1549790Y34300D02*
Y45300D01*
X1417290Y159800D02*
X1428290D01*
X1422790Y154300D02*
Y165300D01*
X1423290Y72300D02*
X1433290D01*
X1428290Y67300D02*
Y77300D01*
X1538290Y127300D02*
X1550290D01*
X1544290Y121300D02*
Y133300D01*
Y159800D02*
X1555290D01*
X1549790Y154300D02*
Y165300D01*
X1417290Y39800D02*
X1428290D01*
X1422790Y34300D02*
Y45300D01*
X1589520Y39800D02*
X1600520D01*
X1595020Y34300D02*
Y45300D01*
X1716520Y159800D02*
X1727520D01*
X1722020Y154300D02*
Y165300D01*
X1710520Y127300D02*
X1722520D01*
X1716520Y121300D02*
Y133300D01*
X1595520Y72300D02*
X1605520D01*
X1600520Y67300D02*
Y77300D01*
X1589520Y159800D02*
X1600520D01*
X1595020Y154300D02*
Y165300D01*
X1716520Y39800D02*
X1727520D01*
X1722020Y34300D02*
Y45300D01*
X1678020Y72300D02*
X1689020D01*
X1683520Y66800D02*
Y77800D01*
X1628020Y72300D02*
X1639020D01*
X1633520Y66800D02*
Y77800D01*
X1798750Y72300D02*
X1809750D01*
X1804250Y66800D02*
Y77800D01*
X1848750Y72300D02*
X1859750D01*
X1854250Y66800D02*
Y77800D01*
X1887250Y39800D02*
X1898250D01*
X1892750Y34300D02*
Y45300D01*
X1760250Y159800D02*
X1771250D01*
X1765750Y154300D02*
Y165300D01*
X1766250Y72300D02*
X1776250D01*
X1771250Y67300D02*
Y77300D01*
X1881250Y127300D02*
X1893250D01*
X1887250Y121300D02*
Y133300D01*
Y159800D02*
X1898250D01*
X1892750Y154300D02*
Y165300D01*
X1760250Y39800D02*
X1771250D01*
X1765750Y34300D02*
Y45300D01*
X1930990Y39800D02*
X1941990D01*
X1936490Y34300D02*
Y45300D01*
X2057990Y159800D02*
X2068990D01*
X2063490Y154300D02*
Y165300D01*
X2051990Y127300D02*
X2063990D01*
X2057990Y121300D02*
Y133300D01*
X1936990Y72300D02*
X1946990D01*
X1941990Y67300D02*
Y77300D01*
X1930990Y159800D02*
X1941990D01*
X1936490Y154300D02*
Y165300D01*
X2057990Y39800D02*
X2068990D01*
X2063490Y34300D02*
Y45300D01*
X2019490Y72300D02*
X2030490D01*
X2024990Y66800D02*
Y77800D01*
X1969490Y72300D02*
X1980490D01*
X1974990Y66800D02*
Y77800D01*
X2140220Y72300D02*
X2151220D01*
X2145720Y66800D02*
Y77800D01*
X2190220Y72300D02*
X2201220D01*
X2195720Y66800D02*
Y77800D01*
X2228720Y39800D02*
X2239720D01*
X2234220Y34300D02*
Y45300D01*
X2101720Y159800D02*
X2112720D01*
X2107220Y154300D02*
Y165300D01*
X2107720Y72300D02*
X2117720D01*
X2112720Y67300D02*
Y77300D01*
X2222720Y127300D02*
X2234720D01*
X2228720Y121300D02*
Y133300D01*
Y159800D02*
X2239720D01*
X2234220Y154300D02*
Y165300D01*
X2101720Y39800D02*
X2112720D01*
X2107220Y34300D02*
Y45300D01*
X2272450Y39800D02*
X2283450D01*
X2277950Y34300D02*
Y45300D01*
X2399450Y159800D02*
X2410450D01*
X2404950Y154300D02*
Y165300D01*
X2393450Y127300D02*
X2405450D01*
X2399450Y121300D02*
Y133300D01*
X2278450Y72300D02*
X2288450D01*
X2283450Y67300D02*
Y77300D01*
X2272450Y159800D02*
X2283450D01*
X2277950Y154300D02*
Y165300D01*
X2399450Y39800D02*
X2410450D01*
X2404950Y34300D02*
Y45300D01*
X2360950Y72300D02*
X2371950D01*
X2366450Y66800D02*
Y77800D01*
X2310950Y72300D02*
X2321950D01*
X2316450Y66800D02*
Y77800D01*
X2481680Y72300D02*
X2492680D01*
X2487180Y66800D02*
Y77800D01*
X2531680Y72300D02*
X2542680D01*
X2537180Y66800D02*
Y77800D01*
X2570180Y39800D02*
X2581180D01*
X2575680Y34300D02*
Y45300D01*
X2443180Y159800D02*
X2454180D01*
X2448680Y154300D02*
Y165300D01*
X2449180Y72300D02*
X2459180D01*
X2454180Y67300D02*
Y77300D01*
X2564180Y127300D02*
X2576180D01*
X2570180Y121300D02*
Y133300D01*
Y159800D02*
X2581180D01*
X2575680Y154300D02*
Y165300D01*
X2443180Y39800D02*
X2454180D01*
X2448680Y34300D02*
Y45300D01*
X737290Y39800D02*
X748290D01*
X742790Y34300D02*
Y45300D01*
X864290Y159800D02*
X875290D01*
X869790Y154300D02*
Y165300D01*
X858290Y127300D02*
X870290D01*
X864290Y121300D02*
Y133300D01*
X743290Y72300D02*
X753290D01*
X748290Y67300D02*
Y77300D01*
X737290Y159800D02*
X748290D01*
X742790Y154300D02*
Y165300D01*
X864290Y39800D02*
X875290D01*
X869790Y34300D02*
Y45300D01*
X825790Y72300D02*
X836790D01*
X831290Y66800D02*
Y77800D01*
X775790Y72300D02*
X786790D01*
X781290Y66800D02*
Y77800D01*
X2604050Y980490D02*
X2626050D01*
X2615050Y969490D02*
Y991490D01*
X2604050Y112790D02*
X2626050D01*
X2615050Y101790D02*
Y123790D01*
X1706030Y1098890D02*
X1728030D01*
X1717030Y1087890D02*
Y1109890D01*
X906030Y1098890D02*
X928030D01*
X917030Y1087890D02*
Y1109890D01*
X1706030Y-6060D02*
X1728030D01*
X1717030Y-17060D02*
Y4940D01*
X906030Y-6060D02*
X928030D01*
X917030Y-17060D02*
Y4940D01*
X8000Y980490D02*
X30000D01*
X19000Y969490D02*
Y991490D01*
X8000Y119640D02*
X30000D01*
X19000Y108640D02*
Y130640D01*
X87500Y885000D02*
X90500D01*
X89000Y883500D02*
Y886500D01*
X1237170Y110080D02*
X1240170D01*
X1238670Y108580D02*
Y111580D01*
X1237170Y121080D02*
X1240170D01*
X1238670Y119580D02*
Y122580D01*
X1237170Y132080D02*
X1240170D01*
X1238670Y130580D02*
Y133580D01*
X1226170Y110080D02*
X1229170D01*
X1227670Y108580D02*
Y111580D01*
X1226170Y121080D02*
X1229170D01*
X1227670Y119580D02*
Y122580D01*
X1226170Y132080D02*
X1229170D01*
X1227670Y130580D02*
Y133580D01*
X1215170Y110080D02*
X1218170D01*
X1216670Y108580D02*
Y111580D01*
X1215170Y121080D02*
X1218170D01*
X1216670Y119580D02*
Y122580D01*
X1215170Y132080D02*
X1218170D01*
X1216670Y130580D02*
Y133580D01*
X1114500Y157000D02*
X1117500D01*
X1116000Y155500D02*
Y158500D01*
X994011Y168469D02*
X997011D01*
X995511Y166969D02*
Y169969D01*
X1510500Y484000D02*
X1513500D01*
X1512000Y482500D02*
Y485500D01*
X2191029Y597394D02*
X2194029D01*
X2192529Y595894D02*
Y598894D01*
X1943295Y651000D02*
X1946295D01*
X1944795Y649500D02*
Y652500D01*
X2175939Y1036631D02*
X2178939D01*
X2177439Y1035131D02*
Y1038131D01*
X145338Y111300D02*
X148338D01*
X146838Y109800D02*
Y112800D01*
X315500Y140000D02*
X318500D01*
X317000Y138500D02*
Y141500D01*
X970496Y110995D02*
X973496D01*
X971996Y109495D02*
Y112495D01*
X970810Y98166D02*
X973810D01*
X972310Y96666D02*
Y99666D01*
X815500Y143785D02*
X818500D01*
X817000Y142285D02*
Y145286D01*
X816507Y107481D02*
X819507D01*
X818007Y105981D02*
Y108981D01*
X1397500Y184578D02*
X1400500D01*
X1399000Y183078D02*
Y186077D01*
X1509500Y141000D02*
X1512500D01*
X1511000Y139500D02*
Y142500D01*
X1772500Y308000D02*
X1775500D01*
X1774000Y306500D02*
Y309500D01*
X1340500Y483000D02*
X1343500D01*
X1342000Y481500D02*
Y484500D01*
X918935Y652000D02*
X921935D01*
X920435Y650500D02*
Y653500D01*
X748828Y653042D02*
X751828D01*
X750328Y651542D02*
Y654542D01*
X487290Y1032527D02*
X490290D01*
X488790Y1031027D02*
Y1034027D01*
X1377500Y75000D02*
X1380500D01*
X1379000Y73500D02*
Y76500D01*
X1090500Y309688D02*
X1093500D01*
X1092000Y308188D02*
Y311188D01*
X1323500Y91000D02*
X1326500D01*
X1325000Y89500D02*
Y92500D01*
X1014496Y153339D02*
X1017496D01*
X1015996Y151839D02*
Y154839D01*
X1276500Y223000D02*
X1279500D01*
X1278000Y221500D02*
Y224500D01*
X1313196Y285480D02*
X1316196D01*
X1314696Y283979D02*
Y286980D01*
X1310536Y234964D02*
X1313536D01*
X1312036Y233464D02*
Y236464D01*
X1268500Y184000D02*
X1271500D01*
X1270000Y182500D02*
Y185500D01*
X1254879Y216360D02*
X1257879D01*
X1256379Y214860D02*
Y217860D01*
X1284441Y172838D02*
X1287441D01*
X1285941Y171338D02*
Y174338D01*
X1237170Y180737D02*
X1240170D01*
X1238670Y179237D02*
Y182237D01*
X1236500Y206000D02*
X1239500D01*
X1238000Y204500D02*
Y207500D01*
X1217500Y315000D02*
X1220500D01*
X1219000Y313500D02*
Y316500D01*
X1198500Y178000D02*
X1201500D01*
X1200000Y176500D02*
Y179500D01*
X1130500Y259000D02*
X1133500D01*
X1132000Y257500D02*
Y260500D01*
X1130500Y279000D02*
X1133500D01*
X1132000Y277500D02*
Y280500D01*
X1089446Y283144D02*
X1092446D01*
X1090946Y281644D02*
Y284644D01*
X1184471Y293762D02*
X1187471D01*
X1185971Y292262D02*
Y295262D01*
X1048500Y266000D02*
X1051500D01*
X1050000Y264500D02*
Y267500D01*
X1071500Y316000D02*
X1074500D01*
X1073000Y314500D02*
Y317500D01*
X775943Y119000D02*
X778942D01*
X777442Y117500D02*
Y120500D01*
X1365185Y167003D02*
X1368185D01*
X1366685Y165503D02*
Y168503D01*
X1282500Y135000D02*
X1285500D01*
X1284000Y133500D02*
Y136500D01*
X1278732Y120810D02*
X1281732D01*
X1280232Y119310D02*
Y122310D01*
X1302026Y114986D02*
X1305026D01*
X1303526Y113486D02*
Y116486D01*
X1343500Y121000D02*
X1346500D01*
X1345000Y119500D02*
Y122500D01*
X1348500Y141000D02*
X1351500D01*
X1350000Y139500D02*
Y142500D01*
X1369500Y100000D02*
X1372500D01*
X1371000Y98500D02*
Y101500D01*
X1296500Y90000D02*
X1299500D01*
X1298000Y88500D02*
Y91500D01*
X1275110Y64000D02*
X1278110D01*
X1276610Y62500D02*
Y65500D01*
X1239500Y75000D02*
X1242500D01*
X1241000Y73500D02*
Y76500D01*
X1239500Y52000D02*
X1242500D01*
X1241000Y50500D02*
Y53500D01*
X1184889Y160932D02*
X1187889D01*
X1186389Y159432D02*
Y162432D01*
X1091018Y154250D02*
X1094018D01*
X1092518Y152750D02*
Y155750D01*
X1146732Y161929D02*
X1149732D01*
X1148232Y160429D02*
Y163429D01*
X848500Y142000D02*
X851500D01*
X850000Y140500D02*
Y143500D01*
X829221Y143334D02*
X832221D01*
X830721Y141834D02*
Y144834D01*
X834500Y155000D02*
X837500D01*
X836000Y153500D02*
Y156500D01*
X878509Y68300D02*
X881509D01*
X880009Y66800D02*
Y69800D01*
X867623Y68300D02*
X870623D01*
X869123Y66800D02*
Y69800D01*
X890400Y69000D02*
X893400D01*
X891900Y67500D02*
Y70500D01*
X897976Y33749D02*
X900976D01*
X899476Y32249D02*
Y35249D01*
X923295Y32442D02*
X926295D01*
X924795Y30942D02*
Y33942D01*
X823500Y101000D02*
X826500D01*
X825000Y99500D02*
Y102500D01*
X832500Y101000D02*
X835500D01*
X834000Y99500D02*
Y102500D01*
X1152077Y82630D02*
X1155077D01*
X1153577Y81130D02*
Y84130D01*
X1154445Y125113D02*
X1157445D01*
X1155945Y123613D02*
Y126613D01*
X1176164Y121088D02*
X1179165D01*
X1177664Y119588D02*
Y122588D01*
X1152500Y94770D02*
X1155500D01*
X1154000Y93270D02*
Y96270D01*
X1154368Y132570D02*
X1157368D01*
X1155868Y131070D02*
Y134070D01*
X1184500Y86000D02*
X1187500D01*
X1186000Y84500D02*
Y87500D01*
X1191053Y59332D02*
X1194053D01*
X1192553Y57832D02*
Y60832D01*
X1193846Y85580D02*
X1196846D01*
X1195346Y84080D02*
Y87080D01*
X1275111Y33676D02*
X1278111D01*
X1276611Y32176D02*
Y35176D01*
X1130501Y247660D02*
X1133501D01*
X1132001Y246160D02*
Y249160D01*
X1531500Y113705D02*
X1534500D01*
X1533000Y112205D02*
Y115205D01*
X1314500Y486000D02*
X1317500D01*
X1316000Y484500D02*
Y487500D01*
X1542500Y293000D02*
X1545500D01*
X1544000Y291500D02*
Y294500D01*
X1601207Y282040D02*
X1604207D01*
X1602707Y280540D02*
Y283540D01*
X1583183Y314809D02*
X1586183D01*
X1584683Y313309D02*
Y316309D01*
X1602193Y310540D02*
X1605193D01*
X1603693Y309040D02*
Y312040D01*
X1034500Y314000D02*
X1037500D01*
X1036000Y312500D02*
Y315500D01*
X526500Y314000D02*
X529500D01*
X528000Y312500D02*
Y315500D01*
X1257857Y309143D02*
X1260857D01*
X1259357Y307643D02*
Y310643D01*
X1078368Y169184D02*
X1081368D01*
X1079868Y167684D02*
Y170683D01*
X1081500Y154000D02*
X1084500D01*
X1083000Y152500D02*
Y155500D01*
X639201Y1037452D02*
X642201D01*
X640701Y1035952D02*
Y1038952D01*
X1810431Y1010669D02*
X1813431D01*
X1811931Y1009169D02*
Y1012169D01*
X929993Y131572D02*
X932993D01*
X931493Y130072D02*
Y133072D01*
X1663410Y1037507D02*
X1666410D01*
X1664910Y1036008D02*
Y1039007D01*
X2095260Y657697D02*
X2098260D01*
X2096760Y656197D02*
Y659197D01*
X2346092Y144071D02*
X2349092D01*
X2347592Y142571D02*
Y145571D01*
X2095379Y316000D02*
X2098379D01*
X2096879Y314500D02*
Y317500D01*
X2346091Y1038000D02*
X2349091D01*
X2347591Y1036500D02*
Y1039500D01*
X469039Y144093D02*
X472039D01*
X470539Y142593D02*
Y145593D01*
X1924555Y314336D02*
X1927555D01*
X1926055Y312836D02*
Y315836D01*
X1942470Y312982D02*
X1945470D01*
X1943970Y311482D02*
Y314482D01*
X2175374Y485007D02*
X2178374D01*
X2176874Y483507D02*
Y486507D01*
X2193677Y482761D02*
X2196677D01*
X2195177Y481261D02*
Y484261D01*
X1076087Y135735D02*
X1079087D01*
X1077587Y134235D02*
Y137235D01*
X2408418Y790953D02*
X2411418D01*
X2409918Y789453D02*
Y792453D01*
X879725Y102356D02*
X882725D01*
X881225Y100856D02*
Y103856D01*
X1071862Y657196D02*
X1074862D01*
X1073362Y655696D02*
Y658696D01*
X1150328Y826809D02*
X1153328D01*
X1151828Y825310D02*
Y828309D01*
X1170073Y821427D02*
X1173073D01*
X1171573Y819927D02*
Y822927D01*
X468416Y1037717D02*
X471416D01*
X469916Y1036217D02*
Y1039217D01*
X1754310Y315000D02*
X1757310D01*
X1755810Y313500D02*
Y316500D01*
X1322015Y827296D02*
X1325015D01*
X1323515Y825796D02*
Y828795D01*
X2004455Y1037407D02*
X2007455D01*
X2005955Y1035907D02*
Y1038907D01*
X297210Y1037731D02*
X300210D01*
X298710Y1036231D02*
Y1039231D01*
X617861Y449370D02*
X620861D01*
X619361Y447870D02*
Y450870D01*
X1663620Y144334D02*
X1666620D01*
X1665120Y142834D02*
Y145834D01*
X1492380Y827000D02*
X1495380D01*
X1493880Y825500D02*
Y828500D01*
X1510800Y824430D02*
X1513801D01*
X1512301Y822930D02*
Y825930D01*
X1834091Y1038056D02*
X1837091D01*
X1835591Y1036556D02*
Y1039556D01*
X1852621Y1032340D02*
X1855621D01*
X1854121Y1030840D02*
Y1033840D01*
X126569Y1038211D02*
X129569D01*
X128069Y1036711D02*
Y1039711D01*
X980302Y486393D02*
X983302D01*
X981802Y484893D02*
Y487893D01*
X2265500Y657000D02*
X2268500D01*
X2267000Y655500D02*
Y658500D01*
X1662368Y826868D02*
X1665368D01*
X1663868Y825368D02*
Y828368D01*
X126686Y826900D02*
X129686D01*
X128186Y825400D02*
Y828400D01*
X145153Y823642D02*
X148153D01*
X146653Y822141D02*
Y825142D01*
X2023582Y140776D02*
X2026582D01*
X2025082Y139276D02*
Y142276D01*
X1150775Y485625D02*
X1153775D01*
X1152275Y484126D02*
Y487126D01*
X387885Y656652D02*
X390885D01*
X389385Y655152D02*
Y658152D01*
X1833860Y828000D02*
X1836860D01*
X1835360Y826500D02*
Y829500D01*
X1492316Y1037830D02*
X1495316D01*
X1493817Y1036330D02*
Y1039330D01*
X2175196Y144884D02*
X2178196D01*
X2176696Y143384D02*
Y146384D01*
X2193992Y141032D02*
X2196992D01*
X2195492Y139532D02*
Y142532D01*
X297598Y826872D02*
X300598D01*
X299098Y825372D02*
Y828372D01*
X2004202Y827000D02*
X2007202D01*
X2005702Y825500D02*
Y828500D01*
X1321851Y1036871D02*
X1324851D01*
X1323351Y1035371D02*
Y1038371D01*
X223439Y483134D02*
X226439D01*
X224939Y481634D02*
Y484634D01*
X900140Y315063D02*
X903140D01*
X901640Y313563D02*
Y316563D01*
X1772861Y651039D02*
X1775861D01*
X1774361Y649539D02*
Y652539D01*
X467500Y827000D02*
X470500D01*
X469000Y825500D02*
Y828500D01*
X2175765Y826745D02*
X2178765D01*
X2177265Y825245D02*
Y828245D01*
X1151049Y1037392D02*
X1154049D01*
X1152549Y1035892D02*
Y1038892D01*
X728971Y315000D02*
X731971D01*
X730471Y313500D02*
Y316500D01*
X638078Y826604D02*
X641078D01*
X639578Y825104D02*
Y828104D01*
X2431660Y826209D02*
X2434660D01*
X2433160Y824709D02*
Y827709D01*
X980500Y1037000D02*
X983500D01*
X982000Y1035500D02*
Y1038500D01*
X126333Y144320D02*
X129333D01*
X127833Y142820D02*
Y145820D01*
X558500Y316000D02*
X561500D01*
X560000Y314500D02*
Y317500D01*
X809500Y827000D02*
X812500D01*
X811000Y825500D02*
Y828500D01*
X2516500Y1038000D02*
X2519500D01*
X2518000Y1036500D02*
Y1039500D01*
X809500Y1037000D02*
X812500D01*
X811000Y1035500D02*
Y1038500D01*
X1241500Y656000D02*
X1244500D01*
X1243000Y654500D02*
Y657500D01*
X1168523Y792937D02*
X1171523D01*
X1170023Y791438D02*
Y794437D01*
X913479Y127805D02*
X916479D01*
X914979Y126305D02*
Y129305D01*
X1081211Y110515D02*
X1084211D01*
X1082711Y109015D02*
Y112015D01*
X1081440Y120112D02*
X1084440D01*
X1082940Y118612D02*
Y121612D01*
X97431Y498069D02*
X100431D01*
X98931Y496569D02*
Y499569D01*
X765500Y147000D02*
X768500D01*
X767000Y145500D02*
Y148500D01*
X1500500Y13000D02*
X1503500D01*
X1502000Y11500D02*
Y14500D01*
X1430500Y652000D02*
X1433500D01*
X1432000Y650500D02*
Y653500D01*
X1412500Y656000D02*
X1415500D01*
X1414000Y654500D02*
Y657500D01*
X406835Y652009D02*
X409835D01*
X408335Y650509D02*
Y653509D01*
X2572500Y293000D02*
X2575500D01*
X2574000Y291500D02*
Y294500D01*
X2391500Y315000D02*
X2394500D01*
X2393000Y313500D02*
Y316500D01*
X2516535Y144000D02*
X2519535D01*
X2518035Y142500D02*
Y145500D01*
X786557Y1011780D02*
X789557D01*
X788057Y1010280D02*
Y1013280D01*
X835882Y30353D02*
X838882D01*
X837382Y28853D02*
Y31853D01*
X102638Y799555D02*
X105638D01*
X104138Y798055D02*
Y801055D01*
X96500Y183000D02*
X99500D01*
X98000Y181500D02*
Y184500D01*
X101937Y106986D02*
X104937D01*
X103437Y105485D02*
Y108485D01*
X1673280Y1081221D02*
X1676280D01*
X1674780Y1079721D02*
Y1082721D01*
X936745Y1075724D02*
X939745D01*
X938245Y1074224D02*
Y1077224D01*
X1325500Y848000D02*
X1328500D01*
X1327000Y846500D02*
Y849500D01*
X1301500Y928000D02*
X1304500D01*
X1303000Y926500D02*
Y929500D01*
X1336591Y928075D02*
X1339591D01*
X1338091Y926575D02*
Y929575D01*
X1317500Y928000D02*
X1320500D01*
X1319000Y926500D02*
Y929500D01*
X1282500Y848000D02*
X1285500D01*
X1284000Y846500D02*
Y849500D01*
X1308500Y848000D02*
X1311500D01*
X1310000Y846500D02*
Y849500D01*
X1344500Y848000D02*
X1347500D01*
X1346000Y846500D02*
Y849500D01*
X2535500Y139000D02*
X2538500D01*
X2537000Y137500D02*
Y140500D01*
X2534420Y111300D02*
X2537419D01*
X2535919Y109800D02*
Y112800D01*
X2364878Y111399D02*
X2367878D01*
X2366378Y109899D02*
Y112899D01*
X2364500Y141000D02*
X2367500D01*
X2366000Y139500D02*
Y142500D01*
X2193816Y111300D02*
X2196816D01*
X2195316Y109800D02*
Y112800D01*
X2023372Y111300D02*
X2026372D01*
X2024872Y109800D02*
Y112800D01*
X1833500Y144000D02*
X1836500D01*
X1835000Y142500D02*
Y145500D01*
X1811107Y106141D02*
X1814107D01*
X1812607Y104641D02*
Y107641D01*
X1682096Y111300D02*
X1685096D01*
X1683596Y109800D02*
Y112800D01*
X1681500Y139000D02*
X1684500D01*
X1683000Y137500D02*
Y140500D01*
X1509382Y111300D02*
X1512382D01*
X1510882Y109800D02*
Y112800D01*
X1491521Y141979D02*
X1494521D01*
X1493021Y140479D02*
Y143479D01*
X656929Y111300D02*
X659929D01*
X658429Y109800D02*
Y112800D01*
X657500Y139000D02*
X660500D01*
X659000Y137500D02*
Y140500D01*
X639500Y144000D02*
X642500D01*
X641000Y142500D02*
Y145500D01*
X275500Y107354D02*
X278500D01*
X277000Y105854D02*
Y108854D01*
X297500Y144000D02*
X300500D01*
X299000Y142500D02*
Y145500D01*
X315417Y111300D02*
X318417D01*
X316917Y109800D02*
Y112800D01*
X145500Y140000D02*
X148500D01*
X147000Y138500D02*
Y141500D01*
X2410581Y282040D02*
X2413581D01*
X2412081Y280540D02*
Y283540D01*
X2410500Y309000D02*
X2413500D01*
X2412000Y307500D02*
Y310500D01*
X2074500Y312000D02*
X2077500D01*
X2076000Y310500D02*
Y313500D01*
X2113500Y312000D02*
X2116500D01*
X2115000Y310500D02*
Y313500D01*
X2113753Y282040D02*
X2116753D01*
X2115253Y280540D02*
Y283540D01*
X1943323Y282040D02*
X1946323D01*
X1944823Y280540D02*
Y283540D01*
X1431500Y312000D02*
X1434500D01*
X1433000Y310500D02*
Y313500D01*
X1430307Y282040D02*
X1433307D01*
X1431807Y280540D02*
Y283540D01*
X1412500Y316000D02*
X1415500D01*
X1414000Y314500D02*
Y317500D01*
X918500Y309000D02*
X921500D01*
X920000Y307500D02*
Y310500D01*
X918363Y282040D02*
X921363D01*
X919863Y280540D02*
Y283540D01*
X747900Y282040D02*
X750900D01*
X749400Y280540D02*
Y283540D01*
X577500Y309000D02*
X580500D01*
X579000Y307500D02*
Y310500D01*
X577145Y282040D02*
X580145D01*
X578645Y280540D02*
Y283540D01*
X406195Y282285D02*
X409195D01*
X407695Y280785D02*
Y283785D01*
X407500Y310000D02*
X410500D01*
X409000Y308500D02*
Y311500D01*
X190340Y282055D02*
X193340D01*
X191840Y280555D02*
Y283556D01*
X171691Y314809D02*
X174691D01*
X173191Y313309D02*
Y316309D01*
X190500Y312000D02*
X193500D01*
X192000Y310500D02*
Y313500D01*
X2346500Y485000D02*
X2349500D01*
X2348000Y483500D02*
Y486500D01*
X2364343Y452770D02*
X2367343D01*
X2365843Y451270D02*
Y454270D01*
X1191500Y448000D02*
X1194500D01*
X1193000Y446500D02*
Y449500D01*
X999500Y481000D02*
X1002500D01*
X1001000Y479500D02*
Y482500D01*
X486553Y452882D02*
X489553D01*
X488053Y451382D02*
Y454383D01*
X467500Y485000D02*
X470500D01*
X469000Y483500D02*
Y486500D01*
X2364500Y483000D02*
X2367500D01*
X2366000Y481500D02*
Y484500D01*
X2152500Y448000D02*
X2155500D01*
X2154000Y446500D02*
Y449500D01*
X2193411Y452770D02*
X2196411D01*
X2194911Y451270D02*
Y454270D01*
X2004500Y485000D02*
X2007500D01*
X2006000Y483500D02*
Y486500D01*
X2022500Y483000D02*
X2025500D01*
X2024000Y481500D02*
Y484500D01*
X2023076Y452770D02*
X2026076D01*
X2024576Y451270D02*
Y454270D01*
X1833500Y485000D02*
X1836500D01*
X1835000Y483500D02*
Y486500D01*
X1852500Y479000D02*
X1855500D01*
X1854000Y477500D02*
Y480500D01*
X1851796Y452770D02*
X1854796D01*
X1853296Y451270D02*
Y454270D01*
X1663500Y485000D02*
X1666500D01*
X1665000Y483500D02*
Y486500D01*
X1681500Y483000D02*
X1684500D01*
X1683000Y481500D02*
Y484500D01*
X1681804Y452770D02*
X1684804D01*
X1683304Y451270D02*
Y454270D01*
X1640500Y448000D02*
X1643500D01*
X1642000Y446500D02*
Y449500D01*
X1492648Y485000D02*
X1495648D01*
X1494149Y483500D02*
Y486500D01*
X1510836Y452770D02*
X1513836D01*
X1512336Y451270D02*
Y454270D01*
X1339599Y452770D02*
X1342599D01*
X1341099Y451270D02*
Y454270D01*
X1168500Y483000D02*
X1171500D01*
X1170000Y481500D02*
Y484500D01*
X1169580Y452770D02*
X1172580D01*
X1171080Y451270D02*
Y454270D01*
X998385Y452770D02*
X1001385D01*
X999885Y451270D02*
Y454270D01*
X828203Y452770D02*
X831203D01*
X829703Y451270D02*
Y454270D01*
X828500Y480000D02*
X831500D01*
X830000Y478500D02*
Y481500D01*
X809500Y485000D02*
X812500D01*
X811000Y483500D02*
Y486500D01*
X638500Y485000D02*
X641500D01*
X640000Y483500D02*
Y486500D01*
X656500Y482000D02*
X659500D01*
X658000Y480500D02*
Y483500D01*
X657487Y452770D02*
X660487D01*
X658987Y451270D02*
Y454270D01*
X486500Y481000D02*
X489500D01*
X488000Y479500D02*
Y482500D01*
X205500Y485000D02*
X208500D01*
X207000Y483500D02*
Y486500D01*
X223790Y452770D02*
X226790D01*
X225290Y451270D02*
Y454270D01*
X2243500Y654000D02*
X2246500D01*
X2245000Y652500D02*
Y655500D01*
X2284481Y623500D02*
X2287481D01*
X2285981Y622000D02*
Y625000D01*
X1943190Y623500D02*
X1946190D01*
X1944690Y622000D02*
Y625000D01*
X1772404Y623500D02*
X1775404D01*
X1773904Y622000D02*
Y625000D01*
X1730500Y655000D02*
X1733500D01*
X1732000Y653500D02*
Y656500D01*
X1601535Y649965D02*
X1604535D01*
X1603035Y648465D02*
Y651465D01*
X1601578Y623508D02*
X1604578D01*
X1603078Y622008D02*
Y625008D01*
X1260500Y652000D02*
X1263500D01*
X1262000Y650500D02*
Y653500D01*
X1260195Y623500D02*
X1263195D01*
X1261695Y622000D02*
Y625000D01*
X1218620Y657000D02*
X1221620D01*
X1220120Y655500D02*
Y658500D01*
X1089843Y623500D02*
X1092843D01*
X1091343Y622000D02*
Y625000D01*
X1089500Y650000D02*
X1092500D01*
X1091000Y648500D02*
Y651500D01*
X190350Y623500D02*
X193351D01*
X191850Y622000D02*
Y625000D01*
X406604Y623500D02*
X409604D01*
X408105Y622000D02*
Y625000D01*
X577190Y623500D02*
X580190D01*
X578690Y622000D02*
Y625000D01*
X747880Y623500D02*
X750880D01*
X749380Y622000D02*
Y625000D01*
X918644Y623500D02*
X921644D01*
X920144Y622000D02*
Y625000D01*
X729440Y656000D02*
X732440D01*
X730940Y654500D02*
Y657500D01*
X706420Y656000D02*
X709420D01*
X707920Y654500D02*
Y657500D01*
X274500Y788000D02*
X277500D01*
X276000Y786500D02*
Y789500D01*
X1924630Y656000D02*
X1927630D01*
X1926130Y654500D02*
Y657500D01*
X1430830Y620500D02*
X1433830D01*
X1432330Y619000D02*
Y622000D01*
X1681088Y794270D02*
X1684088D01*
X1682588Y792770D02*
Y795770D01*
X888500Y112000D02*
X891500D01*
X890000Y110500D02*
Y113500D01*
X1045500Y111000D02*
X1048500D01*
X1047000Y109500D02*
Y112500D01*
X1044735Y164765D02*
X1047735D01*
X1046235Y163265D02*
Y166265D01*
X1096500Y188000D02*
X1099500D01*
X1098000Y186500D02*
Y189500D01*
X1086500Y183000D02*
X1089500D01*
X1088000Y181500D02*
Y184500D01*
X956500Y145000D02*
X959500D01*
X958000Y143500D02*
Y146500D01*
X994500Y142000D02*
X997500D01*
X996000Y140500D02*
Y143500D01*
X1005500Y134000D02*
X1008500D01*
X1007000Y132500D02*
Y135500D01*
X1034928Y156854D02*
X1037928D01*
X1036428Y155354D02*
Y158354D01*
X996500Y122000D02*
X999500D01*
X998000Y120500D02*
Y123500D01*
X960500Y159000D02*
X963500D01*
X962000Y157500D02*
Y160500D01*
X890400Y80000D02*
X893400D01*
X891900Y78500D02*
Y81500D01*
X890400Y59052D02*
X893400D01*
X891900Y57552D02*
Y60552D01*
X944508Y96588D02*
X947508D01*
X946008Y95088D02*
Y98088D01*
X1028361Y77938D02*
X1031361D01*
X1029861Y76438D02*
Y79438D01*
X1035361Y64938D02*
X1038361D01*
X1036861Y63438D02*
Y66438D01*
X1017361Y64938D02*
X1020361D01*
X1018861Y63438D02*
Y66438D01*
X1110993Y70457D02*
X1113992D01*
X1112493Y68957D02*
Y71957D01*
X1106817Y90523D02*
X1109817D01*
X1108317Y89023D02*
Y92023D01*
X1102500Y100000D02*
X1105500D01*
X1104000Y98500D02*
Y101500D01*
X888584Y121851D02*
X891584D01*
X890084Y120351D02*
Y123350D01*
X894500Y146000D02*
X897500D01*
X896000Y144500D02*
Y147500D01*
X899500Y129748D02*
X902500D01*
X901000Y128248D02*
Y131248D01*
X919500Y133000D02*
X922500D01*
X921000Y131500D02*
Y134500D01*
X922500Y83000D02*
X925500D01*
X924000Y81500D02*
Y84500D01*
X910500Y83000D02*
X913500D01*
X912000Y81500D02*
Y84500D01*
X958500Y44000D02*
X961500D01*
X960000Y42500D02*
Y45500D01*
X943500Y44000D02*
X946500D01*
X945000Y42500D02*
Y45500D01*
X928500Y44000D02*
X931500D01*
X930000Y42500D02*
Y45500D01*
X913500Y44000D02*
X916500D01*
X915000Y42500D02*
Y45500D01*
X1202500Y451000D02*
X1205500D01*
X1204000Y449500D02*
Y452500D01*
X1224661Y413812D02*
X1227662D01*
X1226161Y412312D02*
Y415312D01*
X1230298Y420914D02*
X1233298D01*
X1231798Y419414D02*
Y422414D01*
X1053500Y134000D02*
X1056500D01*
X1055000Y132500D02*
Y135500D01*
X1042500Y120000D02*
X1045500D01*
X1044000Y118500D02*
Y121500D01*
X1214739Y40322D02*
X1217739D01*
X1216239Y38822D02*
Y41822D01*
X778500Y47000D02*
X781500D01*
X780000Y45500D02*
Y48500D01*
X801911Y30310D02*
X804911D01*
X803411Y28809D02*
Y31809D01*
X738500Y116000D02*
X741500D01*
X740000Y114500D02*
Y117500D01*
X1412500Y100000D02*
X1415500D01*
X1414000Y98500D02*
Y101500D01*
X1321500Y156000D02*
X1324500D01*
X1323000Y154500D02*
Y157500D01*
X1336758Y250727D02*
X1339758D01*
X1338258Y249227D02*
Y252227D01*
X1112500Y128000D02*
X1115500D01*
X1114000Y126500D02*
Y129500D01*
X1088500Y129000D02*
X1091500D01*
X1090000Y127500D02*
Y130500D01*
X1401358Y128904D02*
X1404358D01*
X1402858Y127404D02*
Y130404D01*
X1241500Y315000D02*
X1244500D01*
X1243000Y313500D02*
Y316500D01*
X1389270Y795871D02*
X1392270D01*
X1390770Y794371D02*
Y797371D01*
X1298582Y790661D02*
X1301582D01*
X1300082Y789161D02*
Y792161D01*
X1341500Y822000D02*
X1344500D01*
X1343000Y820500D02*
Y823500D01*
X144970Y794270D02*
X147970D01*
X146470Y792770D02*
Y795770D01*
X1372500Y437000D02*
X1375500D01*
X1374000Y435500D02*
Y438500D01*
X1285500Y603000D02*
X1288500D01*
X1287000Y601500D02*
Y604500D01*
X2181288Y600223D02*
X2184288D01*
X2182789Y598723D02*
Y601723D01*
X2151500Y586000D02*
X2154500D01*
X2153000Y584500D02*
Y587500D01*
X2148578Y596595D02*
X2151578D01*
X2150078Y595095D02*
Y598095D01*
X2284550Y649969D02*
X2287550D01*
X2286050Y648469D02*
Y651469D01*
X2543465Y785243D02*
X2546465D01*
X2544964Y783743D02*
Y786743D01*
X2526283Y836221D02*
X2529283D01*
X2527783Y834721D02*
Y837721D01*
X2535500Y840000D02*
X2538500D01*
X2537000Y838500D02*
Y841500D01*
X2533788Y785236D02*
X2536788D01*
X2535289Y783736D02*
Y786736D01*
X1341500Y794270D02*
X1344500D01*
X1343000Y792770D02*
Y795770D01*
X2113820Y623500D02*
X2116820D01*
X2115320Y622000D02*
Y625000D01*
X1753840Y657000D02*
X1756840D01*
X1755340Y655500D02*
Y658500D01*
X486153Y111300D02*
X489153D01*
X487653Y109800D02*
Y112800D01*
X486500Y136000D02*
X489500D01*
X488000Y134500D02*
Y137500D01*
X407500Y100000D02*
X410500D01*
X409000Y98500D02*
Y101500D01*
X900180Y656173D02*
X903180D01*
X901680Y654673D02*
Y657673D01*
X388500Y313000D02*
X391500D01*
X390000Y311500D02*
Y314500D01*
X190340Y652000D02*
X193340D01*
X191840Y650500D02*
Y653500D01*
X1366579Y1003421D02*
X1369579D01*
X1368079Y1001921D02*
Y1004921D01*
X657500Y821000D02*
X660500D01*
X659000Y819500D02*
Y822500D01*
X171880Y656964D02*
X174880D01*
X173380Y655464D02*
Y658465D01*
X316522Y794270D02*
X319522D01*
X318022Y792770D02*
Y795770D01*
X657862Y794270D02*
X660862D01*
X659362Y792770D02*
Y795770D01*
X786791Y788291D02*
X789791D01*
X788291Y786791D02*
Y789791D01*
X980170Y826000D02*
X983170D01*
X981670Y824500D02*
Y827500D01*
X1853500Y822000D02*
X1856500D01*
X1855000Y820500D02*
Y823500D01*
X487500Y823000D02*
X490500D01*
X489000Y821500D02*
Y824500D01*
X316500Y821000D02*
X319500D01*
X318000Y819500D02*
Y822500D01*
X2535280Y567000D02*
X2538280D01*
X2536780Y565500D02*
Y568500D01*
X1583110Y658000D02*
X1586110D01*
X1584610Y656500D02*
Y659500D01*
X2006500Y145061D02*
X2009500D01*
X2008000Y143561D02*
Y146561D01*
X748500Y310000D02*
X751500D01*
X750000Y308500D02*
Y311500D01*
X2450500Y794270D02*
X2453500D01*
X2452000Y792770D02*
Y795770D01*
X2113820Y652000D02*
X2116820D01*
X2115320Y650500D02*
Y653500D01*
X577170Y652000D02*
X580170D01*
X578670Y650500D02*
Y653500D01*
X1853604Y107258D02*
X1856604D01*
X1855104Y105758D02*
Y108758D01*
X1259465Y280862D02*
X1262465D01*
X1260965Y279362D02*
Y282362D01*
X1772298Y281509D02*
X1775298D01*
X1773797Y280009D02*
Y283009D01*
X998507Y794270D02*
X1001507D01*
X1000007Y792770D02*
Y795770D01*
X2322500Y107000D02*
X2325500D01*
X2324000Y105500D02*
Y108500D01*
X1811067Y790519D02*
X1814067D01*
X1812567Y789019D02*
Y792020D01*
X1128303Y450169D02*
X1131303D01*
X1129803Y448669D02*
Y451669D01*
X103490Y1000869D02*
X106490D01*
X104990Y999369D02*
Y1002369D01*
X607560Y1038000D02*
X610560D01*
X609060Y1036500D02*
Y1039500D01*
X1119770Y1038000D02*
X1122770D01*
X1121270Y1036500D02*
Y1039500D01*
X1631970Y1038000D02*
X1634970D01*
X1633470Y1036500D02*
Y1039500D01*
X2144380Y1038000D02*
X2147380D01*
X2145880Y1036500D02*
Y1039500D01*
X144970Y1005000D02*
X147970D01*
X146470Y1003500D02*
Y1006500D01*
X315670Y1005000D02*
X318670D01*
X317170Y1003500D02*
Y1006500D01*
X486480Y1005000D02*
X489480D01*
X487980Y1003500D02*
Y1006500D01*
X657120Y1005000D02*
X660120D01*
X658620Y1003500D02*
Y1006500D01*
X826645Y1005000D02*
X829645D01*
X828145Y1003500D02*
Y1006500D01*
X998630Y1005000D02*
X1001630D01*
X1000130Y1003500D02*
Y1006500D01*
X1169290Y1005000D02*
X1172290D01*
X1170790Y1003500D02*
Y1006500D01*
X1340120Y1005000D02*
X1343120D01*
X1341620Y1003500D02*
Y1006500D01*
X2535280Y538140D02*
X2538280D01*
X2536780Y536640D02*
Y539640D01*
X1853500Y794270D02*
X1856500D01*
X1855000Y792770D02*
Y795770D01*
X2024500Y794270D02*
X2027500D01*
X2026000Y792770D02*
Y795770D01*
X2023120Y1005000D02*
X2026120D01*
X2024620Y1003500D02*
Y1006500D01*
X1510840Y1005000D02*
X1513840D01*
X1512340Y1003500D02*
Y1006500D01*
X1681440Y1005000D02*
X1684440D01*
X1682940Y1003500D02*
Y1006500D01*
X1852120Y1005000D02*
X1855120D01*
X1853620Y1003500D02*
Y1006500D01*
X2194500Y794270D02*
X2197500D01*
X2196000Y792770D02*
Y795770D01*
X2193950Y1005000D02*
X2196950D01*
X2195450Y1003500D02*
Y1006500D01*
X2364154Y1005000D02*
X2367154D01*
X2365654Y1003500D02*
Y1006500D01*
X2534730Y1005000D02*
X2537730D01*
X2536230Y1003500D02*
Y1006500D01*
X2450500Y820904D02*
X2453500D01*
X2452000Y819404D02*
Y822404D01*
X1852500Y139000D02*
X1855500D01*
X1854000Y137500D02*
Y140500D01*
X1681500Y824061D02*
X1684500D01*
X1683000Y822561D02*
Y825561D01*
X1510500Y794270D02*
X1513500D01*
X1512000Y792770D02*
Y795770D01*
X829088Y794270D02*
X832088D01*
X830588Y792770D02*
Y795770D01*
X486500Y794270D02*
X489500D01*
X488000Y792770D02*
Y795770D01*
X2516820Y571000D02*
X2519820D01*
X2518320Y569500D02*
Y572500D01*
X2194500Y821000D02*
X2197500D01*
X2196000Y819500D02*
Y822500D01*
X2024500Y821000D02*
X2027500D01*
X2026000Y819500D02*
Y822500D01*
X998500Y822000D02*
X1001500D01*
X1000000Y820500D02*
Y823500D01*
X828500Y821000D02*
X831500D01*
X830000Y819500D02*
Y822500D01*
X2023120Y1033753D02*
X2026120D01*
X2024620Y1032253D02*
Y1035253D01*
X2193950Y1031000D02*
X2196950D01*
X2195450Y1029500D02*
Y1032500D01*
X1340120Y1031000D02*
X1343120D01*
X1341620Y1029500D02*
Y1032500D01*
X998630Y1031000D02*
X1001630D01*
X1000130Y1029500D02*
Y1032500D01*
X315670Y1031000D02*
X318670D01*
X317170Y1029500D02*
Y1032500D01*
X144970Y1031000D02*
X147970D01*
X146470Y1029500D02*
Y1032500D01*
X1510840Y1031000D02*
X1513840D01*
X1512340Y1029500D02*
Y1032500D01*
X2364550Y1031000D02*
X2367550D01*
X2366050Y1029500D02*
Y1032500D01*
X2535120Y1031000D02*
X2538120D01*
X2536620Y1029500D02*
Y1032500D01*
X827790Y1031000D02*
X830790D01*
X829290Y1029500D02*
Y1032500D01*
X1681440Y1031000D02*
X1684440D01*
X1682940Y1029500D02*
Y1032500D01*
X657120Y1031000D02*
X660120D01*
X658620Y1029500D02*
Y1032500D01*
X1169290Y1031000D02*
X1172290D01*
X1170790Y1029500D02*
Y1032500D01*
X558710Y657000D02*
X561710D01*
X560210Y655500D02*
Y658500D01*
M02*
