G04*
G04 #@! TF.GenerationSoftware,Altium Limited,Altium Designer,24.2.2 (26)*
G04*
G04 Layer_Color=32896*
%FSLAX44Y44*%
%MOMM*%
G71*
G04*
G04 #@! TF.SameCoordinates,2B7E99FB-4F0D-402E-9D71-9E8D4FD60802*
G04*
G04*
G04 #@! TF.FilePolarity,Positive*
G04*
G01*
G75*
%ADD10C,0.1500*%
%ADD11C,0.2000*%
%ADD95C,0.2500*%
%ADD96C,0.1000*%
%ADD97C,0.0500*%
G36*
X1368476Y89973D02*
X1370976Y94973D01*
X1365976D01*
X1368476Y89973D01*
D02*
G37*
D10*
X1186401Y157575D02*
Y151327D01*
X1185152Y150077D01*
X1182652D01*
X1181403Y151327D01*
Y157575D01*
X1178904Y150077D02*
X1176404D01*
X1177654D01*
Y157575D01*
X1178904Y156325D01*
X1127591Y285481D02*
Y277983D01*
X1123842D01*
X1122592Y279233D01*
Y284231D01*
X1123842Y285481D01*
X1127591D01*
X1120093Y284231D02*
X1118844Y285481D01*
X1116344D01*
X1115095Y284231D01*
Y282981D01*
X1116344Y281732D01*
X1115095Y280482D01*
Y279233D01*
X1116344Y277983D01*
X1118844D01*
X1120093Y279233D01*
Y280482D01*
X1118844Y281732D01*
X1120093Y282981D01*
Y284231D01*
X1118844Y281732D02*
X1116344D01*
X1108847Y277983D02*
Y285481D01*
X1112596Y281732D01*
X1107597D01*
X1522372Y20251D02*
Y27749D01*
X1518623D01*
X1517374Y26499D01*
Y24000D01*
X1518623Y22750D01*
X1522372D01*
X1519873D02*
X1517374Y20251D01*
X1514874D02*
X1512375D01*
X1513625D01*
Y27749D01*
X1514874Y26499D01*
X1503628Y27749D02*
X1508626D01*
Y24000D01*
X1506127Y25250D01*
X1504878D01*
X1503628Y24000D01*
Y21501D01*
X1504878Y20251D01*
X1507377D01*
X1508626Y21501D01*
X1002498Y99846D02*
X1003747Y101096D01*
X1006246D01*
X1007496Y99846D01*
Y94848D01*
X1006246Y93598D01*
X1003747D01*
X1002498Y94848D01*
X999998Y93598D02*
X997499D01*
X998749D01*
Y101096D01*
X999998Y99846D01*
X993750Y93598D02*
X991251D01*
X992501D01*
Y101096D01*
X993750Y99846D01*
X982504Y101096D02*
X985003Y99846D01*
X987502Y97347D01*
Y94848D01*
X986253Y93598D01*
X983754D01*
X982504Y94848D01*
Y96097D01*
X983754Y97347D01*
X987502D01*
X1153749Y142752D02*
X1147501D01*
X1146251Y144002D01*
Y146501D01*
X1147501Y147750D01*
X1153749D01*
X1152499Y150250D02*
X1153749Y151499D01*
Y153998D01*
X1152499Y155248D01*
X1151250D01*
X1150000Y153998D01*
Y152749D01*
Y153998D01*
X1148750Y155248D01*
X1147501D01*
X1146251Y153998D01*
Y151499D01*
X1147501Y150250D01*
X816272Y116228D02*
Y121226D01*
X817522Y122476D01*
X820021D01*
X821271Y121226D01*
Y116228D01*
X820021Y114978D01*
X817522D01*
X818772Y117477D02*
X816272Y114978D01*
X817522D02*
X816272Y116228D01*
X808775Y114978D02*
X813773D01*
X808775Y119977D01*
Y121226D01*
X810024Y122476D01*
X812523D01*
X813773Y121226D01*
X1081091Y116586D02*
Y110338D01*
X1079842Y109089D01*
X1077342D01*
X1076093Y110338D01*
Y116586D01*
X1073594D02*
X1068595D01*
Y115337D01*
X1073594Y110338D01*
Y109089D01*
X1045604Y291482D02*
Y283985D01*
X1041856D01*
X1040606Y285234D01*
Y290233D01*
X1041856Y291482D01*
X1045604D01*
X1038107Y283985D02*
X1035608D01*
X1036857D01*
Y291482D01*
X1038107Y290233D01*
X1031859D02*
X1030609Y291482D01*
X1028110D01*
X1026861Y290233D01*
Y285234D01*
X1028110Y283985D01*
X1030609D01*
X1031859Y285234D01*
Y290233D01*
X1024361Y283985D02*
X1021862D01*
X1023112D01*
Y291482D01*
X1024361Y290233D01*
X1276162Y192293D02*
X1268665D01*
Y196042D01*
X1269914Y197291D01*
X1274913D01*
X1276162Y196042D01*
Y192293D01*
X1268665Y199790D02*
Y202290D01*
Y201040D01*
X1276162D01*
X1274913Y199790D01*
Y206038D02*
X1276162Y207288D01*
Y209787D01*
X1274913Y211037D01*
X1269914D01*
X1268665Y209787D01*
Y207288D01*
X1269914Y206038D01*
X1274913D01*
Y213536D02*
X1276162Y214786D01*
Y217285D01*
X1274913Y218534D01*
X1269914D01*
X1268665Y217285D01*
Y214786D01*
X1269914Y213536D01*
X1274913D01*
X1355195Y279080D02*
Y271582D01*
X1351446D01*
X1350196Y272832D01*
Y277830D01*
X1351446Y279080D01*
X1355195D01*
X1347697Y272832D02*
X1346447Y271582D01*
X1343948D01*
X1342699Y272832D01*
Y277830D01*
X1343948Y279080D01*
X1346447D01*
X1347697Y277830D01*
Y276581D01*
X1346447Y275331D01*
X1342699D01*
X1340200Y272832D02*
X1338950Y271582D01*
X1336451D01*
X1335201Y272832D01*
Y277830D01*
X1336451Y279080D01*
X1338950D01*
X1340200Y277830D01*
Y276581D01*
X1338950Y275331D01*
X1335201D01*
X1257782Y326332D02*
X1250285D01*
Y330081D01*
X1251534Y331331D01*
X1256533D01*
X1257782Y330081D01*
Y326332D01*
X1251534Y333830D02*
X1250285Y335079D01*
Y337579D01*
X1251534Y338828D01*
X1256533D01*
X1257782Y337579D01*
Y335079D01*
X1256533Y333830D01*
X1255283D01*
X1254034Y335079D01*
Y338828D01*
X1256533Y341328D02*
X1257782Y342577D01*
Y345076D01*
X1256533Y346326D01*
X1255283D01*
X1254034Y345076D01*
X1252784Y346326D01*
X1251534D01*
X1250285Y345076D01*
Y342577D01*
X1251534Y341328D01*
X1252784D01*
X1254034Y342577D01*
X1255283Y341328D01*
X1256533D01*
X1254034Y342577D02*
Y345076D01*
X1426048Y205771D02*
Y198274D01*
X1422299D01*
X1421049Y199523D01*
Y204522D01*
X1422299Y205771D01*
X1426048D01*
X1418550Y199523D02*
X1417300Y198274D01*
X1414801D01*
X1413552Y199523D01*
Y204522D01*
X1414801Y205771D01*
X1417300D01*
X1418550Y204522D01*
Y203272D01*
X1417300Y202022D01*
X1413552D01*
X1411052Y205771D02*
X1406054D01*
Y204522D01*
X1411052Y199523D01*
Y198274D01*
X1309681Y289811D02*
Y282314D01*
X1305932D01*
X1304683Y283563D01*
Y288562D01*
X1305932Y289811D01*
X1309681D01*
X1302183Y283563D02*
X1300934Y282314D01*
X1298435D01*
X1297185Y283563D01*
Y288562D01*
X1298435Y289811D01*
X1300934D01*
X1302183Y288562D01*
Y287312D01*
X1300934Y286063D01*
X1297185D01*
X1289687Y289811D02*
X1292187Y288562D01*
X1294686Y286063D01*
Y283563D01*
X1293436Y282314D01*
X1290937D01*
X1289687Y283563D01*
Y284813D01*
X1290937Y286063D01*
X1294686D01*
X1299231Y17603D02*
Y10106D01*
X1295482D01*
X1294232Y11356D01*
Y16354D01*
X1295482Y17603D01*
X1299231D01*
X1291733Y11356D02*
X1290483Y10106D01*
X1287984D01*
X1286735Y11356D01*
Y16354D01*
X1287984Y17603D01*
X1290483D01*
X1291733Y16354D01*
Y15104D01*
X1290483Y13855D01*
X1286735D01*
X1279237Y17603D02*
X1284236D01*
Y13855D01*
X1281736Y15104D01*
X1280487D01*
X1279237Y13855D01*
Y11356D01*
X1280487Y10106D01*
X1282986D01*
X1284236Y11356D01*
X1305307Y23521D02*
X1297809D01*
Y27269D01*
X1299059Y28519D01*
X1304057D01*
X1305307Y27269D01*
Y23521D01*
X1299059Y31018D02*
X1297809Y32268D01*
Y34767D01*
X1299059Y36016D01*
X1304057D01*
X1305307Y34767D01*
Y32268D01*
X1304057Y31018D01*
X1302808D01*
X1301558Y32268D01*
Y36016D01*
X1297809Y42264D02*
X1305307D01*
X1301558Y38516D01*
Y43514D01*
X1305375Y46074D02*
X1297877D01*
Y49823D01*
X1299127Y51073D01*
X1304125D01*
X1305375Y49823D01*
Y46074D01*
X1299127Y53572D02*
X1297877Y54822D01*
Y57321D01*
X1299127Y58570D01*
X1304125D01*
X1305375Y57321D01*
Y54822D01*
X1304125Y53572D01*
X1302876D01*
X1301626Y54822D01*
Y58570D01*
X1304125Y61070D02*
X1305375Y62319D01*
Y64818D01*
X1304125Y66068D01*
X1302876D01*
X1301626Y64818D01*
Y63569D01*
Y64818D01*
X1300376Y66068D01*
X1299127D01*
X1297877Y64818D01*
Y62319D01*
X1299127Y61070D01*
X1305375Y68764D02*
X1297877D01*
Y72512D01*
X1299127Y73762D01*
X1304125D01*
X1305375Y72512D01*
Y68764D01*
X1299127Y76261D02*
X1297877Y77511D01*
Y80010D01*
X1299127Y81260D01*
X1304125D01*
X1305375Y80010D01*
Y77511D01*
X1304125Y76261D01*
X1302876D01*
X1301626Y77511D01*
Y81260D01*
X1297877Y88757D02*
Y83759D01*
X1302876Y88757D01*
X1304125D01*
X1305375Y87508D01*
Y85008D01*
X1304125Y83759D01*
X1293469Y102221D02*
Y94724D01*
X1289720D01*
X1288471Y95973D01*
Y100972D01*
X1289720Y102221D01*
X1293469D01*
X1285972Y95973D02*
X1284722Y94724D01*
X1282223D01*
X1280973Y95973D01*
Y100972D01*
X1282223Y102221D01*
X1284722D01*
X1285972Y100972D01*
Y99722D01*
X1284722Y98472D01*
X1280973D01*
X1278474Y94724D02*
X1275975D01*
X1277224D01*
Y102221D01*
X1278474Y100972D01*
X1389452Y165551D02*
Y158053D01*
X1385703D01*
X1384453Y159303D01*
Y164301D01*
X1385703Y165551D01*
X1389452D01*
X1381954Y159303D02*
X1380705Y158053D01*
X1378206D01*
X1376956Y159303D01*
Y164301D01*
X1378206Y165551D01*
X1380705D01*
X1381954Y164301D01*
Y163052D01*
X1380705Y161802D01*
X1376956D01*
X1374457Y164301D02*
X1373207Y165551D01*
X1370708D01*
X1369458Y164301D01*
Y159303D01*
X1370708Y158053D01*
X1373207D01*
X1374457Y159303D01*
Y164301D01*
X1361997Y187749D02*
Y180251D01*
X1358248D01*
X1356998Y181501D01*
Y186499D01*
X1358248Y187749D01*
X1361997D01*
X1354499Y186499D02*
X1353250Y187749D01*
X1350750D01*
X1349501Y186499D01*
Y185250D01*
X1350750Y184000D01*
X1349501Y182750D01*
Y181501D01*
X1350750Y180251D01*
X1353250D01*
X1354499Y181501D01*
Y182750D01*
X1353250Y184000D01*
X1354499Y185250D01*
Y186499D01*
X1353250Y184000D02*
X1350750D01*
X1347002Y181501D02*
X1345752Y180251D01*
X1343253D01*
X1342003Y181501D01*
Y186499D01*
X1343253Y187749D01*
X1345752D01*
X1347002Y186499D01*
Y185250D01*
X1345752Y184000D01*
X1342003D01*
X1309951Y167567D02*
Y160069D01*
X1306203D01*
X1304953Y161319D01*
Y166317D01*
X1306203Y167567D01*
X1309951D01*
X1302454Y166317D02*
X1301204Y167567D01*
X1298705D01*
X1297455Y166317D01*
Y165068D01*
X1298705Y163818D01*
X1297455Y162568D01*
Y161319D01*
X1298705Y160069D01*
X1301204D01*
X1302454Y161319D01*
Y162568D01*
X1301204Y163818D01*
X1302454Y165068D01*
Y166317D01*
X1301204Y163818D02*
X1298705D01*
X1294956Y166317D02*
X1293707Y167567D01*
X1291207D01*
X1289958Y166317D01*
Y165068D01*
X1291207Y163818D01*
X1289958Y162568D01*
Y161319D01*
X1291207Y160069D01*
X1293707D01*
X1294956Y161319D01*
Y162568D01*
X1293707Y163818D01*
X1294956Y165068D01*
Y166317D01*
X1293707Y163818D02*
X1291207D01*
X1220322Y303885D02*
Y296387D01*
X1216573D01*
X1215323Y297637D01*
Y302635D01*
X1216573Y303885D01*
X1220322D01*
X1212824Y302635D02*
X1211574Y303885D01*
X1209075D01*
X1207825Y302635D01*
Y301385D01*
X1209075Y300136D01*
X1207825Y298886D01*
Y297637D01*
X1209075Y296387D01*
X1211574D01*
X1212824Y297637D01*
Y298886D01*
X1211574Y300136D01*
X1212824Y301385D01*
Y302635D01*
X1211574Y300136D02*
X1209075D01*
X1205326Y303885D02*
X1200328D01*
Y302635D01*
X1205326Y297637D01*
Y296387D01*
X1045997Y302900D02*
Y295403D01*
X1042248D01*
X1040998Y296652D01*
Y301651D01*
X1042248Y302900D01*
X1045997D01*
X1038499Y301651D02*
X1037250Y302900D01*
X1034750D01*
X1033501Y301651D01*
Y300401D01*
X1034750Y299151D01*
X1033501Y297902D01*
Y296652D01*
X1034750Y295403D01*
X1037250D01*
X1038499Y296652D01*
Y297902D01*
X1037250Y299151D01*
X1038499Y300401D01*
Y301651D01*
X1037250Y299151D02*
X1034750D01*
X1026003Y302900D02*
X1028502Y301651D01*
X1031002Y299151D01*
Y296652D01*
X1029752Y295403D01*
X1027253D01*
X1026003Y296652D01*
Y297902D01*
X1027253Y299151D01*
X1031002D01*
X1084388Y314669D02*
Y307172D01*
X1080639D01*
X1079390Y308421D01*
Y313420D01*
X1080639Y314669D01*
X1084388D01*
X1076891Y313420D02*
X1075641Y314669D01*
X1073142D01*
X1071892Y313420D01*
Y312170D01*
X1073142Y310920D01*
X1071892Y309671D01*
Y308421D01*
X1073142Y307172D01*
X1075641D01*
X1076891Y308421D01*
Y309671D01*
X1075641Y310920D01*
X1076891Y312170D01*
Y313420D01*
X1075641Y310920D02*
X1073142D01*
X1064395Y314669D02*
X1069393D01*
Y310920D01*
X1066894Y312170D01*
X1065644D01*
X1064395Y310920D01*
Y308421D01*
X1065644Y307172D01*
X1068143D01*
X1069393Y308421D01*
X1127398Y275183D02*
Y267685D01*
X1123649D01*
X1122400Y268935D01*
Y273933D01*
X1123649Y275183D01*
X1127398D01*
X1119901Y273933D02*
X1118651Y275183D01*
X1116152D01*
X1114902Y273933D01*
Y272684D01*
X1116152Y271434D01*
X1114902Y270184D01*
Y268935D01*
X1116152Y267685D01*
X1118651D01*
X1119901Y268935D01*
Y270184D01*
X1118651Y271434D01*
X1119901Y272684D01*
Y273933D01*
X1118651Y271434D02*
X1116152D01*
X1112403Y273933D02*
X1111153Y275183D01*
X1108654D01*
X1107405Y273933D01*
Y272684D01*
X1108654Y271434D01*
X1109904D01*
X1108654D01*
X1107405Y270184D01*
Y268935D01*
X1108654Y267685D01*
X1111153D01*
X1112403Y268935D01*
X1127495Y264692D02*
Y257195D01*
X1123746D01*
X1122496Y258444D01*
Y263443D01*
X1123746Y264692D01*
X1127495D01*
X1119997Y263443D02*
X1118747Y264692D01*
X1116248D01*
X1114998Y263443D01*
Y262193D01*
X1116248Y260944D01*
X1114998Y259694D01*
Y258444D01*
X1116248Y257195D01*
X1118747D01*
X1119997Y258444D01*
Y259694D01*
X1118747Y260944D01*
X1119997Y262193D01*
Y263443D01*
X1118747Y260944D02*
X1116248D01*
X1107501Y257195D02*
X1112499D01*
X1107501Y262193D01*
Y263443D01*
X1108751Y264692D01*
X1111250D01*
X1112499Y263443D01*
X1147747Y239749D02*
Y232251D01*
X1143998D01*
X1142749Y233501D01*
Y238499D01*
X1143998Y239749D01*
X1147747D01*
X1140250Y238499D02*
X1139000Y239749D01*
X1136501D01*
X1135251Y238499D01*
Y237250D01*
X1136501Y236000D01*
X1135251Y234750D01*
Y233501D01*
X1136501Y232251D01*
X1139000D01*
X1140250Y233501D01*
Y234750D01*
X1139000Y236000D01*
X1140250Y237250D01*
Y238499D01*
X1139000Y236000D02*
X1136501D01*
X1132752Y232251D02*
X1130253D01*
X1131502D01*
Y239749D01*
X1132752Y238499D01*
X1057499Y156502D02*
X1058749Y155253D01*
Y152754D01*
X1057499Y151504D01*
X1052501D01*
X1051251Y152754D01*
Y155253D01*
X1052501Y156502D01*
X1051251Y159002D02*
Y161501D01*
Y160251D01*
X1058749D01*
X1057499Y159002D01*
X1051251Y165250D02*
Y167749D01*
Y166499D01*
X1058749D01*
X1057499Y165250D01*
X1058749Y176496D02*
Y171498D01*
X1055000D01*
X1056250Y173997D01*
Y175246D01*
X1055000Y176496D01*
X1052501D01*
X1051251Y175246D01*
Y172747D01*
X1052501Y171498D01*
X1300498Y238499D02*
X1301747Y239749D01*
X1304246D01*
X1305496Y238499D01*
Y233501D01*
X1304246Y232251D01*
X1301747D01*
X1300498Y233501D01*
X1297998Y232251D02*
X1295499D01*
X1296749D01*
Y239749D01*
X1297998Y238499D01*
X1291750Y232251D02*
X1289251D01*
X1290501D01*
Y239749D01*
X1291750Y238499D01*
X1281754Y232251D02*
Y239749D01*
X1285502Y236000D01*
X1280504D01*
X1214262Y325775D02*
X1215512Y327024D01*
X1218011D01*
X1219261Y325775D01*
Y320776D01*
X1218011Y319527D01*
X1215512D01*
X1214262Y320776D01*
X1211763Y319527D02*
X1209264D01*
X1210514D01*
Y327024D01*
X1211763Y325775D01*
X1205515Y319527D02*
X1203016D01*
X1204266D01*
Y327024D01*
X1205515Y325775D01*
X1199267D02*
X1198018Y327024D01*
X1195518D01*
X1194269Y325775D01*
Y324525D01*
X1195518Y323276D01*
X1196768D01*
X1195518D01*
X1194269Y322026D01*
Y320776D01*
X1195518Y319527D01*
X1198018D01*
X1199267Y320776D01*
X1372499Y189502D02*
X1373749Y188253D01*
Y185754D01*
X1372499Y184504D01*
X1367501D01*
X1366251Y185754D01*
Y188253D01*
X1367501Y189502D01*
X1366251Y192002D02*
Y194501D01*
Y193251D01*
X1373749D01*
X1372499Y192002D01*
X1366251Y198250D02*
Y200749D01*
Y199499D01*
X1373749D01*
X1372499Y198250D01*
X1366251Y209496D02*
Y204498D01*
X1371250Y209496D01*
X1372499D01*
X1373749Y208246D01*
Y205747D01*
X1372499Y204498D01*
X1337248Y238499D02*
X1338498Y239749D01*
X1340997D01*
X1342246Y238499D01*
Y233501D01*
X1340997Y232251D01*
X1338498D01*
X1337248Y233501D01*
X1334749Y232251D02*
X1332250D01*
X1333499D01*
Y239749D01*
X1334749Y238499D01*
X1328501Y232251D02*
X1326002D01*
X1327251D01*
Y239749D01*
X1328501Y238499D01*
X1322253Y232251D02*
X1319754D01*
X1321003D01*
Y239749D01*
X1322253Y238499D01*
X1296498Y189499D02*
X1297747Y190749D01*
X1300246D01*
X1301496Y189499D01*
Y184501D01*
X1300246Y183251D01*
X1297747D01*
X1296498Y184501D01*
X1293998Y183251D02*
X1291499D01*
X1292749D01*
Y190749D01*
X1293998Y189499D01*
X1287750Y183251D02*
X1285251D01*
X1286501D01*
Y190749D01*
X1287750Y189499D01*
X1281502D02*
X1280253Y190749D01*
X1277754D01*
X1276504Y189499D01*
Y184501D01*
X1277754Y183251D01*
X1280253D01*
X1281502Y184501D01*
Y189499D01*
X985250Y176180D02*
Y169932D01*
X984000Y168682D01*
X981501D01*
X980252Y169932D01*
Y176180D01*
X972754D02*
X975253Y174930D01*
X977753Y172431D01*
Y169932D01*
X976503Y168682D01*
X974004D01*
X972754Y169932D01*
Y171181D01*
X974004Y172431D01*
X977753D01*
X945248Y153749D02*
Y147501D01*
X943998Y146251D01*
X941499D01*
X940250Y147501D01*
Y153749D01*
X932752D02*
X937750D01*
Y150000D01*
X935251Y151250D01*
X934002D01*
X932752Y150000D01*
Y147501D01*
X934002Y146251D01*
X936501D01*
X937750Y147501D01*
X1274288Y274052D02*
X1269290D01*
X1271789D01*
Y266554D01*
X1266790D02*
Y274052D01*
X1263042D01*
X1261792Y272802D01*
Y270303D01*
X1263042Y269053D01*
X1266790D01*
X1259293Y265304D02*
X1254294D01*
X1246797Y272802D02*
X1248046Y274052D01*
X1250546D01*
X1251795Y272802D01*
Y267804D01*
X1250546Y266554D01*
X1248046D01*
X1246797Y267804D01*
Y270303D01*
X1249296D01*
X1244298Y266554D02*
Y274052D01*
X1239299Y266554D01*
Y274052D01*
X1236800D02*
Y266554D01*
X1233051D01*
X1231802Y267804D01*
Y272802D01*
X1233051Y274052D01*
X1236800D01*
X984998Y54749D02*
Y47251D01*
X980000D01*
X977501D02*
X975002D01*
X976251D01*
Y54749D01*
X977501Y53499D01*
X1091172Y180534D02*
X1084924D01*
X1083674Y181784D01*
Y184283D01*
X1084924Y185532D01*
X1091172D01*
X1083674Y191780D02*
X1091172D01*
X1087423Y188032D01*
Y193030D01*
X1439443Y106263D02*
Y113760D01*
X1435694D01*
X1434444Y112511D01*
Y110012D01*
X1435694Y108762D01*
X1439443D01*
X1436944D02*
X1434444Y106263D01*
X1426947Y113760D02*
X1429446Y112511D01*
X1431945Y110012D01*
Y107512D01*
X1430696Y106263D01*
X1428197D01*
X1426947Y107512D01*
Y108762D01*
X1428197Y110012D01*
X1431945D01*
X1419449Y106263D02*
X1424448D01*
X1419449Y111261D01*
Y112511D01*
X1420699Y113760D01*
X1423198D01*
X1424448Y112511D01*
X856250Y92501D02*
Y97499D01*
X857499Y98749D01*
X859998D01*
X861248Y97499D01*
Y92501D01*
X859998Y91251D01*
X857499D01*
X858749Y93750D02*
X856250Y91251D01*
X857499D02*
X856250Y92501D01*
X850002Y91251D02*
Y98749D01*
X853750Y95000D01*
X848752D01*
X1004363Y175757D02*
Y180756D01*
X1005613Y182005D01*
X1008112D01*
X1009362Y180756D01*
Y175757D01*
X1008112Y174508D01*
X1005613D01*
X1006862Y177007D02*
X1004363Y174508D01*
X1005613D02*
X1004363Y175757D01*
X1001864Y180756D02*
X1000614Y182005D01*
X998115D01*
X996866Y180756D01*
Y179506D01*
X998115Y178257D01*
X999365D01*
X998115D01*
X996866Y177007D01*
Y175757D01*
X998115Y174508D01*
X1000614D01*
X1001864Y175757D01*
X897398Y50037D02*
X898648Y51286D01*
X901147D01*
X902397Y50037D01*
Y45038D01*
X901147Y43788D01*
X898648D01*
X897398Y45038D01*
X889901Y43788D02*
X894899D01*
X889901Y48787D01*
Y50037D01*
X891150Y51286D01*
X893650D01*
X894899Y50037D01*
X887402Y43788D02*
X884902D01*
X886152D01*
Y51286D01*
X887402Y50037D01*
X905906Y90383D02*
X907156Y91633D01*
X909655D01*
X910905Y90383D01*
Y85385D01*
X909655Y84135D01*
X907156D01*
X905906Y85385D01*
X898409Y84135D02*
X903407D01*
X898409Y89134D01*
Y90383D01*
X899658Y91633D01*
X902157D01*
X903407Y90383D01*
X895909D02*
X894660Y91633D01*
X892161D01*
X890911Y90383D01*
Y89134D01*
X892161Y87884D01*
X893410D01*
X892161D01*
X890911Y86634D01*
Y85385D01*
X892161Y84135D01*
X894660D01*
X895909Y85385D01*
X1180647Y305630D02*
X1181896Y306880D01*
X1184395D01*
X1185645Y305630D01*
Y300632D01*
X1184395Y299382D01*
X1181896D01*
X1180647Y300632D01*
X1178147Y299382D02*
X1175648D01*
X1176898D01*
Y306880D01*
X1178147Y305630D01*
X1171899Y300632D02*
X1170650Y299382D01*
X1168150D01*
X1166901Y300632D01*
Y305630D01*
X1168150Y306880D01*
X1170650D01*
X1171899Y305630D01*
Y304381D01*
X1170650Y303131D01*
X1166901D01*
X927106Y46496D02*
X928356Y47746D01*
X930855D01*
X932104Y46496D01*
Y41498D01*
X930855Y40248D01*
X928356D01*
X927106Y41498D01*
X919608Y40248D02*
X924607D01*
X919608Y45247D01*
Y46496D01*
X920858Y47746D01*
X923357D01*
X924607Y46496D01*
X917109D02*
X915860Y47746D01*
X913360D01*
X912111Y46496D01*
Y41498D01*
X913360Y40248D01*
X915860D01*
X917109Y41498D01*
Y46496D01*
X956419Y154810D02*
X957668Y153561D01*
Y151062D01*
X956419Y149812D01*
X951420D01*
X950171Y151062D01*
Y153561D01*
X951420Y154810D01*
X950171Y162308D02*
Y157310D01*
X955169Y162308D01*
X956419D01*
X957668Y161058D01*
Y158559D01*
X956419Y157310D01*
X957668Y169806D02*
Y164807D01*
X953920D01*
X955169Y167306D01*
Y168556D01*
X953920Y169806D01*
X951420D01*
X950171Y168556D01*
Y166057D01*
X951420Y164807D01*
X903407Y128375D02*
X904656Y127126D01*
Y124627D01*
X903407Y123377D01*
X898408D01*
X897159Y124627D01*
Y127126D01*
X898408Y128375D01*
X897159Y135873D02*
Y130875D01*
X902157Y135873D01*
X903407D01*
X904656Y134623D01*
Y132124D01*
X903407Y130875D01*
X897159Y142121D02*
X904656D01*
X900907Y138372D01*
Y143371D01*
X880998Y60499D02*
X882248Y61749D01*
X884747D01*
X885997Y60499D01*
Y55501D01*
X884747Y54251D01*
X882248D01*
X880998Y55501D01*
X873501Y61749D02*
X878499D01*
Y58000D01*
X876000Y59250D01*
X874750D01*
X873501Y58000D01*
Y55501D01*
X874750Y54251D01*
X877250D01*
X878499Y55501D01*
X871002Y60499D02*
X869752Y61749D01*
X867253D01*
X866003Y60499D01*
Y59250D01*
X867253Y58000D01*
X868502D01*
X867253D01*
X866003Y56750D01*
Y55501D01*
X867253Y54251D01*
X869752D01*
X871002Y55501D01*
X860737Y73697D02*
X861986Y72447D01*
Y69948D01*
X860737Y68698D01*
X855738D01*
X854489Y69948D01*
Y72447D01*
X855738Y73697D01*
X861986Y81194D02*
Y76196D01*
X858238D01*
X859487Y78695D01*
Y79945D01*
X858238Y81194D01*
X855738D01*
X854489Y79945D01*
Y77445D01*
X855738Y76196D01*
X854489Y88692D02*
Y83693D01*
X859487Y88692D01*
X860737D01*
X861986Y87442D01*
Y84943D01*
X860737Y83693D01*
X1019998Y148499D02*
X1021248Y149749D01*
X1023747D01*
X1024997Y148499D01*
Y143501D01*
X1023747Y142251D01*
X1021248D01*
X1019998Y143501D01*
X1012501Y142251D02*
X1017499D01*
X1012501Y147250D01*
Y148499D01*
X1013750Y149749D01*
X1016250D01*
X1017499Y148499D01*
X1005003Y149749D02*
X1007502Y148499D01*
X1010002Y146000D01*
Y143501D01*
X1008752Y142251D01*
X1006253D01*
X1005003Y143501D01*
Y144750D01*
X1006253Y146000D01*
X1010002D01*
X1384274Y22980D02*
X1386773D01*
X1385523D01*
Y16732D01*
X1386773Y15482D01*
X1388023D01*
X1389272Y16732D01*
X1376776Y15482D02*
X1381775D01*
X1376776Y20480D01*
Y21730D01*
X1378026Y22980D01*
X1380525D01*
X1381775Y21730D01*
X1374277Y14232D02*
X1369279D01*
X1366779Y22980D02*
Y15482D01*
X1363031D01*
X1361781Y16732D01*
Y21730D01*
X1363031Y22980D01*
X1366779D01*
X1359282D02*
Y15482D01*
X1355533D01*
X1354283Y16732D01*
Y17981D01*
X1355533Y19231D01*
X1359282D01*
X1355533D01*
X1354283Y20480D01*
Y21730D01*
X1355533Y22980D01*
X1359282D01*
X1346786Y21730D02*
X1348035Y22980D01*
X1350535D01*
X1351784Y21730D01*
Y16732D01*
X1350535Y15482D01*
X1348035D01*
X1346786Y16732D01*
Y19231D01*
X1349285D01*
X1313017Y130901D02*
Y138398D01*
X1309268D01*
X1308019Y137149D01*
Y134650D01*
X1309268Y133400D01*
X1313017D01*
X1310518D02*
X1308019Y130901D01*
X1305520Y132150D02*
X1304270Y130901D01*
X1301771D01*
X1300521Y132150D01*
Y137149D01*
X1301771Y138398D01*
X1304270D01*
X1305520Y137149D01*
Y135899D01*
X1304270Y134650D01*
X1300521D01*
X1115992Y172990D02*
X1117242Y171740D01*
Y169241D01*
X1115992Y167991D01*
X1110994D01*
X1109744Y169241D01*
Y171740D01*
X1110994Y172990D01*
X1109744Y175489D02*
Y177988D01*
Y176739D01*
X1117242D01*
X1115992Y175489D01*
Y181737D02*
X1117242Y182987D01*
Y185486D01*
X1115992Y186735D01*
X1114743D01*
X1113493Y185486D01*
X1112243Y186735D01*
X1110994D01*
X1109744Y185486D01*
Y182987D01*
X1110994Y181737D01*
X1112243D01*
X1113493Y182987D01*
X1114743Y181737D01*
X1115992D01*
X1113493Y182987D02*
Y185486D01*
X1349451Y105036D02*
X1350701Y106286D01*
X1353200D01*
X1354449Y105036D01*
Y100038D01*
X1353200Y98788D01*
X1350701D01*
X1349451Y100038D01*
X1346952Y98788D02*
X1344453D01*
X1345702D01*
Y106286D01*
X1346952Y105036D01*
X1340704Y106286D02*
X1335706D01*
Y105036D01*
X1340704Y100038D01*
Y98788D01*
X1300626Y148916D02*
X1301875Y150166D01*
X1304375D01*
X1305624Y148916D01*
Y143918D01*
X1304375Y142668D01*
X1301875D01*
X1300626Y143918D01*
X1298127Y142668D02*
X1295627D01*
X1296877D01*
Y150166D01*
X1298127Y148916D01*
X1286880Y150166D02*
X1289379Y148916D01*
X1291879Y146417D01*
Y143918D01*
X1290629Y142668D01*
X1288130D01*
X1286880Y143918D01*
Y145168D01*
X1288130Y146417D01*
X1291879D01*
X1154508Y117735D02*
X1155758Y118984D01*
X1158257D01*
X1159507Y117735D01*
Y112736D01*
X1158257Y111487D01*
X1155758D01*
X1154508Y112736D01*
X1152009Y111487D02*
X1149510D01*
X1150759D01*
Y118984D01*
X1152009Y117735D01*
X1140763Y118984D02*
X1145761D01*
Y115235D01*
X1143262Y116485D01*
X1142012D01*
X1140763Y115235D01*
Y112736D01*
X1142012Y111487D01*
X1144511D01*
X1145761Y112736D01*
X1187374Y180499D02*
X1188623Y181749D01*
X1191122D01*
X1192372Y180499D01*
Y175501D01*
X1191122Y174251D01*
X1188623D01*
X1187374Y175501D01*
X1184874Y174251D02*
X1182375D01*
X1183625D01*
Y181749D01*
X1184874Y180499D01*
X1174878Y174251D02*
Y181749D01*
X1178626Y178000D01*
X1173628D01*
X1171499Y61626D02*
X1172749Y60377D01*
Y57878D01*
X1171499Y56628D01*
X1166501D01*
X1165251Y57878D01*
Y60377D01*
X1166501Y61626D01*
X1165251Y64126D02*
Y66625D01*
Y65375D01*
X1172749D01*
X1171499Y64126D01*
Y70374D02*
X1172749Y71623D01*
Y74122D01*
X1171499Y75372D01*
X1170250D01*
X1169000Y74122D01*
Y72873D01*
Y74122D01*
X1167750Y75372D01*
X1166501D01*
X1165251Y74122D01*
Y71623D01*
X1166501Y70374D01*
X1104374Y138499D02*
X1105623Y139749D01*
X1108122D01*
X1109372Y138499D01*
Y133501D01*
X1108122Y132251D01*
X1105623D01*
X1104374Y133501D01*
X1101874Y132251D02*
X1099375D01*
X1100625D01*
Y139749D01*
X1101874Y138499D01*
X1090628Y132251D02*
X1095626D01*
X1090628Y137250D01*
Y138499D01*
X1091878Y139749D01*
X1094377D01*
X1095626Y138499D01*
X1128681Y118574D02*
X1129930Y119823D01*
X1132430D01*
X1133679Y118574D01*
Y113575D01*
X1132430Y112326D01*
X1129930D01*
X1128681Y113575D01*
X1126182Y112326D02*
X1123682D01*
X1124932D01*
Y119823D01*
X1126182Y118574D01*
X1119934Y112326D02*
X1117434D01*
X1118684D01*
Y119823D01*
X1119934Y118574D01*
X1073374Y69499D02*
X1074623Y70749D01*
X1077122D01*
X1078372Y69499D01*
Y64501D01*
X1077122Y63251D01*
X1074623D01*
X1073374Y64501D01*
X1070874Y63251D02*
X1068375D01*
X1069625D01*
Y70749D01*
X1070874Y69499D01*
X1064626D02*
X1063377Y70749D01*
X1060878D01*
X1059628Y69499D01*
Y64501D01*
X1060878Y63251D01*
X1063377D01*
X1064626Y64501D01*
Y69499D01*
X1232169Y191281D02*
X1233419Y190032D01*
Y187532D01*
X1232169Y186283D01*
X1227171D01*
X1225921Y187532D01*
Y190032D01*
X1227171Y191281D01*
Y193780D02*
X1225921Y195030D01*
Y197529D01*
X1227171Y198779D01*
X1232169D01*
X1233419Y197529D01*
Y195030D01*
X1232169Y193780D01*
X1230920D01*
X1229670Y195030D01*
Y198779D01*
X1291765Y130677D02*
X1293015Y131926D01*
X1295514D01*
X1296763Y130677D01*
Y125678D01*
X1295514Y124429D01*
X1293015D01*
X1291765Y125678D01*
X1289266Y130677D02*
X1288016Y131926D01*
X1285517D01*
X1284267Y130677D01*
Y129427D01*
X1285517Y128177D01*
X1284267Y126928D01*
Y125678D01*
X1285517Y124429D01*
X1288016D01*
X1289266Y125678D01*
Y126928D01*
X1288016Y128177D01*
X1289266Y129427D01*
Y130677D01*
X1288016Y128177D02*
X1285517D01*
X1253921Y66428D02*
X1255171Y67678D01*
X1257670D01*
X1258920Y66428D01*
Y61430D01*
X1257670Y60180D01*
X1255171D01*
X1253921Y61430D01*
X1251422Y67678D02*
X1246424D01*
Y66428D01*
X1251422Y61430D01*
Y60180D01*
X1210061Y66869D02*
X1211311Y65619D01*
Y63120D01*
X1210061Y61870D01*
X1205063D01*
X1203813Y63120D01*
Y65619D01*
X1205063Y66869D01*
X1211311Y74366D02*
X1210061Y71867D01*
X1207562Y69368D01*
X1205063D01*
X1203813Y70617D01*
Y73117D01*
X1205063Y74366D01*
X1206313D01*
X1207562Y73117D01*
Y69368D01*
X1148267Y127685D02*
X1149517Y128935D01*
X1152016D01*
X1153266Y127685D01*
Y122687D01*
X1152016Y121438D01*
X1149517D01*
X1148267Y122687D01*
X1140770Y128935D02*
X1145768D01*
Y125186D01*
X1143269Y126436D01*
X1142019D01*
X1140770Y125186D01*
Y122687D01*
X1142019Y121438D01*
X1144518D01*
X1145768Y122687D01*
X1145250Y85499D02*
X1146499Y86749D01*
X1148998D01*
X1150248Y85499D01*
Y80501D01*
X1148998Y79251D01*
X1146499D01*
X1145250Y80501D01*
X1139002Y79251D02*
Y86749D01*
X1142750Y83000D01*
X1137752D01*
X1308250Y110499D02*
X1309499Y111749D01*
X1311998D01*
X1313248Y110499D01*
Y105501D01*
X1311998Y104251D01*
X1309499D01*
X1308250Y105501D01*
X1305750Y110499D02*
X1304501Y111749D01*
X1302002D01*
X1300752Y110499D01*
Y109250D01*
X1302002Y108000D01*
X1303251D01*
X1302002D01*
X1300752Y106750D01*
Y105501D01*
X1302002Y104251D01*
X1304501D01*
X1305750Y105501D01*
X1145250Y96499D02*
X1146499Y97749D01*
X1148998D01*
X1150248Y96499D01*
Y91501D01*
X1148998Y90251D01*
X1146499D01*
X1145250Y91501D01*
X1137752Y90251D02*
X1142750D01*
X1137752Y95250D01*
Y96499D01*
X1139002Y97749D01*
X1141501D01*
X1142750Y96499D01*
X1166320Y149026D02*
X1167570Y150276D01*
X1170069D01*
X1171318Y149026D01*
Y144028D01*
X1170069Y142778D01*
X1167570D01*
X1166320Y144028D01*
X1163821Y142778D02*
X1161321D01*
X1162571D01*
Y150276D01*
X1163821Y149026D01*
X1384653Y112154D02*
X1377156Y117152D01*
X1384653D02*
X1377156Y112154D01*
X1384653Y119651D02*
Y124649D01*
Y122150D01*
X1377156D01*
Y127149D02*
X1382154D01*
X1384653Y129648D01*
X1382154Y132147D01*
X1377156D01*
X1380905D01*
Y127149D01*
X1384653Y134646D02*
X1377156D01*
Y139645D01*
Y142144D02*
Y144643D01*
Y143393D01*
X1384653D01*
X1383404Y142144D01*
X1109164Y86927D02*
X1102916D01*
X1101666Y88177D01*
Y90676D01*
X1102916Y91926D01*
X1109164D01*
X1101666Y99424D02*
Y94425D01*
X1106665Y99424D01*
X1107914D01*
X1109164Y98174D01*
Y95675D01*
X1107914Y94425D01*
D11*
X974027Y64041D02*
Y70541D01*
X931027Y64041D02*
Y70541D01*
X1264670Y152080D02*
Y158080D01*
X1258670D02*
X1264670D01*
Y84080D02*
Y90080D01*
X1258670Y84080D02*
X1264670D01*
X1190670D02*
X1196670D01*
X1190670D02*
Y90080D01*
Y152080D02*
Y158080D01*
X1196670D01*
X1308976Y26473D02*
Y87973D01*
X1387976D01*
Y26473D02*
Y87973D01*
X1308976Y26473D02*
X1387976D01*
X1121000Y160450D02*
Y165500D01*
Y134500D02*
Y139550D01*
X1145000Y160450D02*
Y165500D01*
Y134500D02*
Y139550D01*
X1055000Y131000D02*
X1077000D01*
X1055000Y137000D02*
X1077000D01*
Y131000D02*
Y137000D01*
X1055000Y131000D02*
Y137000D01*
X968000Y148000D02*
X990000D01*
X968000Y154000D02*
X990000D01*
Y148000D02*
Y154000D01*
X968000Y148000D02*
Y154000D01*
X934500Y124000D02*
X939500D01*
X934500Y102000D02*
X939500D01*
Y124000D01*
X934500Y102000D02*
Y124000D01*
X824647Y123084D02*
X846647D01*
X824647Y117084D02*
X846647D01*
X824647D02*
Y123084D01*
X846647Y117084D02*
Y123084D01*
X1047000Y140000D02*
Y142000D01*
X1041000Y140000D02*
Y142000D01*
X914000Y149000D02*
Y151000D01*
X908000Y149000D02*
Y151000D01*
D95*
X1193420Y164580D02*
G03*
X1193420Y164580I-1250J0D01*
G01*
X1081500Y123000D02*
G03*
X1081500Y123000I-1250J0D01*
G01*
X994500Y140000D02*
G03*
X994500Y140000I-1250J0D01*
G01*
X931250Y98750D02*
G03*
X931250Y98750I-1250J0D01*
G01*
X822647Y131084D02*
G03*
X822647Y131084I-1250J0D01*
G01*
D96*
X1373000Y106000D02*
G03*
X1373000Y106000I-500J0D01*
G01*
X1063830Y293594D02*
G03*
X1063830Y293594I-500J0D01*
G01*
X1264403Y212414D02*
G03*
X1264403Y212414I-500J0D01*
G01*
X1330002Y282423D02*
G03*
X1330002Y282423I-500J0D01*
G01*
X1237047Y341059D02*
G03*
X1237047Y341059I-500J0D01*
G01*
X1392256Y207502D02*
G03*
X1392256Y207502I-500J0D01*
G01*
X1300500Y268750D02*
G03*
X1300500Y268750I-500J0D01*
G01*
X1295768Y21319D02*
G03*
X1295768Y21319I-500J0D01*
G01*
X1281770Y46446D02*
G03*
X1281770Y46446I-500J0D01*
G01*
X1295770Y51594D02*
G03*
X1295770Y51594I-500J0D01*
G01*
X1281724Y76726D02*
G03*
X1281724Y76726I-500J0D01*
G01*
X1295757Y82013D02*
G03*
X1295757Y82013I-500J0D01*
G01*
X1351591Y154365D02*
G03*
X1351591Y154365I-500J0D01*
G01*
X1351591Y166301D02*
G03*
X1351591Y166301I-500J0D01*
G01*
X1285519Y170818D02*
G03*
X1285519Y170818I-500J0D01*
G01*
X1234541Y294649D02*
G03*
X1234541Y294649I-500J0D01*
G01*
X1063830Y305783D02*
G03*
X1063830Y305783I-500J0D01*
G01*
X1098927Y302982D02*
G03*
X1098927Y302982I-500J0D01*
G01*
X1148000Y290695D02*
G03*
X1148000Y290695I-500J0D01*
G01*
Y278483D02*
G03*
X1148000Y278483I-500J0D01*
G01*
Y266370D02*
G03*
X1148000Y266370I-500J0D01*
G01*
Y254317D02*
G03*
X1148000Y254317I-500J0D01*
G01*
X1121500Y169500D02*
G03*
X1121500Y169500I-500J0D01*
G01*
X1013358Y175467D02*
G03*
X1013358Y175467I-500J0D01*
G01*
X874024Y109533D02*
G03*
X874024Y109533I-500J0D01*
G01*
X1096775Y165185D02*
G03*
X1096775Y165185I-500J0D01*
G01*
D97*
X997433Y27024D02*
Y54378D01*
X1202600Y27024D02*
Y54378D01*
X997433Y27024D02*
X1202600D01*
X997433Y54378D02*
X1202600D01*
X1375245Y109747D02*
Y152248D01*
X1314752Y109747D02*
Y152248D01*
X1375245D01*
X1314752Y109747D02*
X1375245D01*
M02*
