G04*
G04 #@! TF.GenerationSoftware,Altium Limited,Altium Designer,24.2.2 (26)*
G04*
G04 Layer_Color=255*
%FSLAX44Y44*%
%MOMM*%
G71*
G04*
G04 #@! TF.SameCoordinates,2B7E99FB-4F0D-402E-9D71-9E8D4FD60802*
G04*
G04*
G04 #@! TF.FilePolarity,Positive*
G04*
G01*
G75*
%ADD12R,0.4800X0.3800*%
%ADD13R,0.3800X0.4800*%
%ADD14R,0.5500X0.5500*%
%ADD15R,0.8000X0.8000*%
%ADD16R,0.5500X0.3000*%
%ADD17R,0.3000X0.4000*%
%ADD18R,0.8000X0.6000*%
%ADD36C,1.0000*%
%ADD37C,0.7500*%
%ADD40C,2.0800*%
%ADD41R,2.0800X2.0800*%
%ADD42R,2.0000X2.0000*%
%ADD43C,1.2000*%
%ADD44R,1.5500X2.2000*%
%ADD45C,2.2000*%
G36*
G01X2632050Y1002490D02*
G01Y958490D01*
G01X2615050D01*
G01Y958490D01*
G02Y1002490I0J22000D01*
G01Y1002490D01*
G01X2632050D01*
D02*
G37*
G36*
G01Y134790D02*
G01Y90790D01*
G01X2615050D01*
G01Y90790D01*
G02Y134790I0J22000D01*
G01Y134790D01*
G01X2632050D01*
D02*
G37*
G36*
G01X1695030Y1115890D02*
G01X1739030D01*
G01Y1098890D01*
G01X1739030D01*
G02X1695030I-22000J0D01*
G01X1695030D01*
G01Y1115890D01*
D02*
G37*
G36*
G01X895030D02*
G01X939030D01*
G01Y1098890D01*
G01X939030D01*
G02X895030I-22000J0D01*
G01X895030D01*
G01Y1115890D01*
D02*
G37*
G36*
G01X1739030Y-23060D02*
G01X1695030D01*
G01Y-6060D01*
G01X1695030D01*
G02X1739030I22000J0D01*
G01X1739030D01*
G01Y-23060D01*
D02*
G37*
G36*
G01X939030D02*
G01X895030D01*
G01Y-6060D01*
G01X895030D01*
G02X939030I22000J0D01*
G01X939030D01*
G01Y-23060D01*
D02*
G37*
G36*
G01X2000Y958490D02*
G01Y1002490D01*
G01X19000D01*
G01Y1002490D01*
G02Y958490I0J-22000D01*
G01Y958490D01*
G01X2000D01*
D02*
G37*
G36*
G01Y97640D02*
G01Y141640D01*
G01X19000D01*
G01Y141640D01*
G02Y97640I0J-22000D01*
G01Y97640D01*
G01X2000D01*
D02*
G37*
D12*
X1510890Y120050D02*
D03*
Y127950D02*
D03*
X1683120Y120050D02*
D03*
Y127950D02*
D03*
X1853850Y120050D02*
D03*
Y127950D02*
D03*
X2024590Y120050D02*
D03*
Y127950D02*
D03*
X2195320Y120050D02*
D03*
Y127950D02*
D03*
X2366050Y120050D02*
D03*
Y127950D02*
D03*
X2536780Y120050D02*
D03*
Y127950D02*
D03*
X2411420Y290790D02*
D03*
Y298690D02*
D03*
X2115270Y290790D02*
D03*
Y298690D02*
D03*
X1944530Y290790D02*
D03*
Y298690D02*
D03*
X1773800Y290790D02*
D03*
Y298690D02*
D03*
X1603070Y290790D02*
D03*
Y298690D02*
D03*
X1432330Y290790D02*
D03*
Y298690D02*
D03*
X1261600Y290790D02*
D03*
Y298690D02*
D03*
X1090870Y290790D02*
D03*
Y298690D02*
D03*
X920140Y290790D02*
D03*
Y298690D02*
D03*
X749400Y290790D02*
D03*
Y298690D02*
D03*
X578670Y290790D02*
D03*
Y298690D02*
D03*
X407940Y290790D02*
D03*
Y298690D02*
D03*
X487940Y461520D02*
D03*
Y469420D02*
D03*
X658670Y461520D02*
D03*
Y469420D02*
D03*
X829400Y461520D02*
D03*
Y469420D02*
D03*
X1170870Y461520D02*
D03*
Y469420D02*
D03*
X1000140Y461520D02*
D03*
Y469420D02*
D03*
X1341600Y461520D02*
D03*
Y469420D02*
D03*
X1512330Y461520D02*
D03*
Y469420D02*
D03*
X1683070Y461520D02*
D03*
Y469420D02*
D03*
X1853800Y461520D02*
D03*
Y469420D02*
D03*
X2024530Y461520D02*
D03*
Y469420D02*
D03*
X2195270Y461520D02*
D03*
Y469420D02*
D03*
X2366050Y461520D02*
D03*
Y469420D02*
D03*
X2536780Y548050D02*
D03*
Y555950D02*
D03*
X2286050Y632250D02*
D03*
Y640150D02*
D03*
X2115320Y632250D02*
D03*
Y640150D02*
D03*
X1944590Y632250D02*
D03*
Y640150D02*
D03*
X1603070Y632250D02*
D03*
Y640150D02*
D03*
X1432330Y632250D02*
D03*
Y640150D02*
D03*
X1261600Y632250D02*
D03*
Y640150D02*
D03*
X1773800Y632250D02*
D03*
Y640150D02*
D03*
X1090870Y632250D02*
D03*
Y640150D02*
D03*
X920140Y632250D02*
D03*
Y640150D02*
D03*
X749400Y632250D02*
D03*
Y640150D02*
D03*
X578670Y632250D02*
D03*
Y640150D02*
D03*
X407940Y632250D02*
D03*
Y640150D02*
D03*
X488000Y802320D02*
D03*
Y810220D02*
D03*
X318000Y802320D02*
D03*
Y810220D02*
D03*
X659000Y802320D02*
D03*
Y810220D02*
D03*
X830000Y802320D02*
D03*
Y810220D02*
D03*
X1000000Y802320D02*
D03*
Y810220D02*
D03*
X1170320Y802335D02*
D03*
Y810235D02*
D03*
X1343000Y802320D02*
D03*
Y810220D02*
D03*
X1512000Y802320D02*
D03*
Y810220D02*
D03*
X1683000Y802320D02*
D03*
Y810220D02*
D03*
X1855000Y802320D02*
D03*
Y810220D02*
D03*
X2026000Y802320D02*
D03*
Y810220D02*
D03*
X2196000Y802320D02*
D03*
Y810220D02*
D03*
X2452000Y802320D02*
D03*
Y810220D02*
D03*
X2536620Y1013050D02*
D03*
Y1020950D02*
D03*
X2366050Y1013050D02*
D03*
Y1020950D02*
D03*
X2195450Y1013050D02*
D03*
Y1020950D02*
D03*
X2024620Y1013050D02*
D03*
Y1020950D02*
D03*
X1853620Y1013050D02*
D03*
Y1020950D02*
D03*
X1682940Y1013050D02*
D03*
Y1020950D02*
D03*
X1512340Y1013050D02*
D03*
Y1020950D02*
D03*
X1341620Y1013050D02*
D03*
Y1020950D02*
D03*
X1170790Y1013050D02*
D03*
Y1020950D02*
D03*
X1000130Y1013050D02*
D03*
Y1020950D02*
D03*
X829290Y1013050D02*
D03*
Y1020950D02*
D03*
X658620Y1013050D02*
D03*
Y1020950D02*
D03*
X487980Y1013050D02*
D03*
Y1020950D02*
D03*
X317170Y1013050D02*
D03*
Y1020950D02*
D03*
X146470Y1013050D02*
D03*
Y1020950D02*
D03*
Y802320D02*
D03*
Y810220D02*
D03*
X191840Y632250D02*
D03*
Y640150D02*
D03*
X225310Y461520D02*
D03*
Y469420D02*
D03*
X191840Y290790D02*
D03*
Y298690D02*
D03*
X146470Y120050D02*
D03*
Y127950D02*
D03*
X317200Y120050D02*
D03*
Y127950D02*
D03*
X487940Y120050D02*
D03*
Y127950D02*
D03*
X658670Y120050D02*
D03*
Y127950D02*
D03*
X830890Y120050D02*
D03*
Y127950D02*
D03*
X2509448Y1028857D02*
D03*
Y1020957D02*
D03*
X2383586Y306131D02*
D03*
Y298231D02*
D03*
X1813077Y1019050D02*
D03*
Y1026950D02*
D03*
X788000Y1020050D02*
D03*
Y1027950D02*
D03*
X104000Y808050D02*
D03*
Y815950D02*
D03*
Y119050D02*
D03*
Y126950D02*
D03*
D13*
X1493240Y115770D02*
D03*
X1501140D02*
D03*
X1756150Y286000D02*
D03*
X1764050D02*
D03*
X641020Y457000D02*
D03*
X648920D02*
D03*
X2348400D02*
D03*
X2356300D02*
D03*
X902490Y627970D02*
D03*
X910390D02*
D03*
X1323611Y797889D02*
D03*
X1331511D02*
D03*
X2006970Y1008644D02*
D03*
X2014870D02*
D03*
X299520Y1008436D02*
D03*
X307420D02*
D03*
X1665470Y115770D02*
D03*
X1673370D02*
D03*
X1585420Y286000D02*
D03*
X1593320D02*
D03*
X811750Y457000D02*
D03*
X819650D02*
D03*
X2519130Y542610D02*
D03*
X2527030D02*
D03*
X731750Y627970D02*
D03*
X739650D02*
D03*
X1494690Y798000D02*
D03*
X1502590D02*
D03*
X1835970Y1009000D02*
D03*
X1843870D02*
D03*
X128820D02*
D03*
X136720D02*
D03*
X1836200Y115770D02*
D03*
X1844100D02*
D03*
X1414680Y286000D02*
D03*
X1422580D02*
D03*
X982490Y457000D02*
D03*
X990390D02*
D03*
X2268400Y627970D02*
D03*
X2276300D02*
D03*
X561020D02*
D03*
X568920D02*
D03*
X1665290Y798000D02*
D03*
X1673190D02*
D03*
X1665290Y1009000D02*
D03*
X1673190D02*
D03*
X128820Y798270D02*
D03*
X136720D02*
D03*
X2006940Y115770D02*
D03*
X2014840D02*
D03*
X1243950Y285926D02*
D03*
X1251850D02*
D03*
X1153220Y457000D02*
D03*
X1161120D02*
D03*
X2097670Y627970D02*
D03*
X2105570D02*
D03*
X390290D02*
D03*
X398190D02*
D03*
X1835970Y798000D02*
D03*
X1843870D02*
D03*
X1494690Y1009000D02*
D03*
X1502590D02*
D03*
X174190Y627970D02*
D03*
X182090D02*
D03*
X2177670Y115770D02*
D03*
X2185570D02*
D03*
X1073220Y286355D02*
D03*
X1081120D02*
D03*
X1323950Y457000D02*
D03*
X1331850D02*
D03*
X1926940Y627970D02*
D03*
X1934840D02*
D03*
X299520Y797762D02*
D03*
X307420D02*
D03*
X2005050Y798000D02*
D03*
X2012950D02*
D03*
X1323970Y1009000D02*
D03*
X1331870D02*
D03*
X207660Y457000D02*
D03*
X215560D02*
D03*
X2348400Y115770D02*
D03*
X2356300D02*
D03*
X902490Y285993D02*
D03*
X910390D02*
D03*
X1494680Y457000D02*
D03*
X1502580D02*
D03*
X1756150Y627970D02*
D03*
X1764050D02*
D03*
X470310Y798000D02*
D03*
X478210D02*
D03*
X2177800Y798154D02*
D03*
X2185700D02*
D03*
X1153140Y1009074D02*
D03*
X1161040D02*
D03*
X174190Y286510D02*
D03*
X182090D02*
D03*
X2519130Y115770D02*
D03*
X2527030D02*
D03*
X731750Y286015D02*
D03*
X739650D02*
D03*
X1665420Y457000D02*
D03*
X1673320D02*
D03*
X1585420Y627970D02*
D03*
X1593320D02*
D03*
X640970Y797818D02*
D03*
X648870D02*
D03*
X2433610Y797987D02*
D03*
X2441510D02*
D03*
X982480Y1009000D02*
D03*
X990380D02*
D03*
X128820Y115770D02*
D03*
X136720D02*
D03*
X2393770Y286000D02*
D03*
X2401670D02*
D03*
X561020D02*
D03*
X568920D02*
D03*
X1836150Y457000D02*
D03*
X1844050D02*
D03*
X1414680Y627970D02*
D03*
X1422580D02*
D03*
X810855Y797770D02*
D03*
X818755D02*
D03*
X2518970Y1008500D02*
D03*
X2526870D02*
D03*
X811640Y1009000D02*
D03*
X819540D02*
D03*
X299550Y115770D02*
D03*
X307450D02*
D03*
X2097620Y286000D02*
D03*
X2105520D02*
D03*
X390290D02*
D03*
X398190D02*
D03*
X2006880Y457000D02*
D03*
X2014780D02*
D03*
X1243950Y627970D02*
D03*
X1251850D02*
D03*
X982480Y798000D02*
D03*
X990380D02*
D03*
X2348400Y1009000D02*
D03*
X2356300D02*
D03*
X640970Y1008917D02*
D03*
X648870D02*
D03*
X470290Y115770D02*
D03*
X478190D02*
D03*
X1926880Y286000D02*
D03*
X1934780D02*
D03*
X470290Y457000D02*
D03*
X478190D02*
D03*
X2177620D02*
D03*
X2185520D02*
D03*
X1073220Y627970D02*
D03*
X1081120D02*
D03*
X1153140Y798000D02*
D03*
X1161040D02*
D03*
X2177800Y1008439D02*
D03*
X2185700D02*
D03*
X470310Y1009000D02*
D03*
X478210D02*
D03*
X641020Y115770D02*
D03*
X648920D02*
D03*
X821140Y115770D02*
D03*
X813240D02*
D03*
D14*
X1674162Y134520D02*
D03*
X1664662D02*
D03*
X1674178Y125084D02*
D03*
X1664678Y125020D02*
D03*
X1594112Y305260D02*
D03*
X1584612D02*
D03*
X1594128Y295824D02*
D03*
X1584628Y295760D02*
D03*
X820442Y475990D02*
D03*
X810942D02*
D03*
X820458Y466554D02*
D03*
X810958Y466490D02*
D03*
X2527822Y561360D02*
D03*
X2518322D02*
D03*
X2527838Y551924D02*
D03*
X2518338Y551860D02*
D03*
X740442Y646720D02*
D03*
X730942D02*
D03*
X740458Y637284D02*
D03*
X730958Y637220D02*
D03*
X1503382Y817020D02*
D03*
X1493882D02*
D03*
X1503398Y807584D02*
D03*
X1493898Y807520D02*
D03*
X1844842Y1027750D02*
D03*
X1835342D02*
D03*
X1844858Y1018314D02*
D03*
X1835358Y1018250D02*
D03*
X137512Y1027750D02*
D03*
X128012D02*
D03*
X137528Y1018314D02*
D03*
X128028Y1018250D02*
D03*
X1844892Y134520D02*
D03*
X1835392D02*
D03*
X1844908Y125084D02*
D03*
X1835408Y125020D02*
D03*
X1423372Y305260D02*
D03*
X1413872D02*
D03*
X1423388Y295824D02*
D03*
X1413888Y295760D02*
D03*
X991182Y475990D02*
D03*
X981682D02*
D03*
X991198Y466554D02*
D03*
X981698Y466490D02*
D03*
X2277092Y646720D02*
D03*
X2267592D02*
D03*
X2277108Y637284D02*
D03*
X2267608Y637220D02*
D03*
X569712Y646720D02*
D03*
X560212D02*
D03*
X569728Y637284D02*
D03*
X560228Y637220D02*
D03*
X1673982Y817020D02*
D03*
X1664482D02*
D03*
X1673998Y807584D02*
D03*
X1664498Y807520D02*
D03*
X1674112Y1027750D02*
D03*
X1664612D02*
D03*
X1674128Y1018314D02*
D03*
X1664628Y1018250D02*
D03*
X137512Y817020D02*
D03*
X128012D02*
D03*
X137528Y807584D02*
D03*
X128028Y807520D02*
D03*
X2015632Y134520D02*
D03*
X2006132D02*
D03*
X2015648Y125084D02*
D03*
X2006148Y125020D02*
D03*
X1252642Y305260D02*
D03*
X1243142D02*
D03*
X1252658Y295824D02*
D03*
X1243158Y295760D02*
D03*
X1161912Y475990D02*
D03*
X1152412D02*
D03*
X1161928Y466554D02*
D03*
X1152428Y466490D02*
D03*
X2106362Y646720D02*
D03*
X2096862D02*
D03*
X2106378Y637284D02*
D03*
X2096878Y637220D02*
D03*
X398982Y646720D02*
D03*
X389482D02*
D03*
X398998Y637284D02*
D03*
X389498Y637220D02*
D03*
X1844662Y817020D02*
D03*
X1835162D02*
D03*
X1844678Y807584D02*
D03*
X1835178Y807520D02*
D03*
X1503382Y1027750D02*
D03*
X1493882D02*
D03*
X1503398Y1018314D02*
D03*
X1493898Y1018250D02*
D03*
X182882Y646720D02*
D03*
X173382D02*
D03*
X182898Y637284D02*
D03*
X173398Y637220D02*
D03*
X2186362Y134520D02*
D03*
X2176862D02*
D03*
X2186378Y125084D02*
D03*
X2176878Y125020D02*
D03*
X1081912Y305260D02*
D03*
X1072412D02*
D03*
X1081928Y295824D02*
D03*
X1072428Y295760D02*
D03*
X1332642Y475990D02*
D03*
X1323142D02*
D03*
X1332658Y466554D02*
D03*
X1323158Y466490D02*
D03*
X1935632Y646720D02*
D03*
X1926132D02*
D03*
X1935648Y637284D02*
D03*
X1926148Y637220D02*
D03*
X308212Y817020D02*
D03*
X298712D02*
D03*
X308228Y807584D02*
D03*
X298728Y807520D02*
D03*
X2015662Y817020D02*
D03*
X2006162D02*
D03*
X2015678Y807584D02*
D03*
X2006178Y807520D02*
D03*
X1332662Y1027750D02*
D03*
X1323162D02*
D03*
X1332678Y1018314D02*
D03*
X1323178Y1018250D02*
D03*
X216392Y475990D02*
D03*
X206892D02*
D03*
X216408Y466554D02*
D03*
X206908Y466490D02*
D03*
X2357092Y134520D02*
D03*
X2347592D02*
D03*
X2357108Y125084D02*
D03*
X2347608Y125020D02*
D03*
X911182Y305260D02*
D03*
X901682D02*
D03*
X911198Y295824D02*
D03*
X901698Y295760D02*
D03*
X1503372Y475990D02*
D03*
X1493872D02*
D03*
X1503388Y466554D02*
D03*
X1493888Y466490D02*
D03*
X1764842Y646720D02*
D03*
X1755342D02*
D03*
X1764858Y637284D02*
D03*
X1755358Y637220D02*
D03*
X479002Y817020D02*
D03*
X469502D02*
D03*
X479018Y807584D02*
D03*
X469518Y807520D02*
D03*
X2186492Y817020D02*
D03*
X2176992D02*
D03*
X2186508Y807584D02*
D03*
X2177008Y807520D02*
D03*
X1161832Y1027750D02*
D03*
X1152332D02*
D03*
X1161848Y1018314D02*
D03*
X1152348Y1018250D02*
D03*
X182882Y305260D02*
D03*
X173382D02*
D03*
X182898Y295824D02*
D03*
X173398Y295760D02*
D03*
X2527822Y134520D02*
D03*
X2518322D02*
D03*
X2527838Y125084D02*
D03*
X2518338Y125020D02*
D03*
X740442Y305260D02*
D03*
X730942D02*
D03*
X740458Y295824D02*
D03*
X730958Y295760D02*
D03*
X1674112Y475990D02*
D03*
X1664612D02*
D03*
X1674128Y466554D02*
D03*
X1664628Y466490D02*
D03*
X1594112Y646720D02*
D03*
X1584612D02*
D03*
X1594128Y637284D02*
D03*
X1584628Y637220D02*
D03*
X649662Y817020D02*
D03*
X640162D02*
D03*
X649678Y807584D02*
D03*
X640178Y807520D02*
D03*
X2442302Y817020D02*
D03*
X2432802D02*
D03*
X2442318Y807584D02*
D03*
X2432818Y807520D02*
D03*
X991172Y1027750D02*
D03*
X981672D02*
D03*
X991188Y1018314D02*
D03*
X981688Y1018250D02*
D03*
X137512Y134520D02*
D03*
X128012D02*
D03*
X137528Y125084D02*
D03*
X128028Y125020D02*
D03*
X2402462Y305260D02*
D03*
X2392962D02*
D03*
X2402478Y295824D02*
D03*
X2392978Y295760D02*
D03*
X569712Y305260D02*
D03*
X560212D02*
D03*
X569728Y295824D02*
D03*
X560228Y295760D02*
D03*
X1844842Y475990D02*
D03*
X1835342D02*
D03*
X1844858Y466554D02*
D03*
X1835358Y466490D02*
D03*
X1423372Y646720D02*
D03*
X1413872D02*
D03*
X1423388Y637284D02*
D03*
X1413888Y637220D02*
D03*
X820332Y817020D02*
D03*
X810832D02*
D03*
X820348Y807584D02*
D03*
X810848Y807520D02*
D03*
X2527822Y1027750D02*
D03*
X2518322D02*
D03*
X2527838Y1018314D02*
D03*
X2518338Y1018250D02*
D03*
X820332Y1027750D02*
D03*
X810832D02*
D03*
X820348Y1018314D02*
D03*
X810848Y1018250D02*
D03*
X308242Y134520D02*
D03*
X298742D02*
D03*
X308258Y125084D02*
D03*
X298758Y125020D02*
D03*
X2106312Y305260D02*
D03*
X2096812D02*
D03*
X2106328Y295824D02*
D03*
X2096828Y295760D02*
D03*
X398982Y305260D02*
D03*
X389482D02*
D03*
X398998Y295824D02*
D03*
X389498Y295760D02*
D03*
X2015572Y475990D02*
D03*
X2006072D02*
D03*
X2015588Y466554D02*
D03*
X2006088Y466490D02*
D03*
X1252642Y646720D02*
D03*
X1243142D02*
D03*
X1252658Y637284D02*
D03*
X1243158Y637220D02*
D03*
X991172Y817020D02*
D03*
X981672D02*
D03*
X991188Y807584D02*
D03*
X981688Y807520D02*
D03*
X2357092Y1027750D02*
D03*
X2347592D02*
D03*
X2357108Y1018314D02*
D03*
X2347608Y1018250D02*
D03*
X649662Y1027750D02*
D03*
X640162D02*
D03*
X649678Y1018314D02*
D03*
X640178Y1018250D02*
D03*
X478982Y134520D02*
D03*
X469482D02*
D03*
X478998Y125084D02*
D03*
X469498Y125020D02*
D03*
X1935572Y305260D02*
D03*
X1926072D02*
D03*
X1935588Y295824D02*
D03*
X1926088Y295760D02*
D03*
X478982Y475990D02*
D03*
X469482D02*
D03*
X478998Y466554D02*
D03*
X469498Y466490D02*
D03*
X2186312Y475990D02*
D03*
X2176812D02*
D03*
X2186328Y466554D02*
D03*
X2176828Y466490D02*
D03*
X1081912Y646720D02*
D03*
X1072412D02*
D03*
X1081928Y637284D02*
D03*
X1072428Y637220D02*
D03*
X1161832Y817020D02*
D03*
X1152332D02*
D03*
X1161848Y807584D02*
D03*
X1152348Y807520D02*
D03*
X2186522Y1027750D02*
D03*
X2177022D02*
D03*
X2186538Y1018314D02*
D03*
X2177038Y1018250D02*
D03*
X479002Y1027750D02*
D03*
X469502D02*
D03*
X479018Y1018314D02*
D03*
X469518Y1018250D02*
D03*
X649712Y134520D02*
D03*
X640212D02*
D03*
X649728Y125084D02*
D03*
X640228Y125020D02*
D03*
X1501932Y134520D02*
D03*
X1492432D02*
D03*
X1501948Y125084D02*
D03*
X1492448Y125020D02*
D03*
X1764842Y305260D02*
D03*
X1755342D02*
D03*
X1764858Y295824D02*
D03*
X1755358Y295760D02*
D03*
X649712Y475990D02*
D03*
X640212D02*
D03*
X649728Y466554D02*
D03*
X640228Y466490D02*
D03*
X2357092Y475990D02*
D03*
X2347592D02*
D03*
X2357108Y466554D02*
D03*
X2347608Y466490D02*
D03*
X911182Y646720D02*
D03*
X901682D02*
D03*
X911198Y637284D02*
D03*
X901698Y637220D02*
D03*
X1332662Y817020D02*
D03*
X1323162D02*
D03*
X1332678Y807584D02*
D03*
X1323178Y807520D02*
D03*
X2015792Y1027750D02*
D03*
X2006292D02*
D03*
X2015808Y1018314D02*
D03*
X2006308Y1018250D02*
D03*
X308212Y1027750D02*
D03*
X298712D02*
D03*
X308228Y1018314D02*
D03*
X298728Y1018250D02*
D03*
X821932Y134520D02*
D03*
X812432D02*
D03*
X821948Y125084D02*
D03*
X812448Y125020D02*
D03*
D15*
X183830Y474340D02*
D03*
Y458340D02*
D03*
X1477420Y132870D02*
D03*
Y116870D02*
D03*
X1991120Y132870D02*
D03*
Y116870D02*
D03*
X2502338Y132813D02*
D03*
Y116813D02*
D03*
X1906574Y303610D02*
D03*
Y287610D02*
D03*
X1395443Y303610D02*
D03*
Y287610D02*
D03*
X885000Y303610D02*
D03*
Y287610D02*
D03*
X375340Y303610D02*
D03*
Y287610D02*
D03*
X799800Y458340D02*
D03*
Y474340D02*
D03*
X1312000Y458340D02*
D03*
Y474340D02*
D03*
X1824200Y458340D02*
D03*
Y474340D02*
D03*
X2333450Y474340D02*
D03*
Y458340D02*
D03*
X2082720Y645070D02*
D03*
Y629070D02*
D03*
X1570470Y645070D02*
D03*
Y629070D02*
D03*
X1058270Y645070D02*
D03*
Y629070D02*
D03*
X546070Y646020D02*
D03*
Y630020D02*
D03*
X453510Y815370D02*
D03*
Y799370D02*
D03*
X964000Y815370D02*
D03*
Y799370D02*
D03*
X1476000Y815370D02*
D03*
Y799370D02*
D03*
X1991280Y815370D02*
D03*
Y799370D02*
D03*
X2497246Y1026088D02*
D03*
Y1010088D02*
D03*
X1990170Y1026100D02*
D03*
Y1010100D02*
D03*
X1477890Y1026100D02*
D03*
Y1010100D02*
D03*
X967314Y1026194D02*
D03*
Y1010194D02*
D03*
X453510Y1026100D02*
D03*
Y1010100D02*
D03*
X116870Y815370D02*
D03*
Y799370D02*
D03*
X162240Y303610D02*
D03*
Y287610D02*
D03*
X454000Y132870D02*
D03*
Y116870D02*
D03*
X1649650Y116870D02*
D03*
Y132870D02*
D03*
X2161850Y116870D02*
D03*
Y132870D02*
D03*
X2370312Y303886D02*
D03*
Y287886D02*
D03*
X1741000Y287610D02*
D03*
Y303610D02*
D03*
X1228130Y287610D02*
D03*
Y303610D02*
D03*
X715930Y287610D02*
D03*
Y303610D02*
D03*
X458340Y458340D02*
D03*
Y474340D02*
D03*
X970540Y458340D02*
D03*
Y474340D02*
D03*
X1482730Y458340D02*
D03*
Y474340D02*
D03*
X1994930Y458340D02*
D03*
Y474340D02*
D03*
X2500180Y559710D02*
D03*
Y543710D02*
D03*
X1909990Y645070D02*
D03*
Y629070D02*
D03*
X1400730Y645070D02*
D03*
Y629070D02*
D03*
X887540Y645070D02*
D03*
Y629070D02*
D03*
X378340Y629070D02*
D03*
Y645070D02*
D03*
X629060Y799370D02*
D03*
Y815370D02*
D03*
X1141340Y799370D02*
D03*
Y815370D02*
D03*
X1649600Y815370D02*
D03*
Y799370D02*
D03*
X2166000Y799370D02*
D03*
Y815370D02*
D03*
X2331600Y1010100D02*
D03*
Y1026100D02*
D03*
X1823000Y1026000D02*
D03*
Y1010000D02*
D03*
X1312000Y1010000D02*
D03*
Y1026000D02*
D03*
X799800Y1026100D02*
D03*
Y1010100D02*
D03*
X287720Y1026100D02*
D03*
Y1010100D02*
D03*
X162240Y629070D02*
D03*
Y645070D02*
D03*
X116870Y132870D02*
D03*
Y116870D02*
D03*
X625000Y132870D02*
D03*
Y116870D02*
D03*
X1824250Y132870D02*
D03*
Y116870D02*
D03*
X2336450Y132870D02*
D03*
Y116870D02*
D03*
X2085670Y287610D02*
D03*
Y303610D02*
D03*
X1573470Y287610D02*
D03*
Y303610D02*
D03*
X1061000Y287610D02*
D03*
Y303610D02*
D03*
X549000Y287610D02*
D03*
Y303610D02*
D03*
X629070Y474340D02*
D03*
Y458340D02*
D03*
X1141270Y474340D02*
D03*
Y458340D02*
D03*
X1653470Y474340D02*
D03*
Y458340D02*
D03*
X2165670Y474340D02*
D03*
Y458340D02*
D03*
X2256450Y629070D02*
D03*
Y645070D02*
D03*
X1744200Y629070D02*
D03*
Y645070D02*
D03*
X1232000Y629070D02*
D03*
Y645070D02*
D03*
X719800Y629070D02*
D03*
Y645070D02*
D03*
X287720Y815370D02*
D03*
Y799370D02*
D03*
X799800Y815370D02*
D03*
Y799370D02*
D03*
X1311720Y815370D02*
D03*
Y799370D02*
D03*
X1824200Y815370D02*
D03*
Y799370D02*
D03*
X2421810Y815370D02*
D03*
Y799370D02*
D03*
X2166000Y1026100D02*
D03*
Y1010100D02*
D03*
X1653490Y1026100D02*
D03*
Y1010100D02*
D03*
X1141340Y1010100D02*
D03*
Y1026100D02*
D03*
X629060Y1026100D02*
D03*
Y1010100D02*
D03*
X116870Y1026100D02*
D03*
Y1010100D02*
D03*
X196168Y458340D02*
D03*
Y474340D02*
D03*
X287600Y132870D02*
D03*
Y116870D02*
D03*
X801290Y132870D02*
D03*
Y116870D02*
D03*
D16*
X2546160Y127500D02*
D03*
Y120500D02*
D03*
X2375430Y127500D02*
D03*
Y120500D02*
D03*
X2204700Y127500D02*
D03*
Y120500D02*
D03*
X2033970Y127500D02*
D03*
Y120500D02*
D03*
X1863230Y127500D02*
D03*
Y120500D02*
D03*
X1692500Y127500D02*
D03*
Y120500D02*
D03*
X1520270Y127500D02*
D03*
Y120500D02*
D03*
X668050Y127500D02*
D03*
Y120500D02*
D03*
X497320Y127500D02*
D03*
Y120500D02*
D03*
X326580Y127500D02*
D03*
Y120500D02*
D03*
X155850Y127500D02*
D03*
Y120500D02*
D03*
X2420800Y298240D02*
D03*
Y291240D02*
D03*
X2124650Y298240D02*
D03*
Y291240D02*
D03*
X1953910Y298240D02*
D03*
Y291240D02*
D03*
X1783180Y298240D02*
D03*
Y291240D02*
D03*
X1612450Y298240D02*
D03*
Y291240D02*
D03*
X1441710Y298240D02*
D03*
Y291240D02*
D03*
X1270980Y298240D02*
D03*
Y291240D02*
D03*
X1100250Y298240D02*
D03*
Y291240D02*
D03*
X929520Y298240D02*
D03*
Y291240D02*
D03*
X758780Y298240D02*
D03*
Y291240D02*
D03*
X588050Y298240D02*
D03*
Y291240D02*
D03*
X417320Y298240D02*
D03*
Y291240D02*
D03*
X201220Y298240D02*
D03*
Y291240D02*
D03*
X2375430Y468970D02*
D03*
Y461970D02*
D03*
X2204650Y468970D02*
D03*
Y461970D02*
D03*
X2033910Y468970D02*
D03*
Y461970D02*
D03*
X1863180Y468970D02*
D03*
Y461970D02*
D03*
X1692450Y468970D02*
D03*
Y461970D02*
D03*
X1521710Y468970D02*
D03*
Y461970D02*
D03*
X1350980Y468970D02*
D03*
Y461970D02*
D03*
X1180250Y468970D02*
D03*
Y461970D02*
D03*
X1009520Y468970D02*
D03*
Y461970D02*
D03*
X838780Y468970D02*
D03*
Y461970D02*
D03*
X668050Y468970D02*
D03*
Y461970D02*
D03*
X497320Y468970D02*
D03*
Y461970D02*
D03*
X234690Y468970D02*
D03*
Y461970D02*
D03*
X2546160Y555500D02*
D03*
Y548500D02*
D03*
X2295430Y639700D02*
D03*
Y632700D02*
D03*
X2124700Y639700D02*
D03*
Y632700D02*
D03*
X1953970Y639700D02*
D03*
Y632700D02*
D03*
X1783180Y639700D02*
D03*
Y632700D02*
D03*
X1612450Y639700D02*
D03*
Y632700D02*
D03*
X1441710Y639700D02*
D03*
Y632700D02*
D03*
X1270980Y639700D02*
D03*
Y632700D02*
D03*
X1100250Y639700D02*
D03*
Y632700D02*
D03*
X929520Y639700D02*
D03*
Y632700D02*
D03*
X758780Y639700D02*
D03*
Y632700D02*
D03*
X588050Y639700D02*
D03*
Y632700D02*
D03*
X417320Y639700D02*
D03*
Y632700D02*
D03*
X201220Y639700D02*
D03*
Y632700D02*
D03*
X2460000Y809770D02*
D03*
Y802770D02*
D03*
X2204000Y809770D02*
D03*
Y802770D02*
D03*
X2034000Y809770D02*
D03*
Y802770D02*
D03*
X1863000Y809770D02*
D03*
Y802770D02*
D03*
X1692000Y809770D02*
D03*
Y802770D02*
D03*
X1521000Y809770D02*
D03*
Y802770D02*
D03*
X1351000Y809770D02*
D03*
Y802770D02*
D03*
X1179964Y809770D02*
D03*
Y802770D02*
D03*
X1009000Y809770D02*
D03*
Y802770D02*
D03*
X838000Y809770D02*
D03*
Y802770D02*
D03*
X667000Y809770D02*
D03*
Y802770D02*
D03*
X497000Y809770D02*
D03*
Y802770D02*
D03*
X326000Y809770D02*
D03*
Y802770D02*
D03*
X155850Y809770D02*
D03*
Y802770D02*
D03*
X2546000Y1020500D02*
D03*
Y1013500D02*
D03*
X2375434Y1020462D02*
D03*
Y1013462D02*
D03*
X2204828Y1020500D02*
D03*
Y1013500D02*
D03*
X2034000Y1020500D02*
D03*
Y1013500D02*
D03*
X1863000Y1020500D02*
D03*
Y1013500D02*
D03*
X1692318Y1020500D02*
D03*
Y1013500D02*
D03*
X1521718Y1020500D02*
D03*
Y1013500D02*
D03*
X1351000Y1020500D02*
D03*
Y1013500D02*
D03*
X1180172Y1020500D02*
D03*
Y1013500D02*
D03*
X1009515Y1020500D02*
D03*
Y1013500D02*
D03*
X838673Y1020500D02*
D03*
Y1013500D02*
D03*
X668000Y1020500D02*
D03*
Y1013500D02*
D03*
X497340Y1020524D02*
D03*
Y1013524D02*
D03*
X326551Y1020500D02*
D03*
Y1013500D02*
D03*
X155853Y1020500D02*
D03*
Y1013500D02*
D03*
D17*
X2546160Y128000D02*
D03*
Y120000D02*
D03*
X2375430Y128000D02*
D03*
Y120000D02*
D03*
X2204700Y128000D02*
D03*
Y120000D02*
D03*
X2033970Y128000D02*
D03*
Y120000D02*
D03*
X1863230Y128000D02*
D03*
Y120000D02*
D03*
X1692500Y128000D02*
D03*
Y120000D02*
D03*
X1520270Y128000D02*
D03*
Y120000D02*
D03*
X668050Y128000D02*
D03*
Y120000D02*
D03*
X497320Y128000D02*
D03*
Y120000D02*
D03*
X326580Y128000D02*
D03*
Y120000D02*
D03*
X155850Y128000D02*
D03*
Y120000D02*
D03*
X2420800Y298740D02*
D03*
Y290740D02*
D03*
X2124650Y298740D02*
D03*
Y290740D02*
D03*
X1953910Y298740D02*
D03*
Y290740D02*
D03*
X1783180Y298740D02*
D03*
Y290740D02*
D03*
X1612450Y298740D02*
D03*
Y290740D02*
D03*
X1441710Y298740D02*
D03*
Y290740D02*
D03*
X1270980Y298740D02*
D03*
Y290740D02*
D03*
X1100250Y298740D02*
D03*
Y290740D02*
D03*
X929520Y298740D02*
D03*
Y290740D02*
D03*
X758780Y298740D02*
D03*
Y290740D02*
D03*
X588050Y298740D02*
D03*
Y290740D02*
D03*
X417320Y298740D02*
D03*
Y290740D02*
D03*
X201220Y298740D02*
D03*
Y290740D02*
D03*
X2375430Y469470D02*
D03*
Y461470D02*
D03*
X2204650Y469470D02*
D03*
Y461470D02*
D03*
X2033910Y469470D02*
D03*
Y461470D02*
D03*
X1863180Y469470D02*
D03*
Y461470D02*
D03*
X1692450Y469470D02*
D03*
Y461470D02*
D03*
X1521710Y469470D02*
D03*
Y461470D02*
D03*
X1350980Y469470D02*
D03*
Y461470D02*
D03*
X1180250Y469470D02*
D03*
Y461470D02*
D03*
X1009520Y469470D02*
D03*
Y461470D02*
D03*
X838780Y469470D02*
D03*
Y461470D02*
D03*
X668050Y469470D02*
D03*
Y461470D02*
D03*
X497320Y469470D02*
D03*
Y461470D02*
D03*
X234690Y469470D02*
D03*
Y461470D02*
D03*
X2546160Y556000D02*
D03*
Y548000D02*
D03*
X2295430Y640200D02*
D03*
Y632200D02*
D03*
X2124700Y640200D02*
D03*
Y632200D02*
D03*
X1953970Y640200D02*
D03*
Y632200D02*
D03*
X1783180Y640200D02*
D03*
Y632200D02*
D03*
X1612450Y640200D02*
D03*
Y632200D02*
D03*
X1441710Y640200D02*
D03*
Y632200D02*
D03*
X1270980Y640200D02*
D03*
Y632200D02*
D03*
X1100250Y640200D02*
D03*
Y632200D02*
D03*
X929520Y640200D02*
D03*
Y632200D02*
D03*
X758780Y640200D02*
D03*
Y632200D02*
D03*
X588050Y640200D02*
D03*
Y632200D02*
D03*
X417320Y640200D02*
D03*
Y632200D02*
D03*
X201220Y640200D02*
D03*
Y632200D02*
D03*
X2460000Y810270D02*
D03*
Y802270D02*
D03*
X2204000Y810270D02*
D03*
Y802270D02*
D03*
X2034000Y810270D02*
D03*
Y802270D02*
D03*
X1863000Y810270D02*
D03*
Y802270D02*
D03*
X1692000Y810270D02*
D03*
Y802270D02*
D03*
X1521000Y810270D02*
D03*
Y802270D02*
D03*
X1351000Y810270D02*
D03*
Y802270D02*
D03*
X1179964Y810270D02*
D03*
Y802270D02*
D03*
X1009000Y810270D02*
D03*
Y802270D02*
D03*
X838000Y810270D02*
D03*
Y802270D02*
D03*
X667000Y810270D02*
D03*
Y802270D02*
D03*
X497000Y810270D02*
D03*
Y802270D02*
D03*
X326000Y810270D02*
D03*
Y802270D02*
D03*
X155850Y810270D02*
D03*
Y802270D02*
D03*
X2546000Y1021000D02*
D03*
Y1013000D02*
D03*
X2375434Y1020962D02*
D03*
Y1012962D02*
D03*
X2204828Y1021000D02*
D03*
Y1013000D02*
D03*
X2034000Y1021000D02*
D03*
Y1013000D02*
D03*
X1863000Y1021000D02*
D03*
Y1013000D02*
D03*
X1692318Y1021000D02*
D03*
Y1013000D02*
D03*
X1521718Y1021000D02*
D03*
Y1013000D02*
D03*
X1351000Y1021000D02*
D03*
Y1013000D02*
D03*
X1180172Y1021000D02*
D03*
Y1013000D02*
D03*
X1009515Y1021000D02*
D03*
Y1013000D02*
D03*
X838673Y1021000D02*
D03*
Y1013000D02*
D03*
X668000Y1021000D02*
D03*
Y1013000D02*
D03*
X497340Y1021024D02*
D03*
Y1013024D02*
D03*
X326551Y1021000D02*
D03*
Y1013000D02*
D03*
X155853Y1021000D02*
D03*
Y1013000D02*
D03*
D18*
X1812370Y117870D02*
D03*
Y131870D02*
D03*
X2325000Y117870D02*
D03*
Y131870D02*
D03*
X2073819Y302610D02*
D03*
Y288610D02*
D03*
X1561590Y302610D02*
D03*
Y288610D02*
D03*
X1049390Y302610D02*
D03*
Y288610D02*
D03*
X537190Y302610D02*
D03*
Y288610D02*
D03*
X617190Y459340D02*
D03*
Y473340D02*
D03*
X1129390Y459340D02*
D03*
Y473340D02*
D03*
X1641590Y459340D02*
D03*
Y473340D02*
D03*
X2153790Y459340D02*
D03*
Y473340D02*
D03*
X2244570Y644070D02*
D03*
Y630070D02*
D03*
X1732320Y644070D02*
D03*
Y630070D02*
D03*
X1220120Y644070D02*
D03*
Y630070D02*
D03*
X707920Y644070D02*
D03*
Y630070D02*
D03*
X275690Y800370D02*
D03*
Y814370D02*
D03*
X788000Y800370D02*
D03*
Y814370D02*
D03*
X1300065Y800370D02*
D03*
Y814370D02*
D03*
X1812397Y800370D02*
D03*
Y814370D02*
D03*
X2409917Y800404D02*
D03*
Y814404D02*
D03*
X2154000Y1011100D02*
D03*
Y1025100D02*
D03*
X1641590Y1011100D02*
D03*
Y1025100D02*
D03*
X1129390Y1025100D02*
D03*
Y1011100D02*
D03*
X617180Y1011100D02*
D03*
Y1025100D02*
D03*
X104990Y1011100D02*
D03*
Y1025100D02*
D03*
X275720Y117870D02*
D03*
Y131870D02*
D03*
X790000Y117870D02*
D03*
Y131870D02*
D03*
D36*
X50000Y210000D02*
D03*
Y890000D02*
D03*
X2558550D02*
D03*
X576060Y965530D02*
D03*
X917540D02*
D03*
X1088270D02*
D03*
X1259000D02*
D03*
X1429730D02*
D03*
X1600470D02*
D03*
X1771200D02*
D03*
X1942150D02*
D03*
X2112880D02*
D03*
X2283450D02*
D03*
X2454180D02*
D03*
X63870D02*
D03*
X234600D02*
D03*
X405340D02*
D03*
X746800D02*
D03*
X63870Y754800D02*
D03*
X234600D02*
D03*
X405340D02*
D03*
X576060D02*
D03*
X746800D02*
D03*
X917540D02*
D03*
X1088270D02*
D03*
X1259000D02*
D03*
X1429730D02*
D03*
X1600470D02*
D03*
X1771200D02*
D03*
X1942150D02*
D03*
X2112880D02*
D03*
X2368820D02*
D03*
X109240Y584500D02*
D03*
X325340D02*
D03*
X496070D02*
D03*
X666800D02*
D03*
X837540D02*
D03*
X1008270D02*
D03*
X1179000D02*
D03*
X1349730D02*
D03*
X1520470D02*
D03*
X1691200D02*
D03*
X1861990D02*
D03*
X2032720D02*
D03*
X2203450D02*
D03*
X2454180Y499140D02*
D03*
X142710Y413770D02*
D03*
X405340D02*
D03*
X576070D02*
D03*
X746800D02*
D03*
X917540D02*
D03*
X1088270D02*
D03*
X1259000D02*
D03*
X1429730D02*
D03*
X1600470D02*
D03*
X1771200D02*
D03*
X1941930D02*
D03*
X2112670D02*
D03*
X2283450D02*
D03*
X109240Y243040D02*
D03*
X325340D02*
D03*
X496070D02*
D03*
X666800D02*
D03*
X837540D02*
D03*
X1008270D02*
D03*
X1179000D02*
D03*
X1349730D02*
D03*
X1520470D02*
D03*
X1691200D02*
D03*
X1861930D02*
D03*
X2032670D02*
D03*
X2328820D02*
D03*
X63870Y72300D02*
D03*
X234600D02*
D03*
X405340D02*
D03*
X576070D02*
D03*
X1428290D02*
D03*
X1600520D02*
D03*
X1771250D02*
D03*
X1941990D02*
D03*
X2112720D02*
D03*
X2283450D02*
D03*
X2454180D02*
D03*
X748290D02*
D03*
D37*
X983512Y129644D02*
D03*
X1270526Y76580D02*
D03*
X1083000Y92000D02*
D03*
D40*
X1138100Y40700D02*
D03*
X1112700D02*
D03*
X1087300D02*
D03*
X1061900D02*
D03*
X1036500D02*
D03*
X1188900D02*
D03*
X1163500D02*
D03*
D41*
X1011100D02*
D03*
D42*
X570560Y933030D02*
D03*
X697560Y1053030D02*
D03*
X570560D02*
D03*
X697560Y933030D02*
D03*
X1039040D02*
D03*
X912040Y1053030D02*
D03*
X1039040D02*
D03*
X912040Y933030D02*
D03*
X1082770D02*
D03*
X1209770Y1053030D02*
D03*
X1082770D02*
D03*
X1209770Y933030D02*
D03*
X1380500D02*
D03*
X1253500Y1053030D02*
D03*
X1380500D02*
D03*
X1253500Y933030D02*
D03*
X1424230D02*
D03*
X1551230Y1053030D02*
D03*
X1424230D02*
D03*
X1551230Y933030D02*
D03*
X1721970D02*
D03*
X1594970Y1053030D02*
D03*
X1721970D02*
D03*
X1594970Y933030D02*
D03*
X1765700D02*
D03*
X1892700Y1053030D02*
D03*
X1765700D02*
D03*
X1892700Y933030D02*
D03*
X2063650D02*
D03*
X1936650Y1053030D02*
D03*
X2063650D02*
D03*
X1936650Y933030D02*
D03*
X2107380D02*
D03*
X2234380Y1053030D02*
D03*
X2107380D02*
D03*
X2234380Y933030D02*
D03*
X2404950D02*
D03*
X2277950Y1053030D02*
D03*
X2404950D02*
D03*
X2277950Y933030D02*
D03*
X2448680D02*
D03*
X2575680Y1053030D02*
D03*
X2448680D02*
D03*
X2575680Y933030D02*
D03*
X185370D02*
D03*
X58370Y1053030D02*
D03*
X185370D02*
D03*
X58370Y933030D02*
D03*
X229100D02*
D03*
X356100Y1053030D02*
D03*
X229100D02*
D03*
X356100Y933030D02*
D03*
X526840D02*
D03*
X399840Y1053030D02*
D03*
X526840D02*
D03*
X399840Y933030D02*
D03*
X741300D02*
D03*
X868300Y1053030D02*
D03*
X741300D02*
D03*
X868300Y933030D02*
D03*
X185370Y722300D02*
D03*
X58370Y842300D02*
D03*
X185370D02*
D03*
X58370Y722300D02*
D03*
X229100D02*
D03*
X356100Y842300D02*
D03*
X229100D02*
D03*
X356100Y722300D02*
D03*
X526840D02*
D03*
X399840Y842300D02*
D03*
X526840D02*
D03*
X399840Y722300D02*
D03*
X570560D02*
D03*
X697560Y842300D02*
D03*
X570560D02*
D03*
X697560Y722300D02*
D03*
X868300D02*
D03*
X741300Y842300D02*
D03*
X868300D02*
D03*
X741300Y722300D02*
D03*
X912040D02*
D03*
X1039040Y842300D02*
D03*
X912040D02*
D03*
X1039040Y722300D02*
D03*
X1209770D02*
D03*
X1082770Y842300D02*
D03*
X1209770D02*
D03*
X1082770Y722300D02*
D03*
X1253500D02*
D03*
X1380500Y842300D02*
D03*
X1253500D02*
D03*
X1380500Y722300D02*
D03*
X1551230D02*
D03*
X1424230Y842300D02*
D03*
X1551230D02*
D03*
X1424230Y722300D02*
D03*
X1594970D02*
D03*
X1721970Y842300D02*
D03*
X1594970D02*
D03*
X1721970Y722300D02*
D03*
X1892700D02*
D03*
X1765700Y842300D02*
D03*
X1892700D02*
D03*
X1765700Y722300D02*
D03*
X1936650D02*
D03*
X2063650Y842300D02*
D03*
X1936650D02*
D03*
X2063650Y722300D02*
D03*
X2234380D02*
D03*
X2107380Y842300D02*
D03*
X2234380D02*
D03*
X2107380Y722300D02*
D03*
X2363320D02*
D03*
X2490320Y842300D02*
D03*
X2363320D02*
D03*
X2490320Y722300D02*
D03*
X230740Y552000D02*
D03*
X103740Y672000D02*
D03*
X230740D02*
D03*
X103740Y552000D02*
D03*
X319840D02*
D03*
X446840Y672000D02*
D03*
X319840D02*
D03*
X446840Y552000D02*
D03*
X617570D02*
D03*
X490570Y672000D02*
D03*
X617570D02*
D03*
X490570Y552000D02*
D03*
X661300D02*
D03*
X788300Y672000D02*
D03*
X661300D02*
D03*
X788300Y552000D02*
D03*
X959040D02*
D03*
X832040Y672000D02*
D03*
X959040D02*
D03*
X832040Y552000D02*
D03*
X1002770D02*
D03*
X1129770Y672000D02*
D03*
X1002770D02*
D03*
X1129770Y552000D02*
D03*
X1300500D02*
D03*
X1173500Y672000D02*
D03*
X1300500D02*
D03*
X1173500Y552000D02*
D03*
X1344230D02*
D03*
X1471230Y672000D02*
D03*
X1344230D02*
D03*
X1471230Y552000D02*
D03*
X1641970D02*
D03*
X1514970Y672000D02*
D03*
X1641970D02*
D03*
X1514970Y552000D02*
D03*
X1685700D02*
D03*
X1812700Y672000D02*
D03*
X1685700D02*
D03*
X1812700Y552000D02*
D03*
X1983490D02*
D03*
X1856490Y672000D02*
D03*
X1983490D02*
D03*
X1856490Y552000D02*
D03*
X2027220D02*
D03*
X2154220Y672000D02*
D03*
X2027220D02*
D03*
X2154220Y552000D02*
D03*
X2324950D02*
D03*
X2197950Y672000D02*
D03*
X2324950D02*
D03*
X2197950Y552000D02*
D03*
X2448680Y466640D02*
D03*
X2575680Y586640D02*
D03*
X2448680D02*
D03*
X2575680Y466640D02*
D03*
X264210Y381270D02*
D03*
X137210Y501270D02*
D03*
X264210D02*
D03*
X137210Y381270D02*
D03*
X399840D02*
D03*
X526840Y501270D02*
D03*
X399840D02*
D03*
X526840Y381270D02*
D03*
X697570D02*
D03*
X570570Y501270D02*
D03*
X697570D02*
D03*
X570570Y381270D02*
D03*
X741300D02*
D03*
X868300Y501270D02*
D03*
X741300D02*
D03*
X868300Y381270D02*
D03*
X1039040D02*
D03*
X912040Y501270D02*
D03*
X1039040D02*
D03*
X912040Y381270D02*
D03*
X1082770D02*
D03*
X1209770Y501270D02*
D03*
X1082770D02*
D03*
X1209770Y381270D02*
D03*
X1380500D02*
D03*
X1253500Y501270D02*
D03*
X1380500D02*
D03*
X1253500Y381270D02*
D03*
X1424230D02*
D03*
X1551230Y501270D02*
D03*
X1424230D02*
D03*
X1551230Y381270D02*
D03*
X1721970D02*
D03*
X1594970Y501270D02*
D03*
X1721970D02*
D03*
X1594970Y381270D02*
D03*
X1765700D02*
D03*
X1892700Y501270D02*
D03*
X1765700D02*
D03*
X1892700Y381270D02*
D03*
X2063430D02*
D03*
X1936430Y501270D02*
D03*
X2063430D02*
D03*
X1936430Y381270D02*
D03*
X2107170D02*
D03*
X2234170Y501270D02*
D03*
X2107170D02*
D03*
X2234170Y381270D02*
D03*
X2404950D02*
D03*
X2277950Y501270D02*
D03*
X2404950D02*
D03*
X2277950Y381270D02*
D03*
X103740Y210540D02*
D03*
X230740Y330540D02*
D03*
X103740D02*
D03*
X230740Y210540D02*
D03*
X446840D02*
D03*
X319840Y330540D02*
D03*
X446840D02*
D03*
X319840Y210540D02*
D03*
X490570D02*
D03*
X617570Y330540D02*
D03*
X490570D02*
D03*
X617570Y210540D02*
D03*
X788300D02*
D03*
X661300Y330540D02*
D03*
X788300D02*
D03*
X661300Y210540D02*
D03*
X832040D02*
D03*
X959040Y330540D02*
D03*
X832040D02*
D03*
X959040Y210540D02*
D03*
X1129770D02*
D03*
X1002770Y330540D02*
D03*
X1129770D02*
D03*
X1002770Y210540D02*
D03*
X1173500D02*
D03*
X1300500Y330540D02*
D03*
X1173500D02*
D03*
X1300500Y210540D02*
D03*
X1471230D02*
D03*
X1344230Y330540D02*
D03*
X1471230D02*
D03*
X1344230Y210540D02*
D03*
X1514970D02*
D03*
X1641970Y330540D02*
D03*
X1514970D02*
D03*
X1641970Y210540D02*
D03*
X1812700D02*
D03*
X1685700Y330540D02*
D03*
X1812700D02*
D03*
X1685700Y210540D02*
D03*
X1856430D02*
D03*
X1983430Y330540D02*
D03*
X1856430D02*
D03*
X1983430Y210540D02*
D03*
X2154170D02*
D03*
X2027170Y330540D02*
D03*
X2154170D02*
D03*
X2027170Y210540D02*
D03*
X2323320D02*
D03*
X2450320Y330540D02*
D03*
X2323320D02*
D03*
X2450320Y210540D02*
D03*
X185370Y39800D02*
D03*
X58370Y159800D02*
D03*
X185370D02*
D03*
X58370Y39800D02*
D03*
X229100D02*
D03*
X356100Y159800D02*
D03*
X229100D02*
D03*
X356100Y39800D02*
D03*
X526840D02*
D03*
X399840Y159800D02*
D03*
X526840D02*
D03*
X399840Y39800D02*
D03*
X570570D02*
D03*
X697570Y159800D02*
D03*
X570570D02*
D03*
X697570Y39800D02*
D03*
X1549790D02*
D03*
X1422790Y159800D02*
D03*
X1549790D02*
D03*
X1422790Y39800D02*
D03*
X1595020D02*
D03*
X1722020Y159800D02*
D03*
X1595020D02*
D03*
X1722020Y39800D02*
D03*
X1892750D02*
D03*
X1765750Y159800D02*
D03*
X1892750D02*
D03*
X1765750Y39800D02*
D03*
X1936490D02*
D03*
X2063490Y159800D02*
D03*
X1936490D02*
D03*
X2063490Y39800D02*
D03*
X2234220D02*
D03*
X2107220Y159800D02*
D03*
X2234220D02*
D03*
X2107220Y39800D02*
D03*
X2277950D02*
D03*
X2404950Y159800D02*
D03*
X2277950D02*
D03*
X2404950Y39800D02*
D03*
X2575680D02*
D03*
X2448680Y159800D02*
D03*
X2575680D02*
D03*
X2448680Y39800D02*
D03*
X742790D02*
D03*
X869790Y159800D02*
D03*
X742790D02*
D03*
X869790Y39800D02*
D03*
D43*
X692060Y1020530D02*
D03*
X1033540D02*
D03*
X1204270D02*
D03*
X1375000D02*
D03*
X1545730D02*
D03*
X1716470D02*
D03*
X1887200D02*
D03*
X2058150D02*
D03*
X2228880D02*
D03*
X2399450D02*
D03*
X2570180D02*
D03*
X179870D02*
D03*
X350600D02*
D03*
X521340D02*
D03*
X862800D02*
D03*
X179870Y809800D02*
D03*
X350600D02*
D03*
X521340D02*
D03*
X692060D02*
D03*
X862800D02*
D03*
X1033540D02*
D03*
X1204270D02*
D03*
X1375000D02*
D03*
X1545730D02*
D03*
X1716470D02*
D03*
X1887200D02*
D03*
X2058150D02*
D03*
X2228880D02*
D03*
X2484820D02*
D03*
X225240Y639500D02*
D03*
X441340D02*
D03*
X612070D02*
D03*
X782800D02*
D03*
X953540D02*
D03*
X1124270D02*
D03*
X1295000D02*
D03*
X1465730D02*
D03*
X1636470D02*
D03*
X1807200D02*
D03*
X1977990D02*
D03*
X2148720D02*
D03*
X2319450D02*
D03*
X2570180Y554140D02*
D03*
X258710Y468770D02*
D03*
X521340D02*
D03*
X692070D02*
D03*
X862800D02*
D03*
X1033540D02*
D03*
X1204270D02*
D03*
X1375000D02*
D03*
X1545730D02*
D03*
X1716470D02*
D03*
X1887200D02*
D03*
X2057930D02*
D03*
X2228670D02*
D03*
X2399450D02*
D03*
X225240Y298040D02*
D03*
X441340D02*
D03*
X612070D02*
D03*
X782800D02*
D03*
X953540D02*
D03*
X1124270D02*
D03*
X1295000D02*
D03*
X1465730D02*
D03*
X1636470D02*
D03*
X1807200D02*
D03*
X1977930D02*
D03*
X2148670D02*
D03*
X2444820D02*
D03*
X179870Y127300D02*
D03*
X350600D02*
D03*
X521340D02*
D03*
X692070D02*
D03*
X1544290D02*
D03*
X1716520D02*
D03*
X1887250D02*
D03*
X2057990D02*
D03*
X2228720D02*
D03*
X2399450D02*
D03*
X2570180D02*
D03*
X864290D02*
D03*
D44*
X659060Y965530D02*
D03*
X609060D02*
D03*
X950540D02*
D03*
X1000540D02*
D03*
X1171270D02*
D03*
X1121270D02*
D03*
X1292000D02*
D03*
X1342000D02*
D03*
X1512730D02*
D03*
X1462730D02*
D03*
X1633470D02*
D03*
X1683470D02*
D03*
X1854200D02*
D03*
X1804200D02*
D03*
X1975150D02*
D03*
X2025150D02*
D03*
X2195880D02*
D03*
X2145880D02*
D03*
X2316450D02*
D03*
X2366450D02*
D03*
X2537180D02*
D03*
X2487180D02*
D03*
X96870D02*
D03*
X146870D02*
D03*
X317600D02*
D03*
X267600D02*
D03*
X438340D02*
D03*
X488340D02*
D03*
X829800D02*
D03*
X779800D02*
D03*
X96870Y754800D02*
D03*
X146870D02*
D03*
X317600D02*
D03*
X267600D02*
D03*
X438340D02*
D03*
X488340D02*
D03*
X659060D02*
D03*
X609060D02*
D03*
X779800D02*
D03*
X829800D02*
D03*
X1000540D02*
D03*
X950540D02*
D03*
X1121270D02*
D03*
X1171270D02*
D03*
X1342000D02*
D03*
X1292000D02*
D03*
X1462730D02*
D03*
X1512730D02*
D03*
X1683470D02*
D03*
X1633470D02*
D03*
X1804200D02*
D03*
X1854200D02*
D03*
X2025150D02*
D03*
X1975150D02*
D03*
X2145880D02*
D03*
X2195880D02*
D03*
X2451820D02*
D03*
X2401820D02*
D03*
X142240Y584500D02*
D03*
X192240D02*
D03*
X408340D02*
D03*
X358340D02*
D03*
X529070D02*
D03*
X579070D02*
D03*
X749800D02*
D03*
X699800D02*
D03*
X870540D02*
D03*
X920540D02*
D03*
X1091270D02*
D03*
X1041270D02*
D03*
X1212000D02*
D03*
X1262000D02*
D03*
X1432730D02*
D03*
X1382730D02*
D03*
X1553470D02*
D03*
X1603470D02*
D03*
X1774200D02*
D03*
X1724200D02*
D03*
X1894990D02*
D03*
X1944990D02*
D03*
X2115720D02*
D03*
X2065720D02*
D03*
X2236450D02*
D03*
X2286450D02*
D03*
X2537180Y499140D02*
D03*
X2487180D02*
D03*
X175710Y413770D02*
D03*
X225710D02*
D03*
X488340D02*
D03*
X438340D02*
D03*
X609070D02*
D03*
X659070D02*
D03*
X829800D02*
D03*
X779800D02*
D03*
X950540D02*
D03*
X1000540D02*
D03*
X1171270D02*
D03*
X1121270D02*
D03*
X1292000D02*
D03*
X1342000D02*
D03*
X1512730D02*
D03*
X1462730D02*
D03*
X1633470D02*
D03*
X1683470D02*
D03*
X1854200D02*
D03*
X1804200D02*
D03*
X1974930D02*
D03*
X2024930D02*
D03*
X2195670D02*
D03*
X2145670D02*
D03*
X2316450D02*
D03*
X2366450D02*
D03*
X192240Y243040D02*
D03*
X142240D02*
D03*
X358340D02*
D03*
X408340D02*
D03*
X579070D02*
D03*
X529070D02*
D03*
X699800D02*
D03*
X749800D02*
D03*
X920540D02*
D03*
X870540D02*
D03*
X1041270D02*
D03*
X1091270D02*
D03*
X1262000D02*
D03*
X1212000D02*
D03*
X1382730D02*
D03*
X1432730D02*
D03*
X1603470D02*
D03*
X1553470D02*
D03*
X1724200D02*
D03*
X1774200D02*
D03*
X1944930D02*
D03*
X1894930D02*
D03*
X2065670D02*
D03*
X2115670D02*
D03*
X2411820D02*
D03*
X2361820D02*
D03*
X96870Y72300D02*
D03*
X146870D02*
D03*
X317600D02*
D03*
X267600D02*
D03*
X438340D02*
D03*
X488340D02*
D03*
X659070D02*
D03*
X609070D02*
D03*
X1461290D02*
D03*
X1511290D02*
D03*
X1683520D02*
D03*
X1633520D02*
D03*
X1804250D02*
D03*
X1854250D02*
D03*
X2024990D02*
D03*
X1974990D02*
D03*
X2145720D02*
D03*
X2195720D02*
D03*
X2366450D02*
D03*
X2316450D02*
D03*
X2487180D02*
D03*
X2537180D02*
D03*
X831290D02*
D03*
X781290D02*
D03*
D45*
X2615050Y980490D02*
D03*
Y112790D02*
D03*
X1717030Y1098890D02*
D03*
X917030D02*
D03*
X1717030Y-6060D02*
D03*
X917030D02*
D03*
X19000Y980490D02*
D03*
Y119640D02*
D03*
M02*
