G04*
G04 #@! TF.GenerationSoftware,Altium Limited,Altium Designer,24.2.2 (26)*
G04*
G04 Layer_Color=128*
%FSLAX44Y44*%
%MOMM*%
G71*
G04*
G04 #@! TF.SameCoordinates,2B7E99FB-4F0D-402E-9D71-9E8D4FD60802*
G04*
G04*
G04 #@! TF.FilePolarity,Positive*
G04*
G01*
G75*
%ADD12R,0.4800X0.3800*%
%ADD13R,0.3800X0.4800*%
%ADD18R,0.8000X0.6000*%
%ADD49R,0.8000X0.6300*%
%ADD50R,0.6300X0.8000*%
%ADD51R,1.0500X1.3500*%
%ADD52R,1.3500X1.0500*%
%ADD53R,3.8000X1.0000*%
%ADD59R,3.2000X3.2000*%
%ADD60O,0.8750X0.2000*%
%ADD61O,0.2000X0.8750*%
%ADD62R,1.7000X1.4000*%
%ADD63R,0.6000X1.5500*%
%ADD64R,1.2000X1.8000*%
%ADD65R,0.4000X0.7000*%
%ADD66R,0.7000X0.4000*%
%ADD67R,0.2500X0.9000*%
%ADD68R,1.6000X0.2000*%
%ADD69O,0.4500X0.8000*%
%ADD70R,0.6000X0.2500*%
%ADD71R,0.4500X0.8000*%
G36*
X1091741Y175882D02*
X1092022Y175601D01*
X1092175Y175234D01*
Y175035D01*
Y173035D01*
Y172836D01*
X1092022Y172468D01*
X1091741Y172187D01*
X1091374Y172035D01*
X1086976D01*
X1086608Y172187D01*
X1086327Y172468D01*
X1086175Y172836D01*
Y173035D01*
Y175035D01*
Y175234D01*
X1086327Y175601D01*
X1086608Y175882D01*
X1086976Y176035D01*
X1091374D01*
X1091741Y175882D01*
D02*
G37*
G36*
X1012237Y171772D02*
X1012413Y171596D01*
X1012508Y171366D01*
Y171242D01*
Y169992D01*
Y169867D01*
X1012413Y169638D01*
X1012237Y169462D01*
X1012007Y169367D01*
X1010009D01*
X1009779Y169462D01*
X1009603Y169638D01*
X1009508Y169867D01*
Y169992D01*
Y171242D01*
Y171366D01*
X1009603Y171596D01*
X1009779Y171772D01*
X1010009Y171867D01*
X1012007D01*
X1012237Y171772D01*
D02*
G37*
G36*
X1092404Y168440D02*
X1092580Y168264D01*
X1092675Y168034D01*
Y167910D01*
Y166160D01*
Y166035D01*
X1092580Y165806D01*
X1092404Y165630D01*
X1092174Y165535D01*
X1090675D01*
X1090446Y165630D01*
X1090270Y165806D01*
X1090175Y166035D01*
Y166160D01*
Y167910D01*
Y168034D01*
X1090270Y168264D01*
X1090446Y168440D01*
X1090675Y168535D01*
X1092174D01*
X1092404Y168440D01*
D02*
G37*
G36*
X1087904D02*
X1088080Y168264D01*
X1088175Y168034D01*
Y167910D01*
Y166160D01*
Y166035D01*
X1088080Y165806D01*
X1087904Y165630D01*
X1087674Y165535D01*
X1086175D01*
X1085946Y165630D01*
X1085770Y165806D01*
X1085675Y166035D01*
Y166160D01*
Y167910D01*
Y168034D01*
X1085770Y168264D01*
X1085946Y168440D01*
X1086175Y168535D01*
X1087674D01*
X1087904Y168440D01*
D02*
G37*
G36*
X1005575Y171214D02*
X1005856Y170933D01*
X1006008Y170565D01*
Y170367D01*
Y166367D01*
Y166168D01*
X1005856Y165800D01*
X1005575Y165519D01*
X1005207Y165367D01*
X1002809D01*
X1002442Y165519D01*
X1002160Y165800D01*
X1002008Y166168D01*
Y166367D01*
Y170367D01*
Y170565D01*
X1002160Y170933D01*
X1002442Y171214D01*
X1002809Y171367D01*
X1005207D01*
X1005575Y171214D01*
D02*
G37*
G36*
X1012237Y167271D02*
X1012413Y167096D01*
X1012508Y166866D01*
Y166742D01*
Y165492D01*
Y165367D01*
X1012413Y165138D01*
X1012237Y164962D01*
X1012007Y164867D01*
X1010009D01*
X1009779Y164962D01*
X1009603Y165138D01*
X1009508Y165367D01*
Y165492D01*
Y166742D01*
Y166866D01*
X1009603Y167096D01*
X1009779Y167271D01*
X1010009Y167367D01*
X1012007D01*
X1012237Y167271D01*
D02*
G37*
G36*
X872903Y105838D02*
X873079Y105662D01*
X873174Y105432D01*
Y105308D01*
Y104058D01*
Y103934D01*
X873079Y103704D01*
X872903Y103528D01*
X872673Y103433D01*
X870674D01*
X870445Y103528D01*
X870269Y103704D01*
X870174Y103934D01*
Y104058D01*
Y105308D01*
Y105432D01*
X870269Y105662D01*
X870445Y105838D01*
X870674Y105933D01*
X872673D01*
X872903Y105838D01*
D02*
G37*
G36*
X866240Y105281D02*
X866522Y104999D01*
X866674Y104632D01*
Y104433D01*
Y100433D01*
Y100234D01*
X866522Y99867D01*
X866240Y99585D01*
X865873Y99433D01*
X863475D01*
X863107Y99585D01*
X862826Y99867D01*
X862674Y100234D01*
Y100433D01*
Y104433D01*
Y104632D01*
X862826Y104999D01*
X863107Y105281D01*
X863475Y105433D01*
X865873D01*
X866240Y105281D01*
D02*
G37*
G36*
X872903Y101338D02*
X873079Y101162D01*
X873174Y100932D01*
Y100808D01*
Y99558D01*
Y99434D01*
X873079Y99204D01*
X872903Y99028D01*
X872673Y98933D01*
X870674D01*
X870445Y99028D01*
X870269Y99204D01*
X870174Y99434D01*
Y99558D01*
Y100808D01*
Y100932D01*
X870269Y101162D01*
X870445Y101338D01*
X870674Y101433D01*
X872673D01*
X872903Y101338D01*
D02*
G37*
G36*
X1096880Y97793D02*
X1096287D01*
X1094780Y99300D01*
Y101893D01*
X1096880D01*
Y97793D01*
D02*
G37*
G36*
X1090380Y99300D02*
X1088873Y97793D01*
X1088280D01*
Y101893D01*
X1090380D01*
Y99300D01*
D02*
G37*
G36*
X1095762Y95000D02*
X1092580Y91818D01*
X1089398Y95000D01*
X1092580Y98182D01*
X1095762Y95000D01*
D02*
G37*
G36*
X1096880Y88107D02*
X1094780D01*
Y90700D01*
X1096287Y92207D01*
X1096880D01*
Y88107D01*
D02*
G37*
G36*
X1090380Y90700D02*
Y88107D01*
X1088280D01*
Y92207D01*
X1088873D01*
X1090380Y90700D01*
D02*
G37*
D12*
X997000Y157950D02*
D03*
Y150050D02*
D03*
X1115965Y140595D02*
D03*
Y148495D02*
D03*
X1311000Y144050D02*
D03*
Y151950D02*
D03*
X1187932Y72799D02*
D03*
Y64899D02*
D03*
X1238226Y189001D02*
D03*
Y196901D02*
D03*
X1241000Y68950D02*
D03*
Y61050D02*
D03*
X1196932Y72799D02*
D03*
Y64899D02*
D03*
X1298502Y254866D02*
D03*
Y262766D02*
D03*
X1278614Y83212D02*
D03*
Y91112D02*
D03*
X1227075Y288603D02*
D03*
Y280703D02*
D03*
X881000Y113050D02*
D03*
Y120950D02*
D03*
X853352Y117713D02*
D03*
Y125613D02*
D03*
X853350Y110449D02*
D03*
Y102549D02*
D03*
X1208857Y40253D02*
D03*
Y32353D02*
D03*
X1107886Y154067D02*
D03*
Y161967D02*
D03*
X1307502Y262766D02*
D03*
Y254866D02*
D03*
D13*
X956050Y98000D02*
D03*
X963950D02*
D03*
X1064050Y156503D02*
D03*
X1071950D02*
D03*
X1297552Y245817D02*
D03*
X1305452D02*
D03*
X1224050Y321496D02*
D03*
X1231950D02*
D03*
X1379806Y197502D02*
D03*
X1387706D02*
D03*
X1320552Y245817D02*
D03*
X1328452D02*
D03*
X1255050Y188000D02*
D03*
X1262950D02*
D03*
X937338Y92654D02*
D03*
X929438D02*
D03*
X1170258Y293192D02*
D03*
X1178158D02*
D03*
X1358951Y106172D02*
D03*
X1366851D02*
D03*
X1170950Y121000D02*
D03*
X1163050D02*
D03*
X1201771Y169713D02*
D03*
X1193871D02*
D03*
X1099112Y127630D02*
D03*
X1107012D02*
D03*
X1288050Y120000D02*
D03*
X1295950D02*
D03*
X1170950Y129000D02*
D03*
X1163050D02*
D03*
X1288050Y112000D02*
D03*
X1295950D02*
D03*
X1170950Y137000D02*
D03*
X1163050D02*
D03*
X979934Y121593D02*
D03*
X972034D02*
D03*
X1077280Y286605D02*
D03*
X1069380D02*
D03*
X1255052Y195900D02*
D03*
X1262952D02*
D03*
X1320552Y261816D02*
D03*
X1328452D02*
D03*
X1224050Y338881D02*
D03*
X1231950D02*
D03*
X1379806Y205502D02*
D03*
X1387706D02*
D03*
X1279218Y26319D02*
D03*
X1271318D02*
D03*
X1277220Y45002D02*
D03*
X1269320D02*
D03*
X1277220Y53000D02*
D03*
X1269320D02*
D03*
X1279220Y71835D02*
D03*
X1271320D02*
D03*
X1344573Y161108D02*
D03*
X1336673D02*
D03*
X1344573Y169109D02*
D03*
X1336673D02*
D03*
X1283950Y154000D02*
D03*
X1276050D02*
D03*
X1069380Y298788D02*
D03*
X1077280D02*
D03*
X1104477Y295610D02*
D03*
X1112377D02*
D03*
X1153550Y283622D02*
D03*
X1161450D02*
D03*
X1153550Y271523D02*
D03*
X1161450D02*
D03*
X1153550Y259645D02*
D03*
X1161450D02*
D03*
X1153550Y246888D02*
D03*
X1161450D02*
D03*
X864547Y114011D02*
D03*
X872447D02*
D03*
X1406050Y110000D02*
D03*
X1413950D02*
D03*
X979962Y129644D02*
D03*
X972062D02*
D03*
X1019520Y159785D02*
D03*
X1027420D02*
D03*
X940050Y132000D02*
D03*
X947950D02*
D03*
X1027415Y168803D02*
D03*
X1019516D02*
D03*
X940050Y141000D02*
D03*
X947950D02*
D03*
X963950Y111000D02*
D03*
X956050D02*
D03*
X1057050Y112000D02*
D03*
X1064950D02*
D03*
X1064019Y172838D02*
D03*
X1071919D02*
D03*
X1063987Y164646D02*
D03*
X1071887D02*
D03*
X1065319Y103986D02*
D03*
X1073219D02*
D03*
X1106552Y81946D02*
D03*
X1098652D02*
D03*
X1091530Y82000D02*
D03*
X1083630D02*
D03*
X1510050Y15000D02*
D03*
X1517950D02*
D03*
X916745Y31942D02*
D03*
X908845D02*
D03*
X1100249Y170879D02*
D03*
X1108149D02*
D03*
X1303264Y126008D02*
D03*
X1311164D02*
D03*
X1231950Y330250D02*
D03*
X1224050D02*
D03*
X1387766Y189202D02*
D03*
X1379866D02*
D03*
X1328452Y253816D02*
D03*
X1320552D02*
D03*
X1255050Y180000D02*
D03*
X1262950D02*
D03*
X1178121Y285105D02*
D03*
X1170221D02*
D03*
X1166074Y112907D02*
D03*
X1173974D02*
D03*
X1166106Y104848D02*
D03*
X1174007D02*
D03*
D18*
X1044000Y134000D02*
D03*
Y148000D02*
D03*
X911000Y143000D02*
D03*
Y157000D02*
D03*
D49*
X880417Y89750D02*
D03*
Y76250D02*
D03*
X869000Y89750D02*
D03*
Y76250D02*
D03*
X958143Y121250D02*
D03*
Y134750D02*
D03*
X906000Y57250D02*
D03*
Y70750D02*
D03*
D50*
X915750Y117000D02*
D03*
X902250D02*
D03*
X1176921Y82634D02*
D03*
X1163421D02*
D03*
X1176887Y94771D02*
D03*
X1163387D02*
D03*
D51*
X916000Y102000D02*
D03*
X901500D02*
D03*
X1094750Y115000D02*
D03*
X1109250D02*
D03*
X1086595Y68664D02*
D03*
X1101095D02*
D03*
D52*
X921000Y55750D02*
D03*
Y70250D02*
D03*
D53*
X952527Y54791D02*
D03*
Y79791D02*
D03*
D59*
X1227670Y121080D02*
D03*
D60*
X1193295Y147080D02*
D03*
Y143080D02*
D03*
Y139080D02*
D03*
Y135080D02*
D03*
Y131080D02*
D03*
Y127080D02*
D03*
Y123080D02*
D03*
Y119080D02*
D03*
Y115080D02*
D03*
Y111080D02*
D03*
Y107080D02*
D03*
Y103080D02*
D03*
Y99080D02*
D03*
Y95080D02*
D03*
X1262045D02*
D03*
Y99080D02*
D03*
Y103080D02*
D03*
Y107080D02*
D03*
Y111080D02*
D03*
Y115080D02*
D03*
Y119080D02*
D03*
Y123080D02*
D03*
Y127080D02*
D03*
Y131080D02*
D03*
Y135080D02*
D03*
Y139080D02*
D03*
Y143080D02*
D03*
Y147080D02*
D03*
D61*
X1201670Y86705D02*
D03*
X1205670D02*
D03*
X1209670D02*
D03*
X1213670D02*
D03*
X1217670D02*
D03*
X1221670D02*
D03*
X1225670D02*
D03*
X1229670D02*
D03*
X1233670D02*
D03*
X1237670D02*
D03*
X1241670D02*
D03*
X1245670D02*
D03*
X1249670D02*
D03*
X1253670D02*
D03*
Y155455D02*
D03*
X1249670D02*
D03*
X1245670D02*
D03*
X1241670D02*
D03*
X1237670D02*
D03*
X1233670D02*
D03*
X1229670D02*
D03*
X1225670D02*
D03*
X1221670D02*
D03*
X1217670D02*
D03*
X1213670D02*
D03*
X1209670D02*
D03*
X1205670D02*
D03*
X1201670D02*
D03*
D62*
X1363500Y120000D02*
D03*
Y142000D02*
D03*
X1326500Y120000D02*
D03*
Y142000D02*
D03*
D63*
X1328476Y77348D02*
D03*
X1368476D02*
D03*
X1358476D02*
D03*
X1348476D02*
D03*
X1338476D02*
D03*
D64*
X1378976Y38598D02*
D03*
X1317976D02*
D03*
D65*
X1061830Y286594D02*
D03*
X1054830D02*
D03*
X1262403Y205414D02*
D03*
X1255403D02*
D03*
X1328002Y275423D02*
D03*
X1321002D02*
D03*
X1301500Y275750D02*
D03*
X1308500D02*
D03*
X1352591Y161365D02*
D03*
X1359591D02*
D03*
X1352591Y173301D02*
D03*
X1359591D02*
D03*
X1283519Y163818D02*
D03*
X1276519D02*
D03*
X1061830Y298783D02*
D03*
X1054830D02*
D03*
X1096927Y295982D02*
D03*
X1089927D02*
D03*
X1146000Y283696D02*
D03*
X1139000D02*
D03*
X1146000Y271483D02*
D03*
X1139000D02*
D03*
X1146000Y259370D02*
D03*
X1139000D02*
D03*
X1146000Y247316D02*
D03*
X1139000D02*
D03*
D66*
X1243547Y339560D02*
D03*
Y332560D02*
D03*
X1398756Y206002D02*
D03*
Y199002D02*
D03*
X1288268Y22819D02*
D03*
Y29819D02*
D03*
X1288270Y44946D02*
D03*
Y37946D02*
D03*
Y53094D02*
D03*
Y60094D02*
D03*
X1288224Y75226D02*
D03*
Y68226D02*
D03*
X1288257Y83513D02*
D03*
Y90513D02*
D03*
X1227041Y296149D02*
D03*
Y303149D02*
D03*
D67*
X1125500Y163950D02*
D03*
X1130500D02*
D03*
X1135500D02*
D03*
X1140500D02*
D03*
X1125500Y136050D02*
D03*
X1130500D02*
D03*
X1135500D02*
D03*
X1140500D02*
D03*
D68*
X1133000Y150000D02*
D03*
D69*
X1072500Y123000D02*
D03*
X1066000D02*
D03*
X1059500D02*
D03*
X1072500Y145000D02*
D03*
X1066000D02*
D03*
X1059500D02*
D03*
X985500Y140000D02*
D03*
X979000D02*
D03*
X972500D02*
D03*
X985500Y162000D02*
D03*
X979000D02*
D03*
X972500D02*
D03*
D70*
X944000Y120500D02*
D03*
Y115500D02*
D03*
Y110500D02*
D03*
Y105500D02*
D03*
X930000Y120500D02*
D03*
Y115500D02*
D03*
Y110500D02*
D03*
Y105500D02*
D03*
D71*
X829147Y131084D02*
D03*
X835647D02*
D03*
X842147D02*
D03*
X829147Y109084D02*
D03*
X835647D02*
D03*
X842147D02*
D03*
M02*
