G04*
G04 #@! TF.GenerationSoftware,Altium Limited,Altium Designer,24.2.2 (26)*
G04*
G04 Layer_Color=16711935*
%FSLAX44Y44*%
%MOMM*%
G71*
G04*
G04 #@! TF.SameCoordinates,2B7E99FB-4F0D-402E-9D71-9E8D4FD60802*
G04*
G04*
G04 #@! TF.FilePolarity,Positive*
G04*
G01*
G75*
%ADD96C,0.1000*%
%ADD98C,0.0100*%
D96*
X2608551Y1030485D02*
G03*
X2618551Y1020485I10000J0D01*
G01*
Y940485D02*
G03*
X2608551Y930485I0J-10000D01*
G01*
X57854Y1092835D02*
G03*
X25504Y1060485I0J-32350D01*
G01*
X2608551D02*
G03*
X2576201Y1092835I-32350J0D01*
G01*
X1757027Y1102835D02*
G03*
X1767027Y1092835I10000J0D01*
G01*
X967027Y437D02*
G03*
X957027Y-9563I0J-10000D01*
G01*
X1767027Y437D02*
G03*
X1757027Y-9563I0J-10000D01*
G01*
X957027Y1102835D02*
G03*
X967027Y1092835I10000J0D01*
G01*
X15504Y1020485D02*
G03*
X25504Y1030485I0J10000D01*
G01*
X1677027Y-9563D02*
G03*
X1667027Y437I-10000J0D01*
G01*
X25504Y930485D02*
G03*
X15504Y940485I-10000J0D01*
G01*
Y159636D02*
G03*
X25504Y169636I0J10000D01*
G01*
Y69636D02*
G03*
X15504Y79636I-10000J0D01*
G01*
X25504Y32787D02*
G03*
X57854Y437I32350J0D01*
G01*
X2618551Y72787D02*
G03*
X2608551Y62787I0J-10000D01*
G01*
X2576201Y437D02*
G03*
X2608551Y32787I0J32350D01*
G01*
X867027Y1092835D02*
G03*
X877027Y1102835I0J10000D01*
G01*
X1667027Y1092835D02*
G03*
X1677027Y1102835I0J10000D01*
G01*
X877027Y-9563D02*
G03*
X867027Y437I-10000J0D01*
G01*
X2608551Y162787D02*
G03*
X2618551Y152787I10000J0D01*
G01*
X4Y940485D02*
X15504D01*
X2634051Y72787D02*
Y152787D01*
X2618551Y72787D02*
X2634051D01*
X877027Y1118335D02*
X957027D01*
X4Y940485D02*
Y1020485D01*
X967027Y1092835D02*
X1667027D01*
X4Y79636D02*
Y159636D01*
Y79636D02*
X15504D01*
X25504Y169636D02*
Y930485D01*
Y32787D02*
Y69636D01*
X2618551Y1020485D02*
X2634051D01*
X57854Y437D02*
X867027D01*
X877027Y1102835D02*
Y1118335D01*
Y-25063D02*
Y-9563D01*
X957027Y-25063D02*
Y-9563D01*
X1677027Y-25063D02*
Y-9563D01*
Y-25063D02*
X1757027D01*
X957027Y1102835D02*
Y1118335D01*
X1677027D02*
X1757027D01*
X2608551Y1030485D02*
Y1060485D01*
X2618551Y940485D02*
X2634051D01*
X25504Y1030485D02*
Y1060485D01*
X1677027Y1102835D02*
Y1118335D01*
X1757027Y1102835D02*
Y1118335D01*
X2618551Y152787D02*
X2634051D01*
X4Y159636D02*
X15504D01*
X1767027Y1092835D02*
X2576201D01*
X2634051Y940485D02*
Y1020485D01*
X877027Y-25063D02*
X957027D01*
X2608551Y32787D02*
Y62787D01*
X1757027Y-25063D02*
Y-9563D01*
X1767027Y437D02*
X2576201D01*
X57854Y1092835D02*
X867027D01*
X4Y1020485D02*
X15504D01*
X2608551Y162787D02*
Y930485D01*
X967027Y437D02*
X1667027D01*
D98*
X57854Y1092385D02*
G03*
X25504Y1060035I0J-32350D01*
G01*
X957027Y1102385D02*
G03*
X967027Y1092385I10000J0D01*
G01*
X2608551Y1060035D02*
G03*
X2576201Y1092385I-32350J0D01*
G01*
X877027Y-10013D02*
G03*
X867027Y-13I-10000J0D01*
G01*
X1677027Y-10013D02*
G03*
X1667027Y-13I-10000J0D01*
G01*
X15504Y1020035D02*
G03*
X25504Y1030035I0J10000D01*
G01*
Y930035D02*
G03*
X15504Y940035I-10000J0D01*
G01*
X1757027Y1102385D02*
G03*
X1767027Y1092385I10000J0D01*
G01*
X25504Y69186D02*
G03*
X15504Y79186I-10000J0D01*
G01*
X1677027Y-10013D02*
G03*
X1667027Y-13I-10000J0D01*
G01*
X2576201D02*
G03*
X2608551Y32337I0J32350D01*
G01*
X867027Y1092385D02*
G03*
X877027Y1102385I0J10000D01*
G01*
X57854Y1092385D02*
G03*
X25504Y1060035I0J-32350D01*
G01*
X2608551Y1030035D02*
G03*
X2618551Y1020035I10000J0D01*
G01*
X2608551Y162337D02*
G03*
X2618551Y152337I10000J0D01*
G01*
X1767027Y-13D02*
G03*
X1757027Y-10013I0J-10000D01*
G01*
X867027Y1092385D02*
G03*
X877027Y1102385I0J10000D01*
G01*
X15504Y1020035D02*
G03*
X25504Y1030035I0J10000D01*
G01*
X15504Y159186D02*
G03*
X25504Y169186I0J10000D01*
G01*
X2608551Y1030035D02*
G03*
X2618551Y1020035I10000J0D01*
G01*
X25504Y32337D02*
G03*
X57854Y-13I32350J0D01*
G01*
X2608551Y162337D02*
G03*
X2618551Y152337I10000J0D01*
G01*
X877027Y-10013D02*
G03*
X867027Y-13I-10000J0D01*
G01*
X967027D02*
G03*
X957027Y-10013I0J-10000D01*
G01*
X2618551Y72337D02*
G03*
X2608551Y62337I0J-10000D01*
G01*
X1767027Y-13D02*
G03*
X1757027Y-10013I0J-10000D01*
G01*
X1667027Y1092385D02*
G03*
X1677027Y1102385I0J10000D01*
G01*
X1667027Y1092385D02*
G03*
X1677027Y1102385I0J10000D01*
G01*
X25504Y930035D02*
G03*
X15504Y940035I-10000J0D01*
G01*
X1757027Y1102385D02*
G03*
X1767027Y1092385I10000J0D01*
G01*
X25504Y69186D02*
G03*
X15504Y79186I-10000J0D01*
G01*
X25504Y32337D02*
G03*
X57854Y-13I32350J0D01*
G01*
X2576201D02*
G03*
X2608551Y32337I0J32350D01*
G01*
X15504Y159186D02*
G03*
X25504Y169186I0J10000D01*
G01*
X2618551Y940035D02*
G03*
X2608551Y930035I0J-10000D01*
G01*
X2618551Y940035D02*
G03*
X2608551Y930035I0J-10000D01*
G01*
X967027Y-13D02*
G03*
X957027Y-10013I0J-10000D01*
G01*
X2618551Y72337D02*
G03*
X2608551Y62337I0J-10000D01*
G01*
X957027Y1102385D02*
G03*
X967027Y1092385I10000J0D01*
G01*
X2608551Y1060035D02*
G03*
X2576201Y1092385I-32350J0D01*
G01*
X877027Y1117885D02*
X957027D01*
X967027Y1092385D02*
X1667027D01*
X25504Y169186D02*
Y930035D01*
X4Y159186D02*
X15504D01*
X4Y79186D02*
Y159186D01*
X1767027Y1092385D02*
X2576201D01*
X2634051Y940035D02*
Y1020035D01*
X877027Y-25513D02*
X957027D01*
X2618551Y152337D02*
X2634051D01*
X2618551Y72337D02*
X2634051D01*
X1767027Y-13D02*
X2576201D01*
X877027Y1102385D02*
Y1117885D01*
Y1102385D02*
Y1117885D01*
X1677027D02*
X1757027D01*
X57854Y-13D02*
X867027D01*
X57854D02*
X867027D01*
X2618551Y940035D02*
X2634051D01*
X2618551Y152337D02*
X2634051D01*
Y72337D02*
Y152337D01*
X957027Y1102385D02*
Y1117885D01*
X1677027Y1102385D02*
Y1117885D01*
X1757027Y1102385D02*
Y1117885D01*
X1767027Y1092385D02*
X2576201D01*
X4Y79186D02*
X15504D01*
X1677027Y-25513D02*
Y-10013D01*
Y-25513D02*
Y-10013D01*
X2608551Y32337D02*
Y62337D01*
X57854Y1092385D02*
X867027D01*
X25504Y1030035D02*
Y1060035D01*
X4Y159186D02*
X15504D01*
X25504Y32337D02*
Y69186D01*
X877027Y-25513D02*
Y-10013D01*
X2608551Y162337D02*
Y930035D01*
X957027Y-25513D02*
Y-10013D01*
Y-25513D02*
Y-10013D01*
X25504Y1030035D02*
Y1060035D01*
X4Y1020035D02*
X15504D01*
X1677027Y1102385D02*
Y1117885D01*
X1757027Y1102385D02*
Y1117885D01*
X2608551Y1030035D02*
Y1060035D01*
X2618551Y940035D02*
X2634051D01*
X2618551Y72337D02*
X2634051D01*
X1677027Y-25513D02*
X1757027D01*
Y-10013D01*
Y-25513D02*
Y-10013D01*
X877027Y1117885D02*
X957027D01*
X4Y940035D02*
Y1020035D01*
X967027Y1092385D02*
X1667027D01*
X25504Y169186D02*
Y930035D01*
X2618551Y1020035D02*
X2634051D01*
X2618551D02*
X2634051D01*
X877027Y-25513D02*
Y-10013D01*
X967027Y-13D02*
X1667027D01*
X2608551Y32337D02*
Y62337D01*
X57854Y1092385D02*
X867027D01*
X4Y940035D02*
Y1020035D01*
Y940035D02*
X15504D01*
X1677027Y1117885D02*
X1757027D01*
X2608551Y162337D02*
Y930035D01*
X967027Y-13D02*
X1667027D01*
X2634051Y72337D02*
Y152337D01*
X4Y1020035D02*
X15504D01*
X4Y940035D02*
X15504D01*
X4Y79186D02*
Y159186D01*
Y79186D02*
X15504D01*
X2608551Y1030035D02*
Y1060035D01*
X25504Y32337D02*
Y69186D01*
X2634051Y940035D02*
Y1020035D01*
X877027Y-25513D02*
X957027D01*
X1677027D02*
X1757027D01*
X1767027Y-13D02*
X2576201D01*
M02*
