G04*
G04 #@! TF.GenerationSoftware,Altium Limited,Altium Designer,24.2.2 (26)*
G04*
G04 Layer_Physical_Order=4*
G04 Layer_Color=16711680*
%FSLAX44Y44*%
%MOMM*%
G71*
G04*
G04 #@! TF.SameCoordinates,2B7E99FB-4F0D-402E-9D71-9E8D4FD60802*
G04*
G04*
G04 #@! TF.FilePolarity,Positive*
G04*
G01*
G75*
%ADD11C,0.2000*%
%ADD12R,0.4800X0.3800*%
%ADD13R,0.3800X0.4800*%
%ADD18R,0.8000X0.6000*%
%ADD36C,1.0000*%
%ADD37C,0.7500*%
%ADD38C,0.5000*%
%ADD39C,0.3000*%
%ADD40C,2.0800*%
%ADD41R,2.0800X2.0800*%
%ADD42R,2.0000X2.0000*%
%ADD43C,1.2000*%
%ADD44R,1.5500X2.2000*%
%ADD45C,2.2000*%
%ADD46C,0.6000*%
%ADD47C,0.5000*%
%ADD49R,0.8000X0.6300*%
%ADD50R,0.6300X0.8000*%
%ADD51R,1.0500X1.3500*%
%ADD52R,1.3500X1.0500*%
%ADD53R,3.8000X1.0000*%
%ADD54P,0.8202X4X270.0*%
%AMCUSTOMSHAPE55*
4,1,5,0.1550,-0.1400,-0.1550,-0.1400,-0.1550,0.1349,0.0301,0.3200,0.1550,0.3200,0.1550,-0.1400,0.0*%
%ADD55CUSTOMSHAPE55*%

%AMCUSTOMSHAPE56*
4,1,5,0.1550,0.1400,-0.1550,0.1400,-0.1550,-0.1349,0.0301,-0.3200,0.1550,-0.3200,0.1550,0.1400,0.0*%
%ADD56CUSTOMSHAPE56*%

%AMCUSTOMSHAPE57*
4,1,5,-0.1550,-0.1400,0.1550,-0.1400,0.1550,0.1349,-0.0301,0.3200,-0.1550,0.3200,-0.1550,-0.1400,0.0*%
%ADD57CUSTOMSHAPE57*%

%AMCUSTOMSHAPE58*
4,1,5,-0.1550,0.1400,0.1550,0.1400,0.1550,-0.1349,-0.0301,-0.3200,-0.1550,-0.3200,-0.1550,0.1400,0.0*%
%ADD58CUSTOMSHAPE58*%

%ADD59R,3.2000X3.2000*%
%ADD60O,0.8750X0.2000*%
%ADD61O,0.2000X0.8750*%
%ADD62R,1.7000X1.4000*%
%ADD63R,0.6000X1.5500*%
%ADD64R,1.2000X1.8000*%
%ADD65R,0.4000X0.7000*%
%ADD66R,0.7000X0.4000*%
%ADD67R,0.2500X0.9000*%
%ADD68R,1.6000X0.2000*%
%ADD69O,0.4500X0.8000*%
%ADD70R,0.6000X0.2500*%
%ADD71R,0.4500X0.8000*%
G04:AMPARAMS|DCode=72|XSize=0.25mm|YSize=0.4mm|CornerRadius=0.0625mm|HoleSize=0mm|Usage=FLASHONLY|Rotation=90.000|XOffset=0mm|YOffset=0mm|HoleType=Round|Shape=RoundedRectangle|*
%AMROUNDEDRECTD72*
21,1,0.2500,0.2750,0,0,90.0*
21,1,0.1250,0.4000,0,0,90.0*
1,1,0.1250,0.1375,0.0625*
1,1,0.1250,0.1375,-0.0625*
1,1,0.1250,-0.1375,-0.0625*
1,1,0.1250,-0.1375,0.0625*
%
%ADD72ROUNDEDRECTD72*%
G04:AMPARAMS|DCode=73|XSize=0.4mm|YSize=0.7mm|CornerRadius=0.1mm|HoleSize=0mm|Usage=FLASHONLY|Rotation=180.000|XOffset=0mm|YOffset=0mm|HoleType=Round|Shape=RoundedRectangle|*
%AMROUNDEDRECTD73*
21,1,0.4000,0.5000,0,0,180.0*
21,1,0.2000,0.7000,0,0,180.0*
1,1,0.2000,-0.1000,0.2500*
1,1,0.2000,0.1000,0.2500*
1,1,0.2000,0.1000,-0.2500*
1,1,0.2000,-0.1000,-0.2500*
%
%ADD73ROUNDEDRECTD73*%
G04:AMPARAMS|DCode=74|XSize=0.25mm|YSize=0.4mm|CornerRadius=0.0625mm|HoleSize=0mm|Usage=FLASHONLY|Rotation=0.000|XOffset=0mm|YOffset=0mm|HoleType=Round|Shape=RoundedRectangle|*
%AMROUNDEDRECTD74*
21,1,0.2500,0.2750,0,0,0.0*
21,1,0.1250,0.4000,0,0,0.0*
1,1,0.1250,0.0625,-0.1375*
1,1,0.1250,-0.0625,-0.1375*
1,1,0.1250,-0.0625,0.1375*
1,1,0.1250,0.0625,0.1375*
%
%ADD74ROUNDEDRECTD74*%
G04:AMPARAMS|DCode=75|XSize=0.4mm|YSize=0.7mm|CornerRadius=0.1mm|HoleSize=0mm|Usage=FLASHONLY|Rotation=90.000|XOffset=0mm|YOffset=0mm|HoleType=Round|Shape=RoundedRectangle|*
%AMROUNDEDRECTD75*
21,1,0.4000,0.5000,0,0,90.0*
21,1,0.2000,0.7000,0,0,90.0*
1,1,0.2000,0.2500,0.1000*
1,1,0.2000,0.2500,-0.1000*
1,1,0.2000,-0.2500,-0.1000*
1,1,0.2000,-0.2500,0.1000*
%
%ADD75ROUNDEDRECTD75*%
%ADD76C,0.2860*%
G36*
X926587Y132792D02*
X926493Y132566D01*
Y130577D01*
X926998Y129360D01*
Y125417D01*
X925433Y123853D01*
X925330Y123750D01*
X925000Y123750D01*
X924535Y122955D01*
X924674Y122816D01*
X924674Y122615D01*
Y113378D01*
X925000Y113052D01*
Y112250D01*
X925802D01*
X926313Y111738D01*
X932848D01*
X932929Y110491D01*
X931739Y109221D01*
X926993D01*
X926522Y108750D01*
X925000D01*
Y102250D01*
X925342D01*
Y95567D01*
X922454Y92679D01*
X913112D01*
X910650Y95142D01*
Y129918D01*
X910819D01*
X916807Y135906D01*
X923473D01*
X926587Y132792D01*
D02*
G37*
G36*
X936150Y136600D02*
X942191D01*
X943152Y135639D01*
Y128090D01*
X941563Y126500D01*
X936415D01*
X933107Y123191D01*
Y119292D01*
X927003D01*
Y122539D01*
X928440Y123975D01*
X928440Y123975D01*
X928705Y124372D01*
X928882Y124637D01*
X929037Y125417D01*
D01*
Y125417D01*
Y129360D01*
X928882Y130140D01*
X928882Y130140D01*
X928583Y130861D01*
Y132575D01*
X928626Y132792D01*
X928583Y133010D01*
Y135608D01*
X929893Y136918D01*
X936150D01*
Y136600D01*
D02*
G37*
G36*
X837897Y125084D02*
Y113167D01*
X837863Y112992D01*
X837890Y98818D01*
X836073Y97000D01*
X819000D01*
X814756Y101244D01*
Y127829D01*
X822181Y135254D01*
X837897D01*
Y125084D01*
D02*
G37*
G36*
X907517Y134457D02*
Y94964D01*
X906619Y93309D01*
X895864D01*
X886208Y102964D01*
Y126208D01*
X896225Y136225D01*
X905748D01*
X907517Y134457D01*
D02*
G37*
G36*
X939000Y103679D02*
Y102250D01*
X939964D01*
Y92304D01*
X942649Y89619D01*
X970343D01*
X973883Y86079D01*
X973901D01*
Y76901D01*
X971749Y74749D01*
X933003D01*
Y86701D01*
X934271Y88178D01*
Y102250D01*
X935000D01*
Y104615D01*
X938064D01*
X939000Y103679D01*
D02*
G37*
G36*
X928643Y66340D02*
X927303Y65000D01*
X903054D01*
X901740Y66315D01*
X901717Y87101D01*
X902614Y88000D01*
X928570D01*
X928643Y66340D01*
D02*
G37*
G36*
X884411Y65784D02*
X882949Y64321D01*
X866323D01*
X864995Y65649D01*
Y79402D01*
X884411Y79402D01*
Y65784D01*
D02*
G37*
G36*
X844397Y112132D02*
Y105632D01*
X845345Y104482D01*
X855816D01*
Y97945D01*
X856615Y96941D01*
X863332Y96942D01*
X863674Y96874D01*
X865674D01*
X866017Y96943D01*
X869990Y96943D01*
X870299Y96882D01*
X873049D01*
X873359Y96943D01*
X887969Y96945D01*
X898000Y86914D01*
Y63558D01*
X899421Y62000D01*
X971000D01*
X972969Y60031D01*
X973229D01*
Y42229D01*
X968000Y37000D01*
X926858D01*
X925789Y37442D01*
X923800D01*
X922732Y37000D01*
X916149D01*
X903916Y48794D01*
X887293D01*
Y85941D01*
X841067D01*
X839952Y87527D01*
X839902Y112996D01*
X843495Y113027D01*
X844397Y112132D01*
D02*
G37*
G36*
X1102223Y181849D02*
X1091792Y171418D01*
X1084595Y171418D01*
X1084184Y171829D01*
X1084107Y172016D01*
X1082700Y173422D01*
X1082513Y173500D01*
X1082031Y173981D01*
X1082032Y184688D01*
X1089343Y192000D01*
X1102223D01*
Y181849D01*
D02*
G37*
G36*
X1013147Y167122D02*
X1013103Y162878D01*
X1013424Y162344D01*
X1021415D01*
X1021712Y162047D01*
Y121712D01*
X1016000Y116000D01*
X988295D01*
X985543Y118752D01*
X978534D01*
X978050Y119236D01*
Y124014D01*
X978490Y124453D01*
X985191D01*
X990201Y129462D01*
Y144690D01*
X988827Y146064D01*
X985599D01*
X985500Y146083D01*
X985401Y146064D01*
X983560D01*
X981292Y143795D01*
Y142380D01*
X981167Y141750D01*
Y138250D01*
X981292Y137620D01*
Y137414D01*
X979895Y136018D01*
X978050D01*
X976717Y137351D01*
Y137667D01*
X976833Y138250D01*
Y141750D01*
X976717Y142333D01*
Y144391D01*
X984327Y152001D01*
X999454D01*
X999978Y151385D01*
Y130873D01*
X1002061Y128790D01*
X1010862Y128771D01*
X1012185Y130622D01*
Y158380D01*
X1008960Y163157D01*
Y167091D01*
X1009238Y167369D01*
X1009362D01*
X1009633Y167315D01*
X1012383D01*
X1012654Y167369D01*
X1012900D01*
X1013147Y167122D01*
D02*
G37*
G36*
X1118377Y142570D02*
Y138709D01*
X1106597Y138709D01*
X1101052Y133191D01*
Y123262D01*
X1099880Y122089D01*
Y108868D01*
Y108254D01*
X1091925D01*
X1090886Y101786D01*
X1088278Y97628D01*
X1087980Y97330D01*
X1079991D01*
X1079220Y98101D01*
Y125469D01*
X1096348Y142597D01*
X1118377Y142570D01*
D02*
G37*
G36*
X1090550Y89985D02*
Y88102D01*
X1088848Y86400D01*
X1087630D01*
Y85182D01*
X1086851Y84403D01*
Y80509D01*
X1087630D01*
Y77600D01*
X1090668D01*
X1092497Y75771D01*
Y59285D01*
X1087759Y54548D01*
X1054594D01*
X1049077Y49031D01*
Y36180D01*
X1044787Y30353D01*
X1005636D01*
X999413Y36576D01*
Y73413D01*
X1017000Y91000D01*
X1067000Y91000D01*
X1072624Y85376D01*
X1081528D01*
X1088343Y92191D01*
X1090550Y89985D01*
D02*
G37*
G36*
X1117602Y68269D02*
X1100061Y50728D01*
Y35326D01*
X1094416Y29680D01*
X1056519D01*
X1051000Y35199D01*
Y35571D01*
X1051057Y35691D01*
X1051068Y35938D01*
X1051116Y36180D01*
Y46696D01*
X1056420Y52000D01*
X1090766Y52069D01*
X1095271Y56573D01*
Y75538D01*
X1096118Y76385D01*
X1101430D01*
X1102992Y77947D01*
Y90654D01*
X1098646Y95000D01*
X1095863D01*
X1095480Y94617D01*
X1095351Y94591D01*
X1094689Y94149D01*
X1094689Y94149D01*
X1093444Y92904D01*
X1092580Y92437D01*
X1091715Y92904D01*
X1090470Y94149D01*
X1090470Y94149D01*
X1090253Y94295D01*
X1090245Y94313D01*
Y95578D01*
X1090350Y95771D01*
X1090470Y95851D01*
X1090470Y95851D01*
X1092322Y97702D01*
X1092764Y98364D01*
X1092866Y98879D01*
X1094279Y100293D01*
X1094279Y101893D01*
X1095830Y101908D01*
X1100259Y101951D01*
X1104063Y106215D01*
Y132349D01*
X1104714Y133000D01*
X1117602D01*
Y68269D01*
D02*
G37*
G36*
X1166571Y98748D02*
X1166571Y78634D01*
X1152504D01*
X1150000Y81138D01*
Y95777D01*
X1153022Y98799D01*
X1166571Y98748D01*
D02*
G37*
G36*
X1197623Y99382D02*
Y94670D01*
X1197540Y94587D01*
X1202144Y89984D01*
X1202611D01*
Y86705D01*
Y73807D01*
X1199725Y70921D01*
X1178079D01*
X1173787Y75213D01*
Y86604D01*
X1173797Y86608D01*
X1181469D01*
X1183170Y88309D01*
Y96422D01*
X1186769Y100021D01*
X1196465D01*
X1197623Y99382D01*
D02*
G37*
G36*
X1164950Y138139D02*
Y118767D01*
X1153233D01*
X1152545Y119455D01*
Y137832D01*
X1154081Y139368D01*
X1163689Y139396D01*
X1164950Y138139D01*
D02*
G37*
G36*
X1178809Y125396D02*
X1184137Y120069D01*
X1185735D01*
X1185974Y120021D01*
X1193508D01*
Y114154D01*
X1183895D01*
X1181143Y116907D01*
X1177874D01*
Y117307D01*
X1170581D01*
X1169050Y118838D01*
Y131361D01*
X1169089Y131400D01*
X1172806D01*
X1178809Y125396D01*
D02*
G37*
G36*
G01X2632050Y1002490D02*
G01Y958490D01*
G01X2615050D01*
G01Y958490D01*
G02Y1002490I0J22000D01*
G01Y1002490D01*
G01X2632050D01*
D02*
G37*
G36*
G01Y134790D02*
G01Y90790D01*
G01X2615050D01*
G01Y90790D01*
G02Y134790I0J22000D01*
G01Y134790D01*
G01X2632050D01*
D02*
G37*
G36*
G01X1695030Y1115890D02*
G01X1739030D01*
G01Y1098890D01*
G01X1739030D01*
G02X1695030I-22000J0D01*
G01X1695030D01*
G01Y1115890D01*
D02*
G37*
G36*
G01X895030D02*
G01X939030D01*
G01Y1098890D01*
G01X939030D01*
G02X895030I-22000J0D01*
G01X895030D01*
G01Y1115890D01*
D02*
G37*
G36*
G01X1739030Y-23060D02*
G01X1695030D01*
G01Y-6060D01*
G01X1695030D01*
G02X1739030I22000J0D01*
G01X1739030D01*
G01Y-23060D01*
D02*
G37*
G36*
G01X939030D02*
G01X895030D01*
G01Y-6060D01*
G01X895030D01*
G02X939030I22000J0D01*
G01X939030D01*
G01Y-23060D01*
D02*
G37*
G36*
G01X2000Y958490D02*
G01Y1002490D01*
G01X19000D01*
G01Y1002490D01*
G02Y958490I0J-22000D01*
G01Y958490D01*
G01X2000D01*
D02*
G37*
G36*
G01Y97640D02*
G01Y141640D01*
G01X19000D01*
G01Y141640D01*
G02Y97640I0J-22000D01*
G01Y97640D01*
G01X2000D01*
D02*
G37*
D11*
X1474000Y161000D02*
X1512243D01*
X1462000Y144757D02*
X1475243Y158000D01*
X1511000D02*
X1531000Y138000D01*
X1512243Y161000D02*
X1532243Y141000D01*
X1459000Y146000D02*
X1474000Y161000D01*
X1475243Y158000D02*
X1511000D01*
X19000Y980490D02*
X73510D01*
X82000Y902000D02*
X89000Y895000D01*
X82000Y902000D02*
Y972000D01*
X73510Y980490D02*
X82000Y972000D01*
X89000Y885000D02*
Y895000D01*
X1249000Y177856D02*
Y222828D01*
X1250172Y224000D02*
X1269000D01*
X1249000Y222828D02*
X1250172Y224000D01*
X1245672Y174528D02*
X1249000Y177856D01*
X1135500Y129754D02*
Y136050D01*
Y129754D02*
X1136672Y128582D01*
X1145050D01*
X1130500Y127500D02*
Y136050D01*
Y127500D02*
X1132876Y125124D01*
X1145834D01*
X1107886Y148184D02*
Y154067D01*
X1114896Y161967D02*
X1116879Y163950D01*
X1107886Y161967D02*
X1114896D01*
X1107886Y170616D02*
X1108149Y170879D01*
X1107886Y161967D02*
Y170616D01*
X1098409Y148184D02*
X1108000D01*
Y143000D02*
Y148184D01*
X1115965Y156966D02*
X1116000Y157000D01*
X1115965Y148495D02*
Y156966D01*
X1100249Y160899D02*
Y170879D01*
X1093600Y154250D02*
X1100249Y160899D01*
X1092518Y154250D02*
X1093600D01*
X1116879Y163950D02*
X1125500D01*
X1108000Y143000D02*
X1110405Y140595D01*
X1115965D01*
X1117000Y137500D02*
Y140595D01*
X980268Y170000D02*
X987457D01*
X990538Y160634D02*
Y166919D01*
X987457Y170000D02*
X990538Y166919D01*
Y160634D02*
X992840Y158332D01*
X979096Y168828D02*
X980268Y170000D01*
X979096Y162096D02*
Y168828D01*
X1004355Y168418D02*
X1004457Y168315D01*
X995511Y168469D02*
X995562Y168418D01*
X1004355D01*
X979000Y162000D02*
X979096Y162096D01*
X1062578Y117000D02*
X1062582Y117004D01*
X1064479D01*
X1058222Y117000D02*
X1062578D01*
X960000Y44000D02*
X964763Y39237D01*
Y26769D02*
Y39237D01*
X1055000Y134000D02*
X1060754D01*
X1044000D02*
X1055000D01*
X1084530Y84950D02*
X1089330Y89750D01*
X929921Y105500D02*
X930000D01*
X929671Y105250D02*
X929921Y105500D01*
X929671Y92869D02*
Y105250D01*
X1028173Y112173D02*
X1034173D01*
X1035000Y113000D01*
X1028173Y112173D02*
X1028250Y112250D01*
X1027415Y112173D02*
X1028173D01*
X993000Y77757D02*
X1027415Y112173D01*
X1367751Y104772D02*
X1368944D01*
X1370235Y100765D02*
Y103482D01*
X1368944Y104772D02*
X1370235Y103482D01*
X1366906Y105617D02*
X1367751Y104772D01*
X1366906Y105617D02*
Y106937D01*
X989342Y14658D02*
X1234658D01*
X978000Y26000D02*
X989342Y14658D01*
X951591Y25463D02*
X965396Y11658D01*
X962911Y5658D02*
X1484901D01*
X949106Y19463D02*
X962911Y5658D01*
X950348Y22463D02*
X964153Y8658D01*
X1477487D01*
X1236658Y11658D02*
X1246127Y21127D01*
X1484901Y5658D02*
X1511290Y32047D01*
X1477487Y8658D02*
X1494000Y25172D01*
X1234658Y14658D02*
X1243000Y23000D01*
X965396Y11658D02*
X1236658D01*
X993454Y18546D02*
X1229546D01*
X1235000Y24000D01*
X987000Y25000D02*
X993454Y18546D01*
X1219172Y26622D02*
X1226000Y33450D01*
X996000Y30545D02*
X999923Y26622D01*
X1220414Y23622D02*
X1229000Y32207D01*
X998681Y23622D02*
X1220414D01*
X999923Y26622D02*
X1219172D01*
X993000Y29302D02*
X998681Y23622D01*
X987000Y25000D02*
Y80000D01*
X1000000Y93000D02*
Y101000D01*
X987000Y80000D02*
X1000000Y93000D01*
X1023471Y103986D02*
X1065319D01*
X993000Y29302D02*
Y77757D01*
X996000Y30545D02*
Y76515D01*
X990000Y111000D02*
X1000000Y101000D01*
X996000Y76515D02*
X1023471Y103986D01*
X1105000Y319000D02*
X1109000Y315000D01*
X1077280Y312280D02*
X1084000Y319000D01*
X1105000D01*
X1077280Y298788D02*
Y312280D01*
X1193249Y315000D02*
X1197957Y310293D01*
X1109000Y315000D02*
X1193249D01*
X1167000Y312000D02*
X1170287Y308713D01*
X1085931Y314688D02*
X1103312D01*
X1106000Y312000D02*
X1167000D01*
X1113587Y308587D02*
X1164828D01*
X1166000Y307416D01*
Y282000D02*
Y307416D01*
X1103312Y314688D02*
X1106000Y312000D01*
X1112377Y307377D02*
X1113587Y308587D01*
X1083000Y311757D02*
X1085931Y314688D01*
X1274000Y135000D02*
X1284000D01*
X1262045Y131080D02*
X1270080D01*
X1274000Y135000D01*
X978000Y79000D02*
X985469Y86469D01*
X979000Y104000D02*
X985469Y97531D01*
Y86469D02*
Y97531D01*
X958318Y104000D02*
X979000D01*
X981000Y111000D02*
X989000D01*
X990000D01*
X972934Y119066D02*
X981000Y111000D01*
X978000Y35000D02*
Y79000D01*
X972050Y121593D02*
Y129000D01*
X972034Y121593D02*
X972934Y120693D01*
Y119066D02*
Y120693D01*
X963952Y110997D02*
X971994D01*
X963950Y111000D02*
X963952Y110997D01*
X971994D02*
X971996Y110995D01*
X978000Y26000D02*
Y35000D01*
X1232625Y44374D02*
X1235000Y42000D01*
Y24000D02*
Y42000D01*
X1232625Y44374D02*
Y68375D01*
X1229670Y71330D02*
X1232625Y68375D01*
X1225670Y70330D02*
X1229000Y67000D01*
Y32207D02*
Y67000D01*
X1226000Y33450D02*
Y64658D01*
X1221670Y68988D02*
X1226000Y64658D01*
X1236000Y48000D02*
X1243000Y41000D01*
Y23000D02*
Y41000D01*
X1236000Y48000D02*
Y71000D01*
X1246127Y21127D02*
Y77218D01*
X963950Y98000D02*
X964033Y98083D01*
X972227D02*
X972310Y98166D01*
X964033Y98083D02*
X972227D01*
X815612Y55139D02*
Y94844D01*
Y55139D02*
X825652Y45099D01*
X834564D01*
X793698Y91302D02*
X797612Y87388D01*
Y60612D02*
Y87388D01*
X764728Y15000D02*
X806612Y56884D01*
X803612Y58127D02*
Y89873D01*
X800612Y59369D02*
Y88631D01*
X763485Y18000D02*
X803612Y58127D01*
X811698Y98758D02*
X815612Y94844D01*
X767213Y9000D02*
X812612Y54399D01*
X802698Y95030D02*
X806612Y91116D01*
Y56884D02*
Y91116D01*
X808698Y97515D02*
X812612Y93601D01*
X765971Y12000D02*
X809612Y55641D01*
X799698Y93788D02*
X803612Y89873D01*
X812612Y54399D02*
Y93601D01*
X796698Y92545D02*
X800612Y88631D01*
X763243Y22000D02*
X800612Y59369D01*
X809612Y55641D02*
Y92359D01*
X784765Y47765D02*
X797612Y60612D01*
X805698Y96273D02*
X809612Y92359D01*
X796698Y92545D02*
Y179212D01*
X793698Y91302D02*
Y180455D01*
X799698Y93788D02*
Y177970D01*
X811698Y98758D02*
Y172999D01*
X808698Y97515D02*
Y174242D01*
X802698Y95030D02*
Y176727D01*
X805698Y96273D02*
Y175485D01*
X790698Y106698D02*
Y181698D01*
X781290Y72300D02*
Y97290D01*
X790698Y106698D01*
X454000Y15000D02*
X764728D01*
X618451Y18000D02*
X763485D01*
X112000Y9000D02*
X767213D01*
X286858Y12000D02*
X765971D01*
X780765Y47765D02*
X784765D01*
X727000Y22000D02*
X763243D01*
X808698Y174242D02*
X812456Y178000D01*
X811698Y172999D02*
X813698Y175000D01*
X802698Y176727D02*
X809970Y184000D01*
X805698Y175485D02*
X811213Y181000D01*
X813698Y175000D02*
X845778D01*
X799698Y177970D02*
X808728Y187000D01*
X780000Y47000D02*
X780765Y47765D01*
X769000Y47000D02*
X780000D01*
X844537Y19463D02*
X949106D01*
X837382Y30353D02*
X837757Y29978D01*
Y26243D02*
X844537Y19463D01*
X837757Y26243D02*
Y29978D01*
X1027415Y159785D02*
Y168803D01*
Y112250D02*
Y159785D01*
X1553470Y243040D02*
Y300381D01*
X721000Y28000D02*
Y175000D01*
Y28000D02*
X727000Y22000D01*
X740000Y116000D02*
X763000Y93000D01*
Y53000D02*
X769000Y47000D01*
X763000Y53000D02*
Y93000D01*
X796698Y179212D02*
X807485Y190000D01*
X790698Y181698D02*
X810000Y201000D01*
X793698Y180455D02*
X806243Y193000D01*
X811213Y181000D02*
X1029087D01*
X808728Y187000D02*
X1026601D01*
X812456Y178000D02*
X1030329D01*
X807485Y190000D02*
X1025359D01*
X809970Y184000D02*
X1027844D01*
X810000Y201000D02*
Y220000D01*
X806243Y193000D02*
X1023991D01*
X845778Y175000D02*
X853000Y167778D01*
X863790Y253040D02*
X869370Y247460D01*
X862618Y255000D02*
X863790Y253828D01*
X801000Y255000D02*
X862618D01*
X870540Y243040D02*
Y247460D01*
Y301540D01*
X869370Y247460D02*
X870540D01*
X863790Y253040D02*
Y253828D01*
X810000Y220000D02*
X817000Y227000D01*
X972587D01*
X982293Y236707D01*
X1030329Y178000D02*
X1072556Y220226D01*
X1026601Y187000D02*
X1068000Y228399D01*
X1029087Y181000D02*
X1071313Y223227D01*
X1023991Y193000D02*
X1061830Y230839D01*
X1027844Y184000D02*
X1070071Y226227D01*
X1025359Y190000D02*
X1064830Y229471D01*
X1068000Y228399D02*
Y259074D01*
X1064830Y229471D02*
Y260147D01*
X1068000Y259074D02*
X1081926Y273000D01*
X1064830Y260147D02*
X1081683Y277000D01*
X1102879Y226227D02*
X1110000Y233348D01*
X1071313Y223227D02*
X1104121D01*
X1113074Y232179D01*
X1072556Y220226D02*
X1106042D01*
X1070071Y226227D02*
X1102879D01*
X1106042Y220226D02*
X1117000Y231184D01*
X1169269Y233893D02*
X1177162Y226000D01*
X1185781D02*
X1213670Y198111D01*
X1177162Y226000D02*
X1185781D01*
X1188000Y228023D02*
X1217670Y198354D01*
X1194957Y229552D02*
X1225670Y198839D01*
X1191957Y228310D02*
X1221670Y198596D01*
Y155455D02*
Y198596D01*
X1229670Y155455D02*
Y199081D01*
X1194957Y229552D02*
Y272965D01*
X1197957Y230795D02*
X1229670Y199081D01*
X1217670Y155455D02*
Y198354D01*
X1225670Y155455D02*
Y198839D01*
X1188000Y228023D02*
Y269000D01*
X1197957Y230795D02*
Y310293D01*
X1213670Y155455D02*
Y198111D01*
X1191957Y228310D02*
Y270043D01*
X1153053Y201419D02*
Y222162D01*
X1150053Y200177D02*
Y223405D01*
Y200177D02*
X1159617Y190613D01*
X1197154D01*
X1160860Y193613D02*
X1198397D01*
X1153053Y201419D02*
X1160860Y193613D01*
X1198397D02*
X1209670Y182339D01*
X1197154Y190613D02*
X1205671Y182096D01*
X1227075Y206914D02*
X1233670Y200319D01*
X1227075Y206914D02*
Y280703D01*
X1233670Y155455D02*
Y200319D01*
X1269000Y224000D02*
X1290317Y245317D01*
X1296652D01*
X1328137Y192000D02*
X1355000D01*
X1382000Y219000D02*
Y242310D01*
X1355000Y192000D02*
X1382000Y219000D01*
X1581000Y22000D02*
X1668757D01*
X1572000Y26757D02*
Y83409D01*
X1670000Y19000D02*
X1706368Y55368D01*
X1579757Y19000D02*
X1670000D01*
X1575381Y27619D02*
Y116376D01*
Y27619D02*
X1581000Y22000D01*
X1572000Y26757D02*
X1579757Y19000D01*
X1573000Y149834D02*
Y180757D01*
X1570000Y148592D02*
Y179515D01*
X1466500Y185500D02*
X1568257D01*
X1467743Y182500D02*
X1567015D01*
X1576000Y151077D02*
Y182000D01*
X1417500Y188500D02*
X1569500D01*
X1568257Y185500D02*
X1573000Y180757D01*
X1569500Y188500D02*
X1576000Y182000D01*
X1567015Y182500D02*
X1570000Y179515D01*
X1371000Y178000D02*
X1402757D01*
X1369423Y179578D02*
X1371000Y178000D01*
X1354400Y179578D02*
X1369423D01*
X1353228Y173939D02*
Y178406D01*
X1354400Y179578D01*
X1352591Y173301D02*
X1353228Y173939D01*
X1402757Y178000D02*
X1416257Y191500D01*
X1396000Y175000D02*
X1404000D01*
X1375790Y154790D02*
X1396000Y175000D01*
X1404000D02*
X1417500Y188500D01*
X1398756Y199002D02*
X1399000Y198758D01*
X1387766Y189202D02*
X1396798D01*
X1399000Y187000D01*
Y198758D01*
Y184578D02*
Y187000D01*
X1353763Y154790D02*
X1375790D01*
X1416257Y191500D02*
X1541499D01*
X1576000Y151077D02*
X1620000Y107077D01*
X1573000Y149834D02*
X1617000Y105834D01*
X1570000Y148592D02*
X1614000Y104592D01*
X1531000Y138000D02*
X1553757D01*
X1532243Y141000D02*
X1555000D01*
X1553757Y138000D02*
X1575381Y116376D01*
X1584825Y111175D02*
X1603174D01*
X1555000Y141000D02*
X1584825Y111175D01*
X1459000Y123515D02*
Y146000D01*
X1603174Y111175D02*
X1611000Y103349D01*
X1462000Y122272D02*
Y144757D01*
X1804250Y121336D02*
Y160750D01*
X1731960Y233040D02*
X1804250Y160750D01*
X1724200Y239790D02*
X1730950Y233040D01*
X1731960D01*
X1724200Y239790D02*
Y303200D01*
X1321000Y644000D02*
X1326581Y638419D01*
Y530419D02*
Y638419D01*
X1321000Y644000D02*
Y696000D01*
X1273652Y743349D02*
Y978652D01*
Y743349D02*
X1321000Y696000D01*
X2612550Y980490D02*
Y982990D01*
X1325000Y91000D02*
X1329000Y87000D01*
Y76907D02*
Y87000D01*
X1337305Y97802D02*
X1338476Y96630D01*
X1283198Y97802D02*
X1337305D01*
X1338476Y77348D02*
Y96630D01*
X1342198Y100802D02*
X1348000Y95000D01*
Y73292D02*
Y95000D01*
X1369476Y75000D02*
X1379000D01*
X1368476Y76000D02*
X1369476Y75000D01*
X1359000Y74095D02*
Y94000D01*
X1349198Y103802D02*
X1359000Y94000D01*
X851507Y131000D02*
X853165Y129342D01*
X842147Y132084D02*
X843231Y131000D01*
X851507D01*
X1161450Y283622D02*
X1162185Y282887D01*
Y279815D02*
Y282887D01*
Y279815D02*
X1168342Y273658D01*
X1183342D02*
X1188000Y269000D01*
X1168342Y273658D02*
X1183342D01*
X1171000Y277000D02*
X1185000D01*
X1191957Y270043D01*
X1166000Y282000D02*
X1171000Y277000D01*
X1172295Y280706D02*
X1187216D01*
X1194957Y272965D01*
X1171121Y281879D02*
Y284000D01*
Y281879D02*
X1172295Y280706D01*
X1170221Y284900D02*
X1171121Y284000D01*
X1170240Y284919D02*
Y293173D01*
X1170221Y284900D02*
X1170240Y284919D01*
Y293173D02*
X1170258Y293192D01*
X1083000Y288605D02*
Y311757D01*
X1170287Y295430D02*
Y308713D01*
X1092000Y308918D02*
Y309688D01*
X1089927Y306844D02*
X1092000Y308918D01*
X1089927Y295982D02*
Y306844D01*
X1185971Y287762D02*
Y293762D01*
X1183315Y285105D02*
X1185971Y287762D01*
X1169269Y233893D02*
Y263000D01*
X1163786Y264214D02*
X1168055D01*
X1169269Y263000D01*
X1161450Y266550D02*
X1163786Y264214D01*
X1161450Y266550D02*
Y271523D01*
X1170269Y295412D02*
X1170287Y295430D01*
X1081926Y273000D02*
X1112000D01*
X1128521Y289521D01*
X1143828D01*
X1145000Y284695D02*
X1146000Y283696D01*
X1143828Y289521D02*
X1145000Y288350D01*
Y284695D02*
Y288350D01*
X1096927Y279098D02*
Y295982D01*
X1094828Y277000D02*
X1096927Y279098D01*
X1081683Y277000D02*
X1094828D01*
X1112377Y295610D02*
Y307377D01*
X1077280Y286605D02*
X1081000D01*
X1083000Y288605D01*
X1299082Y90000D02*
X1301059Y91976D01*
X1309104D01*
X1277920Y103080D02*
X1283198Y97802D01*
X1278669Y111080D02*
X1285947Y103802D01*
X1284704Y100802D02*
X1342198D01*
X1285947Y103802D02*
X1349198D01*
X1278426Y107080D02*
X1284704Y100802D01*
X1298000Y90000D02*
X1299082D01*
X1288821Y74629D02*
X1298371D01*
X1310982Y62018D01*
X1393260D01*
X1293816Y83513D02*
X1312311Y65018D01*
X1392018D01*
X1288257Y83513D02*
X1293816D01*
X1304435Y53000D02*
X1396970D01*
X1302919Y51484D02*
X1304435Y53000D01*
X1396970D02*
X1464349Y120379D01*
X1302919Y26174D02*
Y51484D01*
X1303210Y56018D02*
X1395746D01*
X1293075Y45883D02*
X1303210Y56018D01*
X1289208Y45883D02*
X1293075D01*
X1279038Y44946D02*
X1288270D01*
X1289208Y45883D01*
X1288270Y53094D02*
X1295681D01*
X1301605Y59018D01*
X1394503D01*
X1392018Y65018D02*
X1453000Y126000D01*
X1393260Y62018D02*
X1456000Y124757D01*
X1299564Y22819D02*
X1302919Y26174D01*
X1394503Y59018D02*
X1459000Y123515D01*
X1395746Y56018D02*
X1462000Y122272D01*
X1281176Y75286D02*
X1288164D01*
X1288821Y74629D01*
X1288268Y22819D02*
X1299564D01*
X1282218D02*
X1288268D01*
X864547Y114011D02*
X865447Y114911D01*
X869895Y120950D02*
X881000D01*
X865447Y116502D02*
X869895Y120950D01*
X865447Y114911D02*
Y116502D01*
X1091425Y163376D02*
Y167035D01*
X1074329Y162205D02*
X1090253D01*
X1091425Y163376D01*
X1259681Y26319D02*
X1271318D01*
X1249352Y36648D02*
Y78394D01*
Y36648D02*
X1259681Y26319D01*
X1277220Y53000D02*
X1288176D01*
X1259000D02*
X1269320D01*
X1359007Y107437D02*
Y115506D01*
X1363500Y120000D01*
X1313000Y107000D02*
X1358569D01*
X1359007Y107437D01*
X1138614Y269869D02*
Y272957D01*
X1138498Y259000D02*
X1139003Y258495D01*
X1082925Y167209D02*
X1086971D01*
X1087159Y167020D01*
X1370235Y100765D02*
X1371000Y100000D01*
X1348265Y173301D02*
X1352591D01*
X1344573Y169608D02*
X1348265Y173301D01*
X1365155D02*
X1366326Y172129D01*
X1359591Y173301D02*
X1365155D01*
X1366326Y167362D02*
Y172129D01*
X853000Y148000D02*
Y167778D01*
X1061830Y230839D02*
Y286594D01*
X96000Y486000D02*
Y494898D01*
X98931Y497828D02*
Y498069D01*
X96000Y494898D02*
X98931Y497828D01*
X1298502Y262766D02*
Y267133D01*
X1301500Y270131D01*
Y284500D01*
X1320552Y245817D02*
Y253816D01*
Y230552D02*
Y245817D01*
Y253816D02*
Y261816D01*
X1288000Y227000D02*
X1317000D01*
X1320552Y230552D01*
X1284836Y183810D02*
Y223836D01*
X1288000Y227000D01*
X1297552Y246217D02*
Y246317D01*
X1296652Y245317D02*
X1297552Y246217D01*
X1278000Y211000D02*
Y223000D01*
X1298502Y254866D02*
X1307502D01*
X1297552Y246317D02*
X1298502Y247267D01*
Y254866D01*
X1307600Y262766D02*
X1308500Y263666D01*
Y275750D01*
X1307502Y262766D02*
X1307600D01*
X1328227Y262041D02*
Y275198D01*
X1328002Y275423D02*
X1328227Y275198D01*
Y262041D02*
X1328452Y261816D01*
X1360000Y290000D02*
X1402000Y332000D01*
Y409000D01*
X1334409Y290000D02*
X1360000D01*
X1328713Y276135D02*
Y284305D01*
X1334409Y290000D01*
X1328002Y275423D02*
X1328713Y276135D01*
X1353610Y297610D02*
X1362000Y306000D01*
X1314610Y297610D02*
X1353610D01*
X1301500Y284500D02*
X1314610Y297610D01*
X1308500Y282250D02*
X1310964Y284714D01*
X1313931D02*
X1314696Y285480D01*
X1315461Y284714D02*
X1319408D01*
X1321002Y283120D01*
X1308500Y275750D02*
Y282250D01*
X1310964Y284714D02*
X1313931D01*
X1314696Y285480D02*
X1315461Y284714D01*
X1321002Y275423D02*
Y283120D01*
X1305452Y245817D02*
X1305630Y245638D01*
X1309180D02*
X1312036Y242782D01*
Y234964D02*
Y242782D01*
X1305630Y245638D02*
X1309180D01*
X1268918Y184000D02*
X1270000D01*
X1267339Y182421D02*
X1268918Y184000D01*
X1263539Y182421D02*
X1267339D01*
X1262950Y180000D02*
Y188000D01*
X1255379Y206052D02*
X1255891Y206564D01*
Y215872D01*
X1256379Y216360D01*
X1262403Y205414D02*
X1272414D01*
X1278000Y211000D01*
X1262678Y196175D02*
Y205139D01*
X1262403Y205414D02*
X1262678Y205139D01*
Y196175D02*
X1262952Y195900D01*
X1249670Y170445D02*
X1254997Y175772D01*
X1254925Y188000D02*
Y195875D01*
X1249670Y155455D02*
Y170445D01*
X1254997Y175772D02*
Y179947D01*
X1254925Y180125D02*
Y188000D01*
X1254997Y179947D02*
X1255050Y180000D01*
X1245672Y155458D02*
Y174528D01*
X1253670Y164465D02*
X1264374Y175170D01*
X1277936D02*
X1284878Y182111D01*
X1264374Y175170D02*
X1277936D01*
X1253670Y155455D02*
Y164465D01*
X1284836Y183810D02*
X1284878Y183768D01*
Y182111D02*
Y183768D01*
X1276519Y170901D02*
X1277691Y172072D01*
X1276519Y163818D02*
Y170901D01*
X1277691Y172072D02*
X1285176D01*
X1285941Y172838D01*
X1241670Y174815D02*
X1245226Y178371D01*
X1224050Y321496D02*
Y338881D01*
X1237085Y220915D02*
X1245226Y212774D01*
Y178371D02*
Y212774D01*
X1241670Y160828D02*
Y174815D01*
Y155455D02*
Y160828D01*
X1237905Y179971D02*
X1238670Y180737D01*
X1238087Y180875D02*
Y188101D01*
X1238113Y197014D02*
X1238226Y196901D01*
X1238113Y197014D02*
Y205887D01*
X1238000Y206000D02*
X1238113Y205887D01*
X1243000Y323000D02*
Y332013D01*
X1243547Y332560D01*
X1231950Y321496D02*
Y325873D01*
X1240127D02*
X1243000Y323000D01*
X1231950Y325873D02*
X1240127D01*
X1231950D02*
Y330250D01*
X1243000Y315000D02*
Y323000D01*
X1247900Y290099D02*
X1259357Y301556D01*
X1247900Y281926D02*
Y290099D01*
X1259357Y301556D02*
Y309143D01*
X1220851Y303149D02*
X1227041D01*
X1219000Y305000D02*
Y315000D01*
Y305000D02*
X1220851Y303149D01*
X1224050Y321496D02*
X1224359Y321187D01*
Y317267D02*
X1237085Y304541D01*
Y220915D02*
Y304541D01*
X1224359Y317267D02*
Y321187D01*
X1227041Y296149D02*
X1227075Y296115D01*
Y288603D02*
Y296115D01*
X1212000Y240250D02*
Y243040D01*
X1217129Y296149D02*
X1227041D01*
X1212000Y240250D02*
X1218750Y233500D01*
X1212000Y291020D02*
Y339000D01*
Y243040D02*
Y291020D01*
X1217129Y296149D01*
X1278217Y339560D02*
X1291657Y353000D01*
X1307323D01*
X1243547Y339560D02*
X1278217D01*
X1307323Y353000D02*
X1321000Y366677D01*
Y569000D01*
X1279000Y355000D02*
X1292000Y368000D01*
X1228000Y355000D02*
X1279000D01*
X1212000Y339000D02*
X1228000Y355000D01*
X1237670Y155455D02*
Y177565D01*
X1237905Y177799D02*
Y179971D01*
X1237670Y177565D02*
X1237905Y177799D01*
X1242235Y314235D02*
X1243000Y315000D01*
X1205671Y166484D02*
Y182096D01*
X1209670Y155455D02*
Y182339D01*
X1153053Y222162D02*
X1165350Y234459D01*
X1150053Y223405D02*
X1161450Y234802D01*
Y246888D01*
X1165350Y234459D02*
Y255245D01*
X1200000Y176918D02*
X1201820Y175098D01*
Y169761D02*
Y175098D01*
X1200000Y176918D02*
Y178000D01*
X1201771Y169713D02*
X1201820Y169761D01*
X1205670Y166483D02*
X1205671Y166484D01*
X1205670Y155455D02*
Y166483D01*
X1161450Y259145D02*
Y259645D01*
Y259145D02*
X1165350Y255245D01*
X1117000Y231184D02*
Y236806D01*
X1119740Y239545D02*
X1143873D01*
X1117000Y236806D02*
X1119740Y239545D01*
X1113074Y232179D02*
Y244074D01*
X1110000Y233348D02*
Y252000D01*
X1113074Y244074D02*
X1122594Y253594D01*
X1110000Y252000D02*
X1123983Y265983D01*
X1143873Y239545D02*
X1146000Y241672D01*
Y247316D01*
X1147500D02*
X1152678D01*
X1132000Y259000D02*
X1138498D01*
X1132576Y275091D02*
X1134095Y273571D01*
X1132000Y279000D02*
X1132576Y278424D01*
X1134095Y273571D02*
X1138000D01*
X1132576Y275091D02*
Y278424D01*
X1134000Y283696D02*
X1139000D01*
X1132000Y279000D02*
X1132765Y279765D01*
Y282461D01*
X1134000Y283696D01*
X1141724Y253594D02*
X1146000Y257870D01*
X1122594Y253594D02*
X1141724D01*
X1146000Y257870D02*
Y259370D01*
Y271483D02*
X1153641D01*
X1123983Y265983D02*
X1142000D01*
X1146000Y269983D01*
Y271483D01*
X1146073Y283622D02*
X1153550D01*
X1138000Y273571D02*
X1138614Y272957D01*
X1178443Y293477D02*
X1185686D01*
X1178121Y285105D02*
X1183315D01*
X984184Y234816D02*
X991839Y227161D01*
X1029161D02*
X1034520Y232520D01*
X991839Y227161D02*
X1029161D01*
X1046390Y270692D02*
X1050000Y267082D01*
Y266000D02*
Y267082D01*
X1046390Y270692D02*
Y283144D01*
X1041270Y243040D02*
Y305880D01*
X1044930Y309540D01*
X1046390Y283144D02*
Y295610D01*
X1049840Y286594D02*
X1054830D01*
X1046390Y283144D02*
X1049840Y286594D01*
X1046390Y295610D02*
X1049563Y298783D01*
X1054830D01*
X1044930Y309540D02*
X1060659D01*
X1061830Y298783D02*
Y308368D01*
X1060659Y309540D02*
X1061830Y308368D01*
Y298783D02*
X1061835Y298788D01*
X1069380D01*
X982293Y243293D02*
X1020000Y281000D01*
Y313000D01*
X1055233Y348233D01*
X1087233D01*
X1121270Y382270D01*
X1061841Y286605D02*
X1069380D01*
X1061830Y286594D02*
X1061841Y286605D01*
X1152678Y247316D02*
X1153700Y246294D01*
X1154200D01*
X1299955Y163818D02*
X1328137Y192000D01*
X1382000Y242310D02*
X1382730Y243040D01*
X1415000Y216745D02*
Y288689D01*
X1404256Y206002D02*
X1415000Y216745D01*
Y288689D02*
X1426000Y299689D01*
Y324000D01*
X1481000Y379000D01*
X1398756Y206002D02*
X1404256D01*
X1398506Y205752D02*
X1398756Y206002D01*
X1387956Y205752D02*
X1398506D01*
X1387706Y205502D02*
X1387956Y205752D01*
X1379790Y189202D02*
Y197502D01*
X1379806D02*
Y205502D01*
X1379665Y189000D02*
X1379866Y189202D01*
X1286868Y146317D02*
X1329551Y189000D01*
X1379665D01*
X1359591Y161365D02*
X1365365D01*
X1366602Y162602D01*
Y166919D02*
X1366685Y167003D01*
X1366602Y162602D02*
Y166919D01*
X1366326Y167362D02*
X1366685Y167003D01*
X1352591Y155962D02*
Y161365D01*
Y155962D02*
X1353763Y154790D01*
X1344573Y169109D02*
Y169608D01*
X1352335Y161108D02*
X1352591Y161365D01*
X1344573Y161108D02*
X1352335D01*
X1288111Y143317D02*
X1313902Y169109D01*
X1336673D01*
X1310037Y161000D02*
X1336564D01*
X1289354Y140317D02*
X1310037Y161000D01*
X1362617Y142883D02*
X1363500Y142000D01*
X1362500Y141000D02*
X1363500Y142000D01*
X1283519Y163818D02*
X1299955D01*
X1283735Y154215D02*
Y163603D01*
Y154215D02*
X1283950Y154000D01*
X1283519Y163818D02*
X1283735Y163603D01*
X1140750Y136300D02*
Y142817D01*
X1146492Y148559D02*
X1175004D01*
X1140750Y142817D02*
X1146492Y148559D01*
X1149436Y139700D02*
X1152267Y142531D01*
X1145834Y125124D02*
X1149436Y128726D01*
Y139700D01*
X1140500Y136050D02*
X1140750Y136300D01*
X1146222Y129754D02*
Y141623D01*
X1150158Y145559D01*
X1145050Y128582D02*
X1146222Y129754D01*
X1152267Y142531D02*
X1172547D01*
X1125500Y163950D02*
Y176051D01*
X1128287Y178838D01*
X1158162D01*
X1130500Y163950D02*
Y174666D01*
X1131672Y175838D02*
X1156609D01*
X1130500Y174666D02*
X1131672Y175838D01*
X1158162Y178838D02*
X1189920Y147080D01*
X1135500Y171304D02*
X1137034Y172838D01*
X1154968D01*
X1135500Y163950D02*
Y171304D01*
X1154968Y172838D02*
X1188726Y139080D01*
X1156609Y175838D02*
X1189367Y143080D01*
X1276031Y153982D02*
X1276050Y154000D01*
X1276031D02*
X1276050D01*
X1272322Y153982D02*
X1276031D01*
X1265420Y147080D02*
X1272322Y153982D01*
X1274961Y120810D02*
X1280232D01*
X1273232Y119080D02*
X1274961Y120810D01*
X1268655Y135080D02*
X1273892Y140317D01*
X1272649Y143317D02*
X1288111D01*
X1267356Y143080D02*
X1270593Y146317D01*
X1268412Y139080D02*
X1272649Y143317D01*
X1270593Y146317D02*
X1286868D01*
X1273892Y140317D02*
X1289354D01*
X1262045Y139080D02*
X1268412D01*
X1262045Y135080D02*
X1268655D01*
X1262045Y147080D02*
X1265420D01*
X1262045Y143080D02*
X1267356D01*
X1326500Y142000D02*
X1328000D01*
X1275341Y126008D02*
X1303264D01*
X1270998Y127080D02*
X1273186Y129268D01*
X1272413Y123080D02*
X1275341Y126008D01*
X1273186Y129268D02*
X1292268D01*
X1262045Y127080D02*
X1270998D01*
X1311164Y108836D02*
X1313000Y107000D01*
X1311164Y108836D02*
Y126008D01*
X1311000Y144050D02*
X1324450D01*
X1326500Y142000D01*
X1292268Y129268D02*
X1306771Y143771D01*
X1310721D02*
X1311000Y144050D01*
X1306771Y143771D02*
X1310721D01*
X1280232Y120810D02*
X1280636Y120405D01*
X1296674Y119276D02*
X1299678D01*
X1303526Y115429D01*
X1295950Y120000D02*
X1296674Y119276D01*
X1295950Y112000D02*
X1296171Y112221D01*
X1299678D02*
X1302443Y114986D01*
X1296171Y112221D02*
X1299678D01*
X1303526Y114986D02*
Y115429D01*
X1280636Y120405D02*
X1287645D01*
X1288050Y120000D01*
X1262045Y119080D02*
X1273232D01*
X1280920Y115080D02*
X1282600Y113400D01*
X1262045Y115080D02*
X1280920D01*
X1282600Y113400D02*
X1287150D01*
X1288050Y112500D01*
Y112000D02*
Y112500D01*
X1262045Y123080D02*
X1272413D01*
X1350000Y141000D02*
X1362500D01*
X1326500Y120000D02*
X1327500Y121000D01*
X1345000D01*
X1311000Y151950D02*
X1318565D01*
X1322615Y156000D02*
X1323000D01*
X1318565Y151950D02*
X1322615Y156000D01*
X1255083Y115083D02*
X1262045D01*
Y111080D02*
X1278669D01*
X1262045Y107080D02*
X1278426D01*
X1262045Y103080D02*
X1277920D01*
X1288224Y64000D02*
Y68226D01*
Y64000D02*
Y64000D01*
X1288270D01*
X1276610D02*
X1288224D01*
X1066000Y123000D02*
X1066009Y123009D01*
X1065650Y122650D02*
X1066000Y123000D01*
X1288513Y90256D02*
X1297744D01*
X1298000Y90000D01*
X1288257Y90513D02*
X1288513Y90256D01*
X1278765Y83362D02*
X1288107D01*
X1288257Y83513D01*
X1278614Y83212D02*
X1278765Y83362D01*
X1278159Y91567D02*
Y94840D01*
X1273920Y99080D02*
X1278159Y94840D01*
Y91567D02*
X1278614Y91112D01*
X1262045Y99080D02*
X1273920D01*
X1270420Y71835D02*
X1271205D01*
X1262045Y73955D02*
X1264165Y71835D01*
X1270420D01*
X1262045Y73955D02*
Y95080D01*
X1270420Y71835D02*
X1270420Y71835D01*
X1279105D02*
X1280005Y72735D01*
Y74115D01*
X1281176Y75286D01*
X1288270Y60094D02*
Y64000D01*
X1288270Y64000D02*
X1288270Y64000D01*
X1253670Y83330D02*
X1256000Y81000D01*
X1253670Y83330D02*
Y86705D01*
X1256000Y56000D02*
Y81000D01*
Y56000D02*
X1259000Y53000D01*
X1288268Y33819D02*
Y37944D01*
Y29819D02*
Y33819D01*
X1276753D02*
X1288268D01*
X1276611Y33676D02*
X1276753Y33819D01*
X1255998Y45002D02*
X1269320D01*
X1252352Y48648D02*
X1255998Y45002D01*
X1252352Y48648D02*
Y79637D01*
X1279218Y25819D02*
X1282218Y22819D01*
X1279218Y25819D02*
Y26319D01*
X1249670Y82319D02*
Y86705D01*
Y82319D02*
X1252352Y79637D01*
X1241000Y75000D02*
Y75000D01*
X1241670Y81675D02*
Y86705D01*
X1245670Y82077D02*
X1249352Y78394D01*
X1245670Y82077D02*
Y86705D01*
X1237670Y78330D02*
X1241000Y75000D01*
X1241670Y81675D02*
X1246127Y77218D01*
X1237670Y78330D02*
Y83332D01*
X1241000Y68950D02*
Y75000D01*
Y52000D02*
Y61050D01*
X1502000Y13000D02*
X1503082D01*
X1505082Y15000D02*
X1510050D01*
X1503082Y13000D02*
X1505082Y15000D01*
X1517950Y14900D02*
X1518850Y14000D01*
X1696970D01*
X1517950Y14900D02*
Y15000D01*
X1186389Y160932D02*
Y166945D01*
X1189156Y169713D02*
X1193871D01*
X1186389Y166945D02*
X1189156Y169713D01*
X1201670Y155455D02*
Y169611D01*
X1059500Y146213D02*
Y162248D01*
X1060672Y163419D02*
X1063087D01*
X1059500Y162248D02*
X1060672Y163419D01*
X1063087D02*
X1063987Y164319D01*
Y164646D01*
X1065134Y104363D02*
Y111816D01*
X1064479Y117004D02*
X1065650Y118175D01*
Y122650D01*
X1057050Y112000D02*
Y115828D01*
X1058222Y117000D01*
X1066009Y123009D02*
Y128166D01*
X1073340Y135497D01*
X1077348D02*
X1077587Y135735D01*
X1073340Y135497D02*
X1077348D01*
X982293Y236707D02*
X984184Y234816D01*
X982293Y236707D02*
Y243293D01*
X1034520Y236290D02*
X1041270Y243040D01*
X1189367Y143080D02*
X1189920D01*
X1188726Y139080D02*
X1193295D01*
X1189920Y143080D02*
X1189920Y143080D01*
X1172547Y142531D02*
X1187998Y127080D01*
X1175004Y148559D02*
X1188483Y135080D01*
X1188241Y131080D02*
X1193295D01*
X1173762Y145559D02*
X1188241Y131080D01*
X1187998Y127080D02*
X1193295D01*
X1188483Y135080D02*
X1193295D01*
X1117000Y137500D02*
X1118450Y136050D01*
X1125500D01*
X1140500Y163950D02*
X1145128D01*
X1147150Y161929D02*
X1148232D01*
X1145128Y163950D02*
X1147150Y161929D01*
X1150158Y145559D02*
X1173762D01*
X1073287Y163246D02*
X1074329Y162205D01*
X1072787Y163246D02*
X1073287D01*
X997083Y157867D02*
X1004133D01*
X1007000Y134000D02*
Y155000D01*
X1004133Y157867D02*
X1007000Y155000D01*
X996618Y158332D02*
X997000Y157950D01*
X997083Y157867D01*
X956050Y106268D02*
X958318Y104000D01*
X1011008Y170617D02*
X1017444D01*
X1017858Y170203D02*
X1018615D01*
X1019516Y168803D02*
Y169303D01*
X1017444Y170617D02*
X1017858Y170203D01*
X1018615D02*
X1019516Y169303D01*
X814619Y42099D02*
X833321D01*
X852957Y22463D02*
X950348D01*
X833321Y42099D02*
X852957Y22463D01*
X834564Y45099D02*
X854200Y25463D01*
X951591D01*
X885851Y144129D02*
Y164891D01*
X889313Y168353D02*
X915382D01*
X885851Y164891D02*
X889313Y168353D01*
X877252Y140501D02*
X882223D01*
X881000Y120950D02*
Y136753D01*
X877252Y140501D02*
X881000Y136753D01*
X860499Y140501D02*
X877252D01*
X882223D02*
X885851Y144129D01*
X830317Y143737D02*
Y147683D01*
X824273Y153727D02*
X830317Y147683D01*
X818273Y153727D02*
X824273D01*
X818000Y154000D02*
X818273Y153727D01*
X830317Y143737D02*
X830721Y143334D01*
X853000Y148000D02*
X860499Y140501D01*
X828000Y157000D02*
X830000Y155000D01*
X836000D01*
X828000Y157000D02*
Y163000D01*
X857578Y110222D02*
X859622Y108178D01*
Y103635D02*
Y108178D01*
X853580Y110222D02*
X857578D01*
X853351Y110450D02*
X853580Y110222D01*
X859622Y103635D02*
X860824Y102433D01*
X864674D01*
X853165Y125801D02*
X853352Y125613D01*
X853165Y125801D02*
Y129342D01*
X853351Y110450D02*
Y117712D01*
X877969Y100183D02*
X880142Y102356D01*
X871674Y100183D02*
X877969D01*
X871947Y104683D02*
X872197Y104933D01*
Y111761D02*
X872447Y112011D01*
X872197Y104933D02*
Y111761D01*
X871674Y104683D02*
X871947D01*
X881112Y102469D02*
Y112938D01*
X881000Y113050D02*
X881112Y112938D01*
X902365Y31942D02*
X908845D01*
X899476Y33749D02*
X900558D01*
X902365Y31942D01*
X924250Y31750D02*
X924500Y32000D01*
X916450Y31500D02*
X916700Y31750D01*
X916995Y32192D02*
X924545D01*
X1157374Y71626D02*
X1158000Y71000D01*
X1157374Y71626D02*
Y77942D01*
X1153577Y81740D02*
Y82630D01*
Y81740D02*
X1157374Y77942D01*
X1193295Y103083D02*
X1201917D01*
X1176887Y94771D02*
Y95621D01*
X1184346Y103080D01*
X1193295D01*
X1174007Y104848D02*
Y105348D01*
X1174906Y106248D01*
X1175406D02*
X1176238Y107080D01*
X1174906Y106248D02*
X1175406D01*
X1176238Y107080D02*
X1185677D01*
X1173974Y112407D02*
Y112907D01*
Y112407D02*
X1174874Y111507D01*
X1175374D02*
X1175800Y111080D01*
X1174874Y111507D02*
X1175374D01*
X1184020Y111080D02*
X1193295D01*
X1175800Y111080D02*
X1184020D01*
X1184020Y111080D01*
X1185974Y123080D02*
X1193295D01*
X1171850Y135600D02*
X1173454D01*
X1185974Y123080D01*
X1170950Y136500D02*
Y137000D01*
Y136500D02*
X1171850Y135600D01*
X1189920Y147080D02*
X1193295D01*
X1185677Y107080D02*
X1185677Y107080D01*
X1193295D01*
X1183932Y82849D02*
X1186000Y84918D01*
X1179903Y67643D02*
X1183932Y71672D01*
X1186000Y84918D02*
Y86000D01*
X1183932Y71672D02*
Y82849D01*
X1178460Y66201D02*
X1178712D01*
X1179903Y67391D02*
Y67643D01*
X1178712Y66201D02*
X1179903Y67391D01*
X1201917Y103083D02*
X1202000Y103000D01*
X767000Y139000D02*
Y147000D01*
X773479Y132521D02*
X781995D01*
X767000Y139000D02*
X773479Y132521D01*
X1187932Y64899D02*
X1192553D01*
X1193295Y115080D02*
Y119081D01*
X1192553Y59332D02*
Y64899D01*
X1196932D01*
X1163668Y54332D02*
X1199332D01*
X1205670Y60670D01*
X1158000Y60000D02*
X1163668Y54332D01*
X1233670Y73330D02*
X1236000Y71000D01*
X1233670Y73330D02*
Y86705D01*
X1229670Y71330D02*
Y86705D01*
X1225670Y70330D02*
Y86705D01*
X1221670Y68988D02*
Y86705D01*
X1217670Y64818D02*
X1220000Y62488D01*
Y61000D02*
Y62488D01*
X1217670Y64818D02*
Y86705D01*
X1217826Y50030D02*
X1218879Y48978D01*
X1213670Y56795D02*
X1217826Y52639D01*
X1213670Y56795D02*
Y86705D01*
X1217826Y50030D02*
Y52639D01*
X1205670Y60670D02*
Y86705D01*
X1208000Y51000D02*
Y52488D01*
X1209670Y54158D01*
Y83330D02*
X1209670Y83330D01*
X1209670Y54158D02*
Y83330D01*
X1209670Y83330D02*
Y86705D01*
X1089330Y108080D02*
X1094750Y113500D01*
X1089330Y100493D02*
Y108080D01*
X1094750Y113500D02*
Y115000D01*
X1095550Y115800D01*
X1683515Y41000D02*
X1703883Y61368D01*
X1782117D02*
X1793046Y50439D01*
X1779632Y55368D02*
X1787046Y47954D01*
X1783360Y64368D02*
X1796046Y51682D01*
X1682272Y44000D02*
X1702640Y64368D01*
X1705126Y58368D02*
X1780874D01*
X1668757Y22000D02*
X1705126Y58368D01*
X1702640Y64368D02*
X1783360D01*
X1703883Y61368D02*
X1782117D01*
X1706368Y55368D02*
X1779632D01*
X1780874Y58368D02*
X1790046Y49197D01*
Y25197D02*
Y49197D01*
X1783000Y68970D02*
Y86000D01*
X1787046Y23954D02*
Y47954D01*
X1799046Y28925D02*
Y52925D01*
X1783000Y68970D02*
X1799046Y52925D01*
X1796046Y27682D02*
Y51682D01*
X1793046Y26439D02*
Y50439D01*
X1193297Y115083D02*
X1196672D01*
X1193297Y119083D02*
X1196672D01*
X1097299Y295610D02*
X1104477D01*
X1146275Y259645D02*
X1153550D01*
X1146000Y259370D02*
X1146275Y259645D01*
X1387736Y189232D02*
X1387766Y189202D01*
X1387736Y189232D02*
Y197472D01*
X1387706Y197502D02*
X1387736Y197472D01*
X1453000Y172000D02*
X1466500Y185500D01*
X1541499Y191500D02*
X1553470Y203471D01*
X1456000Y170757D02*
X1467743Y182500D01*
X1337175Y250727D02*
X1338258D01*
X1329352Y252416D02*
X1335486D01*
X1337175Y250727D01*
X1329352Y247217D02*
X1335086D01*
X1338258Y250388D01*
Y250727D01*
X1328452Y246317D02*
X1329352Y247217D01*
X1328452Y245817D02*
Y246317D01*
X1307502Y262766D02*
X1307752Y263016D01*
X1138656Y247660D02*
X1139000Y247316D01*
X1132001Y247660D02*
X1138656D01*
X870540Y584500D02*
Y677460D01*
Y581250D02*
Y584500D01*
X802873Y30353D02*
X814619Y42099D01*
X1262950Y180000D02*
X1263386Y180436D01*
X1232574Y339505D02*
X1240546D01*
X1231950Y338881D02*
X1232574Y339505D01*
X1036318Y168710D02*
X1040446Y172838D01*
X1036009Y156436D02*
X1036428Y156854D01*
X1040446Y172838D02*
X1064019D01*
X721000Y175000D02*
X801000Y255000D01*
X1456000Y124757D02*
Y170757D01*
X1453000Y126000D02*
Y172000D01*
X1553470Y203471D02*
X1599220D01*
X1633520Y169170D01*
X1553470Y203471D02*
Y243040D01*
X699800Y212965D02*
Y243040D01*
X609070Y72300D02*
Y122235D01*
X699800Y212965D01*
X2065670Y239790D02*
X2087000Y218460D01*
Y134270D02*
X2145720Y75550D01*
X2087000Y134270D02*
Y218460D01*
X1802315Y8685D02*
X2502336D01*
X2525000Y31350D02*
Y399000D01*
X2502336Y8685D02*
X2525000Y31350D01*
X2487180Y36342D02*
Y72300D01*
X1803557Y11685D02*
X2462523D01*
X2487180Y36342D01*
X1806043Y17685D02*
X2136868D01*
X1804800Y14685D02*
X2302693D01*
X1799046Y28925D02*
X1807285Y20685D01*
X2136868Y17685D02*
X2145720Y26537D01*
X1796046Y27682D02*
X1806043Y17685D01*
X1960374Y20685D02*
X1974990Y35301D01*
X1793046Y26439D02*
X1804800Y14685D01*
X1807285Y20685D02*
X1960374D01*
X2302693Y14685D02*
X2316450Y28442D01*
X1787046Y23954D02*
X1802315Y8685D01*
X1790046Y25197D02*
X1803557Y11685D01*
X1535031Y120379D02*
X1572000Y83409D01*
X1464349Y120379D02*
X1535031D01*
X1533000Y98172D02*
Y113705D01*
X1775000Y94000D02*
X1783000Y86000D01*
X1671000Y94000D02*
X1775000D01*
X1669873Y97116D02*
X1780030D01*
X1662000Y49929D02*
Y85000D01*
X1671000Y94000D01*
X1659000Y86243D02*
X1669873Y97116D01*
X1659000Y51172D02*
Y86243D01*
X1659071Y47000D02*
X1662000Y49929D01*
X1657828Y50000D02*
X1659000Y51172D01*
X1621172Y50000D02*
X1657828D01*
X1617000Y49929D02*
X1619929Y47000D01*
X1659071D01*
X1617444Y41000D02*
X1683515D01*
X1618686Y44000D02*
X1682272D01*
X1620000Y51172D02*
Y107077D01*
Y51172D02*
X1621172Y50000D01*
X1780030Y97116D02*
X1804250Y121336D01*
X1611000Y47444D02*
X1617444Y41000D01*
X1614000Y48686D02*
X1618686Y44000D01*
X438340Y30660D02*
X454000Y15000D01*
X609070Y27381D02*
X618451Y18000D01*
X96870Y24130D02*
X112000Y9000D01*
X267600Y31258D02*
X286858Y12000D01*
X1287000Y603000D02*
X1321000Y569000D01*
X2064951Y243759D02*
Y315951D01*
Y243759D02*
X2065670Y243040D01*
X2075541Y326541D02*
X2100848D01*
X2064951Y315951D02*
X2075541Y326541D01*
X2100848D02*
X2145670Y371363D01*
X1326581Y530419D02*
X1362000Y495000D01*
X1274340Y431430D02*
X1292000Y413770D01*
X1235625Y574500D02*
X1274340Y535785D01*
Y431430D02*
Y535785D01*
X1292000Y368000D02*
Y413770D01*
X877290Y574500D02*
X878500D01*
X950540Y413770D02*
Y502460D01*
X870540Y581250D02*
X877290Y574500D01*
X878500D02*
X950540Y502460D01*
X699800Y581754D02*
X706550Y575004D01*
X709296D02*
X779800Y504500D01*
X706550Y575004D02*
X709296D01*
X779800Y413770D02*
Y504500D01*
X699800Y581754D02*
Y675770D01*
X609070Y413770D02*
Y507900D01*
X529070Y584500D02*
X535248Y578322D01*
X538648D02*
X609070Y507900D01*
X535248Y578322D02*
X538648D01*
X609070Y384070D02*
Y413770D01*
X529070Y584500D02*
Y677930D01*
X358340Y584500D02*
X360758Y582082D01*
X367918D02*
X438340Y511660D01*
Y413770D02*
Y511660D01*
X360758Y582082D02*
X367918D01*
X358340Y584500D02*
Y672660D01*
X1975150Y754800D02*
X1975439Y754511D01*
Y741030D02*
X2011705Y704763D01*
X2037237D01*
X1975439Y741030D02*
Y754511D01*
X1975150Y754800D02*
Y965530D01*
X2037237Y704763D02*
X2065720Y676280D01*
X2469487Y867487D02*
X2487180Y885180D01*
X2469487Y692897D02*
X2487180Y675204D01*
X2469487Y692897D02*
Y867487D01*
X2487180Y885180D02*
Y965530D01*
X1037000Y85076D02*
Y95500D01*
X1071950Y156503D02*
X1079415D01*
X1071712D02*
X1071950D01*
X1553470Y300381D02*
X1633470Y380381D01*
X1121270Y382270D02*
Y413770D01*
X529070Y304070D02*
X609070Y384070D01*
X529070Y212070D02*
Y243040D01*
Y304070D01*
X1406739Y576655D02*
Y731188D01*
X1390770Y747157D02*
Y795871D01*
Y747157D02*
X1406739Y731188D01*
X1080950Y169184D02*
X1082925Y167209D01*
X1079868Y169184D02*
X1080950D01*
X1071887Y164146D02*
Y172806D01*
Y164146D02*
X1072787Y163246D01*
X1081918Y154000D02*
X1083000D01*
X1071319Y156896D02*
X1071712Y156503D01*
X1079415D02*
X1081918Y154000D01*
X1238087Y188101D02*
X1238090D01*
X931493Y131572D02*
X931708Y131786D01*
X939836D02*
X940050Y132000D01*
X931708Y131786D02*
X939836D01*
X1974930Y413770D02*
Y512926D01*
X1082826Y119998D02*
X1082940Y120112D01*
X1082826Y110629D02*
Y119998D01*
X1082711Y110515D02*
X1082826Y110629D01*
X1090000Y128086D02*
Y129000D01*
X1082940Y120112D02*
Y121026D01*
X1090000Y128086D01*
X890084Y121851D02*
Y122045D01*
X1072906Y94281D02*
X1073586Y93602D01*
X1065319Y97681D02*
Y103986D01*
X1068719Y94281D02*
X1072906D01*
X1065319Y97681D02*
X1068719Y94281D01*
X1074000Y181512D02*
Y183000D01*
X1071919Y172838D02*
Y179431D01*
X1074000Y181512D01*
X952197Y168803D02*
X962000Y159000D01*
X929453Y168803D02*
X952197D01*
X926000Y146512D02*
X929000Y143512D01*
Y141000D02*
Y143512D01*
X926000Y146512D02*
Y148000D01*
X1029861Y77938D02*
X1037000Y85076D01*
X1090000Y129000D02*
Y136512D01*
X1086000Y140512D02*
Y142000D01*
Y140512D02*
X1090000Y136512D01*
X1696970Y14000D02*
X1717030Y-6060D01*
X2600000Y127840D02*
Y267000D01*
X2612550Y112790D02*
X2613800Y114040D01*
X2600000Y127840D02*
X2615050Y112790D01*
X2613800Y114040D02*
X2615050Y115290D01*
X2574000Y293000D02*
X2600000Y267000D01*
X2609638Y112790D02*
X2612550D01*
X1706040Y1087900D02*
X1717030Y1098890D01*
X788000Y1011837D02*
Y1012000D01*
Y1011837D02*
X788057Y1011780D01*
X916440Y1084890D02*
Y1098300D01*
X19000Y119640D02*
X39000Y139640D01*
Y176000D02*
X46000Y183000D01*
X39000Y139640D02*
Y176000D01*
X46000Y183000D02*
X98000D01*
X96870Y168870D02*
X142240Y214240D01*
Y243040D01*
X96870Y72300D02*
Y168870D01*
X1614000Y48686D02*
Y104592D01*
X1617000Y49929D02*
Y105834D01*
X1611000Y47444D02*
Y103349D01*
X1804250Y72300D02*
Y121336D01*
X1285007Y990007D02*
X1354664D01*
X1273652Y978652D02*
X1285007Y990007D01*
X2392242Y756758D02*
X2399862D01*
X2344000Y805000D02*
X2392242Y756758D01*
X2344000Y805000D02*
X2344000D01*
X2399862Y756758D02*
X2401820Y754800D01*
X2316450Y832550D02*
X2344000Y805000D01*
X2401820Y541180D02*
Y754800D01*
X2316450Y832550D02*
Y965530D01*
X992840Y158332D02*
X996618D01*
X2145670Y371363D02*
Y413770D01*
X2155458Y752175D02*
X2236450Y671183D01*
Y581250D02*
Y584500D01*
Y671183D01*
X1643048Y752952D02*
X1724200Y671800D01*
Y584500D02*
Y671800D01*
Y581250D02*
Y584500D01*
X1406739Y576655D02*
X1481000Y502394D01*
X620769Y754800D02*
X699800Y675770D01*
X1064950Y112000D02*
X1065134Y111816D01*
X1072859Y104345D02*
Y122641D01*
X1072500Y123000D02*
X1072859Y122641D01*
Y104345D02*
X1073219Y103986D01*
X1056550Y111500D02*
X1057050Y112000D01*
X1047000Y111000D02*
X1047500Y111500D01*
X1056550D01*
X1072310Y140015D02*
Y144810D01*
X1072500Y145000D01*
X1059295Y127000D02*
X1072310Y140015D01*
X1066000Y139246D02*
Y145000D01*
Y154053D01*
X1060754Y134000D02*
X1066000Y139246D01*
X1064050Y156003D02*
X1066000Y154053D01*
X1064050Y156003D02*
Y156503D01*
X1046235Y163683D02*
Y164765D01*
X1044000Y161448D02*
X1046235Y163683D01*
X956050Y106268D02*
Y110750D01*
X958143Y134750D02*
Y144857D01*
X958000Y145000D02*
X958143Y144857D01*
X1019127Y159393D02*
X1019520Y159785D01*
X1044000Y148000D02*
Y161448D01*
X1036318Y157017D02*
Y168710D01*
X984328Y130400D02*
X985500Y131572D01*
X980850Y130400D02*
X984328D01*
X985500Y131572D02*
Y140000D01*
X979950Y129500D02*
X980850Y130400D01*
X979950Y129000D02*
Y129500D01*
X963082Y159000D02*
X966082Y162000D01*
X972500D01*
X962000Y159000D02*
X963082D01*
X972500Y140000D02*
X972837Y140337D01*
X985163Y157163D02*
Y161663D01*
X972837Y140337D02*
Y144837D01*
X985163Y157163D01*
Y161663D02*
X985500Y162000D01*
X947090Y96588D02*
X948502Y98000D01*
X946008Y96588D02*
X947090D01*
X948502Y98000D02*
X955050D01*
X946008Y96588D02*
Y97670D01*
X944000Y105258D02*
Y105500D01*
Y105258D02*
X944008Y105250D01*
Y99670D02*
Y105250D01*
Y99670D02*
X946008Y97670D01*
X944250Y110750D02*
X955800D01*
X944000Y110500D02*
X944250Y110750D01*
X940042Y140992D02*
X940050Y141000D01*
X945750Y120500D02*
X947950Y122700D01*
Y132000D01*
X944000Y120500D02*
X945750D01*
X921000Y133000D02*
X929000Y141000D01*
X940050D01*
X947950Y132000D02*
Y141000D01*
X944000Y115500D02*
X951543D01*
X957293Y121250D02*
X958143D01*
X951543Y115500D02*
X957293Y121250D01*
X1481000Y379000D02*
Y502394D01*
X2427000Y413000D02*
X2487180Y352820D01*
X2427000Y413000D02*
Y516000D01*
X2401820Y541180D02*
X2427000Y516000D01*
X2487180Y72300D02*
Y352820D01*
X1974930Y380991D02*
Y413770D01*
X1913356Y574500D02*
X1974930Y512926D01*
X1901740Y574500D02*
X1913356D01*
X1894990Y581250D02*
Y584500D01*
Y581250D02*
X1901740Y574500D01*
X2316848Y414168D02*
Y509819D01*
X2316450Y413770D02*
X2316848Y414168D01*
X2252168Y574500D02*
X2316848Y509819D01*
X2243200Y574500D02*
X2252168D01*
X2236450Y581250D02*
X2243200Y574500D01*
X1087300Y40700D02*
Y45787D01*
X1059295Y123205D02*
Y127000D01*
Y123205D02*
X1059500Y123000D01*
X1044000Y120000D02*
Y134000D01*
X916000Y102000D02*
X917981Y103981D01*
X1494000Y25172D02*
Y83000D01*
X1216239Y34507D02*
Y40322D01*
X1214086Y32353D02*
X1216239Y34507D01*
X1208857Y32353D02*
X1214086D01*
X1201672Y86708D02*
Y87802D01*
X1511290Y32047D02*
Y75550D01*
X1508000Y97000D02*
X1531828D01*
X1494000Y83000D02*
X1508000Y97000D01*
X1531828D02*
X1533000Y98172D01*
X2487180Y436820D02*
Y499140D01*
Y436820D02*
X2525000Y399000D01*
X2487180Y499140D02*
Y675204D01*
X1413950Y110000D02*
X1413975Y109975D01*
Y100025D02*
X1414000Y100000D01*
X1413975Y100025D02*
Y109975D01*
X1363500Y120000D02*
X1364050Y119450D01*
X1362000Y306000D02*
Y495000D01*
X1387706Y205502D02*
Y206002D01*
X1374000Y437000D02*
X1402000Y409000D01*
X1328452Y253316D02*
Y253816D01*
Y253316D02*
X1329352Y252416D01*
X1254925Y180125D02*
X1255050Y180000D01*
X1254800Y196000D02*
X1254925Y195875D01*
X1034520Y232520D02*
Y236290D01*
X1231950Y321496D02*
X1231950Y321496D01*
X1193297Y123083D02*
X1201917D01*
X1090000Y129000D02*
X1092000Y127000D01*
X1099050D01*
X1402858Y128904D02*
X1406050Y125712D01*
Y110000D02*
Y125712D01*
X1036500Y40700D02*
Y41098D01*
X916000Y100500D02*
Y102000D01*
X1163500Y40700D02*
Y42750D01*
X1208633Y40477D02*
X1208857Y40253D01*
X1189123Y40477D02*
X1208633D01*
X1188900Y40700D02*
X1189123Y40477D01*
X1218750Y574500D02*
X1235625D01*
X1212000Y581250D02*
Y584500D01*
Y581250D02*
X1218750Y574500D01*
X1464067Y414091D02*
Y497352D01*
X1389321Y572099D02*
X1464067Y497352D01*
X1389321Y572099D02*
Y577909D01*
X1382730Y584500D02*
X1389321Y577909D01*
X609070Y27381D02*
Y72300D01*
X1633520D02*
Y169170D01*
X2316450Y28442D02*
Y72300D01*
X2145720Y26537D02*
Y72300D01*
X409000Y100000D02*
X410082D01*
X412082Y102000D02*
X418000D01*
X410082Y100000D02*
X412082Y102000D01*
X1292000Y754800D02*
Y965530D01*
X1354664Y990007D02*
X1368079Y1003421D01*
X2599950Y995590D02*
X2612550Y982990D01*
X609060Y754800D02*
X620769D01*
X609060D02*
Y965530D01*
X793200Y754800D02*
X870540Y677460D01*
X779800Y754800D02*
X793200D01*
X779800D02*
Y965530D01*
X1472308Y754692D02*
X1553470Y673530D01*
X1462730Y754800D02*
X1462838Y754692D01*
X1472308D01*
X1553470Y584500D02*
Y673530D01*
X1462730Y754800D02*
Y965530D01*
X1633470Y754800D02*
X1635318Y752952D01*
X1643048D01*
X1633470Y754800D02*
Y965530D01*
X2145880Y754800D02*
X2148506Y752175D01*
X2155458D01*
X2065720Y584500D02*
Y676280D01*
X1041270Y584500D02*
X1041618Y584152D01*
X1050848D01*
X1121270Y413770D02*
Y513730D01*
X1050848Y584152D02*
X1121270Y513730D01*
X1041270Y584500D02*
Y675730D01*
X1212000Y584500D02*
Y675000D01*
X2145880Y754800D02*
Y965530D01*
X2361820Y243040D02*
Y339180D01*
Y195820D02*
Y243040D01*
X1382730D02*
Y298730D01*
X1974990Y35301D02*
Y72300D01*
Y89986D01*
X2316450Y384550D02*
Y413770D01*
Y384550D02*
X2361820Y339180D01*
X1894930Y239790D02*
X1915000Y219720D01*
Y149976D02*
X1974990Y89986D01*
X1915000Y149976D02*
Y219720D01*
X1894930Y243040D02*
Y300991D01*
X1974930Y380991D01*
X1804200Y754800D02*
X1816200D01*
X1894990Y676010D01*
Y584500D02*
Y676010D01*
X1804200Y754800D02*
Y965530D01*
X1724200Y581250D02*
X1804200Y501250D01*
Y383200D02*
Y501250D01*
X1633470Y380381D02*
Y413770D01*
X1553470Y581250D02*
X1632000Y502720D01*
Y415240D02*
X1633470Y413770D01*
X1632000Y415240D02*
Y502720D01*
X1382730Y298730D02*
X1462730Y378730D01*
Y413770D01*
X1382730Y584500D02*
Y675270D01*
X1303200Y754800D02*
X1382730Y675270D01*
X1292000Y754800D02*
X1303200D01*
X1121270D02*
X1132200D01*
X1212000Y675000D01*
X1121270Y754800D02*
Y965530D01*
X950540Y754800D02*
X962200D01*
X1041270Y675730D01*
X950540Y754800D02*
Y965530D01*
X699800Y302110D02*
X779800Y382110D01*
X699800Y243040D02*
Y302110D01*
X779800Y382110D02*
Y413770D01*
X452200Y754800D02*
X529070Y677930D01*
X438340Y754800D02*
X452200D01*
X438340D02*
Y965530D01*
Y30660D02*
Y72300D01*
Y121340D01*
X529070Y212070D01*
X358340Y301512D02*
X438340Y381512D01*
X358340Y243040D02*
Y301512D01*
X438340Y381512D02*
Y413770D01*
X267600Y126600D02*
X358340Y217340D01*
X267600Y72300D02*
Y126600D01*
X358340Y217340D02*
Y243040D01*
X267600Y754800D02*
X268578Y753822D01*
X277178D01*
X358340Y672660D01*
X267600Y754800D02*
Y965530D01*
X159000Y263050D02*
Y393810D01*
X175710Y410520D01*
X142240Y246290D02*
X159000Y263050D01*
X175710Y413770D02*
Y520357D01*
X142240Y553827D02*
Y706180D01*
Y553827D02*
X175710Y520357D01*
X2316450Y72300D02*
Y150450D01*
X1894930Y239790D02*
Y243040D01*
X2316450Y150450D02*
X2361820Y195820D01*
X1724200Y303200D02*
X1804200Y383200D01*
X2065720Y581250D02*
X2145670Y501300D01*
Y413770D02*
Y501300D01*
X96870Y751550D02*
X142240Y706180D01*
X912050Y1081000D02*
X912550D01*
X916440Y1084890D01*
Y1098300D02*
X917030Y1098890D01*
X2603880Y107032D02*
X2609638Y112790D01*
X96870Y24130D02*
Y72300D01*
X267600Y31258D02*
Y72300D01*
X917030Y-6060D02*
X917030Y-6060D01*
X2145720Y72300D02*
Y75550D01*
X2065720Y581250D02*
Y584500D01*
X1553470Y581250D02*
Y584500D01*
X870540Y301540D02*
X950540Y381540D01*
Y413770D01*
X142240Y243040D02*
Y246290D01*
X175710Y410520D02*
Y413770D01*
X96870Y751550D02*
Y754800D01*
Y965530D01*
X1095550Y115800D02*
Y123000D01*
X1099050Y126500D02*
Y127000D01*
X1095550Y123000D02*
X1099050Y126500D01*
X1089330Y89750D02*
Y89800D01*
X1091530Y82000D02*
X1091742Y81787D01*
X1098457D01*
X1098670Y81575D01*
X1097294Y88286D02*
X1097344D01*
X1095830Y89750D02*
Y89800D01*
Y89750D02*
X1097294Y88286D01*
X1097344D02*
X1098670Y86960D01*
Y81575D02*
Y86960D01*
X1208357Y40253D02*
X1208857D01*
D12*
X997000Y157950D02*
D03*
Y150050D02*
D03*
X1115965Y140595D02*
D03*
Y148495D02*
D03*
X1311000Y144050D02*
D03*
Y151950D02*
D03*
X1187932Y72799D02*
D03*
Y64899D02*
D03*
X1238226Y189001D02*
D03*
Y196901D02*
D03*
X1241000Y68950D02*
D03*
Y61050D02*
D03*
X1196932Y72799D02*
D03*
Y64899D02*
D03*
X1298502Y254866D02*
D03*
Y262766D02*
D03*
X1278614Y83212D02*
D03*
Y91112D02*
D03*
X1227075Y288603D02*
D03*
Y280703D02*
D03*
X881000Y113050D02*
D03*
Y120950D02*
D03*
X853352Y117713D02*
D03*
Y125613D02*
D03*
X853350Y110449D02*
D03*
Y102549D02*
D03*
X1208857Y40253D02*
D03*
Y32353D02*
D03*
X1107886Y154067D02*
D03*
Y161967D02*
D03*
X1307502Y262766D02*
D03*
Y254866D02*
D03*
D13*
X956050Y98000D02*
D03*
X963950D02*
D03*
X1064050Y156503D02*
D03*
X1071950D02*
D03*
X1297552Y245817D02*
D03*
X1305452D02*
D03*
X1224050Y321496D02*
D03*
X1231950D02*
D03*
X1379806Y197502D02*
D03*
X1387706D02*
D03*
X1320552Y245817D02*
D03*
X1328452D02*
D03*
X1255050Y188000D02*
D03*
X1262950D02*
D03*
X937338Y92654D02*
D03*
X929438D02*
D03*
X1170258Y293192D02*
D03*
X1178158D02*
D03*
X1358951Y106172D02*
D03*
X1366851D02*
D03*
X1170950Y121000D02*
D03*
X1163050D02*
D03*
X1201771Y169713D02*
D03*
X1193871D02*
D03*
X1099112Y127630D02*
D03*
X1107012D02*
D03*
X1288050Y120000D02*
D03*
X1295950D02*
D03*
X1170950Y129000D02*
D03*
X1163050D02*
D03*
X1288050Y112000D02*
D03*
X1295950D02*
D03*
X1170950Y137000D02*
D03*
X1163050D02*
D03*
X979934Y121593D02*
D03*
X972034D02*
D03*
X1077280Y286605D02*
D03*
X1069380D02*
D03*
X1255052Y195900D02*
D03*
X1262952D02*
D03*
X1320552Y261816D02*
D03*
X1328452D02*
D03*
X1224050Y338881D02*
D03*
X1231950D02*
D03*
X1379806Y205502D02*
D03*
X1387706D02*
D03*
X1279218Y26319D02*
D03*
X1271318D02*
D03*
X1277220Y45002D02*
D03*
X1269320D02*
D03*
X1277220Y53000D02*
D03*
X1269320D02*
D03*
X1279220Y71835D02*
D03*
X1271320D02*
D03*
X1344573Y161108D02*
D03*
X1336673D02*
D03*
X1344573Y169109D02*
D03*
X1336673D02*
D03*
X1283950Y154000D02*
D03*
X1276050D02*
D03*
X1069380Y298788D02*
D03*
X1077280D02*
D03*
X1104477Y295610D02*
D03*
X1112377D02*
D03*
X1153550Y283622D02*
D03*
X1161450D02*
D03*
X1153550Y271523D02*
D03*
X1161450D02*
D03*
X1153550Y259645D02*
D03*
X1161450D02*
D03*
X1153550Y246888D02*
D03*
X1161450D02*
D03*
X864547Y114011D02*
D03*
X872447D02*
D03*
X1406050Y110000D02*
D03*
X1413950D02*
D03*
X979962Y129644D02*
D03*
X972062D02*
D03*
X1019520Y159785D02*
D03*
X1027420D02*
D03*
X940050Y132000D02*
D03*
X947950D02*
D03*
X1027415Y168803D02*
D03*
X1019516D02*
D03*
X940050Y141000D02*
D03*
X947950D02*
D03*
X963950Y111000D02*
D03*
X956050D02*
D03*
X1057050Y112000D02*
D03*
X1064950D02*
D03*
X1064019Y172838D02*
D03*
X1071919D02*
D03*
X1063987Y164646D02*
D03*
X1071887D02*
D03*
X1065319Y103986D02*
D03*
X1073219D02*
D03*
X1106552Y81946D02*
D03*
X1098652D02*
D03*
X1091530Y82000D02*
D03*
X1083630D02*
D03*
X1510050Y15000D02*
D03*
X1517950D02*
D03*
X916745Y31942D02*
D03*
X908845D02*
D03*
X1100249Y170879D02*
D03*
X1108149D02*
D03*
X1303264Y126008D02*
D03*
X1311164D02*
D03*
X1231950Y330250D02*
D03*
X1224050D02*
D03*
X1387766Y189202D02*
D03*
X1379866D02*
D03*
X1328452Y253816D02*
D03*
X1320552D02*
D03*
X1255050Y180000D02*
D03*
X1262950D02*
D03*
X1178121Y285105D02*
D03*
X1170221D02*
D03*
X1166074Y112907D02*
D03*
X1173974D02*
D03*
X1166106Y104848D02*
D03*
X1174007D02*
D03*
D18*
X1044000Y134000D02*
D03*
Y148000D02*
D03*
X911000Y143000D02*
D03*
Y157000D02*
D03*
D36*
X50000Y890000D02*
D03*
Y210000D02*
D03*
X2558550Y890000D02*
D03*
X576060Y965530D02*
D03*
X917540D02*
D03*
X1088270D02*
D03*
X1259000D02*
D03*
X1429730D02*
D03*
X1600470D02*
D03*
X1771200D02*
D03*
X1942150D02*
D03*
X2112880D02*
D03*
X2283450D02*
D03*
X2454180D02*
D03*
X63870D02*
D03*
X234600D02*
D03*
X405340D02*
D03*
X746800D02*
D03*
X63870Y754800D02*
D03*
X234600D02*
D03*
X405340D02*
D03*
X576060D02*
D03*
X746800D02*
D03*
X917540D02*
D03*
X1088270D02*
D03*
X1259000D02*
D03*
X1429730D02*
D03*
X1600470D02*
D03*
X1771200D02*
D03*
X1942150D02*
D03*
X2112880D02*
D03*
X2368820D02*
D03*
X109240Y584500D02*
D03*
X325340D02*
D03*
X496070D02*
D03*
X666800D02*
D03*
X837540D02*
D03*
X1008270D02*
D03*
X1179000D02*
D03*
X1349730D02*
D03*
X1520470D02*
D03*
X1691200D02*
D03*
X1861990D02*
D03*
X2032720D02*
D03*
X2203450D02*
D03*
X2454180Y499140D02*
D03*
X142710Y413770D02*
D03*
X405340D02*
D03*
X576070D02*
D03*
X746800D02*
D03*
X917540D02*
D03*
X1088270D02*
D03*
X1259000D02*
D03*
X1429730D02*
D03*
X1600470D02*
D03*
X1771200D02*
D03*
X1941930D02*
D03*
X2112670D02*
D03*
X2283450D02*
D03*
X109240Y243040D02*
D03*
X325340D02*
D03*
X496070D02*
D03*
X666800D02*
D03*
X837540D02*
D03*
X1008270D02*
D03*
X1179000D02*
D03*
X1349730D02*
D03*
X1520470D02*
D03*
X1691200D02*
D03*
X1861930D02*
D03*
X2032670D02*
D03*
X2328820D02*
D03*
X63870Y72300D02*
D03*
X234600D02*
D03*
X405340D02*
D03*
X576070D02*
D03*
X1428290D02*
D03*
X1600520D02*
D03*
X1771250D02*
D03*
X1941990D02*
D03*
X2112720D02*
D03*
X2283450D02*
D03*
X2454180D02*
D03*
X748290D02*
D03*
D37*
X978000Y35000D02*
D03*
X978565Y89874D02*
D03*
X915382Y168353D02*
D03*
X781995Y132521D02*
D03*
X929453Y168803D02*
D03*
X1073586Y93602D02*
D03*
X1074000Y183000D02*
D03*
X1158000Y60000D02*
D03*
X1208000Y51000D02*
D03*
X1218879Y48978D02*
D03*
X1220000Y61000D02*
D03*
X818000Y154000D02*
D03*
X1309104Y91976D02*
D03*
X1158000Y71000D02*
D03*
X96000Y486000D02*
D03*
X1247900Y281926D02*
D03*
X1035000Y113000D02*
D03*
X926000Y148000D02*
D03*
X1037000Y96000D02*
D03*
X964763Y26769D02*
D03*
X1086000Y142000D02*
D03*
X1098409Y148184D02*
D03*
X1178000Y64000D02*
D03*
D38*
X1202083Y103083D02*
X1204917D01*
X1202000Y103000D02*
X1202083Y103083D01*
X1204917D02*
Y120083D01*
X912500Y140756D02*
Y142500D01*
X913685Y129369D02*
X914979Y128075D01*
X911000Y143000D02*
X912000D01*
X912500Y142500D01*
X913685Y129369D02*
Y139571D01*
X912500Y140756D02*
X913685Y139571D01*
X914979Y127805D02*
Y128075D01*
X1193191Y441689D02*
X1200381Y434499D01*
X1193191Y441689D02*
Y447809D01*
X1193000Y448000D02*
X1193191Y447809D01*
X898929Y157000D02*
X911000D01*
X896000Y154071D02*
X898929Y157000D01*
X896000Y146271D02*
Y154071D01*
X1226085Y434499D02*
X1231798Y428786D01*
Y420914D02*
Y428786D01*
X1200381Y434499D02*
X1226085D01*
X1211000Y97000D02*
X1246000D01*
X1252000Y103000D02*
Y112000D01*
X1246000Y97000D02*
X1252000Y103000D01*
Y112000D02*
X1255083Y115083D01*
X1201917Y123083D02*
X1204917Y120083D01*
Y103083D02*
X1211000Y97000D01*
X2153000Y586000D02*
X2168836D01*
X2182789Y599952D01*
Y600223D01*
X2535289Y785506D02*
X2537000Y787218D01*
Y840000D01*
X2535289Y785236D02*
Y785506D01*
D39*
X972481Y84291D02*
X978064Y89874D01*
X956027Y84291D02*
X972481D01*
X978064Y89874D02*
X978565D01*
X952527Y80791D02*
X956027Y84291D01*
X935243Y115500D02*
X937000Y113743D01*
X930000Y115500D02*
X935243D01*
X937000Y102000D02*
Y113743D01*
D40*
X1138100Y40700D02*
D03*
X1112700D02*
D03*
X1087300D02*
D03*
X1061900D02*
D03*
X1036500D02*
D03*
X1188900D02*
D03*
X1163500D02*
D03*
D41*
X1011100D02*
D03*
D42*
X570560Y933030D02*
D03*
X697560Y1053030D02*
D03*
X570560D02*
D03*
X697560Y933030D02*
D03*
X1039040D02*
D03*
X912040Y1053030D02*
D03*
X1039040D02*
D03*
X912040Y933030D02*
D03*
X1082770D02*
D03*
X1209770Y1053030D02*
D03*
X1082770D02*
D03*
X1209770Y933030D02*
D03*
X1380500D02*
D03*
X1253500Y1053030D02*
D03*
X1380500D02*
D03*
X1253500Y933030D02*
D03*
X1424230D02*
D03*
X1551230Y1053030D02*
D03*
X1424230D02*
D03*
X1551230Y933030D02*
D03*
X1721970D02*
D03*
X1594970Y1053030D02*
D03*
X1721970D02*
D03*
X1594970Y933030D02*
D03*
X1765700D02*
D03*
X1892700Y1053030D02*
D03*
X1765700D02*
D03*
X1892700Y933030D02*
D03*
X2063650D02*
D03*
X1936650Y1053030D02*
D03*
X2063650D02*
D03*
X1936650Y933030D02*
D03*
X2107380D02*
D03*
X2234380Y1053030D02*
D03*
X2107380D02*
D03*
X2234380Y933030D02*
D03*
X2404950D02*
D03*
X2277950Y1053030D02*
D03*
X2404950D02*
D03*
X2277950Y933030D02*
D03*
X2448680D02*
D03*
X2575680Y1053030D02*
D03*
X2448680D02*
D03*
X2575680Y933030D02*
D03*
X185370D02*
D03*
X58370Y1053030D02*
D03*
X185370D02*
D03*
X58370Y933030D02*
D03*
X229100D02*
D03*
X356100Y1053030D02*
D03*
X229100D02*
D03*
X356100Y933030D02*
D03*
X526840D02*
D03*
X399840Y1053030D02*
D03*
X526840D02*
D03*
X399840Y933030D02*
D03*
X741300D02*
D03*
X868300Y1053030D02*
D03*
X741300D02*
D03*
X868300Y933030D02*
D03*
X185370Y722300D02*
D03*
X58370Y842300D02*
D03*
X185370D02*
D03*
X58370Y722300D02*
D03*
X229100D02*
D03*
X356100Y842300D02*
D03*
X229100D02*
D03*
X356100Y722300D02*
D03*
X526840D02*
D03*
X399840Y842300D02*
D03*
X526840D02*
D03*
X399840Y722300D02*
D03*
X570560D02*
D03*
X697560Y842300D02*
D03*
X570560D02*
D03*
X697560Y722300D02*
D03*
X868300D02*
D03*
X741300Y842300D02*
D03*
X868300D02*
D03*
X741300Y722300D02*
D03*
X912040D02*
D03*
X1039040Y842300D02*
D03*
X912040D02*
D03*
X1039040Y722300D02*
D03*
X1209770D02*
D03*
X1082770Y842300D02*
D03*
X1209770D02*
D03*
X1082770Y722300D02*
D03*
X1253500D02*
D03*
X1380500Y842300D02*
D03*
X1253500D02*
D03*
X1380500Y722300D02*
D03*
X1551230D02*
D03*
X1424230Y842300D02*
D03*
X1551230D02*
D03*
X1424230Y722300D02*
D03*
X1594970D02*
D03*
X1721970Y842300D02*
D03*
X1594970D02*
D03*
X1721970Y722300D02*
D03*
X1892700D02*
D03*
X1765700Y842300D02*
D03*
X1892700D02*
D03*
X1765700Y722300D02*
D03*
X1936650D02*
D03*
X2063650Y842300D02*
D03*
X1936650D02*
D03*
X2063650Y722300D02*
D03*
X2234380D02*
D03*
X2107380Y842300D02*
D03*
X2234380D02*
D03*
X2107380Y722300D02*
D03*
X2363320D02*
D03*
X2490320Y842300D02*
D03*
X2363320D02*
D03*
X2490320Y722300D02*
D03*
X230740Y552000D02*
D03*
X103740Y672000D02*
D03*
X230740D02*
D03*
X103740Y552000D02*
D03*
X319840D02*
D03*
X446840Y672000D02*
D03*
X319840D02*
D03*
X446840Y552000D02*
D03*
X617570D02*
D03*
X490570Y672000D02*
D03*
X617570D02*
D03*
X490570Y552000D02*
D03*
X661300D02*
D03*
X788300Y672000D02*
D03*
X661300D02*
D03*
X788300Y552000D02*
D03*
X959040D02*
D03*
X832040Y672000D02*
D03*
X959040D02*
D03*
X832040Y552000D02*
D03*
X1002770D02*
D03*
X1129770Y672000D02*
D03*
X1002770D02*
D03*
X1129770Y552000D02*
D03*
X1300500D02*
D03*
X1173500Y672000D02*
D03*
X1300500D02*
D03*
X1173500Y552000D02*
D03*
X1344230D02*
D03*
X1471230Y672000D02*
D03*
X1344230D02*
D03*
X1471230Y552000D02*
D03*
X1641970D02*
D03*
X1514970Y672000D02*
D03*
X1641970D02*
D03*
X1514970Y552000D02*
D03*
X1685700D02*
D03*
X1812700Y672000D02*
D03*
X1685700D02*
D03*
X1812700Y552000D02*
D03*
X1983490D02*
D03*
X1856490Y672000D02*
D03*
X1983490D02*
D03*
X1856490Y552000D02*
D03*
X2027220D02*
D03*
X2154220Y672000D02*
D03*
X2027220D02*
D03*
X2154220Y552000D02*
D03*
X2324950D02*
D03*
X2197950Y672000D02*
D03*
X2324950D02*
D03*
X2197950Y552000D02*
D03*
X2448680Y466640D02*
D03*
X2575680Y586640D02*
D03*
X2448680D02*
D03*
X2575680Y466640D02*
D03*
X264210Y381270D02*
D03*
X137210Y501270D02*
D03*
X264210D02*
D03*
X137210Y381270D02*
D03*
X399840D02*
D03*
X526840Y501270D02*
D03*
X399840D02*
D03*
X526840Y381270D02*
D03*
X697570D02*
D03*
X570570Y501270D02*
D03*
X697570D02*
D03*
X570570Y381270D02*
D03*
X741300D02*
D03*
X868300Y501270D02*
D03*
X741300D02*
D03*
X868300Y381270D02*
D03*
X1039040D02*
D03*
X912040Y501270D02*
D03*
X1039040D02*
D03*
X912040Y381270D02*
D03*
X1082770D02*
D03*
X1209770Y501270D02*
D03*
X1082770D02*
D03*
X1209770Y381270D02*
D03*
X1380500D02*
D03*
X1253500Y501270D02*
D03*
X1380500D02*
D03*
X1253500Y381270D02*
D03*
X1424230D02*
D03*
X1551230Y501270D02*
D03*
X1424230D02*
D03*
X1551230Y381270D02*
D03*
X1721970D02*
D03*
X1594970Y501270D02*
D03*
X1721970D02*
D03*
X1594970Y381270D02*
D03*
X1765700D02*
D03*
X1892700Y501270D02*
D03*
X1765700D02*
D03*
X1892700Y381270D02*
D03*
X2063430D02*
D03*
X1936430Y501270D02*
D03*
X2063430D02*
D03*
X1936430Y381270D02*
D03*
X2107170D02*
D03*
X2234170Y501270D02*
D03*
X2107170D02*
D03*
X2234170Y381270D02*
D03*
X2404950D02*
D03*
X2277950Y501270D02*
D03*
X2404950D02*
D03*
X2277950Y381270D02*
D03*
X103740Y210540D02*
D03*
X230740Y330540D02*
D03*
X103740D02*
D03*
X230740Y210540D02*
D03*
X446840D02*
D03*
X319840Y330540D02*
D03*
X446840D02*
D03*
X319840Y210540D02*
D03*
X490570D02*
D03*
X617570Y330540D02*
D03*
X490570D02*
D03*
X617570Y210540D02*
D03*
X788300D02*
D03*
X661300Y330540D02*
D03*
X788300D02*
D03*
X661300Y210540D02*
D03*
X832040D02*
D03*
X959040Y330540D02*
D03*
X832040D02*
D03*
X959040Y210540D02*
D03*
X1129770D02*
D03*
X1002770Y330540D02*
D03*
X1129770D02*
D03*
X1002770Y210540D02*
D03*
X1173500D02*
D03*
X1300500Y330540D02*
D03*
X1173500D02*
D03*
X1300500Y210540D02*
D03*
X1471230D02*
D03*
X1344230Y330540D02*
D03*
X1471230D02*
D03*
X1344230Y210540D02*
D03*
X1514970D02*
D03*
X1641970Y330540D02*
D03*
X1514970D02*
D03*
X1641970Y210540D02*
D03*
X1812700D02*
D03*
X1685700Y330540D02*
D03*
X1812700D02*
D03*
X1685700Y210540D02*
D03*
X1856430D02*
D03*
X1983430Y330540D02*
D03*
X1856430D02*
D03*
X1983430Y210540D02*
D03*
X2154170D02*
D03*
X2027170Y330540D02*
D03*
X2154170D02*
D03*
X2027170Y210540D02*
D03*
X2323320D02*
D03*
X2450320Y330540D02*
D03*
X2323320D02*
D03*
X2450320Y210540D02*
D03*
X185370Y39800D02*
D03*
X58370Y159800D02*
D03*
X185370D02*
D03*
X58370Y39800D02*
D03*
X229100D02*
D03*
X356100Y159800D02*
D03*
X229100D02*
D03*
X356100Y39800D02*
D03*
X526840D02*
D03*
X399840Y159800D02*
D03*
X526840D02*
D03*
X399840Y39800D02*
D03*
X570570D02*
D03*
X697570Y159800D02*
D03*
X570570D02*
D03*
X697570Y39800D02*
D03*
X1549790D02*
D03*
X1422790Y159800D02*
D03*
X1549790D02*
D03*
X1422790Y39800D02*
D03*
X1595020D02*
D03*
X1722020Y159800D02*
D03*
X1595020D02*
D03*
X1722020Y39800D02*
D03*
X1892750D02*
D03*
X1765750Y159800D02*
D03*
X1892750D02*
D03*
X1765750Y39800D02*
D03*
X1936490D02*
D03*
X2063490Y159800D02*
D03*
X1936490D02*
D03*
X2063490Y39800D02*
D03*
X2234220D02*
D03*
X2107220Y159800D02*
D03*
X2234220D02*
D03*
X2107220Y39800D02*
D03*
X2277950D02*
D03*
X2404950Y159800D02*
D03*
X2277950D02*
D03*
X2404950Y39800D02*
D03*
X2575680D02*
D03*
X2448680Y159800D02*
D03*
X2575680D02*
D03*
X2448680Y39800D02*
D03*
X742790D02*
D03*
X869790Y159800D02*
D03*
X742790D02*
D03*
X869790Y39800D02*
D03*
D43*
X692060Y1020530D02*
D03*
X1033540D02*
D03*
X1204270D02*
D03*
X1375000D02*
D03*
X1545730D02*
D03*
X1716470D02*
D03*
X1887200D02*
D03*
X2058150D02*
D03*
X2228880D02*
D03*
X2399450D02*
D03*
X2570180D02*
D03*
X179870D02*
D03*
X350600D02*
D03*
X521340D02*
D03*
X862800D02*
D03*
X179870Y809800D02*
D03*
X350600D02*
D03*
X521340D02*
D03*
X692060D02*
D03*
X862800D02*
D03*
X1033540D02*
D03*
X1204270D02*
D03*
X1375000D02*
D03*
X1545730D02*
D03*
X1716470D02*
D03*
X1887200D02*
D03*
X2058150D02*
D03*
X2228880D02*
D03*
X2484820D02*
D03*
X225240Y639500D02*
D03*
X441340D02*
D03*
X612070D02*
D03*
X782800D02*
D03*
X953540D02*
D03*
X1124270D02*
D03*
X1295000D02*
D03*
X1465730D02*
D03*
X1636470D02*
D03*
X1807200D02*
D03*
X1977990D02*
D03*
X2148720D02*
D03*
X2319450D02*
D03*
X2570180Y554140D02*
D03*
X258710Y468770D02*
D03*
X521340D02*
D03*
X692070D02*
D03*
X862800D02*
D03*
X1033540D02*
D03*
X1204270D02*
D03*
X1375000D02*
D03*
X1545730D02*
D03*
X1716470D02*
D03*
X1887200D02*
D03*
X2057930D02*
D03*
X2228670D02*
D03*
X2399450D02*
D03*
X225240Y298040D02*
D03*
X441340D02*
D03*
X612070D02*
D03*
X782800D02*
D03*
X953540D02*
D03*
X1124270D02*
D03*
X1295000D02*
D03*
X1465730D02*
D03*
X1636470D02*
D03*
X1807200D02*
D03*
X1977930D02*
D03*
X2148670D02*
D03*
X2444820D02*
D03*
X179870Y127300D02*
D03*
X350600D02*
D03*
X521340D02*
D03*
X692070D02*
D03*
X1544290D02*
D03*
X1716520D02*
D03*
X1887250D02*
D03*
X2057990D02*
D03*
X2228720D02*
D03*
X2399450D02*
D03*
X2570180D02*
D03*
X864290D02*
D03*
D44*
X659060Y965530D02*
D03*
X609060D02*
D03*
X950540D02*
D03*
X1000540D02*
D03*
X1171270D02*
D03*
X1121270D02*
D03*
X1292000D02*
D03*
X1342000D02*
D03*
X1512730D02*
D03*
X1462730D02*
D03*
X1633470D02*
D03*
X1683470D02*
D03*
X1854200D02*
D03*
X1804200D02*
D03*
X1975150D02*
D03*
X2025150D02*
D03*
X2195880D02*
D03*
X2145880D02*
D03*
X2316450D02*
D03*
X2366450D02*
D03*
X2537180D02*
D03*
X2487180D02*
D03*
X96870D02*
D03*
X146870D02*
D03*
X317600D02*
D03*
X267600D02*
D03*
X438340D02*
D03*
X488340D02*
D03*
X829800D02*
D03*
X779800D02*
D03*
X96870Y754800D02*
D03*
X146870D02*
D03*
X317600D02*
D03*
X267600D02*
D03*
X438340D02*
D03*
X488340D02*
D03*
X659060D02*
D03*
X609060D02*
D03*
X779800D02*
D03*
X829800D02*
D03*
X1000540D02*
D03*
X950540D02*
D03*
X1121270D02*
D03*
X1171270D02*
D03*
X1342000D02*
D03*
X1292000D02*
D03*
X1462730D02*
D03*
X1512730D02*
D03*
X1683470D02*
D03*
X1633470D02*
D03*
X1804200D02*
D03*
X1854200D02*
D03*
X2025150D02*
D03*
X1975150D02*
D03*
X2145880D02*
D03*
X2195880D02*
D03*
X2451820D02*
D03*
X2401820D02*
D03*
X142240Y584500D02*
D03*
X192240D02*
D03*
X408340D02*
D03*
X358340D02*
D03*
X529070D02*
D03*
X579070D02*
D03*
X749800D02*
D03*
X699800D02*
D03*
X870540D02*
D03*
X920540D02*
D03*
X1091270D02*
D03*
X1041270D02*
D03*
X1212000D02*
D03*
X1262000D02*
D03*
X1432730D02*
D03*
X1382730D02*
D03*
X1553470D02*
D03*
X1603470D02*
D03*
X1774200D02*
D03*
X1724200D02*
D03*
X1894990D02*
D03*
X1944990D02*
D03*
X2115720D02*
D03*
X2065720D02*
D03*
X2236450D02*
D03*
X2286450D02*
D03*
X2537180Y499140D02*
D03*
X2487180D02*
D03*
X175710Y413770D02*
D03*
X225710D02*
D03*
X488340D02*
D03*
X438340D02*
D03*
X609070D02*
D03*
X659070D02*
D03*
X829800D02*
D03*
X779800D02*
D03*
X950540D02*
D03*
X1000540D02*
D03*
X1171270D02*
D03*
X1121270D02*
D03*
X1292000D02*
D03*
X1342000D02*
D03*
X1512730D02*
D03*
X1462730D02*
D03*
X1633470D02*
D03*
X1683470D02*
D03*
X1854200D02*
D03*
X1804200D02*
D03*
X1974930D02*
D03*
X2024930D02*
D03*
X2195670D02*
D03*
X2145670D02*
D03*
X2316450D02*
D03*
X2366450D02*
D03*
X192240Y243040D02*
D03*
X142240D02*
D03*
X358340D02*
D03*
X408340D02*
D03*
X579070D02*
D03*
X529070D02*
D03*
X699800D02*
D03*
X749800D02*
D03*
X920540D02*
D03*
X870540D02*
D03*
X1041270D02*
D03*
X1091270D02*
D03*
X1262000D02*
D03*
X1212000D02*
D03*
X1382730D02*
D03*
X1432730D02*
D03*
X1603470D02*
D03*
X1553470D02*
D03*
X1724200D02*
D03*
X1774200D02*
D03*
X1944930D02*
D03*
X1894930D02*
D03*
X2065670D02*
D03*
X2115670D02*
D03*
X2411820D02*
D03*
X2361820D02*
D03*
X96870Y72300D02*
D03*
X146870D02*
D03*
X317600D02*
D03*
X267600D02*
D03*
X438340D02*
D03*
X488340D02*
D03*
X659070D02*
D03*
X609070D02*
D03*
X1461290D02*
D03*
X1511290D02*
D03*
X1683520D02*
D03*
X1633520D02*
D03*
X1804250D02*
D03*
X1854250D02*
D03*
X2024990D02*
D03*
X1974990D02*
D03*
X2145720D02*
D03*
X2195720D02*
D03*
X2366450D02*
D03*
X2316450D02*
D03*
X2487180D02*
D03*
X2537180D02*
D03*
X831290D02*
D03*
X781290D02*
D03*
D45*
X2615050Y980490D02*
D03*
Y112790D02*
D03*
X1717030Y1098890D02*
D03*
X917030D02*
D03*
X1717030Y-6060D02*
D03*
X917030D02*
D03*
X19000Y980490D02*
D03*
Y119640D02*
D03*
D46*
X89000Y885000D02*
D03*
X1116000Y157000D02*
D03*
X995511Y168469D02*
D03*
X1512000Y484000D02*
D03*
X2192529Y597394D02*
D03*
X1944795Y651000D02*
D03*
X2177439Y1036631D02*
D03*
X146838Y111300D02*
D03*
X317000Y140000D02*
D03*
X971996Y110995D02*
D03*
X972310Y98166D02*
D03*
X817000Y143785D02*
D03*
X818007Y107481D02*
D03*
X1399000Y184578D02*
D03*
X1511000Y141000D02*
D03*
X1774000Y308000D02*
D03*
X1342000Y483000D02*
D03*
X920435Y652000D02*
D03*
X750328Y653042D02*
D03*
X488790Y1032527D02*
D03*
X1379000Y75000D02*
D03*
X1092000Y309688D02*
D03*
X1325000Y91000D02*
D03*
X1015996Y153339D02*
D03*
X1278000Y223000D02*
D03*
X1314696Y285480D02*
D03*
X1312036Y234964D02*
D03*
X1270000Y184000D02*
D03*
X1256379Y216360D02*
D03*
X1285941Y172838D02*
D03*
X1238670Y180737D02*
D03*
X1238000Y206000D02*
D03*
X1219000Y315000D02*
D03*
X1200000Y178000D02*
D03*
X1132000Y259000D02*
D03*
Y279000D02*
D03*
X1090946Y283144D02*
D03*
X1185971Y293762D02*
D03*
X1050000Y266000D02*
D03*
X1073000Y316000D02*
D03*
X777442Y119000D02*
D03*
X1366685Y167003D02*
D03*
X1284000Y135000D02*
D03*
X1280232Y120810D02*
D03*
X1303526Y114986D02*
D03*
X1345000Y121000D02*
D03*
X1350000Y141000D02*
D03*
X1371000Y100000D02*
D03*
X1298000Y90000D02*
D03*
X1276610Y64000D02*
D03*
X1241000Y75000D02*
D03*
Y52000D02*
D03*
X1186389Y160932D02*
D03*
X1092518Y154250D02*
D03*
X1148232Y161929D02*
D03*
X850000Y142000D02*
D03*
X830721Y143334D02*
D03*
X836000Y155000D02*
D03*
X880009Y68300D02*
D03*
X869123D02*
D03*
X891900Y69000D02*
D03*
X899476Y33749D02*
D03*
X924795Y32442D02*
D03*
X825000Y101000D02*
D03*
X834000D02*
D03*
X1153577Y82630D02*
D03*
X1155945Y125113D02*
D03*
X1177664Y121088D02*
D03*
X1154000Y94770D02*
D03*
X1155868Y132570D02*
D03*
X1186000Y86000D02*
D03*
X1192553Y59332D02*
D03*
X1195346Y85580D02*
D03*
X1276611Y33676D02*
D03*
X1132001Y247660D02*
D03*
X1533000Y113705D02*
D03*
X1316000Y486000D02*
D03*
X1544000Y293000D02*
D03*
X1602707Y282040D02*
D03*
X1584683Y314809D02*
D03*
X1603693Y310540D02*
D03*
X1036000Y314000D02*
D03*
X528000D02*
D03*
X1259357Y309143D02*
D03*
X1079868Y169184D02*
D03*
X1083000Y154000D02*
D03*
X640701Y1037452D02*
D03*
X1811931Y1010669D02*
D03*
X931493Y131572D02*
D03*
X1664910Y1037507D02*
D03*
X2096760Y657697D02*
D03*
X2347592Y144071D02*
D03*
X2096879Y316000D02*
D03*
X2347591Y1038000D02*
D03*
X470539Y144093D02*
D03*
X1926055Y314336D02*
D03*
X1943970Y312982D02*
D03*
X2176874Y485007D02*
D03*
X2195177Y482761D02*
D03*
X1077587Y135735D02*
D03*
X2409918Y790953D02*
D03*
X881225Y102356D02*
D03*
X1073362Y657196D02*
D03*
X1151828Y826809D02*
D03*
X1171573Y821427D02*
D03*
X469916Y1037717D02*
D03*
X1755810Y315000D02*
D03*
X1323515Y827296D02*
D03*
X2005955Y1037407D02*
D03*
X298710Y1037731D02*
D03*
X619361Y449370D02*
D03*
X1665120Y144334D02*
D03*
X1493880Y827000D02*
D03*
X1512301Y824430D02*
D03*
X1835591Y1038056D02*
D03*
X1854121Y1032340D02*
D03*
X128069Y1038211D02*
D03*
X981802Y486393D02*
D03*
X2267000Y657000D02*
D03*
X1663868Y826868D02*
D03*
X128186Y826900D02*
D03*
X146653Y823642D02*
D03*
X2025082Y140776D02*
D03*
X1152275Y485625D02*
D03*
X389385Y656652D02*
D03*
X1835360Y828000D02*
D03*
X1493817Y1037830D02*
D03*
X2176696Y144884D02*
D03*
X2195492Y141032D02*
D03*
X299098Y826872D02*
D03*
X2005702Y827000D02*
D03*
X1323351Y1036871D02*
D03*
X224939Y483134D02*
D03*
X901640Y315063D02*
D03*
X1774361Y651039D02*
D03*
X469000Y827000D02*
D03*
X2177265Y826745D02*
D03*
X1152549Y1037392D02*
D03*
X730471Y315000D02*
D03*
X639578Y826604D02*
D03*
X2433160Y826209D02*
D03*
X982000Y1037000D02*
D03*
X127833Y144320D02*
D03*
X560000Y316000D02*
D03*
X811000Y827000D02*
D03*
X2518000Y1038000D02*
D03*
X811000Y1037000D02*
D03*
X1243000Y656000D02*
D03*
X1170023Y792937D02*
D03*
X914979Y127805D02*
D03*
X1082711Y110515D02*
D03*
X1082940Y120112D02*
D03*
X98931Y498069D02*
D03*
X767000Y147000D02*
D03*
X1502000Y13000D02*
D03*
X1432000Y652000D02*
D03*
X1414000Y656000D02*
D03*
X408335Y652009D02*
D03*
X2574000Y293000D02*
D03*
X2393000Y315000D02*
D03*
X2518035Y144000D02*
D03*
X788057Y1011780D02*
D03*
X837382Y30353D02*
D03*
X104138Y799555D02*
D03*
X98000Y183000D02*
D03*
X103437Y106986D02*
D03*
X1674780Y1081221D02*
D03*
X938245Y1075724D02*
D03*
X1327000Y848000D02*
D03*
X1303000Y928000D02*
D03*
X1338091Y928075D02*
D03*
X1319000Y928000D02*
D03*
X1284000Y848000D02*
D03*
X1310000D02*
D03*
X1346000D02*
D03*
X2537000Y139000D02*
D03*
X2535919Y111300D02*
D03*
X2366378Y111399D02*
D03*
X2366000Y141000D02*
D03*
X2195316Y111300D02*
D03*
X2024872D02*
D03*
X1835000Y144000D02*
D03*
X1812607Y106141D02*
D03*
X1683596Y111300D02*
D03*
X1683000Y139000D02*
D03*
X1510882Y111300D02*
D03*
X1493021Y141979D02*
D03*
X658429Y111300D02*
D03*
X659000Y139000D02*
D03*
X641000Y144000D02*
D03*
X277000Y107354D02*
D03*
X299000Y144000D02*
D03*
X316917Y111300D02*
D03*
X147000Y140000D02*
D03*
X2412081Y282040D02*
D03*
X2412000Y309000D02*
D03*
X2076000Y312000D02*
D03*
X2115000D02*
D03*
X2115253Y282040D02*
D03*
X1944823D02*
D03*
X1433000Y312000D02*
D03*
X1431807Y282040D02*
D03*
X1414000Y316000D02*
D03*
X920000Y309000D02*
D03*
X919863Y282040D02*
D03*
X749400D02*
D03*
X579000Y309000D02*
D03*
X578645Y282040D02*
D03*
X407695Y282285D02*
D03*
X409000Y310000D02*
D03*
X191840Y282055D02*
D03*
X173191Y314809D02*
D03*
X192000Y312000D02*
D03*
X2348000Y485000D02*
D03*
X2365843Y452770D02*
D03*
X1193000Y448000D02*
D03*
X1001000Y481000D02*
D03*
X488053Y452882D02*
D03*
X469000Y485000D02*
D03*
X2366000Y483000D02*
D03*
X2154000Y448000D02*
D03*
X2194911Y452770D02*
D03*
X2006000Y485000D02*
D03*
X2024000Y483000D02*
D03*
X2024576Y452770D02*
D03*
X1835000Y485000D02*
D03*
X1854000Y479000D02*
D03*
X1853296Y452770D02*
D03*
X1665000Y485000D02*
D03*
X1683000Y483000D02*
D03*
X1683304Y452770D02*
D03*
X1642000Y448000D02*
D03*
X1494149Y485000D02*
D03*
X1512336Y452770D02*
D03*
X1341099D02*
D03*
X1170000Y483000D02*
D03*
X1171080Y452770D02*
D03*
X999885D02*
D03*
X829703D02*
D03*
X830000Y480000D02*
D03*
X811000Y485000D02*
D03*
X640000D02*
D03*
X658000Y482000D02*
D03*
X658987Y452770D02*
D03*
X488000Y481000D02*
D03*
X207000Y485000D02*
D03*
X225290Y452770D02*
D03*
X2245000Y654000D02*
D03*
X2285981Y623500D02*
D03*
X1944690D02*
D03*
X1773904D02*
D03*
X1732000Y655000D02*
D03*
X1603035Y649965D02*
D03*
X1603078Y623508D02*
D03*
X1262000Y652000D02*
D03*
X1261695Y623500D02*
D03*
X1220120Y657000D02*
D03*
X1091343Y623500D02*
D03*
X1091000Y650000D02*
D03*
X191850Y623500D02*
D03*
X408105D02*
D03*
X578690D02*
D03*
X749380D02*
D03*
X920144D02*
D03*
X730940Y656000D02*
D03*
X707920D02*
D03*
X276000Y788000D02*
D03*
X1926130Y656000D02*
D03*
X1432330Y620500D02*
D03*
X1682588Y794270D02*
D03*
X890000Y112000D02*
D03*
X1047000Y111000D02*
D03*
X1046235Y164765D02*
D03*
X1098000Y188000D02*
D03*
X1088000Y183000D02*
D03*
X958000Y145000D02*
D03*
X996000Y142000D02*
D03*
X1007000Y134000D02*
D03*
X1036428Y156854D02*
D03*
X998000Y122000D02*
D03*
X962000Y159000D02*
D03*
X891900Y80000D02*
D03*
Y59052D02*
D03*
X946008Y96588D02*
D03*
X1029861Y77938D02*
D03*
X1036861Y64938D02*
D03*
X1018861D02*
D03*
X1112493Y70457D02*
D03*
X1108317Y90523D02*
D03*
X1104000Y100000D02*
D03*
X890084Y121851D02*
D03*
X896000Y146000D02*
D03*
X901000Y129748D02*
D03*
X921000Y133000D02*
D03*
X924000Y83000D02*
D03*
X912000D02*
D03*
X960000Y44000D02*
D03*
X945000D02*
D03*
X930000D02*
D03*
X915000D02*
D03*
X1204000Y451000D02*
D03*
X1226161Y413812D02*
D03*
X1231798Y420914D02*
D03*
X1055000Y134000D02*
D03*
X1044000Y120000D02*
D03*
X1216239Y40322D02*
D03*
X780000Y47000D02*
D03*
X803411Y30310D02*
D03*
X740000Y116000D02*
D03*
X1414000Y100000D02*
D03*
X1323000Y156000D02*
D03*
X1338258Y250727D02*
D03*
X1114000Y128000D02*
D03*
X1090000Y129000D02*
D03*
X1402858Y128904D02*
D03*
X1243000Y315000D02*
D03*
X1390770Y795871D02*
D03*
X1300082Y790661D02*
D03*
X1343000Y822000D02*
D03*
X146470Y794270D02*
D03*
X1374000Y437000D02*
D03*
X1287000Y603000D02*
D03*
X2182789Y600223D02*
D03*
X2153000Y586000D02*
D03*
X2150078Y596595D02*
D03*
X2286050Y649969D02*
D03*
X2544964Y785243D02*
D03*
X2527783Y836221D02*
D03*
X2537000Y840000D02*
D03*
X2535289Y785236D02*
D03*
X1343000Y794270D02*
D03*
X2115320Y623500D02*
D03*
X1755340Y657000D02*
D03*
X487653Y111300D02*
D03*
X488000Y136000D02*
D03*
X409000Y100000D02*
D03*
X901680Y656173D02*
D03*
X390000Y313000D02*
D03*
X191840Y652000D02*
D03*
X1368079Y1003421D02*
D03*
X659000Y821000D02*
D03*
X173380Y656964D02*
D03*
X318022Y794270D02*
D03*
X659362D02*
D03*
X788291Y788291D02*
D03*
X981670Y826000D02*
D03*
X1855000Y822000D02*
D03*
X489000Y823000D02*
D03*
X318000Y821000D02*
D03*
X2536780Y567000D02*
D03*
X1584610Y658000D02*
D03*
X2008000Y145061D02*
D03*
X750000Y310000D02*
D03*
X2452000Y794270D02*
D03*
X2115320Y652000D02*
D03*
X578670D02*
D03*
X1855104Y107258D02*
D03*
X1260965Y280862D02*
D03*
X1773797Y281509D02*
D03*
X1000007Y794270D02*
D03*
X2324000Y107000D02*
D03*
X1812567Y790519D02*
D03*
X1129803Y450169D02*
D03*
X104990Y1000869D02*
D03*
X609060Y1038000D02*
D03*
X1121270D02*
D03*
X1633470D02*
D03*
X2145880D02*
D03*
X146470Y1005000D02*
D03*
X317170D02*
D03*
X487980D02*
D03*
X658620D02*
D03*
X828145D02*
D03*
X1000130D02*
D03*
X1170790D02*
D03*
X1341620D02*
D03*
X2536780Y538140D02*
D03*
X1855000Y794270D02*
D03*
X2026000D02*
D03*
X2024620Y1005000D02*
D03*
X1512340D02*
D03*
X1682940D02*
D03*
X1853620D02*
D03*
X2196000Y794270D02*
D03*
X2195450Y1005000D02*
D03*
X2365654D02*
D03*
X2536230D02*
D03*
X2452000Y820904D02*
D03*
X1854000Y139000D02*
D03*
X1683000Y824061D02*
D03*
X1512000Y794270D02*
D03*
X830588D02*
D03*
X488000D02*
D03*
X2518320Y571000D02*
D03*
X2196000Y821000D02*
D03*
X2026000D02*
D03*
X1000000Y822000D02*
D03*
X830000Y821000D02*
D03*
X2024620Y1033753D02*
D03*
X2195450Y1031000D02*
D03*
X1341620D02*
D03*
X1000130D02*
D03*
X317170D02*
D03*
X146470D02*
D03*
X1512340D02*
D03*
X2366050D02*
D03*
X2536620D02*
D03*
X829290D02*
D03*
X1682940D02*
D03*
X658620D02*
D03*
X1170790D02*
D03*
X560210Y657000D02*
D03*
D47*
X418000Y102000D02*
D03*
X828000Y163000D02*
D03*
X990000Y111000D02*
D03*
X1238670Y110080D02*
D03*
Y121080D02*
D03*
Y132080D02*
D03*
X1227670Y110080D02*
D03*
Y121080D02*
D03*
Y132080D02*
D03*
X1216670Y110080D02*
D03*
Y121080D02*
D03*
Y132080D02*
D03*
D49*
X880417Y89750D02*
D03*
Y76250D02*
D03*
X869000Y89750D02*
D03*
Y76250D02*
D03*
X958143Y121250D02*
D03*
Y134750D02*
D03*
X906000Y57250D02*
D03*
Y70750D02*
D03*
D50*
X915750Y117000D02*
D03*
X902250D02*
D03*
X1176921Y82634D02*
D03*
X1163421D02*
D03*
X1176887Y94771D02*
D03*
X1163387D02*
D03*
D51*
X916000Y102000D02*
D03*
X901500D02*
D03*
X1094750Y115000D02*
D03*
X1109250D02*
D03*
X1086595Y68664D02*
D03*
X1101095D02*
D03*
D52*
X921000Y55750D02*
D03*
Y70250D02*
D03*
D53*
X952527Y54791D02*
D03*
Y79791D02*
D03*
D54*
X1092580Y95000D02*
D03*
D55*
X1095830Y89507D02*
D03*
D56*
Y100493D02*
D03*
D57*
X1089330Y89507D02*
D03*
D58*
Y100493D02*
D03*
D59*
X1227670Y121080D02*
D03*
D60*
X1193295Y147080D02*
D03*
Y143080D02*
D03*
Y139080D02*
D03*
Y135080D02*
D03*
Y131080D02*
D03*
Y127080D02*
D03*
Y123080D02*
D03*
Y119080D02*
D03*
Y115080D02*
D03*
Y111080D02*
D03*
Y107080D02*
D03*
Y103080D02*
D03*
Y99080D02*
D03*
Y95080D02*
D03*
X1262045D02*
D03*
Y99080D02*
D03*
Y103080D02*
D03*
Y107080D02*
D03*
Y111080D02*
D03*
Y115080D02*
D03*
Y119080D02*
D03*
Y123080D02*
D03*
Y127080D02*
D03*
Y131080D02*
D03*
Y135080D02*
D03*
Y139080D02*
D03*
Y143080D02*
D03*
Y147080D02*
D03*
D61*
X1201670Y86705D02*
D03*
X1205670D02*
D03*
X1209670D02*
D03*
X1213670D02*
D03*
X1217670D02*
D03*
X1221670D02*
D03*
X1225670D02*
D03*
X1229670D02*
D03*
X1233670D02*
D03*
X1237670D02*
D03*
X1241670D02*
D03*
X1245670D02*
D03*
X1249670D02*
D03*
X1253670D02*
D03*
Y155455D02*
D03*
X1249670D02*
D03*
X1245670D02*
D03*
X1241670D02*
D03*
X1237670D02*
D03*
X1233670D02*
D03*
X1229670D02*
D03*
X1225670D02*
D03*
X1221670D02*
D03*
X1217670D02*
D03*
X1213670D02*
D03*
X1209670D02*
D03*
X1205670D02*
D03*
X1201670D02*
D03*
D62*
X1363500Y120000D02*
D03*
Y142000D02*
D03*
X1326500Y120000D02*
D03*
Y142000D02*
D03*
D63*
X1328476Y77348D02*
D03*
X1368476D02*
D03*
X1358476D02*
D03*
X1348476D02*
D03*
X1338476D02*
D03*
D64*
X1378976Y38598D02*
D03*
X1317976D02*
D03*
D65*
X1061830Y286594D02*
D03*
X1054830D02*
D03*
X1262403Y205414D02*
D03*
X1255403D02*
D03*
X1328002Y275423D02*
D03*
X1321002D02*
D03*
X1301500Y275750D02*
D03*
X1308500D02*
D03*
X1352591Y161365D02*
D03*
X1359591D02*
D03*
X1352591Y173301D02*
D03*
X1359591D02*
D03*
X1283519Y163818D02*
D03*
X1276519D02*
D03*
X1061830Y298783D02*
D03*
X1054830D02*
D03*
X1096927Y295982D02*
D03*
X1089927D02*
D03*
X1146000Y283696D02*
D03*
X1139000D02*
D03*
X1146000Y271483D02*
D03*
X1139000D02*
D03*
X1146000Y259370D02*
D03*
X1139000D02*
D03*
X1146000Y247316D02*
D03*
X1139000D02*
D03*
D66*
X1243547Y339560D02*
D03*
Y332560D02*
D03*
X1398756Y206002D02*
D03*
Y199002D02*
D03*
X1288268Y22819D02*
D03*
Y29819D02*
D03*
X1288270Y44946D02*
D03*
Y37946D02*
D03*
Y53094D02*
D03*
Y60094D02*
D03*
X1288224Y75226D02*
D03*
Y68226D02*
D03*
X1288257Y83513D02*
D03*
Y90513D02*
D03*
X1227041Y296149D02*
D03*
Y303149D02*
D03*
D67*
X1125500Y163950D02*
D03*
X1130500D02*
D03*
X1135500D02*
D03*
X1140500D02*
D03*
X1125500Y136050D02*
D03*
X1130500D02*
D03*
X1135500D02*
D03*
X1140500D02*
D03*
D68*
X1133000Y150000D02*
D03*
D69*
X1072500Y123000D02*
D03*
X1066000D02*
D03*
X1059500D02*
D03*
X1072500Y145000D02*
D03*
X1066000D02*
D03*
X1059500D02*
D03*
X985500Y140000D02*
D03*
X979000D02*
D03*
X972500D02*
D03*
X985500Y162000D02*
D03*
X979000D02*
D03*
X972500D02*
D03*
D70*
X944000Y120500D02*
D03*
Y115500D02*
D03*
Y110500D02*
D03*
Y105500D02*
D03*
X930000Y120500D02*
D03*
Y115500D02*
D03*
Y110500D02*
D03*
Y105500D02*
D03*
D71*
X829147Y131084D02*
D03*
X835647D02*
D03*
X842147D02*
D03*
X829147Y109084D02*
D03*
X835647D02*
D03*
X842147D02*
D03*
D72*
X1011008Y166117D02*
D03*
Y170617D02*
D03*
X871674Y104683D02*
D03*
Y100183D02*
D03*
D73*
X1004008Y168367D02*
D03*
X864674Y102433D02*
D03*
D74*
X1086925Y167035D02*
D03*
X1091425D02*
D03*
D75*
X1089175Y174035D02*
D03*
D76*
X1114886Y40700D02*
Y42498D01*
X1128625Y50175D02*
Y95883D01*
X1114886Y42498D02*
X1123733Y51345D01*
X1112700Y40700D02*
X1114886D01*
X1128625Y50175D02*
X1138100Y40700D01*
X1166106Y104848D02*
Y105348D01*
X1137123Y111299D02*
X1162190D01*
X1162828Y111937D02*
X1165604D01*
X1162190Y111299D02*
X1162828Y111937D01*
X1165637Y105818D02*
X1166106Y105348D01*
X1166074Y112407D02*
Y112907D01*
X1165604Y111937D02*
X1166074Y112407D01*
X1139149Y106407D02*
X1162206D01*
X1162795Y105818D01*
X1165637D01*
X1128625Y95883D02*
X1139149Y106407D01*
X1123733Y51345D02*
Y97910D01*
X1137123Y111299D01*
M02*
