G04*
G04 #@! TF.GenerationSoftware,Altium Limited,Altium Designer,24.2.2 (26)*
G04*
G04 Layer_Color=16711935*
%FSLAX44Y44*%
%MOMM*%
G71*
G04*
G04 #@! TF.SameCoordinates,2B7E99FB-4F0D-402E-9D71-9E8D4FD60802*
G04*
G04*
G04 #@! TF.FilePolarity,Negative*
G04*
G01*
G75*
%ADD19C,3.0000*%
%ADD20R,0.6400X0.5400*%
%ADD21R,0.5400X0.6400*%
%ADD26C,0.9100*%
%ADD27R,0.9600X0.7600*%
%ADD28C,2.2400*%
%ADD29R,2.2400X2.2400*%
%ADD30R,2.1600X2.1600*%
%ADD31C,1.3600*%
%ADD32C,1.1600*%
%ADD33R,1.7100X2.3600*%
%ADD34C,2.3600*%
%ADD35C,0.6600*%
%ADD77R,0.9600X0.7900*%
%ADD78R,0.7900X0.9600*%
%ADD79R,1.2100X1.5100*%
%ADD80R,1.5100X1.2100*%
%ADD81R,3.9600X1.1600*%
%ADD82R,3.3600X3.3600*%
%ADD83O,1.0350X0.3600*%
%ADD84O,0.3600X1.0350*%
%ADD85R,1.8600X1.5600*%
%ADD86R,0.7600X1.7100*%
%ADD87R,1.3600X1.9600*%
%ADD88R,0.5600X0.8600*%
%ADD89R,0.8600X0.5600*%
%ADD90R,0.4100X1.0600*%
%ADD91R,1.7600X0.3600*%
%ADD92O,0.6100X0.9600*%
%ADD93R,0.7600X0.4100*%
%ADD94R,0.6100X0.9600*%
G36*
X1092925Y171785D02*
X1085425D01*
Y176285D01*
X1092925D01*
Y171785D01*
D02*
G37*
G36*
X1013258Y169117D02*
X1008758D01*
Y172117D01*
X1013258D01*
Y169117D01*
D02*
G37*
G36*
X1092925Y164785D02*
X1089925D01*
Y169285D01*
X1092925D01*
Y164785D01*
D02*
G37*
G36*
X1088425D02*
X1085425D01*
Y169285D01*
X1088425D01*
Y164785D01*
D02*
G37*
G36*
X1013258Y164617D02*
X1008758D01*
Y167617D01*
X1013258D01*
Y164617D01*
D02*
G37*
G36*
X1006258D02*
X1001758D01*
Y172117D01*
X1006258D01*
Y164617D01*
D02*
G37*
G36*
X873924Y103183D02*
X869424D01*
Y106183D01*
X873924D01*
Y103183D01*
D02*
G37*
G36*
Y98683D02*
X869424D01*
Y101683D01*
X873924D01*
Y98683D01*
D02*
G37*
G36*
X866924D02*
X862424D01*
Y106183D01*
X866924D01*
Y98683D01*
D02*
G37*
G36*
X1096880Y97793D02*
X1096287D01*
X1094780Y99300D01*
Y101393D01*
X1096880D01*
Y97793D01*
D02*
G37*
G36*
X1090380Y99300D02*
X1088873Y97793D01*
X1088280D01*
Y101393D01*
X1090380D01*
Y99300D01*
D02*
G37*
G36*
X1095974Y95000D02*
X1092580Y91606D01*
X1089186Y95000D01*
X1092580Y98394D01*
X1095974Y95000D01*
D02*
G37*
G36*
X1096880Y88607D02*
X1094780D01*
Y90700D01*
X1096287Y92207D01*
X1096880D01*
Y88607D01*
D02*
G37*
G36*
X1090380Y90700D02*
Y88607D01*
X1088280D01*
Y92207D01*
X1088873D01*
X1090380Y90700D01*
D02*
G37*
D19*
X50000Y890000D02*
D03*
Y210000D02*
D03*
X2558550Y890000D02*
D03*
D20*
X997000Y157950D02*
D03*
Y150050D02*
D03*
X1115965Y140595D02*
D03*
Y148495D02*
D03*
X1311000Y144050D02*
D03*
Y151950D02*
D03*
X1187932Y72799D02*
D03*
Y64899D02*
D03*
X1238226Y189001D02*
D03*
Y196901D02*
D03*
X1241000Y68950D02*
D03*
Y61050D02*
D03*
X1196932Y72799D02*
D03*
Y64899D02*
D03*
X1298502Y254866D02*
D03*
Y262766D02*
D03*
X1278614Y83212D02*
D03*
Y91112D02*
D03*
X1227075Y288603D02*
D03*
Y280703D02*
D03*
X881000Y113050D02*
D03*
Y120950D02*
D03*
X853352Y117713D02*
D03*
Y125613D02*
D03*
X853350Y110449D02*
D03*
Y102549D02*
D03*
X1208857Y40253D02*
D03*
Y32353D02*
D03*
X1107886Y154067D02*
D03*
Y161967D02*
D03*
X1307502Y262766D02*
D03*
Y254866D02*
D03*
D21*
X956050Y98000D02*
D03*
X963950D02*
D03*
X1064050Y156503D02*
D03*
X1071950D02*
D03*
X1297552Y245817D02*
D03*
X1305452D02*
D03*
X1224050Y321496D02*
D03*
X1231950D02*
D03*
X1379806Y197502D02*
D03*
X1387706D02*
D03*
X1320552Y245817D02*
D03*
X1328452D02*
D03*
X1255050Y188000D02*
D03*
X1262950D02*
D03*
X937338Y92654D02*
D03*
X929438D02*
D03*
X1170258Y293192D02*
D03*
X1178158D02*
D03*
X1358951Y106172D02*
D03*
X1366851D02*
D03*
X1170950Y121000D02*
D03*
X1163050D02*
D03*
X1201771Y169713D02*
D03*
X1193871D02*
D03*
X1099112Y127630D02*
D03*
X1107012D02*
D03*
X1288050Y120000D02*
D03*
X1295950D02*
D03*
X1170950Y129000D02*
D03*
X1163050D02*
D03*
X1288050Y112000D02*
D03*
X1295950D02*
D03*
X1170950Y137000D02*
D03*
X1163050D02*
D03*
X979934Y121593D02*
D03*
X972034D02*
D03*
X1077280Y286605D02*
D03*
X1069380D02*
D03*
X1255052Y195900D02*
D03*
X1262952D02*
D03*
X1320552Y261816D02*
D03*
X1328452D02*
D03*
X1224050Y338881D02*
D03*
X1231950D02*
D03*
X1379806Y205502D02*
D03*
X1387706D02*
D03*
X1279218Y26319D02*
D03*
X1271318D02*
D03*
X1277220Y45002D02*
D03*
X1269320D02*
D03*
X1277220Y53000D02*
D03*
X1269320D02*
D03*
X1279220Y71835D02*
D03*
X1271320D02*
D03*
X1344573Y161108D02*
D03*
X1336673D02*
D03*
X1344573Y169109D02*
D03*
X1336673D02*
D03*
X1283950Y154000D02*
D03*
X1276050D02*
D03*
X1069380Y298788D02*
D03*
X1077280D02*
D03*
X1104477Y295610D02*
D03*
X1112377D02*
D03*
X1153550Y283622D02*
D03*
X1161450D02*
D03*
X1153550Y271523D02*
D03*
X1161450D02*
D03*
X1153550Y259645D02*
D03*
X1161450D02*
D03*
X1153550Y246888D02*
D03*
X1161450D02*
D03*
X864547Y114011D02*
D03*
X872447D02*
D03*
X1406050Y110000D02*
D03*
X1413950D02*
D03*
X979962Y129644D02*
D03*
X972062D02*
D03*
X1019520Y159785D02*
D03*
X1027420D02*
D03*
X940050Y132000D02*
D03*
X947950D02*
D03*
X1027415Y168803D02*
D03*
X1019516D02*
D03*
X940050Y141000D02*
D03*
X947950D02*
D03*
X963950Y111000D02*
D03*
X956050D02*
D03*
X1057050Y112000D02*
D03*
X1064950D02*
D03*
X1064019Y172838D02*
D03*
X1071919D02*
D03*
X1063987Y164646D02*
D03*
X1071887D02*
D03*
X1065319Y103986D02*
D03*
X1073219D02*
D03*
X1106552Y81946D02*
D03*
X1098652D02*
D03*
X1091530Y82000D02*
D03*
X1083630D02*
D03*
X1510050Y15000D02*
D03*
X1517950D02*
D03*
X916745Y31942D02*
D03*
X908845D02*
D03*
X1100249Y170879D02*
D03*
X1108149D02*
D03*
X1303264Y126008D02*
D03*
X1311164D02*
D03*
X1231950Y330250D02*
D03*
X1224050D02*
D03*
X1387766Y189202D02*
D03*
X1379866D02*
D03*
X1328452Y253816D02*
D03*
X1320552D02*
D03*
X1255050Y180000D02*
D03*
X1262950D02*
D03*
X1178121Y285105D02*
D03*
X1170221D02*
D03*
X1166074Y112907D02*
D03*
X1173974D02*
D03*
X1166106Y104848D02*
D03*
X1174007D02*
D03*
D26*
X978000Y35000D02*
D03*
X978565Y89874D02*
D03*
X915382Y168353D02*
D03*
X781995Y132521D02*
D03*
X929453Y168803D02*
D03*
X1073586Y93602D02*
D03*
X1074000Y183000D02*
D03*
X1158000Y60000D02*
D03*
X1208000Y51000D02*
D03*
X1218879Y48978D02*
D03*
X1220000Y61000D02*
D03*
X818000Y154000D02*
D03*
X1309104Y91976D02*
D03*
X1158000Y71000D02*
D03*
X96000Y486000D02*
D03*
X1247900Y281926D02*
D03*
X1035000Y113000D02*
D03*
X926000Y148000D02*
D03*
X1037000Y96000D02*
D03*
X964763Y26769D02*
D03*
X1086000Y142000D02*
D03*
X1098409Y148184D02*
D03*
X1178000Y64000D02*
D03*
D27*
X1044000Y134000D02*
D03*
Y148000D02*
D03*
X911000Y143000D02*
D03*
Y157000D02*
D03*
D28*
X1138100Y40700D02*
D03*
X1112700D02*
D03*
X1087300D02*
D03*
X1061900D02*
D03*
X1036500D02*
D03*
X1188900D02*
D03*
X1163500D02*
D03*
D29*
X1011100D02*
D03*
D30*
X570560Y933030D02*
D03*
X697560Y1053030D02*
D03*
X570560D02*
D03*
X697560Y933030D02*
D03*
X1039040D02*
D03*
X912040Y1053030D02*
D03*
X1039040D02*
D03*
X912040Y933030D02*
D03*
X1082770D02*
D03*
X1209770Y1053030D02*
D03*
X1082770D02*
D03*
X1209770Y933030D02*
D03*
X1380500D02*
D03*
X1253500Y1053030D02*
D03*
X1380500D02*
D03*
X1253500Y933030D02*
D03*
X1424230D02*
D03*
X1551230Y1053030D02*
D03*
X1424230D02*
D03*
X1551230Y933030D02*
D03*
X1721970D02*
D03*
X1594970Y1053030D02*
D03*
X1721970D02*
D03*
X1594970Y933030D02*
D03*
X1765700D02*
D03*
X1892700Y1053030D02*
D03*
X1765700D02*
D03*
X1892700Y933030D02*
D03*
X2063650D02*
D03*
X1936650Y1053030D02*
D03*
X2063650D02*
D03*
X1936650Y933030D02*
D03*
X2107380D02*
D03*
X2234380Y1053030D02*
D03*
X2107380D02*
D03*
X2234380Y933030D02*
D03*
X2404950D02*
D03*
X2277950Y1053030D02*
D03*
X2404950D02*
D03*
X2277950Y933030D02*
D03*
X2448680D02*
D03*
X2575680Y1053030D02*
D03*
X2448680D02*
D03*
X2575680Y933030D02*
D03*
X185370D02*
D03*
X58370Y1053030D02*
D03*
X185370D02*
D03*
X58370Y933030D02*
D03*
X229100D02*
D03*
X356100Y1053030D02*
D03*
X229100D02*
D03*
X356100Y933030D02*
D03*
X526840D02*
D03*
X399840Y1053030D02*
D03*
X526840D02*
D03*
X399840Y933030D02*
D03*
X741300D02*
D03*
X868300Y1053030D02*
D03*
X741300D02*
D03*
X868300Y933030D02*
D03*
X185370Y722300D02*
D03*
X58370Y842300D02*
D03*
X185370D02*
D03*
X58370Y722300D02*
D03*
X229100D02*
D03*
X356100Y842300D02*
D03*
X229100D02*
D03*
X356100Y722300D02*
D03*
X526840D02*
D03*
X399840Y842300D02*
D03*
X526840D02*
D03*
X399840Y722300D02*
D03*
X570560D02*
D03*
X697560Y842300D02*
D03*
X570560D02*
D03*
X697560Y722300D02*
D03*
X868300D02*
D03*
X741300Y842300D02*
D03*
X868300D02*
D03*
X741300Y722300D02*
D03*
X912040D02*
D03*
X1039040Y842300D02*
D03*
X912040D02*
D03*
X1039040Y722300D02*
D03*
X1209770D02*
D03*
X1082770Y842300D02*
D03*
X1209770D02*
D03*
X1082770Y722300D02*
D03*
X1253500D02*
D03*
X1380500Y842300D02*
D03*
X1253500D02*
D03*
X1380500Y722300D02*
D03*
X1551230D02*
D03*
X1424230Y842300D02*
D03*
X1551230D02*
D03*
X1424230Y722300D02*
D03*
X1594970D02*
D03*
X1721970Y842300D02*
D03*
X1594970D02*
D03*
X1721970Y722300D02*
D03*
X1892700D02*
D03*
X1765700Y842300D02*
D03*
X1892700D02*
D03*
X1765700Y722300D02*
D03*
X1936650D02*
D03*
X2063650Y842300D02*
D03*
X1936650D02*
D03*
X2063650Y722300D02*
D03*
X2234380D02*
D03*
X2107380Y842300D02*
D03*
X2234380D02*
D03*
X2107380Y722300D02*
D03*
X2363320D02*
D03*
X2490320Y842300D02*
D03*
X2363320D02*
D03*
X2490320Y722300D02*
D03*
X230740Y552000D02*
D03*
X103740Y672000D02*
D03*
X230740D02*
D03*
X103740Y552000D02*
D03*
X319840D02*
D03*
X446840Y672000D02*
D03*
X319840D02*
D03*
X446840Y552000D02*
D03*
X617570D02*
D03*
X490570Y672000D02*
D03*
X617570D02*
D03*
X490570Y552000D02*
D03*
X661300D02*
D03*
X788300Y672000D02*
D03*
X661300D02*
D03*
X788300Y552000D02*
D03*
X959040D02*
D03*
X832040Y672000D02*
D03*
X959040D02*
D03*
X832040Y552000D02*
D03*
X1002770D02*
D03*
X1129770Y672000D02*
D03*
X1002770D02*
D03*
X1129770Y552000D02*
D03*
X1300500D02*
D03*
X1173500Y672000D02*
D03*
X1300500D02*
D03*
X1173500Y552000D02*
D03*
X1344230D02*
D03*
X1471230Y672000D02*
D03*
X1344230D02*
D03*
X1471230Y552000D02*
D03*
X1641970D02*
D03*
X1514970Y672000D02*
D03*
X1641970D02*
D03*
X1514970Y552000D02*
D03*
X1685700D02*
D03*
X1812700Y672000D02*
D03*
X1685700D02*
D03*
X1812700Y552000D02*
D03*
X1983490D02*
D03*
X1856490Y672000D02*
D03*
X1983490D02*
D03*
X1856490Y552000D02*
D03*
X2027220D02*
D03*
X2154220Y672000D02*
D03*
X2027220D02*
D03*
X2154220Y552000D02*
D03*
X2324950D02*
D03*
X2197950Y672000D02*
D03*
X2324950D02*
D03*
X2197950Y552000D02*
D03*
X2448680Y466640D02*
D03*
X2575680Y586640D02*
D03*
X2448680D02*
D03*
X2575680Y466640D02*
D03*
X264210Y381270D02*
D03*
X137210Y501270D02*
D03*
X264210D02*
D03*
X137210Y381270D02*
D03*
X399840D02*
D03*
X526840Y501270D02*
D03*
X399840D02*
D03*
X526840Y381270D02*
D03*
X697570D02*
D03*
X570570Y501270D02*
D03*
X697570D02*
D03*
X570570Y381270D02*
D03*
X741300D02*
D03*
X868300Y501270D02*
D03*
X741300D02*
D03*
X868300Y381270D02*
D03*
X1039040D02*
D03*
X912040Y501270D02*
D03*
X1039040D02*
D03*
X912040Y381270D02*
D03*
X1082770D02*
D03*
X1209770Y501270D02*
D03*
X1082770D02*
D03*
X1209770Y381270D02*
D03*
X1380500D02*
D03*
X1253500Y501270D02*
D03*
X1380500D02*
D03*
X1253500Y381270D02*
D03*
X1424230D02*
D03*
X1551230Y501270D02*
D03*
X1424230D02*
D03*
X1551230Y381270D02*
D03*
X1721970D02*
D03*
X1594970Y501270D02*
D03*
X1721970D02*
D03*
X1594970Y381270D02*
D03*
X1765700D02*
D03*
X1892700Y501270D02*
D03*
X1765700D02*
D03*
X1892700Y381270D02*
D03*
X2063430D02*
D03*
X1936430Y501270D02*
D03*
X2063430D02*
D03*
X1936430Y381270D02*
D03*
X2107170D02*
D03*
X2234170Y501270D02*
D03*
X2107170D02*
D03*
X2234170Y381270D02*
D03*
X2404950D02*
D03*
X2277950Y501270D02*
D03*
X2404950D02*
D03*
X2277950Y381270D02*
D03*
X103740Y210540D02*
D03*
X230740Y330540D02*
D03*
X103740D02*
D03*
X230740Y210540D02*
D03*
X446840D02*
D03*
X319840Y330540D02*
D03*
X446840D02*
D03*
X319840Y210540D02*
D03*
X490570D02*
D03*
X617570Y330540D02*
D03*
X490570D02*
D03*
X617570Y210540D02*
D03*
X788300D02*
D03*
X661300Y330540D02*
D03*
X788300D02*
D03*
X661300Y210540D02*
D03*
X832040D02*
D03*
X959040Y330540D02*
D03*
X832040D02*
D03*
X959040Y210540D02*
D03*
X1129770D02*
D03*
X1002770Y330540D02*
D03*
X1129770D02*
D03*
X1002770Y210540D02*
D03*
X1173500D02*
D03*
X1300500Y330540D02*
D03*
X1173500D02*
D03*
X1300500Y210540D02*
D03*
X1471230D02*
D03*
X1344230Y330540D02*
D03*
X1471230D02*
D03*
X1344230Y210540D02*
D03*
X1514970D02*
D03*
X1641970Y330540D02*
D03*
X1514970D02*
D03*
X1641970Y210540D02*
D03*
X1812700D02*
D03*
X1685700Y330540D02*
D03*
X1812700D02*
D03*
X1685700Y210540D02*
D03*
X1856430D02*
D03*
X1983430Y330540D02*
D03*
X1856430D02*
D03*
X1983430Y210540D02*
D03*
X2154170D02*
D03*
X2027170Y330540D02*
D03*
X2154170D02*
D03*
X2027170Y210540D02*
D03*
X2323320D02*
D03*
X2450320Y330540D02*
D03*
X2323320D02*
D03*
X2450320Y210540D02*
D03*
X185370Y39800D02*
D03*
X58370Y159800D02*
D03*
X185370D02*
D03*
X58370Y39800D02*
D03*
X229100D02*
D03*
X356100Y159800D02*
D03*
X229100D02*
D03*
X356100Y39800D02*
D03*
X526840D02*
D03*
X399840Y159800D02*
D03*
X526840D02*
D03*
X399840Y39800D02*
D03*
X570570D02*
D03*
X697570Y159800D02*
D03*
X570570D02*
D03*
X697570Y39800D02*
D03*
X1549790D02*
D03*
X1422790Y159800D02*
D03*
X1549790D02*
D03*
X1422790Y39800D02*
D03*
X1595020D02*
D03*
X1722020Y159800D02*
D03*
X1595020D02*
D03*
X1722020Y39800D02*
D03*
X1892750D02*
D03*
X1765750Y159800D02*
D03*
X1892750D02*
D03*
X1765750Y39800D02*
D03*
X1936490D02*
D03*
X2063490Y159800D02*
D03*
X1936490D02*
D03*
X2063490Y39800D02*
D03*
X2234220D02*
D03*
X2107220Y159800D02*
D03*
X2234220D02*
D03*
X2107220Y39800D02*
D03*
X2277950D02*
D03*
X2404950Y159800D02*
D03*
X2277950D02*
D03*
X2404950Y39800D02*
D03*
X2575680D02*
D03*
X2448680Y159800D02*
D03*
X2575680D02*
D03*
X2448680Y39800D02*
D03*
X742790D02*
D03*
X869790Y159800D02*
D03*
X742790D02*
D03*
X869790Y39800D02*
D03*
D31*
X692060Y1020530D02*
D03*
X1033540D02*
D03*
X1204270D02*
D03*
X1375000D02*
D03*
X1545730D02*
D03*
X1716470D02*
D03*
X1887200D02*
D03*
X2058150D02*
D03*
X2228880D02*
D03*
X2399450D02*
D03*
X2570180D02*
D03*
X179870D02*
D03*
X350600D02*
D03*
X521340D02*
D03*
X862800D02*
D03*
X179870Y809800D02*
D03*
X350600D02*
D03*
X521340D02*
D03*
X692060D02*
D03*
X862800D02*
D03*
X1033540D02*
D03*
X1204270D02*
D03*
X1375000D02*
D03*
X1545730D02*
D03*
X1716470D02*
D03*
X1887200D02*
D03*
X2058150D02*
D03*
X2228880D02*
D03*
X2484820D02*
D03*
X225240Y639500D02*
D03*
X441340D02*
D03*
X612070D02*
D03*
X782800D02*
D03*
X953540D02*
D03*
X1124270D02*
D03*
X1295000D02*
D03*
X1465730D02*
D03*
X1636470D02*
D03*
X1807200D02*
D03*
X1977990D02*
D03*
X2148720D02*
D03*
X2319450D02*
D03*
X2570180Y554140D02*
D03*
X258710Y468770D02*
D03*
X521340D02*
D03*
X692070D02*
D03*
X862800D02*
D03*
X1033540D02*
D03*
X1204270D02*
D03*
X1375000D02*
D03*
X1545730D02*
D03*
X1716470D02*
D03*
X1887200D02*
D03*
X2057930D02*
D03*
X2228670D02*
D03*
X2399450D02*
D03*
X225240Y298040D02*
D03*
X441340D02*
D03*
X612070D02*
D03*
X782800D02*
D03*
X953540D02*
D03*
X1124270D02*
D03*
X1295000D02*
D03*
X1465730D02*
D03*
X1636470D02*
D03*
X1807200D02*
D03*
X1977930D02*
D03*
X2148670D02*
D03*
X2444820D02*
D03*
X179870Y127300D02*
D03*
X350600D02*
D03*
X521340D02*
D03*
X692070D02*
D03*
X1544290D02*
D03*
X1716520D02*
D03*
X1887250D02*
D03*
X2057990D02*
D03*
X2228720D02*
D03*
X2399450D02*
D03*
X2570180D02*
D03*
X864290D02*
D03*
D32*
X576060Y965530D02*
D03*
X917540D02*
D03*
X1088270D02*
D03*
X1259000D02*
D03*
X1429730D02*
D03*
X1600470D02*
D03*
X1771200D02*
D03*
X1942150D02*
D03*
X2112880D02*
D03*
X2283450D02*
D03*
X2454180D02*
D03*
X63870D02*
D03*
X234600D02*
D03*
X405340D02*
D03*
X746800D02*
D03*
X63870Y754800D02*
D03*
X234600D02*
D03*
X405340D02*
D03*
X576060D02*
D03*
X746800D02*
D03*
X917540D02*
D03*
X1088270D02*
D03*
X1259000D02*
D03*
X1429730D02*
D03*
X1600470D02*
D03*
X1771200D02*
D03*
X1942150D02*
D03*
X2112880D02*
D03*
X2368820D02*
D03*
X109240Y584500D02*
D03*
X325340D02*
D03*
X496070D02*
D03*
X666800D02*
D03*
X837540D02*
D03*
X1008270D02*
D03*
X1179000D02*
D03*
X1349730D02*
D03*
X1520470D02*
D03*
X1691200D02*
D03*
X1861990D02*
D03*
X2032720D02*
D03*
X2203450D02*
D03*
X2454180Y499140D02*
D03*
X142710Y413770D02*
D03*
X405340D02*
D03*
X576070D02*
D03*
X746800D02*
D03*
X917540D02*
D03*
X1088270D02*
D03*
X1259000D02*
D03*
X1429730D02*
D03*
X1600470D02*
D03*
X1771200D02*
D03*
X1941930D02*
D03*
X2112670D02*
D03*
X2283450D02*
D03*
X109240Y243040D02*
D03*
X325340D02*
D03*
X496070D02*
D03*
X666800D02*
D03*
X837540D02*
D03*
X1008270D02*
D03*
X1179000D02*
D03*
X1349730D02*
D03*
X1520470D02*
D03*
X1691200D02*
D03*
X1861930D02*
D03*
X2032670D02*
D03*
X2328820D02*
D03*
X63870Y72300D02*
D03*
X234600D02*
D03*
X405340D02*
D03*
X576070D02*
D03*
X1428290D02*
D03*
X1600520D02*
D03*
X1771250D02*
D03*
X1941990D02*
D03*
X2112720D02*
D03*
X2283450D02*
D03*
X2454180D02*
D03*
X748290D02*
D03*
D33*
X659060Y965530D02*
D03*
X609060D02*
D03*
X950540D02*
D03*
X1000540D02*
D03*
X1171270D02*
D03*
X1121270D02*
D03*
X1292000D02*
D03*
X1342000D02*
D03*
X1512730D02*
D03*
X1462730D02*
D03*
X1633470D02*
D03*
X1683470D02*
D03*
X1854200D02*
D03*
X1804200D02*
D03*
X1975150D02*
D03*
X2025150D02*
D03*
X2195880D02*
D03*
X2145880D02*
D03*
X2316450D02*
D03*
X2366450D02*
D03*
X2537180D02*
D03*
X2487180D02*
D03*
X96870D02*
D03*
X146870D02*
D03*
X317600D02*
D03*
X267600D02*
D03*
X438340D02*
D03*
X488340D02*
D03*
X829800D02*
D03*
X779800D02*
D03*
X96870Y754800D02*
D03*
X146870D02*
D03*
X317600D02*
D03*
X267600D02*
D03*
X438340D02*
D03*
X488340D02*
D03*
X659060D02*
D03*
X609060D02*
D03*
X779800D02*
D03*
X829800D02*
D03*
X1000540D02*
D03*
X950540D02*
D03*
X1121270D02*
D03*
X1171270D02*
D03*
X1342000D02*
D03*
X1292000D02*
D03*
X1462730D02*
D03*
X1512730D02*
D03*
X1683470D02*
D03*
X1633470D02*
D03*
X1804200D02*
D03*
X1854200D02*
D03*
X2025150D02*
D03*
X1975150D02*
D03*
X2145880D02*
D03*
X2195880D02*
D03*
X2451820D02*
D03*
X2401820D02*
D03*
X142240Y584500D02*
D03*
X192240D02*
D03*
X408340D02*
D03*
X358340D02*
D03*
X529070D02*
D03*
X579070D02*
D03*
X749800D02*
D03*
X699800D02*
D03*
X870540D02*
D03*
X920540D02*
D03*
X1091270D02*
D03*
X1041270D02*
D03*
X1212000D02*
D03*
X1262000D02*
D03*
X1432730D02*
D03*
X1382730D02*
D03*
X1553470D02*
D03*
X1603470D02*
D03*
X1774200D02*
D03*
X1724200D02*
D03*
X1894990D02*
D03*
X1944990D02*
D03*
X2115720D02*
D03*
X2065720D02*
D03*
X2236450D02*
D03*
X2286450D02*
D03*
X2537180Y499140D02*
D03*
X2487180D02*
D03*
X175710Y413770D02*
D03*
X225710D02*
D03*
X488340D02*
D03*
X438340D02*
D03*
X609070D02*
D03*
X659070D02*
D03*
X829800D02*
D03*
X779800D02*
D03*
X950540D02*
D03*
X1000540D02*
D03*
X1171270D02*
D03*
X1121270D02*
D03*
X1292000D02*
D03*
X1342000D02*
D03*
X1512730D02*
D03*
X1462730D02*
D03*
X1633470D02*
D03*
X1683470D02*
D03*
X1854200D02*
D03*
X1804200D02*
D03*
X1974930D02*
D03*
X2024930D02*
D03*
X2195670D02*
D03*
X2145670D02*
D03*
X2316450D02*
D03*
X2366450D02*
D03*
X192240Y243040D02*
D03*
X142240D02*
D03*
X358340D02*
D03*
X408340D02*
D03*
X579070D02*
D03*
X529070D02*
D03*
X699800D02*
D03*
X749800D02*
D03*
X920540D02*
D03*
X870540D02*
D03*
X1041270D02*
D03*
X1091270D02*
D03*
X1262000D02*
D03*
X1212000D02*
D03*
X1382730D02*
D03*
X1432730D02*
D03*
X1603470D02*
D03*
X1553470D02*
D03*
X1724200D02*
D03*
X1774200D02*
D03*
X1944930D02*
D03*
X1894930D02*
D03*
X2065670D02*
D03*
X2115670D02*
D03*
X2411820D02*
D03*
X2361820D02*
D03*
X96870Y72300D02*
D03*
X146870D02*
D03*
X317600D02*
D03*
X267600D02*
D03*
X438340D02*
D03*
X488340D02*
D03*
X659070D02*
D03*
X609070D02*
D03*
X1461290D02*
D03*
X1511290D02*
D03*
X1683520D02*
D03*
X1633520D02*
D03*
X1804250D02*
D03*
X1854250D02*
D03*
X2024990D02*
D03*
X1974990D02*
D03*
X2145720D02*
D03*
X2195720D02*
D03*
X2366450D02*
D03*
X2316450D02*
D03*
X2487180D02*
D03*
X2537180D02*
D03*
X831290D02*
D03*
X781290D02*
D03*
D34*
X2615050Y980490D02*
D03*
Y112790D02*
D03*
X1717030Y1098890D02*
D03*
X917030D02*
D03*
X1717030Y-6060D02*
D03*
X917030D02*
D03*
X19000Y980490D02*
D03*
Y119640D02*
D03*
D35*
X418000Y102000D02*
D03*
X828000Y163000D02*
D03*
X990000Y111000D02*
D03*
X1238670Y110080D02*
D03*
Y121080D02*
D03*
Y132080D02*
D03*
X1227670Y110080D02*
D03*
Y121080D02*
D03*
Y132080D02*
D03*
X1216670Y110080D02*
D03*
Y121080D02*
D03*
Y132080D02*
D03*
D77*
X880417Y89750D02*
D03*
Y76250D02*
D03*
X869000Y89750D02*
D03*
Y76250D02*
D03*
X958143Y121250D02*
D03*
Y134750D02*
D03*
X906000Y57250D02*
D03*
Y70750D02*
D03*
D78*
X915750Y117000D02*
D03*
X902250D02*
D03*
X1176921Y82634D02*
D03*
X1163421D02*
D03*
X1176887Y94771D02*
D03*
X1163387D02*
D03*
D79*
X916000Y102000D02*
D03*
X901500D02*
D03*
X1094750Y115000D02*
D03*
X1109250D02*
D03*
X1086595Y68664D02*
D03*
X1101095D02*
D03*
D80*
X921000Y55750D02*
D03*
Y70250D02*
D03*
D81*
X952527Y54791D02*
D03*
Y79791D02*
D03*
D82*
X1227670Y121080D02*
D03*
D83*
X1193295Y147080D02*
D03*
Y143080D02*
D03*
Y139080D02*
D03*
Y135080D02*
D03*
Y131080D02*
D03*
Y127080D02*
D03*
Y123080D02*
D03*
Y119080D02*
D03*
Y115080D02*
D03*
Y111080D02*
D03*
Y107080D02*
D03*
Y103080D02*
D03*
Y99080D02*
D03*
Y95080D02*
D03*
X1262045D02*
D03*
Y99080D02*
D03*
Y103080D02*
D03*
Y107080D02*
D03*
Y111080D02*
D03*
Y115080D02*
D03*
Y119080D02*
D03*
Y123080D02*
D03*
Y127080D02*
D03*
Y131080D02*
D03*
Y135080D02*
D03*
Y139080D02*
D03*
Y143080D02*
D03*
Y147080D02*
D03*
D84*
X1201670Y86705D02*
D03*
X1205670D02*
D03*
X1209670D02*
D03*
X1213670D02*
D03*
X1217670D02*
D03*
X1221670D02*
D03*
X1225670D02*
D03*
X1229670D02*
D03*
X1233670D02*
D03*
X1237670D02*
D03*
X1241670D02*
D03*
X1245670D02*
D03*
X1249670D02*
D03*
X1253670D02*
D03*
Y155455D02*
D03*
X1249670D02*
D03*
X1245670D02*
D03*
X1241670D02*
D03*
X1237670D02*
D03*
X1233670D02*
D03*
X1229670D02*
D03*
X1225670D02*
D03*
X1221670D02*
D03*
X1217670D02*
D03*
X1213670D02*
D03*
X1209670D02*
D03*
X1205670D02*
D03*
X1201670D02*
D03*
D85*
X1363500Y120000D02*
D03*
Y142000D02*
D03*
X1326500Y120000D02*
D03*
Y142000D02*
D03*
D86*
X1328476Y77348D02*
D03*
X1368476D02*
D03*
X1358476D02*
D03*
X1348476D02*
D03*
X1338476D02*
D03*
D87*
X1378976Y38598D02*
D03*
X1317976D02*
D03*
D88*
X1061830Y286594D02*
D03*
X1054830D02*
D03*
X1262403Y205414D02*
D03*
X1255403D02*
D03*
X1328002Y275423D02*
D03*
X1321002D02*
D03*
X1301500Y275750D02*
D03*
X1308500D02*
D03*
X1352591Y161365D02*
D03*
X1359591D02*
D03*
X1352591Y173301D02*
D03*
X1359591D02*
D03*
X1283519Y163818D02*
D03*
X1276519D02*
D03*
X1061830Y298783D02*
D03*
X1054830D02*
D03*
X1096927Y295982D02*
D03*
X1089927D02*
D03*
X1146000Y283696D02*
D03*
X1139000D02*
D03*
X1146000Y271483D02*
D03*
X1139000D02*
D03*
X1146000Y259370D02*
D03*
X1139000D02*
D03*
X1146000Y247316D02*
D03*
X1139000D02*
D03*
D89*
X1243547Y339560D02*
D03*
Y332560D02*
D03*
X1398756Y206002D02*
D03*
Y199002D02*
D03*
X1288268Y22819D02*
D03*
Y29819D02*
D03*
X1288270Y44946D02*
D03*
Y37946D02*
D03*
Y53094D02*
D03*
Y60094D02*
D03*
X1288224Y75226D02*
D03*
Y68226D02*
D03*
X1288257Y83513D02*
D03*
Y90513D02*
D03*
X1227041Y296149D02*
D03*
Y303149D02*
D03*
D90*
X1125500Y163950D02*
D03*
X1130500D02*
D03*
X1135500D02*
D03*
X1140500D02*
D03*
X1125500Y136050D02*
D03*
X1130500D02*
D03*
X1135500D02*
D03*
X1140500D02*
D03*
D91*
X1133000Y150000D02*
D03*
D92*
X1072500Y123000D02*
D03*
X1066000D02*
D03*
X1059500D02*
D03*
X1072500Y145000D02*
D03*
X1066000D02*
D03*
X1059500D02*
D03*
X985500Y140000D02*
D03*
X979000D02*
D03*
X972500D02*
D03*
X985500Y162000D02*
D03*
X979000D02*
D03*
X972500D02*
D03*
D93*
X944000Y120500D02*
D03*
Y115500D02*
D03*
Y110500D02*
D03*
Y105500D02*
D03*
X930000Y120500D02*
D03*
Y115500D02*
D03*
Y110500D02*
D03*
Y105500D02*
D03*
D94*
X829147Y131084D02*
D03*
X835647D02*
D03*
X842147D02*
D03*
X829147Y109084D02*
D03*
X835647D02*
D03*
X842147D02*
D03*
M02*
