G04*
G04 #@! TF.GenerationSoftware,Altium Limited,Altium Designer,24.2.2 (26)*
G04*
G04 Layer_Color=8421504*
%FSLAX44Y44*%
%MOMM*%
G71*
G04*
G04 #@! TF.SameCoordinates,2B7E99FB-4F0D-402E-9D71-9E8D4FD60802*
G04*
G04*
G04 #@! TF.FilePolarity,Positive*
G04*
G01*
G75*
%ADD12R,0.4800X0.3800*%
%ADD13R,0.3800X0.4800*%
%ADD14R,0.5500X0.5500*%
%ADD15R,0.8000X0.8000*%
%ADD16R,0.5500X0.3000*%
%ADD17R,0.3000X0.4000*%
%ADD18R,0.8000X0.6000*%
D12*
X1510890Y120050D02*
D03*
Y127950D02*
D03*
X1683120Y120050D02*
D03*
Y127950D02*
D03*
X1853850Y120050D02*
D03*
Y127950D02*
D03*
X2024590Y120050D02*
D03*
Y127950D02*
D03*
X2195320Y120050D02*
D03*
Y127950D02*
D03*
X2366050Y120050D02*
D03*
Y127950D02*
D03*
X2536780Y120050D02*
D03*
Y127950D02*
D03*
X2411420Y290790D02*
D03*
Y298690D02*
D03*
X2115270Y290790D02*
D03*
Y298690D02*
D03*
X1944530Y290790D02*
D03*
Y298690D02*
D03*
X1773800Y290790D02*
D03*
Y298690D02*
D03*
X1603070Y290790D02*
D03*
Y298690D02*
D03*
X1432330Y290790D02*
D03*
Y298690D02*
D03*
X1261600Y290790D02*
D03*
Y298690D02*
D03*
X1090870Y290790D02*
D03*
Y298690D02*
D03*
X920140Y290790D02*
D03*
Y298690D02*
D03*
X749400Y290790D02*
D03*
Y298690D02*
D03*
X578670Y290790D02*
D03*
Y298690D02*
D03*
X407940Y290790D02*
D03*
Y298690D02*
D03*
X487940Y461520D02*
D03*
Y469420D02*
D03*
X658670Y461520D02*
D03*
Y469420D02*
D03*
X829400Y461520D02*
D03*
Y469420D02*
D03*
X1170870Y461520D02*
D03*
Y469420D02*
D03*
X1000140Y461520D02*
D03*
Y469420D02*
D03*
X1341600Y461520D02*
D03*
Y469420D02*
D03*
X1512330Y461520D02*
D03*
Y469420D02*
D03*
X1683070Y461520D02*
D03*
Y469420D02*
D03*
X1853800Y461520D02*
D03*
Y469420D02*
D03*
X2024530Y461520D02*
D03*
Y469420D02*
D03*
X2195270Y461520D02*
D03*
Y469420D02*
D03*
X2366050Y461520D02*
D03*
Y469420D02*
D03*
X2536780Y548050D02*
D03*
Y555950D02*
D03*
X2286050Y632250D02*
D03*
Y640150D02*
D03*
X2115320Y632250D02*
D03*
Y640150D02*
D03*
X1944590Y632250D02*
D03*
Y640150D02*
D03*
X1603070Y632250D02*
D03*
Y640150D02*
D03*
X1432330Y632250D02*
D03*
Y640150D02*
D03*
X1261600Y632250D02*
D03*
Y640150D02*
D03*
X1773800Y632250D02*
D03*
Y640150D02*
D03*
X1090870Y632250D02*
D03*
Y640150D02*
D03*
X920140Y632250D02*
D03*
Y640150D02*
D03*
X749400Y632250D02*
D03*
Y640150D02*
D03*
X578670Y632250D02*
D03*
Y640150D02*
D03*
X407940Y632250D02*
D03*
Y640150D02*
D03*
X488000Y802320D02*
D03*
Y810220D02*
D03*
X318000Y802320D02*
D03*
Y810220D02*
D03*
X659000Y802320D02*
D03*
Y810220D02*
D03*
X830000Y802320D02*
D03*
Y810220D02*
D03*
X1000000Y802320D02*
D03*
Y810220D02*
D03*
X1170320Y802335D02*
D03*
Y810235D02*
D03*
X1343000Y802320D02*
D03*
Y810220D02*
D03*
X1512000Y802320D02*
D03*
Y810220D02*
D03*
X1683000Y802320D02*
D03*
Y810220D02*
D03*
X1855000Y802320D02*
D03*
Y810220D02*
D03*
X2026000Y802320D02*
D03*
Y810220D02*
D03*
X2196000Y802320D02*
D03*
Y810220D02*
D03*
X2452000Y802320D02*
D03*
Y810220D02*
D03*
X2536620Y1013050D02*
D03*
Y1020950D02*
D03*
X2366050Y1013050D02*
D03*
Y1020950D02*
D03*
X2195450Y1013050D02*
D03*
Y1020950D02*
D03*
X2024620Y1013050D02*
D03*
Y1020950D02*
D03*
X1853620Y1013050D02*
D03*
Y1020950D02*
D03*
X1682940Y1013050D02*
D03*
Y1020950D02*
D03*
X1512340Y1013050D02*
D03*
Y1020950D02*
D03*
X1341620Y1013050D02*
D03*
Y1020950D02*
D03*
X1170790Y1013050D02*
D03*
Y1020950D02*
D03*
X1000130Y1013050D02*
D03*
Y1020950D02*
D03*
X829290Y1013050D02*
D03*
Y1020950D02*
D03*
X658620Y1013050D02*
D03*
Y1020950D02*
D03*
X487980Y1013050D02*
D03*
Y1020950D02*
D03*
X317170Y1013050D02*
D03*
Y1020950D02*
D03*
X146470Y1013050D02*
D03*
Y1020950D02*
D03*
Y802320D02*
D03*
Y810220D02*
D03*
X191840Y632250D02*
D03*
Y640150D02*
D03*
X225310Y461520D02*
D03*
Y469420D02*
D03*
X191840Y290790D02*
D03*
Y298690D02*
D03*
X146470Y120050D02*
D03*
Y127950D02*
D03*
X317200Y120050D02*
D03*
Y127950D02*
D03*
X487940Y120050D02*
D03*
Y127950D02*
D03*
X658670Y120050D02*
D03*
Y127950D02*
D03*
X830890Y120050D02*
D03*
Y127950D02*
D03*
X2509448Y1028857D02*
D03*
Y1020957D02*
D03*
X2383586Y306131D02*
D03*
Y298231D02*
D03*
X1813077Y1019050D02*
D03*
Y1026950D02*
D03*
X788000Y1020050D02*
D03*
Y1027950D02*
D03*
X104000Y808050D02*
D03*
Y815950D02*
D03*
Y119050D02*
D03*
Y126950D02*
D03*
D13*
X1493240Y115770D02*
D03*
X1501140D02*
D03*
X1756150Y286000D02*
D03*
X1764050D02*
D03*
X641020Y457000D02*
D03*
X648920D02*
D03*
X2348400D02*
D03*
X2356300D02*
D03*
X902490Y627970D02*
D03*
X910390D02*
D03*
X1323611Y797889D02*
D03*
X1331511D02*
D03*
X2006970Y1008644D02*
D03*
X2014870D02*
D03*
X299520Y1008436D02*
D03*
X307420D02*
D03*
X1665470Y115770D02*
D03*
X1673370D02*
D03*
X1585420Y286000D02*
D03*
X1593320D02*
D03*
X811750Y457000D02*
D03*
X819650D02*
D03*
X2519130Y542610D02*
D03*
X2527030D02*
D03*
X731750Y627970D02*
D03*
X739650D02*
D03*
X1494690Y798000D02*
D03*
X1502590D02*
D03*
X1835970Y1009000D02*
D03*
X1843870D02*
D03*
X128820D02*
D03*
X136720D02*
D03*
X1836200Y115770D02*
D03*
X1844100D02*
D03*
X1414680Y286000D02*
D03*
X1422580D02*
D03*
X982490Y457000D02*
D03*
X990390D02*
D03*
X2268400Y627970D02*
D03*
X2276300D02*
D03*
X561020D02*
D03*
X568920D02*
D03*
X1665290Y798000D02*
D03*
X1673190D02*
D03*
X1665290Y1009000D02*
D03*
X1673190D02*
D03*
X128820Y798270D02*
D03*
X136720D02*
D03*
X2006940Y115770D02*
D03*
X2014840D02*
D03*
X1243950Y285926D02*
D03*
X1251850D02*
D03*
X1153220Y457000D02*
D03*
X1161120D02*
D03*
X2097670Y627970D02*
D03*
X2105570D02*
D03*
X390290D02*
D03*
X398190D02*
D03*
X1835970Y798000D02*
D03*
X1843870D02*
D03*
X1494690Y1009000D02*
D03*
X1502590D02*
D03*
X174190Y627970D02*
D03*
X182090D02*
D03*
X2177670Y115770D02*
D03*
X2185570D02*
D03*
X1073220Y286355D02*
D03*
X1081120D02*
D03*
X1323950Y457000D02*
D03*
X1331850D02*
D03*
X1926940Y627970D02*
D03*
X1934840D02*
D03*
X299520Y797762D02*
D03*
X307420D02*
D03*
X2005050Y798000D02*
D03*
X2012950D02*
D03*
X1323970Y1009000D02*
D03*
X1331870D02*
D03*
X207660Y457000D02*
D03*
X215560D02*
D03*
X2348400Y115770D02*
D03*
X2356300D02*
D03*
X902490Y285993D02*
D03*
X910390D02*
D03*
X1494680Y457000D02*
D03*
X1502580D02*
D03*
X1756150Y627970D02*
D03*
X1764050D02*
D03*
X470310Y798000D02*
D03*
X478210D02*
D03*
X2177800Y798154D02*
D03*
X2185700D02*
D03*
X1153140Y1009074D02*
D03*
X1161040D02*
D03*
X174190Y286510D02*
D03*
X182090D02*
D03*
X2519130Y115770D02*
D03*
X2527030D02*
D03*
X731750Y286015D02*
D03*
X739650D02*
D03*
X1665420Y457000D02*
D03*
X1673320D02*
D03*
X1585420Y627970D02*
D03*
X1593320D02*
D03*
X640970Y797818D02*
D03*
X648870D02*
D03*
X2433610Y797987D02*
D03*
X2441510D02*
D03*
X982480Y1009000D02*
D03*
X990380D02*
D03*
X128820Y115770D02*
D03*
X136720D02*
D03*
X2393770Y286000D02*
D03*
X2401670D02*
D03*
X561020D02*
D03*
X568920D02*
D03*
X1836150Y457000D02*
D03*
X1844050D02*
D03*
X1414680Y627970D02*
D03*
X1422580D02*
D03*
X810855Y797770D02*
D03*
X818755D02*
D03*
X2518970Y1008500D02*
D03*
X2526870D02*
D03*
X811640Y1009000D02*
D03*
X819540D02*
D03*
X299550Y115770D02*
D03*
X307450D02*
D03*
X2097620Y286000D02*
D03*
X2105520D02*
D03*
X390290D02*
D03*
X398190D02*
D03*
X2006880Y457000D02*
D03*
X2014780D02*
D03*
X1243950Y627970D02*
D03*
X1251850D02*
D03*
X982480Y798000D02*
D03*
X990380D02*
D03*
X2348400Y1009000D02*
D03*
X2356300D02*
D03*
X640970Y1008917D02*
D03*
X648870D02*
D03*
X470290Y115770D02*
D03*
X478190D02*
D03*
X1926880Y286000D02*
D03*
X1934780D02*
D03*
X470290Y457000D02*
D03*
X478190D02*
D03*
X2177620D02*
D03*
X2185520D02*
D03*
X1073220Y627970D02*
D03*
X1081120D02*
D03*
X1153140Y798000D02*
D03*
X1161040D02*
D03*
X2177800Y1008439D02*
D03*
X2185700D02*
D03*
X470310Y1009000D02*
D03*
X478210D02*
D03*
X641020Y115770D02*
D03*
X648920D02*
D03*
X821140Y115770D02*
D03*
X813240D02*
D03*
D14*
X1674162Y134520D02*
D03*
X1664662D02*
D03*
X1674178Y125084D02*
D03*
X1664678Y125020D02*
D03*
X1594112Y305260D02*
D03*
X1584612D02*
D03*
X1594128Y295824D02*
D03*
X1584628Y295760D02*
D03*
X820442Y475990D02*
D03*
X810942D02*
D03*
X820458Y466554D02*
D03*
X810958Y466490D02*
D03*
X2527822Y561360D02*
D03*
X2518322D02*
D03*
X2527838Y551924D02*
D03*
X2518338Y551860D02*
D03*
X740442Y646720D02*
D03*
X730942D02*
D03*
X740458Y637284D02*
D03*
X730958Y637220D02*
D03*
X1503382Y817020D02*
D03*
X1493882D02*
D03*
X1503398Y807584D02*
D03*
X1493898Y807520D02*
D03*
X1844842Y1027750D02*
D03*
X1835342D02*
D03*
X1844858Y1018314D02*
D03*
X1835358Y1018250D02*
D03*
X137512Y1027750D02*
D03*
X128012D02*
D03*
X137528Y1018314D02*
D03*
X128028Y1018250D02*
D03*
X1844892Y134520D02*
D03*
X1835392D02*
D03*
X1844908Y125084D02*
D03*
X1835408Y125020D02*
D03*
X1423372Y305260D02*
D03*
X1413872D02*
D03*
X1423388Y295824D02*
D03*
X1413888Y295760D02*
D03*
X991182Y475990D02*
D03*
X981682D02*
D03*
X991198Y466554D02*
D03*
X981698Y466490D02*
D03*
X2277092Y646720D02*
D03*
X2267592D02*
D03*
X2277108Y637284D02*
D03*
X2267608Y637220D02*
D03*
X569712Y646720D02*
D03*
X560212D02*
D03*
X569728Y637284D02*
D03*
X560228Y637220D02*
D03*
X1673982Y817020D02*
D03*
X1664482D02*
D03*
X1673998Y807584D02*
D03*
X1664498Y807520D02*
D03*
X1674112Y1027750D02*
D03*
X1664612D02*
D03*
X1674128Y1018314D02*
D03*
X1664628Y1018250D02*
D03*
X137512Y817020D02*
D03*
X128012D02*
D03*
X137528Y807584D02*
D03*
X128028Y807520D02*
D03*
X2015632Y134520D02*
D03*
X2006132D02*
D03*
X2015648Y125084D02*
D03*
X2006148Y125020D02*
D03*
X1252642Y305260D02*
D03*
X1243142D02*
D03*
X1252658Y295824D02*
D03*
X1243158Y295760D02*
D03*
X1161912Y475990D02*
D03*
X1152412D02*
D03*
X1161928Y466554D02*
D03*
X1152428Y466490D02*
D03*
X2106362Y646720D02*
D03*
X2096862D02*
D03*
X2106378Y637284D02*
D03*
X2096878Y637220D02*
D03*
X398982Y646720D02*
D03*
X389482D02*
D03*
X398998Y637284D02*
D03*
X389498Y637220D02*
D03*
X1844662Y817020D02*
D03*
X1835162D02*
D03*
X1844678Y807584D02*
D03*
X1835178Y807520D02*
D03*
X1503382Y1027750D02*
D03*
X1493882D02*
D03*
X1503398Y1018314D02*
D03*
X1493898Y1018250D02*
D03*
X182882Y646720D02*
D03*
X173382D02*
D03*
X182898Y637284D02*
D03*
X173398Y637220D02*
D03*
X2186362Y134520D02*
D03*
X2176862D02*
D03*
X2186378Y125084D02*
D03*
X2176878Y125020D02*
D03*
X1081912Y305260D02*
D03*
X1072412D02*
D03*
X1081928Y295824D02*
D03*
X1072428Y295760D02*
D03*
X1332642Y475990D02*
D03*
X1323142D02*
D03*
X1332658Y466554D02*
D03*
X1323158Y466490D02*
D03*
X1935632Y646720D02*
D03*
X1926132D02*
D03*
X1935648Y637284D02*
D03*
X1926148Y637220D02*
D03*
X308212Y817020D02*
D03*
X298712D02*
D03*
X308228Y807584D02*
D03*
X298728Y807520D02*
D03*
X2015662Y817020D02*
D03*
X2006162D02*
D03*
X2015678Y807584D02*
D03*
X2006178Y807520D02*
D03*
X1332662Y1027750D02*
D03*
X1323162D02*
D03*
X1332678Y1018314D02*
D03*
X1323178Y1018250D02*
D03*
X216392Y475990D02*
D03*
X206892D02*
D03*
X216408Y466554D02*
D03*
X206908Y466490D02*
D03*
X2357092Y134520D02*
D03*
X2347592D02*
D03*
X2357108Y125084D02*
D03*
X2347608Y125020D02*
D03*
X911182Y305260D02*
D03*
X901682D02*
D03*
X911198Y295824D02*
D03*
X901698Y295760D02*
D03*
X1503372Y475990D02*
D03*
X1493872D02*
D03*
X1503388Y466554D02*
D03*
X1493888Y466490D02*
D03*
X1764842Y646720D02*
D03*
X1755342D02*
D03*
X1764858Y637284D02*
D03*
X1755358Y637220D02*
D03*
X479002Y817020D02*
D03*
X469502D02*
D03*
X479018Y807584D02*
D03*
X469518Y807520D02*
D03*
X2186492Y817020D02*
D03*
X2176992D02*
D03*
X2186508Y807584D02*
D03*
X2177008Y807520D02*
D03*
X1161832Y1027750D02*
D03*
X1152332D02*
D03*
X1161848Y1018314D02*
D03*
X1152348Y1018250D02*
D03*
X182882Y305260D02*
D03*
X173382D02*
D03*
X182898Y295824D02*
D03*
X173398Y295760D02*
D03*
X2527822Y134520D02*
D03*
X2518322D02*
D03*
X2527838Y125084D02*
D03*
X2518338Y125020D02*
D03*
X740442Y305260D02*
D03*
X730942D02*
D03*
X740458Y295824D02*
D03*
X730958Y295760D02*
D03*
X1674112Y475990D02*
D03*
X1664612D02*
D03*
X1674128Y466554D02*
D03*
X1664628Y466490D02*
D03*
X1594112Y646720D02*
D03*
X1584612D02*
D03*
X1594128Y637284D02*
D03*
X1584628Y637220D02*
D03*
X649662Y817020D02*
D03*
X640162D02*
D03*
X649678Y807584D02*
D03*
X640178Y807520D02*
D03*
X2442302Y817020D02*
D03*
X2432802D02*
D03*
X2442318Y807584D02*
D03*
X2432818Y807520D02*
D03*
X991172Y1027750D02*
D03*
X981672D02*
D03*
X991188Y1018314D02*
D03*
X981688Y1018250D02*
D03*
X137512Y134520D02*
D03*
X128012D02*
D03*
X137528Y125084D02*
D03*
X128028Y125020D02*
D03*
X2402462Y305260D02*
D03*
X2392962D02*
D03*
X2402478Y295824D02*
D03*
X2392978Y295760D02*
D03*
X569712Y305260D02*
D03*
X560212D02*
D03*
X569728Y295824D02*
D03*
X560228Y295760D02*
D03*
X1844842Y475990D02*
D03*
X1835342D02*
D03*
X1844858Y466554D02*
D03*
X1835358Y466490D02*
D03*
X1423372Y646720D02*
D03*
X1413872D02*
D03*
X1423388Y637284D02*
D03*
X1413888Y637220D02*
D03*
X820332Y817020D02*
D03*
X810832D02*
D03*
X820348Y807584D02*
D03*
X810848Y807520D02*
D03*
X2527822Y1027750D02*
D03*
X2518322D02*
D03*
X2527838Y1018314D02*
D03*
X2518338Y1018250D02*
D03*
X820332Y1027750D02*
D03*
X810832D02*
D03*
X820348Y1018314D02*
D03*
X810848Y1018250D02*
D03*
X308242Y134520D02*
D03*
X298742D02*
D03*
X308258Y125084D02*
D03*
X298758Y125020D02*
D03*
X2106312Y305260D02*
D03*
X2096812D02*
D03*
X2106328Y295824D02*
D03*
X2096828Y295760D02*
D03*
X398982Y305260D02*
D03*
X389482D02*
D03*
X398998Y295824D02*
D03*
X389498Y295760D02*
D03*
X2015572Y475990D02*
D03*
X2006072D02*
D03*
X2015588Y466554D02*
D03*
X2006088Y466490D02*
D03*
X1252642Y646720D02*
D03*
X1243142D02*
D03*
X1252658Y637284D02*
D03*
X1243158Y637220D02*
D03*
X991172Y817020D02*
D03*
X981672D02*
D03*
X991188Y807584D02*
D03*
X981688Y807520D02*
D03*
X2357092Y1027750D02*
D03*
X2347592D02*
D03*
X2357108Y1018314D02*
D03*
X2347608Y1018250D02*
D03*
X649662Y1027750D02*
D03*
X640162D02*
D03*
X649678Y1018314D02*
D03*
X640178Y1018250D02*
D03*
X478982Y134520D02*
D03*
X469482D02*
D03*
X478998Y125084D02*
D03*
X469498Y125020D02*
D03*
X1935572Y305260D02*
D03*
X1926072D02*
D03*
X1935588Y295824D02*
D03*
X1926088Y295760D02*
D03*
X478982Y475990D02*
D03*
X469482D02*
D03*
X478998Y466554D02*
D03*
X469498Y466490D02*
D03*
X2186312Y475990D02*
D03*
X2176812D02*
D03*
X2186328Y466554D02*
D03*
X2176828Y466490D02*
D03*
X1081912Y646720D02*
D03*
X1072412D02*
D03*
X1081928Y637284D02*
D03*
X1072428Y637220D02*
D03*
X1161832Y817020D02*
D03*
X1152332D02*
D03*
X1161848Y807584D02*
D03*
X1152348Y807520D02*
D03*
X2186522Y1027750D02*
D03*
X2177022D02*
D03*
X2186538Y1018314D02*
D03*
X2177038Y1018250D02*
D03*
X479002Y1027750D02*
D03*
X469502D02*
D03*
X479018Y1018314D02*
D03*
X469518Y1018250D02*
D03*
X649712Y134520D02*
D03*
X640212D02*
D03*
X649728Y125084D02*
D03*
X640228Y125020D02*
D03*
X1501932Y134520D02*
D03*
X1492432D02*
D03*
X1501948Y125084D02*
D03*
X1492448Y125020D02*
D03*
X1764842Y305260D02*
D03*
X1755342D02*
D03*
X1764858Y295824D02*
D03*
X1755358Y295760D02*
D03*
X649712Y475990D02*
D03*
X640212D02*
D03*
X649728Y466554D02*
D03*
X640228Y466490D02*
D03*
X2357092Y475990D02*
D03*
X2347592D02*
D03*
X2357108Y466554D02*
D03*
X2347608Y466490D02*
D03*
X911182Y646720D02*
D03*
X901682D02*
D03*
X911198Y637284D02*
D03*
X901698Y637220D02*
D03*
X1332662Y817020D02*
D03*
X1323162D02*
D03*
X1332678Y807584D02*
D03*
X1323178Y807520D02*
D03*
X2015792Y1027750D02*
D03*
X2006292D02*
D03*
X2015808Y1018314D02*
D03*
X2006308Y1018250D02*
D03*
X308212Y1027750D02*
D03*
X298712D02*
D03*
X308228Y1018314D02*
D03*
X298728Y1018250D02*
D03*
X821932Y134520D02*
D03*
X812432D02*
D03*
X821948Y125084D02*
D03*
X812448Y125020D02*
D03*
D15*
X183830Y474340D02*
D03*
Y458340D02*
D03*
X1477420Y132870D02*
D03*
Y116870D02*
D03*
X1991120Y132870D02*
D03*
Y116870D02*
D03*
X2502338Y132813D02*
D03*
Y116813D02*
D03*
X1906574Y303610D02*
D03*
Y287610D02*
D03*
X1395443Y303610D02*
D03*
Y287610D02*
D03*
X885000Y303610D02*
D03*
Y287610D02*
D03*
X375340Y303610D02*
D03*
Y287610D02*
D03*
X799800Y458340D02*
D03*
Y474340D02*
D03*
X1312000Y458340D02*
D03*
Y474340D02*
D03*
X1824200Y458340D02*
D03*
Y474340D02*
D03*
X2333450Y474340D02*
D03*
Y458340D02*
D03*
X2082720Y645070D02*
D03*
Y629070D02*
D03*
X1570470Y645070D02*
D03*
Y629070D02*
D03*
X1058270Y645070D02*
D03*
Y629070D02*
D03*
X546070Y646020D02*
D03*
Y630020D02*
D03*
X453510Y815370D02*
D03*
Y799370D02*
D03*
X964000Y815370D02*
D03*
Y799370D02*
D03*
X1476000Y815370D02*
D03*
Y799370D02*
D03*
X1991280Y815370D02*
D03*
Y799370D02*
D03*
X2497246Y1026088D02*
D03*
Y1010088D02*
D03*
X1990170Y1026100D02*
D03*
Y1010100D02*
D03*
X1477890Y1026100D02*
D03*
Y1010100D02*
D03*
X967314Y1026194D02*
D03*
Y1010194D02*
D03*
X453510Y1026100D02*
D03*
Y1010100D02*
D03*
X116870Y815370D02*
D03*
Y799370D02*
D03*
X162240Y303610D02*
D03*
Y287610D02*
D03*
X454000Y132870D02*
D03*
Y116870D02*
D03*
X1649650Y116870D02*
D03*
Y132870D02*
D03*
X2161850Y116870D02*
D03*
Y132870D02*
D03*
X2370312Y303886D02*
D03*
Y287886D02*
D03*
X1741000Y287610D02*
D03*
Y303610D02*
D03*
X1228130Y287610D02*
D03*
Y303610D02*
D03*
X715930Y287610D02*
D03*
Y303610D02*
D03*
X458340Y458340D02*
D03*
Y474340D02*
D03*
X970540Y458340D02*
D03*
Y474340D02*
D03*
X1482730Y458340D02*
D03*
Y474340D02*
D03*
X1994930Y458340D02*
D03*
Y474340D02*
D03*
X2500180Y559710D02*
D03*
Y543710D02*
D03*
X1909990Y645070D02*
D03*
Y629070D02*
D03*
X1400730Y645070D02*
D03*
Y629070D02*
D03*
X887540Y645070D02*
D03*
Y629070D02*
D03*
X378340Y629070D02*
D03*
Y645070D02*
D03*
X629060Y799370D02*
D03*
Y815370D02*
D03*
X1141340Y799370D02*
D03*
Y815370D02*
D03*
X1649600Y815370D02*
D03*
Y799370D02*
D03*
X2166000Y799370D02*
D03*
Y815370D02*
D03*
X2331600Y1010100D02*
D03*
Y1026100D02*
D03*
X1823000Y1026000D02*
D03*
Y1010000D02*
D03*
X1312000Y1010000D02*
D03*
Y1026000D02*
D03*
X799800Y1026100D02*
D03*
Y1010100D02*
D03*
X287720Y1026100D02*
D03*
Y1010100D02*
D03*
X162240Y629070D02*
D03*
Y645070D02*
D03*
X116870Y132870D02*
D03*
Y116870D02*
D03*
X625000Y132870D02*
D03*
Y116870D02*
D03*
X1824250Y132870D02*
D03*
Y116870D02*
D03*
X2336450Y132870D02*
D03*
Y116870D02*
D03*
X2085670Y287610D02*
D03*
Y303610D02*
D03*
X1573470Y287610D02*
D03*
Y303610D02*
D03*
X1061000Y287610D02*
D03*
Y303610D02*
D03*
X549000Y287610D02*
D03*
Y303610D02*
D03*
X629070Y474340D02*
D03*
Y458340D02*
D03*
X1141270Y474340D02*
D03*
Y458340D02*
D03*
X1653470Y474340D02*
D03*
Y458340D02*
D03*
X2165670Y474340D02*
D03*
Y458340D02*
D03*
X2256450Y629070D02*
D03*
Y645070D02*
D03*
X1744200Y629070D02*
D03*
Y645070D02*
D03*
X1232000Y629070D02*
D03*
Y645070D02*
D03*
X719800Y629070D02*
D03*
Y645070D02*
D03*
X287720Y815370D02*
D03*
Y799370D02*
D03*
X799800Y815370D02*
D03*
Y799370D02*
D03*
X1311720Y815370D02*
D03*
Y799370D02*
D03*
X1824200Y815370D02*
D03*
Y799370D02*
D03*
X2421810Y815370D02*
D03*
Y799370D02*
D03*
X2166000Y1026100D02*
D03*
Y1010100D02*
D03*
X1653490Y1026100D02*
D03*
Y1010100D02*
D03*
X1141340Y1010100D02*
D03*
Y1026100D02*
D03*
X629060Y1026100D02*
D03*
Y1010100D02*
D03*
X116870Y1026100D02*
D03*
Y1010100D02*
D03*
X196168Y458340D02*
D03*
Y474340D02*
D03*
X287600Y132870D02*
D03*
Y116870D02*
D03*
X801290Y132870D02*
D03*
Y116870D02*
D03*
D16*
X2546160Y127500D02*
D03*
Y120500D02*
D03*
X2375430Y127500D02*
D03*
Y120500D02*
D03*
X2204700Y127500D02*
D03*
Y120500D02*
D03*
X2033970Y127500D02*
D03*
Y120500D02*
D03*
X1863230Y127500D02*
D03*
Y120500D02*
D03*
X1692500Y127500D02*
D03*
Y120500D02*
D03*
X1520270Y127500D02*
D03*
Y120500D02*
D03*
X668050Y127500D02*
D03*
Y120500D02*
D03*
X497320Y127500D02*
D03*
Y120500D02*
D03*
X326580Y127500D02*
D03*
Y120500D02*
D03*
X155850Y127500D02*
D03*
Y120500D02*
D03*
X2420800Y298240D02*
D03*
Y291240D02*
D03*
X2124650Y298240D02*
D03*
Y291240D02*
D03*
X1953910Y298240D02*
D03*
Y291240D02*
D03*
X1783180Y298240D02*
D03*
Y291240D02*
D03*
X1612450Y298240D02*
D03*
Y291240D02*
D03*
X1441710Y298240D02*
D03*
Y291240D02*
D03*
X1270980Y298240D02*
D03*
Y291240D02*
D03*
X1100250Y298240D02*
D03*
Y291240D02*
D03*
X929520Y298240D02*
D03*
Y291240D02*
D03*
X758780Y298240D02*
D03*
Y291240D02*
D03*
X588050Y298240D02*
D03*
Y291240D02*
D03*
X417320Y298240D02*
D03*
Y291240D02*
D03*
X201220Y298240D02*
D03*
Y291240D02*
D03*
X2375430Y468970D02*
D03*
Y461970D02*
D03*
X2204650Y468970D02*
D03*
Y461970D02*
D03*
X2033910Y468970D02*
D03*
Y461970D02*
D03*
X1863180Y468970D02*
D03*
Y461970D02*
D03*
X1692450Y468970D02*
D03*
Y461970D02*
D03*
X1521710Y468970D02*
D03*
Y461970D02*
D03*
X1350980Y468970D02*
D03*
Y461970D02*
D03*
X1180250Y468970D02*
D03*
Y461970D02*
D03*
X1009520Y468970D02*
D03*
Y461970D02*
D03*
X838780Y468970D02*
D03*
Y461970D02*
D03*
X668050Y468970D02*
D03*
Y461970D02*
D03*
X497320Y468970D02*
D03*
Y461970D02*
D03*
X234690Y468970D02*
D03*
Y461970D02*
D03*
X2546160Y555500D02*
D03*
Y548500D02*
D03*
X2295430Y639700D02*
D03*
Y632700D02*
D03*
X2124700Y639700D02*
D03*
Y632700D02*
D03*
X1953970Y639700D02*
D03*
Y632700D02*
D03*
X1783180Y639700D02*
D03*
Y632700D02*
D03*
X1612450Y639700D02*
D03*
Y632700D02*
D03*
X1441710Y639700D02*
D03*
Y632700D02*
D03*
X1270980Y639700D02*
D03*
Y632700D02*
D03*
X1100250Y639700D02*
D03*
Y632700D02*
D03*
X929520Y639700D02*
D03*
Y632700D02*
D03*
X758780Y639700D02*
D03*
Y632700D02*
D03*
X588050Y639700D02*
D03*
Y632700D02*
D03*
X417320Y639700D02*
D03*
Y632700D02*
D03*
X201220Y639700D02*
D03*
Y632700D02*
D03*
X2460000Y809770D02*
D03*
Y802770D02*
D03*
X2204000Y809770D02*
D03*
Y802770D02*
D03*
X2034000Y809770D02*
D03*
Y802770D02*
D03*
X1863000Y809770D02*
D03*
Y802770D02*
D03*
X1692000Y809770D02*
D03*
Y802770D02*
D03*
X1521000Y809770D02*
D03*
Y802770D02*
D03*
X1351000Y809770D02*
D03*
Y802770D02*
D03*
X1179964Y809770D02*
D03*
Y802770D02*
D03*
X1009000Y809770D02*
D03*
Y802770D02*
D03*
X838000Y809770D02*
D03*
Y802770D02*
D03*
X667000Y809770D02*
D03*
Y802770D02*
D03*
X497000Y809770D02*
D03*
Y802770D02*
D03*
X326000Y809770D02*
D03*
Y802770D02*
D03*
X155850Y809770D02*
D03*
Y802770D02*
D03*
X2546000Y1020500D02*
D03*
Y1013500D02*
D03*
X2375434Y1020462D02*
D03*
Y1013462D02*
D03*
X2204828Y1020500D02*
D03*
Y1013500D02*
D03*
X2034000Y1020500D02*
D03*
Y1013500D02*
D03*
X1863000Y1020500D02*
D03*
Y1013500D02*
D03*
X1692318Y1020500D02*
D03*
Y1013500D02*
D03*
X1521718Y1020500D02*
D03*
Y1013500D02*
D03*
X1351000Y1020500D02*
D03*
Y1013500D02*
D03*
X1180172Y1020500D02*
D03*
Y1013500D02*
D03*
X1009515Y1020500D02*
D03*
Y1013500D02*
D03*
X838673Y1020500D02*
D03*
Y1013500D02*
D03*
X668000Y1020500D02*
D03*
Y1013500D02*
D03*
X497340Y1020524D02*
D03*
Y1013524D02*
D03*
X326551Y1020500D02*
D03*
Y1013500D02*
D03*
X155853Y1020500D02*
D03*
Y1013500D02*
D03*
D17*
X2546160Y128000D02*
D03*
Y120000D02*
D03*
X2375430Y128000D02*
D03*
Y120000D02*
D03*
X2204700Y128000D02*
D03*
Y120000D02*
D03*
X2033970Y128000D02*
D03*
Y120000D02*
D03*
X1863230Y128000D02*
D03*
Y120000D02*
D03*
X1692500Y128000D02*
D03*
Y120000D02*
D03*
X1520270Y128000D02*
D03*
Y120000D02*
D03*
X668050Y128000D02*
D03*
Y120000D02*
D03*
X497320Y128000D02*
D03*
Y120000D02*
D03*
X326580Y128000D02*
D03*
Y120000D02*
D03*
X155850Y128000D02*
D03*
Y120000D02*
D03*
X2420800Y298740D02*
D03*
Y290740D02*
D03*
X2124650Y298740D02*
D03*
Y290740D02*
D03*
X1953910Y298740D02*
D03*
Y290740D02*
D03*
X1783180Y298740D02*
D03*
Y290740D02*
D03*
X1612450Y298740D02*
D03*
Y290740D02*
D03*
X1441710Y298740D02*
D03*
Y290740D02*
D03*
X1270980Y298740D02*
D03*
Y290740D02*
D03*
X1100250Y298740D02*
D03*
Y290740D02*
D03*
X929520Y298740D02*
D03*
Y290740D02*
D03*
X758780Y298740D02*
D03*
Y290740D02*
D03*
X588050Y298740D02*
D03*
Y290740D02*
D03*
X417320Y298740D02*
D03*
Y290740D02*
D03*
X201220Y298740D02*
D03*
Y290740D02*
D03*
X2375430Y469470D02*
D03*
Y461470D02*
D03*
X2204650Y469470D02*
D03*
Y461470D02*
D03*
X2033910Y469470D02*
D03*
Y461470D02*
D03*
X1863180Y469470D02*
D03*
Y461470D02*
D03*
X1692450Y469470D02*
D03*
Y461470D02*
D03*
X1521710Y469470D02*
D03*
Y461470D02*
D03*
X1350980Y469470D02*
D03*
Y461470D02*
D03*
X1180250Y469470D02*
D03*
Y461470D02*
D03*
X1009520Y469470D02*
D03*
Y461470D02*
D03*
X838780Y469470D02*
D03*
Y461470D02*
D03*
X668050Y469470D02*
D03*
Y461470D02*
D03*
X497320Y469470D02*
D03*
Y461470D02*
D03*
X234690Y469470D02*
D03*
Y461470D02*
D03*
X2546160Y556000D02*
D03*
Y548000D02*
D03*
X2295430Y640200D02*
D03*
Y632200D02*
D03*
X2124700Y640200D02*
D03*
Y632200D02*
D03*
X1953970Y640200D02*
D03*
Y632200D02*
D03*
X1783180Y640200D02*
D03*
Y632200D02*
D03*
X1612450Y640200D02*
D03*
Y632200D02*
D03*
X1441710Y640200D02*
D03*
Y632200D02*
D03*
X1270980Y640200D02*
D03*
Y632200D02*
D03*
X1100250Y640200D02*
D03*
Y632200D02*
D03*
X929520Y640200D02*
D03*
Y632200D02*
D03*
X758780Y640200D02*
D03*
Y632200D02*
D03*
X588050Y640200D02*
D03*
Y632200D02*
D03*
X417320Y640200D02*
D03*
Y632200D02*
D03*
X201220Y640200D02*
D03*
Y632200D02*
D03*
X2460000Y810270D02*
D03*
Y802270D02*
D03*
X2204000Y810270D02*
D03*
Y802270D02*
D03*
X2034000Y810270D02*
D03*
Y802270D02*
D03*
X1863000Y810270D02*
D03*
Y802270D02*
D03*
X1692000Y810270D02*
D03*
Y802270D02*
D03*
X1521000Y810270D02*
D03*
Y802270D02*
D03*
X1351000Y810270D02*
D03*
Y802270D02*
D03*
X1179964Y810270D02*
D03*
Y802270D02*
D03*
X1009000Y810270D02*
D03*
Y802270D02*
D03*
X838000Y810270D02*
D03*
Y802270D02*
D03*
X667000Y810270D02*
D03*
Y802270D02*
D03*
X497000Y810270D02*
D03*
Y802270D02*
D03*
X326000Y810270D02*
D03*
Y802270D02*
D03*
X155850Y810270D02*
D03*
Y802270D02*
D03*
X2546000Y1021000D02*
D03*
Y1013000D02*
D03*
X2375434Y1020962D02*
D03*
Y1012962D02*
D03*
X2204828Y1021000D02*
D03*
Y1013000D02*
D03*
X2034000Y1021000D02*
D03*
Y1013000D02*
D03*
X1863000Y1021000D02*
D03*
Y1013000D02*
D03*
X1692318Y1021000D02*
D03*
Y1013000D02*
D03*
X1521718Y1021000D02*
D03*
Y1013000D02*
D03*
X1351000Y1021000D02*
D03*
Y1013000D02*
D03*
X1180172Y1021000D02*
D03*
Y1013000D02*
D03*
X1009515Y1021000D02*
D03*
Y1013000D02*
D03*
X838673Y1021000D02*
D03*
Y1013000D02*
D03*
X668000Y1021000D02*
D03*
Y1013000D02*
D03*
X497340Y1021024D02*
D03*
Y1013024D02*
D03*
X326551Y1021000D02*
D03*
Y1013000D02*
D03*
X155853Y1021000D02*
D03*
Y1013000D02*
D03*
D18*
X1812370Y117870D02*
D03*
Y131870D02*
D03*
X2325000Y117870D02*
D03*
Y131870D02*
D03*
X2073819Y302610D02*
D03*
Y288610D02*
D03*
X1561590Y302610D02*
D03*
Y288610D02*
D03*
X1049390Y302610D02*
D03*
Y288610D02*
D03*
X537190Y302610D02*
D03*
Y288610D02*
D03*
X617190Y459340D02*
D03*
Y473340D02*
D03*
X1129390Y459340D02*
D03*
Y473340D02*
D03*
X1641590Y459340D02*
D03*
Y473340D02*
D03*
X2153790Y459340D02*
D03*
Y473340D02*
D03*
X2244570Y644070D02*
D03*
Y630070D02*
D03*
X1732320Y644070D02*
D03*
Y630070D02*
D03*
X1220120Y644070D02*
D03*
Y630070D02*
D03*
X707920Y644070D02*
D03*
Y630070D02*
D03*
X275690Y800370D02*
D03*
Y814370D02*
D03*
X788000Y800370D02*
D03*
Y814370D02*
D03*
X1300065Y800370D02*
D03*
Y814370D02*
D03*
X1812397Y800370D02*
D03*
Y814370D02*
D03*
X2409917Y800404D02*
D03*
Y814404D02*
D03*
X2154000Y1011100D02*
D03*
Y1025100D02*
D03*
X1641590Y1011100D02*
D03*
Y1025100D02*
D03*
X1129390Y1025100D02*
D03*
Y1011100D02*
D03*
X617180Y1011100D02*
D03*
Y1025100D02*
D03*
X104990Y1011100D02*
D03*
Y1025100D02*
D03*
X275720Y117870D02*
D03*
Y131870D02*
D03*
X790000Y117870D02*
D03*
Y131870D02*
D03*
M02*
