%FSDAX56Y56*%
%MOMM*%
%SFA1B1*%

%IPPOS*%
%ADD19C,3.399993*%
%ADD20C,0.499999*%
%LNwcam-mount-pcb-r01_copper_signal_bot-1*%
%LPD*%
G36*
X00007749997Y00000199999D02*
X00000249986D01*
Y00005799988*
X00007749997*
Y00000199999*
G37*
%LNwcam-mount-pcb-r01_copper_signal_bot-2*%
%LPC*%
G36*
X00003999992Y00004963388D02*
X00003616985Y00004925695D01*
X00003248583Y00004813985*
X00002909189Y00004632477*
X00002611577Y00004388383*
X00002367381Y00004090797*
X00002185974Y00003751376*
X00002074291Y00003382975*
X00002036597Y00002999994*
X00002074291Y00002616987*
X00002185974Y00002248585*
X00002367381Y00001909191*
X00002611577Y00001611579*
X00002909189Y00001367383*
X00003248583Y00001185976*
X00003616985Y00001074293*
X00003999992Y00001036599*
X00004382998Y00001074293*
X00004751374Y00001185976*
X00005090795Y00001367383*
X00005388381Y00001611579*
X00005632475Y00001909191*
X00005813983Y00002248585*
X00005925693Y00002616987*
X00005963386Y00002999994*
X00005925693Y00003382975*
X00005813983Y00003751376*
X00005632475Y00004090797*
X00005388381Y00004388383*
X00005090795Y00004632477*
X00004751374Y00004813985*
X00004382998Y00004925695*
X00003999992Y00004963388*
G37*
%LNwcam-mount-pcb-r01_copper_signal_bot-3*%
%LPD*%
G54D19*
X00003999992Y00002999994D03*
G54D20*
X00005349976Y00005499989D03*
X00003999992D03*
X00002649982D03*
X00001649984Y00001499997D03*
Y00002499995D03*
Y00005499989D03*
Y00004499991D03*
Y00003499993D03*
X00000649986Y00001499997D03*
Y00002499995D03*
Y00005499989D03*
Y00004499991D03*
Y00003499993D03*
X00005349976Y00000499999D03*
X00003999992D03*
X00002649982D03*
X00001649984D03*
X00000649986D03*
X00007349998Y00002499995D03*
Y00001499997D03*
Y00000499999D03*
X00006350000Y00002499995D03*
Y00001499997D03*
Y00000499999D03*
X00007349998Y00003499993D03*
Y00004499991D03*
Y00005499989D03*
X00006350000Y00003499993D03*
Y00004499991D03*
Y00005499989D03*
X00006849999Y00000999998D03*
Y00001999996D03*
Y00003999992D03*
Y00004999990D03*
X00001149985D03*
Y00003999992D03*
Y00001999996D03*
Y00000999998D03*
M02*