%FSDAX56Y56*%
%MOMM*%
%SFA1B1*%

%IPPOS*%
%ADD10C,1.199998*%
%ADD11C,0.150000*%
%ADD12C,0.399999*%
%ADD13C,0.599999*%
%LNwcam-touch-fpc-r01_copper_signal_top-1*%
%LPD*%
G36*
X00017294377Y00006304076D02*
X00017471593Y00006126886D01*
X00017567478Y00005895289*
Y00005769991*
Y00000829995*
Y00000704697*
X00017471593Y00000473075*
X00017294377Y00000295884*
X00017062780Y00000199999*
X00010872495*
X00010640796Y00000295884*
X00010463580Y00000473176*
X00010367594Y00000704875*
Y00000830199*
Y00005769991*
Y00005895289*
X00010463479Y00006126886*
X00010640695Y00006304076*
X00010872292Y00006399987*
X00017062780*
X00017294377Y00006304076*
G37*
G36*
X00028694278D02*
X00028871494Y00006126886D01*
X00028967379Y00005895289*
Y00005769991*
Y00000829995*
Y00000704697*
X00028871494Y00000473075*
X00028694278Y00000295884*
X00028462681Y00000199999*
X00022272396*
X00022040799Y00000295884*
X00021863481Y00000473176*
X00021767495Y00000704875*
Y00000830199*
Y00005769991*
Y00005895289*
X00021863380Y00006126886*
X00022040596Y00006304076*
X00022272193Y00006399987*
X00028462681*
X00028694278Y00006304076*
G37*
G36*
X00125913896Y00006303975D02*
X00126091188Y00006126784D01*
X00126187200Y00005895086*
Y00005769787*
Y00000829995*
Y00000704697*
X00126091289Y00000473075*
X00125913997Y00000295884*
X00125682476Y00000199999*
X00119491887*
X00119260289Y00000295884*
X00119082997Y00000473176*
X00118987087Y00000704799*
Y00000830199*
Y00005774994*
Y00005899277*
X00119082185Y00006128994*
X00119257978Y00006304788*
X00119487797Y00006399987*
X00125682298*
X00125913896Y00006303975*
G37*
G36*
X00136693198D02*
X00136870490Y00006126784D01*
X00136966375Y00005895086*
Y00005769787*
Y00000829995*
Y00000704697*
X00136870490Y00000473075*
X00136693275Y00000295884*
X00136461677Y00000199999*
X00130271189*
X00130039694Y00000295884*
X00129862478Y00000473075*
X00129766593Y00000704596*
Y00000829894*
Y00005789777*
Y00005911189*
X00129859481Y00006135395*
X00130031083Y00006307099*
X00130255391Y00006399987*
X00136461500*
X00136693198Y00006303975*
G37*
G36*
X00146693077D02*
X00146870394Y00006126784D01*
X00146966381Y00005895086*
Y00005769787*
Y00000829995*
Y00000704697*
X00146870496Y00000473075*
X00146693280Y00000295884*
X00146461683Y00000199999*
X00140271093*
X00140039496Y00000295884*
X00139862179Y00000473176*
X00139766192Y00000704875*
Y00000830199*
Y00005769991*
Y00005895289*
X00139862077Y00006126886*
X00140039394Y00006304076*
X00140270890Y00006399987*
X00146461480*
X00146693077Y00006303975*
G37*
G36*
X00156292880Y00006304076D02*
X00156470197Y00006126886D01*
X00156566082Y00005895289*
Y00005769991*
Y00000829995*
Y00000704697*
X00156470197Y00000473075*
X00156292880Y00000295884*
X00156061384Y00000199999*
X00149870998*
X00149639375Y00000295884*
X00149462083Y00000473176*
X00149366097Y00000704875*
Y00000830199*
Y00005769991*
Y00005895289*
X00149462083Y00006126886*
X00149639299Y00006304076*
X00149870795Y00006399987*
X00156061384*
X00156292880Y00006304076*
G37*
%LNwcam-touch-fpc-r01_copper_signal_top-2*%
%LPC*%
G36*
X00013744676Y00005849391D02*
X00013734084Y00005847283D01*
X00013723391Y00005848299*
X00013278891Y00005801791*
X00013268579Y00005798591*
X00013257885Y00005798388*
X00012820599Y00005705881*
X00012810693Y00005701690*
X00012800076Y00005700395*
X00012374778Y00005562777*
X00012365380Y00005557596*
X00012354890Y00005555183*
X00011946280Y00005374081*
X00011937492Y00005367883*
X00011927382Y00005364480*
X00011539778Y00005141798*
X00011531676Y00005134686*
X00011521897Y00005130190*
X00011348593Y00005004993*
X00011269878Y00004951196*
X00011268481Y00004949698*
X00011266576Y00004948885*
X00011240693Y00004921377*
X00011214176Y00004894275*
X00011213490Y00004892395*
X00011212093Y00004890998*
X00011101095Y00004713478*
X00011100384Y00004711598*
X00011098987Y00004710099*
X00011086287Y00004674387*
X00011072876Y00004639081*
X00011072977Y00004637074*
X00011072291Y00004635093*
X00011041684Y00004428083*
X00011041786Y00004425975*
X00011041176Y00004424095*
X00011043793Y00004386376*
X00011045698Y00004348581*
X00011046587Y00004346778*
X00011046688Y00004344695*
X00011101679Y00004142790*
X00011102594Y00004140987*
X00011102797Y00004138879*
X00011120399Y00004105376*
X00011137188Y00004071594*
X00011138789Y00004070197*
X00011139678Y00004068394*
X00011205387Y00003986987*
Y00003986885*
X00013419785Y00001239799*
X00013490981Y00001151483*
X00013495197Y00001147978*
X00013498093Y00001143177*
X00013525677Y00001122578*
X00013552093Y00001100480*
X00013557377Y00001098778*
X00013561796Y00001095476*
X00013766393Y00000997686*
X00013771676Y00000996289*
X00013776299Y00000993292*
X00013810081Y00000986485*
X00013843482Y00000977976*
X00013848994Y00000978789*
X00013854379Y00000977696*
X00014081175*
X00014086586Y00000978789*
X00014091996Y00000977976*
X00014125397Y00000986485*
X00014159179Y00000993292*
X00014163776Y00000996289*
X00014169085Y00000997686*
X00014373682Y00001095476*
X00014378178Y00001098778*
X00014383385Y00001100480*
X00014409775Y00001122578*
X00014437385Y00001143177*
X00014440281Y00001147978*
X00014444497Y00001151483*
X00014515693Y00001239799*
X00016730878Y00003986682*
X00016795597Y00004066082*
X00016796283Y00004067479*
X00016797578Y00004068597*
X00016814977Y00004102684*
X00016832783Y00004136390*
X00016832986Y00004137990*
X00016833697Y00004139488*
X00016889679Y00004337786*
X00016889780Y00004339386*
X00016890492Y00004340885*
X00016892879Y00004378985*
X00016895876Y00004417085*
X00016895394Y00004418685*
X00016895495Y00004420285*
X00016868190Y00004624476*
X00016867581Y00004626076*
X00016867682Y00004627676*
X00016854779Y00004663694*
X00016842384Y00004699787*
X00016841292Y00004700981*
X00016840784Y00004702479*
X00016734586Y00004879187*
X00016733494Y00004880381*
X00016732884Y00004881880*
X00016706799Y00004909693*
X00016681094Y00004937988*
X00016679595Y00004938699*
X00016678478Y00004939893*
X00016594886Y00004999786*
X00016414394Y00005130190*
X00016404590Y00005134686*
X00016396487Y00005141798*
X00016008883Y00005364480*
X00015998799Y00005367883*
X00015989985Y00005374081*
X00015581376Y00005555183*
X00015570885Y00005557596*
X00015561487Y00005562777*
X00015136190Y00005700395*
X00015125598Y00005701690*
X00015115692Y00005705881*
X00014678380Y00005798388*
X00014667687Y00005798591*
X00014657374Y00005801791*
X00014212874Y00005848299*
X00014202181Y00005847283*
X00014191589Y00005849391*
X00013744676*
G37*
G36*
X00023276280Y00006147181D02*
X00023198175Y00006131585D01*
X00023124998Y00006101283*
X00023058780Y00006057087*
X00022724999Y00005723280*
X00022724389Y00005722975*
X00022723475Y00005721781*
X00022716896Y00005715076*
X00022713797Y00005713095*
X00022685679Y00005684977*
X00022641483Y00005618784*
X00022610978Y00005545277*
X00022595484Y00005467197*
Y00005387695*
X00022611080Y00005309590*
X00022641483Y00005236083*
X00022685679Y00005169992*
X00022713899Y00005141798*
X00022714077Y00005141696*
X00022714178Y00005141493*
X00022717175Y00005139486*
X00022721697Y00005000091*
X00022721595Y00004999482*
X00022704882Y00004972278*
X00022637775Y00004918684*
X00022586492Y00004857877*
X00022489795Y00004682693*
X00022465690Y00004606899*
X00022443490Y00004407992*
X00022450196Y00004328795*
X00022505797Y00004136491*
X00022542296Y00004065778*
X00022604679Y00003987698*
X00022605085Y00003987292*
X00022605390Y00003986885*
X00024820778Y00001239799*
X00024826976Y00001234592*
X00024834291Y00001223594*
X00024911685Y00001146175*
X00024977877Y00001101979*
X00025180188Y00001018184*
X00025258191Y00001002588*
X00025477190*
X00025555194Y00001018184*
X00025757479Y00001101979*
X00025823697Y00001146175*
X00025901091Y00001223594*
X00025907187Y00001232687*
X00025915594Y00001239799*
X00026148080Y00001527987*
X00026317981Y00001537690*
X00026660881Y00001194892*
X00026663878Y00001192987*
X00026690091Y00001166876*
Y00001166799*
X00026756182Y00001122680*
X00026829689Y00001092200*
X00026907794Y00001076680*
X00026987296*
X00027065274Y00001092200*
X00027138782Y00001122680*
X00027204974Y00001166876*
X00027233092Y00001194993*
X00027548789Y00001510792*
X00027548992Y00001510995*
X00027549297Y00001511300*
X00027577288Y00001539494*
X00027621280Y00001605788*
X00027651481Y00001679397*
X00027666696Y00001757476*
X00027666492Y00001837080*
X00027650694Y00001914982*
Y00001915083*
X00027619985Y00001988388*
X00027575484Y00002054377*
X00027550795Y00002078990*
X00027548789Y00002081987*
X00027021282Y00002609494*
X00028132074Y00003986885*
X00028133395Y00003989476*
X00028135580Y00003991381*
X00028197378Y00004072585*
X00028232277Y00004144086*
X00028284474Y00004341393*
X00028289377Y00004420793*
Y00004420895*
X00028261995Y00004623079*
X00028236087Y00004698390*
X00028133395Y00004874793*
X00028080690Y00004934483*
X00027999486Y00004996281*
X00027996083Y00004997983*
X00027993390Y00005000777*
X00027788489Y00005145074*
X00027777795Y00005149875*
X00027768778Y00005157393*
X00027328799Y00005397500*
X00027317598Y00005400979*
X00027307794Y00005407482*
X00026843278Y00005595975*
X00026831798Y00005598185*
X00026821282Y00005603494*
X00026338377Y00005737783*
X00026326693Y00005738698*
X00026315695Y00005742787*
X00025820598Y00005821197*
X00025808889Y00005820791*
X00025797484Y00005823585*
X00025296698Y00005845098*
X00025285090Y00005843295*
X00025273381Y00005844794*
X00024773382Y00005809183*
X00024762079Y00005806084*
X00024750395Y00005806186*
X00024257685Y00005713882*
X00024246789Y00005709589*
X00024235079Y00005708396*
X00023996396Y00005634685*
X00023601984Y00006029096*
X00023598886Y00006031077*
X00023572978Y00006057087*
X00023506785Y00006101283*
X00023433582Y00006131585*
X00023355477Y00006147181*
X00023276280*
G37*
G36*
X00122082788Y00005869889D02*
X00122063179Y00005866079D01*
X00122043190Y00005866180*
X00121942199Y00005846775*
X00121923581Y00005839180*
X00121903998Y00005835497*
X00121808697Y00005796686*
X00121791984Y00005785688*
X00121773391Y00005778195*
X00121687386Y00005721680*
X00121673188Y00005707684*
X00121656475Y00005696686*
X00121620280Y00005661075*
X00121153885Y00005205577*
X00121150989Y00005203698*
X00121147484Y00005202986*
X00121147382*
X00120768186*
X00120695186Y00005203494*
X00120675476Y00005199684*
X00120655384Y00005199786*
X00120510376Y00005171998*
X00120491783Y00005164378*
X00120472098Y00005160594*
X00120335294Y00005105095*
X00120318580Y00005093995*
X00120299886Y00005086477*
X00120176594Y00005005298*
X00120162396Y00004991100*
X00120145581Y00004980076*
X00120040476Y00004876393*
X00120029198Y00004859782*
X00120014898Y00004845685*
X00119932094Y00004723485*
X00119924296Y00004704994*
X00119912993Y00004688382*
X00119855589Y00004552289*
X00119851474Y00004532680*
X00119843677Y00004514189*
X00119813882Y00004369587*
X00119813781Y00004349496*
X00119809793Y00004329785*
X00119809285Y00004255998*
X00119809387Y00004255287*
X00119809183Y00004254677*
Y00004254576*
X00119808675Y00001810181*
X00119808879Y00001809699*
X00119808777Y00001809191*
X00119809082Y00001735480*
X00119813095Y00001715897*
X00119813197Y00001695780*
X00119842584Y00001551381*
X00119850382Y00001532890*
X00119854395Y00001513179*
X00119911393Y00001377289*
X00119922696Y00001360678*
X00119930392Y00001342186*
X00120012891Y00001219987*
X00120027192Y00001205890*
X00120038393Y00001189278*
X00120143092Y00001085596*
X00120159780Y00001074496*
X00120174080Y00001060297*
X00120296990Y00000979093*
X00120315583Y00000971499*
X00120332296Y00000960399*
X00120468694Y00000904595*
X00120488379Y00000900785*
X00120506998Y00000893191*
X00120651574Y00000865098*
X00120671691Y00000865174*
X00120691478Y00000861390*
X00120764579Y00000861796*
X00124408996*
X00124482275Y00000861390*
X00124501986Y00000865174*
X00124522077Y00000865098*
X00124666883Y00000893089*
X00124685475Y00000900684*
X00124705186Y00000904494*
X00124841685Y00000960196*
X00124858475Y00000971194*
X00124877093Y00000978789*
X00125000080Y00001060094*
X00125014380Y00001074191*
X00125031195Y00001085291*
X00125135995Y00001188897*
X00125147197Y00001205585*
X00125161497Y00001219682*
X00125244098Y00001341882*
X00125251895Y00001360398*
X00125263097Y00001376984*
X00125320298Y00001512874*
X00125324285Y00001532585*
X00125332083Y00001551076*
X00125361700Y00001695577*
X00125361776Y00001715693*
X00125365789Y00001735277*
X00125366195Y00001809089*
X00125366094Y00001809597*
X00125366195Y00001810181*
Y00004254576*
X00125366094Y00004255287*
X00125366195Y00004256074*
X00125365687Y00004329887*
X00125361598Y00004349597*
X00125361496Y00004369587*
X00125331575Y00004514291*
X00125323777Y00004532782*
X00125319790Y00004552492*
X00125262284Y00004688484*
X00125250981Y00004705096*
X00125243183Y00004723587*
X00125160278Y00004845786*
X00125145977Y00004859985*
X00125134674Y00004876596*
X00125029493Y00004980279*
X00125012780Y00004991277*
X00124998480Y00005005374*
X00124875086Y00005086578*
X00124856494Y00005094198*
X00124839679Y00005105196*
X00124702874Y00005160695*
X00124683189Y00005164480*
X00124664495Y00005172075*
X00124519486Y00005199888*
X00124499395Y00005199684*
X00124479685Y00005203494*
X00124407295Y00005202986*
X00124029292*
X00124024593Y00005203875*
X00124020681Y00005206390*
X00123556395Y00005660999*
X00123556293*
X00123556191Y00005661075*
X00123519285Y00005697194*
X00123502597Y00005707989*
X00123488399Y00005721985*
X00123402191Y00005778398*
X00123383675Y00005785789*
X00123366987Y00005796686*
X00123271483Y00005835396*
X00123251899Y00005839079*
X00123233484Y00005846597*
X00123132189Y00005865977*
X00123112276Y00005865876*
X00123092794Y00005869686*
X00123042299Y00005869381*
X00122133791Y00005869584*
X00122082788Y00005869889*
G37*
G36*
X00132866282Y00005918885D02*
X00132846495Y00005914999D01*
X00132826175Y00005915075*
X00132724779Y00005895086*
X00132706084Y00005887389*
X00132686196Y00005883376*
X00132590794Y00005843879*
X00132573877Y00005832576*
X00132555183Y00005824778*
X00132469382Y00005767298*
X00132455081Y00005752896*
X00132438292Y00005741593*
X00132402275Y00005705297*
X00132217388Y00005520385*
X00132042890Y00005519775*
X00131787798Y00005775680*
X00131787595Y00005775782*
Y00005775883*
X00131759299Y00005804077*
X00131693183Y00005848299*
X00131619396Y00005878880*
X00131541393Y00005894374*
X00131461484*
X00131383481Y00005878880*
X00131309694Y00005848299*
X00131243578Y00005804077*
X00131215282Y00005775883*
Y00005775782*
X00131215180*
X00130732276Y00005291886*
X00130732199Y00005291785*
X00130731895Y00005291277*
X00130731387Y00005290896*
X00130717493Y00005276875*
X00130706799Y00005260695*
X00130693083Y00005246878*
X00130671189Y00005214086*
X00130663797Y00005196179*
X00130652875Y00005180076*
X00130637584Y00005143779*
X00130633698Y00005124678*
X00130625977Y00005106797*
X00130617798Y00005068189*
X00130617595Y00005048783*
X00130613378Y00005029784*
X00130613099Y00005010099*
X00130613378Y00005008194*
X00130612997Y00005006187*
X00130614191Y00001815490*
Y00001741678*
X00130618077Y00001721993*
Y00001701876*
X00130646881Y00001557096*
X00130654475Y00001538478*
X00130658387Y00001518793*
X00130714978Y00001382293*
X00130726078Y00001365580*
X00130733800Y00001347089*
X00130815791Y00001224178*
X00130829989Y00001209979*
X00130841191Y00001193292*
X00130945585Y00001088898*
X00130962298Y00001077696*
X00130976497Y00001063498*
X00131099280Y00000981379*
X00131117898Y00000973683*
X00131134586Y00000962482*
X00131271086Y00000905992*
X00131290796Y00000902081*
X00131309287Y00000894384*
X00131454194Y00000865479*
X00131474286*
X00131493996Y00000861593*
X00131567783*
X00131567885*
X00134635189Y00000861695*
X00134639786Y00000860780*
X00134643596Y00000858291*
X00134946085Y00000554888*
X00134946186Y00000554786*
X00134946288Y00000554685*
Y00000554583*
X00134974482Y00000526389*
X00135007375Y00000504393*
X00135040674Y00000482193*
X00135114487Y00000451586*
X00135192490Y00000436092*
X00135272399*
X00135350377Y00000451586*
X00135424189Y00000482193*
X00135459978Y00000506095*
X00135490280Y00000526389*
X00135518575Y00000554685*
X00135518677Y00000554786*
X00135990380Y00001027480*
X00136013596Y00001050798*
X00136031782Y00001078077*
X00136051899Y00001103985*
X00136080982Y00001162481*
X00136089593Y00001194181*
X00136100388Y00001225092*
X00136109379Y00001289888*
X00136107474Y00001322578*
X00136107881Y00001355394*
X00136095892Y00001419580*
X00136083675Y00001450086*
X00136073692Y00001481277*
X00136067393Y00001492478*
X00136066276Y00001498396*
X00136066377Y00001502689*
X00136068892Y00001512392*
X00136071991Y00001519478*
X00136074480Y00001530883*
X00136079992Y00001541094*
X00136087993Y00001567180*
X00136088780Y00001575282*
X00136092082Y00001582597*
X00136103995Y00001635988*
X00136104198Y00001644091*
X00136106890Y00001651584*
X00136114688Y00001705787*
X00136114180Y00001713788*
X00136116288Y00001721586*
X00136119793Y00001776196*
X00136118676Y00001784197*
X00136120174Y00001792097*
X00136119793Y00001817979*
X00136120784Y00004289882*
Y00004290085*
Y00004290187*
Y00004364075*
X00136116898Y00004383786*
X00136116796Y00004403775*
X00136087891Y00004548784*
X00136080195Y00004567275*
X00136076283Y00004586986*
X00136019590Y00004723587*
X00136008491Y00004740275*
X00136000794Y00004758791*
X00135918498Y00004881676*
X00135904274Y00004895875*
X00135893175Y00004912487*
X00135788577Y00005016982*
X00135771890Y00005028184*
X00135757691Y00005042281*
X00135634679Y00005124399*
X00135616086Y00005132095*
X00135599398Y00005143195*
X00135462797Y00005199684*
X00135443087Y00005203596*
X00135424595Y00005211292*
X00135279587Y00005239994*
X00135259495*
X00135239785Y00005243880*
X00135165896Y00005243779*
X00134793888Y00005243880*
X00134331278Y00005705576*
X00134295591Y00005741593*
X00134278674Y00005752896*
X00134264400Y00005767298*
X00134178674Y00005824778*
X00134159878Y00005832576*
X00134143089Y00005843879*
X00134047687Y00005883376*
X00134027798Y00005887389*
X00134009079Y00005895086*
X00133907682Y00005914999*
X00133887387*
X00133867575Y00005918885*
X00133816597Y00005918682*
X00132917184*
X00132866282Y00005918885*
G37*
G36*
X00143489299Y00005867196D02*
X00143205200Y00005862878D01*
X00143179596Y00005857392*
X00143153485Y00005855385*
X00142879876Y00005779084*
X00142856483Y00005767298*
X00142831794Y00005758789*
X00142586481Y00005615381*
X00142566898Y00005598083*
X00142545079Y00005583478*
X00142344292Y00005382488*
X00142329789Y00005360797*
X00142312491Y00005341188*
X00142169286Y00005095798*
X00142160777Y00005070983*
X00142148991Y00005047691*
X00142072791Y00004773980*
X00142070886Y00004747793*
X00142065375Y00004722190*
X00142063393Y00004580178*
X00142063698Y00004578477*
X00142063393Y00004576775*
X00142064384Y00004571796*
Y00003875582*
X00142061996Y00003869893*
X00142056078Y00003867480*
X00141675688*
X00141640687Y00003868597*
X00141619376Y00003865092*
X00141562175Y00003855593*
X00141490192Y00003828491*
X00141422577Y00003786378*
X00141366494Y00003733800*
X00141320189Y00003669080*
X00141288490Y00003599078*
X00141270380Y00003521583*
X00141269186Y00003483076*
X00141269491Y00003481095*
X00141269085Y00003479088*
X00141266392Y00003269488*
X00141267789Y00003262198*
X00141266799Y00003254781*
X00141275079Y00003115081*
X00141278889Y00003100578*
X00141278991Y00003085693*
X00141335887Y00002811576*
X00141341779Y00002797886*
X00141344091Y00002783078*
X00141440077Y00002520188*
X00141447875Y00002507488*
X00141452295Y00002493187*
X00141585492Y00002246985*
X00141594992Y00002235479*
X00141601494Y00002221992*
X00141768880Y00001997684*
X00141779980Y00001987677*
X00141788286Y00001975281*
X00141986584Y00001777695*
X00141998979Y00001769389*
X00142008987Y00001758289*
X00142233777Y00001591487*
X00142247289Y00001585087*
X00142258796Y00001575587*
X00142505379Y00001443177*
X00142519679Y00001438783*
X00142532481Y00001431086*
X00142657880Y00001385697*
X00142658490Y00001385392*
X00142662275Y00001382496*
X00142663697Y00001378178*
Y00001270685*
X00142662681Y00001265682*
X00142662783Y00001265377*
X00142662681Y00001265199*
X00142662783Y00001225296*
X00142665983Y00001209598*
X00142678480Y00001147292*
X00142709188Y00001073683*
X00142727095Y00001047089*
X00142753588Y00001007592*
X00142810179Y00000951382*
X00142854578Y00000921791*
X00142876397Y00000907288*
X00142950184Y00000876985*
X00143000399Y00000867079*
X00143028289Y00000861695*
X00143068192Y00000861796*
X00143666184*
X00143666997Y00000861898*
X00143667784Y00000861796*
X00143667886*
X00143668597*
X00143708196Y00000861898*
X00143786199Y00000877798*
X00143859275Y00000908380*
X00143885894Y00000926287*
X00143925290Y00000952779*
X00143981093Y00001009091*
X00143998899Y00001035989*
X00144024985Y00001075385*
X00144055084Y00001148689*
Y00001148791*
X00144070298Y00001226896*
X00144070095Y00001265783*
Y00001376883*
X00144071898Y00001382293*
X00144076597Y00001385798*
X00144200778Y00001430299*
X00144213681Y00001437995*
X00144228185Y00001442389*
X00144475098Y00001574190*
X00144486782Y00001583791*
X00144500396Y00001590192*
X00144725390Y00001756689*
X00144735499Y00001767890*
X00144747996Y00001776298*
X00144946192Y00001973884*
X00144954599Y00001986381*
X00144965775Y00001996592*
X00145132882Y00002221077*
X00145139283Y00002234692*
X00145148884Y00002246376*
X00145281396Y00002492984*
X00145285790Y00002507386*
X00145293486Y00002520289*
X00145388380Y00002783586*
X00145390692Y00002798495*
X00145396483Y00002812389*
X00145451779Y00003086785*
X00145451880Y00003101898*
X00145455589Y00003116478*
X00145462879Y00003256280*
X00145462294Y00003260293*
X00145463082Y00003264281*
X00145465800Y00003473881*
X00145465393Y00003475990*
X00145465800Y00003478098*
X00145464682Y00003483483*
X00145463590Y00003520998*
X00145446877Y00003593490*
X00145445683Y00003598494*
X00145414187Y00003668496*
X00145368086Y00003733292*
X00145312180Y00003785895*
X00145270778Y00003811879*
X00145244794Y00003828084*
X00145172988Y00003855389*
X00145094579Y00003868597*
X00145059400Y00003867480*
X00144676876*
X00144671592Y00003869690*
X00144670475Y00003872382*
X00144669484Y00004610684*
X00144668595Y00004615078*
X00144669281Y00004619498*
X00144662982Y00004761382*
X00144656683Y00004786782*
X00144653990Y00004812893*
X00144569688Y00005084191*
X00144557191Y00005107178*
X00144547894Y00005131587*
X00144397399Y00005372582*
X00144379492Y00005391683*
X00144364278Y00005412994*
X00144157496Y00005607786*
X00144135297Y00005621680*
X00144115180Y00005638495*
X00143865676Y00005774385*
X00143840682Y00005782081*
X00143816984Y00005793282*
X00143541191Y00005861278*
X00143514978Y00005862497*
X00143489299Y00005867196*
G37*
G36*
X00152981279Y00005870092D02*
X00152960578Y00005868085D01*
X00152939775Y00005869990*
X00152716077Y00005846775*
X00152696189Y00005840577*
X00152675488Y00005838291*
X00152461188Y00005770397*
X00152442875Y00005760288*
X00152423088Y00005753887*
X00152226899Y00005643880*
X00152211074Y00005630392*
X00152192990Y00005620080*
X00152023089Y00005472785*
X00151939091Y00005453380*
X00151855576Y00005469788*
X00151596293Y00005729782*
X00151596191Y00005729884*
X00151596090Y00005729986*
X00151567997Y00005758078*
X00151501779Y00005802299*
X00151428297Y00005832779*
X00151350294Y00005848299*
X00151270690*
X00151192687Y00005832779*
X00151119179Y00005802299*
X00151052987Y00005758078*
X00151024894Y00005729986*
X00150601476Y00005306593*
X00150573790Y00005279288*
X00150529086Y00005213477*
X00150498276Y00005140477*
X00150482198Y00005062575*
X00150481588Y00004983276*
X00150496498Y00004905197*
X00150526292Y00004831791*
Y00004831689*
X00150547882Y00004798898*
X00150569980Y00004765294*
X00150597793Y00004736998*
X00150598378Y00004736592*
X00150598886Y00004735982*
X00150601781Y00004733975*
X00151340489Y00003994480*
X00151287784Y00003867480*
X00151272290*
X00151237188Y00003868597*
X00151158676Y00003855694*
X00151086693Y00003828491*
X00151019078Y00003786479*
X00150962995Y00003733876*
X00150916690Y00003669182*
X00150884890Y00003599078*
X00150866881Y00003521583*
X00150865687Y00003484676*
X00150858194Y00003333775*
X00150860582Y00003317697*
X00150859185Y00003301492*
X00150892484Y00002997276*
X00150897386Y00002981782*
X00150898580Y00002965475*
X00150979682Y00002670378*
X00150986998Y00002655874*
X00150990681Y00002639999*
X00151117376Y00002361488*
X00151126875Y00002348179*
X00151133098Y00002333193*
X00151302288Y00002078177*
X00151313794Y00002066594*
X00151322278Y00002052675*
X00151529592Y00001827682*
X00151542775Y00001818081*
X00151553392Y00001805787*
X00151793676Y00001616379*
X00151808281Y00001608988*
X00151820676Y00001598396*
X00152087986Y00001449476*
X00152103480Y00001444396*
X00152117399Y00001435989*
X00152253391Y00001386382*
X00152257582Y00001383182*
X00152259182Y00001378077*
Y00001265682*
Y00001265377*
Y00001265199*
X00152259284Y00001225296*
X00152274981Y00001147292*
X00152305689Y00001073683*
X00152350089Y00001007592*
X00152406578Y00000951382*
X00152472898Y00000907288*
X00152546685Y00000876985*
X00152624688Y00000861695*
X00152664591Y00000861796*
X00153262177*
X00153302081Y00000861695*
X00153380084Y00000876985*
X00153453896Y00000907288*
X00153486993Y00000929284*
X00153520190Y00000951382*
X00153576680Y00001007592*
X00153621079Y00001073683*
X00153651788Y00001147292*
X00153667485Y00001225296*
X00153667587Y00001265199*
Y00001265377*
Y00001265682*
Y00001378077*
X00153669187Y00001383080*
X00153673479Y00001386484*
X00153677188Y00001388084*
X00153857782Y00001463192*
X00153862278Y00001464894*
X00153867789Y00001465681*
X00153872488Y00001463294*
X00154338578Y00000997178*
X00154366595Y00000969187*
X00154432787Y00000924991*
X00154505990Y00000894588*
X00154584095Y00000879094*
X00154663292*
X00154741397Y00000894588*
X00154814574Y00000924991*
X00154847696Y00000947089*
X00154880792Y00000969187*
X00154908783Y00000997178*
X00155332684Y00001421079*
X00155360878Y00001449197*
X00155405099Y00001515389*
X00155435477Y00001588897*
X00155450997Y00001666875*
Y00001746478*
X00155435477Y00001824482*
Y00001824583*
X00155405099Y00001897989*
X00155360878Y00001964182*
X00155332684Y00001992299*
X00154867279Y00002457780*
X00154864790Y00002462580*
X00154865578Y00002468194*
X00154913584Y00002567787*
X00154916886Y00002580589*
X00154923388Y00002592095*
X00154998597Y00002819298*
X00155000198Y00002832379*
X00155005176Y00002844698*
X00155050591Y00003079597*
Y00003092881*
X00155053995Y00003105683*
X00155068778Y00003344494*
X00155067076Y00003357575*
X00155068778Y00003370681*
X00155061081Y00003486175*
X00155060091Y00003520795*
X00155042285Y00003598392*
X00155010789Y00003668293*
X00154964688Y00003733190*
X00154908885Y00003785793*
X00154841498Y00003827983*
X00154769794Y00003855288*
X00154691384Y00003868496*
X00154656078Y00003867480*
X00154273885*
X00154268982Y00003869486*
X00154266976Y00003874389*
X00154265985Y00004610684*
X00154265096Y00004615078*
X00154265782Y00004619599*
X00154260677Y00004731893*
X00154255698Y00004752187*
X00154254581Y00004772990*
X00154199285Y00004990998*
X00154190293Y00005009692*
X00154185086Y00005029885*
X00154086788Y00005232196*
X00154074190Y00005248783*
X00154064995Y00005267375*
X00153927784Y00005445683*
X00153912087Y00005459399*
X00153899285Y00005475782*
X00153728877Y00005622594*
X00153710792Y00005632780*
X00153694892Y00005646293*
X00153498397Y00005755589*
X00153478484Y00005761990*
X00153460297Y00005771997*
X00153245693Y00005839282*
X00153224992Y00005841492*
X00153204976Y00005847588*
X00152981279Y00005870092*
G37*
%LNwcam-touch-fpc-r01_copper_signal_top-3*%
%LPD*%
G54D10*
X00155949980Y00005749975D03*
X00146299986D03*
X00136299981D03*
X00125549990D03*
X00028349981Y00005799988D03*
X00016899991Y00005749975D03*
G54D11*
X00157335880Y00006085890D02*
D01*
X00157311648Y00006108496*
X00157285867Y00006129375*
X00157258715Y00006148374*
X00157230292Y00006165469*
X00157200752Y00006180505*
X00157170221Y00006193459*
X00157138878Y00006204254*
X00157106848Y00006212840*
X00157098492Y00006214694*
X00157335880Y00006085890D02*
D01*
X00157311648Y00006108496*
X00157285867Y00006129375*
X00157258715Y00006148374*
X00157230292Y00006165469*
X00157200752Y00006180505*
X00157170221Y00006193459*
X00157138878Y00006204254*
X00157106848Y00006212840*
X00157098492Y00006214694*
X00158324981Y00004999990D02*
D01*
X00158323584Y00005040096*
X00158319393Y00005080000*
X00158312434Y00005119547*
X00158302706Y00005158486*
X00158290310Y00005196636*
X00158275274Y00005233873*
X00158257671Y00005269941*
X00158237605Y00005304688*
X00158215177Y00005337962*
X00158190463Y00005369585*
X00158163615Y00005399405*
X00158134735Y00005427294*
X00158104001Y00005453100*
X00158071515Y00005476671*
X00158037479Y00005497957*
X00158002046Y00005516803*
X00157965394Y00005533110*
X00157927675Y00005546852*
X00157889092Y00005557901*
X00157856783Y00005564987*
X00157184979Y00004893183D02*
D01*
X00157193818Y00004854041*
X00157205324Y00004815586*
X00157219523Y00004778044*
X00157236287Y00004741595*
X00157255565Y00004706391*
X00157277231Y00004672609*
X00157301209Y00004640427*
X00157327371Y00004609998*
X00157355616Y00004581474*
X00157385766Y00004554982*
X00157417668Y00004530648*
X00157451221Y00004508601*
X00157486223Y00004488967*
X00157522494Y00004471822*
X00157559883Y00004457242*
X00157598211Y00004445304*
X00157637276Y00004436059*
X00157676875Y00004429556*
X00157716829Y00004425848*
X00157756961Y00004424934*
X00157797042Y00004426839*
X00157836895Y00004431512*
X00157876341Y00004438954*
X00157915152Y00004449140*
X00157953176Y00004461992*
X00157990209Y00004477486*
X00158026049Y00004495520*
X00158060567Y00004515993*
X00158093562Y00004538853*
X00158124880Y00004563922*
X00158154395Y00004591151*
X00158181929Y00004620361*
X00158207329Y00004651400*
X00158230544Y00004684166*
X00158251398Y00004718456*
X00158269787Y00004754118*
X00158285688Y00004790973*
X00158298946Y00004828844*
X00158309538Y00004867554*
X00158317412Y00004906899*
X00158322518Y00004946726*
X00158324829Y00004986782*
X00158324981Y00004999990*
X00148724975Y00004949977D02*
D01*
X00148723578Y00004990109*
X00148719387Y00005030012*
X00148712428Y00005069535*
X00148702725Y00005108473*
X00148690304Y00005146649*
X00148675267Y00005183860*
X00148657691Y00005219928*
X00148637625Y00005254701*
X00148615171Y00005287975*
X00148590457Y00005319598*
X00148563609Y00005349417*
X00148534729Y00005377307*
X00148503995Y00005403088*
X00148471534Y00005426684*
X00148437498Y00005447944*
X00148402040Y00005466791*
X00148365387Y00005483123*
X00148327668Y00005496839*
X00148289086Y00005507913*
X00148256675Y00005514975*
X00147584998Y00004843195D02*
D01*
X00147593812Y00004804029*
X00147605343Y00004765598*
X00147619516Y00004728057*
X00147636280Y00004691583*
X00147655559Y00004656378*
X00147677225Y00004622596*
X00147701203Y00004590415*
X00147727390Y00004559985*
X00147755610Y00004531461*
X00147785759Y00004504969*
X00147817687Y00004480661*
X00147851215Y00004458614*
X00147886216Y00004438980*
X00147922513Y00004421809*
X00147959902Y00004407230*
X00147998205Y00004395292*
X00148037270Y00004386046*
X00148076869Y00004379569*
X00148116823Y00004375861*
X00148156955Y00004374946*
X00148197036Y00004376826*
X00148236914Y00004381500*
X00148276335Y00004388967*
X00148315172Y00004399127*
X00148353170Y00004412005*
X00148390203Y00004427474*
X00148426068Y00004445508*
X00148460561Y00004466005*
X00148493556Y00004488840*
X00148524899Y00004513935*
X00148554389Y00004541139*
X00148581922Y00004570349*
X00148607348Y00004601413*
X00148630538Y00004634153*
X00148651391Y00004668443*
X00148669806Y00004704105*
X00148685681Y00004740960*
X00148698940Y00004778857*
X00148709532Y00004817567*
X00148717406Y00004856911*
X00148722511Y00004896713*
X00148724823Y00004936794*
X00148724975Y00004949977*
X00147685887Y00006085890D02*
D01*
X00147661630Y00006108496*
X00147635874Y00006129375*
X00147608721Y00006148374*
X00147580299Y00006165469*
X00147550733Y00006180505*
X00147520228Y00006193459*
X00147498892Y00006201079*
X00147685887Y00006085890D02*
D01*
X00147661630Y00006108496*
X00147635874Y00006129375*
X00147608721Y00006148374*
X00147580299Y00006165469*
X00147550733Y00006180505*
X00147520228Y00006193459*
X00147498892Y00006201079*
X00138724995Y00004999990D02*
D01*
X00138723598Y00005040096*
X00138719382Y00005080000*
X00138712422Y00005119547*
X00138702719Y00005158486*
X00138690299Y00005196636*
X00138675287Y00005233873*
X00138657685Y00005269941*
X00138637619Y00005304688*
X00138615166Y00005337962*
X00138590451Y00005369585*
X00138563604Y00005399405*
X00138534749Y00005427294*
X00138503990Y00005453100*
X00138471529Y00005476671*
X00138437493Y00005497957*
X00138402060Y00005516803*
X00138365382Y00005533110*
X00138327663Y00005546852*
X00138289080Y00005557901*
X00138256695Y00005564987*
X00137584992Y00004893183D02*
D01*
X00137593806Y00004854041*
X00137605338Y00004815586*
X00137619511Y00004778044*
X00137636275Y00004741595*
X00137655554Y00004706391*
X00137677245Y00004672609*
X00137701223Y00004640427*
X00137727385Y00004609998*
X00137755604Y00004581474*
X00137785754Y00004554982*
X00137817682Y00004530648*
X00137851210Y00004508601*
X00137886211Y00004488967*
X00137922508Y00004471822*
X00137959896Y00004457242*
X00137998200Y00004445304*
X00138037265Y00004436059*
X00138076863Y00004429556*
X00138116843Y00004425848*
X00138156950Y00004424934*
X00138197056Y00004426839*
X00138236909Y00004431512*
X00138276330Y00004438954*
X00138315166Y00004449140*
X00138353165Y00004461992*
X00138390198Y00004477486*
X00138426063Y00004495520*
X00138460581Y00004515993*
X00138493576Y00004538853*
X00138524894Y00004563922*
X00138554383Y00004591151*
X00138581917Y00004620361*
X00138607342Y00004651400*
X00138630533Y00004684166*
X00138651386Y00004718456*
X00138669801Y00004754118*
X00138685676Y00004790973*
X00138698935Y00004828844*
X00138709527Y00004867554*
X00138717401Y00004906899*
X00138722506Y00004946726*
X00138724817Y00004986782*
X00138724995Y00004999990*
X00137735894Y00006085890D02*
D01*
X00137711637Y00006108496*
X00137685881Y00006129375*
X00137658703Y00006148374*
X00137630281Y00006165469*
X00137600740Y00006180505*
X00137570235Y00006193459*
X00137538866Y00006204254*
X00137506837Y00006212840*
X00137498886Y00006214592*
X00137735894Y00006085890D02*
D01*
X00137711637Y00006108496*
X00137685881Y00006129375*
X00137658703Y00006148374*
X00137630281Y00006165469*
X00137600740Y00006180505*
X00137570235Y00006193459*
X00137538866Y00006204254*
X00137506837Y00006212840*
X00137498886Y00006214592*
X00127974979Y00005049977D02*
D01*
X00127973582Y00005090109*
X00127969391Y00005130012*
X00127962431Y00005169535*
X00127952703Y00005208473*
X00127940308Y00005246649*
X00127925271Y00005283860*
X00127907694Y00005319928*
X00127887603Y00005354701*
X00127865174Y00005387975*
X00127840460Y00005419598*
X00127813612Y00005449417*
X00127784733Y00005477306*
X00127753999Y00005503087*
X00127721512Y00005526684*
X00127687476Y00005547944*
X00127652043Y00005566791*
X00127615391Y00005583123*
X00127577672Y00005596839*
X00127539089Y00005607913*
X00127506780Y00005614974*
X00126834976Y00004943297D02*
D01*
X00126843815Y00004904130*
X00126855347Y00004865700*
X00126869520Y00004828159*
X00126886284Y00004791684*
X00126905562Y00004756480*
X00126927229Y00004722698*
X00126951206Y00004690516*
X00126977394Y00004660087*
X00127005613Y00004631563*
X00127035763Y00004605070*
X00127067691Y00004580763*
X00127101219Y00004558715*
X00127136220Y00004539081*
X00127172491Y00004521911*
X00127209880Y00004507331*
X00127248208Y00004495393*
X00127287274Y00004486148*
X00127326872Y00004479671*
X00127366826Y00004475962*
X00127406958Y00004475048*
X00127447040Y00004476927*
X00127486892Y00004481601*
X00127526338Y00004489043*
X00127565150Y00004499229*
X00127603173Y00004512106*
X00127640207Y00004527575*
X00127676071Y00004545609*
X00127710565Y00004566107*
X00127743559Y00004588941*
X00127774903Y00004614037*
X00127804392Y00004641240*
X00127831926Y00004670450*
X00127857351Y00004701514*
X00127880541Y00004734255*
X00127901395Y00004768545*
X00127919810Y00004804206*
X00127935685Y00004841062*
X00127948944Y00004878959*
X00127959535Y00004917668*
X00127967409Y00004957013*
X00127972515Y00004996815*
X00127974826Y00005036896*
X00127974979Y00005049977*
X00127035890Y00006085890D02*
D01*
X00127011633Y00006108496*
X00126985877Y00006129375*
X00126958699Y00006148374*
X00126930277Y00006165469*
X00126900736Y00006180505*
X00126870231Y00006193459*
X00126838862Y00006204254*
X00126806858Y00006212840*
X00126774295Y00006219164*
X00126741377Y00006223203*
X00126719685Y00006224574*
X00127035890Y00006085890D02*
D01*
X00127011633Y00006108496*
X00126985877Y00006129375*
X00126958699Y00006148374*
X00126930277Y00006165469*
X00126900736Y00006180505*
X00126870231Y00006193459*
X00126838862Y00006204254*
X00126806858Y00006212840*
X00126774295Y00006219164*
X00126741377Y00006223203*
X00126719685Y00006224574*
X00030724983Y00004999990D02*
D01*
X00030723586Y00005040096*
X00030719395Y00005080000*
X00030712410Y00005119547*
X00030702707Y00005158486*
X00030690312Y00005196636*
X00030675275Y00005233873*
X00030657673Y00005269941*
X00030637607Y00005304688*
X00030615178Y00005337962*
X00030590464Y00005369585*
X00030563616Y00005399405*
X00030534737Y00005427294*
X00030504003Y00005453100*
X00030471516Y00005476671*
X00030437480Y00005497957*
X00030402047Y00005516803*
X00030365395Y00005533110*
X00030327676Y00005546852*
X00030289093Y00005557901*
X00030256784Y00005564987*
X00029685894Y00006135878D02*
D01*
X00029661637Y00006158509*
X00029635881Y00006179362*
X00029608703Y00006198387*
X00029580281Y00006215456*
X00029550741Y00006230518*
X00029520235Y00006243472*
X00029499890Y00006250686*
X00029685894Y00006135878D02*
D01*
X00029661637Y00006158509*
X00029635881Y00006179362*
X00029608703Y00006198387*
X00029580281Y00006215456*
X00029550741Y00006230518*
X00029520235Y00006243472*
X00029499890Y00006250686*
X00029584980Y00004893183D02*
D01*
X00029593794Y00004854041*
X00029605325Y00004815586*
X00029619524Y00004778044*
X00029636288Y00004741595*
X00029655566Y00004706391*
X00029677233Y00004672609*
X00029701210Y00004640427*
X00029727372Y00004609998*
X00029755617Y00004581474*
X00029785767Y00004554982*
X00029817669Y00004530648*
X00029851223Y00004508601*
X00029886224Y00004488967*
X00029922495Y00004471822*
X00029959884Y00004457242*
X00029998212Y00004445304*
X00030037252Y00004436059*
X00030076876Y00004429556*
X00030116830Y00004425848*
X00030156962Y00004424934*
X00030197044Y00004426839*
X00030236896Y00004431512*
X00030276342Y00004438954*
X00030315154Y00004449140*
X00030353177Y00004461992*
X00030390211Y00004477486*
X00030426050Y00004495520*
X00030460569Y00004515993*
X00030493563Y00004538853*
X00030524881Y00004563922*
X00030554396Y00004591151*
X00030581904Y00004620361*
X00030607330Y00004651400*
X00030630545Y00004684166*
X00030651399Y00004718456*
X00030669788Y00004754118*
X00030685689Y00004790973*
X00030698948Y00004828844*
X00030709539Y00004867554*
X00030717413Y00004906899*
X00030722519Y00004946726*
X00030724830Y00004986782*
X00030724983Y00004999990*
X00019324980D02*
D01*
X00019323583Y00005040096*
X00019319392Y00005080000*
X00019312432Y00005119547*
X00019302704Y00005158486*
X00019290309Y00005196636*
X00019275272Y00005233873*
X00019257670Y00005269941*
X00019237604Y00005304688*
X00019215176Y00005337962*
X00019190462Y00005369585*
X00019163614Y00005399405*
X00019134734Y00005427294*
X00019104000Y00005453100*
X00019071513Y00005476671*
X00019037477Y00005497957*
X00019002044Y00005516803*
X00018965392Y00005533110*
X00018927673Y00005546852*
X00018889091Y00005557901*
X00018856782Y00005564987*
X00018184977Y00004893183D02*
D01*
X00018193816Y00004854041*
X00018205323Y00004815586*
X00018219521Y00004778044*
X00018236285Y00004741595*
X00018255564Y00004706391*
X00018277230Y00004672609*
X00018301208Y00004640427*
X00018327370Y00004609998*
X00018355614Y00004581474*
X00018385764Y00004554982*
X00018417692Y00004530648*
X00018451220Y00004508601*
X00018486221Y00004488967*
X00018522492Y00004471822*
X00018559881Y00004457242*
X00018598210Y00004445304*
X00018637275Y00004436059*
X00018676874Y00004429556*
X00018716828Y00004425848*
X00018756960Y00004424934*
X00018797041Y00004426839*
X00018836894Y00004431512*
X00018876340Y00004438954*
X00018915151Y00004449140*
X00018953175Y00004461992*
X00018990208Y00004477486*
X00019026047Y00004495520*
X00019060566Y00004515993*
X00019093561Y00004538853*
X00019124904Y00004563922*
X00019154394Y00004591151*
X00019181927Y00004620361*
X00019207327Y00004651400*
X00019230543Y00004684166*
X00019251396Y00004718456*
X00019269786Y00004754118*
X00019285686Y00004790973*
X00019298945Y00004828844*
X00019309537Y00004867554*
X00019317411Y00004906899*
X00019322516Y00004946726*
X00019324828Y00004986782*
X00019324980Y00004999990*
X00018335879Y00006085890D02*
D01*
X00018311647Y00006108496*
X00018285866Y00006129375*
X00018258713Y00006148374*
X00018230291Y00006165469*
X00018200751Y00006180505*
X00018170220Y00006193459*
X00018138876Y00006204254*
X00018106847Y00006212840*
X00018099989Y00006214389*
X00018335879Y00006085890D02*
D01*
X00018311647Y00006108496*
X00018285866Y00006129375*
X00018258713Y00006148374*
X00018230291Y00006165469*
X00018200751Y00006180505*
X00018170220Y00006193459*
X00018138876Y00006204254*
X00018106847Y00006212840*
X00018099989Y00006214389*
X00192620392Y00005799886D02*
X00204691183D01*
X00192599589Y00005813780D02*
Y00006293688D01*
X00192646376Y00005789091D02*
X00192804796Y00005683275D01*
X00192199590Y00005937275D02*
Y00006293688D01*
X00192182292Y00005940780D02*
X00192369186Y00005903696D01*
X00192421789Y00005887796D02*
X00192597887Y00005814898D01*
X00193799587Y00004478680D02*
Y00006293688D01*
X00193399587Y00004612690D02*
Y00006293688D01*
X00193064790Y00005399887D02*
X00204691183D01*
X00192999588Y00005488686D02*
Y00006293688D01*
X00192847290Y00005648375D02*
X00192982088Y00005513781D01*
X00193016987Y00005471287D02*
X00193122880Y00005312994D01*
X00191399591Y00005946089D02*
Y00006293688D01*
X00190999592Y00005946089D02*
Y00006293688D01*
X00191799591Y00005946089D02*
Y00006293688D01*
X00188999596Y00005946089D02*
Y00006293688D01*
X00188599597Y00005946089D02*
Y00006293688D01*
X00189399595Y00005946089D02*
Y00006293688D01*
X00192032585Y00005946089D02*
X00192127581D01*
X00190599593D02*
Y00006293688D01*
X00187367087Y00005946089D02*
X00192032483D01*
X00189799595D02*
Y00006293688D01*
X00188199598Y00005946089D02*
Y00006293688D01*
X00190199594Y00005946089D02*
Y00006293688D01*
X00193946983Y00003799890D02*
X00204691183D01*
X00193941700Y00004199890D02*
X00204691183D01*
X00193946780Y00003399891D02*
X00204691183D01*
X00193833775Y00004444593D02*
X00193894786Y00004353788D01*
X00193777285Y00004500880D02*
X00193833775Y00004444593D01*
X00193894786Y00004353788D02*
X00193925494Y00004280179D01*
X00193946475Y00002999892D02*
X00204691183D01*
X00193946195Y00002599893D02*
X00204691183D01*
X00193730676Y00002199894D02*
X00204691183D01*
X00193946195Y00002598775D02*
X00193947186Y00004132199D01*
X00193894481Y00002378379D02*
X00193924885Y00002451887D01*
X00193777387Y00002231186D02*
X00193833699Y00002287498D01*
X00193280588Y00004699000D02*
Y00004612690D01*
X00193244978Y00004999888D02*
X00204691183D01*
X00193280588Y00004612690D02*
X00193465881D01*
X00193237891Y00005035880D02*
X00193275077Y00004849088D01*
X00193148889Y00005264480D02*
X00193221889Y00005088483D01*
X00193280487Y00004794377D02*
X00193280588Y00004699177D01*
X00193686176Y00004561382D02*
X00193777285Y00004500880D01*
X00193570682Y00004599889D02*
X00204691183D01*
X00193612897Y00002139975D02*
X00193686379Y00002170379D01*
X00193612389Y00004591786D02*
X00193686176Y00004561382D01*
X00193505582Y00002118588D02*
X00193612897Y00002139975D01*
X00193280080Y00002118588D02*
X00193465881D01*
X00187799599Y00005946089D02*
Y00006293688D01*
X00187399599Y00005946089D02*
Y00006293688D01*
X00187271787Y00005946089D02*
X00187367087D01*
X00187030182Y00005903696D02*
X00187217075Y00005940780D01*
X00186999575Y00005892088D02*
Y00006293688D01*
X00186801582Y00005814898D02*
X00186977578Y00005887796D01*
X00186599576Y00005686577D02*
Y00006293688D01*
X00186594597Y00005683275D02*
X00186753093Y00005789091D01*
X00186417280Y00005513781D02*
X00186552078Y00005648375D01*
X00186276488Y00005312994D02*
X00186382380Y00005471287D01*
X00186199576Y00005141595D02*
Y00006293688D01*
X00186177580Y00005088483D02*
X00186250580Y00005264480D01*
X00180264892Y00005399887D02*
X00186334679D01*
X00180217089Y00005471287D02*
X00180322982Y00005312994D01*
X00180348991Y00005264480D02*
X00180421991Y00005088483D01*
X00180199588Y00005488787D02*
Y00006293688D01*
X00179846478Y00005789091D02*
X00180004897Y00005683275D01*
X00180047493Y00005648375D02*
X00180182189Y00005513781D01*
X00186124291Y00004849088D02*
X00186161578Y00005035880D01*
X00180999587Y00004478782D02*
Y00006293688D01*
X00180445079Y00004999888D02*
X00186154390D01*
X00180599588Y00004612690D02*
Y00006293688D01*
X00180437993Y00005035880D02*
X00180475178Y00004849088D01*
X00180480589Y00004794377D02*
X00180480690Y00004699177D01*
X00186118881D02*
Y00004794377D01*
X00181147085Y00003799890D02*
X00186118881D01*
X00181146881Y00003399891D02*
X00186118881D01*
X00181094888Y00004353788D02*
X00181125596Y00004280179D01*
X00181033877Y00004444593D02*
X00181094888Y00004353788D01*
X00181141776Y00004199890D02*
X00186118881D01*
Y00004699000D02*
Y00002032279D01*
X00181146577Y00002999892D02*
X00186118881D01*
X00181146297Y00002599893D02*
X00186118881D01*
X00181146297Y00002598775D02*
X00181147389Y00004132199D01*
X00181094583Y00002378379D02*
X00181124987Y00002451887D01*
X00180977489Y00002231186D02*
X00181033775Y00002287498D01*
X00180886277Y00004561382D02*
X00180977387Y00004500880D01*
X00180770784Y00004599889D02*
X00186118881D01*
X00180977387Y00004500880D02*
X00181033877Y00004444593D01*
X00180480690Y00004612690D02*
X00180665983D01*
X00180480690Y00004699000D02*
Y00004612690D01*
X00180812490Y00004591786D02*
X00180886277Y00004561382D01*
X00180930778Y00002199894D02*
X00186118881D01*
X00180812998Y00002139975D02*
X00180886582Y00002170379D01*
X00180705683Y00002118588D02*
X00180812998Y00002139975D01*
X00180479700Y00002030679D02*
X00180480182Y00002118588D01*
X00180665983*
X00202199494Y00000306298D02*
Y00006293688D01*
X00201799494Y00000306298D02*
Y00006293688D01*
X00202599493Y00000306298D02*
Y00006293688D01*
X00200999598Y00000306298D02*
Y00006293688D01*
X00200599497Y00000306298D02*
Y00006293688D01*
X00201399597Y00000306298D02*
Y00006293688D01*
X00204599489Y00000306298D02*
Y00006293688D01*
X00204199490Y00000306298D02*
Y00006293688D01*
X00204691183Y00000306298D02*
Y00006293688D01*
X00203399491Y00000306298D02*
Y00006293688D01*
X00202999492Y00000306298D02*
Y00006293688D01*
X00203799490Y00000306298D02*
Y00006293688D01*
X00195799583Y00000306298D02*
Y00006293688D01*
X00195399583Y00000306298D02*
Y00006293688D01*
X00196199582Y00000306298D02*
Y00006293688D01*
X00194599585Y00000306298D02*
Y00006293688D01*
X00194199586Y00000306298D02*
Y00006293688D01*
X00194999584Y00000306298D02*
Y00006293688D01*
X00199799498Y00000306298D02*
Y00006293688D01*
X00199399575Y00000306298D02*
Y00006293688D01*
X00200199599Y00000306298D02*
Y00006293688D01*
X00196999580Y00000306298D02*
Y00006293688D01*
X00196599581Y00000306298D02*
Y00006293688D01*
X00198999576Y00000306298D02*
Y00006293688D01*
X00193279598Y00002030679D02*
X00193280080Y00002118588D01*
X00193257779Y00001799996D02*
X00204691183D01*
X00193109799Y00001399997D02*
X00204691183D01*
X00193279598Y00002030679D02*
Y00001937080D01*
X00193236977Y00001695678D02*
X00193274188Y00001882394D01*
X00193148178Y00001467078D02*
X00193221076Y00001643075D01*
X00198199578Y00000306298D02*
Y00006293688D01*
X00197799477Y00000306298D02*
Y00006293688D01*
X00198599475Y00000306298D02*
Y00006293688D01*
X00197399579Y00000306298D02*
Y00006293688D01*
X00193799587Y00000306298D02*
Y00002253284D01*
X00193399587Y00000306298D02*
Y00002118588D01*
X00193016479Y00001260297D02*
X00193122296Y00001418691D01*
X00192846985Y00001083183D02*
X00192981681Y00001217879D01*
X00192732075Y00000999896D02*
X00204691183D01*
X00192646198Y00000942594D02*
X00192804491Y00001048283D01*
X00192421789Y00000843788D02*
X00192597684Y00000916584D01*
X00192182394Y00000790676D02*
X00192369186Y00000827786D01*
X00192999588Y00000306298D02*
Y00001243380D01*
X00192599589Y00000306298D02*
Y00000917879D01*
X00192199590Y00000306298D02*
Y00000794080D01*
X00187367087Y00000785291D02*
X00192032483D01*
X00192127682*
X00186177580Y00001642795D02*
X00186250580Y00001466799D01*
X00186124291Y00001882190D02*
X00186161578Y00001695399D01*
X00186276488Y00001418386D02*
X00186382380Y00001259992D01*
X00183799581Y00000306298D02*
Y00006293688D01*
X00183399582Y00000306298D02*
Y00006293688D01*
X00186118881Y00002032177D02*
Y00001936877D01*
X00185799577Y00000306298D02*
Y00006293688D01*
X00185399578Y00000306298D02*
Y00006293688D01*
X00186199576Y00000306298D02*
Y00001589786D01*
X00184599580Y00000306298D02*
Y00006293688D01*
X00184199580Y00000306298D02*
Y00006293688D01*
X00184999579Y00000306298D02*
Y00006293688D01*
X00180599588Y00000306298D02*
Y00002118588D01*
X00180479700Y00002030679D02*
Y00001937080D01*
X00180457881Y00001799996D02*
X00186140699D01*
X00180437078Y00001695678D02*
X00180474289Y00001882394D01*
X00180348280Y00001467078D02*
X00180421178Y00001643075D01*
X00180216581Y00001260297D02*
X00180322397Y00001418691D01*
X00182599584Y00000306298D02*
Y00006293688D01*
X00182199584Y00000306298D02*
Y00006293688D01*
X00182999583Y00000306298D02*
Y00006293688D01*
X00181799585Y00000306298D02*
Y00006293688D01*
X00181399586Y00000306298D02*
Y00006293688D01*
X00180999587Y00000306298D02*
Y00002253284D01*
X00188999596Y00000306298D02*
Y00000785291D01*
X00188599597Y00000306298D02*
Y00000785291D01*
X00189399595Y00000306298D02*
Y00000785291D01*
X00187799599Y00000306298D02*
Y00000785291D01*
X00187399599Y00000306298D02*
Y00000785291D01*
X00188199598Y00000306298D02*
Y00000785291D01*
X00191399591Y00000306298D02*
Y00000785291D01*
X00190999592Y00000306298D02*
Y00000785291D01*
X00191799591Y00000306298D02*
Y00000785291D01*
X00190199594Y00000306298D02*
Y00000785291D01*
X00189799595Y00000306298D02*
Y00000785291D01*
X00190599593Y00000306298D02*
Y00000785291D01*
X00186594597Y00001048080D02*
X00186753093Y00000942289D01*
X00179932177Y00000999896D02*
X00186666682D01*
X00186801582Y00000916381D02*
X00186977578Y00000843584D01*
X00180309875Y00001399997D02*
X00186288781D01*
X00180047087Y00001083183D02*
X00180181783Y00001217879D01*
X00186417280Y00001217599D02*
X00186552078Y00001082878D01*
X00187030182Y00000827684D02*
X00187217075Y00000790575D01*
X00186999575Y00000306298D02*
Y00000839190D01*
X00187271787Y00000785190D02*
X00187367087Y00000785291D01*
X00180199588Y00000306298D02*
Y00001243279D01*
X00186599576Y00000306298D02*
Y00001044676D01*
X00178599592Y00005946089D02*
Y00006293688D01*
X00178199592Y00005946089D02*
Y00006293688D01*
X00178999591Y00005946089D02*
Y00006293688D01*
X00176599596Y00005946089D02*
Y00006293688D01*
X00176199596Y00005946089D02*
Y00006293688D01*
X00176999595Y00005946089D02*
Y00006293688D01*
X00179799589Y00005813882D02*
Y00006293688D01*
X00179399590Y00005937377D02*
Y00006293688D01*
X00179382496Y00005940780D02*
X00179569287Y00005903696D01*
X00177799593Y00005946089D02*
Y00006293688D01*
X00177399594Y00005946089D02*
Y00006293688D01*
X00179232687Y00005946089D02*
X00179327683D01*
X00157152289Y00006199886D02*
X00204691183D01*
X00157098492Y00006293688D02*
X00204691183D01*
X00174567189Y00005946089D02*
X00179232687D01*
X00175799597D02*
Y00006293688D01*
X00174599600Y00005946089D02*
Y00006293688D01*
X00174471888Y00005946089D02*
X00174567189D01*
X00175399598D02*
Y00006293688D01*
X00174999599Y00005946089D02*
Y00006293688D01*
X00174230284Y00005903696D02*
X00174417177Y00005940780D01*
X00173799576Y00005686475D02*
Y00006293688D01*
X00173399577Y00005141391D02*
Y00006293688D01*
X00174199575Y00005892088D02*
Y00006293688D01*
X00179621891Y00005887796D02*
X00179797989Y00005814898D01*
X00174001684D02*
X00174177680Y00005887796D01*
X00179820493Y00005799886D02*
X00186779077D01*
X00173794699Y00005683275D02*
X00173953195Y00005789091D01*
X00173617382Y00005513781D02*
X00173752179Y00005648375D01*
X00173476589Y00005312994D02*
X00173582584Y00005471287D01*
X00173377682Y00005088483D02*
X00173450681Y00005264480D01*
X00173324393Y00004849088D02*
X00173361680Y00005035880D01*
X00173318982Y00004699177D02*
Y00004794377D01*
X00165530377Y00003399891D02*
X00173318982D01*
X00165530377Y00003299993D02*
Y00003472383D01*
Y00003127578D02*
Y00003299993D01*
X00158163082Y00005399887D02*
X00173534781D01*
X00157621782Y00005799886D02*
X00173979179D01*
X00164610491Y00004999888D02*
X00173354492D01*
X00165324891Y00004199890D02*
X00173318982D01*
X00165066776Y00004599889D02*
X00173318982D01*
X00165470687Y00003799890D02*
X00173318982D01*
X00165510489Y00002999892D02*
X00173318982D01*
X00165457682Y00002734792D02*
X00165524992Y00003072892D01*
X00165407695Y00002599893D02*
X00173318982D01*
X00165457682Y00003865194D02*
X00165524992Y00003527094D01*
X00165309880Y00002363774D02*
X00165441782Y00002682290D01*
X00163799596Y00005310581D02*
Y00006293688D01*
X00163327588Y00005330393D02*
X00163672393D01*
X00163727079Y00005324983D02*
X00164065178Y00005257800D01*
X00163399597Y00005330393D02*
Y00006293688D01*
X00162999597Y00005270576D02*
Y00006293688D01*
X00162934777Y00005257800D02*
X00163272876Y00005324983D01*
X00164999593Y00004671796D02*
Y00006293688D01*
X00164599594Y00005007178D02*
Y00006293688D01*
X00165399593Y00004019575D02*
Y00006293688D01*
X00164199595Y00005207889D02*
Y00006293688D01*
X00162599598Y00005124678D02*
Y00006293688D01*
X00164117782Y00005241798D02*
X00164436196Y00005109895D01*
X00157799582Y00005622086D02*
Y00006293688D01*
X00157399583Y00006022086D02*
Y00006293688D01*
X00157098492Y00006214694D02*
Y00006293688D01*
Y00006214694D02*
Y00006293688D01*
X00162199599Y00004866589D02*
Y00006293688D01*
X00161799574Y00004409795D02*
Y00006293688D01*
X00162563784Y00005109895D02*
X00162882199Y00005241798D01*
X00158199582Y00005358384D02*
Y00006293688D01*
X00157335880Y00006085890D02*
X00157856783Y00005564987D01*
X00164813792Y00004857597D02*
X00165057582Y00004613783D01*
X00164484685Y00005083987D02*
X00164771298Y00004892395D01*
X00165092481Y00004571288D02*
X00165283997Y00004284675D01*
X00162228682Y00004892395D02*
X00162515296Y00005083987D01*
X00161942399Y00004613783D02*
X00162186188Y00004857597D01*
X00161715983Y00004284675D02*
X00161907499Y00004571288D01*
X00165309880Y00004236186D02*
X00165441782Y00003917696D01*
X00161558198D02*
X00161690075Y00004236186D01*
X00161558198Y00002682290D02*
X00161690075Y00002363774D01*
X00161474988Y00003527094D02*
X00161542298Y00003865194D01*
X00161469578Y00003127578D02*
Y00003299993D01*
X00161474988Y00003072892D02*
X00161542298Y00002734792D01*
X00158324981Y00004999888D02*
X00162389489D01*
X00158162980Y00004599889D02*
X00161933178D01*
X00157098492Y00004199890D02*
X00161675089D01*
X00157098492Y00004979695D02*
X00157184979Y00004893183D01*
X00157098492Y00004599889D02*
X00157336998D01*
X00157098492Y00002999892D02*
X00161489491D01*
X00157098492Y00003799890D02*
X00161529293D01*
X00157098492Y00002599893D02*
X00161592285D01*
X00161469578Y00003299993D02*
Y00003472383D01*
X00157098492Y00003399891D02*
X00161469578D01*
X00173476589Y00001418386D02*
X00173582584Y00001259992D01*
X00173377682Y00001642795D02*
X00173450681Y00001466799D01*
X00173617382Y00001217599D02*
X00173752179Y00001082878D01*
X00173318982Y00002032177D02*
Y00001936877D01*
Y00004699000D02*
Y00002032279D01*
X00173324393Y00001882190D02*
X00173361680Y00001695399D01*
X00179846274Y00000942594D02*
X00180004593Y00001048283D01*
X00173794699Y00001048080D02*
X00173953195Y00000942289D01*
X00179799589Y00000306298D02*
Y00000917778D01*
X00173399577Y00000306298D02*
Y00001589989D01*
X00172999577Y00000306298D02*
Y00006293688D01*
X00173799576Y00000306298D02*
Y00001044778D01*
X00164871400Y00001799996D02*
X00173340877D01*
X00164218493Y00001399997D02*
X00173488985D01*
X00157098492Y00000999896D02*
X00173866784D01*
X00170199583Y00000306298D02*
Y00006293688D01*
X00169799584Y00000306298D02*
Y00006293688D01*
X00165206883Y00002199894D02*
X00173318982D01*
X00172199579Y00000306298D02*
Y00006293688D01*
X00171799580Y00000306298D02*
Y00006293688D01*
X00172599578Y00000306298D02*
Y00006293688D01*
X00170999581Y00000306298D02*
Y00006293688D01*
X00170599582Y00000306298D02*
Y00006293688D01*
X00171399581Y00000306298D02*
Y00006293688D01*
X00179621891Y00000843788D02*
X00179797786Y00000916584D01*
X00179382597Y00000790676D02*
X00179569287Y00000827786D01*
X00179232687Y00000785291D02*
X00179327886D01*
X00176999595Y00000306298D02*
Y00000785291D01*
X00176199596Y00000306298D02*
Y00000785291D01*
X00176599596Y00000306298D02*
Y00000785291D01*
X00179399590Y00000306298D02*
Y00000794080D01*
X00178599592Y00000306298D02*
Y00000785291D01*
X00178999591Y00000306298D02*
Y00000785291D01*
X00177799593Y00000306298D02*
Y00000785291D01*
X00177399594Y00000306298D02*
Y00000785291D01*
X00178199592Y00000306298D02*
Y00000785291D01*
X00174567189D02*
X00179232687D01*
X00157098492Y00000599998D02*
X00204691183D01*
X00157098492Y00000306298D02*
X00204691183D01*
X00174230284Y00000827684D02*
X00174417177Y00000790575D01*
X00174001684Y00000916381D02*
X00174177680Y00000843584D01*
X00174471888Y00000785190D02*
X00174567189Y00000785291D01*
X00175399598Y00000306298D02*
Y00000785291D01*
X00174999599Y00000306298D02*
Y00000785291D01*
X00175799597Y00000306298D02*
Y00000785291D01*
X00174199575Y00000306298D02*
Y00000839292D01*
X00174599600Y00000306298D02*
Y00000785291D01*
X00166599590Y00000306298D02*
Y00006293688D01*
X00166199591Y00000306298D02*
Y00006293688D01*
X00166999589Y00000306298D02*
Y00006293688D01*
X00165799592Y00000306298D02*
Y00006293688D01*
X00161399575Y00000306298D02*
Y00006293688D01*
X00165399593Y00000306298D02*
Y00002580386D01*
X00168999585Y00000306298D02*
Y00006293688D01*
X00168599586Y00000306298D02*
Y00006293688D01*
X00169399585Y00000306298D02*
Y00006293688D01*
X00167799588Y00000306298D02*
Y00006293688D01*
X00167399589Y00000306298D02*
Y00006293688D01*
X00168199587Y00000306298D02*
Y00006293688D01*
X00158599581Y00000306298D02*
Y00006293688D01*
X00158199582Y00000306298D02*
Y00004641596D01*
X00157799582Y00000306298D02*
Y00004427093D01*
X00157098492Y00000306298D02*
Y00004979695D01*
Y00000306298D02*
Y00004979695D01*
X00157399583Y00000306298D02*
Y00004544085D01*
X00160599577Y00000306298D02*
Y00006293688D01*
X00160199578Y00000306298D02*
Y00006293688D01*
X00160999576Y00000306298D02*
Y00006293688D01*
X00159399579Y00000306298D02*
Y00006293688D01*
X00158999580Y00000306298D02*
Y00006293688D01*
X00159799578Y00000306298D02*
Y00006293688D01*
X00165092481Y00002028698D02*
X00165283997Y00002315286D01*
X00164813792Y00001742389D02*
X00165057582Y00001986178D01*
X00164484685Y00001515999D02*
X00164771298Y00001707591D01*
X00164117782Y00001358188D02*
X00164436196Y00001490091D01*
X00163727079Y00001274978D02*
X00164065178Y00001342186D01*
X00163327588Y00001269593D02*
X00163672393D01*
X00164999593Y00000306298D02*
Y00001928190D01*
X00164599594Y00000306298D02*
Y00001592783D01*
X00164199595Y00000306298D02*
Y00001392097D01*
X00163799596Y00000306298D02*
Y00001289380D01*
X00162999597Y00000306298D02*
Y00001329385D01*
X00163399597Y00000306298D02*
Y00001269593D01*
X00162228682Y00001707591D02*
X00162515296Y00001515999D01*
X00161942399Y00001986178D02*
X00162186188Y00001742389D01*
X00157098492Y00001399997D02*
X00162781488D01*
X00161715983Y00002315286D02*
X00161907499Y00002028698D01*
X00157098492Y00002199894D02*
X00161793097D01*
X00157098492Y00001799996D02*
X00162128581D01*
X00162599598Y00000306298D02*
Y00001475282D01*
X00162563784Y00001490091D02*
X00162882199Y00001358188D01*
X00162934777Y00001342186D02*
X00163272876Y00001274978D01*
X00161799574Y00000306298D02*
Y00002190191D01*
X00162199599Y00000306298D02*
Y00001733397D01*
X00147971789Y00005799886D02*
X00148849994D01*
X00147502295Y00006199886D02*
X00148849994D01*
X00148722791Y00004999888D02*
X00148849994D01*
X00148507983Y00005399887D02*
X00148849994D01*
X00148199576Y00005572099D02*
Y00006293688D01*
X00147799679Y00005972098D02*
Y00006293688D01*
X00148599677Y00005308396D02*
Y00006293688D01*
X00147685887Y00006085890D02*
X00148256675Y00005514975D01*
X00148606179Y00004599889D02*
X00148849994D01*
Y00000306298D02*
Y00006293688D01*
X00148599677Y00000306298D02*
Y00004591583D01*
X00147498892Y00000306298D02*
X00148849994D01*
X00147498892D02*
Y00004929378D01*
Y00000306298D02*
Y00004929378D01*
X00148199576Y00000306298D02*
Y00004377182D01*
X00147799679Y00000306298D02*
Y00004494098D01*
X00147498892Y00004599889D02*
X00147693786D01*
X00147498892Y00006293688D02*
X00148849994D01*
X00147498892Y00003799890D02*
X00148849994D01*
X00147498892Y00004199890D02*
X00148849994D01*
X00147498892Y00006201079D02*
Y00006293688D01*
Y00006201079D02*
Y00006293688D01*
Y00004929378D02*
X00147584998Y00004843195D01*
X00147498892Y00001399997D02*
X00148849994D01*
X00147498892Y00001799996D02*
X00148849994D01*
X00147498892Y00000599998D02*
X00148849994D01*
X00147498892Y00000999896D02*
X00148849994D01*
X00147498892Y00002999892D02*
X00148849994D01*
X00147498892Y00003399891D02*
X00148849994D01*
X00147498892Y00002199894D02*
X00148849994D01*
X00147498892Y00002599893D02*
X00148849994D01*
X00138021796Y00005799886D02*
X00139249988D01*
X00137552277Y00006199886D02*
X00139249988D01*
X00138724995Y00004999888D02*
X00139249988D01*
X00138563096Y00005399887D02*
X00139249988D01*
X00138199698Y00005622086D02*
Y00006293688D01*
X00137799699Y00006022086D02*
Y00006293688D01*
X00138599697Y00005358384D02*
Y00006293688D01*
X00137735894Y00006085890D02*
X00138256695Y00005564987D01*
X00138999696Y00000306298D02*
Y00006293688D01*
X00139249988Y00000306298D02*
Y00006293688D01*
X00138562994Y00004599889D02*
X00139249988D01*
X00137498886Y00000599998D02*
X00139249988D01*
X00138599697Y00000306298D02*
Y00004641596D01*
X00137498886Y00004599889D02*
X00137736986D01*
X00138199698Y00000306298D02*
Y00004427093D01*
X00137799699Y00000306298D02*
Y00004543983D01*
X00137498886Y00004199890D02*
X00139249988D01*
X00137498886Y00006293688D02*
X00139249988D01*
X00137498886Y00003399891D02*
X00139249988D01*
X00137498886Y00003799890D02*
X00139249988D01*
X00137498886Y00006214592D02*
Y00006293688D01*
Y00006214592D02*
Y00006293688D01*
Y00004979390D02*
X00137584992Y00004893183D01*
X00137498886Y00001799996D02*
X00139249988D01*
X00137498886Y00001399997D02*
X00139249988D01*
X00137498886Y00002199894D02*
X00139249988D01*
X00137498886Y00000306298D02*
X00139249988D01*
X00137498886Y00000999896D02*
X00139249988D01*
X00137498886Y00000306298D02*
Y00004979390D01*
Y00000306298D02*
Y00004979390D01*
Y00002599893D02*
X00139249988D01*
X00137498886Y00002999892D02*
X00139249988D01*
X00127321792Y00005799886D02*
X00129249982D01*
X00126852299Y00006199886D02*
X00129249982D01*
X00127972794Y00004999888D02*
X00129249982D01*
X00127856284Y00005399887D02*
X00129249982D01*
X00127399694Y00005722086D02*
Y00006293688D01*
X00126999695Y00006118479D02*
Y00006293688D01*
X00127799693Y00005463387D02*
Y00006293688D01*
X00127035890Y00006085890D02*
X00127506780Y00005614974D01*
X00128599692Y00000306298D02*
Y00006293688D01*
X00128999691Y00000306298D02*
Y00006293688D01*
X00128199692Y00000306298D02*
Y00006293688D01*
X00129249982Y00000306298D02*
Y00006293688D01*
X00127757885Y00004599889D02*
X00129249982D01*
X00126999695Y00000306298D02*
Y00004637176D01*
X00127799693Y00000306298D02*
Y00004636592D01*
X00127399694Y00000306298D02*
Y00004474997D01*
X00126719685Y00004199890D02*
X00129249982D01*
X00126719685Y00003799890D02*
X00129249982D01*
X00126719685Y00006293688D02*
X00129249982D01*
X00126719685Y00002999892D02*
X00129249982D01*
X00126719685Y00003399891D02*
X00129249982D01*
X00126719685Y00004599889D02*
X00127042087D01*
X00126719685Y00005058587D02*
X00126834976Y00004943297D01*
X00126719685Y00001399997D02*
X00129249982D01*
X00126719685Y00000999896D02*
X00129249982D01*
X00126719685Y00001799996D02*
X00129249982D01*
X00126719685Y00000306298D02*
X00129249982D01*
X00126719685Y00000599998D02*
X00129249982D01*
X00126719685Y00000306298D02*
Y00005058587D01*
Y00000306298D02*
Y00005058587D01*
Y00002199894D02*
X00129249982D01*
X00126719685Y00002599893D02*
X00129249982D01*
X00103799690Y00004866995D02*
Y00006293688D01*
X00103117777Y00005241798D02*
X00103436191Y00005109895D01*
X00103610486Y00004999888D02*
X00118499991D01*
X00103484680Y00005083987D02*
X00103771293Y00004892395D01*
X00103399691Y00005124983D02*
Y00006293688D01*
X00102999692Y00005270779D02*
Y00006293688D01*
X00102727099Y00005324983D02*
X00103065199Y00005257800D01*
X00104309875Y00004236186D02*
X00104441777Y00003917696D01*
X00104066797Y00004599889D02*
X00118499991D01*
X00104324886Y00004199890D02*
X00118499991D01*
X00104199690Y00004410786D02*
Y00006293688D01*
X00103813787Y00004857597D02*
X00104057577Y00004613783D01*
X00104092476Y00004571288D02*
X00104283992Y00004284675D01*
X00102599693Y00005330393D02*
Y00006293688D01*
X00102199694Y00005310378D02*
Y00006293688D01*
X00102327583Y00005330393D02*
X00102672388D01*
X00101934797Y00005257800D02*
X00102272896Y00005324983D01*
X00101799796Y00005207584D02*
Y00006293688D01*
X00101399695Y00005006797D02*
Y00006293688D01*
X00101563779Y00005109895D02*
X00101882194Y00005241798D01*
X00101228677Y00004892395D02*
X00101515291Y00005083987D01*
X00066910483Y00004999888D02*
X00101389484D01*
X00100942394Y00004613783D02*
X00101186183Y00004857597D01*
X00100999696Y00004671187D02*
Y00006293688D01*
X00067366896Y00004599889D02*
X00100933199D01*
X00100715978Y00004284675D02*
X00100907494Y00004571288D01*
X00104530398Y00003399891D02*
X00118499991D01*
X00104470682Y00003799890D02*
X00118499991D01*
X00104530398Y00003127578D02*
Y00003299993D01*
X00104510484Y00002999892D02*
X00118499991D01*
X00104530398Y00003299993D02*
Y00003472383D01*
X00104457677Y00003865194D02*
X00104524987Y00003527094D01*
X00104457677Y00002734792D02*
X00104524987Y00003072892D01*
X00104407690Y00002599893D02*
X00118499991D01*
X00104206878Y00002199894D02*
X00118499991D01*
X00103871395Y00001799996D02*
X00118499991D01*
X00104309875Y00002363774D02*
X00104441777Y00002682290D01*
X00104092476Y00002028698D02*
X00104283992Y00002315286D01*
X00103813787Y00001742389D02*
X00104057577Y00001986178D01*
X00100942394D02*
X00101186183Y00001742389D01*
X00067171290Y00001799996D02*
X00101128576D01*
X00103484680Y00001515999D02*
X00103771293Y00001707591D01*
X00101228677D02*
X00101515291Y00001515999D01*
X00100715978Y00002315286D02*
X00100907494Y00002028698D01*
X00100558193Y00002682290D02*
X00100690095Y00002363774D01*
X00067506875Y00002199894D02*
X00100793092D01*
X00103218488Y00001399997D02*
X00118499991D01*
X00103117777Y00001358188D02*
X00103436191Y00001490091D01*
X00102727099Y00001274978D02*
X00103065097Y00001342186D01*
X00101934797D02*
X00102272896Y00001274978D01*
X00101563779Y00001490091D02*
X00101882194Y00001358188D01*
X00102327583Y00001269593D02*
X00102672388D01*
X00073799776Y00000306298D02*
Y00006293688D01*
X00073399777Y00000306298D02*
Y00006293688D01*
X00100599697Y00004017975D02*
Y00006293688D01*
X00096199782Y00000306298D02*
Y00006293688D01*
X00072599778Y00000306298D02*
Y00006293688D01*
X00072199779Y00000306298D02*
Y00006293688D01*
X00072999777Y00000306298D02*
Y00006293688D01*
X00098199778Y00000306298D02*
Y00006293688D01*
X00097799779Y00000306298D02*
Y00006293688D01*
X00098599675Y00000306298D02*
Y00006293688D01*
X00096999780Y00000306298D02*
Y00006293688D01*
X00096599781Y00000306298D02*
Y00006293688D01*
X00097399678Y00000306298D02*
Y00006293688D01*
X00068599786Y00000306298D02*
Y00006293688D01*
X00068199787Y00000306298D02*
Y00006293688D01*
X00069399785Y00000306298D02*
Y00006293688D01*
X00068999785Y00000306298D02*
Y00006293688D01*
X00067399789Y00004560290D02*
Y00006293688D01*
X00066999789Y00004940198D02*
Y00006293688D01*
X00067799788Y00003653688D02*
Y00006293688D01*
X00071399781Y00000306298D02*
Y00006293688D01*
X00070999781Y00000306298D02*
Y00006293688D01*
X00071799780Y00000306298D02*
Y00006293688D01*
X00070199783Y00000306298D02*
Y00006293688D01*
X00069799784Y00000306298D02*
Y00006293688D01*
X00070599782Y00000306298D02*
Y00006293688D01*
X00100558193Y00003917696D02*
X00100690095Y00004236186D01*
X00100474983Y00003527094D02*
X00100542293Y00003865194D01*
X00100469598Y00003299993D02*
Y00003472383D01*
X00067770679Y00003799890D02*
X00100529288D01*
X00067830395Y00003399891D02*
X00100469598D01*
X00067830395Y00003299993D02*
Y00003472383D01*
Y00003127578D02*
Y00003299993D01*
X00100474983Y00003072892D02*
X00100542293Y00002734792D01*
X00100469598Y00003127578D02*
Y00003299993D01*
X00067810481Y00002999892D02*
X00100489486D01*
X00095799783Y00000306298D02*
Y00006293688D01*
X00067757776Y00002734792D02*
X00067824985Y00003072892D01*
X00067799788Y00000306298D02*
Y00002946298D01*
X00067624883Y00004199890D02*
X00100675084D01*
X00067609897Y00004236186D02*
X00067741800Y00003917696D01*
X00067757776Y00003865194D02*
X00067824985Y00003527094D01*
X00067707687Y00002599893D02*
X00100592280D01*
X00067113785Y00004857597D02*
X00067357599Y00004613783D01*
X00066784677Y00005083987D02*
X00067071290Y00004892395D01*
X00067392397Y00004571288D02*
X00067583989Y00004284675D01*
X00067609897Y00002363774D02*
X00067741800Y00002682290D01*
X00067392397Y00002028698D02*
X00067583989Y00002315286D01*
X00067399789Y00000306298D02*
Y00002039696D01*
X00067113785Y00001742389D02*
X00067357599Y00001986178D01*
X00066784677Y00001515999D02*
X00067071290Y00001707591D01*
X00066999789Y00000306298D02*
Y00001659788D01*
X00115399693Y00000306298D02*
Y00006293688D01*
X00114999693Y00000306298D02*
Y00006293688D01*
X00116199691Y00000306298D02*
Y00006293688D01*
X00115799692Y00000306298D02*
Y00006293688D01*
X00107799682Y00000306298D02*
Y00006293688D01*
X00107399683Y00000306298D02*
Y00006293688D01*
X00108199682Y00000306298D02*
Y00006293688D01*
X00118199687Y00000306298D02*
Y00006293688D01*
X00117799688Y00000306298D02*
Y00006293688D01*
X00118499991Y00000306298D02*
Y00006293688D01*
X00116999689Y00000306298D02*
Y00006293688D01*
X00116599690Y00000306298D02*
Y00006293688D01*
X00117399689Y00000306298D02*
Y00006293688D01*
X00099799775Y00000306298D02*
Y00006293688D01*
X00099399699Y00000306298D02*
Y00006293688D01*
X00104599689Y00000306298D02*
Y00006293688D01*
X00100199799Y00000306298D02*
Y00006293688D01*
X00095399783Y00000306298D02*
Y00006293688D01*
X00094999784Y00000306298D02*
Y00006293688D01*
X00098999675Y00000306298D02*
Y00006293688D01*
X00106599685Y00000306298D02*
Y00006293688D01*
X00106199686Y00000306298D02*
Y00006293688D01*
X00106999684Y00000306298D02*
Y00006293688D01*
X00105399687Y00000306298D02*
Y00006293688D01*
X00104999688Y00000306298D02*
Y00006293688D01*
X00105799686Y00000306298D02*
Y00006293688D01*
X00111399675Y00000306298D02*
Y00006293688D01*
X00110999676Y00000306298D02*
Y00006293688D01*
X00112199699Y00000306298D02*
Y00006293688D01*
X00111799674Y00000306298D02*
Y00006293688D01*
X00110199678Y00000306298D02*
Y00006293688D01*
X00109799678Y00000306298D02*
Y00006293688D01*
X00110599677Y00000306298D02*
Y00006293688D01*
X00114199695Y00000306298D02*
Y00006293688D01*
X00113799696Y00000306298D02*
Y00006293688D01*
X00114599694Y00000306298D02*
Y00006293688D01*
X00112999697Y00000306298D02*
Y00006293688D01*
X00112599698Y00000306298D02*
Y00006293688D01*
X00113399697Y00000306298D02*
Y00006293688D01*
X00102999692Y00000306298D02*
Y00001329182D01*
X00101799796Y00000306298D02*
Y00001392377D01*
X00102599693Y00000306298D02*
Y00001269593D01*
X00102199694Y00000306298D02*
Y00001289583D01*
X00100999696Y00000306298D02*
Y00001928876D01*
X00100599697Y00000306298D02*
Y00002581986D01*
X00101399695Y00000306298D02*
Y00001593189D01*
X00108999680Y00000306298D02*
Y00006293688D01*
X00108599681Y00000306298D02*
Y00006293688D01*
X00109399679Y00000306298D02*
Y00006293688D01*
X00104199690Y00000306298D02*
Y00002189175D01*
X00103799690Y00000306298D02*
Y00001732991D01*
X00103399691Y00000306298D02*
Y00001474978D01*
X00080999787Y00000306298D02*
Y00006293688D01*
X00080599788Y00000306298D02*
Y00006293688D01*
X00081799785Y00000306298D02*
Y00006293688D01*
X00081399786Y00000306298D02*
Y00006293688D01*
X00079799789Y00000306298D02*
Y00006293688D01*
X00079399790Y00000306298D02*
Y00006293688D01*
X00080199788Y00000306298D02*
Y00006293688D01*
X00083799781Y00000306298D02*
Y00006293688D01*
X00083399782Y00000306298D02*
Y00006293688D01*
X00084199780Y00000306298D02*
Y00006293688D01*
X00082599784Y00000306298D02*
Y00006293688D01*
X00082199784Y00000306298D02*
Y00006293688D01*
X00082999783Y00000306298D02*
Y00006293688D01*
X00075799797Y00000306298D02*
Y00006293688D01*
X00075399798Y00000306298D02*
Y00006293688D01*
X00076599796Y00000306298D02*
Y00006293688D01*
X00076199796Y00000306298D02*
Y00006293688D01*
X00074599800Y00000306298D02*
Y00006293688D01*
X00074199775Y00000306298D02*
Y00006293688D01*
X00074999799Y00000306298D02*
Y00006293688D01*
X00078599792Y00000306298D02*
Y00006293688D01*
X00078199792Y00000306298D02*
Y00006293688D01*
X00078999791Y00000306298D02*
Y00006293688D01*
X00077399794Y00000306298D02*
Y00006293688D01*
X00076999795Y00000306298D02*
Y00006293688D01*
X00077799793Y00000306298D02*
Y00006293688D01*
X00091399791Y00000306298D02*
Y00006293688D01*
X00090999792Y00000306298D02*
Y00006293688D01*
X00092199790Y00000306298D02*
Y00006293688D01*
X00091799791Y00000306298D02*
Y00006293688D01*
X00090199794Y00000306298D02*
Y00006293688D01*
X00089799795Y00000306298D02*
Y00006293688D01*
X00090599793Y00000306298D02*
Y00006293688D01*
X00094199786Y00000306298D02*
Y00006293688D01*
X00093799787Y00000306298D02*
Y00006293688D01*
X00094599785Y00000306298D02*
Y00006293688D01*
X00092999788Y00000306298D02*
Y00006293688D01*
X00092599789Y00000306298D02*
Y00006293688D01*
X00093399787Y00000306298D02*
Y00006293688D01*
X00086199776Y00000306298D02*
Y00006293688D01*
X00085799777Y00000306298D02*
Y00006293688D01*
X00086999775Y00000306298D02*
Y00006293688D01*
X00086599776Y00000306298D02*
Y00006293688D01*
X00084999779Y00000306298D02*
Y00006293688D01*
X00084599780Y00000306298D02*
Y00006293688D01*
X00085399778Y00000306298D02*
Y00006293688D01*
X00088999796Y00000306298D02*
Y00006293688D01*
X00088599797Y00000306298D02*
Y00006293688D01*
X00089399795Y00000306298D02*
Y00006293688D01*
X00087799799Y00000306298D02*
Y00006293688D01*
X00087399799Y00000306298D02*
Y00006293688D01*
X00088199798Y00000306298D02*
Y00006293688D01*
X00066599790Y00005166385D02*
Y00006293688D01*
X00066199791Y00005290591D02*
Y00006293688D01*
X00066027096Y00005324983D02*
X00066365196Y00005257800D01*
X00065627580Y00005330393D02*
X00065972385D01*
X00065799792D02*
Y00006293688D01*
X00065399793Y00005290591D02*
Y00006293688D01*
X00065234794Y00005257800D02*
X00065572894Y00005324983D01*
X00064999793Y00005166182D02*
Y00006293688D01*
X00064863776Y00005109895D02*
X00065182191Y00005241798D01*
X00066417698D02*
X00066736188Y00005109895D01*
X00064599794Y00004939995D02*
Y00006293688D01*
X00064528700Y00004892395D02*
X00064815288Y00005083987D01*
X00064242391Y00004613783D02*
X00064486180Y00004857597D01*
X00029606290Y00006199886D02*
X00118499991D01*
X00029499890Y00006293688D02*
X00118499991D01*
X00030563083Y00005399887D02*
X00118499991D01*
X00030021784Y00005799886D02*
X00118499991D01*
X00064199795Y00004559782D02*
Y00006293688D01*
X00042610481Y00004999888D02*
X00064689482D01*
X00043066792Y00004599889D02*
X00064233094D01*
X00064015975Y00004284675D02*
X00064207593Y00004571288D01*
X00063799796Y00003651783D02*
Y00006293688D01*
X00063858190Y00003917696D02*
X00063990093Y00004236186D01*
X00043399887Y00004018991D02*
Y00006293688D01*
X00043092395Y00004571288D02*
X00043283987Y00004284675D01*
X00043309895Y00004236186D02*
X00043441797Y00003917696D01*
X00063774980Y00003527094D02*
X00063842290Y00003865194D01*
X00063769595Y00003127578D02*
Y00003299993D01*
X00063858190Y00002682290D02*
X00063990093Y00002363774D01*
X00063774980Y00003072892D02*
X00063842290Y00002734792D01*
X00063769595Y00003299993D02*
Y00003472383D01*
X00043530393Y00003399891D02*
X00063769595D01*
X00043530393Y00003127578D02*
Y00003299993D01*
X00066417698Y00001358188D02*
X00066736188Y00001490091D01*
X00064863776D02*
X00065182191Y00001358188D01*
X00066518485Y00001399997D02*
X00101781483D01*
X00064242391Y00001986178D02*
X00064486180Y00001742389D01*
X00064015975Y00002315286D02*
X00064207593Y00002028698D01*
X00064528700Y00001707591D02*
X00064815288Y00001515999D01*
X00043470677Y00003799890D02*
X00063829285D01*
X00043324881Y00004199890D02*
X00063975081D01*
X00043510479Y00002999892D02*
X00063789483D01*
X00043407685Y00002599893D02*
X00063892277D01*
X00043530393Y00003299993D02*
Y00003472383D01*
X00043457698Y00003865194D02*
X00043524982Y00003527094D01*
X00043457698Y00002734792D02*
X00043524982Y00003072892D01*
X00043206898Y00002199894D02*
X00064093090D01*
X00042871288Y00001799996D02*
X00064428598D01*
X00042218483Y00001399997D02*
X00065081480D01*
X00043309895Y00002363774D02*
X00043441797Y00002682290D01*
X00043092395Y00002028698D02*
X00043283987Y00002315286D01*
X00042813782Y00001742389D02*
X00043057597Y00001986178D01*
X00042199890Y00005207787D02*
Y00006293688D01*
X00041799891Y00005310479D02*
Y00006293688D01*
X00041727094Y00005324983D02*
X00042065194Y00005257800D01*
X00041327578Y00005330393D02*
X00041672383D01*
X00041399891D02*
Y00006293688D01*
X00040999892Y00005270677D02*
Y00006293688D01*
X00040934792Y00005257800D02*
X00041272891Y00005324983D01*
X00042999888Y00004671491D02*
Y00006293688D01*
X00042599889Y00005006975D02*
Y00006293688D01*
X00042484675Y00005083987D02*
X00042771288Y00004892395D01*
X00040599893Y00005124780D02*
Y00006293688D01*
X00040563800Y00005109895D02*
X00040882189Y00005241798D01*
X00042117695D02*
X00042436186Y00005109895D01*
X00030599888Y00005358079D02*
Y00006293688D01*
X00030199888Y00005621883D02*
Y00006293688D01*
X00029685894Y00006135878D02*
X00030256784Y00005564987D01*
X00029799889Y00006021882D02*
Y00006293688D01*
X00040228697Y00004892395D02*
X00040515286Y00005083987D01*
X00040199894Y00004866690D02*
Y00006293688D01*
X00030724983Y00004999888D02*
X00040389479D01*
X00039799895Y00004410176D02*
Y00006293688D01*
X00029499890Y00004978400D02*
X00029584980Y00004893183D01*
X00042813782Y00004857597D02*
X00043057597Y00004613783D01*
X00039942389D02*
X00040186178Y00004857597D01*
X00039715998Y00002315286D02*
X00039907591Y00002028698D01*
X00039715998Y00004284675D02*
X00039907591Y00004571288D01*
X00039558188Y00003917696D02*
X00039690090Y00004236186D01*
X00039474978Y00003072892D02*
X00039542288Y00002734792D01*
X00039558188Y00002682290D02*
X00039690090Y00002363774D01*
X00042484675Y00001515999D02*
X00042771288Y00001707591D01*
X00042117695Y00001358188D02*
X00042436186Y00001490091D01*
X00041727094Y00001274978D02*
X00042065194Y00001342186D01*
X00040228697Y00001707591D02*
X00040515286Y00001515999D01*
X00039942389Y00001986178D02*
X00040186178Y00001742389D01*
X00040563800Y00001490091D02*
X00040882189Y00001358188D01*
X00030562981Y00004599889D02*
X00039933194D01*
X00029499890Y00004199890D02*
X00039675079D01*
X00039474978Y00003527094D02*
X00039542288Y00003865194D01*
X00029499890Y00003799890D02*
X00039529283D01*
X00039469593Y00003299993D02*
Y00003472383D01*
X00029499890Y00004599889D02*
X00029736999D01*
X00029499890Y00003399891D02*
X00039469593D01*
X00029499890Y00001799996D02*
X00040128698D01*
X00029499890Y00002199894D02*
X00039793087D01*
X00029499890Y00001399997D02*
X00040781478D01*
X00039469593Y00003127578D02*
Y00003299993D01*
X00029499890Y00002999892D02*
X00039489481D01*
X00029499890Y00002599893D02*
X00039592275D01*
X00055399787Y00000306298D02*
Y00006293688D01*
X00054999788Y00000306298D02*
Y00006293688D01*
X00056199786Y00000306298D02*
Y00006293688D01*
X00055799786Y00000306298D02*
Y00006293688D01*
X00054199790Y00000306298D02*
Y00006293688D01*
X00053799790Y00000306298D02*
Y00006293688D01*
X00054599789Y00000306298D02*
Y00006293688D01*
X00058199782Y00000306298D02*
Y00006293688D01*
X00057799782Y00000306298D02*
Y00006293688D01*
X00058599781Y00000306298D02*
Y00006293688D01*
X00056999784Y00000306298D02*
Y00006293688D01*
X00056599785Y00000306298D02*
Y00006293688D01*
X00057399783Y00000306298D02*
Y00006293688D01*
X00050199798Y00000306298D02*
Y00006293688D01*
X00049799875Y00000306298D02*
Y00006293688D01*
X00050999898Y00000306298D02*
Y00006293688D01*
X00050599797Y00000306298D02*
Y00006293688D01*
X00048999876Y00000306298D02*
Y00006293688D01*
X00048599775Y00000306298D02*
Y00006293688D01*
X00049399799Y00000306298D02*
Y00006293688D01*
X00052999792Y00000306298D02*
Y00006293688D01*
X00052599793Y00000306298D02*
Y00006293688D01*
X00053399791Y00000306298D02*
Y00006293688D01*
X00051799896Y00000306298D02*
Y00006293688D01*
X00051399795Y00000306298D02*
Y00006293688D01*
X00052199794Y00000306298D02*
Y00006293688D01*
X00065234794Y00001342186D02*
X00065572894Y00001274978D01*
X00064199795Y00000306298D02*
Y00002040178D01*
X00066027096Y00001274978D02*
X00066365196Y00001342186D01*
X00065627580Y00001269593D02*
X00065972385D01*
X00063399797Y00000306298D02*
Y00006293688D01*
X00062999797Y00000306298D02*
Y00006293688D01*
X00063799796Y00000306298D02*
Y00002948076D01*
X00066599790Y00000306298D02*
Y00001433576D01*
X00066199791Y00000306298D02*
Y00001309395D01*
X00065799792Y00000306298D02*
Y00001269593D01*
X00064999793Y00000306298D02*
Y00001433779D01*
X00064599794Y00000306298D02*
Y00001659991D01*
X00065399793Y00000306298D02*
Y00001309395D01*
X00060599777Y00000306298D02*
Y00006293688D01*
X00060199778Y00000306298D02*
Y00006293688D01*
X00029499890Y00000599998D02*
X00118499991D01*
X00029499890Y00000999896D02*
X00118499991D01*
X00059399779Y00000306298D02*
Y00006293688D01*
X00058999780Y00000306298D02*
Y00006293688D01*
X00059799778Y00000306298D02*
Y00006293688D01*
X00062599798Y00000306298D02*
Y00006293688D01*
X00062199799Y00000306298D02*
Y00006293688D01*
X00029499890Y00000306298D02*
X00118499991D01*
X00061399775D02*
Y00006293688D01*
X00060999776Y00000306298D02*
Y00006293688D01*
X00061799774Y00000306298D02*
Y00006293688D01*
X00037799899Y00000306298D02*
Y00006293688D01*
X00037399899Y00000306298D02*
Y00006293688D01*
X00038599897Y00000306298D02*
Y00006293688D01*
X00038199898Y00000306298D02*
Y00006293688D01*
X00036599876Y00000306298D02*
Y00006293688D01*
X00036199876Y00000306298D02*
Y00006293688D01*
X00036999875Y00000306298D02*
Y00006293688D01*
X00047399778Y00000306298D02*
Y00006293688D01*
X00046999880Y00000306298D02*
Y00006293688D01*
X00047799879Y00000306298D02*
Y00006293688D01*
X00046199882Y00000306298D02*
Y00006293688D01*
X00038999896Y00000306298D02*
Y00006293688D01*
X00046599881Y00000306298D02*
Y00006293688D01*
X00032599884Y00000306298D02*
Y00006293688D01*
X00032199884Y00000306298D02*
Y00006293688D01*
X00033399882Y00000306298D02*
Y00006293688D01*
X00032999883Y00000306298D02*
Y00006293688D01*
X00031399886Y00000306298D02*
Y00006293688D01*
X00030999887Y00000306298D02*
Y00006293688D01*
X00031799885Y00000306298D02*
Y00006293688D01*
X00035399878Y00000306298D02*
Y00006293688D01*
X00034999879Y00000306298D02*
Y00006293688D01*
X00035799877Y00000306298D02*
Y00006293688D01*
X00034199880Y00000306298D02*
Y00006293688D01*
X00033799881Y00000306298D02*
Y00006293688D01*
X00034599880Y00000306298D02*
Y00006293688D01*
X00043799887Y00000306298D02*
Y00006293688D01*
X00043399887Y00000306298D02*
Y00002580995D01*
X00042999888Y00000306298D02*
Y00001928495D01*
X00042599889Y00000306298D02*
Y00001592986D01*
X00042199890Y00000306298D02*
Y00001392199D01*
X00041799891Y00000306298D02*
Y00001289481D01*
X00041399891Y00000306298D02*
Y00001269593D01*
X00045799883Y00000306298D02*
Y00006293688D01*
X00045399883Y00000306298D02*
Y00006293688D01*
X00048199776Y00000306298D02*
Y00006293688D01*
X00044599885Y00000306298D02*
Y00006293688D01*
X00044199886Y00000306298D02*
Y00006293688D01*
X00044999884Y00000306298D02*
Y00006293688D01*
X00040934792Y00001342186D02*
X00041272891Y00001274978D01*
X00030199888Y00000306298D02*
Y00004427194D01*
X00041327578Y00001269593D02*
X00041672383D01*
X00029499890Y00000306298D02*
Y00004978400D01*
Y00000306298D02*
Y00004978400D01*
X00029799889Y00000306298D02*
Y00004543882D01*
X00040599893Y00000306298D02*
Y00001475181D01*
X00040199894Y00000306298D02*
Y00001733296D01*
X00040999892Y00000306298D02*
Y00001329283D01*
X00039399895Y00000306298D02*
Y00006293688D01*
X00030599888Y00000306298D02*
Y00004641875D01*
X00039799895Y00000306298D02*
Y00002189784D01*
X00018621781Y00005799886D02*
X00021249995D01*
X00019163080Y00005399887D02*
X00021249995D01*
X00018152287Y00006199886D02*
X00021249995D01*
X00019324980Y00004999888D02*
X00021249995D01*
X00019162979Y00004599889D02*
X00021249995D01*
X00018599886Y00005821781D02*
Y00006293688D01*
X00018999885Y00005517794D02*
Y00006293688D01*
X00018199887Y00006180886D02*
Y00006293688D01*
X00018335879Y00006085890D02*
X00018856782Y00005564987D01*
X00020199883Y00000306298D02*
Y00006293688D01*
X00020599882Y00000306298D02*
Y00006293688D01*
X00019799884Y00000306298D02*
Y00006293688D01*
X00021249995Y00000306298D02*
Y00006293688D01*
X00020999881Y00000306298D02*
Y00006293688D01*
X00018199887Y00000306298D02*
Y00004832578D01*
X00019399885Y00000306298D02*
Y00006293688D01*
X00018999885Y00000306298D02*
Y00004482185D01*
X00018599886Y00000306298D02*
Y00004444898D01*
X00018099989Y00004599889D02*
X00018336996D01*
X00018099989Y00004199890D02*
X00021249995D01*
X00018099989Y00006293688D02*
X00021249995D01*
X00018099989Y00003399891D02*
X00021249995D01*
X00018099989Y00003799890D02*
X00021249995D01*
X00018099989Y00006214389D02*
Y00006293688D01*
Y00006214389D02*
Y00006293688D01*
Y00004978298D02*
X00018184977Y00004893183D01*
X00018099989Y00001399997D02*
X00021249995D01*
X00018099989Y00000999896D02*
X00021249995D01*
X00018099989Y00001799996D02*
X00021249995D01*
X00018099989Y00000306298D02*
X00021249995D01*
X00018099989Y00000599998D02*
X00021249995D01*
X00018099989Y00002999892D02*
X00021249995D01*
X00018099989Y00000306298D02*
Y00004978298D01*
Y00000306298D02*
Y00004978298D01*
Y00002199894D02*
X00021249995D01*
X00018099989Y00002599893D02*
X00021249995D01*
X00004199890Y00000306298D02*
Y00006293688D01*
X00004599889Y00000306298D02*
Y00006293688D01*
X00003799890Y00000306298D02*
Y00006293688D01*
X00005399887Y00000306298D02*
Y00006293688D01*
X00005799886Y00000306298D02*
Y00006293688D01*
X00004999888Y00000306298D02*
Y00006293688D01*
X00002199894Y00000306298D02*
Y00006293688D01*
X00002599893Y00000306298D02*
Y00006293688D01*
X00001799996Y00000306298D02*
Y00006293688D01*
X00003399891Y00000306298D02*
Y00006293688D01*
X00002999892Y00000306298D02*
Y00006293688D01*
X00008599881Y00000306298D02*
Y00006293688D01*
X00008999880Y00000306298D02*
Y00006293688D01*
X00008199882Y00000306298D02*
Y00006293688D01*
X00009799878Y00000306298D02*
Y00006293688D01*
X00009849993Y00000306298D02*
Y00006293688D01*
X00009399879Y00000306298D02*
Y00006293688D01*
X00006599885Y00000306298D02*
Y00006293688D01*
X00006999884Y00000306298D02*
Y00006293688D01*
X00006199886Y00000306298D02*
Y00006293688D01*
X00007799882Y00000306298D02*
Y00006293688D01*
X00007399883Y00000306298D02*
Y00006293688D01*
X00000306298Y00004199890D02*
X00009849993D01*
X00000306298Y00003799890D02*
X00009849993D01*
X00000306298Y00004599889D02*
X00009849993D01*
X00000306298Y00003399891D02*
X00009849993D01*
X00000306298Y00002599893D02*
X00009849993D01*
X00000306298Y00002999892D02*
X00009849993D01*
X00000306298Y00006199886D02*
X00009849993D01*
X00000306298Y00005799886D02*
X00009849993D01*
X00000306298Y00006293688D02*
X00009849993D01*
X00000306298Y00004999888D02*
X00009849993D01*
X00000306298Y00005399887D02*
X00009849993D01*
X00000306298Y00001399997D02*
X00009849993D01*
X00000306298Y00000999896D02*
X00009849993D01*
X00000306298Y00001799996D02*
X00009849993D01*
X00000306298Y00000306298D02*
X00009849993D01*
X00000306298Y00000599998D02*
X00009849993D01*
X00000599998Y00000306298D02*
Y00006293688D01*
X00000999896Y00000306298D02*
Y00006293688D01*
X00000306298Y00000306298D02*
Y00006293688D01*
X00001399997Y00000306298D02*
Y00006293688D01*
X00000306298Y00002199894D02*
X00009849993D01*
G54D12*
X00155949980Y00005749975D02*
X00156999990D01*
X00157749976Y00004999990*
X00147349997Y00005749975D02*
X00148149995Y00004949977D01*
X00146299986Y00005749975D02*
X00147349997D01*
X00136299981D02*
X00137399979D01*
X00138149990Y00004999990*
X00126699975Y00005749975D02*
X00127399999Y00005049977D01*
X00125549990Y00005749975D02*
X00126699975D01*
X00029349979Y00005799988D02*
X00030149977Y00004999990D01*
X00028349981Y00005799988D02*
X00029349979D01*
X00016899991Y00005749975D02*
X00017999989D01*
X00018749975Y00004999990*
G54D13*
X00203249987Y00003249980D03*
X00173249996Y00000749985D03*
X00171249975D03*
X00163249991D03*
X00165249987D03*
X00167249983D03*
X00169249979D03*
X00161249995D03*
X00193249981D03*
X00199249995D03*
X00197249999D03*
X00195249977D03*
X00183249976D03*
X00185249997D03*
X00181249980D03*
X00203249987D03*
X00201249991D03*
Y00005999988D03*
X00203249987D03*
X00181249980D03*
X00185249997D03*
X00183249976D03*
X00195249977D03*
X00197249999D03*
X00199249995D03*
X00193249981D03*
X00161249995D03*
X00169249979D03*
X00167249983D03*
X00165249987D03*
X00163249991D03*
X00171249975D03*
X00173249996D03*
X00159249999D03*
Y00000749985D03*
Y00003249980D03*
X00148499982Y00005999988D03*
X00138999976D03*
X00128999996D03*
Y00000749985D03*
Y00003249980D03*
X00117749980D03*
X00039749984Y00000749985D03*
X00037749988D03*
X00035749992D03*
X00033749996D03*
X00047749993D03*
X00045749997D03*
X00043749976D03*
X00041749980D03*
X00055749977D03*
X00053749981D03*
X00051749985D03*
X00049749989D03*
X00063749986D03*
X00061749990D03*
X00059749994D03*
X00057749998D03*
X00071749996D03*
X00069749974D03*
X00067749978D03*
X00065749982D03*
X00079749980D03*
X00077749984D03*
X00075749988D03*
X00073749992D03*
X00087749989D03*
X00085749993D03*
X00083749997D03*
X00081749976D03*
X00101749987D03*
X00103749983D03*
X00105749979D03*
X00107749975D03*
X00093749977D03*
X00095749999D03*
X00097749995D03*
X00099749991D03*
X00089749985D03*
X00091749981D03*
X00115749984D03*
X00113749988D03*
X00111749992D03*
X00109749996D03*
X00117749980D03*
Y00005999988D03*
X00109749996D03*
X00111749992D03*
X00113749988D03*
X00115749984D03*
X00091749981D03*
X00089749985D03*
X00099749991D03*
X00097749995D03*
X00095749999D03*
X00093749977D03*
X00107749975D03*
X00105749979D03*
X00103749983D03*
X00101749987D03*
X00081749976D03*
X00083749997D03*
X00085749993D03*
X00087749989D03*
X00073749992D03*
X00075749988D03*
X00077749984D03*
X00079749980D03*
X00065749982D03*
X00067749978D03*
X00069749974D03*
X00071749996D03*
X00057749998D03*
X00059749994D03*
X00061749990D03*
X00063749986D03*
X00049749989D03*
X00051749985D03*
X00053749981D03*
X00055749977D03*
X00041749980D03*
X00043749976D03*
X00045749997D03*
X00047749993D03*
X00033749996D03*
X00035749992D03*
X00037749988D03*
X00039749984D03*
X00031750000D03*
Y00000749985D03*
Y00003249980D03*
X00020999983Y00000749985D03*
Y00003249980D03*
X00018999987Y00005999988D03*
X00020999983D03*
X00008749995D03*
X00006499987Y00000749985D03*
X00004499991D03*
X00002749981D03*
X00000749985Y00003249980D03*
Y00000749985D03*
X00006749999Y00005999988D03*
X00004749977D03*
X00002749981D03*
X00000749985D03*
X00157749976Y00004999990D03*
X00148149995Y00004949977D03*
X00138149990Y00004999990D03*
X00127399999Y00005049977D03*
X00030149977Y00004999990D03*
X00018749975D03*
M02*