%FSDAX56Y56*%
%MOMM*%
%SFA1B1*%

%IPPOS*%
%ADD9500C,0.300000*%
%LNwcam-touch-fpc-r01-1*%
%LPD*%
G54D9500*
X00026149985Y00026149985D03*
X00028149981D03*
X00029899991D03*
X00031899987D03*
X00032149999Y00031399988D03*
X00034149995D03*
X00030149977D03*
X00028149981D03*
X00026149985D03*
Y00028649980D03*
X00044149975Y00030399990D03*
X00044399987Y00031399988D03*
X00046399983D03*
Y00028649980D03*
Y00026149985D03*
X00057150000D03*
X00059149996D03*
X00061149992D03*
X00063149988D03*
X00065149984D03*
X00067149980D03*
X00069149976D03*
X00071149997D03*
X00073149993D03*
X00075149989D03*
X00077149985D03*
X00079149981D03*
Y00031399988D03*
X00077149985D03*
X00075149989D03*
X00073149993D03*
X00071149997D03*
X00069149976D03*
X00067149980D03*
X00065149984D03*
X00063149988D03*
X00061149992D03*
X00059149996D03*
X00057150000D03*
X00055549977Y00030399990D03*
X00057150000Y00028649980D03*
X00081149977Y00026149985D03*
X00083149998D03*
X00085149994D03*
X00087149990D03*
X00089149986D03*
X00091149982D03*
X00093149978D03*
X00095149974D03*
X00097149996D03*
X00099149992D03*
X00101149988D03*
X00103149984D03*
X00105149980D03*
X00107149976D03*
X00109149997D03*
X00111149993D03*
X00113149989D03*
X00115149985D03*
X00117149981D03*
Y00031399988D03*
X00115149985D03*
X00113149989D03*
X00111149993D03*
X00109149997D03*
X00107149976D03*
X00105149980D03*
X00103149984D03*
X00101149988D03*
X00099149992D03*
X00097149996D03*
X00095149974D03*
X00093149978D03*
X00091149982D03*
X00089149986D03*
X00087149990D03*
X00085149994D03*
X00083149998D03*
X00081149977D03*
X00119149977D03*
X00121149999D03*
X00123149995D03*
X00125149991D03*
X00127149987D03*
X00129149983D03*
X00131149979D03*
X00133149975D03*
X00135149996D03*
X00137149992D03*
X00139149988D03*
X00141149984D03*
X00143149980D03*
Y00028649980D03*
Y00026149985D03*
X00141149984D03*
X00139149988D03*
X00137149992D03*
X00135149996D03*
X00133149975D03*
X00131149979D03*
X00129149983D03*
X00127149987D03*
X00125149991D03*
X00123149995D03*
X00121149999D03*
X00119149977D03*
X00154399996D03*
Y00028649980D03*
Y00031399988D03*
X00152799999Y00030449977D03*
X00163549990Y00030399990D03*
X00164399976Y00031399988D03*
X00173899982D03*
X00173549995Y00030349977D03*
X00183149976Y00030399990D03*
X00184649999Y00031399988D03*
X00186649995D03*
X00188649991D03*
X00190649987D03*
X00192649983D03*
X00194649979D03*
X00196649975D03*
Y00026149985D03*
X00194649979D03*
X00192649983D03*
X00190649987D03*
X00188649991D03*
X00186649995D03*
X00184649999D03*
Y00028649980D03*
X00198649996Y00026149985D03*
Y00031399988D03*
X00206649980D03*
X00208649976D03*
X00210649997D03*
Y00026149985D03*
X00208649976D03*
X00206649980D03*
X00218649981D03*
X00220649977D03*
X00222649999D03*
X00224649995D03*
X00226649991D03*
X00228649987D03*
Y00028649980D03*
Y00031399988D03*
X00226649991D03*
X00224649995D03*
X00222649999D03*
X00220649977D03*
X00218649981D03*
M02*