%FSDAX56Y56*%
%MOMM*%
%SFA1B1*%

%IPPOS*%
%ADD17C,0.050000*%
%LNwcam-touch-fpc-r01_mechanical_1-1*%
%LPD*%
G54D17*
X00204999996Y00006350000D02*
D01*
X00204999386Y00006367424*
X00204997558Y00006384772*
X00204994535Y00006401968*
X00204990293Y00006418884*
X00204984908Y00006435496*
X00204978381Y00006451676*
X00204970735Y00006467348*
X00204961998Y00006482461*
X00204952244Y00006496939*
X00204941500Y00006510680*
X00204929816Y00006523659*
X00204917268Y00006535775*
X00204903908Y00006547002*
X00204889785Y00006557238*
X00204874977Y00006566484*
X00204859585Y00006574688*
X00204843634Y00006581775*
X00204827251Y00006587744*
X00204810461Y00006592570*
X00204793392Y00006596176*
X00204776120Y00006598615*
X00204758721Y00006599834*
X00204749984Y00006599986*
X00204747393Y00000000000D02*
D01*
X00204764995Y00000000609*
X00204782547Y00000002438*
X00204799895Y00000005511*
X00204817014Y00000009779*
X00204833778Y00000015214*
X00204850136Y00000021818*
X00204865986Y00000029565*
X00204881251Y00000038379*
X00204895856Y00000048234*
X00204909750Y00000059080*
X00204922856Y00000070891*
X00204935099Y00000083566*
X00204946427Y00000097078*
X00204956791Y00000111328*
X00204966138Y00000126288*
X00204974418Y00000141859*
X00204981581Y00000157962*
X00204987626Y00000174523*
X00204992478Y00000191465*
X00204996161Y00000208711*
X00204998599Y00000226187*
X00204999844Y00000243763*
X00204999996Y00000252577*
X00000000000Y00000249986D02*
D01*
X00000000584Y00000232537*
X00000002413Y00000215188*
X00000005461Y00000198018*
X00000009677Y00000181076*
X00000015062Y00000164490*
X00000021590Y00000148310*
X00000029260Y00000132613*
X00000037973Y00000117500*
X00000047726Y00000103047*
X00000058470Y00000089281*
X00000070154Y00000076327*
X00000082702Y00000064211*
X00000096062Y00000052984*
X00000110185Y00000042722*
X00000124993Y00000033477*
X00000140385Y00000025298*
X00000156337Y00000018186*
X00000172745Y00000012217*
X00000189509Y00000007416*
X00000206578Y00000003784*
X00000223850Y00000001346*
X00000241274Y00000000127*
X00000249986Y00000000000*
Y00006599986D02*
D01*
X00000232537Y00006599377*
X00000215188Y00006597548*
X00000198018Y00006594525*
X00000181076Y00006590309*
X00000164490Y00006584899*
X00000148310Y00006578371*
X00000132613Y00006570726*
X00000117500Y00006561988*
X00000103047Y00006552234*
X00000089281Y00006541490*
X00000076327Y00006529832*
X00000064211Y00006517259*
X00000052984Y00006503898*
X00000042722Y00006489776*
X00000033477Y00006474993*
X00000025298Y00006459575*
X00000018186Y00006443649*
X00000012217Y00006427241*
X00000007416Y00006410477*
X00000003784Y00006393408*
X00000001346Y00006376111*
X00000000127Y00006358712*
X00000000000Y00006350000*
X00165249987Y00003299993D02*
D01*
X00165245719Y00003422065*
X00165232969Y00003543528*
X00165211734Y00003663823*
X00165182194Y00003782364*
X00165144450Y00003898519*
X00165098679Y00004011777*
X00165045136Y00004121556*
X00164984074Y00004227347*
X00164915773Y00004328617*
X00164840564Y00004424857*
X00164758827Y00004515637*
X00164670968Y00004600498*
X00164577395Y00004679010*
X00164478563Y00004750790*
X00164374982Y00004815535*
X00164267134Y00004872888*
X00164155551Y00004922570*
X00164040769Y00004964328*
X00163923345Y00004998008*
X00163803863Y00005023408*
X00163682908Y00005040401*
X00163561064Y00005048910*
X00163438916*
X00163317072Y00005040401*
X00163196092Y00005023408*
X00163076636Y00004998008*
X00162959211Y00004964328*
X00162844429Y00004922570*
X00162732847Y00004872888*
X00162624998Y00004815535*
X00162521392Y00004750790*
X00162422586Y00004679010*
X00162329012Y00004600498*
X00162241153Y00004515637*
X00162159416Y00004424857*
X00162084207Y00004328617*
X00162015906Y00004227347*
X00161954819Y00004121556*
X00161901276Y00004011777*
X00161855531Y00003898519*
X00161817786Y00003782364*
X00161788221Y00003663823*
X00161767012Y00003543528*
X00161754261Y00003422065*
X00161749994Y00003299993*
X00161754261Y00003177921*
X00161767012Y00003056432*
X00161788221Y00002936138*
X00161817786Y00002817622*
X00161855531Y00002701442*
X00161901276Y00002588209*
X00161954819Y00002478405*
X00162015906Y00002372639*
X00162084207Y00002271369*
X00162159416Y00002175103*
X00162241153Y00002084323*
X00162329012Y00001999488*
X00162422586Y00001920976*
X00162521392Y00001849170*
X00162624998Y00001784451*
X00162732847Y00001727098*
X00162844429Y00001677416*
X00162959211Y00001635633*
X00163076636Y00001601978*
X00163196092Y00001576578*
X00163317072Y00001559585*
X00163438916Y00001551051*
X00163561064*
X00163682908Y00001559585*
X00163803863Y00001576578*
X00163923345Y00001601978*
X00164040769Y00001635633*
X00164155551Y00001677416*
X00164267134Y00001727098*
X00164374982Y00001784451*
X00164478563Y00001849170*
X00164577395Y00001920976*
X00164670968Y00001999488*
X00164758827Y00002084323*
X00164840564Y00002175103*
X00164915773Y00002271369*
X00164984074Y00002372639*
X00165045136Y00002478405*
X00165098679Y00002588209*
X00165144450Y00002701442*
X00165182194Y00002817622*
X00165211734Y00002936138*
X00165232969Y00003056432*
X00165245719Y00003177921*
X00165249987Y00003299993*
X00104249982D02*
D01*
X00104245714Y00003422065*
X00104232964Y00003543528*
X00104211755Y00003663823*
X00104182189Y00003782364*
X00104144445Y00003898519*
X00104098699Y00004011777*
X00104045156Y00004121556*
X00103984069Y00004227347*
X00103915768Y00004328617*
X00103840559Y00004424857*
X00103758822Y00004515637*
X00103670963Y00004600498*
X00103577390Y00004679010*
X00103478584Y00004750790*
X00103374977Y00004815535*
X00103267129Y00004872888*
X00103155546Y00004922570*
X00103040764Y00004964328*
X00102923340Y00004998008*
X00102803883Y00005023408*
X00102682903Y00005040401*
X00102561059Y00005048910*
X00102438911*
X00102317067Y00005040401*
X00102196112Y00005023408*
X00102076631Y00004998008*
X00101959206Y00004964328*
X00101844424Y00004922570*
X00101732842Y00004872888*
X00101624993Y00004815535*
X00101521412Y00004750790*
X00101422581Y00004679010*
X00101329007Y00004600498*
X00101241148Y00004515637*
X00101159411Y00004424857*
X00101084202Y00004328617*
X00101015901Y00004227347*
X00100954840Y00004121556*
X00100901271Y00004011777*
X00100855526Y00003898519*
X00100817781Y00003782364*
X00100788241Y00003663823*
X00100767007Y00003543528*
X00100754256Y00003422065*
X00100749989Y00003299993*
X00100754256Y00003177921*
X00100767007Y00003056432*
X00100788241Y00002936138*
X00100817781Y00002817622*
X00100855526Y00002701442*
X00100901271Y00002588209*
X00100954840Y00002478405*
X00101015901Y00002372639*
X00101084202Y00002271369*
X00101159411Y00002175103*
X00101241148Y00002084323*
X00101329007Y00001999488*
X00101422581Y00001920976*
X00101521412Y00001849170*
X00101624993Y00001784451*
X00101732842Y00001727098*
X00101844424Y00001677416*
X00101959206Y00001635633*
X00102076631Y00001601978*
X00102196112Y00001576578*
X00102317067Y00001559585*
X00102438911Y00001551051*
X00102561059*
X00102682903Y00001559585*
X00102803883Y00001576578*
X00102923340Y00001601978*
X00103040764Y00001635633*
X00103155546Y00001677416*
X00103267129Y00001727098*
X00103374977Y00001784451*
X00103478584Y00001849170*
X00103577390Y00001920976*
X00103670963Y00001999488*
X00103758822Y00002084323*
X00103840559Y00002175103*
X00103915768Y00002271369*
X00103984069Y00002372639*
X00104045156Y00002478405*
X00104098699Y00002588209*
X00104144445Y00002701442*
X00104182189Y00002817622*
X00104211755Y00002936138*
X00104232964Y00003056432*
X00104245714Y00003177921*
X00104249982Y00003299993*
X00067549979D02*
D01*
X00067545712Y00003422065*
X00067532961Y00003543528*
X00067511752Y00003663823*
X00067482186Y00003782364*
X00067444442Y00003898519*
X00067398696Y00004011777*
X00067345153Y00004121556*
X00067284066Y00004227347*
X00067215766Y00004328617*
X00067140556Y00004424857*
X00067058819Y00004515637*
X00066970960Y00004600498*
X00066877387Y00004679010*
X00066778581Y00004750790*
X00066674999Y00004815535*
X00066567126Y00004872888*
X00066455544Y00004922570*
X00066340761Y00004964328*
X00066223362Y00004998008*
X00066103881Y00005023408*
X00065982900Y00005040401*
X00065861057Y00005048910*
X00065738908*
X00065617064Y00005040401*
X00065496109Y00005023408*
X00065376628Y00004998008*
X00065259204Y00004964328*
X00065144421Y00004922570*
X00065032839Y00004872888*
X00064924990Y00004815535*
X00064821409Y00004750790*
X00064722578Y00004679010*
X00064629004Y00004600498*
X00064541146Y00004515637*
X00064459408Y00004424857*
X00064384199Y00004328617*
X00064315898Y00004227347*
X00064254837Y00004121556*
X00064201294Y00004011777*
X00064155523Y00003898519*
X00064117778Y00003782364*
X00064088238Y00003663823*
X00064067029Y00003543528*
X00064054253Y00003422065*
X00064049986Y00003299993*
X00064054253Y00003177921*
X00064067029Y00003056432*
X00064088238Y00002936138*
X00064117778Y00002817622*
X00064155523Y00002701442*
X00064201294Y00002588209*
X00064254837Y00002478405*
X00064315898Y00002372639*
X00064384199Y00002271369*
X00064459408Y00002175103*
X00064541146Y00002084323*
X00064629004Y00001999488*
X00064722578Y00001920976*
X00064821409Y00001849170*
X00064924990Y00001784451*
X00065032839Y00001727098*
X00065144421Y00001677416*
X00065259204Y00001635633*
X00065376628Y00001601978*
X00065496109Y00001576578*
X00065617064Y00001559585*
X00065738908Y00001551051*
X00065861057*
X00065982900Y00001559585*
X00066103881Y00001576578*
X00066223362Y00001601978*
X00066340761Y00001635633*
X00066455544Y00001677416*
X00066567126Y00001727098*
X00066674999Y00001784451*
X00066778581Y00001849170*
X00066877387Y00001920976*
X00066970960Y00001999488*
X00067058819Y00002084323*
X00067140556Y00002175103*
X00067215766Y00002271369*
X00067284066Y00002372639*
X00067345153Y00002478405*
X00067398696Y00002588209*
X00067444442Y00002701442*
X00067482186Y00002817622*
X00067511752Y00002936138*
X00067532961Y00003056432*
X00067545712Y00003177921*
X00067549979Y00003299993*
X00043249977D02*
D01*
X00043245735Y00003422065*
X00043232959Y00003543528*
X00043211750Y00003663823*
X00043182184Y00003782364*
X00043144440Y00003898519*
X00043098694Y00004011777*
X00043045151Y00004121556*
X00042984064Y00004227347*
X00042915763Y00004328617*
X00042840554Y00004424857*
X00042758842Y00004515637*
X00042670958Y00004600498*
X00042577385Y00004679010*
X00042478579Y00004750790*
X00042374997Y00004815535*
X00042267149Y00004872888*
X00042155541Y00004922570*
X00042040759Y00004964328*
X00041923360Y00004998008*
X00041803878Y00005023408*
X00041682924Y00005040401*
X00041561054Y00005048910*
X00041438906*
X00041317062Y00005040401*
X00041196107Y00005023408*
X00041076626Y00004998008*
X00040959201Y00004964328*
X00040844419Y00004922570*
X00040732837Y00004872888*
X00040624988Y00004815535*
X00040521407Y00004750790*
X00040422576Y00004679010*
X00040329002Y00004600498*
X00040241143Y00004515637*
X00040159406Y00004424857*
X00040084197Y00004328617*
X00040015896Y00004227347*
X00039954835Y00004121556*
X00039901291Y00004011777*
X00039855521Y00003898519*
X00039817776Y00003782364*
X00039788236Y00003663823*
X00039767027Y00003543528*
X00039754251Y00003422065*
X00039749984Y00003299993*
X00039754251Y00003177921*
X00039767027Y00003056432*
X00039788236Y00002936138*
X00039817776Y00002817622*
X00039855521Y00002701442*
X00039901291Y00002588209*
X00039954835Y00002478405*
X00040015896Y00002372639*
X00040084197Y00002271369*
X00040159406Y00002175103*
X00040241143Y00002084323*
X00040329002Y00001999488*
X00040422576Y00001920976*
X00040521407Y00001849170*
X00040624988Y00001784451*
X00040732837Y00001727098*
X00040844419Y00001677416*
X00040959201Y00001635633*
X00041076626Y00001601978*
X00041196107Y00001576578*
X00041317062Y00001559585*
X00041438906Y00001551051*
X00041561054*
X00041682924Y00001559585*
X00041803878Y00001576578*
X00041923360Y00001601978*
X00042040759Y00001635633*
X00042155541Y00001677416*
X00042267149Y00001727098*
X00042374997Y00001784451*
X00042478579Y00001849170*
X00042577385Y00001920976*
X00042670958Y00001999488*
X00042758842Y00002084323*
X00042840554Y00002175103*
X00042915763Y00002271369*
X00042984064Y00002372639*
X00043045151Y00002478405*
X00043098694Y00002588209*
X00043144440Y00002701442*
X00043182184Y00002817622*
X00043211750Y00002936138*
X00043232959Y00003056432*
X00043245735Y00003177921*
X00043249977Y00003299993*
X00186399297Y00002032279D02*
D01*
X00186401684Y00001964817*
X00186408771Y00001897684*
X00186420531Y00001831213*
X00186436889Y00001765706*
X00186457793Y00001701520*
X00186483117Y00001638935*
X00186512733Y00001578279*
X00186546515Y00001519834*
X00186584310Y00001463878*
X00186625890Y00001410690*
X00186671077Y00001360551*
X00186719667Y00001313688*
X00186771407Y00001270304*
X00186826042Y00001230655*
X00186883319Y00001194917*
X00186942933Y00001163243*
X00187004629Y00001135837*
X00187068079Y00001112774*
X00187132976Y00001094206*
X00187199016Y00001080185*
X00187265894Y00001070838*
X00187333229Y00001066165*
X00187366884Y00001065682*
X00192032483D02*
D01*
X00192099920Y00001068044*
X00192167027Y00001075105*
X00192233473Y00001086815*
X00192298955Y00001103147*
X00192363115Y00001123975*
X00192425675Y00001149273*
X00192486330Y00001178839*
X00192544750Y00001212570*
X00192600707Y00001250315*
X00192653869Y00001291844*
X00192704008Y00001337005*
X00192750897Y00001385544*
X00192794255Y00001437233*
X00192833929Y00001491818*
X00192869667Y00001549044*
X00192901341Y00001608607*
X00192928798Y00001670253*
X00192951862Y00001733651*
X00192970480Y00001798523*
X00192984501Y00001864512*
X00192993899Y00001931339*
X00192998598Y00001998649*
X00192999182Y00002032279*
X00193200197Y00002398979D02*
D01*
X00193186227Y00002398496*
X00193172359Y00002397048*
X00193158592Y00002394610*
X00193145054Y00002391232*
X00193131795Y00002386914*
X00193118841Y00002381707*
X00193106294Y00002375585*
X00193094203Y00002368600*
X00193082621Y00002360803*
X00193071623Y00002352192*
X00193061259Y00002342845*
X00193051557Y00002332812*
X00193042590Y00002322118*
X00193034386Y00002310815*
X00193026969Y00002298979*
X00193020416Y00002286660*
X00193014752Y00002273909*
X00193009977Y00002260803*
X00193006116Y00002247366*
X00193003220Y00002233726*
X00193001290Y00002219883*
X00193000299Y00002205964*
X00193000198Y00002198979*
X00193465881Y00002398979D02*
D01*
X00193479826Y00002399461*
X00193493720Y00002400935*
X00193507461Y00002403348*
X00193521025Y00002406726*
X00193534284Y00002411044*
X00193547238Y00002416276*
X00193559785Y00002422398*
X00193571876Y00002429383*
X00193583433Y00002437180*
X00193594456Y00002445766*
X00193604819Y00002455113*
X00193614522Y00002465171*
X00193623488Y00002475865*
X00193631693Y00002487142*
X00193639084Y00002498979*
X00193645637Y00002511323*
X00193651327Y00002524074*
X00193656102Y00002537180*
X00193659937Y00002550591*
X00193662858Y00002564257*
X00193664789Y00002578074*
X00193665754Y00002592019*
X00193665881Y00002598978*
X00193666897Y00004132275D02*
D01*
X00193666364Y00004146270*
X00193664865Y00004160189*
X00193662401Y00004173956*
X00193658972Y00004187545*
X00193654629Y00004200829*
X00193649346Y00004213783*
X00193643173Y00004226356*
X00193636163Y00004238472*
X00193628289Y00004250055*
X00193619653Y00004261053*
X00193610255Y00004271416*
X00193600171Y00004281119*
X00193589427Y00004290085*
X00193578099Y00004298289*
X00193566211Y00004305681*
X00193553842Y00004312208*
X00193541040Y00004317873*
X00193527857Y00004322622*
X00193514395Y00004326458*
X00193500705Y00004329328*
X00193486836Y00004331233*
X00193472892Y00004332173*
X00193465881Y00004332274*
X00193000198Y00004532376D02*
D01*
X00193000680Y00004518431*
X00193002128Y00004504563*
X00193004567Y00004490796*
X00193007945Y00004477258*
X00193012237Y00004463973*
X00193017470Y00004451045*
X00193023591Y00004438497*
X00193030576Y00004426407*
X00193038374Y00004414824*
X00193046985Y00004403826*
X00193056306Y00004393463*
X00193066365Y00004383760*
X00193077058Y00004374794*
X00193088336Y00004366590*
X00193100198Y00004359173*
X00193112517Y00004352620*
X00193125267Y00004346956*
X00193138374Y00004342180*
X00193151810Y00004338320*
X00193165450Y00004335424*
X00193179293Y00004333494*
X00193193212Y00004332503*
X00193200197Y00004332274*
X00193000198Y00004699000D02*
D01*
X00192997785Y00004766462*
X00192990698Y00004833594*
X00192978938Y00004900066*
X00192962580Y00004965573*
X00192941676Y00005029758*
X00192916352Y00005092344*
X00192886736Y00005152999*
X00192852954Y00005211445*
X00192815184Y00005267401*
X00192773579Y00005320563*
X00192728392Y00005370728*
X00192679802Y00005417591*
X00192628062Y00005460949*
X00192573427Y00005500624*
X00192516150Y00005536361*
X00192456536Y00005568010*
X00192394840Y00005595442*
X00192331390Y00005618505*
X00192266493Y00005637072*
X00192200453Y00005651068*
X00192133601Y00005660440*
X00192066240Y00005665114*
X00192032483Y00005665698*
X00187366884D02*
D01*
X00187299422Y00005663361*
X00187232264Y00005656351*
X00187165792Y00005644667*
X00187100260Y00005628360*
X00187036049Y00005607532*
X00186973438Y00005582259*
X00186912758Y00005552719*
X00186854261Y00005518988*
X00186798280Y00005481269*
X00186745067Y00005439714*
X00186694876Y00005394579*
X00186647963Y00005346039*
X00186604529Y00005294350*
X00186564828Y00005239740*
X00186529014Y00005182514*
X00186497290Y00005122926*
X00186469807Y00005061280*
X00186446668Y00004997856*
X00186428049Y00004932959*
X00186413978Y00004866944*
X00186404529Y00004800092*
X00186399805Y00004732731*
X00186399297Y00004699000*
X00174566986Y00005665698D02*
D01*
X00174499524Y00005663361*
X00174432366Y00005656351*
X00174365894Y00005644667*
X00174300362Y00005628360*
X00174236151Y00005607532*
X00174173540Y00005582259*
X00174112859Y00005552719*
X00174054363Y00005518988*
X00173998382Y00005481269*
X00173945169Y00005439714*
X00173894978Y00005394579*
X00173848064Y00005346039*
X00173804630Y00005294350*
X00173764930Y00005239740*
X00173729116Y00005182514*
X00173697392Y00005122926*
X00173669909Y00005061280*
X00173646769Y00004997856*
X00173628126Y00004932959*
X00173614080Y00004866944*
X00173604631Y00004800092*
X00173599881Y00004732731*
X00173599398Y00004699000*
X00180200300D02*
D01*
X00180197887Y00004766462*
X00180190800Y00004833594*
X00180179040Y00004900066*
X00180162682Y00004965573*
X00180141778Y00005029758*
X00180116454Y00005092344*
X00180086838Y00005152999*
X00180053056Y00005211445*
X00180015286Y00005267401*
X00179973681Y00005320563*
X00179928494Y00005370728*
X00179879904Y00005417591*
X00179828164Y00005460949*
X00179773529Y00005500624*
X00179716252Y00005536361*
X00179656638Y00005568010*
X00179594941Y00005595442*
X00179531492Y00005618505*
X00179466595Y00005637072*
X00179400555Y00005651068*
X00179333677Y00005660440*
X00179266342Y00005665114*
X00179232687Y00005665698*
X00180200300Y00004532376D02*
D01*
X00180200782Y00004518431*
X00180202230Y00004504563*
X00180204668Y00004490796*
X00180208047Y00004477258*
X00180212339Y00004463973*
X00180217572Y00004451045*
X00180223693Y00004438497*
X00180230678Y00004426407*
X00180238476Y00004414824*
X00180247086Y00004403826*
X00180256408Y00004393463*
X00180266467Y00004383760*
X00180277160Y00004374794*
X00180288438Y00004366590*
X00180300299Y00004359173*
X00180312618Y00004352620*
X00180325369Y00004346956*
X00180338476Y00004342180*
X00180351912Y00004338320*
X00180365552Y00004335424*
X00180379370Y00004333494*
X00180393314Y00004332503*
X00180400299Y00004332274*
X00180866999Y00004132275D02*
D01*
X00180866465Y00004146270*
X00180864967Y00004160189*
X00180862503Y00004173956*
X00180859074Y00004187545*
X00180854731Y00004200829*
X00180849447Y00004213783*
X00180843275Y00004226356*
X00180836265Y00004238472*
X00180828391Y00004250055*
X00180819755Y00004261053*
X00180810357Y00004271416*
X00180800273Y00004281119*
X00180789529Y00004290085*
X00180778200Y00004298289*
X00180766313Y00004305681*
X00180753943Y00004312208*
X00180741142Y00004317873*
X00180727959Y00004322622*
X00180714497Y00004326458*
X00180700807Y00004329328*
X00180686938Y00004331233*
X00180672994Y00004332173*
X00180665983Y00004332274*
Y00002398979D02*
D01*
X00180679928Y00002399461*
X00180693822Y00002400935*
X00180707563Y00002403348*
X00180721127Y00002406726*
X00180734385Y00002411044*
X00180747339Y00002416276*
X00180759887Y00002422398*
X00180771977Y00002429383*
X00180783534Y00002437180*
X00180794533Y00002445766*
X00180804921Y00002455113*
X00180814624Y00002465171*
X00180823590Y00002475865*
X00180831794Y00002487142*
X00180839186Y00002498979*
X00180845739Y00002511323*
X00180851429Y00002524074*
X00180856204Y00002537180*
X00180860039Y00002550591*
X00180862960Y00002564257*
X00180864891Y00002578074*
X00180865856Y00002592019*
X00180865983Y00002598978*
X00180400299Y00002398979D02*
D01*
X00180386329Y00002398496*
X00180372461Y00002397048*
X00180358694Y00002394610*
X00180345156Y00002391232*
X00180331872Y00002386914*
X00180318943Y00002381707*
X00180306395Y00002375585*
X00180294305Y00002368600*
X00180282723Y00002360803*
X00180271724Y00002352192*
X00180261361Y00002342845*
X00180251658Y00002332812*
X00180242692Y00002322118*
X00180234488Y00002310815*
X00180227071Y00002298979*
X00180220518Y00002286660*
X00180214854Y00002273909*
X00180210079Y00002260803*
X00180206218Y00002247366*
X00180203322Y00002233726*
X00180201392Y00002219883*
X00180200401Y00002205964*
X00180200300Y00002198979*
X00179232687Y00001065682D02*
D01*
X00179300124Y00001068044*
X00179367230Y00001075105*
X00179433677Y00001086815*
X00179499158Y00001103147*
X00179563318Y00001123975*
X00179625879Y00001149273*
X00179686534Y00001178839*
X00179744954Y00001212570*
X00179800910Y00001250315*
X00179854072Y00001291844*
X00179904212Y00001337005*
X00179951075Y00001385544*
X00179994458Y00001437233*
X00180034107Y00001491818*
X00180069871Y00001549044*
X00180101544Y00001608607*
X00180129002Y00001670253*
X00180152065Y00001733651*
X00180170683Y00001798523*
X00180184704Y00001864512*
X00180194102Y00001931339*
X00180198801Y00001998649*
X00180199284Y00002032279*
X00173599398D02*
D01*
X00173601786Y00001964817*
X00173608873Y00001897684*
X00173620633Y00001831213*
X00173636990Y00001765706*
X00173657895Y00001701520*
X00173683218Y00001638935*
X00173712835Y00001578279*
X00173746617Y00001519834*
X00173784412Y00001463878*
X00173825992Y00001410690*
X00173871178Y00001360551*
X00173919769Y00001313688*
X00173971508Y00001270304*
X00174026144Y00001230655*
X00174083421Y00001194917*
X00174143035Y00001163243*
X00174204731Y00001135837*
X00174268180Y00001112774*
X00174333077Y00001094206*
X00174399117Y00001080185*
X00174465996Y00001070838*
X00174533331Y00001066165*
X00174566986Y00001065682*
X00155188488Y00001565275D02*
D01*
X00155198013Y00001575485*
X00155206801Y00001586331*
X00155214802Y00001597787*
X00155221990Y00001609750*
X00155228315Y00001622171*
X00155233776Y00001635023*
X00155238323Y00001648231*
X00155241929Y00001661693*
X00155244596Y00001675409*
X00155246298Y00001689252*
X00155247035Y00001703197*
X00155246781Y00001717141*
X00155245562Y00001731060*
X00155243377Y00001744853*
X00155240253Y00001758442*
X00155236164Y00001771802*
X00155231160Y00001784832*
X00155225267Y00001797481*
X00155218485Y00001809673*
X00155210891Y00001821383*
X00155202483Y00001832533*
X00155193339Y00001843074*
X00155188488Y00001848180*
X00154482800Y00001141399D02*
D01*
X00154492960Y00001131900*
X00154503780Y00001123137*
X00154515159Y00001115161*
X00154527072Y00001107998*
X00154539467Y00001101699*
X00154552269Y00001096264*
X00154565426Y00001091742*
X00154578862Y00001088136*
X00154592528Y00001085469*
X00154606320Y00001083792*
X00154620214Y00001083056*
X00154634107Y00001083310*
X00154647976Y00001084503*
X00154661717Y00001086688*
X00154675255Y00001089812*
X00154688565Y00001093876*
X00154701544Y00001098854*
X00154714143Y00001104747*
X00154726309Y00001111478*
X00154737968Y00001119073*
X00154749093Y00001127429*
X00154759583Y00001136548*
X00154764587Y00001141399*
X00154010588Y00001613484D02*
D01*
X00154000301Y00001623034*
X00153989379Y00001631873*
X00153977848Y00001639900*
X00153965808Y00001647113*
X00153953286Y00001653463*
X00153940357Y00001658924*
X00153927073Y00001663471*
X00153913484Y00001667078*
X00153899717Y00001669745*
X00153885773Y00001671421*
X00153871752Y00001672132*
X00153857706Y00001671853*
X00153843710Y00001670608*
X00153829842Y00001668399*
X00153816177Y00001665224*
X00153802765Y00001661083*
X00153789659Y00001656029*
X00153781683Y00001652397*
X00153595781Y00001575181D02*
D01*
X00153582776Y00001569923*
X00153570178Y00001563776*
X00153558036Y00001556766*
X00153546403Y00001548917*
X00153535354Y00001540281*
X00153524940Y00001530883*
X00153515212Y00001520799*
X00153506195Y00001510030*
X00153497940Y00001498701*
X00153490523Y00001486789*
X00153483945Y00001474393*
X00153478255Y00001461592*
X00153473454Y00001448409*
X00153469594Y00001434922*
X00153466673Y00001421206*
X00153464742Y00001407312*
X00153463752Y00001393317*
X00153463675Y00001386586*
X00153262685Y00001065682D02*
D01*
X00153276681Y00001066139*
X00153290600Y00001067562*
X00153304392Y00001069975*
X00153317981Y00001073327*
X00153331291Y00001077620*
X00153344270Y00001082827*
X00153356868Y00001088923*
X00153369010Y00001095883*
X00153380643Y00001103680*
X00153391692Y00001112266*
X00153402106Y00001121613*
X00153411859Y00001131646*
X00153420876Y00001142365*
X00153429131Y00001153642*
X00153436574Y00001165504*
X00153443178Y00001177848*
X00153448893Y00001190625*
X00153453719Y00001203756*
X00153457605Y00001217193*
X00153460551Y00001230884*
X00153462532Y00001244727*
X00153463548Y00001258697*
X00153463675Y00001265682*
X00152463093D02*
D01*
X00152463601Y00001251712*
X00152465100Y00001237792*
X00152467564Y00001224000*
X00152470993Y00001210437*
X00152475361Y00001197152*
X00152480619Y00001184173*
X00152486791Y00001171625*
X00152493827Y00001159510*
X00152501676Y00001147927*
X00152510312Y00001136929*
X00152519710Y00001126540*
X00152529794Y00001116863*
X00152540538Y00001107871*
X00152551892Y00001099693*
X00152563779Y00001092301*
X00152576149Y00001085748*
X00152588950Y00001080109*
X00152602107Y00001075334*
X00152615569Y00001071524*
X00152629260Y00001068654*
X00152643128Y00001066723*
X00152657098Y00001065784*
X00152664083Y00001065682*
X00152463093Y00001386687D02*
D01*
X00152462585Y00001400708*
X00152461087Y00001414653*
X00152458623Y00001428470*
X00152455219Y00001442085*
X00152450850Y00001455420*
X00152445593Y00001468424*
X00152439420Y00001481023*
X00152432385Y00001493164*
X00152424511Y00001504772*
X00152415875Y00001515821*
X00152406477Y00001526235*
X00152396367Y00001535963*
X00152385598Y00001544955*
X00152374244Y00001553184*
X00152362331Y00001560601*
X00152349936Y00001567180*
X00152337109Y00001572869*
X00152330988Y00001575181*
X00154677897Y00002548382D02*
D01*
X00154672284Y00002535453*
X00154667610Y00002522169*
X00154663876Y00002508580*
X00154661082Y00002494788*
X00154659253Y00002480818*
X00154658415Y00002466746*
X00154658568Y00002452674*
X00154659685Y00002438628*
X00154661793Y00002424684*
X00154664867Y00002410942*
X00154668905Y00002397455*
X00154673858Y00002384247*
X00154679700Y00002371445*
X00154686457Y00002359075*
X00154694051Y00002347214*
X00154702433Y00002335911*
X00154711603Y00002325192*
X00154715997Y00002320696*
X00154677897Y00002548382D02*
D01*
X00154729942Y00002666974*
X00154773604Y00002788894*
X00154808631Y00002913583*
X00154834894Y00003040405*
X00154852243Y00003168726*
X00154860599Y00003297961*
X00154859913Y00003427476*
X00154857399Y00003476498*
X00151069395D02*
D01*
X00151067414Y00003342309*
X00151074805Y00003208324*
X00151091544Y00003075203*
X00151117503Y00002943555*
X00151152580Y00002814015*
X00151196624Y00002687269*
X00151249405Y00002563901*
X00151310644Y00002444496*
X00151380088Y00002329688*
X00151457355Y00002219985*
X00151542089Y00002115921*
X00151633859Y00002018055*
X00151732259Y00001926793*
X00151836780Y00001842643*
X00151946914Y00001765985*
X00152062103Y00001697177*
X00152181839Y00001636598*
X00152305512Y00001584502*
X00152330988Y00001575181*
X00154857399Y00003476498D02*
D01*
X00154856510Y00003489909*
X00154854706Y00003503244*
X00154851989Y00003516426*
X00154848356Y00003529380*
X00154843810Y00003542055*
X00154838400Y00003554374*
X00154832151Y00003566287*
X00154825090Y00003577742*
X00154817241Y00003588664*
X00154808631Y00003599027*
X00154799334Y00003608755*
X00154789403Y00003617798*
X00154778837Y00003626154*
X00154767711Y00003633724*
X00154756104Y00003640531*
X00154744039Y00003646474*
X00154731593Y00003651580*
X00154718816Y00003655822*
X00154705786Y00003659149*
X00154692527Y00003661537*
X00154679167Y00003663035*
X00154665705Y00003663569*
X00154658999Y00003663594*
X00151268988D02*
D01*
X00151255476Y00003663543*
X00151242014Y00003662578*
X00151228653Y00003660673*
X00151215471Y00003657828*
X00151202491Y00003654094*
X00151189817Y00003649446*
X00151177498Y00003643909*
X00151165585Y00003637559*
X00151154155Y00003630371*
X00151143258Y00003622421*
X00151132946Y00003613708*
X00151123243Y00003604310*
X00151114252Y00003594252*
X00151105946Y00003583609*
X00151098427Y00003572383*
X00151091722Y00003560699*
X00151085829Y00003548532*
X00151080800Y00003536010*
X00151076660Y00003523157*
X00151073408Y00003510051*
X00151071097Y00003496767*
X00151069725Y00003483330*
X00151069395Y00003476498*
X00154063090Y00003863594D02*
D01*
X00154063573Y00003849624*
X00154065046Y00003835755*
X00154067459Y00003822014*
X00154070837Y00003808450*
X00154075155Y00003795191*
X00154080387Y00003782237*
X00154086509Y00003769690*
X00154093468Y00003757599*
X00154101292Y00003746042*
X00154109877Y00003735019*
X00154119224Y00003724656*
X00154129257Y00003714953*
X00154139950Y00003705987*
X00154151253Y00003697782*
X00154163090Y00003690391*
X00154175409Y00003683838*
X00154188160Y00003678148*
X00154201291Y00003673373*
X00154214703Y00003669538*
X00154228368Y00003666617*
X00154242185Y00003664686*
X00154256105Y00003663721*
X00154262988Y00003663594*
X00154062099Y00004610379D02*
D01*
X00154055953Y00004686960*
X00154044497Y00004762906*
X00154027759Y00004837887*
X00154005864Y00004911496*
X00153978864Y00004983429*
X00153946910Y00005053279*
X00153910157Y00005120741*
X00153868805Y00005185460*
X00153823035Y00005247157*
X00153773047Y00005305475*
X00153719149Y00005360212*
X00153661541Y00005411012*
X00153600531Y00005457698*
X00153536421Y00005500014*
X00153469517Y00005537733*
X00153400150Y00005570728*
X00153328624Y00005598769*
X00153255345Y00005621782*
X00153180618Y00005639612*
X00153104850Y00005652185*
X00153028370Y00005659450*
X00152951586Y00005661355*
X00152874853Y00005657900*
X00152798551Y00005649087*
X00152723037Y00005634990*
X00152648691Y00005615660*
X00152575869Y00005591175*
X00152504952Y00005561685*
X00152436245Y00005527319*
X00152370129Y00005488254*
X00152306883Y00005444642*
X00152246812Y00005396763*
X00152190246Y00005344769*
X00152137465Y00005288991*
X00152088672Y00005229656*
X00152088392Y00005229377*
X00151805995Y00005230799D02*
D01*
X00151816130Y00005221224*
X00151826925Y00005212410*
X00151838304Y00005204358*
X00151850217Y00005197119*
X00151862586Y00005190718*
X00151875413Y00005185206*
X00151888545Y00005180609*
X00151902007Y00005176951*
X00151915672Y00005174208*
X00151929490Y00005172456*
X00151943409Y00005171643*
X00151957354Y00005171821*
X00151971248Y00005172964*
X00151985014Y00005175072*
X00151998603Y00005178145*
X00152011964Y00005182158*
X00152024994Y00005187086*
X00152037669Y00005192903*
X00152049886Y00005199608*
X00152061621Y00005207152*
X00152072797Y00005215483*
X00152083338Y00005224576*
X00152088392Y00005229377*
X00151476786Y00003663594D02*
D01*
X00151490730Y00003664077*
X00151504624Y00003665524*
X00151518366Y00003667963*
X00151531904Y00003671341*
X00151545188Y00003675659*
X00151558142Y00003680866*
X00151570690Y00003686987*
X00151582780Y00003693972*
X00151594337Y00003701796*
X00151605335Y00003710381*
X00151615724Y00003719728*
X00151625427Y00003729761*
X00151634393Y00003740454*
X00151642597Y00003751757*
X00151649988Y00003763594*
X00151656542Y00003775913*
X00151662231Y00003788664*
X00151667006Y00003801795*
X00151670842Y00003815207*
X00151673737Y00003828846*
X00151675693Y00003842689*
X00151676658Y00003856609*
Y00003870579*
X00151675693Y00003884498*
X00151673737Y00003898315*
X00151670842Y00003911981*
X00151667006Y00003925392*
X00151662231Y00003938498*
X00151656542Y00003951249*
X00151649988Y00003963593*
X00151642597Y00003975430*
X00151634393Y00003986707*
X00151625427Y00003997401*
X00151618188Y00004004995*
X00151451894Y00005585790D02*
D01*
X00151441683Y00005595315*
X00151430837Y00005604078*
X00151419407Y00005612104*
X00151407444Y00005619292*
X00151394998Y00005625617*
X00151382145Y00005631078*
X00151368963Y00005635625*
X00151355475Y00005639231*
X00151341759Y00005641898*
X00151327916Y00005643600*
X00151313972Y00005644337*
X00151300027Y00005644083*
X00151286108Y00005642864*
X00151272341Y00005640679*
X00151258727Y00005637555*
X00151245392Y00005633466*
X00151232362Y00005628462*
X00151219712Y00005622569*
X00151207495Y00005615787*
X00151195786Y00005608193*
X00151184635Y00005599785*
X00151174119Y00005590641*
X00151169090Y00005585790*
X00150745190Y00005161889D02*
D01*
X00150735639Y00005151780*
X00150726800Y00005141061*
X00150718748Y00005129707*
X00150711484Y00005117846*
X00150705083Y00005105527*
X00150699546Y00005092750*
X00150694923Y00005079644*
X00150691240Y00005066233*
X00150688471Y00005052618*
X00150686693Y00005038826*
X00150685855Y00005024958*
X00150685982Y00005011039*
X00150687100Y00004997196*
X00150689183Y00004983429*
X00150692205Y00004969865*
X00150696168Y00004956530*
X00150701044Y00004943525*
X00150706836Y00004930876*
X00150713490Y00004918659*
X00150720958Y00004906949*
X00150729264Y00004895773*
X00150738306Y00004885232*
X00150743081Y00004880178*
X00143667784Y00001065682D02*
D01*
X00143681678Y00001066215*
X00143695496Y00001067739*
X00143709186Y00001070203*
X00143722674Y00001073632*
X00143735856Y00001077976*
X00143748734Y00001083233*
X00143761206Y00001089380*
X00143773220Y00001096391*
X00143784726Y00001104188*
X00143795648Y00001112799*
X00143805935Y00001122146*
X00143815562Y00001132179*
X00143824452Y00001142873*
X00143832580Y00001154150*
X00143839895Y00001165987*
X00143846372Y00001178280*
X00143851985Y00001191006*
X00143856684Y00001204087*
X00143860469Y00001217472*
X00143863288Y00001231087*
X00143865168Y00001244854*
X00143866082Y00001258722*
X00143866184Y00001265682*
X00142866694D02*
D01*
X00142867202Y00001251712*
X00142868700Y00001237792*
X00142871164Y00001224000*
X00142874593Y00001210437*
X00142878962Y00001197152*
X00142884220Y00001184173*
X00142890392Y00001171625*
X00142897428Y00001159510*
X00142905276Y00001147927*
X00142913912Y00001136929*
X00142923310Y00001126540*
X00142933394Y00001116863*
X00142944138Y00001107871*
X00142955492Y00001099693*
X00142967379Y00001092301*
X00142979749Y00001085748*
X00142992551Y00001080109*
X00143005708Y00001075334*
X00143019170Y00001071524*
X00143032861Y00001068654*
X00143046729Y00001066723*
X00143060699Y00001065784*
X00143067684Y00001065682*
X00142867583Y00001386687D02*
D01*
X00142867100Y00001400606*
X00142865652Y00001414449*
X00142863239Y00001428165*
X00142859861Y00001441678*
X00142855543Y00001454912*
X00142850336Y00001467840*
X00142844240Y00001480337*
X00142837281Y00001492402*
X00142829483Y00001503959*
X00142820923Y00001514932*
X00142811601Y00001525270*
X00142801568Y00001534947*
X00142790900Y00001543888*
X00142779648Y00001552092*
X00142767837Y00001559458*
X00142755543Y00001565986*
X00142742818Y00001571650*
X00142733496Y00001575181*
X00144000397Y00001574977D02*
D01*
X00143987266Y00001569796*
X00143974540Y00001563674*
X00143962272Y00001556715*
X00143950537Y00001548892*
X00143939361Y00001540281*
X00143928820Y00001530908*
X00143918940Y00001520825*
X00143909796Y00001510080*
X00143901439Y00001498701*
X00143893895Y00001486789*
X00143887190Y00001474393*
X00143881348Y00001461541*
X00143876445Y00001448308*
X00143872458Y00001434769*
X00143869435Y00001420977*
X00143867403Y00001407033*
X00143866311Y00001392961*
X00143866184Y00001386586*
X00141470278Y00003266897D02*
D01*
X00141482902Y00003133420*
X00141504822Y00003001162*
X00141535886Y00002870758*
X00141575967Y00002742844*
X00141624888Y00002618028*
X00141682393Y00002496947*
X00141748230Y00002380157*
X00141822017Y00002268245*
X00141903450Y00002161768*
X00141992096Y00002061210*
X00142087549Y00001967077*
X00142189352Y00001879854*
X00142296972Y00001799920*
X00142409900Y00001727708*
X00142527604Y00001663547*
X00142649498Y00001607743*
X00142733496Y00001575181*
X00144000397D02*
D01*
X00144123740Y00001624228*
X00144243374Y00001681734*
X00144358715Y00001747469*
X00144469180Y00001821078*
X00144574260Y00001902206*
X00144673396Y00001990496*
X00144766157Y00002085466*
X00144852059Y00002186660*
X00144930698Y00002293620*
X00145001665Y00002405786*
X00145064657Y00002522651*
X00145119318Y00002643606*
X00145165419Y00002768092*
X00145202732Y00002895498*
X00145231053Y00003025190*
X00145250281Y00003156534*
X00145259196Y00003266897*
X00145260898Y00003476498D02*
D01*
X00145260009Y00003489934*
X00145258205Y00003503269*
X00145255462Y00003516452*
X00145251830Y00003529406*
X00145247283Y00003542080*
X00145241848Y00003554399*
X00145235599Y00003566312*
X00145228513Y00003577767*
X00145220664Y00003588715*
X00145212054Y00003599053*
X00145202757Y00003608781*
X00145192775Y00003617849*
X00145182209Y00003626180*
X00145171083Y00003633774*
X00145159476Y00003640556*
X00145147385Y00003646525*
X00145134939Y00003651631*
X00145122138Y00003655847*
X00145109107Y00003659174*
X00145095849Y00003661562*
X00145082463Y00003663035*
X00145069026Y00003663569*
X00145062295Y00003663594*
X00141672487Y00003663492D02*
D01*
X00141659000Y00003663467*
X00141645538Y00003662476*
X00141632178Y00003660571*
X00141618995Y00003657727*
X00141606041Y00003653993*
X00141593366Y00003649345*
X00141581047Y00003643833*
X00141569160Y00003637457*
X00141557730Y00003630295*
X00141546834Y00003622344*
X00141536521Y00003613632*
X00141526818Y00003604234*
X00141517827Y00003594201*
X00141509546Y00003583559*
X00141502028Y00003572332*
X00141495297Y00003560648*
X00141489404Y00003548507*
X00141484400Y00003535984*
X00141480260Y00003523132*
X00141477009Y00003510051*
X00141474698Y00003496741*
X00141473326Y00003483330*
X00141472996Y00003476599*
X00144465598Y00003863594D02*
D01*
X00144466106Y00003849598*
X00144467605Y00003835679*
X00144470069Y00003821912*
X00144473498Y00003808349*
X00144477841Y00003795039*
X00144483124Y00003782085*
X00144489297Y00003769512*
X00144496307Y00003757422*
X00144504181Y00003745839*
X00144512817Y00003734816*
X00144522215Y00003724452*
X00144532299Y00003714750*
X00144543043Y00003705783*
X00144554371Y00003697579*
X00144566259Y00003690188*
X00144578654Y00003683660*
X00144591430Y00003677996*
X00144604613Y00003673246*
X00144618075Y00003669411*
X00144631765Y00003666540*
X00144645634Y00003664635*
X00144659578Y00003663696*
X00144666589Y00003663594*
X00142067280D02*
D01*
X00142081351Y00003664127*
X00142095372Y00003665651*
X00142109215Y00003668166*
X00142122880Y00003671620*
X00142136266Y00003676040*
X00142149296Y00003681349*
X00142161920Y00003687572*
X00142174112Y00003694684*
X00142185745Y00003702608*
X00142196820Y00003711321*
X00142207234Y00003720769*
X00142216987Y00003730955*
X00142226004Y00003741775*
X00142234234Y00003753205*
X00142241651Y00003765169*
X00142248204Y00003777640*
X00142253893Y00003790543*
X00142258669Y00003803777*
X00142262479Y00003817340*
X00142265349Y00003831132*
X00142267254Y00003845077*
X00142268194Y00003859149*
X00142268295Y00003863594*
X00144465598Y00004610379D02*
D01*
X00144459502Y00004686909*
X00144448098Y00004762830*
X00144431410Y00004837760*
X00144409541Y00004911344*
X00144382591Y00004983226*
X00144350714Y00005053050*
X00144314037Y00005120462*
X00144272736Y00005185181*
X00144227016Y00005246852*
X00144177105Y00005305171*
X00144123257Y00005359882*
X00144065726Y00005410708*
X00144004792Y00005457393*
X00143940733Y00005499684*
X00143873880Y00005537428*
X00143804563Y00005570423*
X00143733139Y00005598490*
X00143659885Y00005621528*
X00143585234Y00005639384*
X00143509517Y00005651982*
X00143433088Y00005659272*
X00143356355Y00005661228*
X00143279672Y00005657799*
X00143203422Y00005649061*
X00143127933Y00005635015*
X00143053638Y00005615711*
X00142980867Y00005591302*
X00142909975Y00005561863*
X00142841294Y00005527548*
X00142775178Y00005488533*
X00142711957Y00005444998*
X00142651937Y00005397169*
X00142595371Y00005345252*
X00142542590Y00005289524*
X00142493796Y00005230266*
X00142449270Y00005167731*
X00142409214Y00005102250*
X00142373832Y00005034127*
X00142343276Y00004963693*
X00142317724Y00004891303*
X00142297277Y00004817313*
X00142282037Y00004742078*
X00142272080Y00004665980*
X00142267457Y00004589348*
X00142267279Y00004577283*
X00135885097Y00001600987D02*
D01*
X00135897823Y00001648180*
X00135907221Y00001696161*
X00135913241Y00001744649*
X00135915882Y00001793468*
Y00001816582*
X00135885097Y00001600987D02*
D01*
X00135878519Y00001586712*
X00135872982Y00001572031*
X00135868486Y00001556994*
X00135865031Y00001541678*
X00135862669Y00001526159*
X00135861374Y00001510512*
X00135861196Y00001494790*
X00135862110Y00001479118*
X00135864117Y00001463548*
X00135867190Y00001448155*
X00135871331Y00001433017*
X00135876538Y00001418209*
X00135879484Y00001410792*
X00135846185Y00001171676D02*
D01*
X00135855735Y00001181938*
X00135864523Y00001192809*
X00135872550Y00001204290*
X00135879738Y00001216279*
X00135886088Y00001228775*
X00135891549Y00001241653*
X00135896096Y00001254887*
X00135899702Y00001268425*
X00135902369Y00001282166*
X00135904071Y00001296060*
X00135904782Y00001310030*
X00135904528Y00001324025*
X00135903309Y00001337970*
X00135901099Y00001351788*
X00135897950Y00001365427*
X00135893860Y00001378813*
X00135888831Y00001391869*
X00135882913Y00001404543*
X00135879484Y00001410792*
X00135090484Y00000698779D02*
D01*
X00135100720Y00000689229*
X00135111617Y00000680415*
X00135123097Y00000672388*
X00135135086Y00000665175*
X00135147583Y00000658799*
X00135160461Y00000653338*
X00135173720Y00000648766*
X00135187232Y00000645160*
X00135200999Y00000642493*
X00135214893Y00000640765*
X00135228888Y00000640029*
X00135242884Y00000640283*
X00135256854Y00000641502*
X00135270671Y00000643686*
X00135284337Y00000646836*
X00135297722Y00000650951*
X00135310803Y00000655955*
X00135323503Y00000661873*
X00135335746Y00000668680*
X00135347481Y00000676300*
X00135358682Y00000684733*
X00135369249Y00000693928*
X00135374380Y00000698779*
X00134783296Y00001007084D02*
D01*
X00134772755Y00001016736*
X00134761579Y00001025601*
X00134749819Y00001033703*
X00134737525Y00001040942*
X00134724749Y00001047292*
X00134711567Y00001052753*
X00134698028Y00001057275*
X00134684185Y00001060856*
X00134670165Y00001063447*
X00134655966Y00001065072*
X00134641717Y00001065682*
X00134640878*
X00130818077Y00001815592D02*
D01*
X00130819906Y00001763268*
X00130825367Y00001711223*
X00130834460Y00001659661*
X00130847109Y00001608886*
X00130863289Y00001559102*
X00130882872Y00001510563*
X00130905808Y00001463522*
X00130931970Y00001418183*
X00130961257Y00001374800*
X00130993464Y00001333525*
X00131028490Y00001294638*
X00131066133Y00001258265*
X00131106214Y00001224610*
X00131148556Y00001193850*
X00131192955Y00001166114*
X00131239158Y00001141526*
X00131286986Y00001120241*
X00131336161Y00001102309*
X00131386478Y00001087882*
X00131437659Y00001076985*
X00131489500Y00001069695*
X00131541723Y00001066038*
X00131567885Y00001065479*
X00130876497Y00005147691D02*
D01*
X00130866718Y00005137073*
X00130857701Y00005125796*
X00130849497Y00005113909*
X00130842131Y00005101488*
X00130835679Y00005088585*
X00130830116Y00005075250*
X00130825494Y00005061585*
X00130821861Y00005047615*
X00130819194Y00005033416*
X00130817518Y00005019065*
X00130816985Y00005006289*
X00135916898Y00004289983D02*
D01*
X00135915019Y00004342333*
X00135909507Y00004394428*
X00135900388Y00004445990*
X00135887688Y00004496816*
X00135871458Y00004546600*
X00135851798Y00004595164*
X00135828811Y00004642231*
X00135802598Y00004687570*
X00135773287Y00004730953*
X00135741003Y00004772228*
X00135705926Y00004811115*
X00135668232Y00004847488*
X00135628075Y00004881118*
X00135585682Y00004911877*
X00135541258Y00004939614*
X00135494979Y00004964150*
X00135447125Y00004985435*
X00135397900Y00005003317*
X00135347532Y00005017719*
X00135296300Y00005028565*
X00135244433Y00005035829*
X00135192185Y00005039436*
X00135165998Y00005039893*
X00134187183Y00005561279D02*
D01*
X00134160767Y00005586120*
X00134132650Y00005609031*
X00134103033Y00005629935*
X00134072020Y00005648731*
X00134039762Y00005665317*
X00134006437Y00005679617*
X00133972198Y00005691530*
X00133937222Y00005701055*
X00133901637Y00005708116*
X00133865670Y00005712663*
X00133829450Y00005714695*
X00133816699Y00005714796*
X00131643399Y00005631688D02*
D01*
X00131633137Y00005641238*
X00131622266Y00005650052*
X00131610785Y00005658078*
X00131598771Y00005665292*
X00131586300Y00005671667*
X00131573397Y00005677128*
X00131560163Y00005681700*
X00131546625Y00005685332*
X00131532884Y00005687999*
X00131518964Y00005689701*
X00131504994Y00005690438*
X00131490974Y00005690184*
X00131477029Y00005688965*
X00131463186Y00005686780*
X00131449546Y00005683631*
X00131436160Y00005679541*
X00131423079Y00005674512*
X00131410379Y00005668594*
X00131398137Y00005661812*
X00131386376Y00005654167*
X00131375200Y00005645734*
X00131364634Y00005636564*
X00131359478Y00005631688*
X00132917184Y00005714796D02*
D01*
X00132880963Y00005713653*
X00132844895Y00005710021*
X00132809183Y00005703849*
X00132773978Y00005695213*
X00132739460Y00005684164*
X00132705805Y00005670702*
X00132673166Y00005654929*
X00132641695Y00005636945*
X00132611571Y00005616778*
X00132582920Y00005594578*
X00132555894Y00005570423*
X00132546699Y00005561279*
X00131987798Y00005286298D02*
D01*
X00131998008Y00005276748*
X00132008880Y00005267934*
X00132020335Y00005259933*
X00132032324Y00005252720*
X00132044795Y00005246370*
X00132057673Y00005240909*
X00132070906Y00005236337*
X00132084419Y00005232730*
X00132098135Y00005230063*
X00132112029Y00005228361*
X00132125999Y00005227624*
X00132139969Y00005227878*
X00132153914Y00005229098*
X00132167731Y00005231282*
X00132181346Y00005234432*
X00132194731Y00005238521*
X00132207787Y00005243525*
X00132220462Y00005249443*
X00132232704Y00005256225*
X00132244439Y00005263845*
X00132255590Y00005272252*
X00132266156Y00005281422*
X00132271084Y00005286298*
X00123413697Y00005515279D02*
D01*
X00123386443Y00005540095*
X00123357538Y00005562955*
X00123327109Y00005583732*
X00123295283Y00005602351*
X00123262263Y00005618683*
X00123228176Y00005632678*
X00123193175Y00005644261*
X00123157488Y00005653379*
X00123121216Y00005659983*
X00123084590Y00005664047*
X00123047785Y00005665546*
X00123042197Y00005665495*
X00122133182Y00005665698D02*
D01*
X00122096580Y00005664606*
X00122060157Y00005660948*
X00122024089Y00005654776*
X00121988503Y00005646115*
X00121953629Y00005634990*
X00121919619Y00005621451*
X00121886624Y00005605551*
X00121854823Y00005587415*
X00121824369Y00005567095*
X00121795413Y00005544718*
X00121768082Y00005520359*
X00121762697Y00005515178*
X00121151777Y00004999075D02*
D01*
X00121165747Y00004999507*
X00121179640Y00005000904*
X00121193382Y00005003241*
X00121206945Y00005006568*
X00121220255Y00005010810*
X00121233209Y00005015966*
X00121245807Y00005022037*
X00121257923Y00005028946*
X00121269531Y00005036693*
X00121280580Y00005045227*
X00121290994Y00005054523*
X00121292594Y00005055997*
X00123882886D02*
D01*
X00123893554Y00005046446*
X00123904883Y00005037683*
X00123916770Y00005029733*
X00123929190Y00005022646*
X00123942094Y00005016423*
X00123955378Y00005011115*
X00123969018Y00005006746*
X00123982911Y00005003342*
X00123997008Y00005000929*
X00124011258Y00004999482*
X00124023577Y00004999075*
X00120767678D02*
D01*
X00120715405Y00004997602*
X00120663335Y00004992497*
X00120611747Y00004983759*
X00120560896Y00004971440*
X00120511036Y00004955590*
X00120462395Y00004936312*
X00120415227Y00004913706*
X00120369761Y00004887849*
X00120326175Y00004858893*
X00120284748Y00004826939*
X00120245632Y00004792218*
X00120209056Y00004754803*
X00120175147Y00004714976*
X00120144108Y00004672838*
X00120116092Y00004628667*
X00120091225Y00004582642*
X00120069635Y00004534992*
X00120051423Y00004485944*
X00120036666Y00004435754*
X00120025439Y00004384649*
X00120017819Y00004332909*
X00120013806Y00004280738*
X00120013196Y00004254576*
X00125162284D02*
D01*
X00125160100Y00004306874*
X00125154258Y00004358868*
X00125144809Y00004410354*
X00125131779Y00004461027*
X00125115269Y00004510684*
X00125095304Y00004559071*
X00125072038Y00004605934*
X00125045571Y00004651070*
X00125015980Y00004694250*
X00124983494Y00004735245*
X00124948188Y00004773879*
X00124910291Y00004809972*
X00124869981Y00004843322*
X00124827411Y00004873777*
X00124782859Y00004901184*
X00124736479Y00004925441*
X00124688523Y00004946370*
X00124639222Y00004963922*
X00124588803Y00004977993*
X00124537546Y00004988509*
X00124485679Y00004995443*
X00124433457Y00004998720*
X00124407295Y00004999075*
X00124409682Y00001065682D02*
D01*
X00124461905Y00001067231*
X00124513898Y00001072413*
X00124565410Y00001081201*
X00124616159Y00001093546*
X00124665943Y00001109421*
X00124714482Y00001128725*
X00124761574Y00001151382*
X00124806964Y00001177239*
X00124850423Y00001206220*
X00124891774Y00001238173*
X00124930789Y00001272921*
X00124967288Y00001310284*
X00125001096Y00001350137*
X00125032033Y00001392224*
X00125059948Y00001436395*
X00125084738Y00001482369*
X00125106252Y00001529994*
X00125124387Y00001578991*
X00125139069Y00001629130*
X00125150194Y00001680184*
X00125157763Y00001731873*
X00125161700Y00001783969*
X00125162284Y00001810181*
X00120012688D02*
D01*
X00120014746Y00001758010*
X00120020461Y00001706118*
X00120029757Y00001654733*
X00120042635Y00001604137*
X00120058992Y00001554556*
X00120078779Y00001506245*
X00120101893Y00001459433*
X00120128207Y00001414348*
X00120157595Y00001371193*
X00120189929Y00001330198*
X00120225058Y00001291564*
X00120262777Y00001255471*
X00120302934Y00001222095*
X00120345301Y00001191615*
X00120389726Y00001164158*
X00120435928Y00001139850*
X00120483731Y00001118844*
X00120532880Y00001101217*
X00120583121Y00001087069*
X00120634252Y00001076452*
X00120685991Y00001069416*
X00120738087Y00001066012*
X00120764198Y00001065682*
X00016475989Y00004834077D02*
D01*
X00016227831Y00005000574*
X00015968675Y00005149342*
X00015699765Y00005279694*
X00015422422Y00005390946*
X00015137993Y00005482590*
X00014847874Y00005554167*
X00014553463Y00005605322*
X00014256181Y00005635828*
X00013957528Y00005645531*
X00013658900Y00005634355*
X00013361797Y00005602376*
X00013067639Y00005549773*
X00012777876Y00005476773*
X00012493904Y00005383707*
X00012217095Y00005271084*
X00011948845Y00005139436*
X00011690426Y00004989372*
X00011460276Y00004834077*
X00016572382Y00004114876D02*
D01*
X00016593362Y00004142587*
X00016612362Y00004171670*
X00016629303Y00004202023*
X00016644061Y00004233494*
X00016656608Y00004265904*
X00016666844Y00004299102*
X00016674744Y00004332935*
X00016680281Y00004367250*
X00016683380Y00004401845*
X00016684091Y00004436592*
X00016682364Y00004471314*
X00016678198Y00004505807*
X00016671670Y00004539945*
X00016662755Y00004573524*
X00016651528Y00004606417*
X00016638041Y00004638421*
X00016622344Y00004669434*
X00016604513Y00004699254*
X00016584650Y00004727778*
X00016562857Y00004754854*
X00016539235Y00004780330*
X00016513860Y00004804079*
X00016486911Y00004826025*
X00016475989Y00004834077*
X00011471376Y00004841875D02*
D01*
X00011443258Y00004821199*
X00011416665Y00004798568*
X00011391696Y00004774158*
X00011368481Y00004748072*
X00011347145Y00004720437*
X00011327815Y00004691354*
X00011310543Y00004661001*
X00011295430Y00004629531*
X00011282553Y00004597069*
X00011271961Y00004563795*
X00011263731Y00004529861*
X00011257864Y00004495444*
X00011254435Y00004460697*
X00011253444Y00004425797*
X00011254867Y00004390898*
X00011258727Y00004356201*
X00011265001Y00004321860*
X00011273663Y00004288028*
X00011284661Y00004254881*
X00011297945Y00004222597*
X00011313439Y00004191304*
X00011331092Y00004161180*
X00011350802Y00004132351*
X00011364087Y00004114876*
X00013578586Y00001367790D02*
D01*
X00013601420Y00001341399*
X00013626058Y00001316685*
X00013652347Y00001293723*
X00013680186Y00001272667*
X00013709421Y00001253591*
X00013739901Y00001236624*
X00013771499Y00001221816*
X00013804061Y00001209243*
X00013837412Y00001198981*
X00013871422Y00001191056*
X00013905865Y00001185519*
X00013940637Y00001182420*
X00013975537Y00001181735*
X00014010386Y00001183487*
X00014045031Y00001187678*
X00014079296Y00001194282*
X00014113027Y00001203248*
X00014146047Y00001214526*
X00014178203Y00001228115*
X00014209344Y00001243888*
X00014239290Y00001261795*
X00014267916Y00001281760*
X00014295069Y00001303680*
X00014320647Y00001327429*
X00014344497Y00001352905*
X00014356994Y00001367790*
X00024978487D02*
D01*
X00025006579Y00001341577*
X00025036449Y00001317396*
X00025067920Y00001295374*
X00025100838Y00001275588*
X00025135078Y00001258138*
X00025170434Y00001243126*
X00025206756Y00001230630*
X00025243866Y00001220673*
X00025281585Y00001213358*
X00025319710Y00001208659*
X00025358090Y00001206652*
X00025396494Y00001207338*
X00025434772Y00001210665*
X00025472720Y00001216685*
X00025510134Y00001225321*
X00025546888Y00001236573*
X00025582753Y00001250340*
X00025617576Y00001266571*
X00025651180Y00001285189*
X00025683387Y00001306118*
X00025714071Y00001329232*
X00025743077Y00001354429*
X00025756895Y00001367790*
X00022857993Y00005568899D02*
D01*
X00022848468Y00005558663*
X00022839680Y00005547817*
X00022831679Y00005536387*
X00022824490Y00005524398*
X00022818166Y00005511952*
X00022812705Y00005499100*
X00022808158Y00005485917*
X00022804551Y00005472430*
X00022801910Y00005458714*
X00022800208Y00005444845*
X00022799471Y00005430901*
X00022799725Y00005416956*
X00022800945Y00005403037*
X00022803129Y00005389245*
X00022806279Y00005375656*
X00022810368Y00005362295*
X00022815372Y00005349265*
X00022821290Y00005336616*
X00022828046Y00005324398*
X00022835666Y00005312689*
X00022844074Y00005301538*
X00022853243Y00005290997*
X00022858095Y00005285994*
X00022956088Y00004904994D02*
D01*
X00022965613Y00004915230*
X00022974401Y00004926101*
X00022982402Y00004937582*
X00022989590Y00004949571*
X00022995915Y00004962042*
X00023001376Y00004974945*
X00023005897Y00004988179*
X00023009504Y00005001691*
X00023012146Y00005015407*
X00023013847Y00005029301*
X00023014559Y00005043271*
X00023014279Y00005057267*
X00023013060Y00005071186*
X00023010850Y00005085003*
X00023007675Y00005098618*
X00023003560Y00005112004*
X00022998531Y00005125059*
X00022992613Y00005137708*
X00022985806Y00005149951*
X00022978186Y00005161661*
X00022969753Y00005172811*
X00022960558Y00005183352*
X00022955580Y00005188483*
X00022843286Y00004821783D02*
D01*
X00022816642Y00004798923*
X00022791648Y00004774285*
X00022768433Y00004747945*
X00022747122Y00004720031*
X00022727793Y00004690719*
X00022710571Y00004660138*
X00022695535Y00004628413*
X00022682733Y00004595723*
X00022672243Y00004562221*
X00022664115Y00004528083*
X00022658374Y00004493437*
X00022655098Y00004458487*
X00022654234Y00004423384*
X00022655834Y00004388307*
X00022659898Y00004353433*
X00022666350Y00004318939*
X00022675215Y00004284954*
X00022686416Y00004251706*
X00022699929Y00004219295*
X00022715651Y00004187901*
X00022733533Y00004157675*
X00022753472Y00004128795*
X00022764089Y00004114876*
X00027973299D02*
D01*
X00027993975Y00004144111*
X00028012593Y00004174718*
X00028029001Y00004206544*
X00028043174Y00004239437*
X00028055011Y00004273245*
X00028064460Y00004307789*
X00028071470Y00004342917*
X00028076017Y00004378452*
X00028078074Y00004414189*
X00028077617Y00004450003*
X00028074696Y00004485716*
X00028069260Y00004521098*
X00028061386Y00004556048*
X00028051099Y00004590338*
X00028038425Y00004623841*
X00028023464Y00004656378*
X00028006268Y00004687798*
X00027986913Y00004717923*
X00027965501Y00004746650*
X00027942159Y00004773803*
X00027916962Y00004799253*
X00027890038Y00004822875*
X00027875992Y00004834077*
X00026806093Y00001339189D02*
D01*
X00026816304Y00001329664*
X00026827149Y00001320876*
X00026838579Y00001312875*
X00026850543Y00001305687*
X00026862963Y00001299362*
X00026875816Y00001293901*
X00026889024Y00001289354*
X00026902511Y00001285748*
X00026916202Y00001283081*
X00026930070Y00001281379*
X00026943989Y00001280642*
X00026957959Y00001280896*
X00026971853Y00001282115*
X00026985645Y00001284300*
X00026999234Y00001287424*
X00027012595Y00001291513*
X00027025625Y00001296517*
X00027038274Y00001302410*
X00027050492Y00001309192*
X00027062176Y00001316786*
X00027073326Y00001325194*
X00027083867Y00001334338*
X00027088896Y00001339189*
X00023853089Y00005488584D02*
D01*
X00023858753Y00005479999*
X00023865001Y00005471820*
X00023871834Y00005464124*
X00023879149Y00005456885*
X00023886972Y00005450205*
X00023895253Y00005444058*
X00023903914Y00005438521*
X00023912957Y00005433618*
X00023922304Y00005429326*
X00023931956Y00005425719*
X00023941811Y00005422773*
X00023951869Y00005420537*
X00023962029Y00005419013*
X00023972291Y00005418201*
X00023982578Y00005418099*
X00023992865Y00005418709*
X00024003050Y00005420029*
X00024013160Y00005422087*
X00024023066Y00005424830*
X00024032768Y00005428234*
X00024042217Y00005432348*
X00024051361Y00005437073*
X00024055781Y00005439587*
X00027404593Y00001654886D02*
D01*
X00027414067Y00001665122*
X00027422805Y00001676019*
X00027430780Y00001687474*
X00027437918Y00001699463*
X00027444217Y00001711909*
X00027449627Y00001724787*
X00027454123Y00001737995*
X00027457679Y00001751482*
X00027460295Y00001765198*
X00027461946Y00001779066*
X00027462632Y00001793011*
X00027462353Y00001806956*
X00027461083Y00001820849*
X00027458847Y00001834642*
X00027455672Y00001848231*
X00027451532Y00001861566*
X00027446478Y00001874570*
X00027440534Y00001887194*
X00027433727Y00001899386*
X00027426081Y00001911070*
X00027417649Y00001922170*
X00027408454Y00001932686*
X00027403577Y00001937791*
X00023456798Y00005884875D02*
D01*
X00023446613Y00005894374*
X00023435818Y00005903137*
X00023424413Y00005911113*
X00023412500Y00005918276*
X00023400105Y00005924575*
X00023387304Y00005930011*
X00023374146Y00005934532*
X00023360710Y00005938139*
X00023347070Y00005940806*
X00023333252Y00005942482*
X00023319359Y00005943219*
X00023305465Y00005942965*
X00023291596Y00005941771*
X00023277855Y00005939586*
X00023264317Y00005936462*
X00023251007Y00005932398*
X00023238028Y00005927420*
X00023225429Y00005921527*
X00023213263Y00005914796*
X00023201604Y00005907201*
X00023190479Y00005898845*
X00023179989Y00005889726*
X00023174985Y00005884875*
X00026859280Y00002734792D02*
D01*
X00026850822Y00002724683*
X00026843075Y00002713990*
X00026836090Y00002702788*
X00026829893Y00002691130*
X00026824533Y00002679065*
X00026820037Y00002666669*
X00026816405Y00002653995*
X00026813662Y00002641066*
X00026811833Y00002628011*
X00026810944Y00002614828*
Y00002601645*
X00026811884Y00002588488*
X00026813713Y00002575407*
X00026816481Y00002562504*
X00026820114Y00002549829*
X00026824635Y00002537434*
X00026830020Y00002525369*
X00026836217Y00002513736*
X00026843228Y00002502535*
X00026851000Y00002491867*
X00026859484Y00002481757*
X00026868653Y00002472283*
X00026873581Y00002467787*
X00027875992Y00004834077D02*
D01*
X00027619680Y00005001590*
X00027352294Y00005150815*
X00027075155Y00005281041*
X00026789608Y00005391581*
X00026497051Y00005481955*
X00026198906Y00005551703*
X00025896620Y00005600471*
X00025591668Y00005628055*
X00025285522Y00005634278*
X00024979706Y00005619140*
X00024675693Y00005582716*
X00024374957Y00005525160*
X00024078946Y00005446750*
X00024055781Y00005439587*
X00026370280Y00001774698D02*
D01*
X00026359027Y00001784121*
X00026347140Y00001792732*
X00026334669Y00001800504*
X00026321715Y00001807387*
X00026308278Y00001813331*
X00026294486Y00001818335*
X00026280364Y00001822373*
X00026265987Y00001825421*
X00026251458Y00001827428*
X00026236803Y00001828444*
X00026222121*
X00026207466Y00001827403*
X00026192937Y00001825320*
X00026178560Y00001822272*
X00026164463Y00001818208*
X00026150671Y00001813153*
X00026137260Y00001807184*
X00026124306Y00001800275*
X00026111860Y00001792478*
X00026099973Y00001783816*
X00026088746Y00001774367*
X00026078180Y00001764157*
X00026073277Y00001758797*
X00000249986Y00006599986D02*
X00204749984D01*
X00000249986Y00000000000D02*
X00204747393D01*
X00000000000Y00000249986D02*
Y00006350000D01*
X00204999996Y00000252577D02*
Y00006350000D01*
X00187366884Y00001065682D02*
X00192032483D01*
X00192999182Y00002032279D02*
X00193000198Y00002198979D01*
X00193200197Y00002398979D02*
X00193465881D01*
X00193665881Y00002598978D02*
X00193666897Y00004132275D01*
X00193200197Y00004332274D02*
X00193465881D01*
X00193000198Y00004532376D02*
Y00004699000D01*
X00187366884Y00005665698D02*
X00192032483D01*
X00186399297Y00004699000D02*
Y00002032279D01*
X00173599398Y00004699000D02*
Y00002032279D01*
X00174566986Y00005665698D02*
X00179232687D01*
X00180200300Y00004532376D02*
Y00004699000D01*
X00180400299Y00004332274D02*
X00180665983D01*
X00180865983Y00002598978D02*
X00180866999Y00004132275D01*
X00180400299Y00002398979D02*
X00180665983D01*
X00180199284Y00002032279D02*
X00180200300Y00002198979D01*
X00174566986Y00001065682D02*
X00179232687D01*
X00151451894Y00005585790D02*
X00151805995Y00005230799D01*
X00150745190Y00005161889D02*
X00151169090Y00005585790D01*
X00150745190Y00004878984D02*
X00151618188Y00004004995D01*
X00151268988Y00003663594D02*
X00151476786D01*
X00154062099Y00004610379D02*
X00154063090Y00003863594D01*
X00154262988Y00003663594D02*
X00154658999D01*
X00154715997Y00002320696D02*
X00155188488Y00001848180D01*
X00154764587Y00001141399D02*
X00155188488Y00001565275D01*
X00154010588Y00001613484D02*
X00154482800Y00001141399D01*
X00153595781Y00001575181D02*
X00153781683Y00001652397D01*
X00152463093Y00001265682D02*
Y00001386687D01*
X00153463675Y00001265682D02*
Y00001386586D01*
X00152664083Y00001065682D02*
X00153262685D01*
X00145259196Y00003266897D02*
X00145261888Y00003476498D01*
X00141470278Y00003266897D02*
X00141472996Y00003476498D01*
Y00003476599*
X00142867583Y00001265682D02*
Y00001386687D01*
X00143866184Y00001265682D02*
Y00001386586D01*
X00143067684Y00001065682D02*
X00143666184D01*
X00142268295Y00003863594D02*
Y00004577283D01*
X00144465598Y00004610379D02*
X00144466589Y00003863594D01*
X00144666589Y00003663594D02*
X00145061279D01*
X00141672487Y00003663492D02*
X00142067280Y00003663594D01*
X00135915882Y00001816582D02*
X00135916898Y00004289983D01*
X00135374380Y00000698779D02*
X00135846185Y00001171676D01*
X00134783296Y00001007084D02*
X00135090484Y00000698779D01*
X00131567885Y00001065479D02*
X00134640878Y00001065682D01*
X00130816985Y00005006289D02*
X00130818077Y00001815592D01*
X00130876497Y00005147691D02*
X00131359478Y00005631688D01*
X00131643399D02*
X00131987798Y00005286298D01*
X00132270500Y00005285181D02*
X00132546699Y00005561279D01*
X00134709585Y00005039893D02*
X00135165998D01*
X00134187183Y00005561279D02*
X00134709585Y00005039893D01*
X00132917184Y00005714796D02*
X00133816699D01*
X00123413697Y00005515279D02*
X00123882886Y00005055997D01*
X00121292594D02*
X00121762697Y00005515178D01*
X00122133182Y00005665698D02*
X00123042197Y00005665495D01*
X00124023577Y00004999075D02*
X00124407295D01*
X00120768186D02*
X00121151777D01*
X00120012180Y00001810181D02*
X00120013196Y00004254576D01*
X00125162284Y00001810181D02*
Y00004254576D01*
X00120764198Y00001065682D02*
X00124409682D01*
X00014356994Y00001367790D02*
X00016572382Y00004114876D01*
X00011364087D02*
X00013578586Y00001367790D01*
X00023457789Y00005884875D02*
X00023854079Y00005488584D01*
X00022858984Y00005568899D02*
X00023174985Y00005884875D01*
X00026369289Y00001774698D02*
X00026805077Y00001339189D01*
X00022859085Y00005285994D02*
X00022956596Y00005188483D01*
X00026860296Y00002734792D02*
X00027973299Y00004114876D01*
X00025756895Y00001367790D02*
X00026072287Y00001758797D01*
X00022764089Y00004114876D02*
X00024979477Y00001367790D01*
X00027088896Y00001339189D02*
X00027404593Y00001654886D01*
X00026874597Y00002467787D02*
X00027404593Y00001937791D01*
X00022843286Y00004821783D02*
X00022956088Y00004904994D01*
M02*