%FSDAX56Y56*%
%MOMM*%
%SFA1B1*%

%IPPOS*%
%ADD11C,0.150000*%
%ADD12C,0.399999*%
%ADD13C,0.599999*%
%ADD14R,1.699997X3.599993*%
%LNwcam-touch-fpc-r01_copper_signal_bot-1*%
%LPD*%
G54D11*
X00158324981Y00004999990D02*
D01*
X00158323584Y00005040096*
X00158319393Y00005080000*
X00158312434Y00005119547*
X00158302706Y00005158486*
X00158290310Y00005196636*
X00158275274Y00005233873*
X00158257671Y00005269941*
X00158237605Y00005304688*
X00158215177Y00005337962*
X00158190463Y00005369585*
X00158163615Y00005399405*
X00158134735Y00005427294*
X00158104001Y00005453100*
X00158071515Y00005476671*
X00158037479Y00005497957*
X00158002046Y00005516803*
X00157965394Y00005533110*
X00157927675Y00005546852*
X00157889092Y00005557901*
X00157849824Y00005566257*
X00157810098Y00005571845*
X00157770042Y00005574639*
X00157729910*
X00157689880Y00005571845*
X00157650129Y00005566257*
X00157610886Y00005557901*
X00157572303Y00005546852*
X00157534584Y00005533110*
X00157497932Y00005516803*
X00157462499Y00005497957*
X00157428463Y00005476671*
X00157395976Y00005453100*
X00157365242Y00005427294*
X00157336363Y00005399405*
X00157309515Y00005369585*
X00157284801Y00005337962*
X00157262347Y00005304688*
X00157242281Y00005269941*
X00157224704Y00005233873*
X00157209667Y00005196636*
X00157197272Y00005158486*
X00157187544Y00005119547*
X00157180584Y00005080000*
X00157176393Y00005040096*
X00157174996Y00004999990*
X00157176393Y00004959883*
X00157180584Y00004919954*
X00157187544Y00004880432*
X00157197272Y00004841494*
X00157209667Y00004803317*
X00157224704Y00004766106*
X00157242281Y00004730038*
X00157262347Y00004695291*
X00157274996Y00004675987*
X00158224982D02*
D01*
X00158246419Y00004709922*
X00158265444Y00004745253*
X00158281979Y00004781829*
X00158295898Y00004819472*
X00158307151Y00004857978*
X00158315710Y00004897196*
X00158321502Y00004936921*
X00158324499Y00004976926*
X00158324981Y00004999990*
X00148724975Y00004949977D02*
D01*
X00148723578Y00004990109*
X00148719387Y00005030012*
X00148712428Y00005069535*
X00148702725Y00005108473*
X00148690304Y00005146649*
X00148675267Y00005183860*
X00148657691Y00005219928*
X00148637625Y00005254701*
X00148615171Y00005287975*
X00148590457Y00005319598*
X00148563609Y00005349417*
X00148534729Y00005377307*
X00148503995Y00005403088*
X00148471534Y00005426684*
X00148437498Y00005447944*
X00148402040Y00005466791*
X00148365387Y00005483123*
X00148327668Y00005496839*
X00148289086Y00005507913*
X00148249843Y00005516245*
X00148210092Y00005521833*
X00148170061Y00005524627*
X00148129929*
X00148089874Y00005521833*
X00148050148Y00005516245*
X00148010880Y00005507913*
X00147972297Y00005496839*
X00147934578Y00005483123*
X00147897926Y00005466791*
X00147862493Y00005447944*
X00147828457Y00005426684*
X00147795970Y00005403088*
X00147765236Y00005377307*
X00147736356Y00005349417*
X00147709509Y00005319598*
X00147684794Y00005287975*
X00147662366Y00005254701*
X00147642300Y00005219928*
X00147624698Y00005183860*
X00147609661Y00005146649*
X00147597266Y00005108473*
X00147587563Y00005069535*
X00147580578Y00005030012*
X00147576387Y00004990109*
X00147574990Y00004949977*
X00147576387Y00004909870*
X00147580578Y00004869967*
X00147587563Y00004830445*
X00147597266Y00004791506*
X00147609661Y00004753330*
X00147624698Y00004716119*
X00147642300Y00004680051*
X00147662366Y00004645279*
X00147674990Y00004625975*
X00148624975D02*
D01*
X00148646438Y00004659909*
X00148665463Y00004695240*
X00148681973Y00004731816*
X00148695892Y00004769459*
X00148707144Y00004807991*
X00148715704Y00004847209*
X00148721495Y00004886909*
X00148724493Y00004926939*
X00148724975Y00004949977*
X00138724995Y00004999990D02*
D01*
X00138723598Y00005040096*
X00138719382Y00005080000*
X00138712422Y00005119547*
X00138702719Y00005158486*
X00138690299Y00005196636*
X00138675287Y00005233873*
X00138657685Y00005269941*
X00138637619Y00005304688*
X00138615166Y00005337962*
X00138590451Y00005369585*
X00138563604Y00005399405*
X00138534749Y00005427294*
X00138503990Y00005453100*
X00138471529Y00005476671*
X00138437493Y00005497957*
X00138402060Y00005516803*
X00138365382Y00005533110*
X00138327663Y00005546852*
X00138289080Y00005557901*
X00138249837Y00005566257*
X00138210086Y00005571845*
X00138170056Y00005574639*
X00138129924*
X00138089894Y00005571845*
X00138050143Y00005566257*
X00138010874Y00005557901*
X00137972292Y00005546852*
X00137934598Y00005533110*
X00137897920Y00005516803*
X00137862487Y00005497957*
X00137828451Y00005476671*
X00137795990Y00005453100*
X00137765231Y00005427294*
X00137736376Y00005399405*
X00137709503Y00005369585*
X00137684814Y00005337962*
X00137662361Y00005304688*
X00137642295Y00005269941*
X00137624693Y00005233873*
X00137609656Y00005196636*
X00137597261Y00005158486*
X00137587558Y00005119547*
X00137580573Y00005080000*
X00137576382Y00005040096*
X00137574985Y00004999990*
X00137576382Y00004959883*
X00137580573Y00004919954*
X00137587558Y00004880432*
X00137597261Y00004841494*
X00137609656Y00004803317*
X00137624693Y00004766106*
X00137642295Y00004730038*
X00137662361Y00004695291*
X00137674985Y00004675987*
X00138624995D02*
D01*
X00138646433Y00004709922*
X00138665458Y00004745253*
X00138681968Y00004781829*
X00138695887Y00004819472*
X00138707164Y00004857978*
X00138715699Y00004897196*
X00138721490Y00004936921*
X00138724513Y00004976926*
X00138724995Y00004999990*
X00127874979Y00004725974D02*
D01*
X00127896442Y00004759909*
X00127915466Y00004795240*
X00127931976Y00004831816*
X00127945896Y00004869459*
X00127957148Y00004907991*
X00127965708Y00004947208*
X00127971499Y00004986909*
X00127974496Y00005026939*
X00127974979Y00005049977*
D01*
X00127973582Y00005090109*
X00127969391Y00005130012*
X00127962431Y00005169535*
X00127952703Y00005208473*
X00127940308Y00005246649*
X00127925271Y00005283860*
X00127907694Y00005319928*
X00127887603Y00005354701*
X00127865174Y00005387975*
X00127840460Y00005419598*
X00127813612Y00005449417*
X00127784733Y00005477306*
X00127753999Y00005503087*
X00127721512Y00005526684*
X00127687476Y00005547944*
X00127652043Y00005566791*
X00127615391Y00005583123*
X00127577672Y00005596839*
X00127539089Y00005607913*
X00127499846Y00005616244*
X00127460095Y00005621832*
X00127420065Y00005624626*
X00127379907*
X00127339877Y00005621832*
X00127300151Y00005616244*
X00127260883Y00005607913*
X00127222300Y00005596839*
X00127184581Y00005583123*
X00127147929Y00005566791*
X00127112496Y00005547944*
X00127078460Y00005526684*
X00127045974Y00005503087*
X00127015240Y00005477306*
X00126986360Y00005449417*
X00126959512Y00005419598*
X00126934798Y00005387975*
X00126912370Y00005354701*
X00126892304Y00005319928*
X00126874701Y00005283860*
X00126859665Y00005246649*
X00126847269Y00005208473*
X00126837541Y00005169535*
X00126830582Y00005130012*
X00126826391Y00005090109*
X00126824994Y00005049977*
X00126826391Y00005009870*
X00126830582Y00004969967*
X00126837541Y00004930444*
X00126847269Y00004891506*
X00126859665Y00004853330*
X00126874701Y00004816119*
X00126892304Y00004780051*
X00126912370Y00004745278*
X00126924993Y00004725974*
X00030724983Y00004999990D02*
D01*
X00030723586Y00005040096*
X00030719395Y00005080000*
X00030712410Y00005119547*
X00030702707Y00005158486*
X00030690312Y00005196636*
X00030675275Y00005233873*
X00030657673Y00005269941*
X00030637607Y00005304688*
X00030615178Y00005337962*
X00030590464Y00005369585*
X00030563616Y00005399405*
X00030534737Y00005427294*
X00030504003Y00005453100*
X00030471516Y00005476671*
X00030437480Y00005497957*
X00030402047Y00005516803*
X00030365395Y00005533110*
X00030327676Y00005546852*
X00030289093Y00005557901*
X00030249825Y00005566257*
X00030210099Y00005571845*
X00030170043Y00005574639*
X00030129911*
X00030089881Y00005571845*
X00030050130Y00005566257*
X00030010887Y00005557901*
X00029972304Y00005546852*
X00029934585Y00005533110*
X00029897933Y00005516803*
X00029862475Y00005497957*
X00029828439Y00005476671*
X00029795978Y00005453100*
X00029765244Y00005427294*
X00029736364Y00005399405*
X00029709516Y00005369585*
X00029684802Y00005337962*
X00029662348Y00005304688*
X00029642282Y00005269941*
X00029624705Y00005233873*
X00029609669Y00005196636*
X00029597273Y00005158486*
X00029587545Y00005119547*
X00029580586Y00005080000*
X00029576395Y00005040096*
X00029574998Y00004999990*
X00029576395Y00004959883*
X00029580586Y00004919954*
X00029587545Y00004880432*
X00029597273Y00004841494*
X00029609669Y00004803317*
X00029624705Y00004766106*
X00029642282Y00004730038*
X00029662348Y00004695291*
X00029674997Y00004675987*
X00019324980Y00004999990D02*
D01*
X00019323583Y00005040096*
X00019319392Y00005080000*
X00019312432Y00005119547*
X00019302704Y00005158486*
X00019290309Y00005196636*
X00019275272Y00005233873*
X00019257670Y00005269941*
X00019237604Y00005304688*
X00019215176Y00005337962*
X00019190462Y00005369585*
X00019163614Y00005399405*
X00019134734Y00005427294*
X00019104000Y00005453100*
X00019071513Y00005476671*
X00019037477Y00005497957*
X00019002044Y00005516803*
X00018965392Y00005533110*
X00018927673Y00005546852*
X00018889091Y00005557901*
X00018849822Y00005566257*
X00018810097Y00005571845*
X00018770066Y00005574639*
X00018729909*
X00018689878Y00005571845*
X00018650127Y00005566257*
X00018610884Y00005557901*
X00018572302Y00005546852*
X00018534583Y00005533110*
X00018497931Y00005516803*
X00018462498Y00005497957*
X00018428462Y00005476671*
X00018395975Y00005453100*
X00018365241Y00005427294*
X00018336361Y00005399405*
X00018309513Y00005369585*
X00018284799Y00005337962*
X00018262371Y00005304688*
X00018242280Y00005269941*
X00018224703Y00005233873*
X00018209666Y00005196636*
X00018197271Y00005158486*
X00018187543Y00005119547*
X00018180583Y00005080000*
X00018176392Y00005040096*
X00018174995Y00004999990*
X00018176392Y00004959883*
X00018180583Y00004919954*
X00018187543Y00004880432*
X00018197271Y00004841494*
X00018209666Y00004803317*
X00018224703Y00004766106*
X00018242280Y00004730038*
X00018262371Y00004695291*
X00018274995Y00004675987*
X00030624983D02*
D01*
X00030646420Y00004709922*
X00030665445Y00004745253*
X00030681980Y00004781829*
X00030695900Y00004819472*
X00030707152Y00004857978*
X00030715712Y00004897196*
X00030721503Y00004936921*
X00030724500Y00004976926*
X00030724983Y00004999990*
X00019224980Y00004675987D02*
D01*
X00019246443Y00004709922*
X00019265468Y00004745253*
X00019281978Y00004781829*
X00019295897Y00004819472*
X00019307149Y00004857978*
X00019315709Y00004897196*
X00019321500Y00004936921*
X00019324497Y00004976926*
X00019324980Y00004999990*
X00191399591Y00005946089D02*
Y00006293688D01*
X00190999592Y00005946089D02*
Y00006293688D01*
X00191799591Y00005946089D02*
Y00006293688D01*
X00190199594Y00005946089D02*
Y00006293688D01*
X00189799595Y00005946089D02*
Y00006293688D01*
X00190599593Y00005946089D02*
Y00006293688D01*
X00192182292Y00005940780D02*
X00192369186Y00005903696D01*
X00192199590Y00005937275D02*
Y00006293688D01*
X00192421789Y00005887796D02*
X00192597887Y00005814898D01*
X00187367087Y00005946089D02*
X00192032483D01*
X00192032585D02*
X00192127581D01*
X00188999596D02*
Y00006293688D01*
X00188599597Y00005946089D02*
Y00006293688D01*
X00188199598Y00005946089D02*
Y00006293688D01*
X00187799599Y00005946089D02*
Y00006293688D01*
X00187399599Y00005946089D02*
Y00006293688D01*
X00186999575Y00005892088D02*
Y00006293688D01*
X00189399595Y00005946089D02*
Y00006293688D01*
X00187271787Y00005946089D02*
X00187367087D01*
X00187030182Y00005903696D02*
X00187217075Y00005940780D01*
X00179621891Y00005887796D02*
X00179797989Y00005814898D01*
X00186801582D02*
X00186977578Y00005887796D01*
X00193399587Y00004612690D02*
Y00006293688D01*
X00192999588Y00005488686D02*
Y00006293688D01*
X00193799587Y00004478680D02*
Y00006293688D01*
X00192599589Y00005813780D02*
Y00006293688D01*
X00179820493Y00005799886D02*
X00186779077D01*
X00192620392D02*
X00204691183D01*
X00193064790Y00005399887D02*
X00204691183D01*
X00192847290Y00005648375D02*
X00192982088Y00005513781D01*
X00193016987Y00005471287D02*
X00193122880Y00005312994D01*
X00192646376Y00005789091D02*
X00192804796Y00005683275D01*
X00186594597D02*
X00186753093Y00005789091D01*
X00186599576Y00005686577D02*
Y00006293688D01*
X00186199576Y00005141595D02*
Y00006293688D01*
X00180999587Y00004478782D02*
Y00006293688D01*
X00180199588Y00005488787D02*
Y00006293688D01*
X00179799589Y00005813882D02*
Y00006293688D01*
X00180599588Y00004612690D02*
Y00006293688D01*
X00186417280Y00005513781D02*
X00186552078Y00005648375D01*
X00180217089Y00005471287D02*
X00180322982Y00005312994D01*
X00186276488D02*
X00186382380Y00005471287D01*
X00179846478Y00005789091D02*
X00180004897Y00005683275D01*
X00180047493Y00005648375D02*
X00180182189Y00005513781D01*
X00178599592Y00005946089D02*
Y00006293688D01*
X00178199592Y00005946089D02*
Y00006293688D01*
X00177799593Y00005946089D02*
Y00006293688D01*
X00176999595Y00005946089D02*
Y00006293688D01*
X00176599596Y00005946089D02*
Y00006293688D01*
X00177399594Y00005946089D02*
Y00006293688D01*
X00179399590Y00005937377D02*
Y00006293688D01*
X00179232687Y00005946089D02*
X00179327683D01*
X00179382496Y00005940780D02*
X00179569287Y00005903696D01*
X00178999591Y00005946089D02*
Y00006293688D01*
X00174567189Y00005946089D02*
X00179232687D01*
X00175799597D02*
Y00006293688D01*
X00174999599Y00005946089D02*
Y00006293688D01*
X00175399598Y00005946089D02*
Y00006293688D01*
X00174599600Y00005946089D02*
Y00006293688D01*
X00174199575Y00005892088D02*
Y00006293688D01*
X00173799576Y00005686475D02*
Y00006293688D01*
X00176199596Y00005946089D02*
Y00006293688D01*
X00174471888Y00005946089D02*
X00174567189D01*
X00174230284Y00005903696D02*
X00174417177Y00005940780D01*
X00174001684Y00005814898D02*
X00174177680Y00005887796D01*
X00156204793Y00005799886D02*
X00173979179D01*
X00164999593Y00004671796D02*
Y00006293688D01*
X00164599594Y00005007178D02*
Y00006293688D01*
X00165399593Y00004019575D02*
Y00006293688D01*
X00163799596Y00005310581D02*
Y00006293688D01*
X00163399597Y00005330393D02*
Y00006293688D01*
X00164199595Y00005207889D02*
Y00006293688D01*
X00173794699Y00005683275D02*
X00173953195Y00005789091D01*
X00173617382Y00005513781D02*
X00173752179Y00005648375D01*
X00173476589Y00005312994D02*
X00173582584Y00005471287D01*
X00158163082Y00005399887D02*
X00173534781D01*
X00173399577Y00005141391D02*
Y00006293688D01*
X00158599581Y00004511294D02*
Y00006293688D01*
X00158199582Y00005358384D02*
Y00006293688D01*
X00161799574Y00004409795D02*
Y00006293688D01*
X00157799582Y00005572887D02*
Y00006293688D01*
X00157399583Y00005455894D02*
Y00006293688D01*
X00162999597Y00005270576D02*
Y00006293688D01*
X00162599598Y00005124678D02*
Y00006293688D01*
X00162199599Y00004866589D02*
Y00006293688D01*
X00156281196Y00005399887D02*
X00157336896D01*
X00193244978Y00004999888D02*
X00204691183D01*
X00193148889Y00005264480D02*
X00193221889Y00005088483D01*
X00193237891Y00005035880D02*
X00193275077Y00004849088D01*
X00180264892Y00005399887D02*
X00186334679D01*
X00186177580Y00005088483D02*
X00186250580Y00005264480D01*
X00186124291Y00004849088D02*
X00186161578Y00005035880D01*
X00193570682Y00004599889D02*
X00204691183D01*
X00193280588Y00004612690D02*
X00193465881D01*
X00193612389Y00004591786D02*
X00193686176Y00004561382D01*
X00193280487Y00004794377D02*
X00193280588Y00004699177D01*
Y00004699000D02*
Y00004612690D01*
X00180445079Y00004999888D02*
X00186154390D01*
X00180437993Y00005035880D02*
X00180475178Y00004849088D01*
X00180480589Y00004794377D02*
X00180480690Y00004699177D01*
X00180348991Y00005264480D02*
X00180421991Y00005088483D01*
X00173377682D02*
X00173450681Y00005264480D01*
X00173324393Y00004849088D02*
X00173361680Y00005035880D01*
X00186118881Y00004699177D02*
Y00004794377D01*
X00180770784Y00004599889D02*
X00186118881D01*
X00180812490Y00004591786D02*
X00180886277Y00004561382D01*
X00180480690Y00004699000D02*
Y00004612690D01*
X00180665983*
X00193941700Y00004199890D02*
X00204691183D01*
X00193894786Y00004353788D02*
X00193925494Y00004280179D01*
X00193946195Y00002598775D02*
X00193947186Y00004132199D01*
X00193777285Y00004500880D02*
X00193833775Y00004444593D01*
X00193686176Y00004561382D02*
X00193777285Y00004500880D01*
X00193833775Y00004444593D02*
X00193894786Y00004353788D01*
X00193946780Y00003399891D02*
X00204691183D01*
X00193946983Y00003799890D02*
X00204691183D01*
X00193946475Y00002999892D02*
X00204691183D01*
X00193946195Y00002599893D02*
X00204691183D01*
X00193894481Y00002378379D02*
X00193924885Y00002451887D01*
X00181141776Y00004199890D02*
X00186118881D01*
X00181094888Y00004353788D02*
X00181125596Y00004280179D01*
X00181146297Y00002598775D02*
X00181147389Y00004132199D01*
X00180977387Y00004500880D02*
X00181033877Y00004444593D01*
X00180886277Y00004561382D02*
X00180977387Y00004500880D01*
X00181033877Y00004444593D02*
X00181094888Y00004353788D01*
X00181146881Y00003399891D02*
X00186118881D01*
X00181147085Y00003799890D02*
X00186118881D01*
X00181146577Y00002999892D02*
X00186118881D01*
X00181146297Y00002599893D02*
X00186118881D01*
X00181094583Y00002378379D02*
X00181124987Y00002451887D01*
X00164117782Y00005241798D02*
X00164436196Y00005109895D01*
X00163727079Y00005324983D02*
X00164065178Y00005257800D01*
X00164484685Y00005083987D02*
X00164771298Y00004892395D01*
X00163327588Y00005330393D02*
X00163672393D01*
X00162934777Y00005257800D02*
X00163272876Y00005324983D01*
X00162563784Y00005109895D02*
X00162882199Y00005241798D01*
X00173318982Y00004699177D02*
Y00004794377D01*
X00165066776Y00004599889D02*
X00173318982D01*
X00165092481Y00004571288D02*
X00165283997Y00004284675D01*
X00164610491Y00004999888D02*
X00173354492D01*
X00164813792Y00004857597D02*
X00165057582Y00004613783D01*
X00162228682Y00004892395D02*
X00162515296Y00005083987D01*
X00158324981Y00004999888D02*
X00162389489D01*
X00161942399Y00004613783D02*
X00162186188Y00004857597D01*
X00157274996Y00004511294D02*
Y00004675987D01*
X00158224982Y00004511294D02*
Y00004675987D01*
Y00004599889D02*
X00161933178D01*
X00158224982Y00004511294D02*
X00158874993D01*
X00161715983Y00004284675D02*
X00161907499Y00004571288D01*
X00156281196Y00004599889D02*
X00157274996D01*
X00156624985Y00004511294D02*
X00157274996D01*
X00165530377Y00003399891D02*
X00173318982D01*
X00165470687Y00003799890D02*
X00173318982D01*
X00165530377Y00003299993D02*
Y00003472383D01*
X00165324891Y00004199890D02*
X00173318982D01*
X00165309880Y00004236186D02*
X00165441782Y00003917696D01*
X00165457682Y00003865194D02*
X00165524992Y00003527094D01*
X00165510489Y00002999892D02*
X00173318982D01*
X00165530377Y00003127578D02*
Y00003299993D01*
X00165457682Y00002734792D02*
X00165524992Y00003072892D01*
X00165407695Y00002599893D02*
X00173318982D01*
X00161558198Y00002682290D02*
X00161690075Y00002363774D01*
X00161558198Y00003917696D02*
X00161690075Y00004236186D01*
X00161474988Y00003527094D02*
X00161542298Y00003865194D01*
X00161469578Y00003299993D02*
Y00003472383D01*
X00158874993Y00004199890D02*
X00161675089D01*
X00158874993Y00003799890D02*
X00161529293D01*
X00161474988Y00003072892D02*
X00161542298Y00002734792D01*
X00161469578Y00003127578D02*
Y00003299993D01*
X00158874993Y00002599893D02*
X00161592285D01*
X00158874993Y00003399891D02*
X00161469578D01*
X00158874993Y00002999892D02*
X00161489491D01*
X00152199594Y00006081191D02*
Y00006293688D01*
X00151799696Y00006081191D02*
Y00006293688D01*
X00152599593Y00006081191D02*
Y00006293688D01*
X00150999596Y00006081191D02*
Y00006293688D01*
X00150599698Y00006081191D02*
Y00006293688D01*
X00151399595Y00006081191D02*
Y00006293688D01*
X00154199590Y00006081191D02*
Y00006293688D01*
X00153799590Y00006081191D02*
Y00006293688D01*
X00155699993Y00006081191D02*
X00155799485D01*
X00152999592D02*
Y00006293688D01*
X00153399591Y00006081191D02*
Y00006293688D01*
X00143799687Y00006081191D02*
Y00006293688D01*
X00143399687Y00006081191D02*
Y00006293688D01*
X00144199686Y00006081191D02*
Y00006293688D01*
X00142599689Y00006081191D02*
Y00006293688D01*
X00142199690Y00006081191D02*
Y00006293688D01*
X00142999688Y00006081191D02*
Y00006293688D01*
X00145799683Y00006081191D02*
Y00006293688D01*
X00145399683Y00006081191D02*
Y00006293688D01*
X00146099987Y00006081191D02*
X00146199377D01*
X00144599685D02*
Y00006293688D01*
X00144999684Y00006081191D02*
Y00006293688D01*
X00155799586Y00006081090D02*
Y00006293688D01*
X00155399587Y00006081191D02*
Y00006293688D01*
X00156199586Y00005812485D02*
Y00006293688D01*
X00154999588Y00006081191D02*
Y00006293688D01*
X00154599589Y00006081191D02*
Y00006293688D01*
X00150199598Y00006081191D02*
Y00006293688D01*
X00156040582Y00005981293D02*
X00156181298Y00005840577D01*
X00155830498Y00006074994D02*
X00156014293Y00005998895D01*
X00156999584Y00004511294D02*
Y00006293688D01*
X00150199979Y00006081191D02*
X00155699993D01*
X00150100487D02*
X00150199877D01*
X00148199576Y00005522899D02*
Y00006293688D01*
X00147799679Y00005405882D02*
Y00006293688D01*
X00148599677Y00005308396D02*
Y00006293688D01*
X00146599681Y00005812383D02*
Y00006293688D01*
X00146199682Y00006081090D02*
Y00006293688D01*
X00147399578Y00004461179D02*
Y00006293688D01*
X00149885679Y00005998895D02*
X00150069499Y00006074994D01*
X00149799675Y00005921578D02*
Y00006293688D01*
X00148999575Y00004461179D02*
Y00006293688D01*
X00146230492Y00006074994D02*
X00146414286Y00005998895D01*
X00146440575Y00005981293D02*
X00146581291Y00005840577D01*
X00136199676Y00006121196D02*
Y00006293688D01*
X00135799677Y00006131179D02*
Y00006293688D01*
X00140999692Y00006081191D02*
Y00006293688D01*
X00135399678Y00006131179D02*
Y00006293688D01*
X00134999679Y00006131179D02*
Y00006293688D01*
X00134599680Y00006131179D02*
Y00006293688D01*
X00141799691Y00006081191D02*
Y00006293688D01*
X00141399691Y00006081191D02*
Y00006293688D01*
X00140500481Y00006081191D02*
X00140599998D01*
X00136049994Y00006131179D02*
X00136159392D01*
X00130749979D02*
X00136049994D01*
X00132599684D02*
Y00006293688D01*
X00132199684Y00006131179D02*
Y00006293688D01*
X00131799685Y00006131179D02*
Y00006293688D01*
X00131399686Y00006131179D02*
Y00006293688D01*
X00130999687Y00006131179D02*
Y00006293688D01*
X00130599688Y00006120892D02*
Y00006293688D01*
X00134199680Y00006131179D02*
Y00006293688D01*
X00133399682Y00006131179D02*
Y00006293688D01*
X00133799681Y00006131179D02*
Y00006293688D01*
X00132999683Y00006131179D02*
Y00006293688D01*
X00130640582Y00006131077D02*
X00130749979D01*
X00138599697Y00005358384D02*
Y00006293688D01*
X00138199698Y00005572887D02*
Y00006293688D01*
X00138999696Y00004511294D02*
Y00006293688D01*
X00137799699Y00005455996D02*
Y00006293688D01*
X00136599676Y00005822289D02*
Y00006293688D01*
X00137399699Y00004511294D02*
Y00006293688D01*
X00140599998Y00006081191D02*
X00146099987D01*
X00140599693D02*
Y00006293688D01*
X00140285698Y00005998895D02*
X00140469493Y00006074994D01*
X00140199694Y00005921578D02*
Y00006293688D01*
X00140118693Y00005840577D02*
X00140259384Y00005981293D01*
X00127799693Y00005463387D02*
Y00006293688D01*
X00127399694Y00005624982D02*
Y00006293688D01*
X00128199692Y00004561281D02*
Y00006293688D01*
X00126999695Y00005462778D02*
Y00006293688D01*
X00126599696Y00004561281D02*
Y00006293688D01*
X00136190482Y00006124981D02*
X00136392589Y00006041288D01*
X00130407384Y00006041186D02*
X00130609492Y00006124981D01*
X00136418878Y00006023686D02*
X00136573691Y00005868898D01*
X00130226282D02*
X00130380994Y00006023584D01*
X00130199688Y00005820791D02*
Y00006293688D01*
X00156198874Y00005814288D02*
X00156274998Y00005630494D01*
X00149718699Y00005840577D02*
X00149859390Y00005981293D01*
X00156281196Y00005499989D02*
Y00005599480D01*
X00149624999Y00005630494D02*
X00149701097Y00005814288D01*
X00146604786Y00005799886D02*
X00149695179D01*
X00149618776Y00005599480D02*
Y00005499989D01*
X00156281196Y00004999888D02*
X00157174996D01*
X00148722791D02*
X00149618776D01*
X00148624975Y00004461179D02*
X00149274987D01*
X00148507983Y00005399887D02*
X00149618776D01*
X00148624975Y00004599889D02*
X00149618776D01*
X00146681190Y00005399887D02*
X00147791982D01*
X00146681190Y00005499989D02*
Y00005599480D01*
X00146598894Y00005814288D02*
X00146674992Y00005630494D01*
X00140024993D02*
X00140101091Y00005814288D01*
X00140018795Y00005499989D02*
Y00005599480D01*
X00147674990Y00004461179D02*
Y00004625975D01*
X00148624975Y00004461179D02*
Y00004625975D01*
X00146681190Y00004999888D02*
X00147577175D01*
X00146681190Y00004599889D02*
X00147674990D01*
X00156281196Y00003799890D02*
X00156624985D01*
X00156281196Y00004199890D02*
X00156624985D01*
X00149274987Y00003399891D02*
X00149618776D01*
X00149274987Y00004199890D02*
X00149618776D01*
X00147024979Y00004461179D02*
X00147674990D01*
X00149274987Y00003799890D02*
X00149618776D01*
X00156281196Y00002999892D02*
X00156624985D01*
X00156281196Y00003399891D02*
X00156624985D01*
X00156281196Y00002599893D02*
X00156624985D01*
X00149274987Y00002999892D02*
X00149618776D01*
X00149274987Y00002599893D02*
X00149618776D01*
X00146681190Y00003799890D02*
X00147024979D01*
X00146681190Y00004199890D02*
X00147024979D01*
X00139274981Y00003399891D02*
X00140018795D01*
X00139274981Y00004199890D02*
X00140018795D01*
X00139274981Y00003799890D02*
X00140018795D01*
X00146681190Y00002999892D02*
X00147024979D01*
X00146681190Y00003399891D02*
X00147024979D01*
X00146681190Y00002599893D02*
X00147024979D01*
X00139274981Y00002999892D02*
X00140018795D01*
X00139274981Y00002599893D02*
X00140018795D01*
X00138563096Y00005399887D02*
X00140018795D01*
X00136681184D02*
X00137736884D01*
X00136608896Y00005799886D02*
X00140095198D01*
X00136591294Y00005842584D02*
X00136674987Y00005640476D01*
X00136681184Y00005499989D02*
Y00005609386D01*
X00138724995Y00004999888D02*
X00140018795D01*
X00138624995Y00004599889D02*
X00140018795D01*
X00136681184Y00004999888D02*
X00137574985D01*
X00136681184Y00004599889D02*
X00137674985D01*
X00130124987Y00005640476D02*
X00130208680Y00005842584D01*
X00130118789Y00005499989D02*
Y00005609386D01*
X00127856284Y00005399887D02*
X00130118789D01*
X00125881180D02*
X00126943688D01*
X00127874979Y00004599889D02*
X00130118789D01*
X00127972794Y00004999888D02*
X00130118789D01*
X00127874979Y00004561281D02*
X00128524990D01*
X00125881180Y00004999888D02*
X00126827178D01*
X00125881180Y00004599889D02*
X00126924993D01*
X00138624995Y00004511294D02*
Y00004675987D01*
X00137674985Y00004511294D02*
Y00004675987D01*
X00138624995Y00004511294D02*
X00139274981D01*
X00137024999D02*
X00137674985D01*
X00136681184Y00004199890D02*
X00137024999D01*
X00136681184Y00003799890D02*
X00137024999D01*
X00136681184Y00002999892D02*
X00137024999D01*
X00136681184Y00003399891D02*
X00137024999D01*
X00136681184Y00002599893D02*
X00137024999D01*
X00128524990Y00002999892D02*
X00130118789D01*
X00128524990Y00002599893D02*
X00130118789D01*
X00127874979Y00004561281D02*
Y00004725974D01*
X00126924993Y00004561281D02*
Y00004725974D01*
X00128524990Y00004199890D02*
X00130118789D01*
X00126274982Y00004561281D02*
X00126924993D01*
X00125881180Y00004199890D02*
X00126274982D01*
X00128524990Y00003799890D02*
X00130118789D01*
X00125881180Y00003399891D02*
X00126274982D01*
X00128524990D02*
X00130118789D01*
X00125881180Y00003799890D02*
X00126274982D01*
X00125881180Y00002599893D02*
X00126274982D01*
X00195799583Y00000306298D02*
Y00006293688D01*
X00195399583Y00000306298D02*
Y00006293688D01*
X00196199582Y00000306298D02*
Y00006293688D01*
X00194599585Y00000306298D02*
Y00006293688D01*
X00194199586Y00000306298D02*
Y00006293688D01*
X00194999584Y00000306298D02*
Y00006293688D01*
X00193730676Y00002199894D02*
X00204691183D01*
X00193777387Y00002231186D02*
X00193833699Y00002287498D01*
X00193799587Y00000306298D02*
Y00002253284D01*
X00193612897Y00002139975D02*
X00193686379Y00002170379D01*
X00193505582Y00002118588D02*
X00193612897Y00002139975D01*
X00186118881Y00004699000D02*
Y00002032279D01*
X00185399578Y00000306298D02*
Y00006293688D01*
X00185799577Y00000306298D02*
Y00006293688D01*
X00184599580Y00000306298D02*
Y00006293688D01*
X00184199580Y00000306298D02*
Y00006293688D01*
X00184999579Y00000306298D02*
Y00006293688D01*
X00193280080Y00002118588D02*
X00193465881D01*
X00193279598Y00002030679D02*
Y00001937080D01*
X00193399587Y00000306298D02*
Y00002118588D01*
X00193279598Y00002030679D02*
X00193280080Y00002118588D01*
X00186118881Y00002032177D02*
Y00001936877D01*
X00202599493Y00000306298D02*
Y00006293688D01*
X00202199494Y00000306298D02*
Y00006293688D01*
X00202999492Y00000306298D02*
Y00006293688D01*
X00201399597Y00000306298D02*
Y00006293688D01*
X00200999598Y00000306298D02*
Y00006293688D01*
X00201799494Y00000306298D02*
Y00006293688D01*
X00204599489Y00000306298D02*
Y00006293688D01*
X00204199490Y00000306298D02*
Y00006293688D01*
X00204691183Y00000306298D02*
Y00006293688D01*
X00203399491Y00000306298D02*
Y00006293688D01*
X00203799490Y00000306298D02*
Y00006293688D01*
X00198199578Y00000306298D02*
Y00006293688D01*
X00197799477Y00000306298D02*
Y00006293688D01*
X00198599475Y00000306298D02*
Y00006293688D01*
X00196999580Y00000306298D02*
Y00006293688D01*
X00196599581Y00000306298D02*
Y00006293688D01*
X00197399579Y00000306298D02*
Y00006293688D01*
X00200199599Y00000306298D02*
Y00006293688D01*
X00199799498Y00000306298D02*
Y00006293688D01*
X00200599497Y00000306298D02*
Y00006293688D01*
X00198999576Y00000306298D02*
Y00006293688D01*
X00199399575Y00000306298D02*
Y00006293688D01*
X00180930778Y00002199894D02*
X00186118881D01*
X00180977489Y00002231186D02*
X00181033775Y00002287498D01*
X00180812998Y00002139975D02*
X00180886582Y00002170379D01*
X00173318982Y00004699000D02*
Y00002032279D01*
X00165206883Y00002199894D02*
X00173318982D01*
X00171399581Y00000306298D02*
Y00006293688D01*
X00180705683Y00002118588D02*
X00180812998Y00002139975D01*
X00180480182Y00002118588D02*
X00180665983D01*
X00180479700Y00002030679D02*
Y00001937080D01*
Y00002030679D02*
X00180480182Y00002118588D01*
X00173318982Y00002032177D02*
Y00001936877D01*
X00169799584Y00000306298D02*
Y00006293688D01*
X00169399585Y00000306298D02*
Y00006293688D01*
X00170199583Y00000306298D02*
Y00006293688D01*
X00168599586Y00000306298D02*
Y00006293688D01*
X00168199587Y00000306298D02*
Y00006293688D01*
X00168999585Y00000306298D02*
Y00006293688D01*
X00170599582Y00000306298D02*
Y00006293688D01*
X00165309880Y00002363774D02*
X00165441782Y00002682290D01*
X00170999581Y00000306298D02*
Y00006293688D01*
X00165092481Y00002028698D02*
X00165283997Y00002315286D01*
X00164813792Y00001742389D02*
X00165057582Y00001986178D01*
X00182199584Y00000306298D02*
Y00006293688D01*
X00181799585Y00000306298D02*
Y00006293688D01*
X00182599584Y00000306298D02*
Y00006293688D01*
X00172999577Y00000306298D02*
Y00006293688D01*
X00172599578Y00000306298D02*
Y00006293688D01*
X00181399586Y00000306298D02*
Y00006293688D01*
X00183399582Y00000306298D02*
Y00006293688D01*
X00182999583Y00000306298D02*
Y00006293688D01*
X00183799581Y00000306298D02*
Y00006293688D01*
X00180599588Y00000306298D02*
Y00002118588D01*
X00180999587Y00000306298D02*
Y00002253284D01*
X00166999589Y00000306298D02*
Y00006293688D01*
X00166599590Y00000306298D02*
Y00006293688D01*
X00167399589Y00000306298D02*
Y00006293688D01*
X00165799592Y00000306298D02*
Y00006293688D01*
X00166199591Y00000306298D02*
Y00006293688D01*
X00171799580Y00000306298D02*
Y00006293688D01*
X00167799588Y00000306298D02*
Y00006293688D01*
X00172199579Y00000306298D02*
Y00006293688D01*
X00164999593Y00000306298D02*
Y00001928190D01*
X00165399593Y00000306298D02*
Y00002580386D01*
X00193257779Y00001799996D02*
X00204691183D01*
X00193236977Y00001695678D02*
X00193274188Y00001882394D01*
X00193148178Y00001467078D02*
X00193221076Y00001643075D01*
X00193109799Y00001399997D02*
X00204691183D01*
X00193016479Y00001260297D02*
X00193122296Y00001418691D01*
X00192846985Y00001083183D02*
X00192981681Y00001217879D01*
X00192732075Y00000999896D02*
X00204691183D01*
X00192646198Y00000942594D02*
X00192804491Y00001048283D01*
X00192421789Y00000843788D02*
X00192597684Y00000916584D01*
X00192182394Y00000790676D02*
X00192369186Y00000827786D01*
X00187030182Y00000827684D02*
X00187217075Y00000790575D01*
X00186124291Y00001882190D02*
X00186161578Y00001695399D01*
X00180457881Y00001799996D02*
X00186140699D01*
X00186177580Y00001642795D02*
X00186250580Y00001466799D01*
X00180437078Y00001695678D02*
X00180474289Y00001882394D01*
X00180348280Y00001467078D02*
X00180421178Y00001643075D01*
X00180216581Y00001260297D02*
X00180322397Y00001418691D01*
X00186594597Y00001048080D02*
X00186753093Y00000942289D01*
X00186417280Y00001217599D02*
X00186552078Y00001082878D01*
X00186801582Y00000916381D02*
X00186977578Y00000843584D01*
X00180309875Y00001399997D02*
X00186288781D01*
X00186276488Y00001418386D02*
X00186382380Y00001259992D01*
X00192599589Y00000306298D02*
Y00000917879D01*
X00192199590Y00000306298D02*
Y00000794080D01*
X00192999588Y00000306298D02*
Y00001243380D01*
X00190199594Y00000306298D02*
Y00000785291D01*
X00189799595Y00000306298D02*
Y00000785291D01*
X00190599593Y00000306298D02*
Y00000785291D01*
X00192032483D02*
X00192127682D01*
X00191399591Y00000306298D02*
Y00000785291D01*
X00191799591Y00000306298D02*
Y00000785291D01*
X00187367087D02*
X00192032483D01*
X00190999592Y00000306298D02*
Y00000785291D01*
X00187271787Y00000785190D02*
X00187367087Y00000785291D01*
X00186999575Y00000306298D02*
Y00000839190D01*
X00187399599Y00000306298D02*
Y00000785291D01*
X00186199576Y00000306298D02*
Y00001589786D01*
X00180199588Y00000306298D02*
Y00001243279D01*
X00186599576Y00000306298D02*
Y00001044676D01*
X00188999596Y00000306298D02*
Y00000785291D01*
X00188599597Y00000306298D02*
Y00000785291D01*
X00189399595Y00000306298D02*
Y00000785291D01*
X00187799599Y00000306298D02*
Y00000785291D01*
X00188199598Y00000306298D02*
Y00000785291D01*
X00179932177Y00000999896D02*
X00186666682D01*
X00180047087Y00001083183D02*
X00180181783Y00001217879D01*
X00179846274Y00000942594D02*
X00180004593Y00001048283D01*
X00179621891Y00000843788D02*
X00179797786Y00000916584D01*
X00173794699Y00001048080D02*
X00173953195Y00000942289D01*
X00174001684Y00000916381D02*
X00174177680Y00000843584D01*
X00179382597Y00000790676D02*
X00179569287Y00000827786D01*
X00179232687Y00000785291D02*
X00179327886D01*
X00174567189D02*
X00179232687D01*
X00174230284Y00000827684D02*
X00174417177Y00000790575D01*
X00174471888Y00000785190D02*
X00174567189Y00000785291D01*
X00173377682Y00001642795D02*
X00173450681Y00001466799D01*
X00173324393Y00001882190D02*
X00173361680Y00001695399D01*
X00173476589Y00001418386D02*
X00173582584Y00001259992D01*
X00164871400Y00001799996D02*
X00173340877D01*
X00164484685Y00001515999D02*
X00164771298Y00001707591D01*
X00164117782Y00001358188D02*
X00164436196Y00001490091D01*
X00164218493Y00001399997D02*
X00173488985D01*
X00163727079Y00001274978D02*
X00164065178Y00001342186D01*
X00173617382Y00001217599D02*
X00173752179Y00001082878D01*
X00163327588Y00001269593D02*
X00163672393D01*
X00158874993Y00000999896D02*
X00173866784D01*
X00179399590Y00000306298D02*
Y00000794080D01*
X00178199592Y00000306298D02*
Y00000785291D01*
X00179799589Y00000306298D02*
Y00000917778D01*
X00177399594Y00000306298D02*
Y00000785291D01*
X00176999595Y00000306298D02*
Y00000785291D01*
X00177799593Y00000306298D02*
Y00000785291D01*
X00178599592Y00000306298D02*
Y00000785291D01*
X00176599596Y00000306298D02*
Y00000785291D01*
X00178999591Y00000306298D02*
Y00000785291D01*
X00158874993Y00000599998D02*
X00204691183D01*
X00176199596Y00000306298D02*
Y00000785291D01*
X00173399577Y00000306298D02*
Y00001589989D01*
X00164599594Y00000306298D02*
Y00001592783D01*
X00173799576Y00000306298D02*
Y00001044778D01*
X00163799596Y00000306298D02*
Y00001289380D01*
X00164199595Y00000306298D02*
Y00001392097D01*
X00175399598Y00000306298D02*
Y00000785291D01*
X00174999599Y00000306298D02*
Y00000785291D01*
X00175799597Y00000306298D02*
Y00000785291D01*
X00174199575Y00000306298D02*
Y00000839292D01*
X00174599600Y00000306298D02*
Y00000785291D01*
X00161942399Y00001986178D02*
X00162186188Y00001742389D01*
X00161715983Y00002315286D02*
X00161907499Y00002028698D01*
X00162228682Y00001707591D02*
X00162515296Y00001515999D01*
X00158874993Y00002199894D02*
X00161793097D01*
X00156281196Y00001799996D02*
X00156624985D01*
X00158874993D02*
X00162128581D01*
X00162563784Y00001490091D02*
X00162882199Y00001358188D01*
X00158874993Y00001399997D02*
X00162781488D01*
X00162934777Y00001342186D02*
X00163272876Y00001274978D01*
X00156281196Y00001399997D02*
X00156624985D01*
X00156246195Y00000999896D02*
X00156624985D01*
X00156281196Y00002199894D02*
X00156624985D01*
X00156281196Y00001199997D02*
Y00005499989D01*
X00149618776Y00001199997D02*
Y00005499989D01*
X00149274987Y00002199894D02*
X00149618776D01*
X00146681190D02*
X00147024979D01*
X00146681190Y00001799996D02*
X00147024979D01*
X00156281196Y00001199997D02*
Y00001100480D01*
X00149618776D02*
Y00001199997D01*
X00149274987Y00000999896D02*
X00149653777D01*
X00149274987Y00001799996D02*
X00149618776D01*
X00149274987Y00001399997D02*
X00149618776D01*
X00160999576Y00000306298D02*
Y00006293688D01*
X00160599577Y00000306298D02*
Y00006293688D01*
X00161399575Y00000306298D02*
Y00006293688D01*
X00159799578Y00000306298D02*
Y00006293688D01*
X00159399579Y00000306298D02*
Y00006293688D01*
X00160199578Y00000306298D02*
Y00006293688D01*
X00162999597Y00000306298D02*
Y00001329385D01*
X00162599598Y00000306298D02*
Y00001475282D01*
X00163399597Y00000306298D02*
Y00001269593D01*
X00161799574Y00000306298D02*
Y00002190191D01*
X00162199599Y00000306298D02*
Y00001733397D01*
X00158874993Y00000361289D02*
Y00004511294D01*
X00156624985Y00000361289D02*
Y00004511294D01*
X00158999580Y00000306298D02*
Y00006293688D01*
X00149399599Y00000306298D02*
Y00006293688D01*
X00146999680Y00000306298D02*
Y00006293688D01*
X00156599585Y00000306298D02*
Y00006293688D01*
X00156198874Y00000885698D02*
X00156274998Y00001069492D01*
X00149624999D02*
X00149701097Y00000885698D01*
X00156199586Y00000306298D02*
Y00000887476D01*
X00147024979Y00000311277D02*
Y00004461179D01*
X00149274987Y00000311277D02*
Y00004461179D01*
X00140018795Y00005499989D02*
Y00001199997D01*
X00139274981Y00001799996D02*
X00140018795D01*
X00146681190Y00001199997D02*
Y00005499989D01*
X00139274981Y00002199894D02*
X00140018795D01*
X00136681184Y00001799996D02*
X00137024999D01*
X00136681184Y00001399997D02*
X00137024999D01*
X00146681190D02*
X00147024979D01*
X00140018795Y00001100480D02*
Y00001199997D01*
X00146681190D02*
Y00001100480D01*
X00139274981Y00001399997D02*
X00140018795D01*
X00139274981Y00000999896D02*
X00140053796D01*
X00136681184Y00002199894D02*
X00137024999D01*
X00130118789Y00001199997D02*
Y00005499989D01*
X00136681184Y00000999998D02*
Y00005499989D01*
X00128524990Y00002199894D02*
X00130118789D01*
X00125881180D02*
X00126274982D01*
X00125881180Y00001799996D02*
X00126274982D01*
X00130118789Y00001100480D02*
Y00001199997D01*
X00128524990Y00001399997D02*
X00130118789D01*
X00128524990Y00000999896D02*
X00130153791D01*
X00128524990Y00001799996D02*
X00130118789D01*
X00125881180Y00001399997D02*
X00126274982D01*
X00140024993Y00001069492D02*
X00140101091Y00000885698D01*
X00139399695Y00000306298D02*
Y00006293688D01*
X00139799695Y00000306298D02*
Y00006293688D01*
X00139274981Y00000361289D02*
Y00004511294D01*
X00137024999Y00000361289D02*
Y00004511294D01*
X00136999675Y00000306298D02*
Y00006293688D01*
X00146646188Y00000999896D02*
X00147024979D01*
X00146598894Y00000885698D02*
X00146674992Y00001069492D01*
X00146599681Y00000306298D02*
Y00000887577D01*
X00136681184Y00000999896D02*
X00137024999D01*
X00136681184Y00000999998D02*
Y00000900480D01*
X00129399690Y00000306298D02*
Y00006293688D01*
X00128999691Y00000306298D02*
Y00006293688D01*
X00129799689Y00000306298D02*
Y00006293688D01*
X00126199696Y00000306298D02*
Y00006293688D01*
X00128599692Y00000306298D02*
Y00006293688D01*
X00136598888Y00000685698D02*
X00136674987Y00000869492D01*
X00130124987Y00001069492D02*
X00130201085Y00000885698D01*
X00130199688Y00000306298D02*
Y00000889177D01*
X00126274982Y00000411175D02*
Y00004561281D01*
X00128524990Y00000411175D02*
Y00004561281D01*
X00156040582Y00000718693D02*
X00156181298Y00000859383D01*
X00149885679Y00000701090D02*
X00150069499Y00000624992D01*
X00155830498D02*
X00156014293Y00000701090D01*
X00149718699Y00000859383D02*
X00149859390Y00000718693D01*
X00146440575D02*
X00146581291Y00000859383D01*
X00149799675Y00000306298D02*
Y00000778383D01*
X00155699993Y00000618794D02*
X00155799485D01*
X00150100487D02*
X00155699993D01*
X00156624985Y00000361289D02*
X00158874993D01*
X00149274987Y00000599998D02*
X00156624985D01*
X00147024979Y00000311277D02*
X00149274987D01*
X00146230492Y00000624992D02*
X00146414286Y00000701090D01*
X00146099987Y00000618794D02*
X00146199377D01*
X00146199682Y00000306298D02*
Y00000618896D01*
X00143399687Y00000306298D02*
Y00000618794D01*
X00142999688Y00000306298D02*
Y00000618794D01*
X00143799687Y00000306298D02*
Y00000618794D01*
X00145399683Y00000306298D02*
Y00000618794D01*
X00144999684Y00000306298D02*
Y00000618794D01*
X00145799683Y00000306298D02*
Y00000618794D01*
X00144199686Y00000306298D02*
Y00000618794D01*
X00144599685Y00000306298D02*
Y00000618794D01*
X00153399591Y00000306298D02*
Y00000618794D01*
X00152999592Y00000306298D02*
Y00000618794D01*
X00155799586Y00000306298D02*
Y00000618896D01*
X00152199594Y00000306298D02*
Y00000618794D01*
X00151799696Y00000306298D02*
Y00000618794D01*
X00152599593Y00000306298D02*
Y00000618794D01*
X00154999588Y00000306298D02*
Y00000618794D01*
X00154599589Y00000306298D02*
Y00000618794D01*
X00155399587Y00000306298D02*
Y00000618794D01*
X00153799590Y00000306298D02*
Y00000618794D01*
X00154199590Y00000306298D02*
Y00000618794D01*
X00141799691Y00000306298D02*
Y00000618794D01*
X00141399691Y00000306298D02*
Y00000618794D01*
X00142199690Y00000306298D02*
Y00000618794D01*
X00140599693Y00000306298D02*
Y00000618794D01*
X00140999692Y00000306298D02*
Y00000618794D01*
X00150999596Y00000306298D02*
Y00000618794D01*
X00150599698Y00000306298D02*
Y00000618794D01*
X00151399595Y00000306298D02*
Y00000618794D01*
X00142599689Y00000306298D02*
Y00000618794D01*
X00150199598Y00000306298D02*
Y00000618794D01*
X00140285698Y00000701090D02*
X00140469493Y00000624992D01*
X00140118693Y00000859383D02*
X00140259384Y00000718693D01*
X00140500481Y00000618794D02*
X00146099987D01*
X00139274981Y00000599998D02*
X00147024979D01*
X00136521875D02*
X00137024999D01*
X00136440595Y00000518693D02*
X00136581286Y00000659282D01*
X00136230487Y00000424992D02*
X00136414281Y00000501091D01*
X00136099981Y00000418795D02*
X00136199397D01*
X00137024999Y00000361289D02*
X00139274981D01*
X00135464296Y00000418795D02*
X00136099981D01*
X00135379688Y00000381000D02*
X00135453399Y00000411480D01*
X00130699992Y00000618794D02*
X00134516393D01*
X00130600577D02*
X00130699992D01*
X00134516393D02*
X00134692593Y00000442595D01*
X00130385693Y00000701090D02*
X00130569487Y00000624992D01*
X00130218688Y00000859383D02*
X00130359378Y00000718693D01*
X00128524990Y00000599998D02*
X00134535189D01*
X00135011388Y00000411480D02*
X00135085175Y00000381000D01*
X00134749997Y00000418795D02*
X00135000593D01*
X00135192490Y00000359587D02*
X00135272399D01*
X00126274982Y00000411175D02*
X00128524990D01*
X00126599696Y00000306298D02*
Y00000411175D01*
X00136599676Y00000306298D02*
Y00000687578D01*
X00134199680Y00000306298D02*
Y00000618794D01*
X00140199694Y00000306298D02*
Y00000778383D01*
X00133399682Y00000306298D02*
Y00000618794D01*
X00132999683Y00000306298D02*
Y00000618794D01*
X00133799681Y00000306298D02*
Y00000618794D01*
X00135799677Y00000306298D02*
Y00000418795D01*
X00135399678Y00000306298D02*
Y00000389280D01*
X00136199676Y00000306298D02*
Y00000418896D01*
X00134599680Y00000306298D02*
Y00000535482D01*
X00134999679Y00000306298D02*
Y00000418795D01*
X00131799685Y00000306298D02*
Y00000618794D01*
X00131399686Y00000306298D02*
Y00000618794D01*
X00132199684Y00000306298D02*
Y00000618794D01*
X00130599688Y00000306298D02*
Y00000619175D01*
X00130999687Y00000306298D02*
Y00000618794D01*
X00128199692Y00000306298D02*
Y00000411175D01*
X00127799693Y00000306298D02*
Y00000411175D01*
X00132599684Y00000306298D02*
Y00000618794D01*
X00126999695Y00000306298D02*
Y00000411175D01*
X00127399694Y00000306298D02*
Y00000411175D01*
X00124599700Y00006081191D02*
Y00006293688D01*
X00124199675Y00006081191D02*
Y00006293688D01*
X00124999699Y00006081191D02*
Y00006293688D01*
X00123399677Y00006081191D02*
Y00006293688D01*
X00122999677Y00006081191D02*
Y00006293688D01*
X00123799676Y00006081191D02*
Y00006293688D01*
X00125430483Y00006074994D02*
X00125614277Y00005998895D01*
X00125399698Y00006081090D02*
Y00006293688D01*
X00125640592Y00005981293D02*
X00125781282Y00005840577D01*
X00119899988Y00006081191D02*
X00125299978D01*
X00125399495*
X00121399681D02*
Y00006293688D01*
X00120999681Y00006081191D02*
Y00006293688D01*
X00121799680Y00006081191D02*
Y00006293688D01*
X00120599682Y00006081191D02*
Y00006293688D01*
X00120199683Y00006081191D02*
Y00006293688D01*
X00119799684Y00006080785D02*
Y00006293688D01*
X00122599678Y00006081191D02*
Y00006293688D01*
X00122199679Y00006081191D02*
Y00006293688D01*
X00119800497Y00006081191D02*
X00119899887D01*
X00119585689Y00005998895D02*
X00119769483Y00006074994D01*
X00119418684Y00005840577D02*
X00119559374Y00005981293D01*
X00125804777Y00005799886D02*
X00130191078D01*
X00125799697Y00005812282D02*
Y00006293688D01*
X00125881180Y00005499989D02*
Y00005599480D01*
X00125798884Y00005814288D02*
X00125874983Y00005630494D01*
X00119399685Y00005810885D02*
Y00006293688D01*
X00119324983Y00005630494D02*
X00119401082Y00005814288D01*
X00125881180Y00001199997D02*
Y00005499989D01*
X00119318786D02*
Y00005599480D01*
Y00001199997D02*
Y00005499989D01*
X00103610486Y00004999888D02*
X00119318786D01*
X00104066797Y00004599889D02*
X00119318786D01*
X00103799690Y00004866995D02*
Y00006293688D01*
X00103399691Y00005124983D02*
Y00006293688D01*
X00104199690Y00004410786D02*
Y00006293688D01*
X00102599693Y00005330393D02*
Y00006293688D01*
X00102199694Y00005310378D02*
Y00006293688D01*
X00102999692Y00005270779D02*
Y00006293688D01*
X00103484680Y00005083987D02*
X00103771293Y00004892395D01*
X00103117777Y00005241798D02*
X00103436191Y00005109895D01*
X00103813787Y00004857597D02*
X00104057577Y00004613783D01*
X00102327583Y00005330393D02*
X00102672388D01*
X00102727099Y00005324983D02*
X00103065199Y00005257800D01*
X00101799796Y00005207584D02*
Y00006293688D01*
X00066599790Y00005166385D02*
Y00006293688D01*
X00101399695Y00005006797D02*
Y00006293688D01*
X00023468482Y00006199886D02*
X00204691183D01*
X00000306298Y00006293688D02*
X00204691183D01*
X00028456890Y00005799886D02*
X00119395189D01*
X00101934797Y00005257800D02*
X00102272896Y00005324983D01*
X00101563779Y00005109895D02*
X00101882194Y00005241798D01*
X00066910483Y00004999888D02*
X00101389484D01*
X00030563083Y00005399887D02*
X00119318786D01*
X00066417698Y00005241798D02*
X00066736188Y00005109895D01*
X00065627580Y00005330393D02*
X00065972385D01*
X00065799792D02*
Y00006293688D01*
X00066199791Y00005290591D02*
Y00006293688D01*
X00065399793Y00005290591D02*
Y00006293688D01*
X00064999793Y00005166182D02*
Y00006293688D01*
X00042599889Y00005006975D02*
Y00006293688D01*
X00066027096Y00005324983D02*
X00066365196Y00005257800D01*
X00065234794D02*
X00065572894Y00005324983D01*
X00064863776Y00005109895D02*
X00065182191Y00005241798D01*
X00042117695D02*
X00042436186Y00005109895D01*
X00042610481Y00004999888D02*
X00064689482D01*
X00100999696Y00004671187D02*
Y00006293688D01*
X00100599697Y00004017975D02*
Y00006293688D01*
X00067799788Y00003653688D02*
Y00006293688D01*
X00066999789Y00004940198D02*
Y00006293688D01*
X00064528700Y00004892395D02*
X00064815288Y00005083987D01*
X00067399789Y00004560290D02*
Y00006293688D01*
X00101228677Y00004892395D02*
X00101515291Y00005083987D01*
X00100942394Y00004613783D02*
X00101186183Y00004857597D01*
X00067366896Y00004599889D02*
X00100933199D01*
X00066784677Y00005083987D02*
X00067071290Y00004892395D01*
X00067113785Y00004857597D02*
X00067357599Y00004613783D01*
X00064599794Y00004939995D02*
Y00006293688D01*
X00064199795Y00004559782D02*
Y00006293688D01*
X00063799796Y00003651783D02*
Y00006293688D01*
X00042999888Y00004671491D02*
Y00006293688D01*
X00043399887Y00004018991D02*
Y00006293688D01*
X00064242391Y00004613783D02*
X00064486180Y00004857597D01*
X00043066792Y00004599889D02*
X00064233094D01*
X00043092395Y00004571288D02*
X00043283987Y00004284675D01*
X00042484675Y00005083987D02*
X00042771288Y00004892395D01*
X00042813782Y00004857597D02*
X00043057597Y00004613783D01*
X00104470682Y00003799890D02*
X00119318786D01*
X00104324886Y00004199890D02*
X00119318786D01*
X00104457677Y00003865194D02*
X00104524987Y00003527094D01*
X00104092476Y00004571288D02*
X00104283992Y00004284675D01*
X00100715978D02*
X00100907494Y00004571288D01*
X00104309875Y00004236186D02*
X00104441777Y00003917696D01*
X00104530398Y00003399891D02*
X00119318786D01*
X00104530398Y00003127578D02*
Y00003299993D01*
X00125881180Y00002999892D02*
X00126274982D01*
X00104530398Y00003299993D02*
Y00003472383D01*
X00104510484Y00002999892D02*
X00119318786D01*
X00100558193Y00003917696D02*
X00100690095Y00004236186D01*
X00100474983Y00003527094D02*
X00100542293Y00003865194D01*
X00100469598Y00003299993D02*
Y00003472383D01*
X00067770679Y00003799890D02*
X00100529288D01*
X00067757776Y00003865194D02*
X00067824985Y00003527094D01*
X00067830395Y00003299993D02*
Y00003472383D01*
X00100469598Y00003127578D02*
Y00003299993D01*
X00067830395Y00003127578D02*
Y00003299993D01*
X00100474983Y00003072892D02*
X00100542293Y00002734792D01*
X00067830395Y00003399891D02*
X00100469598D01*
X00067810481Y00002999892D02*
X00100489486D01*
X00104407690Y00002599893D02*
X00119318786D01*
X00104457677Y00002734792D02*
X00104524987Y00003072892D01*
X00104309875Y00002363774D02*
X00104441777Y00002682290D01*
X00104206878Y00002199894D02*
X00119318786D01*
X00104092476Y00002028698D02*
X00104283992Y00002315286D01*
X00103813787Y00001742389D02*
X00104057577Y00001986178D01*
X00125881180Y00001199997D02*
Y00001100480D01*
X00103871395Y00001799996D02*
X00119318786D01*
Y00001100480D02*
Y00001199997D01*
X00103484680Y00001515999D02*
X00103771293Y00001707591D01*
X00103218488Y00001399997D02*
X00119318786D01*
X00100942394Y00001986178D02*
X00101186183Y00001742389D01*
X00100715978Y00002315286D02*
X00100907494Y00002028698D01*
X00101228677Y00001707591D02*
X00101515291Y00001515999D01*
X00067707687Y00002599893D02*
X00100592280D01*
X00067757776Y00002734792D02*
X00067824985Y00003072892D01*
X00100558193Y00002682290D02*
X00100690095Y00002363774D01*
X00103117777Y00001358188D02*
X00103436191Y00001490091D01*
X00102727099Y00001274978D02*
X00103065097Y00001342186D01*
X00102327583Y00001269593D02*
X00102672388D01*
X00101563779Y00001490091D02*
X00101882194Y00001358188D01*
X00101934797Y00001342186D02*
X00102272896Y00001274978D01*
X00067624883Y00004199890D02*
X00100675084D01*
X00067392397Y00004571288D02*
X00067583989Y00004284675D01*
X00067609897Y00004236186D02*
X00067741800Y00003917696D01*
X00064015975Y00004284675D02*
X00064207593Y00004571288D01*
X00043324881Y00004199890D02*
X00063975081D01*
X00063858190Y00003917696D02*
X00063990093Y00004236186D01*
X00063858190Y00002682290D02*
X00063990093Y00002363774D01*
X00063774980Y00003072892D02*
X00063842290Y00002734792D01*
X00067609897Y00002363774D02*
X00067741800Y00002682290D01*
X00063774980Y00003527094D02*
X00063842290Y00003865194D01*
X00043407685Y00002599893D02*
X00063892277D01*
X00043530393Y00003399891D02*
X00063769595D01*
X00043530393Y00003299993D02*
Y00003472383D01*
X00063769595Y00003299993D02*
Y00003472383D01*
X00043470677Y00003799890D02*
X00063829285D01*
X00043309895Y00004236186D02*
X00043441797Y00003917696D01*
X00043457698Y00003865194D02*
X00043524982Y00003527094D01*
X00063769595Y00003127578D02*
Y00003299993D01*
X00043530393Y00003127578D02*
Y00003299993D01*
X00043510479Y00002999892D02*
X00063789483D01*
X00043457698Y00002734792D02*
X00043524982Y00003072892D01*
X00043309895Y00002363774D02*
X00043441797Y00002682290D01*
X00067506875Y00002199894D02*
X00100793092D01*
X00067392397Y00002028698D02*
X00067583989Y00002315286D01*
X00067171290Y00001799996D02*
X00101128576D01*
X00067113785Y00001742389D02*
X00067357599Y00001986178D01*
X00066784677Y00001515999D02*
X00067071290Y00001707591D01*
X00064863776Y00001490091D02*
X00065182191Y00001358188D01*
X00066518485Y00001399997D02*
X00101781483D01*
X00066417698Y00001358188D02*
X00066736188Y00001490091D01*
X00066027096Y00001274978D02*
X00066365196Y00001342186D01*
X00065234794D02*
X00065572894Y00001274978D01*
X00065627580Y00001269593D02*
X00065972385D01*
X00064015975Y00002315286D02*
X00064207593Y00002028698D01*
X00043206898Y00002199894D02*
X00064093090D01*
X00064242391Y00001986178D02*
X00064486180Y00001742389D01*
X00043092395Y00002028698D02*
X00043283987Y00002315286D01*
X00042813782Y00001742389D02*
X00043057597Y00001986178D01*
X00042871288Y00001799996D02*
X00064428598D01*
X00042484675Y00001515999D02*
X00042771288Y00001707591D01*
X00064528700D02*
X00064815288Y00001515999D01*
X00042218483Y00001399997D02*
X00065081480D01*
X00042117695Y00001358188D02*
X00042436186Y00001490091D01*
X00026199896Y00006106083D02*
Y00006293688D01*
X00025799897Y00006106083D02*
Y00006293688D01*
X00026599896Y00006106083D02*
Y00006293688D01*
X00024999899Y00006106083D02*
Y00006293688D01*
X00024599900Y00006106083D02*
Y00006293688D01*
X00025399898Y00006106083D02*
Y00006293688D01*
X00027799893Y00006106083D02*
Y00006293688D01*
X00027399894Y00006106083D02*
Y00006293688D01*
X00028199892Y00006042177D02*
Y00006293688D01*
X00023632083Y00006106083D02*
X00028029484D01*
X00026999895D02*
Y00006293688D01*
X00023799876Y00006106083D02*
Y00006293688D01*
X00023399877Y00006214795D02*
Y00006293688D01*
X00024199875Y00006106083D02*
Y00006293688D01*
X00023168889Y00006202299D02*
X00023276179Y00006223584D01*
X00022999877Y00006106287D02*
Y00006293688D01*
X00022599878Y00006062776D02*
Y00006293688D01*
X00023276280Y00006223584D02*
X00023355477D01*
X00023095686Y00006171895D02*
X00023168889Y00006202299D01*
X00023462792D02*
X00023536097Y00006171895D01*
X00022824897Y00006106083D02*
X00022999598D01*
X00022720477D02*
X00022824897D01*
X00040599893Y00005124780D02*
Y00006293688D01*
X00040199894Y00004866690D02*
Y00006293688D01*
X00039799895Y00004410176D02*
Y00006293688D01*
X00030599888Y00005358079D02*
Y00006293688D01*
X00030199888Y00005572785D02*
Y00006293688D01*
X00030999887Y00004511294D02*
Y00006293688D01*
X00041799891Y00005310479D02*
Y00006293688D01*
X00041399891Y00005330393D02*
Y00006293688D01*
X00042199890Y00005207787D02*
Y00006293688D01*
X00040999892Y00005270677D02*
Y00006293688D01*
X00029799889Y00005456097D02*
Y00006293688D01*
X00028279775Y00006002375D02*
X00028427476Y00005854776D01*
X00029399890Y00004511294D02*
Y00006293688D01*
X00028060599Y00006099886D02*
X00028253486Y00006019977D01*
X00022496475D02*
X00022689388Y00006099886D01*
X00022322485Y00005854700D02*
X00022470084Y00006002375D01*
X00028531083Y00005499989D02*
Y00005604383D01*
X00028444977Y00005828385D02*
X00028524987Y00005635498D01*
X00028531083Y00001299997D02*
Y00005499989D01*
X00022225000Y00005635396D02*
X00022304883Y00005828385D01*
X00022218777Y00005499887D02*
Y00001349984D01*
X00016599890Y00006081191D02*
Y00006293688D01*
X00016199891Y00006081191D02*
Y00006293688D01*
X00015799892Y00006081191D02*
Y00006293688D01*
X00015399893Y00006081191D02*
Y00006293688D01*
X00014999893Y00006081191D02*
Y00006293688D01*
X00014599894Y00006081191D02*
Y00006293688D01*
X00016680484Y00006074994D02*
X00016864279Y00005998895D01*
X00016549979Y00006081191D02*
X00016649496D01*
X00016999889Y00005871997D02*
Y00006293688D01*
X00000306298Y00006199886D02*
X00023163276D01*
X00011399977Y00006081191D02*
X00016549979D01*
X00012599898D02*
Y00006293688D01*
X00012199899Y00006081191D02*
Y00006293688D01*
X00012999897Y00006081191D02*
Y00006293688D01*
X00011799874Y00006081191D02*
Y00006293688D01*
X00011399875Y00006081191D02*
Y00006293688D01*
X00010999876Y00005921781D02*
Y00006293688D01*
X00013799896Y00006081191D02*
Y00006293688D01*
X00013399897Y00006081191D02*
Y00006293688D01*
X00014199895Y00006081191D02*
Y00006293688D01*
X00011300688Y00006081191D02*
X00011399977D01*
X00011086287Y00005999175D02*
X00011269675Y00006074994D01*
X00019399885Y00004511294D02*
Y00006293688D01*
X00018999885Y00005517794D02*
Y00006293688D01*
X00019799884Y00004511294D02*
Y00006293688D01*
X00018599886Y00005555081D02*
Y00006293688D01*
X00018199887Y00005167376D02*
Y00006293688D01*
X00017799888Y00004511294D02*
Y00006293688D01*
X00019163080Y00005399887D02*
X00022218777D01*
Y00005604383D02*
Y00005499887D01*
X00017054779Y00005799886D02*
X00022293097D01*
X00017131182Y00005399887D02*
X00018336895D01*
X00016890593Y00005981293D02*
X00017031284Y00005840577D01*
X00010919383Y00005841492D02*
X00011059998Y00005981700D01*
X00017048886Y00005814288D02*
X00017124984Y00005630494D01*
X00000306298Y00005799886D02*
X00010895380D01*
X00010825378Y00005632094D02*
X00010901781Y00005815279D01*
X00017131182Y00001299997D02*
Y00005499989D01*
Y00005599480D01*
X00010818799Y00005501589D02*
Y00001299997D01*
Y00005501894D02*
X00010819079Y00005601081D01*
X00000306298Y00005399887D02*
X00010818799D01*
X00041327578Y00005330393D02*
X00041672383D01*
X00040934792Y00005257800D02*
X00041272891Y00005324983D01*
X00041727094D02*
X00042065194Y00005257800D01*
X00040563800Y00005109895D02*
X00040882189Y00005241798D01*
X00030724983Y00004999888D02*
X00040389479D01*
X00040228697Y00004892395D02*
X00040515286Y00005083987D01*
X00039942389Y00004613783D02*
X00040186178Y00004857597D01*
X00039715998Y00004284675D02*
X00039907591Y00004571288D01*
X00039558188Y00003917696D02*
X00039690090Y00004236186D01*
X00030624983Y00004599889D02*
X00039933194D01*
X00031274994Y00004199890D02*
X00039675079D01*
X00029674997Y00004511294D02*
Y00004675987D01*
X00030624983Y00004511294D02*
Y00004675987D01*
X00028531083Y00005399887D02*
X00029736897D01*
X00028531083Y00004999888D02*
X00029574998D01*
X00028531083Y00004599889D02*
X00029674997D01*
X00030624983Y00004511294D02*
X00031274994D01*
X00029024986D02*
X00029674997D01*
X00031274994Y00003799890D02*
X00039529283D01*
X00028531083Y00004199890D02*
X00029024986D01*
X00028531083Y00003799890D02*
X00029024986D01*
X00039942389Y00001986178D02*
X00040186178Y00001742389D01*
X00039715998Y00002315286D02*
X00039907591Y00002028698D01*
X00040228697Y00001707591D02*
X00040515286Y00001515999D01*
X00031274994Y00002199894D02*
X00039793087D01*
X00039558188Y00002682290D02*
X00039690090Y00002363774D01*
X00031274994Y00001799996D02*
X00040128698D01*
X00041727094Y00001274978D02*
X00042065194Y00001342186D01*
X00040934792D02*
X00041272891Y00001274978D01*
X00041327578Y00001269593D02*
X00041672383D01*
X00031274994Y00001399997D02*
X00040781478D01*
X00040563800Y00001490091D02*
X00040882189Y00001358188D01*
X00039474978Y00003527094D02*
X00039542288Y00003865194D01*
X00039469593Y00003299993D02*
Y00003472383D01*
Y00003127578D02*
Y00003299993D01*
X00028531083Y00003399891D02*
X00029024986D01*
X00031274994D02*
X00039469593D01*
X00039474978Y00003072892D02*
X00039542288Y00002734792D01*
X00031274994Y00002999892D02*
X00039489481D01*
X00031274994Y00002599893D02*
X00039592275D01*
X00028531083Y00002999892D02*
X00029024986D01*
X00028531083Y00002599893D02*
X00029024986D01*
X00019224980Y00004599889D02*
X00022218777D01*
X00019324980Y00004999888D02*
X00022218777D01*
X00019224980Y00004511294D02*
Y00004675987D01*
X00017131182Y00004599889D02*
X00018274995D01*
Y00004511294D02*
Y00004675987D01*
X00019874992Y00003799890D02*
X00022218777D01*
X00019874992Y00004199890D02*
X00022218777D01*
X00019874992Y00003399891D02*
X00022218777D01*
X00017624983Y00004511294D02*
X00018274995D01*
X00019224980D02*
X00019874992D01*
X00018199887D02*
Y00004832578D01*
X00017131182Y00004999888D02*
X00018174995D01*
X00017131182Y00004199890D02*
X00017624983D01*
X00000306298Y00004599889D02*
X00010818799D01*
X00000306298Y00004999888D02*
X00010818799D01*
X00000306298Y00004199890D02*
X00010818799D01*
X00017131182Y00003799890D02*
X00017624983D01*
X00000306298Y00003399891D02*
X00010818799D01*
X00017131182D02*
X00017624983D01*
X00000306298Y00003799890D02*
X00010818799D01*
X00000306298Y00002999892D02*
X00010818799D01*
X00028531083Y00002199894D02*
X00029024986D01*
X00019874992Y00001799996D02*
X00022218777D01*
X00028531083D02*
X00029024986D01*
X00019874992Y00002599893D02*
X00022218777D01*
X00019874992Y00002999892D02*
X00022218777D01*
X00019874992Y00002199894D02*
X00022218777D01*
X00028531083Y00001399997D02*
X00029024986D01*
X00022218777Y00001245590D02*
Y00001349984D01*
X00028531083Y00001299997D02*
Y00001205484D01*
X00017131182Y00001399997D02*
X00017624983D01*
X00019874992D02*
X00022218777D01*
X00017131182Y00002599893D02*
X00017624983D01*
X00017131182Y00002999892D02*
X00017624983D01*
X00017131182Y00002199894D02*
X00017624983D01*
X00000306298Y00002599893D02*
X00010818799D01*
X00000306298Y00002199894D02*
X00010818799D01*
X00017131182Y00001799996D02*
X00017624983D01*
X00017131182Y00001299997D02*
Y00001200480D01*
X00010818799D02*
Y00001299997D01*
X00000306298Y00001799996D02*
X00010818799D01*
X00000306298Y00001399997D02*
X00010818799D01*
X00089399795Y00000306298D02*
Y00006293688D01*
X00088999796Y00000306298D02*
Y00006293688D01*
X00089799795Y00000306298D02*
Y00006293688D01*
X00088199798Y00000306298D02*
Y00006293688D01*
X00087799799Y00000306298D02*
Y00006293688D01*
X00088599797Y00000306298D02*
Y00006293688D01*
X00091399791Y00000306298D02*
Y00006293688D01*
X00090999792Y00000306298D02*
Y00006293688D01*
X00091799791Y00000306298D02*
Y00006293688D01*
X00090199794Y00000306298D02*
Y00006293688D01*
X00090599793Y00000306298D02*
Y00006293688D01*
X00084999779Y00000306298D02*
Y00006293688D01*
X00084599780Y00000306298D02*
Y00006293688D01*
X00085399778Y00000306298D02*
Y00006293688D01*
X00083799781Y00000306298D02*
Y00006293688D01*
X00083399782Y00000306298D02*
Y00006293688D01*
X00084199780Y00000306298D02*
Y00006293688D01*
X00086999775Y00000306298D02*
Y00006293688D01*
X00086599776Y00000306298D02*
Y00006293688D01*
X00087399799Y00000306298D02*
Y00006293688D01*
X00085799777Y00000306298D02*
Y00006293688D01*
X00086199776Y00000306298D02*
Y00006293688D01*
X00098199778Y00000306298D02*
Y00006293688D01*
X00097799779Y00000306298D02*
Y00006293688D01*
X00098599675Y00000306298D02*
Y00006293688D01*
X00096999780Y00000306298D02*
Y00006293688D01*
X00096599781Y00000306298D02*
Y00006293688D01*
X00097399678Y00000306298D02*
Y00006293688D01*
X00100199799Y00000306298D02*
Y00006293688D01*
X00099799775Y00000306298D02*
Y00006293688D01*
X00104999688Y00000306298D02*
Y00006293688D01*
X00098999675Y00000306298D02*
Y00006293688D01*
X00099399699Y00000306298D02*
Y00006293688D01*
X00093799787Y00000306298D02*
Y00006293688D01*
X00093399787Y00000306298D02*
Y00006293688D01*
X00094199786Y00000306298D02*
Y00006293688D01*
X00092599789Y00000306298D02*
Y00006293688D01*
X00092199790Y00000306298D02*
Y00006293688D01*
X00092999788Y00000306298D02*
Y00006293688D01*
X00095799783Y00000306298D02*
Y00006293688D01*
X00095399783Y00000306298D02*
Y00006293688D01*
X00096199782Y00000306298D02*
Y00006293688D01*
X00094599785Y00000306298D02*
Y00006293688D01*
X00094999784Y00000306298D02*
Y00006293688D01*
X00072199779Y00000306298D02*
Y00006293688D01*
X00071799780Y00000306298D02*
Y00006293688D01*
X00072599778Y00000306298D02*
Y00006293688D01*
X00070999781Y00000306298D02*
Y00006293688D01*
X00070599782Y00000306298D02*
Y00006293688D01*
X00071399781Y00000306298D02*
Y00006293688D01*
X00074199775Y00000306298D02*
Y00006293688D01*
X00073799776Y00000306298D02*
Y00006293688D01*
X00074599800Y00000306298D02*
Y00006293688D01*
X00072999777Y00000306298D02*
Y00006293688D01*
X00073399777Y00000306298D02*
Y00006293688D01*
X00063399797Y00000306298D02*
Y00006293688D01*
X00062999797Y00000306298D02*
Y00006293688D01*
X00068199787Y00000306298D02*
Y00006293688D01*
X00062199799Y00000306298D02*
Y00006293688D01*
X00061799774Y00000306298D02*
Y00006293688D01*
X00062599798Y00000306298D02*
Y00006293688D01*
X00069799784Y00000306298D02*
Y00006293688D01*
X00069399785Y00000306298D02*
Y00006293688D01*
X00070199783Y00000306298D02*
Y00006293688D01*
X00068599786Y00000306298D02*
Y00006293688D01*
X00068999785Y00000306298D02*
Y00006293688D01*
X00080599788Y00000306298D02*
Y00006293688D01*
X00080199788Y00000306298D02*
Y00006293688D01*
X00080999787Y00000306298D02*
Y00006293688D01*
X00079399790Y00000306298D02*
Y00006293688D01*
X00078999791Y00000306298D02*
Y00006293688D01*
X00079799789Y00000306298D02*
Y00006293688D01*
X00082599784Y00000306298D02*
Y00006293688D01*
X00082199784Y00000306298D02*
Y00006293688D01*
X00082999783Y00000306298D02*
Y00006293688D01*
X00081399786Y00000306298D02*
Y00006293688D01*
X00081799785Y00000306298D02*
Y00006293688D01*
X00076199796Y00000306298D02*
Y00006293688D01*
X00075799797Y00000306298D02*
Y00006293688D01*
X00076599796Y00000306298D02*
Y00006293688D01*
X00074999799Y00000306298D02*
Y00006293688D01*
X00075399798Y00000306298D02*
Y00006293688D01*
X00078199792Y00000306298D02*
Y00006293688D01*
X00077799793Y00000306298D02*
Y00006293688D01*
X00078599792Y00000306298D02*
Y00006293688D01*
X00076999795Y00000306298D02*
Y00006293688D01*
X00077399794Y00000306298D02*
Y00006293688D01*
X00125846179Y00000999896D02*
X00126274982D01*
X00125798884Y00000885698D02*
X00125874983Y00001069492D01*
X00125640592Y00000718693D02*
X00125781282Y00000859383D01*
X00119418684D02*
X00119559374Y00000718693D01*
X00119324983Y00001069492D02*
X00119401082Y00000885698D01*
X00119585689Y00000701090D02*
X00119769483Y00000624992D01*
X00125430483D02*
X00125614277Y00000701090D01*
X00119899988Y00000618794D02*
X00125299978D01*
X00125399495*
X00119800497D02*
X00119899988D01*
X00119799684Y00000306298D02*
Y00000619175D01*
X00116999689Y00000306298D02*
Y00006293688D01*
X00116599690Y00000306298D02*
Y00006293688D01*
X00117399689Y00000306298D02*
Y00006293688D01*
X00115799692Y00000306298D02*
Y00006293688D01*
X00115399693Y00000306298D02*
Y00006293688D01*
X00116199691Y00000306298D02*
Y00006293688D01*
X00118999685Y00000306298D02*
Y00006293688D01*
X00118599686Y00000306298D02*
Y00006293688D01*
X00119399685Y00000306298D02*
Y00000889076D01*
X00117799688Y00000306298D02*
Y00006293688D01*
X00118199687Y00000306298D02*
Y00006293688D01*
X00125399698Y00000306298D02*
Y00000618896D01*
X00124199675Y00000306298D02*
Y00000618794D01*
X00125799697Y00000306298D02*
Y00000887679D01*
X00123399677Y00000306298D02*
Y00000618794D01*
X00122999677Y00000306298D02*
Y00000618794D01*
X00123799676Y00000306298D02*
Y00000618794D01*
X00124599700Y00000306298D02*
Y00000618794D01*
X00122599678Y00000306298D02*
Y00000618794D01*
X00124999699Y00000306298D02*
Y00000618794D01*
X00121799680Y00000306298D02*
Y00000618794D01*
X00122199679Y00000306298D02*
Y00000618794D01*
X00114199695Y00000306298D02*
Y00006293688D01*
X00113799696Y00000306298D02*
Y00006293688D01*
X00114599694Y00000306298D02*
Y00006293688D01*
X00112999697Y00000306298D02*
Y00006293688D01*
X00112599698Y00000306298D02*
Y00006293688D01*
X00113399697Y00000306298D02*
Y00006293688D01*
X00120999681Y00000306298D02*
Y00000618794D01*
X00120599682Y00000306298D02*
Y00000618794D01*
X00121399681Y00000306298D02*
Y00000618794D01*
X00114999693Y00000306298D02*
Y00006293688D01*
X00120199683Y00000306298D02*
Y00000618794D01*
X00102999692Y00000306298D02*
Y00001329182D01*
X00101799796Y00000306298D02*
Y00001392377D01*
X00103399691Y00000306298D02*
Y00001474978D01*
X00100999696Y00000306298D02*
Y00001928876D01*
X00100599697Y00000306298D02*
Y00002581986D01*
X00101399695Y00000306298D02*
Y00001593189D01*
X00031274994Y00000599998D02*
X00126274982D01*
X00102199694Y00000306298D02*
Y00001289583D01*
X00102599693Y00000306298D02*
Y00001269593D01*
X00031274994Y00000999896D02*
X00119353787D01*
X00000306298Y00000306298D02*
X00204691183D01*
X00067399789D02*
Y00002039696D01*
X00066999789Y00000306298D02*
Y00001659788D01*
X00067799788Y00000306298D02*
Y00002946298D01*
X00064199795Y00000306298D02*
Y00002040178D01*
X00063799796Y00000306298D02*
Y00002948076D01*
X00064599794Y00000306298D02*
Y00001659991D01*
X00066199791Y00000306298D02*
Y00001309395D01*
X00065799792Y00000306298D02*
Y00001269593D01*
X00066599790Y00000306298D02*
Y00001433576D01*
X00064999793Y00000306298D02*
Y00001433779D01*
X00065399793Y00000306298D02*
Y00001309395D01*
X00109799678Y00000306298D02*
Y00006293688D01*
X00109399679Y00000306298D02*
Y00006293688D01*
X00110199678Y00000306298D02*
Y00006293688D01*
X00108599681Y00000306298D02*
Y00006293688D01*
X00108199682Y00000306298D02*
Y00006293688D01*
X00108999680Y00000306298D02*
Y00006293688D01*
X00111799674Y00000306298D02*
Y00006293688D01*
X00111399675Y00000306298D02*
Y00006293688D01*
X00112199699Y00000306298D02*
Y00006293688D01*
X00110599677Y00000306298D02*
Y00006293688D01*
X00110999676Y00000306298D02*
Y00006293688D01*
X00106199686Y00000306298D02*
Y00006293688D01*
X00105799686Y00000306298D02*
Y00006293688D01*
X00106599685Y00000306298D02*
Y00006293688D01*
X00104599689Y00000306298D02*
Y00006293688D01*
X00105399687Y00000306298D02*
Y00006293688D01*
X00107399683Y00000306298D02*
Y00006293688D01*
X00106999684Y00000306298D02*
Y00006293688D01*
X00107799682Y00000306298D02*
Y00006293688D01*
X00103799690Y00000306298D02*
Y00001732991D01*
X00104199690Y00000306298D02*
Y00002189175D01*
X00050199798Y00000306298D02*
Y00006293688D01*
X00049799875Y00000306298D02*
Y00006293688D01*
X00050599797Y00000306298D02*
Y00006293688D01*
X00048999876Y00000306298D02*
Y00006293688D01*
X00048599775Y00000306298D02*
Y00006293688D01*
X00049399799Y00000306298D02*
Y00006293688D01*
X00052199794Y00000306298D02*
Y00006293688D01*
X00051799896Y00000306298D02*
Y00006293688D01*
X00052599793Y00000306298D02*
Y00006293688D01*
X00050999898Y00000306298D02*
Y00006293688D01*
X00051399795Y00000306298D02*
Y00006293688D01*
X00045799883Y00000306298D02*
Y00006293688D01*
X00045399883Y00000306298D02*
Y00006293688D01*
X00046199882Y00000306298D02*
Y00006293688D01*
X00044599885Y00000306298D02*
Y00006293688D01*
X00044199886Y00000306298D02*
Y00006293688D01*
X00044999884Y00000306298D02*
Y00006293688D01*
X00047799879Y00000306298D02*
Y00006293688D01*
X00047399778Y00000306298D02*
Y00006293688D01*
X00048199776Y00000306298D02*
Y00006293688D01*
X00046599881Y00000306298D02*
Y00006293688D01*
X00046999880Y00000306298D02*
Y00006293688D01*
X00058999780Y00000306298D02*
Y00006293688D01*
X00058599781Y00000306298D02*
Y00006293688D01*
X00059399779Y00000306298D02*
Y00006293688D01*
X00057799782Y00000306298D02*
Y00006293688D01*
X00057399783Y00000306298D02*
Y00006293688D01*
X00058199782Y00000306298D02*
Y00006293688D01*
X00060999776Y00000306298D02*
Y00006293688D01*
X00060599777Y00000306298D02*
Y00006293688D01*
X00061399775Y00000306298D02*
Y00006293688D01*
X00059799778Y00000306298D02*
Y00006293688D01*
X00060199778Y00000306298D02*
Y00006293688D01*
X00054599789Y00000306298D02*
Y00006293688D01*
X00054199790Y00000306298D02*
Y00006293688D01*
X00054999788Y00000306298D02*
Y00006293688D01*
X00053399791Y00000306298D02*
Y00006293688D01*
X00052999792Y00000306298D02*
Y00006293688D01*
X00053799790Y00000306298D02*
Y00006293688D01*
X00056599785Y00000306298D02*
Y00006293688D01*
X00056199786Y00000306298D02*
Y00006293688D01*
X00056999784Y00000306298D02*
Y00006293688D01*
X00055399787Y00000306298D02*
Y00006293688D01*
X00055799786Y00000306298D02*
Y00006293688D01*
X00006199886Y00000306298D02*
Y00006293688D01*
X00005799886Y00000306298D02*
Y00006293688D01*
X00006599885Y00000306298D02*
Y00006293688D01*
X00004999888Y00000306298D02*
Y00006293688D01*
X00004599889Y00000306298D02*
Y00006293688D01*
X00005399887Y00000306298D02*
Y00006293688D01*
X00008199882Y00000306298D02*
Y00006293688D01*
X00007799882Y00000306298D02*
Y00006293688D01*
X00008599881Y00000306298D02*
Y00006293688D01*
X00006999884Y00000306298D02*
Y00006293688D01*
X00007399883Y00000306298D02*
Y00006293688D01*
X00001799996Y00000306298D02*
Y00006293688D01*
X00001399997Y00000306298D02*
Y00006293688D01*
X00002199894Y00000306298D02*
Y00006293688D01*
X00000599998Y00000306298D02*
Y00006293688D01*
X00000306298Y00000306298D02*
Y00006293688D01*
X00000999896Y00000306298D02*
Y00006293688D01*
X00003799890Y00000306298D02*
Y00006293688D01*
X00003399891Y00000306298D02*
Y00006293688D01*
X00004199890Y00000306298D02*
Y00006293688D01*
X00002599893Y00000306298D02*
Y00006293688D01*
X00002999892Y00000306298D02*
Y00006293688D01*
X00037399899Y00000306298D02*
Y00006293688D01*
X00036999875Y00000306298D02*
Y00006293688D01*
X00037799899Y00000306298D02*
Y00006293688D01*
X00022199879Y00000306298D02*
Y00006293688D01*
X00021799880Y00000306298D02*
Y00006293688D01*
X00035399878Y00000306298D02*
Y00006293688D01*
X00039399895Y00000306298D02*
Y00006293688D01*
X00038999896Y00000306298D02*
Y00006293688D01*
X00043799887Y00000306298D02*
Y00006293688D01*
X00038199898Y00000306298D02*
Y00006293688D01*
X00038599897Y00000306298D02*
Y00006293688D01*
X00010199878Y00000306298D02*
Y00006293688D01*
X00009799878Y00000306298D02*
Y00006293688D01*
X00010599877Y00000306298D02*
Y00006293688D01*
X00008999880Y00000306298D02*
Y00006293688D01*
X00009399879Y00000306298D02*
Y00006293688D01*
X00020999881Y00000306298D02*
Y00006293688D01*
X00020599882Y00000306298D02*
Y00006293688D01*
X00021399881Y00000306298D02*
Y00006293688D01*
X00017399889Y00000306298D02*
Y00006293688D01*
X00020199883Y00000306298D02*
Y00006293688D01*
X00031399886Y00000306298D02*
Y00006293688D01*
X00031274994Y00000361289D02*
Y00004511294D01*
X00031799885Y00000306298D02*
Y00006293688D01*
X00029024986Y00000361289D02*
Y00004511294D01*
X00028599892Y00000306298D02*
Y00006293688D01*
X00028999891Y00000306298D02*
Y00006293688D01*
X00028452699Y00000999896D02*
X00029024986D01*
X00028452597Y00000999794D02*
X00028524987Y00001174394D01*
X00029024986Y00000361289D02*
X00031274994D01*
X00028301391Y00000839774D02*
X00028434995Y00000973480D01*
X00028100477Y00000749884D02*
X00028275076Y00000822198D01*
X00027974899Y00000743686D02*
X00028069387D01*
X00025799897Y00000306298D02*
Y00000743686D01*
X00028199892Y00000306298D02*
Y00000791083D01*
X00024999899Y00000306298D02*
Y00000743686D01*
X00024599900Y00000306298D02*
Y00000743686D01*
X00025399898Y00000306298D02*
Y00000743686D01*
X00027399894Y00000306298D02*
Y00000743686D01*
X00026999895Y00000306298D02*
Y00000743686D01*
X00027799893Y00000306298D02*
Y00000743686D01*
X00026199896Y00000306298D02*
Y00000743686D01*
X00026599896Y00000306298D02*
Y00000743686D01*
X00042999888Y00000306298D02*
Y00001928495D01*
X00042599889Y00000306298D02*
Y00001592986D01*
X00043399887Y00000306298D02*
Y00002580995D01*
X00039799895Y00000306298D02*
Y00002189784D01*
X00036599876Y00000306298D02*
Y00006293688D01*
X00040199894Y00000306298D02*
Y00001733296D01*
X00041799891Y00000306298D02*
Y00001289481D01*
X00041399891Y00000306298D02*
Y00001269593D01*
X00042199890Y00000306298D02*
Y00001392199D01*
X00040599893Y00000306298D02*
Y00001475181D01*
X00040999892Y00000306298D02*
Y00001329283D01*
X00033399882Y00000306298D02*
Y00006293688D01*
X00032999883Y00000306298D02*
Y00006293688D01*
X00033799881Y00000306298D02*
Y00006293688D01*
X00032199884Y00000306298D02*
Y00006293688D01*
X00032599884Y00000306298D02*
Y00006293688D01*
X00035799877Y00000306298D02*
Y00006293688D01*
X00034999879Y00000306298D02*
Y00006293688D01*
X00036199876Y00000306298D02*
Y00006293688D01*
X00034199880Y00000306298D02*
Y00006293688D01*
X00034599880Y00000306298D02*
Y00006293688D01*
X00022322485Y00000995197D02*
X00022470186Y00000847394D01*
X00022225000Y00001214475D02*
X00022304883Y00001021486D01*
X00022496576Y00000829792D02*
X00022689591Y00000749884D01*
X00019874992Y00000999896D02*
X00022320478D01*
X00017624983Y00000361289D02*
Y00004511294D01*
X00019874992Y00000361289D02*
Y00004511294D01*
X00022825075Y00000743686D02*
X00027974899D01*
X00022720579D02*
X00022825075D01*
X00019874992Y00000599998D02*
X00029024986D01*
X00000306298D02*
X00017624983D01*
Y00000361289D02*
X00019874992D01*
X00017054779Y00000999896D02*
X00017624983D01*
X00017048886Y00000985697D02*
X00017124984Y00001169492D01*
X00016890593Y00000818692D02*
X00017031284Y00000959383D01*
X00010824997Y00001169492D02*
X00010901095Y00000985697D01*
X00000306298Y00000999896D02*
X00010895177D01*
X00010918698Y00000959281D02*
X00011059388Y00000818692D01*
X00016680484Y00000724992D02*
X00016864279Y00000801090D01*
X00011399977Y00000718794D02*
X00016549979D01*
X00016649496*
X00011085677Y00000801090D02*
X00011269497Y00000724992D01*
X00011300587Y00000718794D02*
X00011399977D01*
X00023799876Y00000306298D02*
Y00000743686D01*
X00023399877Y00000306298D02*
Y00000743686D01*
X00024199875Y00000306298D02*
Y00000743686D01*
X00022599878Y00000306298D02*
Y00000786993D01*
X00016999889Y00000306298D02*
Y00000927989D01*
X00022999877Y00000306298D02*
Y00000743686D01*
X00016199891Y00000306298D02*
Y00000718794D01*
X00015799892Y00000306298D02*
Y00000718794D01*
X00016599890Y00000306298D02*
Y00000718794D01*
X00014999893Y00000306298D02*
Y00000718794D01*
X00015399893Y00000306298D02*
Y00000718794D01*
X00012199899Y00000306298D02*
Y00000718794D01*
X00011799874Y00000306298D02*
Y00000718794D01*
X00012599898Y00000306298D02*
Y00000718794D01*
X00010999876Y00000306298D02*
Y00000878078D01*
X00011399875Y00000306298D02*
Y00000718794D01*
X00014199895Y00000306298D02*
Y00000718794D01*
X00013799896Y00000306298D02*
Y00000718794D01*
X00014599894Y00000306298D02*
Y00000718794D01*
X00012999897Y00000306298D02*
Y00000718794D01*
X00013399897Y00000306298D02*
Y00000718794D01*
G54D12*
X00157749976Y00002436190D02*
Y00004999990D01*
X00148149995Y00002386279D02*
Y00004949977D01*
X00138149990Y00002436190D02*
Y00004999990D01*
X00127399999Y00002486177D02*
Y00005049977D01*
X00030149977Y00002436190D02*
Y00004999990D01*
X00018749975Y00002436190D02*
Y00004999990D01*
G54D13*
X00203249987Y00003249980D03*
X00173249996Y00000749985D03*
X00171249975D03*
X00163249991D03*
X00165249987D03*
X00167249983D03*
X00169249979D03*
X00161249995D03*
X00193249981D03*
X00199249995D03*
X00197249999D03*
X00195249977D03*
X00183249976D03*
X00185249997D03*
X00181249980D03*
X00203249987D03*
X00201249991D03*
Y00005999988D03*
X00203249987D03*
X00181249980D03*
X00185249997D03*
X00183249976D03*
X00195249977D03*
X00197249999D03*
X00199249995D03*
X00193249981D03*
X00161249995D03*
X00169249979D03*
X00167249983D03*
X00165249987D03*
X00163249991D03*
X00171249975D03*
X00173249996D03*
X00159249999D03*
Y00000749985D03*
Y00003249980D03*
X00148499982Y00005999988D03*
X00138999976D03*
X00128999996D03*
Y00000749985D03*
Y00003249980D03*
X00117749980D03*
X00039749984Y00000749985D03*
X00037749988D03*
X00035749992D03*
X00033749996D03*
X00047749993D03*
X00045749997D03*
X00043749976D03*
X00041749980D03*
X00055749977D03*
X00053749981D03*
X00051749985D03*
X00049749989D03*
X00063749986D03*
X00061749990D03*
X00059749994D03*
X00057749998D03*
X00071749996D03*
X00069749974D03*
X00067749978D03*
X00065749982D03*
X00079749980D03*
X00077749984D03*
X00075749988D03*
X00073749992D03*
X00087749989D03*
X00085749993D03*
X00083749997D03*
X00081749976D03*
X00101749987D03*
X00103749983D03*
X00105749979D03*
X00107749975D03*
X00093749977D03*
X00095749999D03*
X00097749995D03*
X00099749991D03*
X00089749985D03*
X00091749981D03*
X00115749984D03*
X00113749988D03*
X00111749992D03*
X00109749996D03*
X00117749980D03*
Y00005999988D03*
X00109749996D03*
X00111749992D03*
X00113749988D03*
X00115749984D03*
X00091749981D03*
X00089749985D03*
X00099749991D03*
X00097749995D03*
X00095749999D03*
X00093749977D03*
X00107749975D03*
X00105749979D03*
X00103749983D03*
X00101749987D03*
X00081749976D03*
X00083749997D03*
X00085749993D03*
X00087749989D03*
X00073749992D03*
X00075749988D03*
X00077749984D03*
X00079749980D03*
X00065749982D03*
X00067749978D03*
X00069749974D03*
X00071749996D03*
X00057749998D03*
X00059749994D03*
X00061749990D03*
X00063749986D03*
X00049749989D03*
X00051749985D03*
X00053749981D03*
X00055749977D03*
X00041749980D03*
X00043749976D03*
X00045749997D03*
X00047749993D03*
X00033749996D03*
X00035749992D03*
X00037749988D03*
X00039749984D03*
X00031750000D03*
Y00000749985D03*
Y00003249980D03*
X00020999983Y00000749985D03*
Y00003249980D03*
X00018999987Y00005999988D03*
X00020999983D03*
X00008749995D03*
X00006499987Y00000749985D03*
X00004499991D03*
X00002749981D03*
X00000749985Y00003249980D03*
Y00000749985D03*
X00006749999Y00005999988D03*
X00004749977D03*
X00002749981D03*
X00000749985D03*
X00157749976Y00004999990D03*
X00148149995Y00004949977D03*
X00138149990Y00004999990D03*
X00127399999Y00005049977D03*
X00030149977Y00004999990D03*
X00018749975D03*
G54D14*
X00157749976Y00002436190D03*
X00148149995Y00002386279D03*
X00138149990Y00002436190D03*
X00127399999Y00002486177D03*
X00030149977Y00002436190D03*
X00018749975D03*
X00008999982D03*
M02*