%FSDAX56Y56*%
%MOMM*%
%SFA1B1*%

%IPPOS*%
%ADD17C,0.050000*%
%LNwcam-touch-fpc-r01_manufacturing_notes-1*%
%LPD*%
G36*
X00078774391Y00005551474D02*
X00078796896D01*
X00078824683Y00005548096*
X00078855874Y00005544591*
X00078890596Y00005539384*
X00078926994Y00005532475*
X00078897480Y00005360695*
X00078894076*
X00078887091Y00005362498*
X00078874975Y00005364175*
X00078859380Y00005367680*
X00078841981Y00005369382*
X00078822880Y00005371084*
X00078781275Y00005372887*
X00078767381*
X00078750083Y00005371084*
X00078730983Y00005367680*
X00078710180Y00005364175*
X00078689276Y00005357291*
X00078670277Y00005346776*
X00078654579Y00005334685*
X00078652878Y00005332984*
X00078649398Y00005327777*
X00078642489Y00005317286*
X00078637282Y00005303494*
X00078630399Y00005282590*
X00078623388Y00005258384*
X00078619883Y00005228894*
X00078618181Y00005192395*
Y00005086578*
X00078843682*
Y00004933975*
X00078618181*
Y00003925976*
X00078422195*
Y00004933975*
X00078248687*
Y00005086578*
X00078422195*
Y00005208092*
Y00005209794*
Y00005213299*
Y00005218480*
Y00005227091*
X00078423897Y00005247995*
X00078425675Y00005273979*
X00078427376Y00005301691*
X00078430780Y00005329478*
X00078436089Y00005357291*
X00078442997Y00005381498*
Y00005383276*
X00078444699Y00005384977*
X00078448179Y00005393690*
X00078455088Y00005407583*
X00078465578Y00005424881*
X00078479396Y00005445683*
X00078496795Y00005466486*
X00078517597Y00005485587*
X00078541880Y00005504688*
X00078545283Y00005506491*
X00078555799Y00005511698*
X00078571394Y00005520283*
X00078593899Y00005528995*
X00078623388Y00005537682*
X00078658085Y00005546394*
X00078697988Y00005551474*
X00078743098Y00005553278*
X00078756992*
X00078774391Y00005551474*
G37*
G36*
X00078153285D02*
X00078175789D01*
X00078203577Y00005548096*
X00078234794Y00005544591*
X00078269490Y00005539384*
X00078305888Y00005532475*
X00078276475Y00005360695*
X00078272995*
X00078266086Y00005362498*
X00078253894Y00005364175*
X00078238299Y00005367680*
X00078220874Y00005369382*
X00078201875Y00005371084*
X00078160194Y00005372887*
X00078146275*
X00078128977Y00005371084*
X00078109876Y00005367680*
X00078089099Y00005364175*
X00078068297Y00005357291*
X00078049196Y00005346776*
X00078033575Y00005334685*
X00078031898Y00005332984*
X00078028393Y00005327777*
X00078021383Y00005317286*
X00078016176Y00005303494*
X00078009292Y00005282590*
X00078002282Y00005258384*
X00077998878Y00005228894*
X00077997075Y00005192395*
Y00005086578*
X00078222678*
Y00004933975*
X00077997075*
Y00003925976*
X00077801089*
Y00004933975*
X00077627581*
Y00005086578*
X00077801089*
Y00005208092*
Y00005209794*
Y00005213299*
Y00005218480*
Y00005227091*
X00077802790Y00005247995*
X00077804594Y00005273979*
X00077806296Y00005301691*
X00077809775Y00005329478*
X00077814982Y00005357291*
X00077821891Y00005381498*
Y00005383276*
X00077823695Y00005384977*
X00077827098Y00005393690*
X00077834083Y00005407583*
X00077844497Y00005424881*
X00077858391Y00005445683*
X00077875688Y00005466486*
X00077896491Y00005485587*
X00077920799Y00005504688*
X00077924279Y00005506491*
X00077934693Y00005511698*
X00077950288Y00005520283*
X00077972894Y00005528995*
X00078002282Y00005537682*
X00078036978Y00005546394*
X00078076983Y00005551474*
X00078122094Y00005553278*
X00078135886*
X00078153285Y00005551474*
G37*
G36*
X00090628393Y00005303494D02*
X00090432280D01*
Y00005527294*
X00090628393*
Y00005303494*
G37*
G36*
X00077455877D02*
X00077259789D01*
Y00005527294*
X00077455877*
Y00005303494*
G37*
G36*
X00075767895Y00005553278D02*
X00075786996Y00005551474D01*
X00075806096Y00005549798*
X00075828575Y00005548096*
X00075877191Y00005541086*
X00075930988Y00005530697*
X00075984785Y00005515076*
X00076036779Y00005495975*
X00076038481*
X00076041986Y00005492597*
X00076050698Y00005490794*
X00076059385Y00005485587*
X00076069799Y00005478678*
X00076083591Y00005471693*
X00076113081Y00005454396*
X00076147777Y00005430088*
X00076182499Y00005400598*
X00076215494Y00005367680*
X00076244983Y00005327777*
X00076246685Y00005325999*
X00076248488Y00005322493*
X00076251892Y00005317286*
X00076257099Y00005308676*
X00076262280Y00005298287*
X00076269291Y00005286095*
X00076274498Y00005270500*
X00076283083Y00005254879*
X00076296977Y00005218480*
X00076309194Y00005175097*
X00076319583Y00005128285*
X00076324790Y00005076190*
X00076121793Y00005060594*
Y00005062296*
X00076120091Y00005067477*
Y00005074488*
X00076118288Y00005084876*
X00076114884Y00005098796*
X00076111379Y00005112588*
X00076100990Y00005145582*
X00076087097Y00005181981*
X00076066294Y00005220182*
X00076041986Y00005256580*
X00076026391Y00005272176*
X00076008992Y00005287899*
X00076007290Y00005289575*
X00076005588Y00005291277*
X00075998578Y00005294782*
X00075991694Y00005299989*
X00075981280Y00005305196*
X00075969088Y00005312181*
X00075955296Y00005319090*
X00075939675Y00005327777*
X00075920600Y00005334685*
X00075899695Y00005341594*
X00075877191Y00005348579*
X00075852883Y00005353786*
X00075825096Y00005358993*
X00075795682Y00005362498*
X00075764390Y00005365877*
X00075714098*
X00075700178Y00005364175*
X00075684583*
X00075667285Y00005362498*
X00075646483Y00005360695*
X00075625579Y00005357291*
X00075578792Y00005348579*
X00075533681Y00005336387*
X00075490298Y00005319090*
X00075469496Y00005306898*
X00075452198Y00005294782*
X00075450395*
X00075448693Y00005291277*
X00075438279Y00005282590*
X00075424385Y00005266994*
X00075408790Y00005246192*
X00075393194Y00005221884*
X00075379275Y00005192395*
X00075368886Y00005161178*
X00075367184Y00005143881*
X00075365381Y00005124780*
Y00005123078*
Y00005121275*
X00075367184Y00005110886*
X00075368886Y00005095290*
X00075372391Y00005076190*
X00075380977Y00005053685*
X00075391391Y00005029377*
X00075405284Y00005006797*
X00075426087Y00004984292*
X00075429592Y00004982489*
X00075433097Y00004979085*
X00075439981Y00004973878*
X00075448693Y00004968595*
X00075459082Y00004963388*
X00075472975Y00004956479*
X00075488596Y00004947793*
X00075507697Y00004939182*
X00075530176Y00004930495*
X00075556287Y00004921783*
X00075585675Y00004911394*
X00075620499Y00004900980*
X00075656897Y00004890592*
X00075698477Y00004878374*
X00075745390Y00004867986*
X00075748794*
X00075757481Y00004866284*
X00075769597Y00004862779*
X00075786996Y00004857597*
X00075807798Y00004854092*
X00075832081Y00004847183*
X00075858090Y00004841976*
X00075885878Y00004833289*
X00075944882Y00004817694*
X00076003785Y00004802098*
X00076031598Y00004793386*
X00076055880Y00004784775*
X00076080188Y00004776089*
X00076099289Y00004767376*
X00076100990*
X00076106197Y00004763897*
X00076113081Y00004760493*
X00076121793Y00004755286*
X00076133883Y00004750079*
X00076147777Y00004741392*
X00076177292Y00004722291*
X00076211988Y00004699685*
X00076244983Y00004671999*
X00076277876Y00004638979*
X00076291795Y00004621682*
X00076305689Y00004604283*
Y00004602581*
X00076309194Y00004599076*
X00076312598Y00004593894*
X00076316078Y00004586986*
X00076321285Y00004578299*
X00076326492Y00004566183*
X00076340385Y00004538395*
X00076352476Y00004505375*
X00076362991Y00004467275*
X00076369875Y00004423892*
X00076373380Y00004377080*
Y00004375277*
Y00004371898*
Y00004364888*
X00076371577Y00004356277*
Y00004344085*
X00076369875Y00004331995*
X00076364693Y00004298975*
X00076355981Y00004262577*
X00076342087Y00004222699*
X00076323088Y00004180992*
X00076312598Y00004158488*
X00076298780Y00004137685*
Y00004135882*
X00076295275Y00004132478*
X00076291795Y00004127296*
X00076284886Y00004118584*
X00076269291Y00004099483*
X00076244983Y00004073499*
X00076215494Y00004045686*
X00076179095Y00004016197*
X00076137389Y00003988485*
X00076088875Y00003962476*
X00076087097*
X00076081890Y00003958996*
X00076074981Y00003957294*
X00076064592Y00003951986*
X00076052375Y00003948582*
X00076036779Y00003943375*
X00076019380Y00003936390*
X00075998578Y00003931183*
X00075977775Y00003925976*
X00075953493Y00003919093*
X00075901499Y00003910380*
X00075844196Y00003903497*
X00075781789Y00003899992*
X00075760986*
X00075745390Y00003901694*
X00075726290*
X00075705487Y00003903497*
X00075681179Y00003905199*
X00075653392Y00003908679*
X00075596191Y00003915587*
X00075535383Y00003925976*
X00075474677Y00003941597*
X00075415698Y00003962476*
X00075413997*
X00075408790Y00003965879*
X00075401881Y00003969385*
X00075391391Y00003974592*
X00075379275Y00003981475*
X00075365381Y00003988485*
X00075332488Y00004009288*
X00075295988Y00004035298*
X00075257888Y00004068292*
X00075219687Y00004106494*
X00075186692Y00004151477*
X00075184990Y00004153281*
X00075183288Y00004156786*
X00075179783Y00004163694*
X00075174576Y00004174083*
X00075167693Y00004186275*
X00075160682Y00004200093*
X00075151996Y00004217492*
X00075145087Y00004236593*
X00075136375Y00004255592*
X00075129491Y00004278198*
X00075115597Y00004328490*
X00075105183Y00004382287*
X00075101678Y00004411776*
X00075099976Y00004441291*
X00075299493Y00004458589*
Y00004456887*
Y00004453382*
X00075301195Y00004446498*
X00075302999Y00004437786*
X00075304675Y00004427397*
X00075306377Y00004416983*
X00075313387Y00004387494*
X00075322099Y00004356277*
X00075332488Y00004323283*
X00075346280Y00004290288*
X00075363679Y00004259097*
X00075365381Y00004255592*
X00075374093Y00004246981*
X00075386184Y00004233087*
X00075403583Y00004215688*
X00075426087Y00004194886*
X00075453875Y00004175785*
X00075486895Y00004154982*
X00075524995Y00004135882*
X00075526798*
X00075530176Y00004134180*
X00075535383Y00004132478*
X00075544095Y00004128998*
X00075554484Y00004125493*
X00075566676Y00004120286*
X00075580494Y00004116781*
X00075596191Y00004113377*
X00075632589Y00004104690*
X00075675998Y00004095978*
X00075721083Y00004090797*
X00075771375Y00004089095*
X00075792177*
X00075802591Y00004090797*
X00075814783*
X00075842495Y00004094276*
X00075875489Y00004097782*
X00075911887Y00004102989*
X00075948286Y00004111599*
X00075982982Y00004123791*
X00075984785*
X00075986487Y00004125493*
X00075991694Y00004127296*
X00075998578Y00004130675*
X00076014275Y00004139387*
X00076035077Y00004149775*
X00076057582Y00004163694*
X00076081890Y00004180992*
X00076102692Y00004200093*
X00076121793Y00004222699*
X00076123495Y00004226179*
X00076128778Y00004233087*
X00076137389Y00004246981*
X00076146075Y00004264279*
X00076152984Y00004285081*
X00076161696Y00004307687*
X00076166878Y00004333697*
X00076168580Y00004359681*
Y00004361484*
Y00004363186*
Y00004371898*
X00076166878Y00004387494*
X00076163398Y00004404791*
X00076158191Y00004425696*
X00076149581Y00004448175*
X00076139192Y00004470781*
X00076123495Y00004491583*
X00076121793Y00004493285*
X00076114884Y00004500194*
X00076104496Y00004510684*
X00076088875Y00004524476*
X00076069799Y00004538395*
X00076043688Y00004553991*
X00076014275Y00004569587*
X00075979578Y00004585284*
X00075976099Y00004586986*
X00075972593Y00004588687*
X00075965685Y00004590491*
X00075958700Y00004592193*
X00075948286Y00004595698*
X00075934392Y00004600879*
X00075920600Y00004604283*
X00075901499Y00004609490*
X00075882398Y00004616475*
X00075858090Y00004621682*
X00075832081Y00004628591*
X00075802591Y00004637278*
X00075771375Y00004644186*
X00075734875Y00004654677*
X00075694997Y00004663287*
X00075693295*
X00075686386Y00004665091*
X00075674194Y00004668494*
X00075660275Y00004671999*
X00075641276Y00004677181*
X00075620499Y00004682388*
X00075599594Y00004689398*
X00075575287Y00004696282*
X00075523293Y00004711877*
X00075472975Y00004729175*
X00075448693Y00004737887*
X00075426087Y00004746599*
X00075405284Y00004755286*
X00075387987Y00004763897*
X00075386184*
X00075382780Y00004767376*
X00075377598Y00004770882*
X00075368886Y00004774387*
X00075348084Y00004786477*
X00075323776Y00004803775*
X00075294286Y00004826381*
X00075266499Y00004850688*
X00075238787Y00004880178*
X00075216181Y00004911394*
Y00004913096*
X00075214480Y00004914900*
X00075210974Y00004920081*
X00075207596Y00004926990*
X00075198884Y00004946091*
X00075188495Y00004970399*
X00075178081Y00004999888*
X00075169395Y00005034584*
X00075162486Y00005072684*
X00075160682Y00005112588*
Y00005114391*
Y00005117795*
Y00005124780*
X00075162486Y00005133492*
Y00005143881*
X00075164188Y00005155996*
X00075169395Y00005187188*
X00075178081Y00005221884*
X00075188495Y00005258384*
X00075205793Y00005298287*
X00075228399Y00005338191*
Y00005339892*
X00075231777Y00005343398*
X00075235282Y00005348579*
X00075240489Y00005355488*
X00075257888Y00005374589*
X00075280393Y00005398897*
X00075308180Y00005424881*
X00075342877Y00005450890*
X00075382780Y00005476976*
X00075429592Y00005499481*
X00075431396*
X00075434799Y00005501182*
X00075443486Y00005504688*
X00075452198Y00005508193*
X00075464289Y00005511698*
X00075479884Y00005516778*
X00075497283Y00005522087*
X00075516384Y00005527294*
X00075537187Y00005532475*
X00075559691Y00005537682*
X00075608281Y00005546394*
X00075663780Y00005553278*
X00075722784Y00005554980*
X00075752299*
X00075767895Y00005553278*
G37*
G36*
X00091860090Y00003925976D02*
X00091677896D01*
Y00004071797*
X00091676194Y00004069994*
X00091672689Y00004064787*
X00091665780Y00004056075*
X00091657093Y00004045686*
X00091644978Y00004031792*
X00091631084Y00004017975*
X00091615488Y00004002379*
X00091596387Y00003986682*
X00091573883Y00003969385*
X00091549575Y00003953789*
X00091523489Y00003939895*
X00091493975Y00003927779*
X00091461082Y00003915587*
X00091428087Y00003906875*
X00091391689Y00003901694*
X00091351785Y00003899992*
X00091337892*
X00091327478Y00003901694*
X00091315387*
X00091301493Y00003903497*
X00091285898Y00003906875*
X00091268499Y00003910380*
X00091228595Y00003919093*
X00091185187Y00003932986*
X00091141880Y00003951986*
X00091119299Y00003962476*
X00091096795Y00003976293*
X00091094991Y00003978097*
X00091091588Y00003979799*
X00091086381Y00003984980*
X00091077694Y00003990187*
X00091067280Y00003998899*
X00091056891Y00004007586*
X00091030882Y00004031792*
X00091001392Y00004061282*
X00090971878Y00004097782*
X00090942388Y00004141089*
X00090916379Y00004189679*
Y00004191482*
X00090912899Y00004196689*
X00090911095Y00004203598*
X00090905888Y00004213987*
X00090902485Y00004226179*
X00090897278Y00004241800*
X00090890293Y00004260799*
X00090885086Y00004279900*
X00090879879Y00004302480*
X00090872995Y00004326788*
X00090867788Y00004352798*
X00090864283Y00004380484*
X00090857374Y00004439488*
X00090853895Y00004503699*
Y00004505375*
Y00004512386*
Y00004521098*
X00090855596Y00004533188*
Y00004548784*
X00090857374Y00004566183*
X00090859076Y00004586986*
X00090860778Y00004609490*
X00090867788Y00004658080*
X00090878177Y00004710176*
X00090892096Y00004765675*
X00090911095Y00004819497*
Y00004821199*
X00090914575Y00004826381*
X00090918080Y00004833289*
X00090921586Y00004843678*
X00090928494Y00004854092*
X00090935378Y00004867986*
X00090954479Y00004899279*
X00090978786Y00004935677*
X00091008276Y00004970399*
X00091042998Y00005005095*
X00091084577Y00005036286*
X00091086381Y00005037988*
X00091089784Y00005039791*
X00091096795Y00005043297*
X00091105482Y00005048377*
X00091115896Y00005053685*
X00091129688Y00005060594*
X00091143582Y00005067477*
X00091160981Y00005074488*
X00091199081Y00005088280*
X00091242489Y00005100497*
X00091291079Y00005109184*
X00091317089Y00005112588*
X00091360498*
X00091381275Y00005110886*
X00091405583Y00005107381*
X00091435097Y00005102199*
X00091466289Y00005093589*
X00091499283Y00005083098*
X00091530474Y00005067477*
X00091532176*
X00091533980Y00005065776*
X00091544394Y00005058892*
X00091558186Y00005050180*
X00091577287Y00005036286*
X00091598089Y00005018989*
X00091620695Y00004999888*
X00091643200Y00004977282*
X00091664078Y00004951298*
Y00005527294*
X00091860090*
Y00003925976*
G37*
G36*
X00080812792Y00005110886D02*
X00080823181D01*
X00080849190Y00005107381*
X00080878680Y00005103977*
X00080911700Y00005096992*
X00080944593Y00005086578*
X00080977587Y00005074488*
X00080979289*
X00080980991Y00005072684*
X00080991379Y00005067477*
X00081007077Y00005058892*
X00081027879Y00005048377*
X00081048682Y00005032781*
X00081071288Y00005017185*
X00081092090Y00004998085*
X00081109388Y00004975580*
X00081111191Y00004972075*
X00081116398Y00004965192*
X00081123282Y00004951298*
X00081133696Y00004933975*
X00081144084Y00004913096*
X00081152796Y00004888890*
X00081163185Y00004861077*
X00081170094Y00004829886*
Y00004828082*
X00081171897Y00004819497*
X00081173599Y00004805578*
X00081177079Y00004786477*
X00081178781Y00004760493*
Y00004744897*
X00081180482Y00004727498*
Y00004708398*
X00081182286Y00004685893*
Y00004663287*
Y00004638979*
Y00003925976*
X00080986198*
Y00004632096*
Y00004633798*
Y00004637278*
Y00004644186*
Y00004651197*
Y00004661585*
X00080984496Y00004673676*
X00080982794Y00004699685*
X00080980991Y00004729175*
X00080975784Y00004758690*
X00080970577Y00004786477*
X00080961992Y00004810785*
X00080960188Y00004814189*
X00080956683Y00004821199*
X00080951578Y00004831588*
X00080942891Y00004845481*
X00080932477Y00004861077*
X00080918583Y00004876698*
X00080901184Y00004892294*
X00080880381Y00004906187*
X00080878680Y00004907889*
X00080869993Y00004911394*
X00080857877Y00004918278*
X00080842180Y00004925288*
X00080821377Y00004930495*
X00080798898Y00004937379*
X00080772889Y00004940884*
X00080743399Y00004942586*
X00080731182*
X00080722495Y00004940884*
X00080712081*
X00080698289Y00004939182*
X00080668799Y00004932197*
X00080635779Y00004923586*
X00080599381Y00004909693*
X00080562983Y00004888890*
X00080543882Y00004876698*
X00080526483Y00004862779*
X00080524781Y00004861077*
X00080522978Y00004859375*
X00080517796Y00004854092*
X00080512589Y00004847183*
X00080505681Y00004836795*
X00080498797Y00004826381*
X00080490085Y00004812487*
X00080481398Y00004795189*
X00080472686Y00004776089*
X00080464075Y00004753483*
X00080457090Y00004729175*
X00080450182Y00004701489*
X00080444975Y00004670298*
X00080439793Y00004637278*
X00080437990Y00004599076*
X00080436288Y00004559198*
Y00003925976*
X00080240276*
Y00005086578*
X00080417187*
Y00004920081*
X00080418990Y00004921783*
X00080422394Y00004928793*
X00080431081Y00004937379*
X00080441495Y00004949596*
X00080453687Y00004965192*
X00080469282Y00004980787*
X00080488282Y00004998085*
X00080510888Y00005017185*
X00080535195Y00005034584*
X00080562983Y00005051882*
X00080592396Y00005067477*
X00080625391Y00005083098*
X00080661789Y00005095290*
X00080699991Y00005103977*
X00080741596Y00005110886*
X00080784979Y00005112588*
X00080802378*
X00080812792Y00005110886*
G37*
G36*
X00083170395D02*
X00083179081D01*
X00083189495Y00005109184*
X00083215480Y00005103977*
X00083246696Y00005096992*
X00083279691Y00005084876*
X00083317791Y00005069281*
X00083355992Y00005048377*
X00083286600Y00004866284*
X00083283094Y00004867986*
X00083274484Y00004873193*
X00083260590Y00004880178*
X00083241489Y00004888890*
X00083220687Y00004895799*
X00083196379Y00004902682*
X00083170395Y00004907889*
X00083142582Y00004909693*
X00083132193*
X00083120077Y00004907889*
X00083104482Y00004904486*
X00083085381Y00004899279*
X00083066280Y00004892294*
X00083047179Y00004883581*
X00083026377Y00004869789*
X00083024675Y00004867986*
X00083017690Y00004862779*
X00083008978Y00004854092*
X00082998589Y00004841976*
X00082986499Y00004826381*
X00082974281Y00004809083*
X00082963893Y00004786477*
X00082953479Y00004762195*
Y00004760493*
X00082951777Y00004756988*
X00082950075Y00004751781*
X00082948297Y00004744897*
X00082946595Y00004734382*
X00082943090Y00004722291*
X00082937883Y00004694580*
X00082932676Y00004659884*
X00082927494Y00004621682*
X00082923989Y00004578299*
X00082922287Y00004533188*
Y00003925976*
X00082726276*
Y00005086578*
X00082903187*
Y00004911394*
X00082906692Y00004914900*
X00082910197Y00004921783*
X00082915379Y00004928793*
X00082927494Y00004951298*
X00082944893Y00004975580*
X00082963893Y00005003292*
X00082984797Y00005031079*
X00083005599Y00005053685*
X00083017690Y00005064099*
X00083028078Y00005072684*
X00083031584Y00005074488*
X00083038492Y00005079695*
X00083050684Y00005084876*
X00083064578Y00005093589*
X00083083577Y00005100497*
X00083104482Y00005105679*
X00083128789Y00005110886*
X00083152996Y00005112588*
X00083163384*
X00083170395Y00005110886*
G37*
G36*
X00089727989D02*
X00089741883D01*
X00089774776Y00005107381*
X00089811275Y00005102199*
X00089852881Y00005095290*
X00089892784Y00005086578*
X00089932687Y00005072684*
X00089934389*
X00089937894Y00005070983*
X00089943076Y00005069281*
X00089950086Y00005065776*
X00089967384Y00005057089*
X00089991692Y00005044998*
X00090015999Y00005029377*
X00090040282Y00005010277*
X00090064590Y00004989499*
X00090085392Y00004965192*
X00090087094Y00004961686*
X00090093977Y00004953000*
X00090102690Y00004937379*
X00090113078Y00004918278*
X00090125296Y00004892294*
X00090135684Y00004861077*
X00090146098Y00004826381*
X00090154785Y00004786477*
X00089962177Y00004760493*
Y00004762195*
Y00004763897*
X00089958697Y00004774387*
X00089955293Y00004791684*
X00089948283Y00004810785*
X00089937894Y00004833289*
X00089923975Y00004855895*
X00089906678Y00004878374*
X00089885875Y00004899279*
X00089882395Y00004900980*
X00089873683Y00004907889*
X00089859789Y00004916576*
X00089840790Y00004925288*
X00089814679Y00004935677*
X00089783488Y00004942586*
X00089748791Y00004949596*
X00089707186Y00004951298*
X00089684580*
X00089674192Y00004949596*
X00089662076*
X00089632586Y00004946091*
X00089601395Y00004940884*
X00089568375Y00004932197*
X00089538886Y00004921783*
X00089526795Y00004914900*
X00089514578Y00004906187*
X00089512876Y00004904486*
X00089505891Y00004897475*
X00089497281Y00004888890*
X00089486892Y00004876698*
X00089474675Y00004861077*
X00089465988Y00004841976*
X00089459079Y00004822875*
X00089457377Y00004800396*
Y00004798593*
Y00004793386*
X00089459079Y00004786477*
X00089460781Y00004777790*
X00089467791Y00004755286*
X00089472998Y00004743094*
X00089479882Y00004730978*
X00089481685Y00004729175*
X00089485089Y00004725797*
X00089490296Y00004720590*
X00089498982Y00004713579*
X00089509396Y00004704994*
X00089523290Y00004696282*
X00089538886Y00004687595*
X00089556285Y00004678883*
X00089557987*
X00089563194Y00004677181*
X00089573582Y00004673676*
X00089589178Y00004668494*
X00089599592Y00004665091*
X00089611784Y00004661585*
X00089625576Y00004658080*
X00089641299Y00004652899*
X00089660298Y00004647692*
X00089681177Y00004642485*
X00089703681Y00004635576*
X00089729691Y00004628591*
X00089731494*
X00089738377Y00004626889*
X00089748791Y00004623384*
X00089764387Y00004619879*
X00089780084Y00004614697*
X00089799083Y00004609490*
X00089821689Y00004602581*
X00089844194Y00004595698*
X00089892784Y00004581779*
X00089939698Y00004566183*
X00089962177Y00004559198*
X00089982979Y00004550587*
X00090002080Y00004543577*
X00090019378Y00004536694*
X00090021181*
X00090022883Y00004534890*
X00090033297Y00004529683*
X00090048892Y00004522774*
X00090066291Y00004510684*
X00090087094Y00004496790*
X00090109675Y00004479391*
X00090130477Y00004458589*
X00090149578Y00004434281*
X00090151280Y00004430877*
X00090156487Y00004422190*
X00090165199Y00004408297*
X00090173886Y00004387494*
X00090182496Y00004363186*
X00090191183Y00004335399*
X00090196390Y00004302480*
X00090198092Y00004265980*
Y00004264279*
Y00004260799*
Y00004255592*
Y00004248683*
X00090194688Y00004229582*
X00090191183Y00004205274*
X00090184274Y00004177588*
X00090173886Y00004146296*
X00090158189Y00004113377*
X00090139189Y00004080383*
Y00004078681*
X00090135684Y00004076979*
X00090128775Y00004066489*
X00090114882Y00004050893*
X00090097483Y00004031792*
X00090073175Y00004009288*
X00090045489Y00003986682*
X00090012494Y00003965879*
X00089974293Y00003946779*
X00089972591*
X00089969086Y00003945077*
X00089963879Y00003943375*
X00089955293Y00003939895*
X00089944778Y00003936390*
X00089932687Y00003931183*
X00089918794Y00003927779*
X00089903198Y00003924300*
X00089866774Y00003915587*
X00089825093Y00003906875*
X00089780084Y00003901694*
X00089729691Y00003899992*
X00089707186*
X00089691591Y00003901694*
X00089674192Y00003903497*
X00089651687Y00003905199*
X00089627379Y00003906875*
X00089601395Y00003912082*
X00089545896Y00003922598*
X00089486892Y00003938193*
X00089459079Y00003948582*
X00089431393Y00003962476*
X00089407085Y00003976293*
X00089382777Y00003991991*
X00089380999Y00003993692*
X00089377596Y00003997096*
X00089372389Y00004002379*
X00089363677Y00004009288*
X00089354990Y00004019677*
X00089344576Y00004031792*
X00089332485Y00004045686*
X00089320293Y00004061282*
X00089306400Y00004080383*
X00089294284Y00004101185*
X00089282193Y00004123791*
X00089269976Y00004149775*
X00089259587Y00004175785*
X00089249199Y00004205274*
X00089240487Y00004238294*
X00089233578Y00004271187*
X00089427888Y00004302480*
Y00004300677*
X00089429590Y00004297299*
Y00004292092*
X00089431393Y00004283379*
X00089433095Y00004272991*
X00089436498Y00004262577*
X00089445185Y00004236593*
X00089457377Y00004207078*
X00089472998Y00004175785*
X00089492099Y00004148099*
X00089518083Y00004122089*
X00089519785*
X00089521588Y00004120286*
X00089531977Y00004113377*
X00089549274Y00004102989*
X00089573582Y00004092575*
X00089603097Y00004080383*
X00089639495Y00004071797*
X00089681177Y00004064787*
X00089727989Y00004061282*
X00089741883*
X00089750493Y00004063085*
X00089762685*
X00089774776Y00004064787*
X00089804290Y00004068292*
X00089837285Y00004075176*
X00089871981Y00004083888*
X00089903198Y00004097782*
X00089930986Y00004115079*
X00089934389Y00004116781*
X00089941400Y00004125493*
X00089951788Y00004135882*
X00089963879Y00004151477*
X00089976096Y00004170578*
X00089986485Y00004193184*
X00089993393Y00004217492*
X00089996899Y00004245178*
Y00004248683*
Y00004255592*
X00089993393Y00004269486*
X00089989990Y00004283379*
X00089982979Y00004300677*
X00089972591Y00004318076*
X00089956995Y00004335399*
X00089937894Y00004351096*
X00089936193Y00004352798*
X00089929182Y00004356277*
X00089917092Y00004361484*
X00089908380Y00004364888*
X00089897991Y00004368393*
X00089884097Y00004373575*
X00089870280Y00004378782*
X00089854582Y00004383989*
X00089835583Y00004389196*
X00089814679Y00004396181*
X00089790498Y00004403090*
X00089764387Y00004409998*
X00089736676Y00004416983*
X00089734898*
X00089727989Y00004418685*
X00089715898Y00004422190*
X00089701979Y00004425696*
X00089684580Y00004430877*
X00089663778Y00004436084*
X00089641299Y00004442993*
X00089616991Y00004449876*
X00089568375Y00004465497*
X00089518083Y00004481195*
X00089493775Y00004488078*
X00089472998Y00004496790*
X00089452196Y00004505375*
X00089434797Y00004512386*
X00089433095*
X00089431393Y00004514088*
X00089420877Y00004519295*
X00089407085Y00004527981*
X00089387984Y00004541875*
X00089367182Y00004557496*
X00089346278Y00004574895*
X00089325475Y00004597400*
X00089308178Y00004621682*
X00089306400Y00004625187*
X00089301193Y00004633798*
X00089294284Y00004649393*
X00089287375Y00004668494*
X00089280390Y00004691075*
X00089273481Y00004717084*
X00089268300Y00004746599*
X00089266496Y00004777790*
Y00004779594*
Y00004781296*
Y00004791684*
X00089268300Y00004805578*
X00089271678Y00004824679*
X00089275183Y00004847183*
X00089280390Y00004871491*
X00089289077Y00004897475*
X00089301193Y00004921783*
X00089302996Y00004925288*
X00089308178Y00004932197*
X00089315086Y00004944389*
X00089327278Y00004959985*
X00089339394Y00004977282*
X00089356793Y00004996383*
X00089375792Y00005013782*
X00089398398Y00005031079*
X00089400075Y00005032781*
X00089407085Y00005036286*
X00089417499Y00005043297*
X00089431393Y00005050180*
X00089448690Y00005058892*
X00089469493Y00005069281*
X00089495477Y00005079695*
X00089523290Y00005088280*
X00089524992*
X00089526795Y00005090083*
X00089537184Y00005091785*
X00089552780Y00005095290*
X00089575284Y00005100497*
X00089599592Y00005105679*
X00089629081Y00005109184*
X00089660298Y00005110886*
X00089693292Y00005112588*
X00089715898*
X00089727989Y00005110886*
G37*
G36*
X00090628393Y00003925976D02*
X00090432280D01*
Y00005086578*
X00090628393*
Y00003925976*
G37*
G36*
X00087916791Y00005525490D02*
X00087956694Y00005523788D01*
X00087996699Y00005520283*
X00088034799Y00005516778*
X00088053875Y00005515076*
X00088069496Y00005511698*
X00088071299*
X00088074677Y00005509895*
X00088081688*
X00088088597Y00005508193*
X00088098985Y00005504688*
X00088111177Y00005502986*
X00088138889Y00005494299*
X00088170080Y00005483885*
X00088203074Y00005469991*
X00088236094Y00005454396*
X00088267286Y00005435295*
X00088268987*
X00088270791Y00005433593*
X00088281179Y00005424881*
X00088294997Y00005412790*
X00088314098Y00005395391*
X00088333199Y00005374589*
X00088355779Y00005346776*
X00088376582Y00005317286*
X00088395683Y00005280888*
Y00005279186*
X00088397384Y00005275681*
X00088400890Y00005270500*
X00088404293Y00005263591*
X00088407798Y00005254879*
X00088411278Y00005242788*
X00088421692Y00005216677*
X00088430379Y00005183784*
X00088438990Y00005147284*
X00088444197Y00005105679*
X00088445975Y00005062296*
Y00005060594*
Y00005053685*
Y00005043297*
X00088444197Y00005027599*
X00088442495Y00005010277*
X00088438990Y00004991176*
X00088435586Y00004968595*
X00088430379Y00004942586*
X00088423394Y00004916576*
X00088414682Y00004888890*
X00088404293Y00004861077*
X00088390476Y00004831588*
X00088376582Y00004802098*
X00088359183Y00004772583*
X00088338380Y00004744897*
X00088315876Y00004717084*
X00088314098Y00004715383*
X00088308891Y00004711877*
X00088301982Y00004704994*
X00088289790Y00004694580*
X00088275998Y00004684090*
X00088256897Y00004671999*
X00088234291Y00004659884*
X00088208281Y00004647692*
X00088177090Y00004633798*
X00088144096Y00004621682*
X00088104192Y00004609490*
X00088062587Y00004599076*
X00088013997Y00004590491*
X00087961978Y00004583480*
X00087906377Y00004578299*
X00087843995Y00004576597*
X00087434597*
Y00003925976*
X00087222888*
Y00005527294*
X00087882095*
X00087916791Y00005525490*
G37*
G36*
X00085264294Y00005338191D02*
X00084736889D01*
Y00003925976*
X00084525281*
Y00005338191*
X00083997876*
Y00005527294*
X00085264294*
Y00005338191*
G37*
G36*
X00077455877Y00003925976D02*
X00077259789D01*
Y00005086578*
X00077455877*
Y00003925976*
G37*
G36*
X00076866089Y00005086578D02*
X00077065581D01*
Y00004933975*
X00076866089*
Y00004253890*
Y00004252188*
Y00004250385*
Y00004239996*
Y00004226179*
X00076867791Y00004208780*
Y00004191482*
X00076871195Y00004174083*
X00076872998Y00004158488*
X00076876478Y00004146296*
Y00004144594*
X00076878180Y00004142892*
X00076885088Y00004132478*
X00076895477Y00004120286*
X00076909396Y00004108196*
X00076911098*
X00076914578Y00004106494*
X00076919785Y00004104690*
X00076926795Y00004101185*
X00076937184Y00004099483*
X00076947598Y00004095978*
X00076961492Y00004094276*
X00076990981*
X00077001395Y00004095978*
X00077013485*
X00077029081Y00004097782*
X00077046480Y00004099483*
X00077065581Y00004101185*
X00077091590Y00003927779*
X00077088085*
X00077077697Y00003924300*
X00077062076Y00003922598*
X00077041298Y00003919093*
X00077018692Y00003915587*
X00076994385Y00003913886*
X00076942391Y00003910380*
X00076924992*
X00076905993Y00003912082*
X00076881685Y00003913886*
X00076853897Y00003919093*
X00076826084Y00003924300*
X00076800075Y00003932986*
X00076775792Y00003943375*
X00076774090Y00003945077*
X00076767182Y00003950284*
X00076756793Y00003957294*
X00076742899Y00003967683*
X00076728980Y00003979799*
X00076715086Y00003995394*
X00076702996Y00004012793*
X00076692582Y00004031792*
X00076690778Y00004035298*
X00076689077Y00004043984*
X00076687375Y00004050893*
X00076685597Y00004059580*
X00076683895Y00004069994*
X00076682193Y00004082186*
X00076678688Y00004095978*
X00076676885Y00004113377*
X00076675183Y00004132478*
X00076673481Y00004153281*
X00076671779Y00004177588*
Y00004203598*
X00076669976Y00004233087*
Y00004264279*
Y00004933975*
X00076524281*
Y00005086578*
X00076669976*
Y00005372887*
X00076866089Y00005490794*
Y00005086578*
G37*
G36*
X00092668496Y00005110886D02*
X00092684092D01*
X00092704894Y00005107381*
X00092727475Y00005103977*
X00092753484Y00005098796*
X00092781297Y00005093589*
X00092810787Y00005084876*
X00092840276Y00005074488*
X00092873195Y00005060594*
X00092904487Y00005044998*
X00092935679Y00005027599*
X00092966895Y00005005095*
X00092998086Y00004980787*
X00093025899Y00004953000*
X00093027576Y00004951298*
X00093032783Y00004946091*
X00093039793Y00004937379*
X00093048378Y00004923586*
X00093060596Y00004907889*
X00093072686Y00004888890*
X00093086580Y00004864582*
X00093100499Y00004838496*
X00093112590Y00004809083*
X00093126483Y00004776089*
X00093138675Y00004739690*
X00093150791Y00004699685*
X00093159478Y00004656378*
X00093166387Y00004609490*
X00093171594Y00004560976*
X00093173296Y00004508881*
Y00004505375*
Y00004496790*
Y00004479391*
X00093171594Y00004456887*
X00092305886*
Y00004455083*
Y00004448175*
X00092307689Y00004437786*
X00092309391Y00004425696*
X00092311093Y00004408297*
X00092314598Y00004390999*
X00092318078Y00004370095*
X00092323285Y00004347591*
X00092337178Y00004300677*
X00092356178Y00004250385*
X00092368395Y00004227880*
X00092380485Y00004203598*
X00092396183Y00004182795*
X00092413480Y00004161993*
X00092415182Y00004160189*
X00092418687Y00004158488*
X00092423894Y00004153281*
X00092430777Y00004146296*
X00092441293Y00004139387*
X00092451682Y00004130675*
X00092465575Y00004120286*
X00092481196Y00004111599*
X00092515893Y00004092575*
X00092557498Y00004076979*
X00092579977Y00004069994*
X00092604285Y00004066489*
X00092630396Y00004063085*
X00092656380Y00004061282*
X00092666794*
X00092673678Y00004063085*
X00092694480Y00004064787*
X00092720591Y00004068292*
X00092748277Y00004075176*
X00092779494Y00004085590*
X00092810787Y00004097782*
X00092840276Y00004116781*
X00092841978*
X00092843680Y00004120286*
X00092852392Y00004127296*
X00092866286Y00004141089*
X00092883583Y00004161993*
X00092902684Y00004186275*
X00092923487Y00004219194*
X00092944391Y00004257395*
X00092961688Y00004300677*
X00093166387Y00004274693*
Y00004272991*
X00093164685Y00004265980*
X00093161180Y00004257395*
X00093155998Y00004245178*
X00093150791Y00004229582*
X00093143882Y00004212285*
X00093135196Y00004193184*
X00093126483Y00004172381*
X00093102176Y00004128998*
X00093070984Y00004082186*
X00093051884Y00004059580*
X00093032783Y00004036999*
X00093011980Y00004016197*
X00092987698Y00003997096*
X00092985996Y00003995394*
X00092982491Y00003993692*
X00092973779Y00003988485*
X00092965193Y00003981475*
X00092951300Y00003974592*
X00092935679Y00003965879*
X00092918280Y00003957294*
X00092897477Y00003948582*
X00092874998Y00003939895*
X00092848887Y00003931183*
X00092822877Y00003922598*
X00092793388Y00003915587*
X00092762197Y00003908679*
X00092729177Y00003903497*
X00092692778Y00003901694*
X00092656380Y00003899992*
X00092645992*
X00092632098Y00003901694*
X00092614699*
X00092592194Y00003905199*
X00092567887Y00003908679*
X00092540175Y00003913886*
X00092510686Y00003919093*
X00092479393Y00003927779*
X00092446475Y00003938193*
X00092411778Y00003950284*
X00092378784Y00003965879*
X00092344087Y00003983278*
X00092312896Y00004004081*
X00092281679Y00004028389*
X00092252190Y00004056075*
X00092250387Y00004057878*
X00092245180Y00004063085*
X00092238296Y00004071797*
X00092229584Y00004085590*
X00092217494Y00004101185*
X00092205276Y00004120286*
X00092191484Y00004142892*
X00092179292Y00004168876*
X00092165398Y00004198391*
X00092151581Y00004231284*
X00092139389Y00004267784*
X00092127298Y00004307687*
X00092118586Y00004349292*
X00092111576Y00004394377*
X00092106394Y00004442993*
X00092104692Y00004494987*
Y00004498492*
Y00004507179*
X00092106394Y00004522774*
Y00004543577*
X00092109899Y00004567885*
X00092113379Y00004595698*
X00092116884Y00004628591*
X00092123793Y00004661585*
X00092130676Y00004697984*
X00092141090Y00004734382*
X00092153282Y00004772583*
X00092167176Y00004810785*
X00092184499Y00004847183*
X00092205276Y00004883581*
X00092227882Y00004918278*
X00092253892Y00004949596*
X00092255594Y00004951298*
X00092260775Y00004956479*
X00092269487Y00004965192*
X00092281679Y00004975580*
X00092295497Y00004987696*
X00092314598Y00005001590*
X00092335375Y00005015484*
X00092359683Y00005031079*
X00092385692Y00005046675*
X00092415182Y00005060594*
X00092448176Y00005074488*
X00092482898Y00005086578*
X00092521074Y00005096992*
X00092559174Y00005105679*
X00092602583Y00005110886*
X00092645992Y00005112588*
X00092656380*
X00092668496Y00005110886*
G37*
G36*
X00086221874Y00005553278D02*
X00086242779Y00005551474D01*
X00086265283Y00005549798*
X00086289591Y00005546394*
X00086317378Y00005541086*
X00086348595Y00005535879*
X00086379786Y00005528995*
X00086412781Y00005520283*
X00086447477Y00005509895*
X00086482097Y00005497779*
X00086516895Y00005483885*
X00086549788Y00005468289*
X00086584485Y00005449189*
X00086586187Y00005447487*
X00086593197Y00005443982*
X00086601884Y00005438775*
X00086614000Y00005430088*
X00086629595Y00005419699*
X00086645191Y00005405780*
X00086664292Y00005390184*
X00086685094Y00005372887*
X00086707675Y00005351983*
X00086730179Y00005329478*
X00086752785Y00005305196*
X00086775290Y00005279186*
X00086796194Y00005251399*
X00086818698Y00005220182*
X00086837799Y00005187188*
X00086856874Y00005152491*
X00086858576Y00005150789*
X00086860278Y00005143881*
X00086865485Y00005133492*
X00086870794Y00005119598*
X00086879379Y00005102199*
X00086886389Y00005079695*
X00086894974Y00005055387*
X00086903687Y00005027599*
X00086912399Y00004998085*
X00086921086Y00004965192*
X00086929696Y00004928793*
X00086936681Y00004892294*
X00086941888Y00004852390*
X00086947095Y00004810785*
X00086948797Y00004769078*
X00086950575Y00004723993*
Y00004720590*
Y00004713579*
Y00004699685*
X00086948797Y00004682388*
X00086947095Y00004661585*
X00086945393Y00004637278*
X00086941888Y00004609490*
X00086938383Y00004578299*
X00086933176Y00004545380*
X00086926293Y00004510684*
X00086919282Y00004474184*
X00086908894Y00004437786*
X00086896778Y00004399584*
X00086884586Y00004363186*
X00086868990Y00004324985*
X00086851693Y00004288586*
X00086849889Y00004286885*
X00086846486Y00004279900*
X00086841279Y00004269486*
X00086834294Y00004257395*
X00086823880Y00004241800*
X00086811789Y00004222699*
X00086796194Y00004201896*
X00086780497Y00004179290*
X00086761497Y00004156786*
X00086740593Y00004132478*
X00086716285Y00004108196*
X00086692079Y00004083888*
X00086665993Y00004061282*
X00086636580Y00004038777*
X00086605287Y00004016197*
X00086572394Y00003997096*
X00086570591Y00003995394*
X00086563682Y00003993692*
X00086554995Y00003988485*
X00086541076Y00003981475*
X00086523779Y00003974592*
X00086504678Y00003965879*
X00086482097Y00003957294*
X00086456088Y00003948582*
X00086428376Y00003939895*
X00086398887Y00003931183*
X00086365892Y00003922598*
X00086332999Y00003915587*
X00086260076Y00003903497*
X00086221874Y00003901694*
X00086183774Y00003899992*
X00086161194*
X00086145598Y00003901694*
X00086126497Y00003903497*
X00086102190Y00003905199*
X00086077882Y00003908679*
X00086048392Y00003913886*
X00086018979Y00003919093*
X00085985985Y00003925976*
X00085952990Y00003934688*
X00085918294Y00003945077*
X00085883597Y00003957294*
X00085848875Y00003972890*
X00085814179Y00003988485*
X00085779483Y00004007586*
X00085777781Y00004009288*
X00085772599Y00004012793*
X00085762185Y00004019677*
X00085750095Y00004028389*
X00085736176Y00004038777*
X00085718777Y00004052697*
X00085699777Y00004068292*
X00085678899Y00004085590*
X00085656394Y00004106494*
X00085635592Y00004128998*
X00085612986Y00004153281*
X00085590481Y00004179290*
X00085567875Y00004208780*
X00085547098Y00004238294*
X00085527997Y00004271187*
X00085508896Y00004305985*
X00085507195Y00004307687*
X00085505391Y00004314596*
X00085500286Y00004324985*
X00085494977Y00004338878*
X00085488094Y00004356277*
X00085481185Y00004377080*
X00085472498Y00004399584*
X00085463786Y00004427397*
X00085455099Y00004455083*
X00085446489Y00004486376*
X00085439478Y00004519295*
X00085432595Y00004553991*
X00085422181Y00004626889*
X00085420377Y00004666792*
X00085418676Y00004704994*
Y00004706696*
Y00004710176*
Y00004715383*
Y00004722291*
X00085420377Y00004732680*
Y00004743094*
X00085422181Y00004770882*
X00085425686Y00004803775*
X00085430791Y00004843678*
X00085436075Y00004885385*
X00085444685Y00004932197*
X00085456877Y00004982489*
X00085470695Y00005032781*
X00085488094Y00005084876*
X00085508896Y00005136896*
X00085533179Y00005188991*
X00085560992Y00005237480*
X00085593885Y00005286095*
X00085632086Y00005329478*
X00085633788Y00005331180*
X00085642475Y00005339892*
X00085654591Y00005350281*
X00085670288Y00005364175*
X00085692792Y00005381498*
X00085717075Y00005400598*
X00085746590Y00005421376*
X00085781286Y00005442280*
X00085819488Y00005463082*
X00085861093Y00005483885*
X00085906178Y00005502986*
X00085956495Y00005520283*
X00086008591Y00005534177*
X00086064090Y00005544591*
X00086122992Y00005553278*
X00086185476Y00005554980*
X00086206279*
X00086221874Y00005553278*
G37*
G36*
X00081981979Y00005110886D02*
X00081997575D01*
X00082018479Y00005107381*
X00082040984Y00005103977*
X00082066993Y00005098796*
X00082094781Y00005093589*
X00082124296Y00005084876*
X00082153785Y00005074488*
X00082186678Y00005060594*
X00082217996Y00005044998*
X00082249187Y00005027599*
X00082280379Y00005005095*
X00082311697Y00004980787*
X00082339383Y00004953000*
X00082341085Y00004951298*
X00082346292Y00004946091*
X00082353277Y00004937379*
X00082361989Y00004923586*
X00082374079Y00004907889*
X00082386195Y00004888890*
X00082400089Y00004864582*
X00082413983Y00004838496*
X00082426098Y00004809083*
X00082439992Y00004776089*
X00082452184Y00004739690*
X00082464275Y00004699685*
X00082472987Y00004656378*
X00082479896Y00004609490*
X00082485077Y00004560976*
X00082486881Y00004508881*
Y00004505375*
Y00004496790*
Y00004479391*
X00082485077Y00004456887*
X00081619496*
Y00004455083*
Y00004448175*
X00081621198Y00004437786*
X00081622900Y00004425696*
X00081624678Y00004408297*
X00081628081Y00004390999*
X00081631586Y00004370095*
X00081636793Y00004347591*
X00081650687Y00004300677*
X00081669788Y00004250385*
X00081681878Y00004227880*
X00081694096Y00004203598*
X00081709691Y00004182795*
X00081726989Y00004161993*
X00081728792Y00004160189*
X00081732196Y00004158488*
X00081737377Y00004153281*
X00081744388Y00004146296*
X00081754776Y00004139387*
X00081765190Y00004130675*
X00081779084Y00004120286*
X00081794680Y00004111599*
X00081829376Y00004092575*
X00081870981Y00004076979*
X00081893486Y00004069994*
X00081917794Y00004066489*
X00081943879Y00004063085*
X00081969889Y00004061282*
X00081980278*
X00081987186Y00004063085*
X00082007989Y00004064787*
X00082034075Y00004068292*
X00082061786Y00004075176*
X00082093079Y00004085590*
X00082124296Y00004097782*
X00082153785Y00004116781*
X00082155487*
X00082157189Y00004120286*
X00082165875Y00004127296*
X00082179795Y00004141089*
X00082197194Y00004161993*
X00082216193Y00004186275*
X00082237097Y00004219194*
X00082257900Y00004257395*
X00082275197Y00004300677*
X00082479896Y00004274693*
Y00004272991*
X00082478194Y00004265980*
X00082474689Y00004257395*
X00082469482Y00004245178*
X00082464275Y00004229582*
X00082457391Y00004212285*
X00082448679Y00004193184*
X00082439992Y00004172381*
X00082415684Y00004128998*
X00082384493Y00004082186*
X00082365392Y00004059580*
X00082346292Y00004036999*
X00082325489Y00004016197*
X00082301181Y00003997096*
X00082299479Y00003995394*
X00082296000Y00003993692*
X00082287389Y00003988485*
X00082278677Y00003981475*
X00082264783Y00003974592*
X00082249187Y00003965879*
X00082231788Y00003957294*
X00082210986Y00003948582*
X00082188481Y00003939895*
X00082162497Y00003931183*
X00082136386Y00003922598*
X00082106897Y00003915587*
X00082075680Y00003908679*
X00082042685Y00003903497*
X00082006287Y00003901694*
X00081969889Y00003899992*
X00081959475*
X00081945581Y00003901694*
X00081928284*
X00081905678Y00003905199*
X00081881395Y00003908679*
X00081853684Y00003913886*
X00081824195Y00003919093*
X00081792876Y00003927779*
X00081759983Y00003938193*
X00081725287Y00003950284*
X00081692292Y00003965879*
X00081657596Y00003983278*
X00081626379Y00004004081*
X00081595188Y00004028389*
X00081565699Y00004056075*
X00081563895Y00004057878*
X00081558688Y00004063085*
X00081551780Y00004071797*
X00081543093Y00004085590*
X00081530977Y00004101185*
X00081518785Y00004120286*
X00081504993Y00004142892*
X00081492775Y00004168876*
X00081478882Y00004198391*
X00081464988Y00004231284*
X00081452897Y00004267784*
X00081440782Y00004307687*
X00081432095Y00004349292*
X00081425084Y00004394377*
X00081419979Y00004442993*
X00081418176Y00004494987*
Y00004498492*
Y00004507179*
X00081419979Y00004522774*
Y00004543577*
X00081423383Y00004567885*
X00081426888Y00004595698*
X00081430393Y00004628591*
X00081437276Y00004661585*
X00081444185Y00004697984*
X00081454675Y00004734382*
X00081466791Y00004772583*
X00081480685Y00004810785*
X00081497982Y00004847183*
X00081518785Y00004883581*
X00081541391Y00004918278*
X00081567375Y00004949596*
X00081569077Y00004951298*
X00081574284Y00004956479*
X00081582996Y00004965192*
X00081595188Y00004975580*
X00081608980Y00004987696*
X00081628081Y00005001590*
X00081648884Y00005015484*
X00081673192Y00005031079*
X00081699176Y00005046675*
X00081728792Y00005060594*
X00081761685Y00005074488*
X00081796382Y00005086578*
X00081834583Y00005096992*
X00081872683Y00005105679*
X00081916092Y00005110886*
X00081959475Y00005112588*
X00081969889*
X00081981979Y00005110886*
G37*
G36*
X00079494278D02*
X00079509899D01*
X00079530676Y00005107381*
X00079553282Y00005103977*
X00079579292Y00005098796*
X00079607079Y00005093589*
X00079636594Y00005084876*
X00079666084Y00005074488*
X00079698977Y00005060594*
X00079730193Y00005044998*
X00079761486Y00005027599*
X00079792677Y00005005095*
X00079823894Y00004980787*
X00079851681Y00004953000*
X00079853383Y00004951298*
X00079858590Y00004946091*
X00079865499Y00004937379*
X00079874186Y00004923586*
X00079886378Y00004907889*
X00079898494Y00004888890*
X00079912387Y00004864582*
X00079926281Y00004838496*
X00079938397Y00004809083*
X00079952291Y00004776089*
X00079964381Y00004739690*
X00079976599Y00004699685*
X00079985285Y00004656378*
X00079992194Y00004609490*
X00079997376Y00004560976*
X00079999078Y00004508881*
Y00004505375*
Y00004496790*
Y00004479391*
X00079997376Y00004456887*
X00079131693*
Y00004455083*
Y00004448175*
X00079133496Y00004437786*
X00079135198Y00004425696*
X00079136875Y00004408297*
X00079140380Y00004390999*
X00079143885Y00004370095*
X00079149092Y00004347591*
X00079162884Y00004300677*
X00079181985Y00004250385*
X00079194177Y00004227880*
X00079206293Y00004203598*
X00079221888Y00004182795*
X00079239287Y00004161993*
X00079240989Y00004160189*
X00079244494Y00004158488*
X00079249676Y00004153281*
X00079256585Y00004146296*
X00079266999Y00004139387*
X00079277489Y00004130675*
X00079291281Y00004120286*
X00079306877Y00004111599*
X00079341599Y00004092575*
X00079383280Y00004076979*
X00079405784Y00004069994*
X00079430092Y00004066489*
X00079456076Y00004063085*
X00079482086Y00004061282*
X00079492576*
X00079499485Y00004063085*
X00079520288Y00004064787*
X00079546297Y00004068292*
X00079574085Y00004075176*
X00079605276Y00004085590*
X00079636594Y00004097782*
X00079666084Y00004116781*
X00079667785*
X00079669487Y00004120286*
X00079678199Y00004127296*
X00079692093Y00004141089*
X00079709391Y00004161993*
X00079728491Y00004186275*
X00079749294Y00004219194*
X00079770097Y00004257395*
X00079787496Y00004300677*
X00079992194Y00004274693*
Y00004272991*
X00079990492Y00004265980*
X00079986987Y00004257395*
X00079981780Y00004245178*
X00079976599Y00004229582*
X00079969588Y00004212285*
X00079960978Y00004193184*
X00079952291Y00004172381*
X00079927983Y00004128998*
X00079896792Y00004082186*
X00079877691Y00004059580*
X00079858590Y00004036999*
X00079837788Y00004016197*
X00079813480Y00003997096*
X00079811778Y00003995394*
X00079808298Y00003993692*
X00079799586Y00003988485*
X00079790899Y00003981475*
X00079777082Y00003974592*
X00079761486Y00003965879*
X00079744087Y00003957294*
X00079723284Y00003948582*
X00079700678Y00003939895*
X00079674694Y00003931183*
X00079648685Y00003922598*
X00079619195Y00003915587*
X00079587979Y00003908679*
X00079554984Y00003903497*
X00079518586Y00003901694*
X00079482086Y00003899992*
X00079471697*
X00079457880Y00003901694*
X00079440481*
X00079417976Y00003905199*
X00079393694Y00003908679*
X00079365881Y00003913886*
X00079336392Y00003919093*
X00079305175Y00003927779*
X00079272180Y00003938193*
X00079237484Y00003950284*
X00079204591Y00003965879*
X00079169895Y00003983278*
X00079138678Y00004004081*
X00079107385Y00004028389*
X00079077896Y00004056075*
X00079076194Y00004057878*
X00079070987Y00004063085*
X00079064078Y00004071797*
X00079055391Y00004085590*
X00079043276Y00004101185*
X00079031084Y00004120286*
X00079017190Y00004142892*
X00079005099Y00004168876*
X00078991180Y00004198391*
X00078977286Y00004231284*
X00078965196Y00004267784*
X00078952979Y00004307687*
X00078944393Y00004349292*
X00078937383Y00004394377*
X00078932176Y00004442993*
X00078930500Y00004494987*
Y00004498492*
Y00004507179*
X00078932176Y00004522774*
Y00004543577*
X00078935681Y00004567885*
X00078939186Y00004595698*
X00078942590Y00004628591*
X00078949575Y00004661585*
X00078956484Y00004697984*
X00078966898Y00004734382*
X00078979090Y00004772583*
X00078992882Y00004810785*
X00079010281Y00004847183*
X00079031084Y00004883581*
X00079053588Y00004918278*
X00079079699Y00004949596*
X00079081376Y00004951298*
X00079086583Y00004956479*
X00079095295Y00004965192*
X00079107385Y00004975580*
X00079121279Y00004987696*
X00079140380Y00005001590*
X00079161182Y00005015484*
X00079185490Y00005031079*
X00079211474Y00005046675*
X00079240989Y00005060594*
X00079273984Y00005074488*
X00079308680Y00005086578*
X00079346780Y00005096992*
X00079384982Y00005105679*
X00079428390Y00005110886*
X00079471697Y00005112588*
X00079482086*
X00079494278Y00005110886*
G37*
G36*
X00082028893Y00002778988D02*
X00082042685D01*
X00082058383Y00002777286*
X00082073978Y00002773781*
X00082093079Y00002770276*
X00082134684Y00002761691*
X00082178093Y00002747797*
X00082223178Y00002728696*
X00082245682Y00002716580*
X00082266485Y00002702687*
X00082268288*
X00082271793Y00002699181*
X00082276899Y00002693974*
X00082285586Y00002688793*
X00082306388Y00002671394*
X00082330696Y00002647188*
X00082358484Y00002615895*
X00082387998Y00002579497*
X00082413983Y00002536088*
X00082438290Y00002487599*
Y00002485796*
X00082439992Y00002480589*
X00082443497Y00002473680*
X00082446977Y00002463292*
X00082452184Y00002451100*
X00082457391Y00002435479*
X00082462598Y00002416378*
X00082467780Y00002397277*
X00082472987Y00002374798*
X00082478194Y00002352192*
X00082488582Y00002300198*
X00082495491Y00002242896*
X00082497295Y00002182190*
Y00002180488*
Y00002173478*
Y00002164892*
X00082495491Y00002152675*
Y00002137079*
X00082493789Y00002117979*
X00082492088Y00002097176*
X00082488582Y00002074697*
X00082481699Y00002026081*
X00082469482Y00001972284*
X00082453886Y00001916785*
X00082433083Y00001861286*
Y00001859483*
X00082429578Y00001854276*
X00082426098Y00001847392*
X00082420891Y00001838680*
X00082413983Y00001826590*
X00082407099Y00001812696*
X00082386195Y00001781479*
X00082360185Y00001744980*
X00082327292Y00001708581*
X00082290793Y00001673885*
X00082247486Y00001642694*
X00082245682*
X00082242177Y00001639189*
X00082235294Y00001635785*
X00082226581Y00001630578*
X00082214491Y00001625295*
X00082202299Y00001618386*
X00082186678Y00001613179*
X00082169381Y00001606296*
X00082131179Y00001592376*
X00082087897Y00001580184*
X00082040984Y00001571599*
X00082016676Y00001569796*
X00081990692Y00001568094*
X00081973394*
X00081955995Y00001569796*
X00081931687Y00001573276*
X00081903976Y00001578483*
X00081874487Y00001585391*
X00081843194Y00001594078*
X00081813781Y00001607997*
X00081810275Y00001609699*
X00081801589Y00001614881*
X00081785993Y00001625295*
X00081768594Y00001637487*
X00081747791Y00001651381*
X00081726989Y00001670380*
X00081706186Y00001691284*
X00081687085Y00001713788*
Y00001149985*
X00081491099*
Y00002754680*
X00081669788*
Y00002603779*
X00081673192Y00002605481*
X00081680177Y00002615895*
X00081694096Y00002633294*
X00081711393Y00002652395*
X00081732196Y00002673197*
X00081756478Y00002695676*
X00081782488Y00002716580*
X00081811977Y00002735580*
X00081813781*
X00081815482Y00002737383*
X00081825896Y00002742590*
X00081843194Y00002749499*
X00081865774Y00002758186*
X00081893486Y00002766898*
X00081926480Y00002773781*
X00081964682Y00002778988*
X00082004585Y00002780690*
X00082018479*
X00082028893Y00002778988*
G37*
G36*
X00085080398Y00003198799D02*
X00085092590Y00003197098D01*
X00085125483Y00003193592*
X00085161983Y00003186684*
X00085203588Y00003176295*
X00085245194Y00003162376*
X00085286875Y00003143275*
X00085288577*
X00085292082Y00003141599*
X00085297289Y00003138093*
X00085305900Y00003132886*
X00085324975Y00003120796*
X00085349283Y00003103397*
X00085377096Y00003080893*
X00085404782Y00003054781*
X00085432595Y00003025292*
X00085456877Y00002990596*
Y00002988894*
X00085458579Y00002987192*
X00085462084Y00002980182*
X00085465589Y00002973298*
X00085470695Y00002964586*
X00085475978Y00002954197*
X00085486392Y00002928188*
X00085496781Y00002896997*
X00085507195Y00002862275*
X00085514078Y00002824099*
X00085515881Y00002784195*
Y00002782493*
Y00002778988*
Y00002773781*
Y00002766898*
X00085512376Y00002745994*
X00085508896Y00002721787*
X00085501988Y00002692298*
X00085491599Y00002660980*
X00085477680Y00002628087*
X00085458579Y00002595092*
Y00002593390*
X00085456877Y00002591587*
X00085448190Y00002581198*
X00085436075Y00002565577*
X00085416999Y00002546477*
X00085394393Y00002523998*
X00085364878Y00002501392*
X00085331985Y00002480589*
X00085293784Y00002459786*
X00085295486*
X00085300693Y00002458085*
X00085307678Y00002456281*
X00085318092Y00002452878*
X00085328480Y00002449398*
X00085342399Y00002444191*
X00085375292Y00002430297*
X00085409989Y00002411196*
X00085446489Y00002388692*
X00085482887Y00002359177*
X00085514078Y00002322677*
X00085515881Y00002320975*
X00085517583Y00002317496*
X00085521088Y00002312289*
X00085526295Y00002303678*
X00085533179Y00002294991*
X00085540189Y00002282799*
X00085547098Y00002268982*
X00085553981Y00002251583*
X00085560992Y00002234285*
X00085567875Y00002215184*
X00085581794Y00002171776*
X00085590481Y00002121484*
X00085593885Y00002093696*
Y00002065985*
Y00002064181*
Y00002057298*
X00085592183Y00002045182*
Y00002031288*
X00085588678Y00002012188*
X00085585300Y00001991385*
X00085581794Y00001968779*
X00085574784Y00001942795*
X00085566199Y00001915083*
X00085555785Y00001887296*
X00085543593Y00001857781*
X00085527997Y00001828292*
X00085510674Y00001797075*
X00085489796Y00001767586*
X00085467291Y00001738096*
X00085439478Y00001710385*
X00085437776Y00001708581*
X00085432595Y00001703374*
X00085423883Y00001696491*
X00085411792Y00001687779*
X00085397898Y00001677390*
X00085378798Y00001665198*
X00085357995Y00001651381*
X00085333687Y00001639189*
X00085307678Y00001625295*
X00085278188Y00001611477*
X00085246997Y00001599285*
X00085212275Y00001588897*
X00085175775Y00001580184*
X00085137675Y00001573276*
X00085097797Y00001568094*
X00085054389Y00001566392*
X00085045677*
X00085033586Y00001568094*
X00085019692*
X00085000592Y00001569796*
X00084979789Y00001573276*
X00084957285Y00001576781*
X00084931199Y00001581988*
X00084903487Y00001588897*
X00084875674Y00001597583*
X00084846185Y00001606296*
X00084816696Y00001618386*
X00084787181Y00001633982*
X00084759495Y00001649577*
X00084729980Y00001668678*
X00084703996Y00001691284*
X00084702192Y00001692986*
X00084698789Y00001696491*
X00084691778Y00001703374*
X00084681390Y00001713788*
X00084670976Y00001725980*
X00084658885Y00001741576*
X00084646693Y00001758899*
X00084632800Y00001779676*
X00084618982Y00001800580*
X00084605088Y00001826590*
X00084591194Y00001852599*
X00084579079Y00001882089*
X00084568588Y00001913280*
X00084558174Y00001946275*
X00084551291Y00001980996*
X00084546084Y00002017395*
X00084742096Y00002043379*
Y00002041677*
X00084743899Y00002036495*
X00084745576Y00002027783*
X00084749081Y00002015693*
X00084752484Y00002001799*
X00084755990Y00001986178*
X00084768182Y00001949678*
X00084783777Y00001909876*
X00084802776Y00001869998*
X00084827084Y00001833499*
X00084840978Y00001817878*
X00084854897Y00001802282*
X00084856599*
X00084858377Y00001798777*
X00084863584Y00001795399*
X00084868791Y00001790192*
X00084886088Y00001779676*
X00084910396Y00001765884*
X00084939886Y00001751990*
X00084972880Y00001741576*
X00085012784Y00001732889*
X00085054389Y00001729384*
X00085068283*
X00085078697Y00001731187*
X00085089085Y00001732889*
X00085104681Y00001734591*
X00085135897Y00001741576*
X00085174099Y00001751990*
X00085213977Y00001769287*
X00085233078Y00001781479*
X00085252179Y00001793595*
X00085271178Y00001807489*
X00085290279Y00001824786*
X00085292082Y00001826590*
X00085293784Y00001829993*
X00085298991Y00001835277*
X00085305900Y00001842185*
X00085312885Y00001850898*
X00085319793Y00001862988*
X00085328480Y00001875180*
X00085338894Y00001890776*
X00085356293Y00001925497*
X00085370085Y00001965375*
X00085382277Y00002012188*
X00085383979Y00002036495*
X00085385681Y00002062480*
Y00002064181*
Y00002067687*
Y00002076399*
X00085383979Y00002085085*
X00085382277Y00002097176*
X00085380499Y00002109393*
X00085375292Y00002140585*
X00085363177Y00002176983*
X00085347581Y00002213381*
X00085337192Y00002232482*
X00085324975Y00002249881*
X00085311081Y00002267178*
X00085295486Y00002284577*
X00085293784Y00002286279*
X00085292082Y00002287981*
X00085286875Y00002293289*
X00085279890Y00002298395*
X00085271178Y00002305380*
X00085260789Y00002312289*
X00085234780Y00002329688*
X00085201887Y00002345283*
X00085163685Y00002359177*
X00085120276Y00002369591*
X00085095994Y00002371293*
X00085071686Y00002372995*
X00085061298*
X00085049182Y00002371293*
X00085033586*
X00085012784Y00002367889*
X00084990178Y00002364384*
X00084962390Y00002359177*
X00084932977Y00002352192*
X00084953779Y00002523998*
X00084957285*
X00084965895Y00002522194*
X00084976284Y00002520492*
X00084998890*
X00085007577Y00002522194*
X00085019692*
X00085031783Y00002523998*
X00085061298Y00002529179*
X00085095994Y00002536088*
X00085134196Y00002548280*
X00085174099Y00002563876*
X00085212275Y00002586380*
X00085213977*
X00085217482Y00002589885*
X00085220886Y00002593390*
X00085227896Y00002598597*
X00085245194Y00002614193*
X00085264294Y00002636697*
X00085281693Y00002664485*
X00085298991Y00002699181*
X00085305900Y00002718282*
X00085309379Y00002740787*
X00085312885Y00002763393*
X00085314586Y00002787675*
Y00002789377*
Y00002792882*
Y00002798089*
X00085312885Y00002806776*
X00085311081Y00002825775*
X00085305900Y00002851886*
X00085297289Y00002879598*
X00085283395Y00002909087*
X00085264294Y00002940278*
X00085253880Y00002954197*
X00085239987Y00002968091*
X00085236481Y00002971596*
X00085226093Y00002978480*
X00085210497Y00002990596*
X00085189695Y00003004489*
X00085161983Y00003016681*
X00085128989Y00003028797*
X00085092590Y00003035681*
X00085050884Y00003039186*
X00085040495*
X00085031783Y00003037484*
X00085021394*
X00085010980Y00003035681*
X00084983294Y00003030575*
X00084953779Y00003021888*
X00084920785Y00003007995*
X00084889594Y00002990596*
X00084858377Y00002966389*
X00084854897Y00002962884*
X00084846185Y00002952496*
X00084832291Y00002936875*
X00084818499Y00002912592*
X00084801075Y00002883077*
X00084785479Y00002844876*
X00084771585Y00002801493*
X00084761197Y00002751175*
X00084565185Y00002785897*
Y00002787675*
X00084566887Y00002794584*
X00084568588Y00002804998*
X00084572094Y00002818892*
X00084577275Y00002834487*
X00084582482Y00002853588*
X00084589493Y00002874391*
X00084598078Y00002896997*
X00084620684Y00002947289*
X00084632800Y00002971596*
X00084648497Y00002997581*
X00084665794Y00003021888*
X00084684895Y00003046196*
X00084705698Y00003070479*
X00084728177Y00003091281*
X00084729980Y00003092983*
X00084733485Y00003096488*
X00084742096Y00003101695*
X00084750783Y00003108579*
X00084764676Y00003117291*
X00084778596Y00003125978*
X00084795893Y00003136392*
X00084816696Y00003146780*
X00084837498Y00003155492*
X00084861781Y00003165881*
X00084887790Y00003174492*
X00084915578Y00003183178*
X00084946794Y00003190189*
X00084978087Y00003195396*
X00085010980Y00003198799*
X00085045677Y00003200577*
X00085068283*
X00085080398Y00003198799*
G37*
G36*
X00075634291D02*
X00075646483Y00003197098D01*
X00075679376Y00003193592*
X00075715876Y00003186684*
X00075757481Y00003176295*
X00075799086Y00003162376*
X00075840793Y00003143275*
X00075842495*
X00075845974Y00003141599*
X00075851181Y00003138093*
X00075859792Y00003132886*
X00075878893Y00003120796*
X00075903175Y00003103397*
X00075930988Y00003080893*
X00075958700Y00003054781*
X00075986487Y00003025292*
X00076010795Y00002990596*
Y00002988894*
X00076012497Y00002987192*
X00076015977Y00002980182*
X00076019380Y00002973298*
X00076024689Y00002964586*
X00076029896Y00002954197*
X00076040284Y00002928188*
X00076050698Y00002896997*
X00076061087Y00002862275*
X00076067996Y00002824099*
X00076069799Y00002784195*
Y00002782493*
Y00002778988*
Y00002773781*
Y00002766898*
X00076066294Y00002745994*
X00076062789Y00002721787*
X00076055880Y00002692298*
X00076045491Y00002660980*
X00076031598Y00002628087*
X00076012497Y00002595092*
Y00002593390*
X00076010795Y00002591587*
X00076002083Y00002581198*
X00075989992Y00002565577*
X00075970892Y00002546477*
X00075948286Y00002523998*
X00075918796Y00002501392*
X00075885878Y00002480589*
X00075847676Y00002459786*
X00075849378*
X00075854687Y00002458085*
X00075861595Y00002456281*
X00075871984Y00002452878*
X00075882398Y00002449398*
X00075896292Y00002444191*
X00075929185Y00002430297*
X00075963881Y00002411196*
X00076000381Y00002388692*
X00076036779Y00002359177*
X00076067996Y00002322677*
X00076069799Y00002320975*
X00076071476Y00002317496*
X00076074981Y00002312289*
X00076080188Y00002303678*
X00076087097Y00002294991*
X00076093980Y00002282799*
X00076100990Y00002268982*
X00076107899Y00002251583*
X00076114884Y00002234285*
X00076121793Y00002215184*
X00076135687Y00002171776*
X00076144399Y00002121484*
X00076147777Y00002093696*
Y00002065985*
Y00002064181*
Y00002057298*
X00076146075Y00002045182*
Y00002031288*
X00076142596Y00002012188*
X00076139192Y00001991385*
X00076135687Y00001968779*
X00076128778Y00001942795*
X00076120091Y00001915083*
X00076109677Y00001887296*
X00076097485Y00001857781*
X00076081890Y00001828292*
X00076064592Y00001797075*
X00076043688Y00001767586*
X00076021184Y00001738096*
X00075993396Y00001710385*
X00075991694Y00001708581*
X00075986487Y00001703374*
X00075977775Y00001696491*
X00075965685Y00001687779*
X00075951791Y00001677390*
X00075932690Y00001665198*
X00075911887Y00001651381*
X00075887580Y00001639189*
X00075861595Y00001625295*
X00075832081Y00001611477*
X00075800889Y00001599285*
X00075766193Y00001588897*
X00075729693Y00001580184*
X00075691593Y00001573276*
X00075651690Y00001568094*
X00075608281Y00001566392*
X00075599594*
X00075587479Y00001568094*
X00075573585*
X00075554484Y00001569796*
X00075533681Y00001573276*
X00075511075Y00001576781*
X00075485091Y00001581988*
X00075457380Y00001588897*
X00075429592Y00001597583*
X00075400077Y00001606296*
X00075370588Y00001618386*
X00075341099Y00001633982*
X00075313387Y00001649577*
X00075283898Y00001668678*
X00075257888Y00001691284*
X00075256085Y00001692986*
X00075252681Y00001696491*
X00075245696Y00001703374*
X00075235282Y00001713788*
X00075224894Y00001725980*
X00075212778Y00001741576*
X00075200586Y00001758899*
X00075186692Y00001779676*
X00075172874Y00001800580*
X00075158981Y00001826590*
X00075145087Y00001852599*
X00075132996Y00001882089*
X00075122582Y00001913280*
X00075112092Y00001946275*
X00075105183Y00001980996*
X00075099976Y00002017395*
X00075295988Y00002043379*
Y00002041677*
X00075297792Y00002036495*
X00075299493Y00002027783*
X00075302999Y00002015693*
X00075306377Y00002001799*
X00075309882Y00001986178*
X00075322099Y00001949678*
X00075337695Y00001909876*
X00075356796Y00001869998*
X00075380977Y00001833499*
X00075394896Y00001817878*
X00075408790Y00001802282*
X00075410491*
X00075412295Y00001798777*
X00075417476Y00001795399*
X00075422683Y00001790192*
X00075439981Y00001779676*
X00075464289Y00001765884*
X00075493778Y00001751990*
X00075526798Y00001741576*
X00075566676Y00001732889*
X00075608281Y00001729384*
X00075622175*
X00075632589Y00001731187*
X00075642978Y00001732889*
X00075658599Y00001734591*
X00075689790Y00001741576*
X00075727991Y00001751990*
X00075767895Y00001769287*
X00075786996Y00001781479*
X00075806096Y00001793595*
X00075825096Y00001807489*
X00075844196Y00001824786*
X00075845974Y00001826590*
X00075847676Y00001829993*
X00075852883Y00001835277*
X00075859792Y00001842185*
X00075866777Y00001850898*
X00075873686Y00001862988*
X00075882398Y00001875180*
X00075892787Y00001890776*
X00075910186Y00001925497*
X00075923978Y00001965375*
X00075936195Y00002012188*
X00075937897Y00002036495*
X00075939675Y00002062480*
Y00002064181*
Y00002067687*
Y00002076399*
X00075937897Y00002085085*
X00075936195Y00002097176*
X00075934392Y00002109393*
X00075929185Y00002140585*
X00075917094Y00002176983*
X00075901499Y00002213381*
X00075891085Y00002232482*
X00075878893Y00002249881*
X00075865075Y00002267178*
X00075849378Y00002284577*
X00075847676Y00002286279*
X00075845974Y00002287981*
X00075840793Y00002293289*
X00075833782Y00002298395*
X00075825096Y00002305380*
X00075814783Y00002312289*
X00075788697Y00002329688*
X00075755779Y00002345283*
X00075717577Y00002359177*
X00075674194Y00002369591*
X00075649886Y00002371293*
X00075625579Y00002372995*
X00075615190*
X00075603100Y00002371293*
X00075587479*
X00075566676Y00002367889*
X00075544095Y00002364384*
X00075516384Y00002359177*
X00075486895Y00002352192*
X00075507697Y00002523998*
X00075511075*
X00075519788Y00002522194*
X00075530176Y00002520492*
X00075552782*
X00075561494Y00002522194*
X00075573585*
X00075585675Y00002523998*
X00075615190Y00002529179*
X00075649886Y00002536088*
X00075688088Y00002548280*
X00075727991Y00002563876*
X00075766193Y00002586380*
X00075767895*
X00075771375Y00002589885*
X00075774778Y00002593390*
X00075781789Y00002598597*
X00075799086Y00002614193*
X00075818187Y00002636697*
X00075835586Y00002664485*
X00075852883Y00002699181*
X00075859792Y00002718282*
X00075863297Y00002740787*
X00075866777Y00002763393*
X00075868479Y00002787675*
Y00002789377*
Y00002792882*
Y00002798089*
X00075866777Y00002806776*
X00075865075Y00002825775*
X00075859792Y00002851886*
X00075851181Y00002879598*
X00075837288Y00002909087*
X00075818187Y00002940278*
X00075807798Y00002954197*
X00075793879Y00002968091*
X00075790475Y00002971596*
X00075780087Y00002978480*
X00075764390Y00002990596*
X00075743587Y00003004489*
X00075715876Y00003016681*
X00075682881Y00003028797*
X00075646483Y00003035681*
X00075604776Y00003039186*
X00075594387*
X00075585675Y00003037484*
X00075575287*
X00075564898Y00003035681*
X00075537187Y00003030575*
X00075507697Y00003021888*
X00075474677Y00003007995*
X00075443486Y00002990596*
X00075412295Y00002966389*
X00075408790Y00002962884*
X00075400077Y00002952496*
X00075386184Y00002936875*
X00075372391Y00002912592*
X00075354992Y00002883077*
X00075339397Y00002844876*
X00075325478Y00002801493*
X00075315089Y00002751175*
X00075119077Y00002785897*
Y00002787675*
X00075120779Y00002794584*
X00075122582Y00002804998*
X00075125986Y00002818892*
X00075131193Y00002834487*
X00075136375Y00002853588*
X00075143385Y00002874391*
X00075151996Y00002896997*
X00075174576Y00002947289*
X00075186692Y00002971596*
X00075202288Y00002997581*
X00075219687Y00003021888*
X00075238787Y00003046196*
X00075259590Y00003070479*
X00075282196Y00003091281*
X00075283898Y00003092983*
X00075287378Y00003096488*
X00075295988Y00003101695*
X00075304675Y00003108579*
X00075318594Y00003117291*
X00075332488Y00003125978*
X00075349785Y00003136392*
X00075370588Y00003146780*
X00075391391Y00003155492*
X00075415698Y00003165881*
X00075441784Y00003174492*
X00075469496Y00003183178*
X00075500687Y00003190189*
X00075531980Y00003195396*
X00075564898Y00003198799*
X00075599594Y00003200577*
X00075622175*
X00075634291Y00003198799*
G37*
G36*
X00087391189Y00001594078D02*
X00087186490D01*
Y00002935097*
X00086718089Y00001594078*
X00086527284*
X00086065791Y00002957677*
Y00001594078*
X00085861093*
Y00003195396*
X00086178593*
X00086558475Y00002060778*
Y00002059076*
X00086560177Y00002053793*
X00086563682Y00002045182*
X00086567187Y00002034794*
X00086570591Y00002022576*
X00086575798Y00002006981*
X00086587990Y00001972284*
X00086600080Y00001934083*
X00086612298Y00001894179*
X00086624388Y00001857781*
X00086629595Y00001840484*
X00086634777Y00001824786*
Y00001826590*
X00086636580Y00001828292*
X00086638282Y00001833499*
X00086639984Y00001840484*
X00086643489Y00001850898*
X00086646994Y00001861286*
X00086650398Y00001875180*
X00086655579Y00001888998*
X00086660786Y00001906397*
X00086667797Y00001925497*
X00086674680Y00001946275*
X00086681691Y00001970582*
X00086690276Y00001994890*
X00086698988Y00002022576*
X00086709377Y00002050389*
X00086719791Y00002081580*
X00087104880Y00003195396*
X00087391189*
Y00001594078*
G37*
G36*
X00077945081D02*
X00077740383D01*
Y00002935097*
X00077271981Y00001594078*
X00077081176*
X00076619684Y00002957677*
Y00001594078*
X00076414985*
Y00003195396*
X00076732485*
X00077112393Y00002060778*
Y00002059076*
X00077114095Y00002053793*
X00077117575Y00002045182*
X00077121080Y00002034794*
X00077124483Y00002022576*
X00077129690Y00002006981*
X00077141882Y00001972284*
X00077153998Y00001934083*
X00077166190Y00001894179*
X00077178281Y00001857781*
X00077183488Y00001840484*
X00077188695Y00001824786*
Y00001826590*
X00077190498Y00001828292*
X00077192174Y00001833499*
X00077193876Y00001840484*
X00077197381Y00001850898*
X00077200887Y00001861286*
X00077204290Y00001875180*
X00077209497Y00001888998*
X00077214780Y00001906397*
X00077221689Y00001925497*
X00077228598Y00001946275*
X00077235583Y00001970582*
X00077244194Y00001994890*
X00077252880Y00002022576*
X00077263294Y00002050389*
X00077273683Y00002081580*
X00077658899Y00003195396*
X00077945081*
Y00001594078*
G37*
G36*
X00088180494Y00003198799D02*
X00088194388D01*
X00088209983Y00003195396*
X00088229084Y00003193592*
X00088248185Y00003190189*
X00088293295Y00003179699*
X00088340082Y00003164078*
X00088364390Y00003155492*
X00088390476Y00003143275*
X00088414682Y00003131185*
X00088438990Y00003115589*
X00088440793Y00003113786*
X00088444197Y00003112084*
X00088451182Y00003106877*
X00088459792Y00003099892*
X00088471984Y00003091281*
X00088484075Y00003080893*
X00088497994Y00003068675*
X00088511888Y00003054781*
X00088527483Y00003039186*
X00088544882Y00003020085*
X00088560478Y00003001086*
X00088577775Y00002980182*
X00088593396Y00002955975*
X00088608992Y00002931693*
X00088622886Y00002903880*
X00088636779Y00002876092*
Y00002874391*
X00088640285Y00002869184*
X00088643688Y00002860497*
X00088647193Y00002846679*
X00088652375Y00002830982*
X00088657582Y00002811983*
X00088664592Y00002789377*
X00088671476Y00002761691*
X00088676683Y00002732176*
X00088683592Y00002699181*
X00088688799Y00002660980*
X00088694082Y00002621076*
X00088697485Y00002577795*
X00088700991Y00002530881*
X00088704496Y00002480589*
Y00002426792*
Y00002423388*
Y00002413000*
Y00002397277*
X00088702692Y00002376474*
Y00002350490*
X00088700991Y00002319299*
X00088699187Y00002286279*
X00088695784Y00002249881*
X00088692278Y00002211679*
X00088688799Y00002171776*
X00088676683Y00002090292*
X00088659284Y00002010486*
X00088648895Y00001973986*
X00088636779Y00001937588*
Y00001935886*
X00088633300Y00001928876*
X00088629896Y00001920290*
X00088624689Y00001908098*
X00088617679Y00001892477*
X00088608992Y00001875180*
X00088598578Y00001856079*
X00088588189Y00001835277*
X00088560478Y00001791893*
X00088525781Y00001744980*
X00088485878Y00001701698*
X00088463297Y00001680895*
X00088438990Y00001661795*
X00088437288Y00001659991*
X00088433783Y00001658289*
X00088425096Y00001653082*
X00088416485Y00001647875*
X00088402591Y00001640992*
X00088388698Y00001632280*
X00088371375Y00001623593*
X00088350496Y00001614881*
X00088329693Y00001606296*
X00088305487Y00001597583*
X00088281179Y00001590598*
X00088253392Y00001581988*
X00088194388Y00001571599*
X00088163196Y00001569796*
X00088130176Y00001568094*
X00088112879*
X00088098985Y00001569796*
X00088083390Y00001571599*
X00088064289Y00001573276*
X00088043486Y00001576781*
X00088020880Y00001581988*
X00087972392Y00001594078*
X00087948084Y00001602790*
X00087922100Y00001611477*
X00087895988Y00001623593*
X00087869979Y00001637487*
X00087845696Y00001653082*
X00087823192Y00001672183*
X00087821389Y00001673885*
X00087817985Y00001677390*
X00087812778Y00001682597*
X00087804091Y00001691284*
X00087795379Y00001701698*
X00087784990Y00001715490*
X00087772875Y00001731187*
X00087760683Y00001748485*
X00087748592Y00001767586*
X00087736375Y00001790192*
X00087725986Y00001814398*
X00087713896Y00001840484*
X00087703482Y00001868195*
X00087694795Y00001897684*
X00087687886Y00001930679*
X00087682578Y00001965375*
X00087871681Y00001980996*
Y00001979193*
X00087873484Y00001975789*
Y00001968779*
X00087876989Y00001958390*
X00087878691Y00001947976*
X00087882095Y00001935886*
X00087890781Y00001906397*
X00087902999Y00001875180*
X00087918594Y00001843887*
X00087939397Y00001814398*
X00087949786Y00001800580*
X00087961978Y00001788388*
X00087965381Y00001786686*
X00087974093Y00001779676*
X00087989689Y00001769287*
X00088008790Y00001758899*
X00088034799Y00001748485*
X00088064289Y00001738096*
X00088097283Y00001731187*
X00088135383Y00001729384*
X00088150979*
X00088168378Y00001731187*
X00088189181Y00001734591*
X00088213488Y00001739798*
X00088239498Y00001746783*
X00088267286Y00001755495*
X00088293295Y00001769287*
X00088296775Y00001771091*
X00088305487Y00001776298*
X00088317578Y00001786686*
X00088333199Y00001798777*
X00088350496Y00001814398*
X00088369597Y00001833499*
X00088388698Y00001856079*
X00088406097Y00001880387*
X00088407798Y00001883791*
X00088412980Y00001892477*
X00088421692Y00001908098*
X00088432081Y00001930679*
X00088442495Y00001956689*
X00088454585Y00001987880*
X00088466777Y00002026081*
X00088478893Y00002067687*
Y00002069490*
X00088480696Y00002072894*
X00088482398Y00002079879*
X00088484075Y00002088489*
X00088485878Y00002098878*
X00088487580Y00002111095*
X00088491085Y00002126691*
X00088494489Y00002142286*
X00088499696Y00002178786*
X00088503175Y00002218690*
X00088506681Y00002261997*
X00088508382Y00002307082*
Y00002310587*
Y00002317496*
Y00002329688*
Y00002345283*
X00088504979Y00002343581*
X00088503175Y00002338374*
X00088497994Y00002331389*
X00088484075Y00002314092*
X00088466777Y00002293289*
X00088442495Y00002268982*
X00088414682Y00002242896*
X00088383491Y00002218690*
X00088347092Y00002194382*
X00088345391*
X00088341885Y00002192578*
X00088336678Y00002189175*
X00088329693Y00002185695*
X00088319279Y00002180488*
X00088308891Y00002176983*
X00088281179Y00002166594*
X00088248185Y00002154478*
X00088209983Y00002145792*
X00088168378Y00002138781*
X00088124995Y00002137079*
X00088116283*
X00088105894Y00002138781*
X00088092076*
X00088074677Y00002142286*
X00088055577Y00002143988*
X00088033098Y00002149297*
X00088008790Y00002154478*
X00087982780Y00002163089*
X00087956694Y00002171776*
X00087928983Y00002183993*
X00087901195Y00002197785*
X00087871681Y00002213381*
X00087843995Y00002232482*
X00087816182Y00002255088*
X00087790197Y00002279396*
X00087788496Y00002281097*
X00087784990Y00002286279*
X00087778082Y00002294991*
X00087769395Y00002305380*
X00087758981Y00002319299*
X00087746789Y00002336596*
X00087734698Y00002357399*
X00087722481Y00002381681*
X00087708689Y00002405989*
X00087696497Y00002435479*
X00087684381Y00002466695*
X00087673992Y00002499690*
X00087665280Y00002536088*
X00087658397Y00002575991*
X00087654892Y00002615895*
X00087653190Y00002659278*
Y00002662783*
Y00002669692*
X00087654892Y00002683586*
Y00002699181*
X00087658397Y00002719984*
X00087660099Y00002744292*
X00087665280Y00002770276*
X00087670487Y00002799791*
X00087679199Y00002829280*
X00087687886Y00002862275*
X00087699977Y00002895193*
X00087713896Y00002926486*
X00087729491Y00002959379*
X00087748592Y00002992399*
X00087771097Y00003021888*
X00087795379Y00003051378*
X00087797081Y00003053080*
X00087802389Y00003058287*
X00087810975Y00003065195*
X00087821389Y00003073882*
X00087835282Y00003086100*
X00087852681Y00003098190*
X00087871681Y00003112084*
X00087894287Y00003125978*
X00087918594Y00003139795*
X00087946280Y00003153689*
X00087975795Y00003165881*
X00088007088Y00003177997*
X00088041784Y00003186684*
X00088078183Y00003193592*
X00088114581Y00003198799*
X00088154484Y00003200577*
X00088170080*
X00088180494Y00003198799*
G37*
G36*
X00092432581Y00003020085D02*
X00092430777Y00003018383D01*
X00092425697Y00003013176*
X00092416985Y00003002788*
X00092406597Y00002990596*
X00092392677Y00002973298*
X00092375278Y00002954197*
X00092357981Y00002931693*
X00092337178Y00002905582*
X00092314598Y00002876092*
X00092290290Y00002843199*
X00092264280Y00002806776*
X00092238296Y00002768600*
X00092212287Y00002728696*
X00092184499Y00002683586*
X00092154984Y00002636697*
X00092127298Y00002588183*
X00092125495Y00002584678*
X00092120288Y00002575991*
X00092113379Y00002562199*
X00092102990Y00002541295*
X00092090798Y00002516987*
X00092075177Y00002487599*
X00092059582Y00002454579*
X00092042284Y00002418181*
X00092024885Y00002378278*
X00092005785Y00002334895*
X00091986684Y00002287981*
X00091967685Y00002241194*
X00091948584Y00002190877*
X00091929483Y00002138781*
X00091896488Y00002032990*
Y00002031288*
X00091894787Y00002024278*
X00091891281Y00002012188*
X00091887776Y00001998294*
X00091882696Y00001979193*
X00091877388Y00001956689*
X00091870479Y00001930679*
X00091865297Y00001902891*
X00091858388Y00001871675*
X00091853181Y00001836978*
X00091846196Y00001800580*
X00091840989Y00001762379*
X00091834081Y00001722475*
X00091828899Y00001680895*
X00091821889Y00001594078*
X00091620695*
Y00001595780*
Y00001602790*
Y00001613179*
X00091622397Y00001627098*
X00091624175Y00001646199*
X00091625877Y00001666976*
X00091627579Y00001692986*
X00091631084Y00001720799*
X00091634589Y00001753692*
X00091639796Y00001786686*
X00091644978Y00001824786*
X00091651886Y00001864791*
X00091660599Y00001908098*
X00091669285Y00001953183*
X00091681376Y00002000097*
X00091693593Y00002048586*
X00091695295Y00002052091*
X00091696997Y00002060778*
X00091700477Y00002074697*
X00091707385Y00002093696*
X00091714396Y00002117979*
X00091722981Y00002147493*
X00091733497Y00002178786*
X00091745587Y00002213381*
X00091759481Y00002251583*
X00091775076Y00002293289*
X00091790697Y00002336596*
X00091809798Y00002379980*
X00091849676Y00002471877*
X00091896488Y00002565577*
X00091898292Y00002569083*
X00091903499Y00002575991*
X00091910382Y00002589885*
X00091919094Y00002607183*
X00091932988Y00002628087*
X00091946780Y00002652395*
X00091964179Y00002680081*
X00091981477Y00002711297*
X00092002279Y00002742590*
X00092024885Y00002777286*
X00092073476Y00002846679*
X00092125495Y00002917799*
X00092153282Y00002952496*
X00092180994Y00002985389*
X00091396896*
Y00003174492*
X00092432581*
Y00003020085*
G37*
G36*
X00091188692D02*
X00091186990Y00003018383D01*
X00091181783Y00003013176*
X00091173096Y00003002788*
X00091162682Y00002990596*
X00091148789Y00002973298*
X00091131491Y00002954197*
X00091114092Y00002931693*
X00091093290Y00002905582*
X00091070684Y00002876092*
X00091046477Y00002843199*
X00091020392Y00002806776*
X00090994382Y00002768600*
X00090968398Y00002728696*
X00090940585Y00002683586*
X00090911095Y00002636697*
X00090883384Y00002588183*
X00090881682Y00002584678*
X00090876399Y00002575991*
X00090869490Y00002562199*
X00090859076Y00002541295*
X00090846986Y00002516987*
X00090831390Y00002487599*
X00090815693Y00002454579*
X00090798396Y00002418181*
X00090780997Y00002378278*
X00090761896Y00002334895*
X00090742897Y00002287981*
X00090723796Y00002241194*
X00090704695Y00002190877*
X00090685594Y00002138781*
X00090652676Y00002032990*
Y00002031288*
X00090650898Y00002024278*
X00090647494Y00002012188*
X00090643989Y00001998294*
X00090638782Y00001979193*
X00090633575Y00001956689*
X00090626590Y00001930679*
X00090621383Y00001902891*
X00090614500Y00001871675*
X00090609293Y00001836978*
X00090602282Y00001800580*
X00090597177Y00001762379*
X00090590192Y00001722475*
X00090584985Y00001680895*
X00090578076Y00001594078*
X00090376781*
Y00001595780*
Y00001602790*
Y00001613179*
X00090378584Y00001627098*
X00090380286Y00001646199*
X00090381988Y00001666976*
X00090383791Y00001692986*
X00090387195Y00001720799*
X00090390675Y00001753692*
X00090395882Y00001786686*
X00090401089Y00001824786*
X00090408099Y00001864791*
X00090416684Y00001908098*
X00090425397Y00001953183*
X00090437487Y00002000097*
X00090449679Y00002048586*
X00090451381Y00002052091*
X00090453184Y00002060778*
X00090456588Y00002074697*
X00090463598Y00002093696*
X00090470482Y00002117979*
X00090479194Y00002147493*
X00090489582Y00002178786*
X00090501698Y00002213381*
X00090515592Y00002251583*
X00090531188Y00002293289*
X00090546783Y00002336596*
X00090565884Y00002379980*
X00090605787Y00002471877*
X00090652676Y00002565577*
X00090654378Y00002569083*
X00090659585Y00002575991*
X00090666493Y00002589885*
X00090675180Y00002607183*
X00090689099Y00002628087*
X00090702993Y00002652395*
X00090720291Y00002680081*
X00090737690Y00002711297*
X00090758492Y00002742590*
X00090780997Y00002777286*
X00090829587Y00002846679*
X00090881682Y00002917799*
X00090909394Y00002952496*
X00090937181Y00002985389*
X00090152982*
Y00003174492*
X00091188692*
Y00003020085*
G37*
G36*
X00080774590Y00002778988D02*
X00080790186D01*
X00080823181Y00002775483*
X00080861281Y00002772079*
X00080901184Y00002765094*
X00080941087Y00002756382*
X00080977587Y00002744292*
X00080979289*
X00080980991Y00002742590*
X00080986198Y00002740787*
X00080993183Y00002737383*
X00081008778Y00002730398*
X00081029581Y00002719984*
X00081052187Y00002707894*
X00081074691Y00002692298*
X00081095494Y00002674899*
X00081114595Y00002655798*
X00081116398Y00002654096*
X00081121580Y00002647188*
X00081130190Y00002634996*
X00081138877Y00002619375*
X00081149291Y00002600299*
X00081159680Y00002577795*
X00081170094Y00002551684*
X00081177079Y00002522194*
Y00002520492*
X00081178781Y00002511780*
X00081180482Y00002499690*
X00081182286Y00002480589*
X00081183988Y00002456281*
X00081185791Y00002425090*
Y00002405989*
X00081187493Y00002386888*
Y00002366086*
Y00002341778*
Y00002079879*
Y00002076399*
Y00002067687*
Y00002053793*
Y00002036495*
Y00002013889*
Y00001989683*
X00081189195Y00001961896*
Y00001934083*
X00081190896Y00001875180*
Y00001845691*
X00081192674Y00001817878*
X00081194376Y00001791893*
X00081196180Y00001769287*
X00081197881Y00001748485*
X00081199583Y00001732889*
Y00001729384*
X00081201387Y00001720799*
X00081204790Y00001706880*
X00081209997Y00001687779*
X00081216982Y00001666976*
X00081225593Y00001644396*
X00081236083Y00001618386*
X00081248199Y00001594078*
X00081043475*
X00081041798Y00001597583*
X00081038293Y00001604492*
X00081033086Y00001618386*
X00081027879Y00001635785*
X00081020894Y00001656588*
X00081013985Y00001680895*
X00081008778Y00001708581*
X00081005299Y00001739798*
X00081003597Y00001738096*
X00081000092Y00001736394*
X00080994885Y00001731187*
X00080986198Y00001724177*
X00080975784Y00001717294*
X00080965395Y00001706880*
X00080937684Y00001687779*
X00080904689Y00001665198*
X00080869993Y00001642694*
X00080831791Y00001623593*
X00080793691Y00001606296*
X00080791888*
X00080788484Y00001604492*
X00080783277Y00001602790*
X00080776292Y00001601089*
X00080767682Y00001597583*
X00080755490Y00001594078*
X00080729480Y00001587195*
X00080696485Y00001580184*
X00080660087Y00001573276*
X00080620184Y00001569796*
X00080576775Y00001568094*
X00080557674*
X00080545584Y00001569796*
X00080529988Y00001571599*
X00080510888Y00001573276*
X00080490085Y00001574977*
X00080469282Y00001580184*
X00080420692Y00001590598*
X00080372077Y00001606296*
X00080349598Y00001616684*
X00080325290Y00001630578*
X00080304487Y00001644396*
X00080283583Y00001659991*
X00080281881Y00001661795*
X00080278376Y00001665198*
X00080274998Y00001670380*
X00080267987Y00001677390*
X00080259377Y00001686077*
X00080250690Y00001698193*
X00080241978Y00001710385*
X00080233291Y00001725980*
X00080214190Y00001758899*
X00080196893Y00001800580*
X00080189984Y00001823085*
X00080186479Y00001847392*
X00080182999Y00001873377*
X00080181297Y00001899386*
Y00001901190*
Y00001902891*
Y00001913280*
X00080182999Y00001930679*
X00080186479Y00001951482*
X00080189984Y00001975789*
X00080196893Y00002001799*
X00080207281Y00002027783*
X00080219499Y00002055596*
X00080221175Y00002059076*
X00080226382Y00002067687*
X00080235094Y00002079879*
X00080247185Y00002097176*
X00080261079Y00002114575*
X00080278376Y00002133676*
X00080297477Y00002150999*
X00080320083Y00002168296*
X00080323486Y00002170099*
X00080332199Y00002175281*
X00080344391Y00002183993*
X00080361688Y00002192578*
X00080382491Y00002202992*
X00080406798Y00002213381*
X00080434586Y00002223897*
X00080462297Y00002232482*
X00080465777*
X00080472686Y00002235987*
X00080486580Y00002237689*
X00080505681Y00002242896*
X00080529988Y00002246376*
X00080561180Y00002251583*
X00080595876Y00002256790*
X00080637583Y00002261997*
X00080640986*
X00080647895Y00002263775*
X00080660087Y00002265476*
X00080675683Y00002267178*
X00080696485Y00002270683*
X00080719091Y00002274189*
X00080743399Y00002277592*
X00080771085Y00002281097*
X00080828388Y00002291486*
X00080885588Y00002303678*
X00080913376Y00002310587*
X00080941087Y00002317496*
X00080965395Y00002324481*
X00080987976Y00002331389*
Y00002333091*
Y00002338374*
Y00002345283*
X00080989678Y00002352192*
Y00002369591*
Y00002376474*
Y00002381681*
Y00002383485*
Y00002386888*
Y00002393899*
Y00002400782*
X00080986198Y00002421585*
X00080982794Y00002447594*
X00080975784Y00002475382*
X00080965395Y00002503195*
X00080951578Y00002529179*
X00080932477Y00002549982*
X00080928997Y00002553487*
X00080925492Y00002556891*
X00080918583Y00002560396*
X00080909896Y00002565577*
X00080901184Y00002570784*
X00080876978Y00002584678*
X00080845685Y00002596794*
X00080807585Y00002607183*
X00080762475Y00002614193*
X00080710379Y00002617698*
X00080687875*
X00080675683Y00002615895*
X00080663592*
X00080632300Y00002612491*
X00080599381Y00002605481*
X00080566387Y00002596794*
X00080533494Y00002584678*
X00080505681Y00002569083*
X00080502175Y00002567279*
X00080495292Y00002560396*
X00080483075Y00002546477*
X00080469282Y00002529179*
X00080453687Y00002506599*
X00080436288Y00002475382*
X00080422394Y00002440686*
X00080415485Y00002419883*
X00080408475Y00002397277*
X00080215994Y00002423388*
Y00002425090*
X00080217695Y00002428595*
X00080219499Y00002435479*
X00080221175Y00002444191*
X00080224680Y00002454579*
X00080228084Y00002466695*
X00080236796Y00002494483*
X00080248887Y00002525699*
X00080262780Y00002558694*
X00080280179Y00002591587*
X00080300982Y00002621076*
Y00002622880*
X00080304487Y00002624582*
X00080313098Y00002633294*
X00080326992Y00002647188*
X00080346092Y00002664485*
X00080370375Y00002683586*
X00080399890Y00002702687*
X00080434586Y00002721787*
X00080474489Y00002739085*
X00080476191*
X00080479696Y00002740787*
X00080486580Y00002742590*
X00080495292Y00002745994*
X00080505681Y00002749499*
X00080517796Y00002752979*
X00080533494Y00002756382*
X00080550791Y00002759887*
X00080568190Y00002763393*
X00080588993Y00002766898*
X00080634078Y00002773781*
X00080684395Y00002778988*
X00080738192Y00002780690*
X00080762475*
X00080774590Y00002778988*
G37*
G36*
X00080052875Y00003006293D02*
X00079525495D01*
Y00001594078*
X00079313887*
Y00003006293*
X00078786482*
Y00003195396*
X00080052875*
Y00003006293*
G37*
G36*
X00089450392Y00003198799D02*
X00089462584Y00003197098D01*
X00089493775Y00003193592*
X00089528497Y00003188385*
X00089566699Y00003177997*
X00089604799Y00003165881*
X00089642975Y00003148482*
X00089644677*
X00089648182Y00003146780*
X00089653389Y00003143275*
X00089660298Y00003138093*
X00089677697Y00003127679*
X00089700176Y00003110280*
X00089726287Y00003089478*
X00089752297Y00003063494*
X00089780084Y00003032277*
X00089804290Y00002997581*
Y00002995879*
X00089807796Y00002992399*
X00089809497Y00002987192*
X00089814679Y00002980182*
X00089819886Y00002971596*
X00089826896Y00002959379*
X00089832078Y00002945485*
X00089840790Y00002931693*
X00089856386Y00002896997*
X00089871981Y00002857093*
X00089889279Y00002810179*
X00089903198Y00002759887*
Y00002758186*
X00089904976Y00002752979*
X00089906678Y00002745994*
X00089908380Y00002733878*
X00089911885Y00002719984*
X00089915390Y00002702687*
X00089918794Y00002683586*
X00089922299Y00002660980*
X00089923975Y00002634996*
X00089927480Y00002607183*
X00089930986Y00002575991*
X00089934389Y00002543098*
X00089936193Y00002506599*
X00089937894Y00002468499*
X00089939698Y00002426792*
Y00002383485*
Y00002379980*
Y00002371293*
Y00002355697*
Y00002336596*
X00089937894Y00002312289*
X00089936193Y00002286279*
X00089934389Y00002255088*
X00089932687Y00002222093*
X00089929182Y00002185695*
X00089925779Y00002149297*
X00089915390Y00002072894*
X00089899693Y00001998294*
X00089891082Y00001961896*
X00089880694Y00001928876*
Y00001927199*
X00089877188Y00001921992*
X00089875487Y00001911578*
X00089870280Y00001901190*
X00089863295Y00001885594*
X00089856386Y00001869998*
X00089847699Y00001850898*
X00089837285Y00001829993*
X00089812977Y00001786686*
X00089783488Y00001743278*
X00089748791Y00001699895*
X00089727989Y00001680895*
X00089707186Y00001661795*
X00089705484Y00001659991*
X00089701979Y00001658289*
X00089694994Y00001653082*
X00089686384Y00001647875*
X00089675995Y00001640992*
X00089662076Y00001632280*
X00089646480Y00001623593*
X00089627379Y00001614881*
X00089608279Y00001606296*
X00089585698Y00001597583*
X00089563194Y00001590598*
X00089537184Y00001581988*
X00089509396Y00001576781*
X00089479882Y00001571599*
X00089450392Y00001569796*
X00089417499Y00001568094*
X00089407085*
X00089394893Y00001569796*
X00089379298Y00001571599*
X00089360197Y00001573276*
X00089337692Y00001576781*
X00089313385Y00001581988*
X00089285597Y00001588897*
X00089257886Y00001597583*
X00089228396Y00001607997*
X00089197180Y00001621891*
X00089167690Y00001637487*
X00089138175Y00001656588*
X00089108686Y00001679092*
X00089080898Y00001703374*
X00089054889Y00001732889*
X00089053187Y00001734591*
X00089047980Y00001741576*
X00089040995Y00001753692*
X00089030581Y00001771091*
X00089018491Y00001793595*
X00089004597Y00001819579*
X00088990678Y00001852599*
X00088976784Y00001888998*
X00088961188Y00001932381*
X00088947294Y00001979193*
X00088933375Y00002032990*
X00088921285Y00002091994*
X00088910896Y00002156180*
X00088903987Y00002225598*
X00088898780Y00002301875*
X00088896977Y00002383485*
Y00002386888*
Y00002395575*
Y00002411196*
X00088898780Y00002430297*
Y00002454579*
X00088900482Y00002482291*
X00088902184Y00002513584*
X00088903987Y00002546477*
X00088907391Y00002582976*
X00088910896Y00002619375*
X00088921285Y00002695676*
X00088935179Y00002770276*
X00088943891Y00002806776*
X00088954279Y00002839694*
Y00002841396*
X00088957683Y00002846679*
X00088961188Y00002857093*
X00088964693Y00002869184*
X00088971577Y00002883077*
X00088978587Y00002900375*
X00088987198Y00002917799*
X00088997586Y00002938576*
X00089021894Y00002981985*
X00089053187Y00003025292*
X00089087883Y00003068675*
X00089106883Y00003087776*
X00089127685Y00003106877*
X00089129489Y00003108579*
X00089132994Y00003110280*
X00089139877Y00003115589*
X00089148589Y00003120796*
X00089158978Y00003129381*
X00089172897Y00003136392*
X00089188493Y00003145078*
X00089207594Y00003153689*
X00089226593Y00003162376*
X00089249199Y00003171088*
X00089273481Y00003179699*
X00089297789Y00003186684*
X00089325475Y00003191891*
X00089354990Y00003197098*
X00089386181Y00003198799*
X00089417499Y00003200577*
X00089438276*
X00089450392Y00003198799*
G37*
G36*
X00083232777Y00002778988D02*
X00083248500D01*
X00083269277Y00002775483*
X00083291781Y00002772079*
X00083317791Y00002766898*
X00083345578Y00002761691*
X00083375093Y00002752979*
X00083404583Y00002742590*
X00083437476Y00002728696*
X00083468794Y00002713075*
X00083499985Y00002695676*
X00083531176Y00002673197*
X00083562393Y00002648889*
X00083590180Y00002621076*
X00083591882Y00002619375*
X00083597191Y00002614193*
X00083604100Y00002605481*
X00083612786Y00002591587*
X00083624877Y00002575991*
X00083636993Y00002556891*
X00083650886Y00002532583*
X00083664780Y00002506599*
X00083676896Y00002477084*
X00083690790Y00002444191*
X00083702982Y00002407691*
X00083715098Y00002367889*
X00083723784Y00002324481*
X00083730693Y00002277592*
X00083735875Y00002229078*
X00083737678Y00002176983*
Y00002173478*
Y00002164892*
Y00002147493*
X00083735875Y00002124989*
X00082870294*
Y00002123186*
Y00002116277*
X00082871995Y00002105888*
X00082873697Y00002093696*
X00082875475Y00002076399*
X00082878879Y00002059076*
X00082882384Y00002038197*
X00082887591Y00002015693*
X00082901485Y00001968779*
X00082920586Y00001918487*
X00082932676Y00001895983*
X00082944893Y00001871675*
X00082960489Y00001850898*
X00082977786Y00001829993*
X00082979590Y00001828292*
X00082982993Y00001826590*
X00082988175Y00001821383*
X00082995185Y00001814398*
X00083005599Y00001807489*
X00083015988Y00001798777*
X00083029882Y00001788388*
X00083045477Y00001779676*
X00083080199Y00001760677*
X00083121779Y00001744980*
X00083144385Y00001738096*
X00083168591Y00001734591*
X00083194677Y00001731187*
X00083220687Y00001729384*
X00083231075*
X00083237984Y00001731187*
X00083258888Y00001732889*
X00083284898Y00001736394*
X00083312584Y00001743278*
X00083343877Y00001753692*
X00083375093Y00001765884*
X00083404583Y00001784985*
X00083406284*
X00083408088Y00001788388*
X00083416698Y00001795399*
X00083430592Y00001809191*
X00083447991Y00001829993*
X00083466990Y00001854276*
X00083487793Y00001887296*
X00083508697Y00001925497*
X00083525995Y00001968779*
X00083730693Y00001942795*
Y00001941093*
X00083728991Y00001934083*
X00083725486Y00001925497*
X00083720279Y00001913280*
X00083715098Y00001897684*
X00083708189Y00001880387*
X00083699477Y00001861286*
X00083690790Y00001840484*
X00083666482Y00001797075*
X00083635291Y00001750187*
X00083616190Y00001727682*
X00083597191Y00001705178*
X00083576287Y00001684299*
X00083551979Y00001665198*
X00083550277Y00001663496*
X00083546797Y00001661795*
X00083538187Y00001656588*
X00083529474Y00001649577*
X00083515581Y00001642694*
X00083499985Y00001633982*
X00083482688Y00001625295*
X00083461783Y00001616684*
X00083439279Y00001607997*
X00083413295Y00001599285*
X00083387184Y00001590598*
X00083357694Y00001583690*
X00083326478Y00001576781*
X00083293483Y00001571599*
X00083257085Y00001569796*
X00083220687Y00001568094*
X00083210298*
X00083196379Y00001569796*
X00083179081*
X00083156475Y00001573276*
X00083132193Y00001576781*
X00083104482Y00001581988*
X00083074992Y00001587195*
X00083043699Y00001595780*
X00083010781Y00001606296*
X00082976085Y00001618386*
X00082943090Y00001633982*
X00082908394Y00001651381*
X00082877177Y00001672183*
X00082845986Y00001696491*
X00082816496Y00001724177*
X00082814693Y00001725980*
X00082809486Y00001731187*
X00082802577Y00001739798*
X00082793890Y00001753692*
X00082781775Y00001769287*
X00082769583Y00001788388*
X00082755790Y00001810994*
X00082743598Y00001836978*
X00082729679Y00001866493*
X00082715887Y00001899386*
X00082703695Y00001935886*
X00082691579Y00001975789*
X00082682892Y00002017395*
X00082675984Y00002062480*
X00082670777Y00002111095*
X00082668999Y00002163089*
Y00002166594*
Y00002175281*
X00082670777Y00002190877*
Y00002211679*
X00082674180Y00002235987*
X00082677685Y00002263775*
X00082681191Y00002296693*
X00082688099Y00002329688*
X00082694983Y00002366086*
X00082705498Y00002402484*
X00082717589Y00002440686*
X00082731483Y00002478887*
X00082748780Y00002515285*
X00082769583Y00002551684*
X00082792189Y00002586380*
X00082818198Y00002617698*
X00082819875Y00002619375*
X00082825082Y00002624582*
X00082833794Y00002633294*
X00082845986Y00002643682*
X00082859778Y00002655798*
X00082878879Y00002669692*
X00082899681Y00002683586*
X00082923989Y00002699181*
X00082950075Y00002714777*
X00082979590Y00002728696*
X00083012483Y00002742590*
X00083047179Y00002754680*
X00083085381Y00002765094*
X00083123481Y00002773781*
X00083166889Y00002778988*
X00083210298Y00002780690*
X00083220687*
X00083232777Y00002778988*
G37*
%LNwcam-touch-fpc-r01_manufacturing_notes-2*%
%LPC*%
G36*
X00091362199Y00004949596D02*
X00091350084D01*
X00091339695Y00004947793*
X00091329179Y00004946091*
X00091315387Y00004944389*
X00091285898Y00004935677*
X00091251176Y00004923586*
X00091232075Y00004914900*
X00091212974Y00004904486*
X00091195677Y00004892294*
X00091176576Y00004876698*
X00091159177Y00004861077*
X00091141880Y00004841976*
X00091140178Y00004840274*
X00091138375Y00004836795*
X00091133193Y00004829886*
X00091127986Y00004821199*
X00091121077Y00004810785*
X00091114092Y00004795189*
X00091107183Y00004779594*
X00091098497Y00004758690*
X00091089784Y00004737887*
X00091082876Y00004711877*
X00091075992Y00004684090*
X00091068982Y00004654677*
X00091063775Y00004619879*
X00091058593Y00004585284*
X00091056891Y00004545380*
X00091055088Y00004503699*
Y00004501997*
Y00004493285*
Y00004482896*
X00091056891Y00004467275*
X00091058593Y00004448175*
X00091060295Y00004427397*
X00091063775Y00004404791*
X00091067280Y00004378782*
X00091077694Y00004324985*
X00091094991Y00004269486*
X00091105482Y00004243476*
X00091117597Y00004217492*
X00091133193Y00004193184*
X00091148789Y00004170578*
X00091150592Y00004168876*
X00091152294Y00004165396*
X00091159177Y00004160189*
X00091166188Y00004153281*
X00091174798Y00004144594*
X00091185187Y00004135882*
X00091211298Y00004116781*
X00091244191Y00004095978*
X00091282393Y00004078681*
X00091303195Y00004071797*
X00091323998Y00004066489*
X00091346578Y00004063085*
X00091370886Y00004061282*
X00091382977*
X00091393391Y00004063085*
X00091403779Y00004064787*
X00091417698Y00004066489*
X00091447188Y00004075176*
X00091481884Y00004087393*
X00091500985Y00004095978*
X00091518282Y00004104690*
X00091537383Y00004116781*
X00091556484Y00004130675*
X00091573883Y00004146296*
X00091591180Y00004165396*
X00091592882Y00004167174*
X00091594686Y00004170578*
X00091599893Y00004175785*
X00091605100Y00004186275*
X00091611983Y00004196689*
X00091620695Y00004210481*
X00091629382Y00004226179*
X00091637993Y00004245178*
X00091644978Y00004265980*
X00091653588Y00004290288*
X00091662275Y00004318076*
X00091669285Y00004345787*
X00091674492Y00004377080*
X00091679699Y00004411776*
X00091681376Y00004448175*
X00091683078Y00004488078*
Y00004491583*
Y00004498492*
Y00004510684*
X00091681376Y00004526280*
X00091679699Y00004547082*
X00091677896Y00004569587*
X00091676194Y00004593894*
X00091670987Y00004621682*
X00091660599Y00004677181*
X00091643200Y00004736185*
X00091632786Y00004763897*
X00091620695Y00004789982*
X00091606776Y00004814189*
X00091589479Y00004836795*
X00091587675Y00004838496*
X00091585999Y00004841976*
X00091580792Y00004847183*
X00091573883Y00004854092*
X00091563393Y00004862779*
X00091552979Y00004873193*
X00091526995Y00004894097*
X00091493975Y00004913096*
X00091454097Y00004932197*
X00091433294Y00004939182*
X00091410790Y00004944389*
X00091386482Y00004947793*
X00091362199Y00004949596*
G37*
G36*
X00087894287Y00005338191D02*
X00087434597D01*
Y00004765675*
X00087866499*
X00087880393Y00004767376*
X00087897792*
X00087916791Y00004769078*
X00087939397Y00004772583*
X00087961978Y00004776089*
X00088010492Y00004784775*
X00088059082Y00004798593*
X00088081688Y00004807280*
X00088102490Y00004817694*
X00088123293Y00004828082*
X00088140590Y00004841976*
X00088142394Y00004843678*
X00088144096Y00004845481*
X00088149277Y00004850688*
X00088154484Y00004855895*
X00088168378Y00004873193*
X00088183999Y00004897475*
X00088199595Y00004928793*
X00088213488Y00004965192*
X00088223877Y00005008575*
X00088225579Y00005031079*
X00088227382Y00005057089*
Y00005058892*
Y00005062296*
Y00005067477*
Y00005074488*
X00088223877Y00005093589*
X00088220397Y00005116093*
X00088215190Y00005143881*
X00088204776Y00005171592*
X00088192686Y00005201081*
X00088175287Y00005228894*
X00088173585Y00005232298*
X00088166676Y00005240985*
X00088154484Y00005253177*
X00088140590Y00005266994*
X00088119788Y00005282590*
X00088097283Y00005298287*
X00088071299Y00005312181*
X00088041784Y00005322493*
X00088039981*
X00088031294Y00005324297*
X00088017477Y00005327777*
X00087996699Y00005331180*
X00087984482*
X00087970588Y00005332984*
X00087953291Y00005334685*
X00087935892Y00005336387*
X00087915089*
X00087894287Y00005338191*
G37*
G36*
X00092645992Y00004951298D02*
X00092632098D01*
X00092623386Y00004949596*
X00092611295Y00004947793*
X00092599078Y00004946091*
X00092566185Y00004939182*
X00092531488Y00004928793*
X00092491585Y00004913096*
X00092472484Y00004902682*
X00092453383Y00004890592*
X00092434283Y00004874996*
X00092416985Y00004859375*
X00092415182Y00004857597*
X00092413480Y00004855895*
X00092408298Y00004850688*
X00092403091Y00004843678*
X00092396183Y00004833289*
X00092387496Y00004822875*
X00092378784Y00004810785*
X00092370097Y00004795189*
X00092361486Y00004779594*
X00092352799Y00004760493*
X00092335375Y00004718786*
X00092323285Y00004671999*
X00092319779Y00004645990*
X00092316376Y00004618177*
X00092965193*
Y00004619879*
Y00004625187*
X00092963390Y00004632096*
X00092961688Y00004642485*
X00092959986Y00004654677*
X00092958183Y00004668494*
X00092951300Y00004699685*
X00092940886Y00004736185*
X00092928694Y00004772583*
X00092911396Y00004807280*
X00092890594Y00004836795*
X00092888790Y00004838496*
X00092887088Y00004841976*
X00092880180Y00004847183*
X00092873195Y00004854092*
X00092864584Y00004862779*
X00092852392Y00004873193*
X00092838498Y00004883581*
X00092824681Y00004894097*
X00092807282Y00004904486*
X00092788181Y00004914900*
X00092746576Y00004933975*
X00092723995Y00004940884*
X00092699789Y00004946091*
X00092673678Y00004949596*
X00092645992Y00004951298*
G37*
G36*
X00086214991Y00005372887D02*
X00086175088D01*
X00086164699Y00005371084*
X00086147275*
X00086128275Y00005367680*
X00086105695Y00005364175*
X00086081387Y00005358993*
X00086053599Y00005353786*
X00086024186Y00005345099*
X00085992893Y00005334685*
X00085959975Y00005322493*
X00085928682Y00005306898*
X00085895789Y00005289575*
X00085862795Y00005268798*
X00085829876Y00005244490*
X00085798583Y00005216677*
X00085796882Y00005214975*
X00085791675Y00005209794*
X00085782988Y00005199380*
X00085774377Y00005187188*
X00085760483Y00005169890*
X00085748291Y00005149088*
X00085732696Y00005123078*
X00085718777Y00005095290*
X00085703181Y00005060594*
X00085687585Y00005022392*
X00085675495Y00004980787*
X00085663278Y00004933975*
X00085652889Y00004883581*
X00085644177Y00004828082*
X00085638995Y00004767376*
X00085637293Y00004701489*
Y00004697984*
Y00004689398*
X00085638995Y00004673676*
Y00004652899*
X00085642475Y00004628591*
X00085645980Y00004600879*
X00085649384Y00004569587*
X00085656394Y00004536694*
X00085664979Y00004500194*
X00085675495Y00004462094*
X00085687585Y00004425696*
X00085703181Y00004387494*
X00085720580Y00004349292*
X00085741383Y00004312894*
X00085763887Y00004278198*
X00085791675Y00004245178*
X00085793376Y00004243476*
X00085798583Y00004238294*
X00085807296Y00004229582*
X00085819488Y00004219194*
X00085835083Y00004207078*
X00085854082Y00004193184*
X00085874987Y00004177588*
X00085899193Y00004163694*
X00085925279Y00004148099*
X00085956495Y00004132478*
X00085987686Y00004118584*
X00086022383Y00004106494*
X00086058883Y00004095978*
X00086098786Y00004087393*
X00086138689Y00004082186*
X00086181996Y00004080383*
X00086192385*
X00086204577Y00004082186*
X00086221874Y00004083888*
X00086242779Y00004085590*
X00086265283Y00004089095*
X00086293096Y00004094276*
X00086320782Y00004101185*
X00086351999Y00004109897*
X00086383291Y00004120286*
X00086416184Y00004134180*
X00086449179Y00004151477*
X00086482097Y00004170578*
X00086515092Y00004191482*
X00086546283Y00004217492*
X00086575798Y00004246981*
X00086577576Y00004248683*
X00086582783Y00004255592*
X00086589692Y00004264279*
X00086600080Y00004278198*
X00086612298Y00004295495*
X00086626090Y00004316399*
X00086639984Y00004340682*
X00086653878Y00004370095*
X00086667797Y00004401388*
X00086683392Y00004437786*
X00086695483Y00004475988*
X00086707675Y00004519295*
X00086718089Y00004566183*
X00086724998Y00004614697*
X00086730179Y00004668494*
X00086731983Y00004723993*
Y00004725797*
Y00004732680*
Y00004743094*
X00086730179Y00004756988*
Y00004774387*
X00086728477Y00004793386*
X00086726776Y00004815992*
X00086723296Y00004840274*
X00086716285Y00004894097*
X00086704195Y00004951298*
X00086686898Y00005008575*
X00086664292Y00005065776*
Y00005067477*
X00086660786Y00005072684*
X00086657383Y00005079695*
X00086652176Y00005090083*
X00086645191Y00005102199*
X00086636580Y00005116093*
X00086615676Y00005149088*
X00086587990Y00005185486*
X00086554995Y00005221884*
X00086516895Y00005258384*
X00086471683Y00005291277*
X00086469982Y00005293080*
X00086466476Y00005294782*
X00086459593Y00005298287*
X00086449179Y00005303494*
X00086436987Y00005310378*
X00086423195Y00005317286*
X00086407599Y00005324297*
X00086388498Y00005332984*
X00086367696Y00005339892*
X00086346792Y00005346776*
X00086298278Y00005360695*
X00086244480Y00005369382*
X00086214991Y00005372887*
G37*
G36*
X00081959475Y00004951298D02*
X00081945581D01*
X00081936894Y00004949596*
X00081924779Y00004947793*
X00081912587Y00004946091*
X00081879694Y00004939182*
X00081844997Y00004928793*
X00081805094Y00004913096*
X00081785993Y00004902682*
X00081766892Y00004890592*
X00081747791Y00004874996*
X00081730494Y00004859375*
X00081728792Y00004857597*
X00081726989Y00004855895*
X00081721782Y00004850688*
X00081716575Y00004843678*
X00081709691Y00004833289*
X00081700979Y00004822875*
X00081692292Y00004810785*
X00081683580Y00004795189*
X00081674995Y00004779594*
X00081666283Y00004760493*
X00081648884Y00004718786*
X00081636793Y00004671999*
X00081633288Y00004645990*
X00081629885Y00004618177*
X00082278677*
Y00004619879*
Y00004625187*
X00082276899Y00004632096*
X00082275197Y00004642485*
X00082273495Y00004654677*
X00082271793Y00004668494*
X00082264783Y00004699685*
X00082254394Y00004736185*
X00082242177Y00004772583*
X00082224880Y00004807280*
X00082204077Y00004836795*
X00082202299Y00004838496*
X00082200597Y00004841976*
X00082193688Y00004847183*
X00082186678Y00004854092*
X00082178093Y00004862779*
X00082165875Y00004873193*
X00082151982Y00004883581*
X00082138189Y00004894097*
X00082120790Y00004904486*
X00082101690Y00004914900*
X00082060084Y00004933975*
X00082037478Y00004940884*
X00082013298Y00004946091*
X00081987186Y00004949596*
X00081959475Y00004951298*
G37*
G36*
X00079471697D02*
X00079457880D01*
X00079449193Y00004949596*
X00079436976Y00004947793*
X00079424885Y00004946091*
X00079391891Y00004939182*
X00079357194Y00004928793*
X00079317392Y00004913096*
X00079298292Y00004902682*
X00079279191Y00004890592*
X00079260090Y00004874996*
X00079242793Y00004859375*
X00079240989Y00004857597*
X00079239287Y00004855895*
X00079234080Y00004850688*
X00079228899Y00004843678*
X00079221888Y00004833289*
X00079213278Y00004822875*
X00079204591Y00004810785*
X00079195879Y00004795189*
X00079187192Y00004779594*
X00079178581Y00004760493*
X00079161182Y00004718786*
X00079149092Y00004671999*
X00079145587Y00004645990*
X00079142082Y00004618177*
X00079790899*
Y00004619879*
Y00004625187*
X00079789197Y00004632096*
X00079787496Y00004642485*
X00079785794Y00004654677*
X00079783990Y00004668494*
X00079777082Y00004699685*
X00079766693Y00004736185*
X00079754476Y00004772583*
X00079737178Y00004807280*
X00079716376Y00004836795*
X00079714598Y00004838496*
X00079712896Y00004841976*
X00079705885Y00004847183*
X00079698977Y00004854092*
X00079690290Y00004862779*
X00079678199Y00004873193*
X00079664280Y00004883581*
X00079650386Y00004894097*
X00079633089Y00004904486*
X00079613988Y00004914900*
X00079572383Y00004933975*
X00079549777Y00004940884*
X00079525495Y00004946091*
X00079499485Y00004949596*
X00079471697Y00004951298*
G37*
G36*
X00081985485Y00002626283D02*
X00081973394D01*
X00081964682Y00002624582*
X00081954293Y00002622880*
X00081940400Y00002619375*
X00081910885Y00002612491*
X00081876188Y00002596794*
X00081858891Y00002588183*
X00081839790Y00002575991*
X00081820689Y00002563876*
X00081801589Y00002546477*
X00081782488Y00002529179*
X00081763387Y00002508377*
X00081761685Y00002506599*
X00081759983Y00002503195*
X00081754776Y00002496185*
X00081747791Y00002485796*
X00081740883Y00002473680*
X00081733898Y00002459786*
X00081725287Y00002442387*
X00081716575Y00002421585*
X00081706186Y00002399080*
X00081697499Y00002372995*
X00081690591Y00002345283*
X00081683580Y00002314092*
X00081676697Y00002281097*
X00081671490Y00002246376*
X00081669788Y00002208199*
X00081667985Y00002166594*
Y00002164892*
Y00002156180*
Y00002145792*
X00081669788Y00002130196*
X00081671490Y00002111095*
X00081673192Y00002090292*
X00081674995Y00002065985*
X00081680177Y00002041677*
X00081690591Y00001987880*
X00081706186Y00001932381*
X00081716575Y00001906397*
X00081728792Y00001880387*
X00081742584Y00001856079*
X00081758180Y00001835277*
X00081759983Y00001833499*
X00081761685Y00001829993*
X00081766892Y00001824786*
X00081773776Y00001819579*
X00081782488Y00001810994*
X00081792876Y00001802282*
X00081818988Y00001783181*
X00081851881Y00001762379*
X00081888380Y00001746783*
X00081909183Y00001739798*
X00081929986Y00001734591*
X00081952490Y00001731187*
X00081976798Y00001729384*
X00081988990*
X00081999378Y00001731187*
X00082009792Y00001732889*
X00082023686Y00001734591*
X00082054877Y00001743278*
X00082089599Y00001755495*
X00082108675Y00001765884*
X00082127775Y00001776298*
X00082146775Y00001788388*
X00082165875Y00001802282*
X00082184976Y00001819579*
X00082202299Y00001838680*
X00082204077Y00001840484*
X00082205779Y00001843887*
X00082210986Y00001850898*
X00082216193Y00001859483*
X00082224880Y00001871675*
X00082231788Y00001885594*
X00082240475Y00001902891*
X00082249187Y00001923694*
X00082257900Y00001946275*
X00082266485Y00001970582*
X00082275197Y00002000097*
X00082282182Y00002031288*
X00082287389Y00002064181*
X00082292596Y00002100681*
X00082294298Y00002140585*
X00082296000Y00002182190*
Y00002183993*
Y00002192578*
Y00002202992*
X00082294298Y00002218690*
X00082292596Y00002237689*
X00082290793Y00002258491*
X00082289091Y00002281097*
X00082283884Y00002307082*
X00082273495Y00002360879*
X00082257900Y00002416378*
X00082247486Y00002444191*
X00082235294Y00002468499*
X00082219698Y00002492679*
X00082204077Y00002515285*
X00082202299Y00002516987*
X00082200597Y00002520492*
X00082195390Y00002525699*
X00082188481Y00002532583*
X00082179795Y00002541295*
X00082167679Y00002549982*
X00082141593Y00002570784*
X00082110376Y00002591587*
X00082073978Y00002608986*
X00082053176Y00002615895*
X00082030595Y00002621076*
X00082007989Y00002624582*
X00081985485Y00002626283*
G37*
G36*
X00088178792Y00003037484D02*
X00088166676D01*
X00088156186Y00003035681*
X00088145899Y00003033979*
X00088131980Y00003032277*
X00088100687Y00003023590*
X00088064289Y00003011474*
X00088045188Y00003002788*
X00088026087Y00002992399*
X00088007088Y00002980182*
X00087987987Y00002964586*
X00087968886Y00002948990*
X00087949786Y00002929890*
X00087948084Y00002928188*
X00087946280Y00002924683*
X00087941099Y00002919476*
X00087934190Y00002910890*
X00087927281Y00002900375*
X00087920296Y00002886583*
X00087911686Y00002872689*
X00087902999Y00002855290*
X00087892585Y00002836291*
X00087883898Y00002815386*
X00087876989Y00002792882*
X00087869979Y00002766898*
X00087857888Y00002713075*
X00087856085Y00002683586*
X00087854383Y00002652395*
Y00002650591*
Y00002645384*
Y00002638475*
X00087856085Y00002626283*
X00087857888Y00002614193*
X00087859590Y00002598597*
X00087866499Y00002563876*
X00087876989Y00002523998*
X00087892585Y00002484094*
X00087902999Y00002463292*
X00087915089Y00002442387*
X00087928983Y00002423388*
X00087944579Y00002404287*
X00087946280Y00002402484*
X00087948084Y00002400782*
X00087953291Y00002395575*
X00087961978Y00002390394*
X00087970588Y00002383485*
X00087980977Y00002374798*
X00087993194Y00002366086*
X00088007088Y00002357399*
X00088041784Y00002340076*
X00088079884Y00002324481*
X00088124995Y00002314092*
X00088149277Y00002312289*
X00088173585Y00002310587*
X00088187479*
X00088196191Y00002312289*
X00088208281Y00002314092*
X00088220397Y00002315794*
X00088251690Y00002322677*
X00088288088Y00002333091*
X00088324486Y00002350490*
X00088343587Y00002360879*
X00088362688Y00002372995*
X00088380087Y00002388692*
X00088397384Y00002404287*
X00088399086Y00002405989*
X00088400890Y00002409494*
X00088406097Y00002414676*
X00088411278Y00002421585*
X00088418187Y00002431999*
X00088425096Y00002444191*
X00088433783Y00002458085*
X00088442495Y00002473680*
X00088449378Y00002490978*
X00088458090Y00002511780*
X00088464999Y00002532583*
X00088471984Y00002556891*
X00088477191Y00002582976*
X00088482398Y00002608986*
X00088484075Y00002638475*
X00088485878Y00002669692*
Y00002671394*
Y00002676575*
Y00002685288*
X00088484075Y00002697480*
X00088482398Y00002711297*
X00088480696Y00002728696*
X00088478893Y00002745994*
X00088475489Y00002766898*
X00088463297Y00002808478*
X00088447676Y00002853588*
X00088437288Y00002876092*
X00088425096Y00002896997*
X00088411278Y00002917799*
X00088395683Y00002936875*
X00088393879Y00002938576*
X00088392177Y00002942082*
X00088386996Y00002945485*
X00088380087Y00002952496*
X00088371375Y00002959379*
X00088360986Y00002968091*
X00088334875Y00002987192*
X00088303684Y00003006293*
X00088265482Y00003021888*
X00088246483Y00003028797*
X00088223877Y00003033979*
X00088201398Y00003035681*
X00088178792Y00003037484*
G37*
G36*
X00080989678Y00002176983D02*
X00080987976D01*
X00080984496Y00002175281*
X00080977587Y00002173478*
X00080968875Y00002170099*
X00080958486Y00002164892*
X00080944593Y00002161387*
X00080927295Y00002156180*
X00080909896Y00002150999*
X00080887392Y00002145792*
X00080863084Y00002138781*
X00080837074Y00002133676*
X00080807585Y00002126691*
X00080776292Y00002119782*
X00080743399Y00002114575*
X00080706899Y00002107590*
X00080666996Y00002102383*
X00080661789*
X00080654880Y00002100681*
X00080647895Y00002098878*
X00080625391Y00002095499*
X00080599381Y00002090292*
X00080571594Y00002085085*
X00080543882Y00002078075*
X00080517796Y00002071192*
X00080495292Y00002062480*
X00080493590Y00002060778*
X00080486580Y00002059076*
X00080477893Y00002053793*
X00080467479Y00002046884*
X00080453687Y00002036495*
X00080441495Y00002026081*
X00080429379Y00002013889*
X00080417187Y00001998294*
X00080415485Y00001996592*
X00080413682Y00001991385*
X00080408475Y00001982698*
X00080405097Y00001970582*
X00080399890Y00001956689*
X00080394683Y00001941093*
X00080392879Y00001923694*
X00080391177Y00001904593*
Y00001901190*
X00080392879Y00001892477*
X00080394683Y00001876882*
X00080398086Y00001859483*
X00080405097Y00001838680*
X00080415485Y00001816176*
X00080431081Y00001795399*
X00080450182Y00001774494*
X00080453687Y00001772793*
X00080460596Y00001765884*
X00080474489Y00001758899*
X00080493590Y00001748485*
X00080517796Y00001739798*
X00080549089Y00001731187*
X00080583786Y00001724177*
X00080623689Y00001722475*
X00080642790*
X00080653178Y00001724177*
X00080665294Y00001725980*
X00080691278Y00001729384*
X00080724298Y00001734591*
X00080757191Y00001743278*
X00080791888Y00001755495*
X00080826584Y00001771091*
X00080828388*
X00080830089Y00001772793*
X00080840478Y00001779676*
X00080856099Y00001791893*
X00080876978Y00001807489*
X00080897780Y00001826590*
X00080918583Y00001850898*
X00080939386Y00001876882*
X00080956683Y00001908098*
X00080958486Y00001911578*
X00080961992Y00001920290*
X00080967199Y00001935886*
X00080972380Y00001956689*
X00080977587Y00001984375*
X00080982794Y00002019198*
X00080986198Y00002059076*
X00080987976Y00002104186*
X00080989678Y00002176983*
G37*
G36*
X00089415696Y00003037484D02*
X00089403580D01*
X00089393191Y00003035681*
X00089382777Y00003033979*
X00089368884Y00003032277*
X00089337692Y00003023590*
X00089302996Y00003009696*
X00089285597Y00003001086*
X00089266496Y00002988894*
X00089249199Y00002976778*
X00089231774Y00002961081*
X00089214477Y00002943783*
X00089198881Y00002922981*
X00089197180Y00002921279*
X00089195376Y00002915996*
X00089190195Y00002907385*
X00089183286Y00002893491*
X00089176275Y00002876092*
X00089167690Y00002855290*
X00089157175Y00002830982*
X00089148589Y00002799791*
X00089139877Y00002765094*
X00089129489Y00002726893*
X00089120776Y00002681782*
X00089113893Y00002633294*
X00089106883Y00002579497*
X00089103479Y00002518791*
X00089099999Y00002454579*
X00089098297Y00002383485*
Y00002381681*
Y00002378278*
Y00002372995*
Y00002366086*
Y00002357399*
Y00002345283*
X00089099999Y00002319299*
X00089101676Y00002287981*
X00089103479Y00002251583*
X00089105181Y00002211679*
X00089110388Y00002170099*
X00089120776Y00002081580*
X00089127685Y00002038197*
X00089136397Y00001994890*
X00089146786Y00001954987*
X00089160680Y00001918487*
X00089174599Y00001885594*
X00089190195Y00001857781*
X00089191896Y00001856079*
X00089193674Y00001852599*
X00089198881Y00001845691*
X00089207594Y00001836978*
X00089216179Y00001828292*
X00089226593Y00001817878*
X00089252679Y00001793595*
X00089285597Y00001769287*
X00089325475Y00001750187*
X00089346278Y00001741576*
X00089368884Y00001734591*
X00089393191Y00001731187*
X00089417499Y00001729384*
X00089422681*
X00089431393Y00001731187*
X00089439978*
X00089452196Y00001732889*
X00089465988Y00001736394*
X00089497281Y00001744980*
X00089514578Y00001751990*
X00089531977Y00001760677*
X00089550976Y00001771091*
X00089570077Y00001784985*
X00089589178Y00001798777*
X00089608279Y00001816176*
X00089627379Y00001836978*
X00089644677Y00001859483*
X00089646480Y00001861286*
X00089648182Y00001866493*
X00089653389Y00001873377*
X00089658596Y00001885594*
X00089667283Y00001901190*
X00089674192Y00001921992*
X00089682878Y00001946275*
X00089691591Y00001973986*
X00089700176Y00002006981*
X00089708888Y00002045182*
X00089717575Y00002086787*
X00089724484Y00002135378*
X00089729691Y00002189175*
X00089734898Y00002248077*
X00089736676Y00002312289*
X00089738377Y00002383485*
Y00002385187*
Y00002388692*
Y00002393899*
Y00002400782*
Y00002409494*
Y00002419883*
X00089736676Y00002447594*
X00089734898Y00002478887*
X00089733196Y00002515285*
X00089731494Y00002555189*
X00089726287Y00002596794*
X00089715898Y00002685288*
X00089707186Y00002728696*
X00089698499Y00002770276*
X00089688085Y00002810179*
X00089675995Y00002848381*
X00089662076Y00002879598*
X00089644677Y00002907385*
X00089642975Y00002909087*
X00089641299Y00002912592*
X00089636092Y00002919476*
X00089629081Y00002928188*
X00089618693Y00002936875*
X00089608279Y00002948990*
X00089596188Y00002961081*
X00089582294Y00002973298*
X00089549274Y00002995879*
X00089509396Y00003016681*
X00089488594Y00003025292*
X00089464286Y00003032277*
X00089441782Y00003035681*
X00089415696Y00003037484*
G37*
G36*
X00083210298Y00002619375D02*
X00083196379D01*
X00083187692Y00002617698*
X00083175576Y00002615895*
X00083163384Y00002614193*
X00083130491Y00002607183*
X00083095795Y00002596794*
X00083055891Y00002581198*
X00083036791Y00002570784*
X00083017690Y00002558694*
X00082998589Y00002543098*
X00082981292Y00002527477*
X00082979590Y00002525699*
X00082977786Y00002523998*
X00082972579Y00002518791*
X00082967398Y00002511780*
X00082960489Y00002501392*
X00082951777Y00002490978*
X00082943090Y00002478887*
X00082934378Y00002463292*
X00082925793Y00002447594*
X00082917080Y00002428595*
X00082899681Y00002386888*
X00082887591Y00002340076*
X00082884086Y00002314092*
X00082880682Y00002286279*
X00083529474*
Y00002287981*
Y00002293289*
X00083527798Y00002300198*
X00083525995Y00002310587*
X00083524293Y00002322677*
X00083522591Y00002336596*
X00083515581Y00002367889*
X00083505192Y00002404287*
X00083493076Y00002440686*
X00083475677Y00002475382*
X00083454875Y00002504897*
X00083453198Y00002506599*
X00083451395Y00002510078*
X00083444486Y00002515285*
X00083437476Y00002522194*
X00083428890Y00002530881*
X00083416698Y00002541295*
X00083402779Y00002551684*
X00083388987Y00002562199*
X00083371588Y00002572588*
X00083352487Y00002582976*
X00083310882Y00002602077*
X00083288378Y00002608986*
X00083264095Y00002614193*
X00083237984Y00002617698*
X00083210298Y00002619375*
G37*
%LNwcam-touch-fpc-r01_manufacturing_notes-3*%
%LPD*%
G54D17*
X00000000000Y00000249986D02*
D01*
X00000000584Y00000232537*
X00000002413Y00000215188*
X00000005461Y00000198018*
X00000009677Y00000181076*
X00000015062Y00000164490*
X00000021590Y00000148310*
X00000029260Y00000132613*
X00000037973Y00000117500*
X00000047726Y00000103047*
X00000058470Y00000089281*
X00000070154Y00000076327*
X00000082702Y00000064211*
X00000096062Y00000052984*
X00000110185Y00000042722*
X00000124993Y00000033477*
X00000140385Y00000025298*
X00000156337Y00000018186*
X00000172745Y00000012217*
X00000189509Y00000007416*
X00000206578Y00000003784*
X00000223850Y00000001346*
X00000241274Y00000000127*
X00000249986Y00000000000*
Y00006599986D02*
D01*
X00000232537Y00006599377*
X00000215188Y00006597548*
X00000198018Y00006594525*
X00000181076Y00006590309*
X00000164490Y00006584899*
X00000148310Y00006578371*
X00000132613Y00006570726*
X00000117500Y00006561988*
X00000103047Y00006552234*
X00000089281Y00006541490*
X00000076327Y00006529832*
X00000064211Y00006517259*
X00000052984Y00006503898*
X00000042722Y00006489776*
X00000033477Y00006474993*
X00000025298Y00006459575*
X00000018186Y00006443649*
X00000012217Y00006427241*
X00000007416Y00006410477*
X00000003784Y00006393408*
X00000001346Y00006376111*
X00000000127Y00006358712*
X00000000000Y00006350000*
X00204999996D02*
D01*
X00204999386Y00006367424*
X00204997558Y00006384772*
X00204994535Y00006401968*
X00204990293Y00006418884*
X00204984908Y00006435496*
X00204978381Y00006451676*
X00204970735Y00006467348*
X00204961998Y00006482461*
X00204952244Y00006496939*
X00204941500Y00006510680*
X00204929816Y00006523659*
X00204917268Y00006535775*
X00204903908Y00006547002*
X00204889785Y00006557238*
X00204874977Y00006566484*
X00204859585Y00006574688*
X00204843634Y00006581775*
X00204827251Y00006587744*
X00204810461Y00006592570*
X00204793392Y00006596176*
X00204776120Y00006598615*
X00204758721Y00006599834*
X00204749984Y00006599986*
X00204747393Y00000000000D02*
D01*
X00204764995Y00000000609*
X00204782547Y00000002438*
X00204799895Y00000005511*
X00204817014Y00000009779*
X00204833778Y00000015214*
X00204850136Y00000021818*
X00204865986Y00000029565*
X00204881251Y00000038379*
X00204895856Y00000048234*
X00204909750Y00000059080*
X00204922856Y00000070891*
X00204935099Y00000083566*
X00204946427Y00000097078*
X00204956791Y00000111328*
X00204966138Y00000126288*
X00204974418Y00000141859*
X00204981581Y00000157962*
X00204987626Y00000174523*
X00204992478Y00000191465*
X00204996161Y00000208711*
X00204998599Y00000226187*
X00204999844Y00000243763*
X00204999996Y00000252577*
X00000249986Y00000000000D02*
X00204747393D01*
X00000000000Y00000249986D02*
Y00006350000D01*
X00000249986Y00006599986D02*
X00204749984D01*
X00204999996Y00000252577D02*
Y00006350000D01*
M02*