G04*
G04 #@! TF.GenerationSoftware,Altium Limited,Altium Designer,24.5.2 (23)*
G04*
G04 Layer_Color=8388736*
%FSLAX44Y44*%
%MOMM*%
G71*
G04*
G04 #@! TF.SameCoordinates,DF3C02B5-3F0F-4488-AB2D-F481A5C04937*
G04*
G04*
G04 #@! TF.FilePolarity,Negative*
G04*
G01*
G75*
%ADD11C,0.5000*%
D11*
X1288601Y747500D02*
G03*
X1247601Y788500I-41000J0D01*
G01*
Y5500D02*
G03*
X1288568Y44835I0J41000D01*
G01*
X5568Y46500D02*
G03*
X46568Y5500I41000J0D01*
G01*
X5601Y46500D02*
G03*
X46601Y5500I41000J0D01*
G01*
X46568Y788500D02*
G03*
X5568Y747500I0J-41000D01*
G01*
X46601Y788500D02*
G03*
X5601Y747500I0J-41000D01*
G01*
X1288568Y44835D02*
Y747500D01*
X1171353Y788500D02*
X1247601D01*
X1288568Y747500D02*
X1288601D01*
X1114947Y788500D02*
X1145000D01*
X1030018D02*
X1114947D01*
X1145000D02*
X1153923D01*
X349938D02*
X434948D01*
X264358D02*
X349938D01*
X689490D02*
X774907D01*
X859835D02*
X1030018D01*
X774907D02*
X859835D01*
X46601D02*
X95071D01*
X434948D02*
X519714D01*
X605050D01*
X689490D01*
X95071D02*
X179267D01*
X264358D01*
X1153923D02*
X1153968Y788456D01*
X46601Y5500D02*
X859735D01*
X5568Y46400D02*
Y747500D01*
X5601Y46400D02*
Y747500D01*
X1200000Y5500D02*
X1200000Y5500D01*
X1199000Y5500D02*
X1200000D01*
X1200000Y5500D02*
X1247601D01*
X1199000D02*
X1199000Y5500D01*
X859735Y5500D02*
X1199000D01*
X1171350Y788497D02*
X1171353Y788500D01*
X1162970Y788497D02*
X1171350D01*
X1162968Y788500D02*
X1162970Y788497D01*
X1154012Y788500D02*
X1162968D01*
X1153968Y788456D02*
X1154012Y788500D01*
M02*
