G04*
G04 #@! TF.GenerationSoftware,Altium Limited,Altium Designer,24.5.2 (23)*
G04*
G04 Layer_Color=16711935*
%FSLAX44Y44*%
%MOMM*%
G71*
G04*
G04 #@! TF.SameCoordinates,DF3C02B5-3F0F-4488-AB2D-F481A5C04937*
G04*
G04*
G04 #@! TF.FilePolarity,Negative*
G04*
G01*
G75*
%ADD11C,0.5000*%
%ADD13C,0.6000*%
%ADD14C,0.8800*%
%ADD16C,0.2500*%
%ADD22C,4.0440*%
%ADD23R,0.3760X0.8760*%
%ADD24R,0.3760X0.7260*%
%ADD25R,0.4760X1.0260*%
D11*
X1288466Y747709D02*
G03*
X1247675Y788500I-40791J0D01*
G01*
X5534Y46500D02*
G03*
X46534Y5500I41000J0D01*
G01*
X5500Y46500D02*
G03*
X46500Y5500I41000J0D01*
G01*
Y788500D02*
G03*
X5500Y747500I0J-41000D01*
G01*
X1247500Y5500D02*
G03*
X1288466Y44835I0J41000D01*
G01*
X5500Y46400D02*
Y747500D01*
X689490Y788500D02*
X774907D01*
X5534Y46400D02*
Y747500D01*
X1288466Y694680D02*
Y747709D01*
X46534Y5500D02*
X859735D01*
X605050Y788500D02*
X689490D01*
X859835D02*
X1030018D01*
X1114947D01*
X1199957D02*
X1247675D01*
X1114947D02*
X1145000D01*
X1153923D01*
X46500D02*
X95071D01*
X264358D02*
X349938D01*
X179267D02*
X264358D01*
X95071D02*
X179267D01*
X774907D02*
X859835D01*
X434948D02*
X519714D01*
X605050D01*
X349938D02*
X434948D01*
X1153923D02*
X1153968Y788456D01*
X1288466Y609618D02*
Y694680D01*
Y524649D02*
Y609618D01*
Y439587D02*
Y524649D01*
Y269736D02*
Y354526D01*
Y184676D02*
Y269736D01*
Y99614D02*
Y184676D01*
X1171353Y788500D02*
X1199957D01*
X1288466Y44835D02*
Y99614D01*
Y354526D02*
Y439587D01*
X1171350Y788497D02*
X1171353Y788500D01*
X1200000Y5500D02*
X1200000Y5500D01*
X1247500D01*
X1199000D02*
X1199000Y5500D01*
X859735Y5500D02*
X1199000D01*
X1199000Y5500D02*
X1200000D01*
X1162968Y788500D02*
X1162970Y788497D01*
X1171350D01*
X1154012Y788500D02*
X1162968D01*
X1153968Y788456D02*
X1154012Y788500D01*
D13*
X647000Y99540D02*
D03*
D14*
X668454Y87463D02*
G03*
X671620Y99540I-21454J12077D01*
G01*
X659078Y78086D02*
G03*
X668454Y87463I-12077J21454D01*
G01*
X647000Y74920D02*
G03*
X659078Y78086I0J24620D01*
G01*
X671620Y99540D02*
G03*
X647000Y74920I-24620J0D01*
G01*
D16*
Y75240D02*
D03*
D22*
Y99540D02*
D03*
D23*
X683000Y745661D02*
D03*
X671000D02*
D03*
X599000D02*
D03*
X605000D02*
D03*
X611000D02*
D03*
X617000D02*
D03*
X623000D02*
D03*
X629000D02*
D03*
X635000D02*
D03*
X641000D02*
D03*
X647000D02*
D03*
X653000D02*
D03*
X659000D02*
D03*
X665000D02*
D03*
X677000D02*
D03*
X689000D02*
D03*
X695000D02*
D03*
D24*
X686000Y774411D02*
D03*
X692000D02*
D03*
X602000D02*
D03*
X608000D02*
D03*
X614000D02*
D03*
X620000D02*
D03*
X626000D02*
D03*
X632000D02*
D03*
X638000D02*
D03*
X644000D02*
D03*
X650000D02*
D03*
X656000D02*
D03*
X662000D02*
D03*
X668000D02*
D03*
X674000D02*
D03*
X680000D02*
D03*
D25*
X592000Y748411D02*
D03*
X702000D02*
D03*
M02*
