G04*
G04 #@! TF.GenerationSoftware,Altium Limited,Altium Designer,24.5.2 (23)*
G04*
G04 Layer_Physical_Order=1*
G04 Layer_Color=255*
%FSLAX44Y44*%
%MOMM*%
G71*
G04*
G04 #@! TF.SameCoordinates,DF3C02B5-3F0F-4488-AB2D-F481A5C04937*
G04*
G04*
G04 #@! TF.FilePolarity,Positive*
G04*
G01*
G75*
%ADD10C,0.5000*%
%ADD11C,0.5000*%
%ADD12C,0.1300*%
%ADD13C,0.6000*%
G36*
X49000Y736991D02*
Y736988D01*
X11148Y699136D01*
X11148Y741687D01*
Y741687D01*
X11234Y744352D01*
X11920Y749638D01*
X13281Y754792D01*
X15294Y759728D01*
X17925Y764364D01*
X19515Y766475D01*
X49000Y736991D01*
D02*
G37*
G36*
X1258186Y779487D02*
X1259713Y778864D01*
X1264348Y776233D01*
X1268607Y773027D01*
X1271852Y769852D01*
X1242000Y740000D01*
X1202510Y779490D01*
X1258186Y779487D01*
D02*
G37*
G36*
X1196485Y779485D02*
X1157000Y740000D01*
X1117510Y779490D01*
X1196485Y779485D01*
D02*
G37*
G36*
X1111485D02*
X1072000Y740000D01*
X1032510Y779490D01*
X1111485Y779485D01*
D02*
G37*
G36*
X1026485D02*
X987000Y740000D01*
X947510Y779490D01*
X1026485Y779485D01*
D02*
G37*
G36*
X941485D02*
X902000Y740000D01*
X862510Y779490D01*
X941485Y779485D01*
D02*
G37*
G36*
X856485D02*
X817000Y740000D01*
X777510Y779490D01*
X856485Y779485D01*
D02*
G37*
G36*
X771485D02*
X732000Y740000D01*
X692510Y779490D01*
X771485Y779485D01*
D02*
G37*
G36*
X686485D02*
X647000Y740000D01*
X607510Y779490D01*
X686485Y779485D01*
D02*
G37*
G36*
X601485D02*
X562000Y740000D01*
X522510Y779490D01*
X601485Y779485D01*
D02*
G37*
G36*
X516485D02*
X477000Y740000D01*
X437510Y779490D01*
X516485Y779485D01*
D02*
G37*
G36*
X431485D02*
X392000Y740000D01*
X352510Y779490D01*
X431485Y779485D01*
D02*
G37*
G36*
X288240Y779489D02*
X346485Y779485D01*
X307000Y740000D01*
X267510Y779490D01*
X288240Y779489D01*
D02*
G37*
G36*
X261490Y779485D02*
X222005Y740000D01*
X222000D01*
X182510Y779490D01*
X261490Y779485D01*
D02*
G37*
G36*
X176495D02*
X137010Y740000D01*
X137000D01*
X97510Y779490D01*
X176495Y779485D01*
D02*
G37*
G36*
X91500D02*
X52015Y740000D01*
X51990D01*
X36633Y755358D01*
X22238Y769753D01*
X24859Y772433D01*
X29046Y775732D01*
X33623Y778464D01*
X35986Y779489D01*
X91500Y779485D01*
D02*
G37*
G36*
X1275716Y765112D02*
X1278449Y760535D01*
X1280570Y755645D01*
X1282043Y750522D01*
X1282845Y745252D01*
X1282990Y742590D01*
X1283000D01*
X1283000Y699000D01*
X1245000Y737000D01*
Y737000D01*
X1250590Y742590D01*
X1274569Y766569D01*
X1275716Y765112D01*
D02*
G37*
G36*
X349497Y776488D02*
X388988Y736997D01*
X349497Y697507D01*
Y697503D01*
X310000Y737000D01*
X349497Y776497D01*
Y776488D01*
D02*
G37*
G36*
X434497D02*
X473988Y736997D01*
X434497Y697507D01*
Y697503D01*
X395000Y737000D01*
X434497Y776497D01*
Y776488D01*
D02*
G37*
G36*
X264498D02*
X303988Y736997D01*
X264497Y697507D01*
Y697503D01*
X225002Y736998D01*
X264498Y776493D01*
Y776488D01*
D02*
G37*
G36*
X604497D02*
X643988Y736997D01*
X604497Y697507D01*
Y697503D01*
X565000Y737000D01*
X604497Y776498D01*
Y776488D01*
D02*
G37*
G36*
X519497D02*
X558988Y736997D01*
X519497Y697507D01*
Y697503D01*
X480000Y737000D01*
X519497Y776498D01*
Y776488D01*
D02*
G37*
G36*
X689498D02*
X728988Y736997D01*
X689497Y697507D01*
Y697503D01*
X650000Y737000D01*
X689392Y776392D01*
X689498Y776498D01*
Y776488D01*
D02*
G37*
G36*
X774498D02*
X813988Y736997D01*
X774497Y697507D01*
Y697503D01*
X735000Y737000D01*
X774286Y776286D01*
X774498Y776498D01*
Y776488D01*
D02*
G37*
G36*
X944498D02*
X983988Y736997D01*
X944497Y697507D01*
Y697503D01*
X905000Y737000D01*
X944181Y776181D01*
X944498Y776498D01*
Y776488D01*
D02*
G37*
G36*
X859498D02*
X898988Y736997D01*
X859497Y697507D01*
Y697503D01*
X820000Y737000D01*
X859181Y776181D01*
X859498Y776498D01*
Y776488D01*
D02*
G37*
G36*
X1029498D02*
X1068988Y736997D01*
X1029497Y697507D01*
Y697502D01*
X990000Y737000D01*
X1029075Y776075D01*
X1029498Y776498D01*
Y776488D01*
D02*
G37*
G36*
X1199498D02*
X1238988Y736997D01*
X1199497Y697507D01*
Y697502D01*
X1160000Y737000D01*
X1198969Y775969D01*
X1199498Y776498D01*
Y776488D01*
D02*
G37*
G36*
X1114498D02*
X1153988Y736997D01*
X1114497Y697507D01*
Y697502D01*
X1075000Y737000D01*
X1113969Y775969D01*
X1114498Y776498D01*
Y776488D01*
D02*
G37*
G36*
X179498D02*
X218988Y736997D01*
X179497Y697507D01*
Y697502D01*
X179493D01*
X140003Y736993D01*
X179498Y776488D01*
Y776488D01*
D02*
G37*
G36*
X133988Y736997D02*
X94497Y697507D01*
Y697502D01*
X94488D01*
X55003Y736988D01*
X94500Y776485D01*
X133988Y736997D01*
D02*
G37*
G36*
X1281492Y694508D02*
X1242016Y655032D01*
X1202529Y694519D01*
X1242005Y733995D01*
X1281492Y694508D01*
D02*
G37*
G36*
X1196495Y694505D02*
X1157017Y655027D01*
X1117526Y694517D01*
X1157005Y733995D01*
X1196495Y694505D01*
D02*
G37*
G36*
X1111497Y694503D02*
X1072017Y655022D01*
X1032524Y694515D01*
X1072005Y733995D01*
X1111497Y694503D01*
D02*
G37*
G36*
X1026495Y694505D02*
X987012Y655022D01*
X947522Y694512D01*
X987005Y733995D01*
X1026495Y694505D01*
D02*
G37*
G36*
X941495D02*
X902012Y655022D01*
X862522Y694512D01*
X902005Y733995D01*
X941495Y694505D01*
D02*
G37*
G36*
X856497Y694503D02*
X817012Y655017D01*
X777519Y694510D01*
X817005Y733995D01*
X856497Y694503D01*
D02*
G37*
G36*
X771500Y694500D02*
X732012Y655012D01*
X692517Y694507D01*
X732005Y733995D01*
X771500Y694500D01*
D02*
G37*
G36*
X686497Y694502D02*
X647007Y655012D01*
X607515Y694505D01*
Y694505D01*
X647005Y733995D01*
X686497Y694502D01*
D02*
G37*
G36*
X601497D02*
X562007Y655012D01*
X522515Y694505D01*
Y694505D01*
X562005Y733995D01*
X601497Y694502D01*
D02*
G37*
G36*
X516500Y694500D02*
X477007Y655007D01*
X437515Y694500D01*
Y694505D01*
X477005Y733995D01*
X516500Y694500D01*
D02*
G37*
G36*
X346404Y694596D02*
X346500Y694500D01*
D01*
X307005Y655005D01*
X267519Y694490D01*
X267515D01*
Y694505D01*
X267605Y694596D01*
X307005Y733995D01*
X346404Y694596D01*
D02*
G37*
G36*
X261404D02*
X261500Y694500D01*
X222005Y655005D01*
X182519Y694490D01*
X182515D01*
X182515Y694490D01*
Y694505D01*
X182605Y694596D01*
X222005Y733995D01*
X261404Y694596D01*
D02*
G37*
G36*
X431500Y694500D02*
D01*
X431502Y694498D01*
X392007Y655003D01*
X352515Y694495D01*
Y694505D01*
X392005Y733995D01*
X431500Y694500D01*
D02*
G37*
G36*
X176500Y694495D02*
X176505D01*
X176505Y694495D01*
X176500D01*
X137007Y655002D01*
X97519Y694490D01*
X97515D01*
Y694505D01*
X137003Y733993D01*
X176500Y694495D01*
D02*
G37*
G36*
X91500Y694490D02*
D01*
X91500Y694490D01*
X91490D01*
X52000Y655000D01*
X12510Y694490D01*
X12505D01*
X52003Y733988D01*
X91500Y694490D01*
D02*
G37*
G36*
X49000Y651995D02*
Y651990D01*
X11148Y614138D01*
X11148Y689847D01*
X49000Y651995D01*
D02*
G37*
G36*
X1283000Y614049D02*
X1245030Y652018D01*
X1283000Y689988D01*
X1283000Y614049D01*
D02*
G37*
G36*
X1199498Y691475D02*
X1238979Y651994D01*
X1199514Y612530D01*
X1160023Y652020D01*
X1199498Y691485D01*
Y691475D01*
D02*
G37*
G36*
X1114498D02*
X1153981Y651992D01*
X1114514Y612525D01*
X1075021Y652018D01*
X1114498Y691485D01*
Y691475D01*
D02*
G37*
G36*
X944498D02*
X983981Y651992D01*
X944512Y612522D01*
X905018Y652016D01*
X944498Y691485D01*
Y691475D01*
D02*
G37*
G36*
X1029498D02*
X1068984Y651989D01*
X1029514Y612520D01*
Y612520D01*
X990018Y652016D01*
X1029498Y691485D01*
Y691475D01*
D02*
G37*
G36*
X859498D02*
X898981Y651992D01*
X859509Y612520D01*
X820016Y652013D01*
X859498Y691485D01*
Y691475D01*
D02*
G37*
G36*
X774498D02*
X813984Y651989D01*
X774510Y612515D01*
X735014Y652011D01*
X774498Y691485D01*
Y691475D01*
D02*
G37*
G36*
X604497D02*
X643984Y651989D01*
X604507Y612512D01*
X565011Y652008D01*
X604497Y691485D01*
Y691475D01*
D02*
G37*
G36*
X689498D02*
X728986Y651987D01*
X689510Y612510D01*
Y612510D01*
X650011Y652008D01*
X689498Y691485D01*
Y691475D01*
D02*
G37*
G36*
X519497D02*
X558984Y651989D01*
X519505Y612510D01*
X480009Y652006D01*
X519497Y691485D01*
Y691475D01*
D02*
G37*
G36*
X434497D02*
X473986Y651987D01*
X434505Y612505D01*
X395007Y652003D01*
X403730Y660725D01*
X434497Y691485D01*
Y691475D01*
D02*
G37*
G36*
X264498D02*
X303986Y651986D01*
X264503Y612503D01*
X225004Y652001D01*
X264498Y691485D01*
Y691475D01*
D02*
G37*
G36*
X349497D02*
X388988Y651985D01*
X349504Y612501D01*
X310004Y652001D01*
X349497Y691485D01*
Y691475D01*
D02*
G37*
G36*
X179498D02*
X218986Y651986D01*
X179500Y612500D01*
X140003Y651998D01*
X149678Y661673D01*
X179498Y691485D01*
Y691475D01*
D02*
G37*
G36*
X94497D02*
X133988Y651985D01*
X94499Y612496D01*
X55003Y651993D01*
X85330Y682320D01*
X94497Y691485D01*
Y691475D01*
D02*
G37*
G36*
X1281494Y609515D02*
X1242016Y570037D01*
X1202524Y609529D01*
X1242007Y649012D01*
X1281494Y609515D01*
D02*
G37*
G36*
X1196497Y609512D02*
X1157016Y570032D01*
X1117522Y609527D01*
X1157007Y649012D01*
X1196497Y609512D01*
D02*
G37*
G36*
X1111499Y609510D02*
X1072017Y570027D01*
X1032519Y609524D01*
X1072007Y649012D01*
X1111499Y609510D01*
D02*
G37*
G36*
X1026497Y609512D02*
X987012Y570027D01*
X947517Y609522D01*
X987007Y649012D01*
X1026497Y609512D01*
D02*
G37*
G36*
X941497D02*
X902012Y570027D01*
X862517Y609522D01*
X902007Y649012D01*
X941497Y609512D01*
D02*
G37*
G36*
X856500Y609510D02*
X817012Y570022D01*
X777514Y609520D01*
X817007Y649012D01*
X856500Y609510D01*
D02*
G37*
G36*
X771492Y609517D02*
X771502Y609507D01*
X732012Y570017D01*
X692514Y609515D01*
X732009Y649010D01*
X771492Y609517D01*
D02*
G37*
G36*
X686500Y609510D02*
X647007Y570017D01*
X607512Y609512D01*
Y609517D01*
X647007Y649012D01*
X686500Y609510D01*
D02*
G37*
G36*
X601500Y609510D02*
X562007Y570017D01*
X522512Y609512D01*
Y609517D01*
X562007Y649012D01*
X601500Y609510D01*
D02*
G37*
G36*
X495228Y630787D02*
X505860Y620152D01*
X516502Y609507D01*
X516497Y609502D01*
X516497D01*
X477007Y570012D01*
X437512Y609507D01*
Y609512D01*
X477007Y649007D01*
X495228Y630787D01*
D02*
G37*
G36*
X429822Y611188D02*
X431492Y609517D01*
X431505Y609505D01*
X431502Y609502D01*
X431497D01*
X392007Y570012D01*
X352517Y609503D01*
X352512D01*
X352512Y609503D01*
Y609507D01*
X392007Y649003D01*
X429822Y611188D01*
D02*
G37*
G36*
X346500Y609505D02*
X346500D01*
X346498Y609502D01*
X346497D01*
X307007Y570012D01*
X267516Y609503D01*
X267512D01*
Y609512D01*
X307003Y649003D01*
X346500Y609505D01*
D02*
G37*
G36*
X261500D02*
X261500D01*
X261498Y609502D01*
X261497D01*
X222007Y570012D01*
X182516Y609503D01*
X182512D01*
Y609512D01*
X222003Y649003D01*
X261500Y609505D01*
D02*
G37*
G36*
X176498Y609502D02*
X176497D01*
X137007Y570012D01*
X97516Y609503D01*
X97512D01*
Y609507D01*
X137003Y648998D01*
X176498Y609502D01*
D02*
G37*
G36*
X91493D02*
X91488D01*
X51997Y570012D01*
X12510Y609500D01*
X52003Y648993D01*
X91493Y609502D01*
D02*
G37*
G36*
X49000Y567000D02*
Y566995D01*
X11148Y529143D01*
X11148Y604852D01*
X49000Y567000D01*
D02*
G37*
G36*
X1283000Y529053D02*
X1245033Y567020D01*
X1283000Y604988D01*
X1283000Y529053D01*
D02*
G37*
G36*
X1199498Y606475D02*
X1238976Y566997D01*
X1199514Y527534D01*
X1160025Y567023D01*
X1199498Y606485D01*
Y606475D01*
D02*
G37*
G36*
X1114498D02*
X1153979Y566994D01*
X1114514Y527530D01*
X1075023Y567020D01*
X1114498Y606485D01*
Y606475D01*
D02*
G37*
G36*
X944498D02*
X983979Y566994D01*
X944512Y527527D01*
X905021Y567018D01*
X944498Y606485D01*
Y606475D01*
D02*
G37*
G36*
X1029498D02*
X1068981Y566992D01*
X1029514Y527525D01*
Y527525D01*
X990021Y567018D01*
X1029498Y606485D01*
Y606475D01*
D02*
G37*
G36*
X859498D02*
X898979Y566994D01*
X859509Y527524D01*
X820018Y567016D01*
X859498Y606485D01*
Y606475D01*
D02*
G37*
G36*
X774498D02*
X813981Y566992D01*
X774509Y527520D01*
X735016Y567013D01*
X774498Y606485D01*
Y606475D01*
D02*
G37*
G36*
X604497D02*
X643981Y566992D01*
X604507Y527517D01*
X565013Y567011D01*
X604497Y606485D01*
Y606475D01*
D02*
G37*
G36*
X689498D02*
X728984Y566989D01*
X689509Y527515D01*
Y527515D01*
X650013Y567011D01*
X689498Y606485D01*
Y606475D01*
D02*
G37*
G36*
X519497D02*
X558982Y566992D01*
X519505Y527515D01*
X480011Y567008D01*
X519497Y606485D01*
Y606475D01*
D02*
G37*
G36*
X434497D02*
X473984Y566989D01*
X434505Y527510D01*
X395009Y567006D01*
X434497Y606485D01*
Y606475D01*
D02*
G37*
G36*
X264498D02*
X303984Y566989D01*
X264502Y527507D01*
X225006Y567004D01*
X264498Y606485D01*
Y606475D01*
D02*
G37*
G36*
X349497D02*
X388986Y566987D01*
X349505Y527505D01*
Y527505D01*
X310006Y567004D01*
X349497Y606485D01*
Y606475D01*
D02*
G37*
G36*
X179498D02*
X218984Y566989D01*
X179500Y527505D01*
X140004Y567001D01*
X179498Y606485D01*
Y606475D01*
D02*
G37*
G36*
X94497D02*
X133987Y566986D01*
X94500Y527500D01*
X55003Y566998D01*
X65099Y577094D01*
X94497Y606485D01*
Y606475D01*
D02*
G37*
G36*
X1281492Y524517D02*
X1242016Y485042D01*
X1202526Y524532D01*
X1242007Y564012D01*
X1281492Y524517D01*
D02*
G37*
G36*
X1196495Y524515D02*
X1157016Y485037D01*
X1117524Y524529D01*
X1157007Y564012D01*
X1196495Y524515D01*
D02*
G37*
G36*
X1111497Y524512D02*
X1072016Y485032D01*
X1032522Y524527D01*
X1072007Y564012D01*
X1111497Y524512D01*
D02*
G37*
G36*
X1026495Y524515D02*
X987012Y485032D01*
X947519Y524524D01*
X987007Y564012D01*
X1026495Y524515D01*
D02*
G37*
G36*
X941495Y524515D02*
X902012Y485032D01*
X862519Y524524D01*
X902007Y564012D01*
X941495Y524515D01*
D02*
G37*
G36*
X856497Y524512D02*
X817012Y485027D01*
X777517Y524522D01*
X817007Y564012D01*
X856497Y524512D01*
D02*
G37*
G36*
X771500Y524510D02*
X732012Y485022D01*
X692514Y524520D01*
X732007Y564012D01*
X771500Y524510D01*
D02*
G37*
G36*
X686497Y524512D02*
X647007Y485022D01*
X607512Y524517D01*
Y524517D01*
X647007Y564012D01*
X686497Y524512D01*
D02*
G37*
G36*
X601497D02*
X562007Y485022D01*
X522512Y524517D01*
Y524517D01*
X562007Y564012D01*
X601497Y524512D01*
D02*
G37*
G36*
X516500Y524510D02*
X477007Y485017D01*
X437512Y524512D01*
Y524517D01*
X477007Y564012D01*
X516500Y524510D01*
D02*
G37*
G36*
X345664Y525345D02*
X346500Y524510D01*
X346500D01*
X307005Y485014D01*
X267516Y524503D01*
X267512D01*
Y524517D01*
X307002Y564007D01*
X345664Y525345D01*
D02*
G37*
G36*
X260559Y525451D02*
X261500Y524510D01*
D01*
X222005Y485014D01*
X182516Y524503D01*
X182512D01*
Y524517D01*
X222003Y564007D01*
X260559Y525451D01*
D02*
G37*
G36*
X410122Y545892D02*
X431502Y524507D01*
X431497Y524502D01*
X431497D01*
X392007Y485012D01*
X352512Y524507D01*
Y524512D01*
X392007Y564007D01*
X410122Y545892D01*
D02*
G37*
G36*
X176500Y524505D02*
X176500D01*
X176498Y524502D01*
X176497D01*
X137007Y485012D01*
X97516Y524503D01*
X97512D01*
Y524512D01*
X137002Y564002D01*
X176500Y524505D01*
D02*
G37*
G36*
X90655Y525345D02*
X91498Y524502D01*
X91488D01*
X51997Y485012D01*
X12507Y524502D01*
X52003Y563998D01*
X90655Y525345D01*
D02*
G37*
G36*
X49000Y482000D02*
Y482000D01*
X11148Y444148D01*
X11148Y519852D01*
X49000Y482000D01*
D02*
G37*
G36*
X1282999Y444058D02*
X1245035Y482023D01*
X1283000Y519987D01*
X1282999Y444058D01*
D02*
G37*
G36*
X1199498Y521475D02*
X1238974Y481999D01*
X1199514Y442539D01*
X1160028Y482025D01*
X1199498Y521485D01*
Y521475D01*
D02*
G37*
G36*
X1114498D02*
X1153976Y481997D01*
X1114514Y442534D01*
X1075025Y482023D01*
X1114498Y521485D01*
Y521475D01*
D02*
G37*
G36*
X944498D02*
X983976Y481996D01*
X944512Y442532D01*
X905023Y482020D01*
X944498Y521485D01*
Y521475D01*
D02*
G37*
G36*
X1029498D02*
X1068979Y481994D01*
X1029514Y442529D01*
Y442529D01*
X990023Y482020D01*
X1029498Y521485D01*
Y521475D01*
D02*
G37*
G36*
X859498D02*
X898976Y481996D01*
X859509Y442529D01*
X820021Y482018D01*
X859498Y521485D01*
Y521475D01*
D02*
G37*
G36*
X774498D02*
X813979Y481994D01*
X774509Y442524D01*
X735018Y482016D01*
X774498Y521485D01*
Y521475D01*
D02*
G37*
G36*
X604497D02*
X643979Y481994D01*
X604507Y442522D01*
X565016Y482013D01*
X604497Y521485D01*
Y521475D01*
D02*
G37*
G36*
X689498D02*
X728981Y481992D01*
X689509Y442520D01*
Y442520D01*
X650016Y482013D01*
X689498Y521485D01*
Y521475D01*
D02*
G37*
G36*
X519497D02*
X558979Y481994D01*
X519505Y442519D01*
X480013Y482011D01*
X519497Y521485D01*
Y521475D01*
D02*
G37*
G36*
X434497D02*
X473982Y481992D01*
X434505Y442515D01*
X395011Y482008D01*
X434497Y521485D01*
Y521475D01*
D02*
G37*
G36*
X264498D02*
X303982Y481991D01*
X264502Y442512D01*
X225009Y482006D01*
X264498Y521485D01*
Y521475D01*
D02*
G37*
G36*
X349497D02*
X388984Y481989D01*
X349505Y442510D01*
Y442510D01*
X310009Y482006D01*
X349497Y521485D01*
Y521475D01*
D02*
G37*
G36*
X179498D02*
X218982Y481991D01*
X179500Y442510D01*
X140006Y482004D01*
X179498Y521485D01*
Y521475D01*
D02*
G37*
G36*
X94497D02*
X133984Y481989D01*
X94500Y442505D01*
X55004Y482001D01*
X94497Y521485D01*
Y521475D01*
D02*
G37*
G36*
X1281490Y439520D02*
X1242016Y400046D01*
X1202529Y439534D01*
X1242007Y479012D01*
X1281490Y439520D01*
D02*
G37*
G36*
X1196492Y439517D02*
X1157016Y400042D01*
X1117526Y439532D01*
X1157007Y479012D01*
X1196492Y439517D01*
D02*
G37*
G36*
X1111495Y439515D02*
X1072016Y400037D01*
X1032524Y439529D01*
X1072007Y479012D01*
X1111495Y439515D01*
D02*
G37*
G36*
X1026492Y439517D02*
X987011Y400037D01*
X947521Y439527D01*
X987007Y479012D01*
X1026492Y439517D01*
D02*
G37*
G36*
X941492Y439517D02*
X902012Y400037D01*
X862521Y439527D01*
X902007Y479012D01*
X941492Y439517D01*
D02*
G37*
G36*
X856495Y439515D02*
X817012Y400032D01*
X777519Y439524D01*
X817007Y479012D01*
X856495Y439515D01*
D02*
G37*
G36*
X771497Y439512D02*
X732012Y400027D01*
X692517Y439522D01*
X732007Y479012D01*
X771497Y439512D01*
D02*
G37*
G36*
X686495Y439515D02*
X647007Y400027D01*
X607514Y439520D01*
X647007Y479012D01*
X686495Y439515D01*
D02*
G37*
G36*
X601495D02*
X562007Y400027D01*
X522514Y439520D01*
X562007Y479012D01*
X601495Y439515D01*
D02*
G37*
G36*
X516497Y439512D02*
X477007Y400022D01*
X437512Y439517D01*
Y439517D01*
X477007Y479012D01*
X516497Y439512D01*
D02*
G37*
G36*
X431500Y439510D02*
X392007Y400017D01*
X352512Y439512D01*
Y439517D01*
X392007Y479012D01*
X431500Y439510D01*
D02*
G37*
G36*
X326070Y459944D02*
X339685Y446326D01*
X346497Y439512D01*
X307002Y400017D01*
X267512Y439507D01*
Y439517D01*
X307005Y479010D01*
X326070Y459944D01*
D02*
G37*
G36*
X240965Y460050D02*
X261497Y439512D01*
X222002Y400017D01*
X182512Y439507D01*
Y439517D01*
X222005Y479010D01*
X240965Y460050D01*
D02*
G37*
G36*
X175875Y440135D02*
X176500Y439510D01*
X176500D01*
X137005Y400014D01*
X97516Y439503D01*
X97512D01*
Y439517D01*
X137002Y479007D01*
X175875Y440135D01*
D02*
G37*
G36*
X71061Y459944D02*
X91498Y439502D01*
X91488D01*
X51997Y400012D01*
X12505Y439505D01*
X52003Y479002D01*
X71061Y459944D01*
D02*
G37*
G36*
X48998Y397002D02*
X11148Y359152D01*
X11148Y434852D01*
X48998Y397002D01*
D02*
G37*
G36*
X1282999Y359063D02*
X1245037Y397025D01*
X1282999Y434987D01*
X1282999Y359063D01*
D02*
G37*
G36*
X1199498Y436475D02*
X1238971Y397002D01*
X1199514Y357544D01*
X1160030Y397028D01*
X1199498Y436485D01*
Y436475D01*
D02*
G37*
G36*
X1114498D02*
X1153974Y396999D01*
X1114514Y357539D01*
X1075028Y397025D01*
X1114498Y436485D01*
Y436475D01*
D02*
G37*
G36*
X944498D02*
X983974Y396999D01*
X944511Y357537D01*
X905025Y397023D01*
X944498Y436485D01*
Y436475D01*
D02*
G37*
G36*
X1029498D02*
X1068976Y396997D01*
X1029514Y357534D01*
Y357534D01*
X990025Y397023D01*
X1029498Y436485D01*
Y436475D01*
D02*
G37*
G36*
X859498D02*
X898974Y396999D01*
X859509Y357534D01*
X820023Y397020D01*
X859498Y436485D01*
Y436475D01*
D02*
G37*
G36*
X774498D02*
X813976Y396996D01*
X774509Y357529D01*
X735021Y397018D01*
X774498Y436485D01*
Y436475D01*
D02*
G37*
G36*
X604497D02*
X643977Y396996D01*
X604507Y357527D01*
X565018Y397015D01*
X604497Y436485D01*
Y436475D01*
D02*
G37*
G36*
X689498D02*
X728979Y396994D01*
X689509Y357524D01*
Y357524D01*
X650018Y397015D01*
X689498Y436485D01*
Y436475D01*
D02*
G37*
G36*
X519497D02*
X558977Y396996D01*
X519505Y357524D01*
X480016Y397013D01*
X519497Y436485D01*
Y436475D01*
D02*
G37*
G36*
X434497D02*
X473979Y396994D01*
X434505Y357519D01*
X395013Y397011D01*
X434497Y436485D01*
Y436475D01*
D02*
G37*
G36*
X264498D02*
X303979Y396994D01*
X264502Y357517D01*
X225011Y397008D01*
X264498Y436485D01*
Y436475D01*
D02*
G37*
G36*
X349497D02*
X388982Y396991D01*
X349505Y357515D01*
Y357515D01*
X310011Y397008D01*
X349497Y436485D01*
Y436475D01*
D02*
G37*
G36*
X179498D02*
X218979Y396994D01*
X179500Y357514D01*
X140008Y397006D01*
X179498Y436485D01*
Y436475D01*
D02*
G37*
G36*
X94497D02*
X133982Y396991D01*
X94500Y357510D01*
X55006Y397004D01*
X94497Y436485D01*
Y436475D01*
D02*
G37*
G36*
X1281487Y354522D02*
X1242016Y315051D01*
X1202531Y354536D01*
X1242007Y394012D01*
X1281487Y354522D01*
D02*
G37*
G36*
X1196490Y354520D02*
X1157016Y315046D01*
X1117529Y354534D01*
X1157007Y394012D01*
X1196490Y354520D01*
D02*
G37*
G36*
X1111492Y354517D02*
X1072016Y315042D01*
X1032526Y354532D01*
X1072007Y394012D01*
X1111492Y354517D01*
D02*
G37*
G36*
X1026490Y354520D02*
X987011Y315041D01*
X947524Y354529D01*
X987007Y394012D01*
X1026490Y354520D01*
D02*
G37*
G36*
X941490D02*
X902011Y315041D01*
X862524Y354529D01*
X902007Y394012D01*
X941490Y354520D01*
D02*
G37*
G36*
X856492Y354517D02*
X817011Y315037D01*
X777521Y354527D01*
X817007Y394012D01*
X856492Y354517D01*
D02*
G37*
G36*
X771495Y354515D02*
X732012Y315032D01*
X692519Y354524D01*
X732007Y394012D01*
X771495Y354515D01*
D02*
G37*
G36*
X686492Y354517D02*
X647007Y315032D01*
X607517Y354522D01*
X647007Y394012D01*
X686492Y354517D01*
D02*
G37*
G36*
X601492Y354517D02*
X562007Y315032D01*
X522517Y354522D01*
X562007Y394012D01*
X601492Y354517D01*
D02*
G37*
G36*
X516495Y354515D02*
X477007Y315027D01*
X437514Y354520D01*
X477007Y394012D01*
X516495Y354515D01*
D02*
G37*
G36*
X431497Y354512D02*
X392007Y315022D01*
X352512Y354517D01*
Y354517D01*
X392007Y394012D01*
X431497Y354512D01*
D02*
G37*
G36*
X346495Y354515D02*
X307002Y315022D01*
X267512Y354512D01*
Y354517D01*
X307007Y394012D01*
X346495Y354515D01*
D02*
G37*
G36*
X261495D02*
X222002Y315022D01*
X182512Y354512D01*
Y354517D01*
X222007Y394012D01*
X261495Y354515D01*
D02*
G37*
G36*
X156176Y374839D02*
X176492Y354517D01*
X176497Y354512D01*
X137002Y315017D01*
X97512Y354507D01*
Y354517D01*
X137004Y394010D01*
X156176Y374839D01*
D02*
G37*
G36*
X71743Y374262D02*
X91490Y354510D01*
X91495Y354505D01*
X91493Y354502D01*
X91488D01*
X52000Y315015D01*
X12505Y354510D01*
X52002Y394007D01*
X71743Y374262D01*
D02*
G37*
G36*
X48995Y312005D02*
X11148Y274157D01*
X11148Y349852D01*
X48995Y312005D01*
D02*
G37*
G36*
X1282999Y274068D02*
X1245040Y312028D01*
X1282999Y349987D01*
X1282999Y274068D01*
D02*
G37*
G36*
X1199498Y351475D02*
X1238969Y312004D01*
X1199514Y272549D01*
X1160033Y312030D01*
X1199498Y351485D01*
Y351475D01*
D02*
G37*
G36*
X1114498D02*
X1153971Y312002D01*
X1114514Y272544D01*
X1075030Y312028D01*
X1114498Y351485D01*
Y351475D01*
D02*
G37*
G36*
X944498D02*
X983971Y312001D01*
X944511Y272541D01*
X905028Y312025D01*
X944498Y351485D01*
Y351475D01*
D02*
G37*
G36*
X1029498D02*
X1068974Y311999D01*
X1029514Y272539D01*
Y272539D01*
X990028Y312025D01*
X1029498Y351485D01*
Y351475D01*
D02*
G37*
G36*
X859498D02*
X898971Y312001D01*
X859509Y272539D01*
X820025Y312023D01*
X859498Y351485D01*
Y351475D01*
D02*
G37*
G36*
X774498D02*
X813974Y311999D01*
X774509Y272534D01*
X735023Y312020D01*
X774498Y351485D01*
Y351475D01*
D02*
G37*
G36*
X604497D02*
X643974Y311999D01*
X604507Y272532D01*
X565020Y312018D01*
X604497Y351485D01*
Y351475D01*
D02*
G37*
G36*
X689498D02*
X728977Y311996D01*
X689509Y272529D01*
Y272529D01*
X650021Y312018D01*
X689498Y351485D01*
Y351475D01*
D02*
G37*
G36*
X519497D02*
X558974Y311999D01*
X519504Y272529D01*
X480018Y312015D01*
X519497Y351485D01*
Y351475D01*
D02*
G37*
G36*
X434497D02*
X473977Y311996D01*
X434505Y272524D01*
X395016Y312013D01*
X434497Y351485D01*
Y351475D01*
D02*
G37*
G36*
X264498D02*
X303977Y311996D01*
X264502Y272522D01*
X225013Y312011D01*
X264498Y351485D01*
Y351475D01*
D02*
G37*
G36*
X349497D02*
X388979Y311994D01*
X349505Y272519D01*
Y272519D01*
X310013Y312011D01*
X349497Y351485D01*
Y351475D01*
D02*
G37*
G36*
X179498D02*
X218977Y311996D01*
X179500Y272519D01*
X140011Y312008D01*
X179498Y351485D01*
Y351475D01*
D02*
G37*
G36*
X94497D02*
X133979Y311994D01*
X94500Y272514D01*
X55009Y312006D01*
X94497Y351485D01*
Y351475D01*
D02*
G37*
G36*
X1281485Y269525D02*
X1242016Y230056D01*
X1202533Y269539D01*
X1242007Y309012D01*
X1281485Y269525D01*
D02*
G37*
G36*
X1196487Y269522D02*
X1157016Y230051D01*
X1117531Y269536D01*
X1157007Y309012D01*
X1196487Y269522D01*
D02*
G37*
G36*
X1111490Y269520D02*
X1072016Y230046D01*
X1032529Y269534D01*
X1072007Y309012D01*
X1111490Y269520D01*
D02*
G37*
G36*
X1026487Y269522D02*
X987011Y230046D01*
X947526Y269531D01*
X987007Y309012D01*
X1026487Y269522D01*
D02*
G37*
G36*
X941487Y269522D02*
X902011Y230046D01*
X862526Y269531D01*
X902007Y309012D01*
X941487Y269522D01*
D02*
G37*
G36*
X856490Y269520D02*
X817011Y230041D01*
X777524Y269529D01*
X817007Y309012D01*
X856490Y269520D01*
D02*
G37*
G36*
X771492Y269517D02*
X732012Y230037D01*
X692521Y269527D01*
X732007Y309012D01*
X771492Y269517D01*
D02*
G37*
G36*
X686490Y269520D02*
X647007Y230036D01*
X607519Y269524D01*
X647007Y309012D01*
X686490Y269520D01*
D02*
G37*
G36*
X601490D02*
X562007Y230036D01*
X522519Y269524D01*
X562007Y309012D01*
X601490Y269520D01*
D02*
G37*
G36*
X516492Y269517D02*
X477007Y230032D01*
X437517Y269522D01*
X477007Y309012D01*
X516492Y269517D01*
D02*
G37*
G36*
X431495Y269515D02*
X392007Y230027D01*
X352514Y269520D01*
X392007Y309012D01*
X431495Y269515D01*
D02*
G37*
G36*
X346493Y269517D02*
X307002Y230027D01*
X267512Y269517D01*
Y269517D01*
X307007Y309012D01*
X346493Y269517D01*
D02*
G37*
G36*
X261493Y269517D02*
X222002Y230027D01*
X182512Y269517D01*
Y269517D01*
X222007Y309012D01*
X261493Y269517D01*
D02*
G37*
G36*
X176495Y269515D02*
X137002Y230022D01*
X97512Y269512D01*
Y269517D01*
X137007Y309012D01*
X176495Y269515D01*
D02*
G37*
G36*
X65161Y295846D02*
X91493Y269507D01*
X91488Y269503D01*
X91488D01*
X52002Y230017D01*
X12505Y269514D01*
X52000Y309010D01*
X65161Y295846D01*
D02*
G37*
G36*
X48993Y227007D02*
X11147Y189162D01*
X11148Y264853D01*
X48993Y227007D01*
D02*
G37*
G36*
X1282999Y189073D02*
X1245042Y227030D01*
X1282999Y264987D01*
X1282999Y189073D01*
D02*
G37*
G36*
X1199498Y266475D02*
X1238967Y227006D01*
X1199514Y187554D01*
X1160035Y227032D01*
X1199498Y266485D01*
Y266475D01*
D02*
G37*
G36*
X1114498D02*
X1153969Y227004D01*
X1114514Y187549D01*
X1075033Y227030D01*
X1114498Y266485D01*
Y266475D01*
D02*
G37*
G36*
X944498D02*
X983969Y227004D01*
X944511Y187546D01*
X905030Y227027D01*
X944498Y266485D01*
Y266475D01*
D02*
G37*
G36*
X1029498D02*
X1068971Y227002D01*
X1029514Y187544D01*
Y187544D01*
X990030Y227027D01*
X1029498Y266485D01*
Y266475D01*
D02*
G37*
G36*
X859498D02*
X898969Y227004D01*
X859509Y187544D01*
X820028Y227025D01*
X859498Y266485D01*
Y266475D01*
D02*
G37*
G36*
X774498D02*
X813971Y227001D01*
X774509Y187539D01*
X735025Y227023D01*
X774498Y266485D01*
Y266475D01*
D02*
G37*
G36*
X604497D02*
X643972Y227001D01*
X604507Y187536D01*
X565023Y227020D01*
X604497Y266485D01*
Y266475D01*
D02*
G37*
G36*
X689498D02*
X728974Y226999D01*
X689509Y187534D01*
Y187534D01*
X650023Y227020D01*
X689498Y266485D01*
Y266475D01*
D02*
G37*
G36*
X519497D02*
X558972Y227001D01*
X519504Y187534D01*
X480020Y227018D01*
X519497Y266485D01*
Y266475D01*
D02*
G37*
G36*
X434497D02*
X473974Y226999D01*
X434505Y187529D01*
X395018Y227015D01*
X434497Y266485D01*
Y266475D01*
D02*
G37*
G36*
X264498D02*
X303974Y226999D01*
X264502Y187527D01*
X225016Y227013D01*
X264498Y266485D01*
Y266475D01*
D02*
G37*
G36*
X349497D02*
X388977Y226996D01*
X349505Y187524D01*
Y187524D01*
X310016Y227013D01*
X349497Y266485D01*
Y266475D01*
D02*
G37*
G36*
X179498D02*
X218974Y226999D01*
X179500Y187524D01*
X140013Y227011D01*
X179498Y266485D01*
Y266475D01*
D02*
G37*
G36*
X94497D02*
X133977Y226996D01*
X94500Y187519D01*
X55011Y227008D01*
X94497Y266485D01*
Y266475D01*
D02*
G37*
G36*
X1281482Y184527D02*
X1242016Y145061D01*
X1202536Y184541D01*
X1242007Y224012D01*
X1281482Y184527D01*
D02*
G37*
G36*
X1196485Y184525D02*
X1157016Y145056D01*
X1117533Y184539D01*
X1157007Y224012D01*
X1196485Y184525D01*
D02*
G37*
G36*
X1111487Y184522D02*
X1072016Y145051D01*
X1032531Y184536D01*
X1072007Y224012D01*
X1111487Y184522D01*
D02*
G37*
G36*
X1026485Y184525D02*
X987011Y145051D01*
X947529Y184534D01*
X987007Y224012D01*
X1026485Y184525D01*
D02*
G37*
G36*
X941485Y184525D02*
X902011Y145051D01*
X862529Y184534D01*
X902007Y224012D01*
X941485Y184525D01*
D02*
G37*
G36*
X856487Y184522D02*
X817011Y145046D01*
X777526Y184531D01*
X817007Y224012D01*
X856487Y184522D01*
D02*
G37*
G36*
X771490Y184520D02*
X732011Y145041D01*
X692524Y184529D01*
X732007Y224012D01*
X771490Y184520D01*
D02*
G37*
G36*
X686488Y184522D02*
X647007Y145041D01*
X607521Y184527D01*
X647007Y224012D01*
X686488Y184522D01*
D02*
G37*
G36*
X601488D02*
X562007Y145041D01*
X522521Y184527D01*
X562007Y224012D01*
X601488Y184522D01*
D02*
G37*
G36*
X516490Y184520D02*
X477007Y145036D01*
X437519Y184524D01*
X477007Y224012D01*
X516490Y184520D01*
D02*
G37*
G36*
X431493Y184517D02*
X392007Y145031D01*
X352517Y184522D01*
X392007Y224012D01*
X431493Y184517D01*
D02*
G37*
G36*
X346490Y184519D02*
X307002Y145031D01*
X267514Y184519D01*
X307007Y224012D01*
X346490Y184519D01*
D02*
G37*
G36*
X261490Y184519D02*
X222002Y145031D01*
X182514Y184519D01*
X222007Y224012D01*
X261490Y184519D01*
D02*
G37*
G36*
X176493Y184517D02*
X137002Y145027D01*
X97512Y184517D01*
Y184517D01*
X137007Y224012D01*
X176493Y184517D01*
D02*
G37*
G36*
X91490Y184510D02*
X52002Y145022D01*
X12505Y184519D01*
X51997Y224012D01*
X91490Y184510D01*
D02*
G37*
G36*
X48990Y142010D02*
X11147Y104167D01*
X11147Y179853D01*
X48990Y142010D01*
D02*
G37*
G36*
X1282999Y104078D02*
X1245044Y142032D01*
X1282999Y179987D01*
X1282999Y104078D01*
D02*
G37*
G36*
X1199498Y181475D02*
X1238964Y142009D01*
X1199514Y102558D01*
X1160037Y142035D01*
X1199498Y181485D01*
Y181475D01*
D02*
G37*
G36*
X1114498D02*
X1153967Y142007D01*
X1114514Y102554D01*
X1075035Y142032D01*
X1114498Y181485D01*
Y181475D01*
D02*
G37*
G36*
X944498D02*
X983967Y142006D01*
X944511Y102551D01*
X905033Y142030D01*
X944498Y181485D01*
Y181475D01*
D02*
G37*
G36*
X1029498D02*
X1068969Y142004D01*
X1029514Y102549D01*
Y102549D01*
X990033Y142030D01*
X1029498Y181485D01*
Y181475D01*
D02*
G37*
G36*
X859498D02*
X898967Y142006D01*
X859509Y102549D01*
X820030Y142028D01*
X859498Y181485D01*
Y181475D01*
D02*
G37*
G36*
X774498D02*
X813969Y142004D01*
X774509Y102544D01*
X735028Y142025D01*
X774498Y181485D01*
Y181475D01*
D02*
G37*
G36*
X604497D02*
X643969Y142004D01*
X604507Y102541D01*
X565025Y142023D01*
X604497Y181485D01*
Y181475D01*
D02*
G37*
G36*
X689498D02*
X728972Y142001D01*
X689509Y102539D01*
Y102539D01*
X650025Y142023D01*
X689498Y181485D01*
Y181475D01*
D02*
G37*
G36*
X519497D02*
X558969Y142004D01*
X519504Y102539D01*
X480023Y142020D01*
X519497Y181485D01*
Y181475D01*
D02*
G37*
G36*
X434497D02*
X473972Y142001D01*
X434504Y102534D01*
X395020Y142018D01*
X434497Y181485D01*
Y181475D01*
D02*
G37*
G36*
X264498D02*
X303972Y142001D01*
X264502Y102531D01*
X225018Y142015D01*
X264498Y181485D01*
Y181475D01*
D02*
G37*
G36*
X349497D02*
X388974Y141999D01*
X349504Y102529D01*
Y102529D01*
X310018Y142015D01*
X349497Y181485D01*
Y181475D01*
D02*
G37*
G36*
X179498D02*
X218972Y142001D01*
X179500Y102529D01*
X140016Y142013D01*
X179498Y181485D01*
Y181475D01*
D02*
G37*
G36*
X94497D02*
X133974Y141999D01*
X94500Y102524D01*
X55013Y142011D01*
X94497Y181485D01*
Y181475D01*
D02*
G37*
G36*
X1281480Y99530D02*
X1242016Y60066D01*
X1202538Y99544D01*
X1242007Y139012D01*
X1281480Y99530D01*
D02*
G37*
G36*
X1196482Y99527D02*
X1157016Y60061D01*
X1117536Y99541D01*
X1157007Y139012D01*
X1196482Y99527D01*
D02*
G37*
G36*
X1111485Y99525D02*
X1072016Y60056D01*
X1032533Y99539D01*
X1072007Y139012D01*
X1111485Y99525D01*
D02*
G37*
G36*
X1026482Y99527D02*
X987011Y60056D01*
X947531Y99536D01*
X987007Y139012D01*
X1026482Y99527D01*
D02*
G37*
G36*
X941482D02*
X902011Y60056D01*
X862531Y99536D01*
X902007Y139012D01*
X941482Y99527D01*
D02*
G37*
G36*
X856485Y99525D02*
X817011Y60051D01*
X777529Y99534D01*
X817007Y139012D01*
X856485Y99525D01*
D02*
G37*
G36*
X771487Y99522D02*
X732011Y60046D01*
X692526Y99531D01*
X732007Y139012D01*
X771487Y99522D01*
D02*
G37*
G36*
X686485Y99524D02*
X647007Y60046D01*
X607524Y99529D01*
X647007Y139012D01*
X686485Y99524D01*
D02*
G37*
G36*
X601485Y99524D02*
X562007Y60046D01*
X522524Y99529D01*
X562007Y139012D01*
X601485Y99524D01*
D02*
G37*
G36*
X516488Y99522D02*
X477007Y60041D01*
X437521Y99527D01*
X477007Y139012D01*
X516488Y99522D01*
D02*
G37*
G36*
X431490Y99520D02*
X392007Y60036D01*
X352519Y99524D01*
X392007Y139012D01*
X431490Y99520D01*
D02*
G37*
G36*
X346488Y99522D02*
X307002Y60036D01*
X267516Y99522D01*
X307007Y139012D01*
X346488Y99522D01*
D02*
G37*
G36*
X261488D02*
X222002Y60036D01*
X182516Y99522D01*
X222007Y139012D01*
X261488Y99522D01*
D02*
G37*
G36*
X176490Y99519D02*
X137002Y60031D01*
X97514Y99519D01*
X137007Y139012D01*
X176490Y99519D01*
D02*
G37*
G36*
X91488Y99512D02*
X52002Y60026D01*
X12507Y99522D01*
X51997Y139012D01*
X91488Y99512D01*
D02*
G37*
G36*
X48988Y57012D02*
X19510Y27534D01*
X18431Y28905D01*
X15698Y33481D01*
X13577Y38372D01*
X12104Y43495D01*
X11302Y48764D01*
X11157Y51427D01*
X11147Y51427D01*
X11147Y94853D01*
X48988Y57012D01*
D02*
G37*
G36*
X1282999Y52330D02*
X1282999D01*
X1282913Y49665D01*
X1282227Y44378D01*
X1280866Y39225D01*
X1278853Y34289D01*
X1276222Y29653D01*
X1274593Y27489D01*
X1245047Y57035D01*
X1282999Y94987D01*
X1282999Y52330D01*
D02*
G37*
G36*
X1199498Y96475D02*
X1238962Y57011D01*
X1199513Y17563D01*
X1160040Y57037D01*
X1199498Y96485D01*
Y96475D01*
D02*
G37*
G36*
X1114498D02*
X1153964Y57009D01*
X1114514Y17558D01*
X1075037Y57035D01*
X1114498Y96485D01*
Y96475D01*
D02*
G37*
G36*
X944498D02*
X983964Y57009D01*
X944511Y17556D01*
X905035Y57032D01*
X944498Y96485D01*
Y96475D01*
D02*
G37*
G36*
X1029498D02*
X1068967Y57006D01*
X1029514Y17553D01*
Y17553D01*
X990035Y57032D01*
X1029498Y96485D01*
Y96475D01*
D02*
G37*
G36*
X859498D02*
X898964Y57009D01*
X859509Y17553D01*
X820033Y57030D01*
X859498Y96485D01*
Y96475D01*
D02*
G37*
G36*
X774498D02*
X813967Y57006D01*
X774509Y17549D01*
X735030Y57027D01*
X774498Y96485D01*
Y96475D01*
D02*
G37*
G36*
X604497D02*
X643967Y57006D01*
X604507Y17546D01*
X565028Y57025D01*
X604497Y96485D01*
Y96475D01*
D02*
G37*
G36*
X689498D02*
X728969Y57004D01*
X689509Y17544D01*
Y17544D01*
X650028Y57025D01*
X689498Y96485D01*
Y96475D01*
D02*
G37*
G36*
X519497D02*
X558967Y57006D01*
X519504Y17544D01*
X480025Y57023D01*
X519497Y96485D01*
Y96475D01*
D02*
G37*
G36*
X434497D02*
X473969Y57004D01*
X434504Y17539D01*
X395023Y57020D01*
X434497Y96485D01*
Y96475D01*
D02*
G37*
G36*
X264498D02*
X303969Y57004D01*
X264502Y17536D01*
X225020Y57018D01*
X264498Y96485D01*
Y96475D01*
D02*
G37*
G36*
X349497D02*
X388972Y57001D01*
X349504Y17534D01*
Y17534D01*
X310020Y57018D01*
X349497Y96485D01*
Y96475D01*
D02*
G37*
G36*
X179498D02*
X218969Y57004D01*
X179500Y17534D01*
X140018Y57015D01*
X179498Y96485D01*
Y96475D01*
D02*
G37*
G36*
X94497D02*
X133972Y57001D01*
X94500Y17529D01*
X55016Y57013D01*
X94497Y96485D01*
Y96475D01*
D02*
G37*
G36*
X1271637Y23985D02*
X1269288Y21584D01*
X1265101Y18285D01*
X1260524Y15552D01*
X1257417Y14205D01*
X1202418Y14209D01*
X1241903Y53694D01*
X1241927D01*
X1271637Y23985D01*
D02*
G37*
G36*
X1196418Y14204D02*
X1117418Y14209D01*
X1156903Y53694D01*
X1156927D01*
X1196418Y14204D01*
D02*
G37*
G36*
X1111418D02*
X1032418Y14209D01*
X1071903Y53694D01*
X1071927D01*
X1111418Y14204D01*
D02*
G37*
G36*
X1026418D02*
X947418Y14209D01*
X986903Y53694D01*
X986927D01*
X1026418Y14204D01*
D02*
G37*
G36*
X941418D02*
X862418Y14209D01*
X901903Y53694D01*
X901927D01*
X941418Y14204D01*
D02*
G37*
G36*
X856418D02*
X777418Y14209D01*
X816903Y53694D01*
X816927D01*
X856418Y14204D01*
D02*
G37*
G36*
X771418D02*
X692418Y14209D01*
X731903Y53694D01*
X731927D01*
X771418Y14204D01*
D02*
G37*
G36*
X686418D02*
X607418Y14209D01*
X646903Y53694D01*
X646927D01*
X686418Y14204D01*
D02*
G37*
G36*
X601418D02*
X522418Y14209D01*
X561903Y53694D01*
X561927D01*
X601418Y14204D01*
D02*
G37*
G36*
X516418D02*
X437418Y14209D01*
X476903Y53694D01*
X476927D01*
X516418Y14204D01*
D02*
G37*
G36*
X431418D02*
X352418Y14209D01*
X391903Y53694D01*
X391927D01*
X431418Y14204D01*
D02*
G37*
G36*
X346418D02*
X267418Y14209D01*
X306903Y53694D01*
X306928D01*
X346418Y14204D01*
D02*
G37*
G36*
X261418D02*
X182418Y14209D01*
X221903Y53694D01*
X221928D01*
X261418Y14204D01*
D02*
G37*
G36*
X176418D02*
X97418Y14209D01*
X136903Y53694D01*
X136927D01*
X176418Y14204D01*
D02*
G37*
G36*
X91408D02*
X36753Y14207D01*
X34434Y15152D01*
X29799Y17784D01*
X25540Y20990D01*
X22330Y24130D01*
X51894Y53694D01*
X51918D01*
X91408Y14204D01*
D02*
G37*
D10*
X22500Y734500D02*
D03*
X24000Y396000D02*
D03*
X20500Y143500D02*
D03*
X22500Y60000D02*
D03*
X20500Y226500D02*
D03*
X21000Y312500D02*
D03*
Y482000D02*
D03*
X18500Y565000D02*
D03*
X19500Y650000D02*
D03*
X52500Y762000D02*
D03*
X1242000D02*
D03*
X1152500D02*
D03*
X1068500D02*
D03*
X987500D02*
D03*
X902500D02*
D03*
X816000D02*
D03*
X729500D02*
D03*
X647000D02*
D03*
X559500D02*
D03*
X476000D02*
D03*
X393500D02*
D03*
X309000D02*
D03*
X223500D02*
D03*
X139000D02*
D03*
X652598Y788500D02*
D03*
X660981D02*
D03*
X634631D02*
D03*
X643598D02*
D03*
X1275701Y777348D02*
D03*
X1286942Y758755D02*
D03*
X1281575Y770397D02*
D03*
X12142Y24180D02*
D03*
X18674Y16389D02*
D03*
X26621Y10641D02*
D03*
X37119Y6588D02*
D03*
X1259520Y7302D02*
D03*
X1269420Y11852D02*
D03*
X1277572Y18632D02*
D03*
X1283468Y26820D02*
D03*
X1287437Y37223D02*
D03*
X1153968Y788456D02*
D03*
X1145000Y788500D02*
D03*
X1199957D02*
D03*
X1288466Y99614D02*
D03*
Y184676D02*
D03*
Y269736D02*
D03*
Y354526D02*
D03*
Y439587D02*
D03*
Y524649D02*
D03*
Y609618D02*
D03*
Y694680D02*
D03*
X1114947Y788500D02*
D03*
X1030018D02*
D03*
X859835D02*
D03*
X774907D02*
D03*
X689490D02*
D03*
X605050D02*
D03*
X519714D02*
D03*
X434948D02*
D03*
X349938D02*
D03*
X264358D02*
D03*
X179267D02*
D03*
X95071D02*
D03*
X5534Y694425D02*
D03*
Y609380D02*
D03*
Y524561D02*
D03*
Y439325D02*
D03*
Y354611D02*
D03*
Y269408D02*
D03*
Y184345D02*
D03*
Y99580D02*
D03*
X94583Y5500D02*
D03*
X179650D02*
D03*
X264421D02*
D03*
X349685D02*
D03*
X434506D02*
D03*
X519622D02*
D03*
X604541D02*
D03*
X689510D02*
D03*
X774479D02*
D03*
X859735D02*
D03*
X944860D02*
D03*
X1114929D02*
D03*
X1199500Y5500D02*
D03*
X1029816Y5409D02*
D03*
X1171350Y788497D02*
D03*
X1162968Y788510D02*
D03*
X7297Y34535D02*
D03*
X1267363Y783436D02*
D03*
X1257113Y787382D02*
D03*
X6630Y757011D02*
D03*
X10577Y767262D02*
D03*
X16527Y775491D02*
D03*
X24232Y781950D02*
D03*
X34609Y786738D02*
D03*
D11*
X1288601Y747500D02*
G03*
X1247601Y788500I-41000J0D01*
G01*
Y5500D02*
G03*
X1288568Y44835I0J41000D01*
G01*
X5568Y46500D02*
G03*
X46568Y5500I41000J0D01*
G01*
X5601Y46500D02*
G03*
X46601Y5500I41000J0D01*
G01*
X46568Y788500D02*
G03*
X5568Y747500I0J-41000D01*
G01*
X46601Y788500D02*
G03*
X5601Y747500I0J-41000D01*
G01*
X1288568Y44835D02*
Y747500D01*
X1171353Y788500D02*
X1247601D01*
X1288568Y747500D02*
X1288601D01*
X1114947Y788500D02*
X1145000D01*
X1030018D02*
X1114947D01*
X1145000D02*
X1153923D01*
X349938D02*
X434948D01*
X264358D02*
X349938D01*
X689490D02*
X774907D01*
X859835D02*
X1030018D01*
X774907D02*
X859835D01*
X46601D02*
X95071D01*
X434948D02*
X519714D01*
X605050D01*
X689490D01*
X95071D02*
X179267D01*
X264358D01*
X1153923D02*
X1153968Y788456D01*
X46601Y5500D02*
X859735D01*
X5568Y46400D02*
Y747500D01*
X5601Y46400D02*
Y747500D01*
X1200000Y5500D02*
X1200000Y5500D01*
X1199000Y5500D02*
X1200000D01*
X1200000Y5500D02*
X1247601D01*
X1199000D02*
X1199000Y5500D01*
X859735Y5500D02*
X1199000D01*
X1171350Y788497D02*
X1171353Y788500D01*
X1162970Y788497D02*
X1171350D01*
X1162968Y788500D02*
X1162970Y788497D01*
X1154012Y788500D02*
X1162968D01*
X1153968Y788456D02*
X1154012Y788500D01*
D12*
X647094Y732056D02*
Y748556D01*
X902000Y726171D02*
Y743000D01*
X1072317Y727249D02*
Y743748D01*
X987000Y750480D02*
X987094Y750386D01*
Y733556D02*
Y750386D01*
X1241877Y728094D02*
Y749650D01*
X1242094Y647873D02*
Y664373D01*
X1242119Y562309D02*
Y578810D01*
X1242073Y476522D02*
Y493022D01*
X1241935Y391427D02*
Y407927D01*
X1242211Y306975D02*
Y323475D01*
Y222432D02*
Y238932D01*
X1242000Y135500D02*
Y152000D01*
Y49500D02*
Y66000D01*
X1157094Y732556D02*
Y749056D01*
Y647373D02*
Y663873D01*
X1157119Y561810D02*
Y578310D01*
X1157073Y476022D02*
Y492522D01*
X1156935Y390927D02*
Y407427D01*
X1157211Y306475D02*
Y322975D01*
Y221932D02*
Y238432D01*
X1157000Y135000D02*
Y151500D01*
Y49000D02*
Y65500D01*
X1072094Y648373D02*
Y664873D01*
X1072119Y562809D02*
Y579310D01*
X1072073Y477022D02*
Y493522D01*
X1071935Y391927D02*
Y408427D01*
X1072211Y307475D02*
Y323975D01*
Y222932D02*
Y239432D01*
X1072000Y136000D02*
Y152500D01*
Y50000D02*
Y66500D01*
X987094Y648373D02*
Y664873D01*
X987119Y562809D02*
Y579310D01*
X987073Y477022D02*
Y493522D01*
X986935Y391927D02*
Y408427D01*
X987211Y307475D02*
Y323975D01*
Y222932D02*
Y239432D01*
X987211Y137008D02*
Y153508D01*
X987000Y50000D02*
Y66500D01*
X902094Y647873D02*
Y664373D01*
X902119Y562309D02*
Y578810D01*
X902073Y476522D02*
Y493022D01*
X901935Y391427D02*
Y407927D01*
X902211Y306975D02*
Y323475D01*
Y222432D02*
Y238932D01*
X902211Y136508D02*
Y153008D01*
X902000Y49500D02*
Y66000D01*
X817094Y732556D02*
Y749056D01*
Y647373D02*
Y663873D01*
X817119Y561810D02*
Y578310D01*
X817073Y476022D02*
Y492522D01*
X816935Y390927D02*
Y407427D01*
X817211Y306475D02*
Y322975D01*
Y221932D02*
Y238432D01*
X817000Y136000D02*
Y152500D01*
Y49000D02*
Y65500D01*
X732094Y732056D02*
Y748556D01*
Y646873D02*
Y663373D01*
X732119Y561310D02*
Y577810D01*
X732073Y475522D02*
Y492022D01*
X731935Y390427D02*
Y406927D01*
X732211Y305975D02*
Y322475D01*
Y221432D02*
Y237932D01*
X732000Y135500D02*
Y152000D01*
Y48500D02*
Y65000D01*
X647094Y646873D02*
Y663373D01*
X647119Y561310D02*
Y577810D01*
X647073Y475522D02*
Y492022D01*
X646935Y390427D02*
Y406927D01*
X647211Y305975D02*
Y322475D01*
Y221432D02*
Y237932D01*
X647000Y135000D02*
Y151500D01*
Y48500D02*
Y65000D01*
X562094Y732556D02*
Y749056D01*
Y647373D02*
Y663873D01*
X562119Y561810D02*
Y578310D01*
X562073Y476022D02*
Y492522D01*
X561935Y390927D02*
Y407427D01*
X562211Y306475D02*
Y322975D01*
Y221932D02*
Y238432D01*
X562000Y135500D02*
Y152000D01*
Y49000D02*
Y65500D01*
X477094Y733056D02*
Y749556D01*
Y647873D02*
Y664373D01*
X477119Y562309D02*
Y578810D01*
X477073Y476522D02*
Y493022D01*
X476935Y391427D02*
Y407927D01*
X477211Y306975D02*
Y323475D01*
Y222432D02*
Y238932D01*
X477000Y136500D02*
Y153000D01*
Y49500D02*
Y66000D01*
X392094Y732556D02*
Y749056D01*
Y647373D02*
Y663873D01*
X392119Y561810D02*
Y578310D01*
X392073Y476022D02*
Y492522D01*
X391935Y390927D02*
Y407427D01*
X392211Y306475D02*
Y322975D01*
Y221932D02*
Y238432D01*
X392000Y135500D02*
Y152000D01*
Y49000D02*
Y65500D01*
X307094Y732556D02*
Y749056D01*
Y647373D02*
Y663873D01*
X307119Y561810D02*
Y578310D01*
X307073Y476022D02*
Y492522D01*
X306935Y390927D02*
Y407427D01*
X307211Y306475D02*
Y322975D01*
Y221932D02*
Y238432D01*
X307000Y135000D02*
Y151500D01*
Y49000D02*
Y65500D01*
X222094Y732056D02*
Y748556D01*
Y646873D02*
Y663373D01*
X222119Y561310D02*
Y577810D01*
X222073Y475522D02*
Y492022D01*
X221935Y390427D02*
Y406927D01*
X222211Y305975D02*
Y322475D01*
Y221432D02*
Y237932D01*
X222000Y135000D02*
Y151500D01*
Y48500D02*
Y65000D01*
X137094Y731056D02*
Y747556D01*
Y645873D02*
Y662373D01*
X137119Y560309D02*
Y576810D01*
X137073Y474522D02*
Y491022D01*
X136935Y389427D02*
Y405927D01*
X137211Y304975D02*
Y321475D01*
Y220432D02*
Y236932D01*
X137000Y134000D02*
Y150500D01*
Y49000D02*
Y65500D01*
X51906Y45444D02*
Y61944D01*
X52117Y132451D02*
Y148952D01*
X52117Y218376D02*
Y234876D01*
Y302919D02*
Y319419D01*
X51841Y387371D02*
Y403871D01*
X51979Y472466D02*
Y488966D01*
X52025Y558254D02*
Y574753D01*
X52000Y643817D02*
Y660317D01*
Y729000D02*
Y745500D01*
D13*
X647000Y99540D02*
D03*
X639000Y737000D02*
D03*
X731500Y698330D02*
D03*
X816897Y695760D02*
D03*
X1242522Y695192D02*
D03*
X1157522Y694692D02*
D03*
X1073022Y695192D02*
D03*
X902522Y695692D02*
D03*
X988022Y694692D02*
D03*
X60563Y736953D02*
D03*
X128601Y736757D02*
D03*
X145101D02*
D03*
X213601D02*
D03*
X299101D02*
D03*
X315602D02*
D03*
X570500Y737000D02*
D03*
X554000D02*
D03*
X485000D02*
D03*
X468500D02*
D03*
X400000D02*
D03*
X383500D02*
D03*
X825500D02*
D03*
X809000D02*
D03*
X723500D02*
D03*
X655000D02*
D03*
X1064000D02*
D03*
X995000D02*
D03*
X978500D02*
D03*
X910000D02*
D03*
X893500D02*
D03*
X1165000D02*
D03*
X1148500D02*
D03*
X230101Y736757D02*
D03*
X44063Y736953D02*
D03*
X740000Y737000D02*
D03*
X1250180D02*
D03*
X1233500D02*
D03*
X1080810Y736974D02*
D03*
X1079437Y397048D02*
D03*
X993937D02*
D03*
X1062937D02*
D03*
X1232437D02*
D03*
X1250500Y397000D02*
D03*
X1147437Y397048D02*
D03*
X1163937D02*
D03*
X807937D02*
D03*
X824437D02*
D03*
X722437D02*
D03*
X738937D02*
D03*
X908937D02*
D03*
X977437D02*
D03*
X892437D02*
D03*
X398937D02*
D03*
X382437D02*
D03*
X552937D02*
D03*
X569437D02*
D03*
X467437D02*
D03*
X483937D02*
D03*
X637437D02*
D03*
X653937D02*
D03*
X298038Y396805D02*
D03*
X314538D02*
D03*
X127538D02*
D03*
X144038D02*
D03*
X43000Y397000D02*
D03*
X59500D02*
D03*
X212538Y396805D02*
D03*
X229038D02*
D03*
X1249437Y57048D02*
D03*
X1232937D02*
D03*
X646151Y756770D02*
D03*
X987000Y750480D02*
D03*
X562000Y752000D02*
D03*
X477500Y752500D02*
D03*
X392000Y751000D02*
D03*
X307000Y752000D02*
D03*
X222000Y752500D02*
D03*
X137000D02*
D03*
X52000D02*
D03*
X892937Y57048D02*
D03*
X1164437Y567048D02*
D03*
X298538Y651805D02*
D03*
Y226805D02*
D03*
X60000Y57000D02*
D03*
X128038Y56805D02*
D03*
X144538D02*
D03*
X213038D02*
D03*
X298538D02*
D03*
X315038D02*
D03*
X569937Y57048D02*
D03*
X553437D02*
D03*
X484437D02*
D03*
X467937D02*
D03*
X399437D02*
D03*
X382937D02*
D03*
X824937D02*
D03*
X808437D02*
D03*
X739437D02*
D03*
X722937D02*
D03*
X654437D02*
D03*
X637937D02*
D03*
X1079937D02*
D03*
X1063437D02*
D03*
X994437D02*
D03*
X977937D02*
D03*
X909437D02*
D03*
X1164437D02*
D03*
X1147937D02*
D03*
X229538Y56805D02*
D03*
X43500Y57000D02*
D03*
X60000Y142000D02*
D03*
X128038Y141805D02*
D03*
X144538D02*
D03*
X213038D02*
D03*
X298538D02*
D03*
X315038D02*
D03*
X569937Y142048D02*
D03*
X553437D02*
D03*
X484437D02*
D03*
X467937D02*
D03*
X399437D02*
D03*
X382937D02*
D03*
X824937D02*
D03*
X808437D02*
D03*
X739437D02*
D03*
X722937D02*
D03*
X654437D02*
D03*
X637937D02*
D03*
X1079937D02*
D03*
X1063437D02*
D03*
X994437D02*
D03*
X977937D02*
D03*
X909437D02*
D03*
X892937D02*
D03*
X1249437D02*
D03*
X1232937D02*
D03*
X1164437D02*
D03*
X1147937D02*
D03*
X229538Y141805D02*
D03*
X43500Y142000D02*
D03*
X60000Y227000D02*
D03*
X128038Y226805D02*
D03*
X144538D02*
D03*
X213038D02*
D03*
X315038D02*
D03*
X569937Y227048D02*
D03*
X553437D02*
D03*
X484437D02*
D03*
X467937D02*
D03*
X399437D02*
D03*
X382937D02*
D03*
X824937D02*
D03*
X808437D02*
D03*
X739437D02*
D03*
X722937D02*
D03*
X654437D02*
D03*
X637937D02*
D03*
X1079937D02*
D03*
X1063437D02*
D03*
X994437D02*
D03*
X977937D02*
D03*
X909437D02*
D03*
X892937D02*
D03*
X1249437D02*
D03*
X1232937D02*
D03*
X1164437D02*
D03*
X1147937D02*
D03*
X229538Y226805D02*
D03*
X43500Y227000D02*
D03*
X60000Y312000D02*
D03*
X128038Y311805D02*
D03*
X144538D02*
D03*
X213038D02*
D03*
X298538D02*
D03*
X315038D02*
D03*
X569937Y312048D02*
D03*
X553437D02*
D03*
X484437D02*
D03*
X467937D02*
D03*
X399437D02*
D03*
X382937D02*
D03*
X824937D02*
D03*
X808437D02*
D03*
X739437D02*
D03*
X722937D02*
D03*
X654437D02*
D03*
X637937D02*
D03*
X1079937D02*
D03*
X1063437D02*
D03*
X994437D02*
D03*
X977937D02*
D03*
X909437D02*
D03*
X892937D02*
D03*
X1249437D02*
D03*
X1232937D02*
D03*
X1164437D02*
D03*
X1147937D02*
D03*
X229538Y311805D02*
D03*
X43500Y312000D02*
D03*
X60000Y482000D02*
D03*
X128038Y481805D02*
D03*
X144538D02*
D03*
X213038D02*
D03*
X298538D02*
D03*
X315038D02*
D03*
X569937Y482048D02*
D03*
X553437D02*
D03*
X484437D02*
D03*
X467937D02*
D03*
X399437D02*
D03*
X382937D02*
D03*
X824937D02*
D03*
X808437D02*
D03*
X739437D02*
D03*
X722937D02*
D03*
X654437D02*
D03*
X637937D02*
D03*
X1079937D02*
D03*
X1063437D02*
D03*
X994437D02*
D03*
X977937D02*
D03*
X909437D02*
D03*
X1249437D02*
D03*
X1232937D02*
D03*
X1164437D02*
D03*
X1147937D02*
D03*
X229538Y481805D02*
D03*
X43500Y482000D02*
D03*
X60000Y567000D02*
D03*
X128038Y566805D02*
D03*
X144538D02*
D03*
X213038D02*
D03*
X298538D02*
D03*
X315038D02*
D03*
X569937Y567048D02*
D03*
X553437D02*
D03*
X484437D02*
D03*
X467937D02*
D03*
X399437D02*
D03*
X382937D02*
D03*
X824937D02*
D03*
X808437D02*
D03*
X739437D02*
D03*
X722937D02*
D03*
X654437D02*
D03*
X637937D02*
D03*
X1079937D02*
D03*
X1063437D02*
D03*
X994437D02*
D03*
X977937D02*
D03*
X909437D02*
D03*
X892937D02*
D03*
X1249437D02*
D03*
X1232937D02*
D03*
X1147937D02*
D03*
X229538Y566805D02*
D03*
X43500Y567000D02*
D03*
X60000Y652000D02*
D03*
X128038Y651805D02*
D03*
X144538D02*
D03*
X213038D02*
D03*
X315038D02*
D03*
X569937Y652048D02*
D03*
X553437D02*
D03*
X484437D02*
D03*
X467937D02*
D03*
X399437D02*
D03*
X382937D02*
D03*
X824937D02*
D03*
X808437D02*
D03*
X739437D02*
D03*
X722937D02*
D03*
X654437D02*
D03*
X637937D02*
D03*
X1079937D02*
D03*
X1063437D02*
D03*
X994437D02*
D03*
X977937D02*
D03*
X909437D02*
D03*
X892937D02*
D03*
X1249437D02*
D03*
X1232937D02*
D03*
X1164437D02*
D03*
X1147937D02*
D03*
X229538Y651805D02*
D03*
X43500Y652000D02*
D03*
X893500Y481988D02*
D03*
M02*
