G04*
G04 #@! TF.GenerationSoftware,Altium Limited,Altium Designer,24.5.2 (23)*
G04*
G04 Layer_Physical_Order=2*
G04 Layer_Color=16711680*
%FSLAX44Y44*%
%MOMM*%
G71*
G04*
G04 #@! TF.SameCoordinates,DF3C02B5-3F0F-4488-AB2D-F481A5C04937*
G04*
G04*
G04 #@! TF.FilePolarity,Positive*
G04*
G01*
G75*
%ADD10C,0.5000*%
%ADD11C,0.5000*%
%ADD12C,0.1300*%
%ADD13C,0.6000*%
%ADD14C,0.8800*%
%ADD15C,2.0300*%
%ADD16C,0.2500*%
%ADD17R,0.3000X0.8000*%
%ADD18R,0.3000X0.6500*%
%ADD19R,0.4000X0.9500*%
%ADD20C,0.2000*%
%ADD21C,0.3000*%
G36*
X653869Y780796D02*
X653391Y780081D01*
X653176Y779000D01*
X653176Y779000D01*
Y778929D01*
X651369Y777122D01*
Y770622D01*
X642369D01*
Y776961D01*
X640770Y778559D01*
Y778931D01*
X640398D01*
X639958Y779372D01*
Y780500D01*
X639864Y780970D01*
Y790961D01*
X653869D01*
Y780796D01*
D02*
G37*
G36*
X659230Y778326D02*
Y769891D01*
X660042D01*
Y765146D01*
X653854Y758958D01*
X649866D01*
X649771Y759189D01*
X648569Y760390D01*
X647000Y761040D01*
X645301D01*
X643732Y760390D01*
X642531Y759189D01*
X642294Y758617D01*
X640796Y758319D01*
X630493Y768621D01*
X631019Y769891D01*
X634770D01*
Y769891D01*
X635230D01*
Y769891D01*
X640770D01*
Y769891D01*
X641861Y769458D01*
X642369Y769247D01*
X651369D01*
X652341Y769650D01*
X652441Y769891D01*
X652770D01*
Y776579D01*
X654148Y777957D01*
X654243Y778186D01*
X654320Y778237D01*
X654370Y778494D01*
X654379Y778514D01*
X654524Y778732D01*
X654686Y779545D01*
X654720Y779596D01*
X658235Y779596D01*
X659230Y778326D01*
D02*
G37*
G36*
X75068Y778336D02*
X53310Y756579D01*
X52849Y756770D01*
X51151D01*
X49581Y756120D01*
X48738Y755277D01*
X29415Y774600D01*
X29693Y776118D01*
X33623Y778464D01*
X36021Y779504D01*
X52194Y779506D01*
X74582Y779510D01*
X75068Y778336D01*
D02*
G37*
G36*
X243151Y776420D02*
X223311Y756579D01*
X222849Y756770D01*
X221151D01*
X219581Y756120D01*
X218752Y755291D01*
X197527Y776516D01*
X198013Y777690D01*
X242625D01*
X243151Y776420D01*
D02*
G37*
G36*
X160081Y778349D02*
X138310Y756579D01*
X137849Y756770D01*
X136151D01*
X134581Y756120D01*
X133745Y755284D01*
X110784Y778245D01*
X111310Y779515D01*
X118429Y779516D01*
X159594Y779522D01*
X160081Y778349D01*
D02*
G37*
G36*
X490222Y767990D02*
X478811Y756579D01*
X478349Y756770D01*
X476651D01*
X475081Y756120D01*
X474024Y755062D01*
X461096Y767990D01*
X461582Y769164D01*
X489736D01*
X490222Y767990D01*
D02*
G37*
G36*
X572652Y765420D02*
X563311Y756079D01*
X562849Y756270D01*
X561151D01*
X559581Y755620D01*
X559031Y755069D01*
X548680Y765420D01*
X549166Y766593D01*
X572166D01*
X572652Y765420D01*
D02*
G37*
G36*
X325362Y773130D02*
X308311Y756079D01*
X307849Y756270D01*
X306151D01*
X304581Y755620D01*
X304009Y755048D01*
X285927Y773130D01*
X286413Y774304D01*
X324876D01*
X325362Y773130D01*
D02*
G37*
G36*
X408792Y770560D02*
X393311Y755079D01*
X392849Y755270D01*
X391151D01*
X389581Y754620D01*
X389516Y754555D01*
X373512Y770560D01*
X373997Y771733D01*
X408306D01*
X408792Y770560D01*
D02*
G37*
G36*
X617010Y752105D02*
X616524Y750931D01*
X614230D01*
Y750931D01*
X613770D01*
Y750931D01*
X608230D01*
Y750931D01*
X607770D01*
Y750931D01*
X602230D01*
Y750931D01*
X601770D01*
Y750931D01*
X596230D01*
X595270Y751679D01*
Y754431D01*
X595270D01*
X594998Y755087D01*
X598754Y758844D01*
X610271D01*
X617010Y752105D01*
D02*
G37*
G36*
X995705Y760869D02*
X989077Y754241D01*
X987849Y754750D01*
X986151D01*
X984928Y754243D01*
X978302Y760869D01*
X978788Y762042D01*
X995219D01*
X995705Y760869D01*
D02*
G37*
G36*
X1247460Y757669D02*
X1242003Y752211D01*
X1233345Y760869D01*
X1233831Y762042D01*
X1243086D01*
X1247460Y757669D01*
D02*
G37*
G36*
X1165676Y760869D02*
X1157003Y752197D01*
X1148331Y760869D01*
X1148817Y762042D01*
X1165190D01*
X1165676Y760869D01*
D02*
G37*
G36*
X1080691D02*
X1072003Y752182D01*
X1063316Y760869D01*
X1063802Y762042D01*
X1080204D01*
X1080691Y760869D01*
D02*
G37*
G36*
X910720D02*
X902004Y752153D01*
X893288Y760869D01*
X893774Y762042D01*
X910234D01*
X910720Y760869D01*
D02*
G37*
G36*
X825735D02*
X817004Y752138D01*
X808274Y760869D01*
X808760Y762042D01*
X825249D01*
X825735Y760869D01*
D02*
G37*
G36*
X740750D02*
X732005Y752124D01*
X723260Y760869D01*
X723746Y762042D01*
X740264D01*
X740750Y760869D01*
D02*
G37*
G36*
X37007Y737007D02*
X12322Y712322D01*
X11148Y712808D01*
X11148Y741687D01*
X11148Y741687D01*
X11148Y741687D01*
X11234Y744352D01*
X11920Y749638D01*
X13281Y754792D01*
X14569Y757950D01*
X15814Y758201D01*
X37007Y737007D01*
D02*
G37*
G36*
X1227003Y737211D02*
X1199496Y709704D01*
X1199496Y709704D01*
X1172003Y737197D01*
X1196849Y762042D01*
X1202172D01*
X1227003Y737211D01*
D02*
G37*
G36*
X1142003Y737197D02*
X1114496Y709689D01*
X1114496Y709689D01*
X1087003Y737182D01*
X1111864Y762042D01*
X1117158D01*
X1142003Y737197D01*
D02*
G37*
G36*
X1057004Y737182D02*
X1029497Y709675D01*
X1029496Y709675D01*
X1002004Y737168D01*
X1026879Y762042D01*
X1032143D01*
X1057004Y737182D01*
D02*
G37*
G36*
X972004Y737168D02*
X944497Y709660D01*
X944497Y709660D01*
X917004Y737153D01*
X941894Y762042D01*
X947129D01*
X972004Y737168D01*
D02*
G37*
G36*
X887004Y737153D02*
X859497Y709646D01*
X859497Y709646D01*
X832004Y737138D01*
X856908Y762042D01*
X862115D01*
X887004Y737153D01*
D02*
G37*
G36*
X802004Y737138D02*
X774498Y709631D01*
X774497Y709631D01*
X747005Y737124D01*
X771923Y762042D01*
X777101D01*
X802004Y737138D01*
D02*
G37*
G36*
X668230Y741675D02*
Y740391D01*
X669042D01*
Y739635D01*
X669191Y738885D01*
X669616Y738250D01*
X671250Y736616D01*
X671885Y736191D01*
X672635Y736042D01*
X690689D01*
X691116Y735616D01*
X691751Y735191D01*
X692500Y735042D01*
X713264D01*
X713750Y733869D01*
X689498Y709617D01*
X689498Y709617D01*
X662005Y737109D01*
X667057Y742161D01*
X668230Y741675D01*
D02*
G37*
G36*
X588730Y747160D02*
Y742391D01*
X595270D01*
X596230Y741643D01*
Y740391D01*
X597043D01*
Y736000D01*
X597192Y735251D01*
X597616Y734616D01*
X613564Y718668D01*
X604498Y709602D01*
X604498Y709602D01*
X577006Y737095D01*
X587557Y747646D01*
X588730Y747160D01*
D02*
G37*
G36*
X547006Y737095D02*
X519498Y709588D01*
X519498Y709588D01*
X492006Y737080D01*
X518615Y763689D01*
X520405Y763695D01*
X547006Y737095D01*
D02*
G37*
G36*
X462006Y737080D02*
X434499Y709573D01*
X434499Y709573D01*
X407006Y737066D01*
X433615Y763675D01*
X435405Y763681D01*
X462006Y737080D01*
D02*
G37*
G36*
X377006Y737066D02*
X349499Y709558D01*
X349499Y709559D01*
X322006Y737051D01*
X348615Y763660D01*
X350406Y763666D01*
X377006Y737066D01*
D02*
G37*
G36*
X292006Y737051D02*
X264499Y709544D01*
X264499Y709544D01*
X237007Y737037D01*
X263616Y763646D01*
X265406Y763652D01*
X292006Y737051D01*
D02*
G37*
G36*
X207007Y737037D02*
X179500Y709529D01*
X179500Y709529D01*
X152007Y737022D01*
X178616Y763631D01*
X180406Y763637D01*
X207007Y737037D01*
D02*
G37*
G36*
X122007Y737022D02*
X94500Y709515D01*
X94500Y709515D01*
X67007Y737007D01*
X93617Y763616D01*
X95407Y763622D01*
X122007Y737022D01*
D02*
G37*
G36*
X741981Y694616D02*
X742387Y694345D01*
X749466Y687266D01*
X749987Y686917D01*
X750129Y686697D01*
X750361Y685495D01*
X732004Y667138D01*
X714638Y684505D01*
X714738Y686201D01*
X724910Y696372D01*
X727689D01*
X727880Y695911D01*
X729081Y694710D01*
X730651Y694060D01*
X732349D01*
X733919Y694710D01*
X735120Y695911D01*
X735770Y697481D01*
Y699031D01*
X736154Y699335D01*
X736943Y699654D01*
X741981Y694616D01*
D02*
G37*
G36*
X837616Y688616D02*
X837692Y687841D01*
X817004Y667153D01*
X798604Y685553D01*
X798595Y685914D01*
X798895Y687058D01*
X799207Y687266D01*
X803123Y691182D01*
X813785D01*
X814535Y691331D01*
X815170Y691756D01*
X815239Y691825D01*
X816048Y691490D01*
X817746D01*
X819316Y692140D01*
X820517Y693341D01*
X821167Y694911D01*
Y696609D01*
X820517Y698179D01*
X819316Y699380D01*
X817746Y700030D01*
X816048D01*
X814478Y699380D01*
X813277Y698179D01*
X812627Y696609D01*
Y695098D01*
X805063D01*
X804577Y696271D01*
X815349Y707042D01*
X819189D01*
X837616Y688616D01*
D02*
G37*
G36*
X923467Y688630D02*
X902004Y667168D01*
X882302Y686869D01*
X882788Y688042D01*
X896830D01*
X897579Y688191D01*
X898214Y688616D01*
X901211Y691613D01*
X901672Y691422D01*
X903371D01*
X904940Y692072D01*
X906142Y693273D01*
X906792Y694843D01*
Y696541D01*
X906142Y698111D01*
X904940Y699312D01*
X903371Y699962D01*
X901672D01*
X900103Y699312D01*
X898902Y698111D01*
X898252Y696541D01*
Y694843D01*
X898443Y694381D01*
X896019Y691958D01*
X885789D01*
X885303Y693131D01*
X902134Y709962D01*
X923467Y688630D01*
D02*
G37*
G36*
X1263701Y700513D02*
Y688924D01*
X1242003Y667226D01*
X1217167Y692061D01*
X1217653Y693234D01*
X1238711D01*
X1238902Y692773D01*
X1240103Y691572D01*
X1241672Y690922D01*
X1243371D01*
X1244940Y691572D01*
X1246142Y692773D01*
X1246792Y694343D01*
Y696041D01*
X1246142Y697611D01*
X1244940Y698812D01*
X1243371Y699462D01*
X1241672D01*
X1240103Y698812D01*
X1238902Y697611D01*
X1238711Y697150D01*
X1218601D01*
X1218115Y698323D01*
X1242003Y722211D01*
X1263701Y700513D01*
D02*
G37*
G36*
X1099490Y694696D02*
X1099481Y694675D01*
X1072003Y667197D01*
X1047235Y691964D01*
X1047762Y693234D01*
X1069211D01*
X1069402Y692773D01*
X1070603Y691572D01*
X1072172Y690922D01*
X1073871D01*
X1075440Y691572D01*
X1076641Y692773D01*
X1077292Y694343D01*
Y696041D01*
X1076641Y697611D01*
X1075440Y698812D01*
X1073871Y699462D01*
X1072172D01*
X1070603Y698812D01*
X1069402Y697611D01*
X1069211Y697150D01*
X1049077D01*
X1048591Y698323D01*
X1067811Y717542D01*
X1076643D01*
X1099490Y694696D01*
D02*
G37*
G36*
X1184490Y694710D02*
X1184481Y694689D01*
X1157003Y667211D01*
X1132653Y691561D01*
X1133139Y692734D01*
X1153711D01*
X1153902Y692273D01*
X1155103Y691072D01*
X1156672Y690422D01*
X1158371D01*
X1159940Y691072D01*
X1161142Y692273D01*
X1161792Y693843D01*
Y695541D01*
X1161142Y697111D01*
X1159940Y698312D01*
X1158371Y698962D01*
X1156672D01*
X1155103Y698312D01*
X1153902Y697111D01*
X1153711Y696649D01*
X1133115D01*
X1132629Y697823D01*
X1154849Y720042D01*
X1159157D01*
X1184490Y694710D01*
D02*
G37*
G36*
X1011276Y691455D02*
X987004Y667182D01*
X967317Y686869D01*
X967803Y688042D01*
X983330D01*
X984079Y688191D01*
X984714Y688616D01*
X986711Y690613D01*
X987172Y690422D01*
X988871D01*
X990440Y691072D01*
X991642Y692273D01*
X992292Y693843D01*
Y695541D01*
X991642Y697111D01*
X990440Y698312D01*
X988871Y698962D01*
X987172D01*
X985603Y698312D01*
X984402Y697111D01*
X983752Y695541D01*
Y693843D01*
X983943Y693381D01*
X982519Y691958D01*
X965154D01*
X964668Y693131D01*
X986080Y714542D01*
X988189D01*
X1011276Y691455D01*
D02*
G37*
G36*
X664686Y685546D02*
X664752Y684871D01*
X647005Y667124D01*
X619512Y694616D01*
X634158Y709262D01*
X640969D01*
X664686Y685546D01*
D02*
G37*
G36*
X589492Y694608D02*
X589483Y694587D01*
X562005Y667109D01*
X534513Y694602D01*
X562006Y722095D01*
X589492Y694608D01*
D02*
G37*
G36*
X504492Y694594D02*
X504483Y694573D01*
X477006Y667095D01*
X449513Y694587D01*
X477006Y722080D01*
X504492Y694594D01*
D02*
G37*
G36*
X419492Y694579D02*
X419484Y694558D01*
X392006Y667080D01*
X364513Y694573D01*
X392006Y722066D01*
X419492Y694579D01*
D02*
G37*
G36*
X334493Y694565D02*
X334484Y694544D01*
X307006Y667066D01*
X279513Y694558D01*
X307006Y722051D01*
X334493Y694565D01*
D02*
G37*
G36*
X249493Y694550D02*
X249485Y694529D01*
X222006Y667051D01*
X194514Y694544D01*
X222007Y722037D01*
X249493Y694550D01*
D02*
G37*
G36*
X164494Y694536D02*
X164485Y694514D01*
X137007Y667037D01*
X109514Y694529D01*
X137007Y722022D01*
X164494Y694536D01*
D02*
G37*
G36*
X79494Y694521D02*
X79485Y694500D01*
X52007Y667022D01*
X24515Y694514D01*
X52007Y722007D01*
X79494Y694521D01*
D02*
G37*
G36*
X1266271Y659835D02*
Y644616D01*
X1265098Y644130D01*
X1257003Y652226D01*
X1265098Y660321D01*
X1266271Y659835D01*
D02*
G37*
G36*
X37007Y652022D02*
X12321Y627336D01*
X11148Y627822D01*
X11148Y676221D01*
X12322Y676708D01*
X37007Y652022D01*
D02*
G37*
G36*
X1227003Y652226D02*
X1199495Y624719D01*
X1199495Y624719D01*
X1172003Y652211D01*
X1199496Y679704D01*
X1199516Y679712D01*
X1227003Y652226D01*
D02*
G37*
G36*
X1142003Y652211D02*
X1114496Y624704D01*
X1114496Y624704D01*
X1087003Y652197D01*
X1114496Y679689D01*
X1114516Y679698D01*
X1142003Y652211D01*
D02*
G37*
G36*
X1057003Y652197D02*
X1029496Y624689D01*
X1029496Y624689D01*
X1002004Y652182D01*
X1029496Y679675D01*
X1029517Y679683D01*
X1057003Y652197D01*
D02*
G37*
G36*
X972004Y652182D02*
X944497Y624675D01*
X944496Y624675D01*
X917004Y652168D01*
X944497Y679660D01*
X944517Y679669D01*
X972004Y652182D01*
D02*
G37*
G36*
X887004Y652168D02*
X859497Y624660D01*
X859497Y624660D01*
X832004Y652153D01*
X859497Y679646D01*
X859517Y679654D01*
X887004Y652168D01*
D02*
G37*
G36*
X802004Y652153D02*
X774497Y624646D01*
X774497Y624646D01*
X747004Y652138D01*
X774497Y679631D01*
X774518Y679640D01*
X802004Y652153D01*
D02*
G37*
G36*
X717004Y652138D02*
X689498Y624631D01*
X689497Y624631D01*
X662005Y652124D01*
X688614Y678733D01*
X690404Y678739D01*
X717004Y652138D01*
D02*
G37*
G36*
X632005Y652124D02*
X604498Y624617D01*
X604498Y624617D01*
X577005Y652109D01*
X604498Y679602D01*
X604518Y679611D01*
X632005Y652124D01*
D02*
G37*
G36*
X547005Y652109D02*
X519498Y624602D01*
X519498Y624602D01*
X492006Y652095D01*
X518615Y678704D01*
X520405Y678710D01*
X547005Y652109D01*
D02*
G37*
G36*
X462006Y652095D02*
X434498Y624588D01*
X434498Y624588D01*
X407006Y652080D01*
X433615Y678689D01*
X435405Y678695D01*
X462006Y652095D01*
D02*
G37*
G36*
X377006Y652080D02*
X349499Y624573D01*
X349499Y624573D01*
X322006Y652066D01*
X348615Y678675D01*
X350405Y678681D01*
X377006Y652080D01*
D02*
G37*
G36*
X292006Y652066D02*
X264499Y624558D01*
X264499Y624558D01*
X237006Y652051D01*
X263616Y678660D01*
X265406Y678666D01*
X292006Y652066D01*
D02*
G37*
G36*
X207006Y652051D02*
X179499Y624544D01*
X179499Y624544D01*
X152007Y652037D01*
X178616Y678646D01*
X180406Y678652D01*
X207006Y652051D01*
D02*
G37*
G36*
X122007Y652037D02*
X94500Y624529D01*
X94500Y624529D01*
X67007Y652022D01*
X94500Y679515D01*
X94520Y679523D01*
X122007Y652037D01*
D02*
G37*
G36*
X1266271Y612957D02*
Y606509D01*
X1242002Y582240D01*
X1214510Y609733D01*
X1242003Y637226D01*
X1266271Y612957D01*
D02*
G37*
G36*
X1184489Y609725D02*
X1184481Y609704D01*
X1157003Y582226D01*
X1129510Y609718D01*
X1157003Y637211D01*
X1184489Y609725D01*
D02*
G37*
G36*
X1099490Y609710D02*
X1099481Y609689D01*
X1072003Y582211D01*
X1044510Y609704D01*
X1072003Y637197D01*
X1099490Y609710D01*
D02*
G37*
G36*
X1014490Y609696D02*
X1014481Y609675D01*
X987003Y582197D01*
X959511Y609689D01*
X987004Y637182D01*
X1014490Y609696D01*
D02*
G37*
G36*
X929490Y609681D02*
X929482Y609660D01*
X902004Y582182D01*
X874511Y609675D01*
X902004Y637168D01*
X929490Y609681D01*
D02*
G37*
G36*
X844491Y609666D02*
X844482Y609646D01*
X817004Y582168D01*
X789511Y609660D01*
X817004Y637153D01*
X844491Y609666D01*
D02*
G37*
G36*
X759491Y609652D02*
X759482Y609631D01*
X732004Y582153D01*
X704512Y609646D01*
X732004Y637138D01*
X759491Y609652D01*
D02*
G37*
G36*
X674491Y609637D02*
X674482Y609616D01*
X647004Y582138D01*
X619512Y609631D01*
X647005Y637124D01*
X674491Y609637D01*
D02*
G37*
G36*
X589492Y609623D02*
X589483Y609602D01*
X562005Y582124D01*
X534512Y609616D01*
X562005Y637109D01*
X589492Y609623D01*
D02*
G37*
G36*
X504492Y609608D02*
X504483Y609587D01*
X477005Y582109D01*
X449513Y609602D01*
X477006Y637095D01*
X504492Y609608D01*
D02*
G37*
G36*
X419492Y609594D02*
X419483Y609573D01*
X392006Y582095D01*
X364513Y609587D01*
X392006Y637080D01*
X419492Y609594D01*
D02*
G37*
G36*
X334492Y609579D02*
X334484Y609558D01*
X307006Y582080D01*
X279513Y609573D01*
X307006Y637066D01*
X334492Y609579D01*
D02*
G37*
G36*
X249493Y609565D02*
X249484Y609544D01*
X222006Y582066D01*
X194514Y609558D01*
X222006Y637051D01*
X249493Y609565D01*
D02*
G37*
G36*
X164493Y609550D02*
X164485Y609529D01*
X137007Y582051D01*
X109514Y609544D01*
X137007Y637037D01*
X164493Y609550D01*
D02*
G37*
G36*
X79493Y609536D02*
X79485Y609515D01*
X52007Y582037D01*
X24514Y609529D01*
X52007Y637022D01*
X79493Y609536D01*
D02*
G37*
G36*
X1268841Y577420D02*
Y557061D01*
X1267668Y556575D01*
X1257002Y567240D01*
X1267668Y577906D01*
X1268841Y577420D01*
D02*
G37*
G36*
X37007Y567037D02*
X12321Y542351D01*
X11148Y542837D01*
X11148Y591236D01*
X12321Y591722D01*
X37007Y567037D01*
D02*
G37*
G36*
X1227002Y567240D02*
X1199495Y539733D01*
X1199495Y539733D01*
X1172003Y567226D01*
X1199495Y594719D01*
X1199516Y594727D01*
X1227002Y567240D01*
D02*
G37*
G36*
X1142003Y567226D02*
X1114496Y539719D01*
X1114495Y539719D01*
X1087003Y567211D01*
X1113612Y593820D01*
X1115402Y593826D01*
X1142003Y567226D01*
D02*
G37*
G36*
X1057003Y567211D02*
X1029496Y539704D01*
X1029496Y539704D01*
X1002003Y567197D01*
X1029496Y594689D01*
X1029516Y594698D01*
X1057003Y567211D01*
D02*
G37*
G36*
X972003Y567197D02*
X944496Y539689D01*
X944496Y539689D01*
X917004Y567182D01*
X944496Y594675D01*
X944517Y594683D01*
X972003Y567197D01*
D02*
G37*
G36*
X887004Y567182D02*
X859497Y539675D01*
X859497Y539675D01*
X832004Y567168D01*
X859497Y594660D01*
X859517Y594669D01*
X887004Y567182D01*
D02*
G37*
G36*
X802004Y567168D02*
X774497Y539660D01*
X774497Y539660D01*
X747004Y567153D01*
X774497Y594646D01*
X774517Y594654D01*
X802004Y567168D01*
D02*
G37*
G36*
X717004Y567153D02*
X689497Y539646D01*
X689497Y539646D01*
X662004Y567138D01*
X689497Y594631D01*
X689518Y594640D01*
X717004Y567153D01*
D02*
G37*
G36*
X632005Y567138D02*
X604497Y539631D01*
X604497Y539631D01*
X577005Y567124D01*
X604498Y594617D01*
X604518Y594625D01*
X632005Y567138D01*
D02*
G37*
G36*
X547005Y567124D02*
X519498Y539617D01*
X519498Y539617D01*
X492005Y567109D01*
X518614Y593718D01*
X520404Y593724D01*
X547005Y567124D01*
D02*
G37*
G36*
X462005Y567109D02*
X434498Y539602D01*
X434498Y539602D01*
X407006Y567095D01*
X433615Y593704D01*
X435405Y593710D01*
X462005Y567109D01*
D02*
G37*
G36*
X377006Y567095D02*
X349498Y539588D01*
X349498Y539588D01*
X322006Y567080D01*
X348615Y593689D01*
X350405Y593695D01*
X377006Y567095D01*
D02*
G37*
G36*
X292006Y567080D02*
X264499Y539573D01*
X264499Y539573D01*
X237006Y567066D01*
X263615Y593675D01*
X265405Y593681D01*
X292006Y567080D01*
D02*
G37*
G36*
X207006Y567066D02*
X179499Y539558D01*
X179499Y539558D01*
X152007Y567051D01*
X178616Y593660D01*
X180406Y593666D01*
X207006Y567066D01*
D02*
G37*
G36*
X122007Y567051D02*
X94499Y539544D01*
X94499Y539544D01*
X67007Y567037D01*
X93616Y593646D01*
X95406Y593652D01*
X122007Y567051D01*
D02*
G37*
G36*
X1268841Y525401D02*
Y524094D01*
X1242002Y497255D01*
X1214509Y524747D01*
X1242002Y552240D01*
X1268841Y525401D01*
D02*
G37*
G36*
X1184489Y524739D02*
X1184480Y524718D01*
X1157002Y497240D01*
X1129510Y524733D01*
X1157003Y552226D01*
X1184489Y524739D01*
D02*
G37*
G36*
X1099489Y524725D02*
X1099481Y524704D01*
X1072003Y497226D01*
X1044510Y524718D01*
X1072003Y552211D01*
X1099489Y524725D01*
D02*
G37*
G36*
X1014490Y524710D02*
X1014481Y524689D01*
X987003Y497211D01*
X959510Y524704D01*
X987003Y552197D01*
X1014490Y524710D01*
D02*
G37*
G36*
X929490Y524696D02*
X929481Y524675D01*
X902003Y497197D01*
X874511Y524689D01*
X902004Y552182D01*
X929490Y524696D01*
D02*
G37*
G36*
X844490Y524681D02*
X844482Y524660D01*
X817004Y497182D01*
X789511Y524675D01*
X817004Y552168D01*
X844490Y524681D01*
D02*
G37*
G36*
X759491Y524666D02*
X759482Y524646D01*
X732004Y497168D01*
X704511Y524660D01*
X732004Y552153D01*
X759491Y524666D01*
D02*
G37*
G36*
X674491Y524652D02*
X674482Y524631D01*
X647004Y497153D01*
X619512Y524646D01*
X647004Y552138D01*
X674491Y524652D01*
D02*
G37*
G36*
X589491Y524637D02*
X589483Y524616D01*
X562005Y497138D01*
X534512Y524631D01*
X562005Y552124D01*
X589491Y524637D01*
D02*
G37*
G36*
X504492Y524623D02*
X504483Y524602D01*
X477005Y497124D01*
X449512Y524616D01*
X477005Y552109D01*
X504492Y524623D01*
D02*
G37*
G36*
X419492Y524608D02*
X419483Y524587D01*
X392005Y497109D01*
X364513Y524602D01*
X392006Y552095D01*
X419492Y524608D01*
D02*
G37*
G36*
X334492Y524594D02*
X334483Y524573D01*
X307006Y497095D01*
X279513Y524587D01*
X307006Y552080D01*
X334492Y524594D01*
D02*
G37*
G36*
X249493Y524579D02*
X249484Y524558D01*
X222006Y497080D01*
X194513Y524573D01*
X222006Y552066D01*
X249493Y524579D01*
D02*
G37*
G36*
X164493Y524565D02*
X164484Y524544D01*
X137006Y497066D01*
X109514Y524558D01*
X137007Y552051D01*
X164493Y524565D01*
D02*
G37*
G36*
X79493Y524550D02*
X79485Y524529D01*
X52007Y497051D01*
X24514Y524544D01*
X52007Y552037D01*
X79493Y524550D01*
D02*
G37*
G36*
X1271411Y495005D02*
Y469505D01*
X1270238Y469019D01*
X1257002Y482255D01*
X1270238Y495491D01*
X1271411Y495005D01*
D02*
G37*
G36*
X37006Y482051D02*
X12321Y457366D01*
X11148Y457852D01*
X11148Y506250D01*
X12321Y506736D01*
X37006Y482051D01*
D02*
G37*
G36*
X1227002Y482255D02*
X1199495Y454748D01*
X1199495Y454748D01*
X1172002Y482240D01*
X1198611Y508849D01*
X1200402Y508855D01*
X1227002Y482255D01*
D02*
G37*
G36*
X1142002Y482240D02*
X1114495Y454733D01*
X1114495Y454733D01*
X1087003Y482226D01*
X1114495Y509719D01*
X1114516Y509727D01*
X1142002Y482240D01*
D02*
G37*
G36*
X1057003Y482226D02*
X1029496Y454719D01*
X1029495Y454719D01*
X1002003Y482211D01*
X1029496Y509704D01*
X1029516Y509712D01*
X1057003Y482226D01*
D02*
G37*
G36*
X972003Y482211D02*
X944496Y454704D01*
X944496Y454704D01*
X917003Y482197D01*
X943612Y508806D01*
X945403Y508812D01*
X972003Y482211D01*
D02*
G37*
G36*
X887003Y482197D02*
X859496Y454689D01*
X859496Y454689D01*
X832004Y482182D01*
X859497Y509675D01*
X859517Y509683D01*
X887003Y482197D01*
D02*
G37*
G36*
X802004Y482182D02*
X774497Y454675D01*
X774497Y454675D01*
X747004Y482168D01*
X774497Y509660D01*
X774517Y509669D01*
X802004Y482182D01*
D02*
G37*
G36*
X717004Y482168D02*
X689497Y454660D01*
X689497Y454660D01*
X662004Y482153D01*
X689497Y509646D01*
X689517Y509654D01*
X717004Y482168D01*
D02*
G37*
G36*
X632004Y482153D02*
X604497Y454646D01*
X604497Y454646D01*
X577005Y482138D01*
X604497Y509631D01*
X604518Y509640D01*
X632004Y482153D01*
D02*
G37*
G36*
X547005Y482138D02*
X519497Y454631D01*
X519497Y454631D01*
X492005Y482124D01*
X518614Y508733D01*
X520404Y508739D01*
X547005Y482138D01*
D02*
G37*
G36*
X462005Y482124D02*
X434498Y454617D01*
X434498Y454617D01*
X407005Y482109D01*
X433614Y508718D01*
X435405Y508724D01*
X462005Y482124D01*
D02*
G37*
G36*
X377005Y482109D02*
X349498Y454602D01*
X349498Y454602D01*
X322006Y482095D01*
X348615Y508704D01*
X350405Y508710D01*
X377005Y482109D01*
D02*
G37*
G36*
X292006Y482095D02*
X264499Y454588D01*
X264498Y454588D01*
X237006Y482080D01*
X263615Y508689D01*
X265405Y508695D01*
X292006Y482095D01*
D02*
G37*
G36*
X207006Y482080D02*
X179499Y454573D01*
X179499Y454573D01*
X152006Y482066D01*
X178615Y508675D01*
X180405Y508681D01*
X207006Y482080D01*
D02*
G37*
G36*
X122006Y482066D02*
X94499Y454558D01*
X94499Y454558D01*
X67007Y482051D01*
X93616Y508660D01*
X95406Y508666D01*
X122006Y482066D01*
D02*
G37*
G36*
X1269488Y439768D02*
X1269480Y439747D01*
X1242002Y412269D01*
X1214509Y439762D01*
X1242002Y467255D01*
X1269488Y439768D01*
D02*
G37*
G36*
X1184489Y439754D02*
X1184480Y439733D01*
X1157002Y412255D01*
X1129509Y439747D01*
X1157002Y467240D01*
X1184489Y439754D01*
D02*
G37*
G36*
X1099489Y439739D02*
X1099480Y439718D01*
X1072002Y412240D01*
X1044510Y439733D01*
X1072003Y467226D01*
X1099489Y439739D01*
D02*
G37*
G36*
X1014489Y439725D02*
X1014481Y439704D01*
X987003Y412226D01*
X959510Y439718D01*
X987003Y467211D01*
X1014489Y439725D01*
D02*
G37*
G36*
X929490Y439710D02*
X929481Y439689D01*
X902003Y412211D01*
X874510Y439704D01*
X902003Y467197D01*
X929490Y439710D01*
D02*
G37*
G36*
X844490Y439696D02*
X844481Y439675D01*
X817003Y412197D01*
X789511Y439689D01*
X817004Y467182D01*
X844490Y439696D01*
D02*
G37*
G36*
X759490Y439681D02*
X759482Y439660D01*
X732004Y412182D01*
X704511Y439675D01*
X732004Y467168D01*
X759490Y439681D01*
D02*
G37*
G36*
X674491Y439666D02*
X674482Y439646D01*
X647004Y412168D01*
X619511Y439660D01*
X647004Y467153D01*
X674491Y439666D01*
D02*
G37*
G36*
X589491Y439652D02*
X589482Y439631D01*
X562004Y412153D01*
X534512Y439646D01*
X562005Y467138D01*
X589491Y439652D01*
D02*
G37*
G36*
X504491Y439637D02*
X504483Y439616D01*
X477005Y412138D01*
X449512Y439631D01*
X477005Y467124D01*
X504491Y439637D01*
D02*
G37*
G36*
X419492Y439623D02*
X419483Y439602D01*
X392005Y412124D01*
X364512Y439616D01*
X392005Y467109D01*
X419492Y439623D01*
D02*
G37*
G36*
X334492Y439608D02*
X334483Y439587D01*
X307005Y412109D01*
X279513Y439602D01*
X307006Y467095D01*
X334492Y439608D01*
D02*
G37*
G36*
X249492Y439594D02*
X249484Y439573D01*
X222006Y412095D01*
X194513Y439587D01*
X222006Y467080D01*
X249492Y439594D01*
D02*
G37*
G36*
X164493Y439579D02*
X164484Y439558D01*
X137006Y412080D01*
X109513Y439573D01*
X137006Y467066D01*
X164493Y439579D01*
D02*
G37*
G36*
X79493Y439565D02*
X79484Y439544D01*
X52006Y412066D01*
X24514Y439558D01*
X52007Y467051D01*
X79493Y439565D01*
D02*
G37*
G36*
X1273981Y412590D02*
Y381949D01*
X1272808Y381463D01*
X1257002Y397269D01*
X1272808Y413076D01*
X1273981Y412590D01*
D02*
G37*
G36*
X37006Y397066D02*
X12321Y372380D01*
X11148Y372866D01*
X11148Y421265D01*
X12321Y421751D01*
X37006Y397066D01*
D02*
G37*
G36*
X972003Y397226D02*
X945394Y370617D01*
X943597Y370617D01*
X917003Y397211D01*
X944496Y424704D01*
X944516Y424712D01*
X972003Y397226D01*
D02*
G37*
G36*
X547004Y397153D02*
X520395Y370544D01*
X518599Y370544D01*
X492005Y397138D01*
X519497Y424631D01*
X519518Y424640D01*
X547004Y397153D01*
D02*
G37*
G36*
X462005Y397138D02*
X435396Y370529D01*
X433600Y370529D01*
X407005Y397124D01*
X434498Y424617D01*
X434518Y424625D01*
X462005Y397138D01*
D02*
G37*
G36*
X377005Y397124D02*
X350396Y370515D01*
X348600Y370515D01*
X322005Y397109D01*
X349498Y424602D01*
X349518Y424610D01*
X377005Y397124D01*
D02*
G37*
G36*
X292005Y397109D02*
X265396Y370500D01*
X263600Y370500D01*
X237006Y397095D01*
X264498Y424588D01*
X264519Y424596D01*
X292005Y397109D01*
D02*
G37*
G36*
X207006Y397095D02*
X180396Y370486D01*
X178600Y370486D01*
X152006Y397080D01*
X179499Y424573D01*
X179519Y424581D01*
X207006Y397095D01*
D02*
G37*
G36*
X122006Y397080D02*
X95397Y370471D01*
X93601Y370471D01*
X67006Y397066D01*
X94499Y424558D01*
X94519Y424567D01*
X122006Y397080D01*
D02*
G37*
G36*
X1227002Y397269D02*
X1199495Y369762D01*
X1199495Y369762D01*
X1172002Y397255D01*
X1199495Y424748D01*
X1199515Y424756D01*
X1227002Y397269D01*
D02*
G37*
G36*
X1142002Y397255D02*
X1114495Y369748D01*
X1114495Y369748D01*
X1087002Y397240D01*
X1114495Y424733D01*
X1114515Y424742D01*
X1142002Y397255D01*
D02*
G37*
G36*
X1057002Y397240D02*
X1029495Y369733D01*
X1029495Y369733D01*
X1002003Y397226D01*
X1029495Y424719D01*
X1029516Y424727D01*
X1057002Y397240D01*
D02*
G37*
G36*
X887003Y397211D02*
X859496Y369704D01*
X859496Y369704D01*
X832003Y397197D01*
X859496Y424689D01*
X859516Y424698D01*
X887003Y397211D01*
D02*
G37*
G36*
X802003Y397197D02*
X774496Y369689D01*
X774496Y369689D01*
X747004Y397182D01*
X774497Y424675D01*
X774517Y424683D01*
X802003Y397197D01*
D02*
G37*
G36*
X717004Y397182D02*
X689497Y369675D01*
X689497Y369675D01*
X662004Y397168D01*
X689497Y424660D01*
X689517Y424669D01*
X717004Y397182D01*
D02*
G37*
G36*
X632004Y397168D02*
X604497Y369660D01*
X604497Y369660D01*
X577004Y397153D01*
X604497Y424646D01*
X604517Y424654D01*
X632004Y397168D01*
D02*
G37*
G36*
X1269488Y354783D02*
X1269479Y354762D01*
X1242001Y327284D01*
X1214509Y354776D01*
X1242002Y382269D01*
X1269488Y354783D01*
D02*
G37*
G36*
X1184488Y354768D02*
X1184480Y354747D01*
X1157002Y327269D01*
X1129509Y354762D01*
X1157002Y382255D01*
X1184488Y354768D01*
D02*
G37*
G36*
X1099489Y354754D02*
X1099480Y354733D01*
X1072002Y327255D01*
X1044509Y354747D01*
X1072002Y382240D01*
X1099489Y354754D01*
D02*
G37*
G36*
X1014489Y354739D02*
X1014480Y354718D01*
X987002Y327240D01*
X959510Y354733D01*
X987003Y382226D01*
X1014489Y354739D01*
D02*
G37*
G36*
X929489Y354725D02*
X929481Y354704D01*
X902003Y327226D01*
X874510Y354718D01*
X902003Y382211D01*
X929489Y354725D01*
D02*
G37*
G36*
X844490Y354710D02*
X844481Y354689D01*
X817003Y327211D01*
X789510Y354704D01*
X817003Y382197D01*
X844490Y354710D01*
D02*
G37*
G36*
X759490Y354696D02*
X759481Y354675D01*
X732003Y327197D01*
X704511Y354689D01*
X732004Y382182D01*
X759490Y354696D01*
D02*
G37*
G36*
X674490Y354681D02*
X674482Y354660D01*
X647004Y327182D01*
X619511Y354675D01*
X647004Y382168D01*
X674490Y354681D01*
D02*
G37*
G36*
X589491Y354666D02*
X589482Y354646D01*
X562004Y327168D01*
X534511Y354660D01*
X562004Y382153D01*
X589491Y354666D01*
D02*
G37*
G36*
X504491Y354652D02*
X504482Y354631D01*
X477004Y327153D01*
X449512Y354646D01*
X477005Y382138D01*
X504491Y354652D01*
D02*
G37*
G36*
X419491Y354637D02*
X419483Y354616D01*
X392005Y327138D01*
X364512Y354631D01*
X392005Y382124D01*
X419491Y354637D01*
D02*
G37*
G36*
X334492Y354623D02*
X334483Y354602D01*
X307005Y327124D01*
X279512Y354616D01*
X307005Y382109D01*
X334492Y354623D01*
D02*
G37*
G36*
X249492Y354608D02*
X249483Y354587D01*
X222005Y327109D01*
X194513Y354602D01*
X222006Y382095D01*
X249492Y354608D01*
D02*
G37*
G36*
X164492Y354594D02*
X164484Y354573D01*
X137006Y327095D01*
X109513Y354587D01*
X137006Y382080D01*
X164492Y354594D01*
D02*
G37*
G36*
X79493Y354579D02*
X79484Y354558D01*
X52006Y327080D01*
X24513Y354573D01*
X52006Y382066D01*
X79493Y354579D01*
D02*
G37*
G36*
X1276551Y330174D02*
Y294393D01*
X1275378Y293907D01*
X1257001Y312284D01*
X1275378Y330661D01*
X1276551Y330174D01*
D02*
G37*
G36*
X37006Y312080D02*
X12321Y287395D01*
X11148Y287881D01*
X11148Y336279D01*
X12321Y336765D01*
X37006Y312080D01*
D02*
G37*
G36*
X547004Y312167D02*
X520395Y285558D01*
X518599Y285558D01*
X492004Y312153D01*
X519497Y339646D01*
X519517Y339654D01*
X547004Y312167D01*
D02*
G37*
G36*
X462004Y312153D02*
X435395Y285544D01*
X433599Y285544D01*
X407005Y312138D01*
X434497Y339631D01*
X434518Y339640D01*
X462004Y312153D01*
D02*
G37*
G36*
X377005Y312138D02*
X350396Y285529D01*
X348600Y285529D01*
X322005Y312124D01*
X349498Y339617D01*
X349518Y339625D01*
X377005Y312138D01*
D02*
G37*
G36*
X292005Y312124D02*
X265396Y285515D01*
X263600Y285515D01*
X237005Y312109D01*
X264498Y339602D01*
X264518Y339610D01*
X292005Y312124D01*
D02*
G37*
G36*
X207005Y312109D02*
X180396Y285500D01*
X178600Y285500D01*
X152006Y312095D01*
X179498Y339588D01*
X179519Y339596D01*
X207005Y312109D01*
D02*
G37*
G36*
X122006Y312095D02*
X95396Y285486D01*
X93600Y285486D01*
X67006Y312080D01*
X94499Y339573D01*
X94519Y339581D01*
X122006Y312095D01*
D02*
G37*
G36*
X1227001Y312284D02*
X1199494Y284777D01*
X1199494Y284777D01*
X1172002Y312269D01*
X1199495Y339762D01*
X1199515Y339771D01*
X1227001Y312284D01*
D02*
G37*
G36*
X1142002Y312269D02*
X1114495Y284762D01*
X1114495Y284762D01*
X1087002Y312255D01*
X1114495Y339748D01*
X1114515Y339756D01*
X1142002Y312269D01*
D02*
G37*
G36*
X1057002Y312255D02*
X1029495Y284748D01*
X1029495Y284748D01*
X1002002Y312240D01*
X1029495Y339733D01*
X1029515Y339742D01*
X1057002Y312255D01*
D02*
G37*
G36*
X972002Y312240D02*
X944495Y284733D01*
X944495Y284733D01*
X917003Y312226D01*
X944495Y339719D01*
X944516Y339727D01*
X972002Y312240D01*
D02*
G37*
G36*
X887003Y312226D02*
X859496Y284719D01*
X859495Y284719D01*
X832003Y312211D01*
X859496Y339704D01*
X859516Y339712D01*
X887003Y312226D01*
D02*
G37*
G36*
X802003Y312211D02*
X774496Y284704D01*
X774496Y284704D01*
X747003Y312197D01*
X774496Y339689D01*
X774516Y339698D01*
X802003Y312211D01*
D02*
G37*
G36*
X717003Y312197D02*
X689496Y284690D01*
X689496Y284690D01*
X662004Y312182D01*
X689497Y339675D01*
X689517Y339683D01*
X717003Y312197D01*
D02*
G37*
G36*
X632004Y312182D02*
X604497Y284675D01*
X604496Y284675D01*
X577004Y312167D01*
X604497Y339660D01*
X604517Y339669D01*
X632004Y312182D01*
D02*
G37*
G36*
X1269488Y269797D02*
X1269479Y269776D01*
X1242001Y242298D01*
X1214509Y269791D01*
X1242001Y297284D01*
X1269488Y269797D01*
D02*
G37*
G36*
X1184488Y269783D02*
X1184479Y269762D01*
X1157001Y242284D01*
X1129509Y269776D01*
X1157002Y297269D01*
X1184488Y269783D01*
D02*
G37*
G36*
X1099488Y269768D02*
X1099480Y269747D01*
X1072002Y242269D01*
X1044509Y269762D01*
X1072002Y297255D01*
X1099488Y269768D01*
D02*
G37*
G36*
X1014489Y269754D02*
X1014480Y269733D01*
X987002Y242255D01*
X959509Y269747D01*
X987002Y297240D01*
X1014489Y269754D01*
D02*
G37*
G36*
X929489Y269739D02*
X929480Y269718D01*
X902002Y242240D01*
X874510Y269733D01*
X902003Y297226D01*
X929489Y269739D01*
D02*
G37*
G36*
X844489Y269725D02*
X844481Y269704D01*
X817003Y242226D01*
X789510Y269718D01*
X817003Y297211D01*
X844489Y269725D01*
D02*
G37*
G36*
X759490Y269710D02*
X759481Y269689D01*
X732003Y242211D01*
X704510Y269704D01*
X732003Y297197D01*
X759490Y269710D01*
D02*
G37*
G36*
X674490Y269696D02*
X674481Y269675D01*
X647003Y242197D01*
X619511Y269689D01*
X647004Y297182D01*
X674490Y269696D01*
D02*
G37*
G36*
X589490Y269681D02*
X589482Y269660D01*
X562004Y242182D01*
X534511Y269675D01*
X562004Y297167D01*
X589490Y269681D01*
D02*
G37*
G36*
X504491Y269667D02*
X504482Y269646D01*
X477004Y242167D01*
X449511Y269660D01*
X477004Y297153D01*
X504491Y269667D01*
D02*
G37*
G36*
X419491Y269652D02*
X419482Y269631D01*
X392004Y242153D01*
X364512Y269646D01*
X392005Y297138D01*
X419491Y269652D01*
D02*
G37*
G36*
X334491Y269637D02*
X334483Y269616D01*
X307005Y242138D01*
X279512Y269631D01*
X307005Y297124D01*
X334491Y269637D01*
D02*
G37*
G36*
X249492Y269623D02*
X249483Y269602D01*
X222005Y242124D01*
X194512Y269616D01*
X222005Y297109D01*
X249492Y269623D01*
D02*
G37*
G36*
X164492Y269608D02*
X164483Y269587D01*
X137005Y242109D01*
X109513Y269602D01*
X137006Y297095D01*
X164492Y269608D01*
D02*
G37*
G36*
X79492Y269594D02*
X79484Y269573D01*
X52006Y242095D01*
X24513Y269587D01*
X52006Y297080D01*
X79492Y269594D01*
D02*
G37*
G36*
X1279121Y247759D02*
Y206838D01*
X1277948Y206352D01*
X1257001Y227299D01*
X1277948Y248245D01*
X1279121Y247759D01*
D02*
G37*
G36*
X37006Y227095D02*
X12321Y202410D01*
X11147Y202896D01*
X11148Y251294D01*
X12321Y251779D01*
X37006Y227095D01*
D02*
G37*
G36*
X1142001Y227284D02*
X1115392Y200675D01*
X1113596Y200675D01*
X1087002Y227269D01*
X1114495Y254762D01*
X1114515Y254771D01*
X1142001Y227284D01*
D02*
G37*
G36*
X972002Y227255D02*
X945393Y200646D01*
X943597Y200646D01*
X917002Y227240D01*
X944495Y254733D01*
X944515Y254741D01*
X972002Y227255D01*
D02*
G37*
G36*
X547004Y227182D02*
X520395Y200573D01*
X518599Y200573D01*
X492004Y227167D01*
X519497Y254660D01*
X519517Y254669D01*
X547004Y227182D01*
D02*
G37*
G36*
X462004Y227167D02*
X435395Y200558D01*
X433599Y200558D01*
X407004Y227153D01*
X434497Y254646D01*
X434517Y254654D01*
X462004Y227167D01*
D02*
G37*
G36*
X377004Y227153D02*
X350395Y200544D01*
X348599Y200544D01*
X322005Y227138D01*
X349497Y254631D01*
X349518Y254640D01*
X377004Y227153D01*
D02*
G37*
G36*
X292005Y227138D02*
X265396Y200529D01*
X263599Y200529D01*
X237005Y227124D01*
X264498Y254617D01*
X264518Y254625D01*
X292005Y227138D01*
D02*
G37*
G36*
X207005Y227124D02*
X180396Y200515D01*
X178600Y200515D01*
X152005Y227109D01*
X179498Y254602D01*
X179518Y254611D01*
X207005Y227124D01*
D02*
G37*
G36*
X122005Y227109D02*
X95396Y200500D01*
X93600Y200500D01*
X67006Y227095D01*
X94498Y254588D01*
X94519Y254596D01*
X122005Y227109D01*
D02*
G37*
G36*
X1227001Y227299D02*
X1199494Y199791D01*
X1199494Y199791D01*
X1172001Y227284D01*
X1199494Y254777D01*
X1199514Y254785D01*
X1227001Y227299D01*
D02*
G37*
G36*
X1057002Y227269D02*
X1029495Y199762D01*
X1029495Y199762D01*
X1002002Y227255D01*
X1029495Y254748D01*
X1029515Y254756D01*
X1057002Y227269D01*
D02*
G37*
G36*
X887002Y227240D02*
X859495Y199733D01*
X859495Y199733D01*
X832003Y227226D01*
X859495Y254718D01*
X859516Y254727D01*
X887002Y227240D01*
D02*
G37*
G36*
X802003Y227226D02*
X774496Y199719D01*
X774496Y199719D01*
X747003Y227211D01*
X774496Y254704D01*
X774516Y254712D01*
X802003Y227226D01*
D02*
G37*
G36*
X717003Y227211D02*
X689496Y199704D01*
X689496Y199704D01*
X662003Y227197D01*
X689496Y254689D01*
X689516Y254698D01*
X717003Y227211D01*
D02*
G37*
G36*
X632003Y227197D02*
X604496Y199690D01*
X604496Y199690D01*
X577004Y227182D01*
X604496Y254675D01*
X604517Y254683D01*
X632003Y227197D01*
D02*
G37*
G36*
X1269488Y184812D02*
X1269479Y184791D01*
X1242001Y157313D01*
X1214508Y184806D01*
X1242001Y212299D01*
X1269488Y184812D01*
D02*
G37*
G36*
X1184488Y184797D02*
X1184479Y184776D01*
X1157001Y157298D01*
X1129509Y184791D01*
X1157001Y212284D01*
X1184488Y184797D01*
D02*
G37*
G36*
X1099488Y184783D02*
X1099479Y184762D01*
X1072001Y157284D01*
X1044509Y184776D01*
X1072002Y212269D01*
X1099488Y184783D01*
D02*
G37*
G36*
X1014488Y184768D02*
X1014480Y184747D01*
X987002Y157269D01*
X959509Y184762D01*
X987002Y212255D01*
X1014488Y184768D01*
D02*
G37*
G36*
X929489Y184754D02*
X929480Y184733D01*
X902002Y157255D01*
X874510Y184747D01*
X902002Y212240D01*
X929489Y184754D01*
D02*
G37*
G36*
X844489Y184739D02*
X844480Y184718D01*
X817002Y157240D01*
X789510Y184733D01*
X817003Y212226D01*
X844489Y184739D01*
D02*
G37*
G36*
X759489Y184725D02*
X759481Y184704D01*
X732003Y157226D01*
X704510Y184718D01*
X732003Y212211D01*
X759489Y184725D01*
D02*
G37*
G36*
X674490Y184710D02*
X674481Y184689D01*
X647003Y157211D01*
X619510Y184704D01*
X647003Y212197D01*
X674490Y184710D01*
D02*
G37*
G36*
X589490Y184696D02*
X589481Y184675D01*
X562003Y157197D01*
X534511Y184689D01*
X562004Y212182D01*
X589490Y184696D01*
D02*
G37*
G36*
X504490Y184681D02*
X504482Y184660D01*
X477004Y157182D01*
X449511Y184675D01*
X477004Y212167D01*
X504490Y184681D01*
D02*
G37*
G36*
X419491Y184667D02*
X419482Y184646D01*
X392004Y157168D01*
X364511Y184660D01*
X392004Y212153D01*
X419491Y184667D01*
D02*
G37*
G36*
X334491Y184652D02*
X334482Y184631D01*
X307004Y157153D01*
X279512Y184646D01*
X307005Y212138D01*
X334491Y184652D01*
D02*
G37*
G36*
X249491Y184637D02*
X249483Y184616D01*
X222005Y157138D01*
X194512Y184631D01*
X222005Y212124D01*
X249491Y184637D01*
D02*
G37*
G36*
X164492Y184623D02*
X164483Y184602D01*
X137005Y157124D01*
X109512Y184616D01*
X137005Y212109D01*
X164492Y184623D01*
D02*
G37*
G36*
X79492Y184608D02*
X79483Y184587D01*
X52005Y157109D01*
X24513Y184602D01*
X52006Y212095D01*
X79492Y184608D01*
D02*
G37*
G36*
X1281691Y165344D02*
Y119282D01*
X1280518Y118796D01*
X1257001Y142313D01*
X1280518Y165830D01*
X1281691Y165344D01*
D02*
G37*
G36*
X37005Y142109D02*
X12320Y117424D01*
X11147Y117910D01*
X11147Y166308D01*
X12321Y166794D01*
X37005Y142109D01*
D02*
G37*
G36*
X1142001Y142298D02*
X1115392Y115689D01*
X1113596Y115689D01*
X1087001Y142284D01*
X1114494Y169777D01*
X1114514Y169785D01*
X1142001Y142298D01*
D02*
G37*
G36*
X802002Y142240D02*
X775393Y115631D01*
X773597Y115631D01*
X747003Y142226D01*
X774496Y169718D01*
X774516Y169727D01*
X802002Y142240D01*
D02*
G37*
G36*
X632003Y142211D02*
X605394Y115602D01*
X603598Y115602D01*
X577003Y142197D01*
X604496Y169689D01*
X604516Y169698D01*
X632003Y142211D01*
D02*
G37*
G36*
X462004Y142182D02*
X435395Y115573D01*
X433599Y115573D01*
X407004Y142168D01*
X434497Y169660D01*
X434517Y169669D01*
X462004Y142182D01*
D02*
G37*
G36*
X377004Y142168D02*
X350395Y115558D01*
X348599Y115558D01*
X322004Y142153D01*
X349497Y169646D01*
X349517Y169654D01*
X377004Y142168D01*
D02*
G37*
G36*
X292004Y142153D02*
X265395Y115544D01*
X263599Y115544D01*
X237005Y142138D01*
X264498Y169631D01*
X264518Y169640D01*
X292004Y142153D01*
D02*
G37*
G36*
X207005Y142138D02*
X180396Y115529D01*
X178599Y115529D01*
X152005Y142124D01*
X179498Y169617D01*
X179518Y169625D01*
X207005Y142138D01*
D02*
G37*
G36*
X122005Y142124D02*
X95396Y115515D01*
X93600Y115515D01*
X67005Y142109D01*
X94498Y169602D01*
X94518Y169611D01*
X122005Y142124D01*
D02*
G37*
G36*
X1227001Y142313D02*
X1199494Y114806D01*
X1199494Y114806D01*
X1172001Y142298D01*
X1199494Y169791D01*
X1199514Y169800D01*
X1227001Y142313D01*
D02*
G37*
G36*
X1057001Y142284D02*
X1029494Y114777D01*
X1029494Y114777D01*
X1002002Y142269D01*
X1029495Y169762D01*
X1029515Y169771D01*
X1057001Y142284D01*
D02*
G37*
G36*
X972002Y142269D02*
X944495Y114762D01*
X944495Y114762D01*
X917002Y142255D01*
X944495Y169748D01*
X944515Y169756D01*
X972002Y142269D01*
D02*
G37*
G36*
X887002Y142255D02*
X859495Y114748D01*
X859495Y114748D01*
X832002Y142240D01*
X859495Y169733D01*
X859515Y169741D01*
X887002Y142255D01*
D02*
G37*
G36*
X717003Y142226D02*
X689496Y114719D01*
X689496Y114719D01*
X662003Y142211D01*
X689496Y169704D01*
X689516Y169712D01*
X717003Y142226D01*
D02*
G37*
G36*
X547003Y142197D02*
X519496Y114690D01*
X519496Y114690D01*
X492004Y142182D01*
X518613Y168791D01*
X520403Y168797D01*
X547003Y142197D01*
D02*
G37*
G36*
X1269487Y99827D02*
X1269479Y99806D01*
X1242001Y72327D01*
X1214508Y99820D01*
X1242001Y127313D01*
X1269487Y99827D01*
D02*
G37*
G36*
X1184488Y99812D02*
X1184479Y99791D01*
X1157001Y72313D01*
X1129508Y99805D01*
X1157001Y127298D01*
X1184488Y99812D01*
D02*
G37*
G36*
X1099488Y99797D02*
X1099479Y99776D01*
X1072001Y72298D01*
X1044509Y99791D01*
X1072001Y127284D01*
X1099488Y99797D01*
D02*
G37*
G36*
X1014488Y99783D02*
X1014479Y99762D01*
X987001Y72284D01*
X959509Y99776D01*
X987002Y127269D01*
X1014488Y99783D01*
D02*
G37*
G36*
X929489Y99768D02*
X929480Y99747D01*
X902002Y72269D01*
X874509Y99762D01*
X902002Y127255D01*
X929489Y99768D01*
D02*
G37*
G36*
X844489Y99754D02*
X844480Y99733D01*
X817002Y72255D01*
X789510Y99747D01*
X817002Y127240D01*
X844489Y99754D01*
D02*
G37*
G36*
X759489Y99739D02*
X759480Y99718D01*
X732002Y72240D01*
X704510Y99733D01*
X732003Y127226D01*
X759489Y99739D01*
D02*
G37*
G36*
X589490Y99710D02*
X589481Y99689D01*
X562003Y72211D01*
X534510Y99704D01*
X562003Y127197D01*
X589490Y99710D01*
D02*
G37*
G36*
X504490Y99696D02*
X504481Y99675D01*
X477003Y72197D01*
X449511Y99689D01*
X477004Y127182D01*
X504490Y99696D01*
D02*
G37*
G36*
X419490Y99681D02*
X419482Y99660D01*
X392004Y72182D01*
X364511Y99675D01*
X392004Y127168D01*
X419490Y99681D01*
D02*
G37*
G36*
X334491Y99667D02*
X334482Y99646D01*
X307004Y72167D01*
X279511Y99660D01*
X307004Y127153D01*
X334491Y99667D01*
D02*
G37*
G36*
X249491Y99652D02*
X249482Y99631D01*
X222004Y72153D01*
X194512Y99645D01*
X222005Y127138D01*
X249491Y99652D01*
D02*
G37*
G36*
X164491Y99637D02*
X164483Y99616D01*
X137005Y72138D01*
X109512Y99631D01*
X137005Y127124D01*
X164491Y99637D01*
D02*
G37*
G36*
X79492Y99623D02*
X79483Y99602D01*
X52005Y72124D01*
X24512Y99616D01*
X52005Y127109D01*
X79492Y99623D01*
D02*
G37*
G36*
X37005Y57124D02*
X15790Y35909D01*
X14542Y36146D01*
X13577Y38372D01*
X12104Y43495D01*
X11302Y48764D01*
X11157Y51427D01*
X11147Y51427D01*
X11147Y81322D01*
X12320Y81808D01*
X37005Y57124D01*
D02*
G37*
G36*
X1284496Y83027D02*
Y43680D01*
X1284259Y40678D01*
X1282896Y34999D01*
X1282289Y33533D01*
X1281043Y33285D01*
X1257001Y57327D01*
X1283226Y83553D01*
X1284496Y83027D01*
D02*
G37*
G36*
X887002Y57269D02*
X860393Y30660D01*
X858597Y30660D01*
X832002Y57255D01*
X859495Y84748D01*
X859515Y84756D01*
X887002Y57269D01*
D02*
G37*
G36*
X632003Y57226D02*
X605394Y30617D01*
X603598Y30617D01*
X577003Y57211D01*
X604496Y84704D01*
X604516Y84712D01*
X632003Y57226D01*
D02*
G37*
G36*
X547003Y57211D02*
X520394Y30602D01*
X518598Y30602D01*
X492003Y57197D01*
X519496Y84689D01*
X519516Y84698D01*
X547003Y57211D01*
D02*
G37*
G36*
X377004Y57182D02*
X350395Y30573D01*
X348599Y30573D01*
X322004Y57167D01*
X349497Y84660D01*
X349517Y84669D01*
X377004Y57182D01*
D02*
G37*
G36*
X292004Y57167D02*
X265395Y30558D01*
X263599Y30558D01*
X237004Y57153D01*
X264497Y84646D01*
X264517Y84654D01*
X292004Y57167D01*
D02*
G37*
G36*
X207004Y57153D02*
X180395Y30544D01*
X178599Y30544D01*
X152005Y57138D01*
X179498Y84631D01*
X179518Y84640D01*
X207004Y57153D01*
D02*
G37*
G36*
X122005Y57138D02*
X95396Y30529D01*
X93600Y30529D01*
X67005Y57124D01*
X94498Y84617D01*
X94518Y84625D01*
X122005Y57138D01*
D02*
G37*
G36*
X1227001Y57327D02*
X1199493Y29820D01*
X1199493Y29820D01*
X1172001Y57313D01*
X1199494Y84806D01*
X1199514Y84814D01*
X1227001Y57327D01*
D02*
G37*
G36*
X1142001Y57313D02*
X1114494Y29806D01*
X1114494Y29806D01*
X1087001Y57298D01*
X1114494Y84791D01*
X1114514Y84800D01*
X1142001Y57313D01*
D02*
G37*
G36*
X1057001Y57298D02*
X1029494Y29791D01*
X1029494Y29791D01*
X1002001Y57284D01*
X1029494Y84777D01*
X1029514Y84785D01*
X1057001Y57298D01*
D02*
G37*
G36*
X972001Y57284D02*
X944494Y29777D01*
X944494Y29777D01*
X917002Y57269D01*
X944495Y84762D01*
X944515Y84770D01*
X972001Y57284D01*
D02*
G37*
G36*
X802002Y57255D02*
X774495Y29748D01*
X774495Y29748D01*
X747002Y57240D01*
X774495Y84733D01*
X774515Y84741D01*
X802002Y57255D01*
D02*
G37*
G36*
X717002Y57240D02*
X689495Y29733D01*
X689495Y29733D01*
X662003Y57226D01*
X689496Y84719D01*
X689516Y84727D01*
X717002Y57240D01*
D02*
G37*
G36*
X462003Y57197D02*
X434496Y29690D01*
X434496Y29690D01*
X407004Y57182D01*
X433613Y83791D01*
X435403Y83797D01*
X462003Y57197D01*
D02*
G37*
G36*
X1267759Y16569D02*
X1267610Y15308D01*
X1266458Y14602D01*
X1216071D01*
X1215545Y15872D01*
X1242001Y42328D01*
X1267759Y16569D01*
D02*
G37*
G36*
X1183442Y15872D02*
X1182916Y14602D01*
X1131086D01*
X1130560Y15872D01*
X1157001Y42313D01*
X1183442Y15872D01*
D02*
G37*
G36*
X1098428D02*
X1097902Y14602D01*
X1046100D01*
X1045574Y15872D01*
X1072001Y42298D01*
X1098428Y15872D01*
D02*
G37*
G36*
X1013413D02*
X1012887Y14602D01*
X961115D01*
X960589Y15872D01*
X987001Y42284D01*
X1013413Y15872D01*
D02*
G37*
G36*
X928399D02*
X927873Y14602D01*
X876130D01*
X875604Y15872D01*
X902002Y42269D01*
X928399Y15872D01*
D02*
G37*
G36*
X843385D02*
X842859Y14602D01*
X791145D01*
X790619Y15872D01*
X817002Y42255D01*
X843385Y15872D01*
D02*
G37*
G36*
X758371D02*
X757845Y14602D01*
X706160D01*
X705634Y15872D01*
X732002Y42240D01*
X758371Y15872D01*
D02*
G37*
G36*
X673357D02*
X672831Y14602D01*
X621175D01*
X620649Y15872D01*
X647003Y42226D01*
X673357Y15872D01*
D02*
G37*
G36*
X588342D02*
X587816Y14602D01*
X536190D01*
X535664Y15872D01*
X562003Y42211D01*
X588342Y15872D01*
D02*
G37*
G36*
X503328D02*
X502802Y14602D01*
X451205D01*
X450679Y15872D01*
X477003Y42197D01*
X503328Y15872D01*
D02*
G37*
G36*
X418314D02*
X417788Y14602D01*
X366220D01*
X365694Y15872D01*
X392004Y42182D01*
X418314Y15872D01*
D02*
G37*
G36*
X333300D02*
X332774Y14602D01*
X281234D01*
X280708Y15872D01*
X307004Y42168D01*
X333300Y15872D01*
D02*
G37*
G36*
X248285D02*
X247759Y14602D01*
X196249D01*
X195723Y15872D01*
X222004Y42153D01*
X248285Y15872D01*
D02*
G37*
G36*
X163271D02*
X162745Y14602D01*
X111264D01*
X110738Y15872D01*
X137005Y42138D01*
X163271Y15872D01*
D02*
G37*
G36*
X78257D02*
X77731Y14602D01*
X35784D01*
X34434Y15152D01*
X29799Y17784D01*
X29355Y18118D01*
X29266Y19385D01*
X52005Y42124D01*
X78257Y15872D01*
D02*
G37*
D10*
X652598Y788500D02*
D03*
X660981D02*
D03*
X634631D02*
D03*
X643598D02*
D03*
X1275701Y777348D02*
D03*
X1286942Y758755D02*
D03*
X1281575Y770397D02*
D03*
X12142Y24180D02*
D03*
X18674Y16389D02*
D03*
X26621Y10641D02*
D03*
X37119Y6588D02*
D03*
X1259520Y7302D02*
D03*
X1269420Y11852D02*
D03*
X1277572Y18632D02*
D03*
X1283468Y26820D02*
D03*
X1287437Y37223D02*
D03*
X1153968Y788456D02*
D03*
X1145000Y788500D02*
D03*
X1199957D02*
D03*
X1288466Y99614D02*
D03*
Y184676D02*
D03*
Y269736D02*
D03*
Y354526D02*
D03*
Y439587D02*
D03*
Y524649D02*
D03*
Y609618D02*
D03*
Y694680D02*
D03*
X1114947Y788500D02*
D03*
X1030018D02*
D03*
X859835D02*
D03*
X774907D02*
D03*
X689490D02*
D03*
X605050D02*
D03*
X519714D02*
D03*
X434948D02*
D03*
X349938D02*
D03*
X264358D02*
D03*
X179267D02*
D03*
X95071D02*
D03*
X5534Y694425D02*
D03*
Y609380D02*
D03*
Y524561D02*
D03*
Y439325D02*
D03*
Y354611D02*
D03*
Y269408D02*
D03*
Y184345D02*
D03*
Y99580D02*
D03*
X94583Y5500D02*
D03*
X179650D02*
D03*
X264421D02*
D03*
X349685D02*
D03*
X434506D02*
D03*
X519622D02*
D03*
X604541D02*
D03*
X689510D02*
D03*
X774479D02*
D03*
X859735D02*
D03*
X944860D02*
D03*
X1114929D02*
D03*
X1199500Y5500D02*
D03*
X1029816Y5409D02*
D03*
X1171350Y788497D02*
D03*
X1162968Y788510D02*
D03*
X7297Y34535D02*
D03*
X1267363Y783436D02*
D03*
X1257113Y787382D02*
D03*
X6630Y757011D02*
D03*
X10577Y767262D02*
D03*
X16527Y775491D02*
D03*
X24232Y781950D02*
D03*
X34609Y786738D02*
D03*
D11*
X1288466Y747709D02*
G03*
X1247675Y788500I-40791J0D01*
G01*
X5534Y46500D02*
G03*
X46534Y5500I41000J0D01*
G01*
X5500Y46500D02*
G03*
X46500Y5500I41000J0D01*
G01*
Y788500D02*
G03*
X5500Y747500I0J-41000D01*
G01*
X1247500Y5500D02*
G03*
X1288466Y44835I0J41000D01*
G01*
X5500Y46400D02*
Y747500D01*
X689490Y788500D02*
X774907D01*
X5534Y46400D02*
Y747500D01*
X1288466Y694680D02*
Y747709D01*
X46534Y5500D02*
X859735D01*
X605050Y788500D02*
X689490D01*
X859835D02*
X1030018D01*
X1114947D01*
X1199957D02*
X1247675D01*
X1114947D02*
X1145000D01*
X1153923D01*
X46500D02*
X95071D01*
X264358D02*
X349938D01*
X179267D02*
X264358D01*
X95071D02*
X179267D01*
X774907D02*
X859835D01*
X434948D02*
X519714D01*
X605050D01*
X349938D02*
X434948D01*
X1153923D02*
X1153968Y788456D01*
X1288466Y609618D02*
Y694680D01*
Y524649D02*
Y609618D01*
Y439587D02*
Y524649D01*
Y269736D02*
Y354526D01*
Y184676D02*
Y269736D01*
Y99614D02*
Y184676D01*
X1171353Y788500D02*
X1199957D01*
X1288466Y44835D02*
Y99614D01*
Y354526D02*
Y439587D01*
X1171350Y788497D02*
X1171353Y788500D01*
X1200000Y5500D02*
X1200000Y5500D01*
X1247500D01*
X1199000D02*
X1199000Y5500D01*
X859735Y5500D02*
X1199000D01*
X1199000Y5500D02*
X1200000D01*
X1162968Y788500D02*
X1162970Y788497D01*
X1171350D01*
X1154012Y788500D02*
X1162968D01*
X1153968Y788456D02*
X1154012Y788500D01*
D12*
X647000Y57861D02*
Y74920D01*
X639000Y737000D02*
X655000D01*
X94500Y57000D02*
X132000Y19500D01*
X137000Y14500D01*
X623780Y711220D02*
X641780D01*
X666070Y686930D01*
X642844Y713790D02*
X667134Y689500D01*
X630199Y724070D02*
X647103D01*
X671393Y699780D01*
X625909Y716360D02*
X643909D01*
X629070Y728834D02*
X631264Y726640D01*
X628070Y718930D02*
X644974D01*
X648167Y726640D02*
X672457Y702350D01*
X644974Y718930D02*
X669264Y694640D01*
X631264Y726640D02*
X648167D01*
X646038Y721500D02*
X670328Y697210D01*
X629135Y721500D02*
X646038D01*
X626500Y727769D02*
X630199Y724070D01*
X643909Y716360D02*
X668199Y692070D01*
X623000Y727635D02*
X629135Y721500D01*
X617000Y730000D02*
X628070Y718930D01*
X624845Y713790D02*
X642844D01*
X629000Y740000D02*
Y745661D01*
X626500Y737500D02*
X629000Y740000D01*
X629070Y728834D02*
Y736070D01*
X626500Y727769D02*
Y737500D01*
X629070Y736070D02*
X634150Y741150D01*
Y744811D01*
X1029500Y57000D02*
X1072000Y99500D01*
X689500Y142000D02*
X732000Y184500D01*
X647000D02*
X689500Y142000D01*
X604500D02*
X647000Y184500D01*
X349500Y312000D02*
X392000Y269500D01*
X94500Y227000D02*
X137000Y184500D01*
X52000D02*
X94500Y227000D01*
X52000Y524500D02*
X94500Y567000D01*
X52000Y609500D02*
X94500Y652000D01*
Y312000D02*
X137000Y354500D01*
X52000Y269500D02*
X94500Y312000D01*
X52000Y354500D02*
X94500Y312000D01*
X137000Y269500D01*
X743500Y696000D02*
X750850Y688650D01*
X797823D01*
X1215259Y732250D02*
X1247086Y700423D01*
X1204586Y742923D02*
X1215259Y732250D01*
X1199505Y652005D02*
X1236218Y688718D01*
X1199500Y652000D02*
X1199505Y652005D01*
X1199423Y716414D02*
X1241923Y758914D01*
X1199505Y652005D02*
X1205586Y645923D01*
X1163086Y688423D02*
X1199505Y652005D01*
X1111577Y648586D02*
X1152995Y690005D01*
X1114500Y482000D02*
X1157000Y524500D01*
X1114745Y651755D02*
X1157000Y609500D01*
X1114500Y652000D02*
X1114745Y651755D01*
X1073260Y759250D02*
X1115586Y716924D01*
X1073086Y759423D02*
X1073260Y759250D01*
X1073423Y759414D01*
X1030923Y716914D02*
X1073260Y759250D01*
X1021577Y643086D02*
X1064077Y685586D01*
X1029995Y651505D02*
X1072000Y609500D01*
X1029500Y652000D02*
X1029995Y651505D01*
X1029741Y651250D02*
X1035914Y645077D01*
X1029245Y651745D02*
X1029741Y651250D01*
X993414Y687577D02*
X1029245Y651745D01*
X1029500Y652000D01*
X987000Y609500D02*
X1029245Y651745D01*
X1072000Y609500D02*
X1114500Y652000D01*
X1029500Y567000D02*
X1072000Y609500D01*
X1233227Y533273D02*
X1242000Y524500D01*
X1199500Y567000D02*
X1233227Y533273D01*
X1199500Y482000D02*
X1234477Y447023D01*
X1223424Y523470D02*
X1233227Y533273D01*
X1226924Y439470D02*
X1234477Y447023D01*
X1029500Y482000D02*
X1072000Y439500D01*
X987000Y524500D02*
Y524500D01*
X944500Y567000D02*
X987000Y524500D01*
Y524500D02*
X1029500Y482000D01*
X987000Y524500D02*
X987000D01*
X944500Y482000D02*
X987000Y524500D01*
X1029500Y482000D02*
Y482000D01*
X987000Y524500D02*
X1029500Y482000D01*
X1157000Y439500D02*
X1199500Y397000D01*
X1114500Y482000D02*
X1157000Y439500D01*
X987626Y355126D02*
X1029500Y397000D01*
X860500Y717490D02*
X902423Y759414D01*
X859923Y716914D02*
X860500Y717490D01*
X860914Y717077D01*
X818414Y759577D02*
X860500Y717490D01*
X861991Y645000D02*
X862414Y644577D01*
X857245Y649745D02*
X861991Y645000D01*
X819914Y687077D02*
X857245Y649745D01*
X779255Y647245D02*
X819423Y687414D01*
X776923Y644914D02*
X779255Y647245D01*
X773250Y718760D02*
X813577Y759086D01*
X771077Y716586D02*
X773250Y718760D01*
X775586Y716423D01*
X764005Y728005D02*
X773250Y718760D01*
X733086Y758923D02*
X764005Y728005D01*
X694745Y646755D02*
X736077Y688086D01*
X694240Y646250D02*
X694745Y646755D01*
X693577Y645586D02*
X694240Y646250D01*
X947005Y649495D02*
X983423Y685914D01*
X940923Y643414D02*
X947005Y649495D01*
X944510Y647000D02*
X950586Y640923D01*
X942005Y649505D02*
X944510Y647000D01*
X908086Y683423D02*
X942005Y649505D01*
X861991Y645000D02*
X901077Y684086D01*
X858577Y641586D02*
X861991Y645000D01*
X902000Y609500D02*
X944500Y652000D01*
X864245Y647255D02*
X902000Y609500D01*
X859500Y652000D02*
X864245Y647255D01*
X778760Y646750D02*
X781086Y644424D01*
X774005Y651505D02*
X778760Y646750D01*
X738586Y686923D02*
X774005Y651505D01*
X732000Y609500D02*
X774500Y652000D01*
X817000Y609500D02*
X859500Y652000D01*
X779255Y647245D02*
X817000Y609500D01*
X774500Y652000D02*
X779255Y647245D01*
X694745Y646755D02*
X732000Y609500D01*
X689500Y652000D02*
X694745Y646755D01*
X694240Y646250D02*
X694414Y646077D01*
X688995Y651495D02*
X694240Y646250D01*
X651914Y688577D02*
X688995Y651495D01*
X947005Y649495D02*
X987000Y609500D01*
X944500Y652000D02*
X947005Y649495D01*
X1235727Y190773D02*
X1242000Y184500D01*
X1199500Y227000D02*
X1235727Y190773D01*
X1114500Y227000D02*
X1156025Y185475D01*
X987000Y269500D02*
X987626Y270126D01*
X987000Y354500D02*
X987626Y355126D01*
X987486Y354013D02*
X1029500Y312000D01*
X987000Y354500D02*
X987486Y354013D01*
X987000Y269500D02*
X987486Y269014D01*
X987000Y184500D02*
X987626Y185126D01*
X1199500Y142000D02*
X1238227Y103273D01*
X1198525Y142975D02*
X1199500Y142000D01*
X1232924Y97970D02*
X1238227Y103273D01*
X1157000Y184500D02*
X1198525Y142975D01*
X1156025Y185475D02*
X1157000Y184500D01*
X1114500Y142000D02*
X1156025Y100475D01*
X1113525Y142975D02*
X1114500Y142000D01*
X1072000Y184500D02*
X1113525Y142975D01*
X1072000Y99500D02*
X1114500Y57000D01*
X1029500Y142000D02*
X1072000Y99500D01*
X607509Y655000D02*
X644923Y692414D01*
X602423Y649914D02*
X607509Y655000D01*
X688995Y651495D02*
X689500Y652000D01*
X647000Y609500D02*
X688995Y651495D01*
X604505Y651995D02*
X647000Y609500D01*
X604500Y652000D02*
X604505Y651995D01*
X607509Y655000D02*
X608086Y654424D01*
X566510Y696000D02*
X607509Y655000D01*
X565586Y696923D02*
X566510Y696000D01*
X598923Y728414D01*
X556423Y685914D02*
X566510Y696000D01*
X477077Y606586D02*
X562076Y691586D01*
X562000Y609500D02*
X604245Y651745D01*
X561745Y609245D02*
X562000Y609500D01*
X434500Y652000D02*
X477000Y609500D01*
X434500Y652000D02*
X434500D01*
X392000Y694500D02*
X434500Y652000D01*
X349500D02*
X392000Y609500D01*
X561745Y609245D02*
X562414Y608577D01*
X520741Y650250D02*
X561745Y609245D01*
X519914Y651077D02*
X520741Y650250D01*
X519500Y567000D02*
X561745Y609245D01*
X478495Y608005D02*
X519500Y567000D01*
X477000Y609500D02*
X478495Y608005D01*
X264500Y652000D02*
X264500D01*
X222000Y694500D02*
X264500Y652000D01*
X349500D02*
X349500D01*
X307000Y694500D02*
X349500Y652000D01*
X179500D02*
X222000Y609500D01*
X179500Y652000D02*
X179500D01*
X264500D02*
X307000Y609500D01*
X137000Y694500D02*
X137000D01*
X94500Y737000D02*
X137000Y694500D01*
X137000D02*
X179500Y652000D01*
Y567000D02*
X222000Y609500D01*
X137000Y524500D02*
X179500Y567000D01*
X647000Y524500D02*
X689500Y567000D01*
X604500Y482000D02*
X647000Y524500D01*
X562000Y439500D02*
X604500Y482000D01*
X477000Y354500D02*
X519500Y397000D01*
X392000Y269500D02*
X434500Y312000D01*
X307000Y184500D02*
X349500Y227000D01*
X264500Y142000D02*
X307000Y184500D01*
Y99500D02*
X349500Y57000D01*
X137000Y354500D02*
X179500Y312000D01*
X137000Y184500D02*
X179500Y227000D01*
X1199500Y567000D02*
X1242000Y609500D01*
X944500Y57000D02*
X987000Y99500D01*
X732000D02*
X774500Y57000D01*
X264500D02*
X307000Y99500D01*
X477414Y693577D02*
X519914Y651077D01*
X1114500Y567000D02*
X1157000Y609500D01*
X1072000D02*
X1114500Y567000D01*
X1072000Y524500D02*
X1114500Y482000D01*
X1072000Y524500D02*
X1114500Y567000D01*
Y482000D02*
X1157000Y524500D01*
X1114500Y567000D02*
X1157000Y524500D01*
X987000D02*
X1029500Y567000D01*
X1072000Y524500D01*
X1029500Y482000D02*
X1072000Y524500D01*
X1072000Y354500D02*
X1114500Y397000D01*
X1029500D02*
X1072000Y354500D01*
Y439500D02*
X1114500Y397000D01*
X1029500D02*
X1072000Y439500D01*
X1199500Y482000D02*
X1242000Y524500D01*
X1157000D02*
X1199500Y482000D01*
X1157000Y524500D02*
X1199500Y567000D01*
Y397000D02*
X1242000Y439500D01*
X1157000D02*
X1199500Y482000D01*
X1157000Y354500D02*
X1199500Y397000D01*
X1114500D02*
X1157000Y354500D01*
X1114500Y397000D02*
X1157000Y439500D01*
X1072000Y354500D02*
X1114500Y312000D01*
X1072000Y269500D02*
X1114500Y312000D01*
X1029500D02*
X1072000Y354500D01*
X1029500Y312000D02*
X1072000Y269500D01*
X1157000Y354500D02*
X1199500Y312000D01*
X1157000Y269500D02*
X1199500Y312000D01*
X1114500D02*
X1157000Y354500D01*
X1114500Y312000D02*
X1157000Y269500D01*
Y99500D02*
X1199500Y142000D01*
X1157000Y99500D02*
X1199500Y57000D01*
X1242000Y99500D01*
X1157000Y184500D02*
X1199500Y227000D01*
Y142000D02*
X1242000Y184500D01*
X1113525Y142975D02*
X1156025Y185475D01*
Y100475D02*
X1198525Y142975D01*
X1029500Y142000D02*
X1072000Y184500D01*
Y99500D02*
X1114500Y142000D01*
Y227000D02*
X1157000Y269500D01*
X1199500Y227000D01*
X1029500D02*
X1072000Y184500D01*
X1029500Y227000D02*
X1072000Y269500D01*
Y184500D02*
X1114500Y227000D01*
X1072000Y269500D02*
X1114500Y227000D01*
X817000Y99500D02*
X859500Y57000D01*
X902000Y99500D01*
X859500Y142000D02*
X902000Y99500D01*
X774500Y142000D02*
X817000Y184500D01*
X732000D02*
X774500Y142000D01*
Y227000D02*
X817000Y184500D01*
X859500Y142000D02*
X902000Y184500D01*
X817000D02*
X859500Y142000D01*
X817000Y184500D02*
X859500Y227000D01*
X944500Y142000D02*
X987000Y184500D01*
X902000D02*
X944500Y142000D01*
Y227000D02*
X987000Y184500D01*
X902000D02*
X944500Y227000D01*
X987000Y269500D01*
X859500Y227000D02*
X902000Y269500D01*
X944500Y227000D01*
X859500D02*
X902000Y184500D01*
X944500Y312000D02*
X987000Y269500D01*
X944500Y312000D02*
X987000Y354500D01*
X859500Y312000D02*
X902000Y269500D01*
X859500Y312000D02*
X902000Y354500D01*
Y269500D02*
X944500Y312000D01*
X902000Y354500D02*
X944500Y312000D01*
X774500D02*
X817000Y269500D01*
X774500Y312000D02*
X817000Y354500D01*
Y269500D02*
X859500Y312000D01*
X817000Y354500D02*
X859500Y312000D01*
X774500Y227000D02*
X817000Y269500D01*
X859500Y227000D01*
X689500D02*
X732000Y184500D01*
X689500Y227000D02*
X732000Y269500D01*
Y184500D02*
X774500Y227000D01*
X732000Y269500D02*
X774500Y227000D01*
X519500Y142000D02*
X562000Y184500D01*
X604500Y142000D01*
X519500D02*
X562000Y99500D01*
X604500Y142000D01*
X519500Y227000D02*
X562000Y269500D01*
X604500Y227000D01*
X519500D02*
X562000Y184500D01*
X604500Y227000D01*
X647000Y269500D01*
X689500Y227000D01*
X604500D02*
X647000Y184500D01*
X689500Y227000D01*
X604500Y312000D02*
X647000Y354500D01*
X689500Y312000D01*
X604500D02*
X647000Y269500D01*
X689500Y312000D01*
X732000Y354500D01*
X774500Y312000D01*
X689500D02*
X732000Y269500D01*
X774500Y312000D01*
X689500Y397000D02*
X732000Y439500D01*
X774500Y397000D01*
X689500D02*
X732000Y354500D01*
X774500Y397000D01*
X817000Y439500D01*
X859500Y397000D01*
X774500D02*
X817000Y354500D01*
X859500Y397000D01*
X902000Y439500D01*
X944500Y397000D01*
X859500D02*
X902000Y354500D01*
X944500Y397000D01*
X987000Y439500D01*
X1029500Y397000D01*
X944500D02*
X987000Y354500D01*
X944500Y482000D02*
X987000Y439500D01*
X1029500Y482000D01*
X859500D02*
X902000Y524500D01*
X944500Y482000D01*
X859500D02*
X902000Y439500D01*
X944500Y482000D01*
X774500D02*
X817000Y524500D01*
X859500Y482000D01*
X774500D02*
X817000Y439500D01*
X859500Y482000D01*
X689500D02*
X732000Y524500D01*
X774500Y482000D01*
X689500D02*
X732000Y439500D01*
X774500Y482000D01*
X647000Y439500D02*
X689500Y482000D01*
X604500D02*
X647000Y439500D01*
Y524500D02*
X689500Y482000D01*
X604500Y397000D02*
X647000Y354500D01*
X604500Y397000D02*
X647000Y439500D01*
Y354500D02*
X689500Y397000D01*
X647000Y439500D02*
X689500Y397000D01*
X562000Y354500D02*
X604500Y397000D01*
X519500D02*
X562000Y354500D01*
Y439500D02*
X604500Y397000D01*
X519500D02*
X562000Y439500D01*
X519500Y312000D02*
X562000Y269500D01*
X519500Y312000D02*
X562000Y354500D01*
Y269500D02*
X604500Y312000D01*
X562000Y354500D02*
X604500Y312000D01*
X477000Y269500D02*
X519500Y312000D01*
X434500D02*
X477000Y269500D01*
Y354500D02*
X519500Y312000D01*
X434500D02*
X477000Y354500D01*
Y184500D02*
X519500Y227000D01*
X434500D02*
X477000Y184500D01*
Y269500D02*
X519500Y227000D01*
X434500D02*
X477000Y269500D01*
X434500Y142000D02*
X477000Y99500D01*
X434500Y142000D02*
X477000Y184500D01*
Y99500D02*
X519500Y142000D01*
X477000Y184500D02*
X519500Y142000D01*
X392000Y184500D02*
X434500Y227000D01*
X349500D02*
X392000Y184500D01*
Y269500D02*
X434500Y227000D01*
X349500D02*
X392000Y269500D01*
X307000Y184500D02*
X349500Y142000D01*
X307000Y99500D02*
X349500Y142000D01*
X264500D02*
X307000Y99500D01*
X392000D02*
X434500Y142000D01*
X349500D02*
X392000Y99500D01*
Y184500D02*
X434500Y142000D01*
X349500D02*
X392000Y184500D01*
X94500Y57000D02*
X137000Y99500D01*
X179500Y57000D01*
X137000Y14500D02*
X179500Y57000D01*
X94500Y142000D02*
X137000Y99500D01*
X94500Y142000D02*
X137000Y184500D01*
Y99500D02*
X179500Y142000D01*
X137000Y184500D02*
X179500Y142000D01*
X222000Y184500D01*
X264500Y142000D01*
X179500D02*
X222000Y99500D01*
X264500Y142000D01*
X179500Y227000D02*
X222000Y269500D01*
X264500Y227000D01*
X179500D02*
X222000Y184500D01*
X264500Y227000D01*
X179500Y312000D02*
X222000Y354500D01*
X264500Y312000D01*
X179500D02*
X222000Y269500D01*
X264500Y312000D01*
Y227000D02*
X307000Y269500D01*
X349500Y227000D01*
X264500D02*
X307000Y184500D01*
X349500Y227000D01*
Y397000D02*
X392000Y354500D01*
X349500Y312000D02*
X392000Y354500D01*
X264500Y312000D02*
X307000Y354500D01*
X349500Y312000D01*
X264500D02*
X307000Y269500D01*
X349500Y312000D01*
Y482000D02*
X392000Y439500D01*
X307000D02*
X349500Y397000D01*
X392000Y439500D01*
Y354500D02*
X434500Y397000D01*
X477000Y354500D01*
X392000D02*
X434500Y312000D01*
X477000Y354500D01*
Y439500D02*
X519500Y482000D01*
X562000Y439500D01*
X477000D02*
X519500Y397000D01*
X562000Y439500D01*
X392000D02*
X434500Y482000D01*
X477000Y439500D01*
X392000D02*
X434500Y397000D01*
X477000Y439500D01*
X562000Y524500D02*
X604500Y482000D01*
X562000Y524500D02*
X604500Y567000D01*
Y482000D02*
X647000Y524500D01*
X604500Y567000D02*
X647000Y524500D01*
X477000D02*
X519500Y482000D01*
X477000Y524500D02*
X519500Y567000D01*
Y482000D02*
X562000Y524500D01*
X519500Y567000D02*
X562000Y524500D01*
X392000D02*
X434500Y482000D01*
X392000Y524500D02*
X434500Y567000D01*
Y482000D02*
X477000Y524500D01*
X434500Y567000D02*
X477000Y524500D01*
X307000D02*
X349500Y482000D01*
X307000Y524500D02*
X349500Y567000D01*
Y482000D02*
X392000Y524500D01*
X349500Y567000D02*
X392000Y524500D01*
X307000Y439500D02*
X349500Y482000D01*
X264500D02*
X307000Y439500D01*
X264500Y397000D02*
X307000Y354500D01*
X264500Y397000D02*
X307000Y439500D01*
Y354500D02*
X349500Y397000D01*
X222000Y439500D02*
X264500Y482000D01*
X179500D02*
X222000Y439500D01*
X179500Y482000D02*
X222000Y524500D01*
X179500Y397000D02*
X222000Y354500D01*
X179500Y397000D02*
X222000Y439500D01*
Y354500D02*
X264500Y397000D01*
X222000Y439500D02*
X264500Y397000D01*
X94500D02*
X137000Y439500D01*
X179500Y397000D01*
X94500D02*
X137000Y354500D01*
X179500Y397000D01*
X94500Y482000D02*
X137000Y439500D01*
X94500Y482000D02*
X137000Y524500D01*
Y439500D02*
X179500Y482000D01*
X137000Y524500D02*
X179500Y482000D01*
Y567000D02*
X222000Y524500D01*
X264500Y567000D01*
X307000Y524500D01*
X222000D02*
X264500Y482000D01*
X307000Y524500D01*
X179500Y652000D02*
X222000Y694500D01*
X137000Y609500D02*
X179500Y652000D01*
X264500D02*
X307000Y694500D01*
X222000Y609500D02*
X264500Y652000D01*
X349500D02*
X392000Y694500D01*
X307000Y609500D02*
X349500Y652000D01*
X434500D02*
X477000Y694500D01*
X392000Y609500D02*
X434500Y652000D01*
X523586Y738923D02*
X566086Y696423D01*
X1157914Y760077D02*
X1200414Y717577D01*
X1115577Y717086D02*
X1158077Y759586D01*
X988414Y759577D02*
X1030914Y717077D01*
X945577Y717086D02*
X988077Y759586D01*
X903086Y759423D02*
X945586Y716924D01*
X671000Y739635D02*
Y745661D01*
X672635Y738000D02*
X691500D01*
X671000Y739635D02*
X672635Y738000D01*
X695000Y740331D02*
Y745661D01*
X695761Y739570D02*
X703656D01*
X691500Y738000D02*
X692500Y737000D01*
X703656Y739570D02*
X706650Y742564D01*
X695000Y740331D02*
X695761Y739570D01*
X692500Y737000D02*
X723500D01*
X617000Y730000D02*
Y745661D01*
X617000Y745661D02*
X617000Y745661D01*
X623000Y727635D02*
Y745661D01*
X599000Y736000D02*
X623780Y711220D01*
X599000Y736000D02*
Y745661D01*
X605000Y733634D02*
X624845Y713790D01*
X605000Y733634D02*
Y745661D01*
X611000Y731269D02*
Y745661D01*
Y731269D02*
X625909Y716360D01*
X671393Y699780D02*
X707242D01*
X672457Y702350D02*
X706177D01*
X666070Y686930D02*
X712699D01*
X668199Y692070D02*
X710435D01*
X667134Y689500D02*
X711500D01*
X669264Y694640D02*
X709371D01*
X670328Y697210D02*
X708306D01*
X711500Y689500D02*
X718485Y696485D01*
X710435Y692070D02*
X719266Y700900D01*
X708306Y697210D02*
X717136Y706040D01*
X707242Y699780D02*
X716072Y708610D01*
X709371Y694640D02*
X718201Y703470D01*
X646151Y756770D02*
X646381Y757000D01*
X655500D01*
X662000Y763500D02*
Y774411D01*
X655500Y757000D02*
X662000Y763500D01*
X712699Y686930D02*
X724099Y698330D01*
X706177Y702350D02*
X715007Y711180D01*
X718485Y696485D02*
X718620D01*
X729565Y707430D01*
X724099Y698330D02*
X731500D01*
X719266Y700900D02*
X719400D01*
X728500Y710000D01*
X715007Y711180D02*
X715142D01*
X717136Y706040D02*
X717271D01*
X715142Y711180D02*
X726242Y722280D01*
X716072Y708610D02*
X716206D01*
X717271Y706040D02*
X728371Y717140D01*
X718201Y703470D02*
X718335D01*
X716206Y708610D02*
X727306Y719710D01*
X718335Y703470D02*
X728866Y714000D01*
X729565Y707430D02*
X731935D01*
X743365Y696000D02*
X743500D01*
X731935Y707430D02*
X743365Y696000D01*
X744430Y698570D02*
X744565D01*
X733000Y710000D02*
X744430Y698570D01*
X734194Y719710D02*
X747624Y706280D01*
X732635Y714000D02*
X745495Y701140D01*
X748823Y708850D02*
X756173Y701500D01*
X733129Y717140D02*
X746559Y703710D01*
X746694D01*
X745629Y701140D02*
X752979Y693790D01*
X747624Y706280D02*
X747758D01*
X735258Y722280D02*
X748688Y708850D01*
X745495Y701140D02*
X745629D01*
X748688Y708850D02*
X748823D01*
X747758Y706280D02*
X755108Y698930D01*
X746694Y703710D02*
X754044Y696360D01*
X744565Y698570D02*
X751915Y691220D01*
X755108Y698930D02*
X793565D01*
X752979Y693790D02*
X795694D01*
X751915Y691220D02*
X796758D01*
X756173Y701500D02*
X792500D01*
X754044Y696360D02*
X794629D01*
X797823Y688650D02*
X802312Y693140D01*
X813785D01*
X796758Y691220D02*
X814538Y709000D01*
X793565Y698930D02*
X814064Y719430D01*
X795694Y693790D02*
X814404Y712500D01*
X792500Y701500D02*
X813000Y722000D01*
X794629Y696360D02*
X815129Y716860D01*
X1042430Y694930D02*
X1067000Y719500D01*
X990064Y719070D02*
X1014204Y694930D01*
X634150Y744811D02*
X635000Y745661D01*
X1126826Y694692D02*
X1157522D01*
X1104070Y693930D02*
X1126065D01*
X1125000Y696500D02*
X1150500Y722000D01*
X1078500Y719500D02*
X1104070Y693930D01*
X1105135Y696500D02*
X1125000D01*
X1126065Y693930D02*
X1126826Y694692D01*
X1014204Y694930D02*
X1042430D01*
X1015269Y697500D02*
X1041366D01*
X989000Y716500D02*
X1013140Y692360D01*
X1043494D02*
X1046327Y695192D01*
X991129Y721640D02*
X1015269Y697500D01*
X1046327Y695192D02*
X1073022D01*
X1013140Y692360D02*
X1043494D01*
X928290Y697710D02*
X959210D01*
X907000Y719000D02*
X928290Y697710D01*
X959210D02*
X983140Y721640D01*
X902673Y712193D02*
X924865Y690000D01*
X960275Y695140D02*
X984204Y719070D01*
X926994Y695140D02*
X960275D01*
X961339Y692570D02*
X985269Y716500D01*
X925930Y692570D02*
X961339D01*
X914500Y707635D02*
X926994Y695140D01*
X903737Y714762D02*
X925930Y692570D01*
X983330Y690000D02*
X988022Y694692D01*
X924865Y690000D02*
X983330D01*
X728500Y710000D02*
X733000D01*
X728866Y714000D02*
X732635D01*
X727306Y719710D02*
X734194D01*
X726242Y722280D02*
X735258D01*
X728371Y717140D02*
X733129D01*
X814538Y709000D02*
X820000D01*
Y712500D02*
X820930Y711570D01*
X821065D02*
X839845Y692790D01*
X820930Y711570D02*
X821065D01*
X821500Y722000D02*
X824220Y719280D01*
X823194Y716710D02*
X841974Y697930D01*
X823156Y716710D02*
X823194D01*
X843038Y700500D02*
X879000D01*
X840909Y695360D02*
X881129D01*
X824258Y719280D02*
X843038Y700500D01*
X824220Y719280D02*
X824258D01*
X841974Y697930D02*
X880064D01*
X822091Y714140D02*
X822129D01*
X820435Y719430D02*
X823156Y716710D01*
X839845Y692790D02*
X882194D01*
X839000Y690000D02*
X896830D01*
X819371Y716860D02*
X822091Y714140D01*
X820000Y709000D02*
X839000Y690000D01*
X822129Y714140D02*
X840909Y695360D01*
X814404Y712500D02*
X820000D01*
X815129Y716860D02*
X819371D01*
X814064Y719430D02*
X820435D01*
X813000Y722000D02*
X821500D01*
X901596Y712193D02*
X902673D01*
X881129Y695360D02*
X900531Y714762D01*
X903737D01*
X901274Y719140D02*
X902995D01*
X879000Y700500D02*
X900210Y721710D01*
X882194Y692790D02*
X901596Y712193D01*
X900210Y721710D02*
X904059D01*
X880064Y697930D02*
X901274Y719140D01*
X904059Y721710D02*
X906769Y719000D01*
X984204Y719070D02*
X990064D01*
X983140Y721640D02*
X991129D01*
X985269Y716500D02*
X989000D01*
X1079565Y722070D02*
X1105135Y696500D01*
X1065936Y722070D02*
X1079565D01*
X1067000Y719500D02*
X1078500D01*
X1041366Y697500D02*
X1065936Y722070D01*
X1164000Y722000D02*
X1190808Y695192D01*
X1150500Y722000D02*
X1164000D01*
X906134Y716000D02*
X906366D01*
X906769Y719000D02*
X907000D01*
X902995Y719140D02*
X906134Y716000D01*
X896830Y690000D02*
X902522Y695692D01*
X906366Y716000D02*
X914500Y707866D01*
Y707635D02*
Y707866D01*
X813785Y693140D02*
X816405Y695760D01*
X816897D01*
X1190808Y695192D02*
X1242522D01*
X1081250Y685250D02*
X1114500Y652000D01*
X674143Y767357D02*
Y774269D01*
X677070Y764430D02*
X696065D01*
X674143Y767357D02*
X677070Y764430D01*
X682000Y767000D02*
X695000D01*
X680000Y769000D02*
Y774411D01*
Y769000D02*
X682000Y767000D01*
X710500Y764000D02*
X1243897D01*
X706650Y742564D02*
Y760150D01*
X710500Y764000D01*
X708044Y769140D02*
X1246026D01*
X689523Y756500D02*
X699038D01*
X1248155Y774280D02*
X1275939Y746497D01*
X1244962Y766570D02*
X1268229Y743303D01*
X1247091Y771710D02*
X1273369Y745432D01*
X1246026Y769140D02*
X1270799Y744368D01*
X695000Y767000D02*
X704850Y776850D01*
X709108Y766570D02*
X1244962D01*
X705915Y774280D02*
X1248155D01*
X704850Y776850D02*
X1249220D01*
X697129Y761860D02*
X706979Y771710D01*
X698194Y759290D02*
X708044Y769140D01*
X679860Y761860D02*
X697129D01*
X699038Y756500D02*
X709108Y766570D01*
X696065Y764430D02*
X705915Y774280D01*
X683762Y759290D02*
X698194D01*
X706979Y771710D02*
X1247091D01*
X1249220Y776850D02*
X1278509Y747561D01*
X688762Y755739D02*
X689523Y756500D01*
X688762Y745900D02*
Y755739D01*
X677001Y745662D02*
Y759000D01*
X683000Y758529D02*
X683762Y759290D01*
X683000Y745661D02*
Y758529D01*
X677001Y759000D02*
X679860Y761860D01*
X688762Y745900D02*
X689000Y745661D01*
X683000D02*
X683000Y745661D01*
X677000Y745661D02*
X677001Y745662D01*
X674000Y774411D02*
X674143Y774269D01*
X128601Y736757D02*
X145101D01*
X213601D02*
X230101D01*
X299101D02*
X315602D01*
X554000Y737000D02*
X570500D01*
X468500D02*
X485000D01*
X383500D02*
X400000D01*
X809000D02*
X825500D01*
X978500D02*
X995000D01*
X893500D02*
X910000D01*
X1148500D02*
X1165000D01*
X44063Y736953D02*
X60563D01*
X1064013Y736987D02*
X1080797D01*
X1080810Y736974D01*
X1064000Y737000D02*
X1064013Y736987D01*
X1233500Y737000D02*
X1250180D01*
X1233341Y736841D02*
X1233500Y737000D01*
X723500D02*
X740000D01*
X1273369Y419869D02*
Y745432D01*
X977437Y397048D02*
X993937D01*
X1232437D02*
X1232484Y397000D01*
X1250500D01*
X1062937Y397048D02*
X1079437D01*
X1147437D02*
X1163937D01*
X807937D02*
X824437D01*
X892437D02*
X908937D01*
X722437D02*
X738937D01*
X1250500Y397000D02*
X1273369Y419869D01*
X637437Y397048D02*
X653937D01*
X467437D02*
X483937D01*
X552937D02*
X569437D01*
X382437D02*
X398937D01*
X43000Y397000D02*
X59500D01*
X212538Y396805D02*
X229038D01*
X298038D02*
X314538D01*
X127538D02*
X144038D01*
X686929Y782157D02*
X1251182D01*
X693255Y779587D02*
X1250117D01*
X692493Y778826D02*
X693255Y779587D01*
X692000Y774411D02*
X692493Y774904D01*
X1283649Y91260D02*
Y749690D01*
X692493Y774904D02*
Y778826D01*
X1250117Y779587D02*
X1281079Y748626D01*
X686000Y781228D02*
X686929Y782157D01*
X1251182D02*
X1283649Y749690D01*
X686000Y774411D02*
Y781228D01*
X1249437Y57048D02*
X1283649Y91260D01*
X1232937Y57048D02*
X1249437D01*
X1243897Y764000D02*
X1265659Y742238D01*
X1270799Y500799D02*
Y744368D01*
X1278509Y253009D02*
Y747561D01*
X614000Y766703D02*
Y774411D01*
X613238Y765941D02*
X614000Y766703D01*
X598338Y765941D02*
X613238D01*
X620000Y765500D02*
Y774411D01*
X617871Y763371D02*
X620000Y765500D01*
X597273Y763371D02*
X617871D01*
X622301Y760801D02*
X626000Y764500D01*
X596209Y760801D02*
X622301D01*
X626000Y764500D02*
Y774411D01*
X1281079Y173690D02*
Y748626D01*
X1275939Y338550D02*
Y746497D01*
X1265659Y668270D02*
Y742238D01*
X1268229Y583729D02*
Y743303D01*
X1249437Y142048D02*
X1281079Y173690D01*
X1252942Y482942D02*
X1270799Y500799D01*
X1249437Y312048D02*
X1275939Y338550D01*
X1252447Y567947D02*
X1268229Y583729D01*
X1253192Y227692D02*
X1278509Y253009D01*
X575981Y765981D02*
X591029D01*
X596209Y760801D01*
X562000Y752000D02*
X575981Y765981D01*
X592094Y768551D02*
X597273Y763371D01*
X412121Y771121D02*
X593158D01*
X477000Y694500D02*
X548481Y765981D01*
X593158Y771121D02*
X598338Y765941D01*
X477500Y752500D02*
X493551Y768551D01*
X592094D01*
X392000Y751000D02*
X412121Y771121D01*
X594223Y773691D02*
X599402Y768511D01*
X601150Y776261D02*
X602000Y775411D01*
X307000Y752000D02*
X328691Y773691D01*
X548481Y765981D02*
X557000D01*
X245761Y776261D02*
X601150D01*
X222000Y752500D02*
X245761Y776261D01*
X602000Y774411D02*
Y775411D01*
X328691Y773691D02*
X594223D01*
X52000Y439500D02*
X94500Y482000D01*
X137000Y269500D02*
X179500Y312000D01*
X689500Y567000D02*
X732000Y524500D01*
X94500Y567000D02*
X137000Y609500D01*
X307000Y694500D02*
X349500Y737000D01*
X732000Y524500D02*
X774500Y567000D01*
X137000Y269500D02*
X179500Y227000D01*
X52000Y609500D02*
X94500Y567000D01*
X902000Y99500D02*
X944500Y57000D01*
X349500Y737000D02*
X392000Y694500D01*
X817000Y99500D02*
X859500Y142000D01*
X94500Y227000D02*
X137000Y269500D01*
X264500Y737000D02*
X307000Y694500D01*
X349500Y737000D02*
X382250Y769750D01*
X465000Y767500D02*
X468000D01*
X434500Y737000D02*
X465000Y767500D01*
X94500Y567000D02*
X137000Y524500D01*
X1072000Y439500D02*
X1114500Y482000D01*
X774500Y567000D02*
X817000Y524500D01*
X52000D02*
X94500Y482000D01*
X606585Y768511D02*
X608000Y769926D01*
X599402Y768511D02*
X606585D01*
X608000Y769926D02*
Y774411D01*
X630208Y780311D02*
X631670Y778850D01*
Y774742D02*
Y778850D01*
X599402Y780311D02*
X630208D01*
X631670Y774742D02*
X632000Y774411D01*
X598338Y782881D02*
X635619D01*
X638000Y780500D01*
X327412Y779681D02*
X598772D01*
X597708Y782251D02*
X598338Y782881D01*
X598772Y779681D02*
X599402Y780311D01*
X81751Y782251D02*
X597708D01*
X638000Y774411D02*
Y780500D01*
X164147Y779647D02*
X327378D01*
X327412Y779681D01*
X137000Y752500D02*
X164147Y779647D01*
X817000Y524500D02*
X859500Y567000D01*
X902000Y524500D02*
X944500Y567000D01*
X52000Y354500D02*
X94500Y397000D01*
X859500Y567000D02*
X902000Y524500D01*
X646187Y57048D02*
X654437D01*
X637937D02*
X646187D01*
X647000Y57861D01*
X1072500Y676500D02*
X1081250Y685250D01*
X264500Y737000D02*
X299250Y771750D01*
X1231477Y620023D02*
X1264424Y652970D01*
X1221924Y610470D02*
X1231477Y620023D01*
X1233227Y533273D02*
X1265924Y565970D01*
X1234477Y447023D02*
X1269424Y481970D01*
X1234227Y362273D02*
X1267924Y395970D01*
X1225424Y353470D02*
X1234227Y362273D01*
X987486Y354013D02*
X988113Y354640D01*
X987626Y270126D02*
X1029500Y312000D01*
X987626Y185126D02*
X1029500Y227000D01*
X1238227Y103273D02*
X1275424Y140470D01*
X987486Y269014D02*
X988113Y269640D01*
X987486Y184014D02*
X988113Y184640D01*
X13977Y732523D02*
X53924Y772470D01*
X11424Y729970D02*
X13977Y732523D01*
X179500Y737000D02*
X215500Y773000D01*
X1114500Y652000D02*
X1114500D01*
X1199500D02*
X1231477Y620023D01*
X1234477Y447023D02*
X1242000Y439500D01*
X1234227Y362273D02*
X1242000Y354500D01*
X1199500Y397000D02*
X1234227Y362273D01*
X1234477Y277023D02*
X1271924Y314470D01*
X1229424Y271970D02*
X1234477Y277023D01*
X1242000Y269500D01*
X1199500Y312000D02*
X1234477Y277023D01*
X1235727Y190773D02*
X1273424Y228470D01*
X1230924Y185970D02*
X1235727Y190773D01*
X987626Y355126D02*
X988113Y354640D01*
X987626Y270126D02*
X988113Y269640D01*
X987486Y269014D02*
X1029500Y227000D01*
X987626Y185126D02*
X988113Y184640D01*
X1238227Y103273D02*
X1242000Y99500D01*
X1236977Y19523D02*
X1279424Y61970D01*
X1199500Y57000D02*
X1236977Y19523D01*
X987486Y184014D02*
X1029500Y142000D01*
X13977Y732523D02*
X52000Y694500D01*
X12000Y734500D02*
X13977Y732523D01*
X52000Y694500D02*
X133750Y776250D01*
X14500Y657000D02*
X52000Y694500D01*
X14500Y572000D02*
X52000Y609500D01*
X12000Y649500D02*
X52000Y609500D01*
X14500Y487000D02*
X52000Y524500D01*
X12000Y564500D02*
X52000Y524500D01*
X14500Y402000D02*
X52000Y439500D01*
X12000Y479500D02*
X52000Y439500D01*
X14500Y317000D02*
X52000Y354500D01*
X12000Y394500D02*
X52000Y354500D01*
X14500Y232000D02*
X52000Y269500D01*
X12000Y309500D02*
X52000Y269500D01*
X14500Y147000D02*
X52000Y184500D01*
X12000Y224500D02*
X52000Y184500D01*
X14500Y62000D02*
X52000Y99500D01*
X12000Y139500D02*
X52000Y99500D01*
X54500Y17000D02*
X94500Y57000D01*
X179500D02*
X217000Y19500D01*
X139500Y17000D02*
X179500Y57000D01*
X264500D02*
X302000Y19500D01*
X224500Y17000D02*
X264500Y57000D01*
X349500D02*
X387000Y19500D01*
X309500Y17000D02*
X349500Y57000D01*
X434500D02*
X472000Y19500D01*
X394500Y17000D02*
X434500Y57000D01*
X519500D02*
X557000Y19500D01*
X479500Y17000D02*
X519500Y57000D01*
X604500D02*
X642000Y19500D01*
X564500Y17000D02*
X604500Y57000D01*
X689500D02*
X727000Y19500D01*
X649500Y17000D02*
X689500Y57000D01*
X774500D02*
X812000Y19500D01*
X734500Y17000D02*
X774500Y57000D01*
X859500D02*
X897000Y19500D01*
X819500Y17000D02*
X859500Y57000D01*
X944500D02*
X982000Y19500D01*
X904500Y17000D02*
X944500Y57000D01*
X1029500D02*
X1067000Y19500D01*
X989500Y17000D02*
X1029500Y57000D01*
X1114500D02*
X1152000Y19500D01*
X1074500Y17000D02*
X1114500Y57000D01*
X987000Y609500D02*
X1029500Y567000D01*
X902000Y609500D02*
X944500Y567000D01*
X987000Y609500D01*
X817000D02*
X859500Y567000D01*
X902000Y609500D01*
X732000D02*
X774500Y567000D01*
X817000Y609500D01*
X647000D02*
X689500Y567000D01*
X732000Y609500D01*
X562000D02*
X604500Y567000D01*
X647000Y609500D01*
X392000D02*
X434500Y567000D01*
X477000Y609500D01*
X307000D02*
X349500Y567000D01*
X392000Y609500D01*
X222000D02*
X264500Y567000D01*
X307000Y609500D01*
X179500Y57000D02*
X222000Y99500D01*
X264500Y142000D01*
X222000Y99500D02*
X264500Y57000D01*
X349500D02*
X392000Y99500D01*
X434500Y57000D02*
X477000Y99500D01*
X392000D02*
X434500Y57000D01*
X519500D02*
X562000Y99500D01*
X477000D02*
X519500Y57000D01*
X562000Y99500D02*
X604500Y57000D01*
X689500Y142000D02*
X732000Y99500D01*
X689500Y57000D02*
X732000Y99500D01*
X774500Y142000D02*
X817000Y99500D01*
X774500Y57000D02*
X817000Y99500D01*
X732000D02*
X774500Y142000D01*
X944500D02*
X987000Y99500D01*
X902000D02*
X944500Y142000D01*
X987000Y99500D02*
X1029500Y142000D01*
X987000Y99500D02*
X1029500Y57000D01*
X1114500D02*
X1157000Y99500D01*
X1159500Y17000D02*
X1199500Y57000D01*
Y227000D02*
X1242000Y269500D01*
X1199500Y312000D02*
X1242000Y354500D01*
X1157000Y609500D02*
X1199500Y652000D01*
X1157000Y609500D02*
X1199500Y567000D01*
X392000Y694500D02*
X434500Y737000D01*
X477000Y694500D01*
X222000D02*
X264500Y737000D01*
X137000Y694500D02*
X179500Y737000D01*
X222000Y694500D01*
X52000Y99500D02*
X94500Y142000D01*
X52000Y99500D02*
X94500Y57000D01*
X52000Y184500D02*
X94500Y142000D01*
X52000Y269500D02*
X94500Y227000D01*
X52000Y439500D02*
X94500Y397000D01*
Y652000D02*
X137000Y609500D01*
X94500Y652000D02*
X137000Y694500D01*
X52000D02*
X94500Y652000D01*
X52000Y752500D02*
X81751Y782251D01*
X1249437Y652048D02*
X1265659Y668270D01*
X1232937Y652048D02*
X1249437D01*
X1250336Y567947D02*
X1252447D01*
X1249437Y567048D02*
X1250336Y567947D01*
X1232937Y142048D02*
X1249437D01*
X1250082Y227692D02*
X1253192D01*
X1249437Y227048D02*
X1250082Y227692D01*
X1249437Y482048D02*
X1250332Y482942D01*
X1252942D01*
X1232937Y482048D02*
X1249437D01*
X1232937Y227048D02*
X1249437D01*
X892937Y482048D02*
X909437D01*
X892937Y57048D02*
X909437D01*
X1147937Y567048D02*
X1164437D01*
X298538Y651805D02*
X315038D01*
X808437Y142048D02*
X824937D01*
X722937Y312048D02*
X739437D01*
X298538Y226805D02*
X315038D01*
X128038Y56805D02*
X144538D01*
X213038D02*
X229538D01*
X298538D02*
X315038D01*
X553437Y57048D02*
X569937D01*
X467937D02*
X484437D01*
X382937D02*
X399437D01*
X808437D02*
X824937D01*
X722937D02*
X739437D01*
X1063437D02*
X1079937D01*
X977937D02*
X994437D01*
X1147937D02*
X1164437D01*
X43500Y57000D02*
X60000D01*
X128038Y141805D02*
X144538D01*
X213038D02*
X229538D01*
X298538D02*
X315038D01*
X553437Y142048D02*
X569937D01*
X467937D02*
X484437D01*
X382937D02*
X399437D01*
X722937D02*
X739437D01*
X637937D02*
X654437D01*
X1063437D02*
X1079937D01*
X977937D02*
X994437D01*
X892937D02*
X909437D01*
X1147937D02*
X1164437D01*
X43500Y142000D02*
X60000D01*
X128038Y226805D02*
X144538D01*
X213038D02*
X229538D01*
X553437Y227048D02*
X569937D01*
X467937D02*
X484437D01*
X382937D02*
X399437D01*
X808437D02*
X824937D01*
X722937D02*
X739437D01*
X637937D02*
X654437D01*
X1063437D02*
X1079937D01*
X977937D02*
X994437D01*
X892937D02*
X909437D01*
X1147937D02*
X1164437D01*
X43500Y227000D02*
X60000D01*
X128038Y311805D02*
X144538D01*
X213038D02*
X229538D01*
X298538D02*
X315038D01*
X553437Y312048D02*
X569937D01*
X467937D02*
X484437D01*
X382937D02*
X399437D01*
X808437D02*
X824937D01*
X637937D02*
X654437D01*
X1063437D02*
X1079937D01*
X977937D02*
X994437D01*
X892937D02*
X909437D01*
X1232937D02*
X1249437D01*
X1147937D02*
X1164437D01*
X43500Y312000D02*
X60000D01*
X128038Y481805D02*
X144538D01*
X213038D02*
X229538D01*
X298538D02*
X315038D01*
X553437Y482048D02*
X569937D01*
X467937D02*
X484437D01*
X382937D02*
X399437D01*
X808437D02*
X824937D01*
X722937D02*
X739437D01*
X637937D02*
X654437D01*
X1063437D02*
X1079937D01*
X977937D02*
X994437D01*
X1147937D02*
X1164437D01*
X43500Y482000D02*
X60000D01*
X128038Y566805D02*
X144538D01*
X213038D02*
X229538D01*
X298538D02*
X315038D01*
X553437Y567048D02*
X569937D01*
X467937D02*
X484437D01*
X382937D02*
X399437D01*
X808437D02*
X824937D01*
X722937D02*
X739437D01*
X637937D02*
X654437D01*
X1063437D02*
X1079937D01*
X977937D02*
X994437D01*
X892937D02*
X909437D01*
X1232937D02*
X1249437D01*
X43500Y567000D02*
X60000D01*
X128038Y651805D02*
X144538D01*
X213038D02*
X229538D01*
X553437Y652048D02*
X569937D01*
X467937D02*
X484437D01*
X382937D02*
X399437D01*
X808437D02*
X824937D01*
X722937D02*
X739437D01*
X637937D02*
X654437D01*
X1063437D02*
X1079937D01*
X977937D02*
X994437D01*
X892937D02*
X909437D01*
X1147937D02*
X1164437D01*
X43500Y652000D02*
X60000D01*
D13*
X647000Y99540D02*
D03*
X639000Y737000D02*
D03*
X731500Y698330D02*
D03*
X816897Y695760D02*
D03*
X1242522Y695192D02*
D03*
X1157522Y694692D02*
D03*
X1073022Y695192D02*
D03*
X902522Y695692D02*
D03*
X988022Y694692D02*
D03*
X60563Y736953D02*
D03*
X128601Y736757D02*
D03*
X145101D02*
D03*
X213601D02*
D03*
X299101D02*
D03*
X315602D02*
D03*
X570500Y737000D02*
D03*
X554000D02*
D03*
X485000D02*
D03*
X468500D02*
D03*
X400000D02*
D03*
X383500D02*
D03*
X825500D02*
D03*
X809000D02*
D03*
X723500D02*
D03*
X655000D02*
D03*
X1064000D02*
D03*
X995000D02*
D03*
X978500D02*
D03*
X910000D02*
D03*
X893500D02*
D03*
X1165000D02*
D03*
X1148500D02*
D03*
X230101Y736757D02*
D03*
X44063Y736953D02*
D03*
X740000Y737000D02*
D03*
X1250180D02*
D03*
X1233500D02*
D03*
X1080810Y736974D02*
D03*
X1079437Y397048D02*
D03*
X993937D02*
D03*
X1062937D02*
D03*
X1232437D02*
D03*
X1250500Y397000D02*
D03*
X1147437Y397048D02*
D03*
X1163937D02*
D03*
X807937D02*
D03*
X824437D02*
D03*
X722437D02*
D03*
X738937D02*
D03*
X908937D02*
D03*
X977437D02*
D03*
X892437D02*
D03*
X398937D02*
D03*
X382437D02*
D03*
X552937D02*
D03*
X569437D02*
D03*
X467437D02*
D03*
X483937D02*
D03*
X637437D02*
D03*
X653937D02*
D03*
X298038Y396805D02*
D03*
X314538D02*
D03*
X127538D02*
D03*
X144038D02*
D03*
X43000Y397000D02*
D03*
X59500D02*
D03*
X212538Y396805D02*
D03*
X229038D02*
D03*
X1249437Y57048D02*
D03*
X1232937D02*
D03*
X646151Y756770D02*
D03*
X987000Y750480D02*
D03*
X562000Y752000D02*
D03*
X477500Y752500D02*
D03*
X392000Y751000D02*
D03*
X307000Y752000D02*
D03*
X222000Y752500D02*
D03*
X137000D02*
D03*
X52000D02*
D03*
X892937Y57048D02*
D03*
X1164437Y567048D02*
D03*
X298538Y651805D02*
D03*
Y226805D02*
D03*
X60000Y57000D02*
D03*
X128038Y56805D02*
D03*
X144538D02*
D03*
X213038D02*
D03*
X298538D02*
D03*
X315038D02*
D03*
X569937Y57048D02*
D03*
X553437D02*
D03*
X484437D02*
D03*
X467937D02*
D03*
X399437D02*
D03*
X382937D02*
D03*
X824937D02*
D03*
X808437D02*
D03*
X739437D02*
D03*
X722937D02*
D03*
X654437D02*
D03*
X637937D02*
D03*
X1079937D02*
D03*
X1063437D02*
D03*
X994437D02*
D03*
X977937D02*
D03*
X909437D02*
D03*
X1164437D02*
D03*
X1147937D02*
D03*
X229538Y56805D02*
D03*
X43500Y57000D02*
D03*
X60000Y142000D02*
D03*
X128038Y141805D02*
D03*
X144538D02*
D03*
X213038D02*
D03*
X298538D02*
D03*
X315038D02*
D03*
X569937Y142048D02*
D03*
X553437D02*
D03*
X484437D02*
D03*
X467937D02*
D03*
X399437D02*
D03*
X382937D02*
D03*
X824937D02*
D03*
X808437D02*
D03*
X739437D02*
D03*
X722937D02*
D03*
X654437D02*
D03*
X637937D02*
D03*
X1079937D02*
D03*
X1063437D02*
D03*
X994437D02*
D03*
X977937D02*
D03*
X909437D02*
D03*
X892937D02*
D03*
X1249437D02*
D03*
X1232937D02*
D03*
X1164437D02*
D03*
X1147937D02*
D03*
X229538Y141805D02*
D03*
X43500Y142000D02*
D03*
X60000Y227000D02*
D03*
X128038Y226805D02*
D03*
X144538D02*
D03*
X213038D02*
D03*
X315038D02*
D03*
X569937Y227048D02*
D03*
X553437D02*
D03*
X484437D02*
D03*
X467937D02*
D03*
X399437D02*
D03*
X382937D02*
D03*
X824937D02*
D03*
X808437D02*
D03*
X739437D02*
D03*
X722937D02*
D03*
X654437D02*
D03*
X637937D02*
D03*
X1079937D02*
D03*
X1063437D02*
D03*
X994437D02*
D03*
X977937D02*
D03*
X909437D02*
D03*
X892937D02*
D03*
X1249437D02*
D03*
X1232937D02*
D03*
X1164437D02*
D03*
X1147937D02*
D03*
X229538Y226805D02*
D03*
X43500Y227000D02*
D03*
X60000Y312000D02*
D03*
X128038Y311805D02*
D03*
X144538D02*
D03*
X213038D02*
D03*
X298538D02*
D03*
X315038D02*
D03*
X569937Y312048D02*
D03*
X553437D02*
D03*
X484437D02*
D03*
X467937D02*
D03*
X399437D02*
D03*
X382937D02*
D03*
X824937D02*
D03*
X808437D02*
D03*
X739437D02*
D03*
X722937D02*
D03*
X654437D02*
D03*
X637937D02*
D03*
X1079937D02*
D03*
X1063437D02*
D03*
X994437D02*
D03*
X977937D02*
D03*
X909437D02*
D03*
X892937D02*
D03*
X1249437D02*
D03*
X1232937D02*
D03*
X1164437D02*
D03*
X1147937D02*
D03*
X229538Y311805D02*
D03*
X43500Y312000D02*
D03*
X60000Y482000D02*
D03*
X128038Y481805D02*
D03*
X144538D02*
D03*
X213038D02*
D03*
X298538D02*
D03*
X315038D02*
D03*
X569937Y482048D02*
D03*
X553437D02*
D03*
X484437D02*
D03*
X467937D02*
D03*
X399437D02*
D03*
X382937D02*
D03*
X824937D02*
D03*
X808437D02*
D03*
X739437D02*
D03*
X722937D02*
D03*
X654437D02*
D03*
X637937D02*
D03*
X1079937D02*
D03*
X1063437D02*
D03*
X994437D02*
D03*
X977937D02*
D03*
X909437D02*
D03*
X1249437D02*
D03*
X1232937D02*
D03*
X1164437D02*
D03*
X1147937D02*
D03*
X229538Y481805D02*
D03*
X43500Y482000D02*
D03*
X60000Y567000D02*
D03*
X128038Y566805D02*
D03*
X144538D02*
D03*
X213038D02*
D03*
X298538D02*
D03*
X315038D02*
D03*
X569937Y567048D02*
D03*
X553437D02*
D03*
X484437D02*
D03*
X467937D02*
D03*
X399437D02*
D03*
X382937D02*
D03*
X824937D02*
D03*
X808437D02*
D03*
X739437D02*
D03*
X722937D02*
D03*
X654437D02*
D03*
X637937D02*
D03*
X1079937D02*
D03*
X1063437D02*
D03*
X994437D02*
D03*
X977937D02*
D03*
X909437D02*
D03*
X892937D02*
D03*
X1249437D02*
D03*
X1232937D02*
D03*
X1147937D02*
D03*
X229538Y566805D02*
D03*
X43500Y567000D02*
D03*
X60000Y652000D02*
D03*
X128038Y651805D02*
D03*
X144538D02*
D03*
X213038D02*
D03*
X315038D02*
D03*
X569937Y652048D02*
D03*
X553437D02*
D03*
X484437D02*
D03*
X467937D02*
D03*
X399437D02*
D03*
X382937D02*
D03*
X824937D02*
D03*
X808437D02*
D03*
X739437D02*
D03*
X722937D02*
D03*
X654437D02*
D03*
X637937D02*
D03*
X1079937D02*
D03*
X1063437D02*
D03*
X994437D02*
D03*
X977937D02*
D03*
X909437D02*
D03*
X892937D02*
D03*
X1249437D02*
D03*
X1232937D02*
D03*
X1164437D02*
D03*
X1147937D02*
D03*
X229538Y651805D02*
D03*
X43500Y652000D02*
D03*
X893500Y481988D02*
D03*
D14*
X668454Y87463D02*
G03*
X671620Y99540I-21454J12077D01*
G01*
X659078Y78086D02*
G03*
X668454Y87463I-12077J21454D01*
G01*
X647000Y74920D02*
G03*
X659078Y78086I0J24620D01*
G01*
X671620Y99540D02*
G03*
X647000Y74920I-24620J0D01*
G01*
D15*
Y99540D02*
D03*
D16*
Y75240D02*
D03*
D17*
X683000Y745661D02*
D03*
X671000D02*
D03*
X599000D02*
D03*
X605000D02*
D03*
X611000D02*
D03*
X617000D02*
D03*
X623000D02*
D03*
X629000D02*
D03*
X635000D02*
D03*
X641000D02*
D03*
X647000D02*
D03*
X653000D02*
D03*
X659000D02*
D03*
X665000D02*
D03*
X677000D02*
D03*
X689000D02*
D03*
X695000D02*
D03*
D18*
X686000Y774411D02*
D03*
X692000D02*
D03*
X602000D02*
D03*
X608000D02*
D03*
X614000D02*
D03*
X620000D02*
D03*
X626000D02*
D03*
X632000D02*
D03*
X638000D02*
D03*
X644000D02*
D03*
X650000D02*
D03*
X656000D02*
D03*
X662000D02*
D03*
X668000D02*
D03*
X674000D02*
D03*
X680000D02*
D03*
D19*
X592000Y748411D02*
D03*
X702000D02*
D03*
D20*
X647000Y74920D02*
X655912D01*
X668454Y87463D02*
X671620Y90628D01*
X659078Y78086D02*
X668454Y87463D01*
X655912Y74920D02*
X659078Y78086D01*
X671620Y90628D02*
Y99540D01*
D21*
X764005Y728005D02*
X770000Y734000D01*
X762000Y726000D02*
X764005Y728005D01*
X693500Y726000D02*
X762000D01*
X656000Y779000D02*
X658161Y781161D01*
X665581D01*
X656000Y774411D02*
Y779000D01*
X665581Y781161D02*
X668000Y778743D01*
Y774411D02*
Y778743D01*
X638000Y762000D02*
X641000Y765000D01*
X638000Y755000D02*
Y762000D01*
X595450Y756661D02*
X597111Y755000D01*
X588550Y756661D02*
X595450D01*
X586500Y742212D02*
X590000Y738711D01*
X597111Y755000D02*
X638000D01*
X590000Y734500D02*
Y738711D01*
X586500Y754611D02*
X588550Y756661D01*
X586500Y742212D02*
Y754611D01*
X641000Y745661D02*
Y752000D01*
X638000Y755000D02*
X641000Y752000D01*
X664887Y738613D02*
X674068Y729432D01*
X664887Y742170D02*
X665000Y742283D01*
X664887Y738613D02*
Y742170D01*
X665000Y742283D02*
Y745661D01*
X659000D02*
X665000D01*
X653000D02*
X659000D01*
X647000D02*
X653000D01*
X641000D02*
X647000D01*
M02*
