G04*
G04 #@! TF.GenerationSoftware,Altium Limited,Altium Designer,24.5.2 (23)*
G04*
G04 Layer_Color=32896*
%FSLAX44Y44*%
%MOMM*%
G71*
G04*
G04 #@! TF.SameCoordinates,DF3C02B5-3F0F-4488-AB2D-F481A5C04937*
G04*
G04*
G04 #@! TF.FilePolarity,Positive*
G04*
G01*
G75*
%ADD20C,0.2000*%
%ADD26C,0.1530*%
G36*
X587000Y743250D02*
X582000Y745750D01*
Y740750D01*
X587000Y743250D01*
D02*
G37*
G36*
X633575Y713155D02*
X631982D01*
Y714108D01*
X631833Y713913D01*
X631671Y713751D01*
X631516Y713609D01*
X631373Y713492D01*
X631308Y713447D01*
X631244Y713402D01*
X631192Y713369D01*
X631147Y713337D01*
X631108Y713317D01*
X631082Y713298D01*
X631062Y713291D01*
X631056Y713285D01*
X630952Y713233D01*
X630855Y713194D01*
X630654Y713123D01*
X630466Y713078D01*
X630298Y713039D01*
X630227Y713032D01*
X630162Y713019D01*
X630097Y713013D01*
X630052D01*
X630006Y713007D01*
X629955D01*
X629747Y713019D01*
X629547Y713045D01*
X629359Y713091D01*
X629178Y713149D01*
X629009Y713214D01*
X628847Y713291D01*
X628698Y713369D01*
X628569Y713453D01*
X628446Y713538D01*
X628342Y713615D01*
X628251Y713693D01*
X628173Y713758D01*
X628109Y713816D01*
X628070Y713861D01*
X628037Y713887D01*
X628031Y713900D01*
X627888Y714075D01*
X627766Y714269D01*
X627662Y714470D01*
X627571Y714684D01*
X627493Y714891D01*
X627429Y715105D01*
X627377Y715319D01*
X627332Y715519D01*
X627299Y715714D01*
X627273Y715889D01*
X627260Y716051D01*
X627247Y716193D01*
X627241Y716252D01*
Y716303D01*
X627234Y716355D01*
Y716394D01*
Y716426D01*
Y716446D01*
Y716459D01*
Y716465D01*
X627241Y716757D01*
X627267Y717035D01*
X627306Y717288D01*
X627357Y717527D01*
X627416Y717748D01*
X627481Y717955D01*
X627552Y718136D01*
X627623Y718305D01*
X627694Y718447D01*
X627766Y718577D01*
X627830Y718687D01*
X627888Y718771D01*
X627940Y718842D01*
X627979Y718894D01*
X628005Y718920D01*
X628012Y718933D01*
X628161Y719082D01*
X628316Y719218D01*
X628484Y719334D01*
X628646Y719432D01*
X628815Y719516D01*
X628977Y719587D01*
X629132Y719639D01*
X629288Y719684D01*
X629430Y719723D01*
X629560Y719749D01*
X629683Y719769D01*
X629780Y719781D01*
X629864Y719788D01*
X629929Y719794D01*
X629981D01*
X630181Y719781D01*
X630376Y719755D01*
X630557Y719710D01*
X630732Y719652D01*
X630900Y719587D01*
X631056Y719509D01*
X631198Y719425D01*
X631328Y719341D01*
X631444Y719257D01*
X631554Y719173D01*
X631645Y719101D01*
X631716Y719030D01*
X631781Y718972D01*
X631820Y718926D01*
X631852Y718901D01*
X631859Y718888D01*
Y722120D01*
X633575D01*
Y713155D01*
D02*
G37*
G36*
X665507D02*
X663791D01*
Y716407D01*
Y716556D01*
X663784Y716692D01*
X663778Y716821D01*
X663765Y716945D01*
X663752Y717055D01*
X663739Y717158D01*
X663726Y717249D01*
X663713Y717327D01*
X663700Y717398D01*
X663687Y717463D01*
X663674Y717514D01*
X663661Y717560D01*
X663648Y717592D01*
X663642Y717618D01*
X663635Y717631D01*
Y717637D01*
X663570Y717786D01*
X663493Y717916D01*
X663408Y718020D01*
X663331Y718110D01*
X663259Y718175D01*
X663195Y718227D01*
X663156Y718259D01*
X663149Y718266D01*
X663143D01*
X663013Y718337D01*
X662884Y718389D01*
X662754Y718428D01*
X662631Y718454D01*
X662534Y718467D01*
X662489Y718473D01*
X662450Y718480D01*
X662379D01*
X662243Y718473D01*
X662120Y718454D01*
X662016Y718428D01*
X661925Y718395D01*
X661854Y718363D01*
X661802Y718337D01*
X661770Y718318D01*
X661757Y718311D01*
X661673Y718246D01*
X661601Y718175D01*
X661536Y718104D01*
X661491Y718033D01*
X661459Y717974D01*
X661433Y717923D01*
X661420Y717890D01*
X661413Y717877D01*
X661394Y717819D01*
X661381Y717741D01*
X661368Y717657D01*
X661355Y717560D01*
X661342Y717456D01*
X661336Y717346D01*
X661323Y717126D01*
X661316Y717022D01*
Y716919D01*
X661310Y716828D01*
Y716744D01*
Y716679D01*
Y716627D01*
Y716595D01*
Y716582D01*
Y713155D01*
X659593D01*
Y716964D01*
Y717119D01*
X659600Y717268D01*
Y717404D01*
X659606Y717534D01*
X659613Y717644D01*
X659619Y717754D01*
X659632Y717845D01*
X659639Y717929D01*
X659645Y718007D01*
X659658Y718072D01*
X659665Y718123D01*
X659671Y718169D01*
X659678Y718201D01*
Y718227D01*
X659684Y718240D01*
Y718246D01*
X659723Y718402D01*
X659775Y718544D01*
X659833Y718674D01*
X659885Y718784D01*
X659937Y718881D01*
X659963Y718920D01*
X659982Y718952D01*
X659995Y718978D01*
X660008Y718998D01*
X660021Y719004D01*
Y719011D01*
X660118Y719134D01*
X660235Y719244D01*
X660351Y719341D01*
X660468Y719419D01*
X660578Y719483D01*
X660623Y719516D01*
X660662Y719535D01*
X660695Y719555D01*
X660720Y719561D01*
X660733Y719574D01*
X660740D01*
X660921Y719645D01*
X661103Y719704D01*
X661284Y719743D01*
X661446Y719769D01*
X661524Y719775D01*
X661588Y719781D01*
X661653Y719788D01*
X661705Y719794D01*
X661802D01*
X662016Y719781D01*
X662223Y719755D01*
X662417Y719704D01*
X662599Y719639D01*
X662774Y719568D01*
X662942Y719483D01*
X663091Y719399D01*
X663233Y719309D01*
X663357Y719211D01*
X663467Y719127D01*
X663564Y719043D01*
X663642Y718972D01*
X663706Y718907D01*
X663752Y718862D01*
X663778Y718829D01*
X663791Y718816D01*
Y722120D01*
X665507D01*
Y713155D01*
D02*
G37*
G36*
X641374Y719781D02*
X641581Y719749D01*
X641782Y719697D01*
X641970Y719632D01*
X642151Y719555D01*
X642313Y719471D01*
X642468Y719373D01*
X642611Y719283D01*
X642740Y719185D01*
X642850Y719088D01*
X642948Y719004D01*
X643032Y718926D01*
X643096Y718862D01*
X643142Y718810D01*
X643168Y718777D01*
X643181Y718764D01*
Y719652D01*
X644761D01*
Y713155D01*
X643045D01*
Y716303D01*
Y716472D01*
X643038Y716634D01*
X643032Y716776D01*
X643025Y716912D01*
X643012Y717029D01*
X642999Y717139D01*
X642986Y717236D01*
X642973Y717327D01*
X642967Y717404D01*
X642954Y717469D01*
X642941Y717521D01*
X642928Y717566D01*
X642922Y717599D01*
X642915Y717625D01*
X642909Y717637D01*
Y717644D01*
X642850Y717786D01*
X642779Y717910D01*
X642708Y718013D01*
X642630Y718104D01*
X642565Y718169D01*
X642507Y718221D01*
X642468Y718246D01*
X642462Y718259D01*
X642455D01*
X642332Y718331D01*
X642209Y718389D01*
X642086Y718428D01*
X641976Y718454D01*
X641879Y718467D01*
X641840Y718473D01*
X641801Y718480D01*
X641736D01*
X641620Y718473D01*
X641516Y718460D01*
X641425Y718434D01*
X641354Y718415D01*
X641296Y718389D01*
X641251Y718363D01*
X641225Y718350D01*
X641218Y718344D01*
X641147Y718285D01*
X641089Y718221D01*
X641043Y718156D01*
X641004Y718084D01*
X640972Y718026D01*
X640953Y717974D01*
X640940Y717942D01*
X640933Y717935D01*
Y717929D01*
X640914Y717871D01*
X640901Y717800D01*
X640888Y717715D01*
X640875Y717625D01*
X640862Y717424D01*
X640849Y717216D01*
X640843Y717119D01*
Y717022D01*
X640836Y716938D01*
Y716867D01*
Y716802D01*
Y716750D01*
Y716724D01*
Y716711D01*
Y713155D01*
X639120D01*
Y716271D01*
Y716439D01*
X639113Y716588D01*
X639107Y716731D01*
X639100Y716867D01*
X639087Y716990D01*
X639074Y717094D01*
X639061Y717197D01*
X639048Y717281D01*
X639042Y717359D01*
X639029Y717430D01*
X639016Y717482D01*
X639003Y717534D01*
X638997Y717566D01*
X638990Y717592D01*
X638984Y717605D01*
Y717612D01*
X638925Y717761D01*
X638854Y717897D01*
X638776Y718007D01*
X638699Y718097D01*
X638634Y718169D01*
X638576Y718221D01*
X638537Y718246D01*
X638530Y718259D01*
X638524D01*
X638401Y718331D01*
X638284Y718389D01*
X638167Y718428D01*
X638064Y718454D01*
X637973Y718467D01*
X637902Y718480D01*
X637844D01*
X637753Y718473D01*
X637669Y718467D01*
X637591Y718447D01*
X637520Y718421D01*
X637397Y718363D01*
X637293Y718298D01*
X637215Y718227D01*
X637157Y718169D01*
X637138Y718143D01*
X637125Y718123D01*
X637112Y718117D01*
Y718110D01*
X637079Y718052D01*
X637053Y717974D01*
X637028Y717890D01*
X637008Y717793D01*
X636976Y717592D01*
X636950Y717378D01*
X636943Y717275D01*
X636937Y717178D01*
Y717094D01*
X636930Y717016D01*
Y716951D01*
Y716906D01*
Y716873D01*
Y716860D01*
Y713155D01*
X635214D01*
Y717301D01*
Y717469D01*
X635220Y717625D01*
X635233Y717774D01*
X635240Y717903D01*
X635253Y718026D01*
X635272Y718136D01*
X635285Y718233D01*
X635305Y718324D01*
X635324Y718402D01*
X635337Y718467D01*
X635350Y718525D01*
X635369Y718570D01*
X635376Y718603D01*
X635389Y718628D01*
X635395Y718642D01*
Y718648D01*
X635499Y718849D01*
X635557Y718939D01*
X635616Y719017D01*
X635674Y719095D01*
X635739Y719166D01*
X635797Y719231D01*
X635855Y719289D01*
X635914Y719334D01*
X635965Y719380D01*
X636011Y719419D01*
X636050Y719451D01*
X636088Y719471D01*
X636114Y719490D01*
X636127Y719503D01*
X636134D01*
X636231Y719555D01*
X636328Y719600D01*
X636529Y719671D01*
X636736Y719723D01*
X636924Y719755D01*
X637008Y719769D01*
X637092Y719781D01*
X637164Y719788D01*
X637222D01*
X637274Y719794D01*
X637345D01*
X637552Y719781D01*
X637747Y719755D01*
X637928Y719710D01*
X638012Y719691D01*
X638090Y719665D01*
X638155Y719639D01*
X638219Y719620D01*
X638271Y719594D01*
X638323Y719574D01*
X638355Y719561D01*
X638381Y719548D01*
X638401Y719535D01*
X638407D01*
X638588Y719425D01*
X638757Y719302D01*
X638912Y719173D01*
X639048Y719050D01*
X639113Y718991D01*
X639165Y718933D01*
X639210Y718888D01*
X639249Y718842D01*
X639282Y718810D01*
X639308Y718784D01*
X639320Y718764D01*
X639327Y718758D01*
X639444Y718939D01*
X639567Y719101D01*
X639690Y719231D01*
X639813Y719341D01*
X639916Y719425D01*
X639962Y719458D01*
X640001Y719490D01*
X640033Y719509D01*
X640059Y719522D01*
X640072Y719535D01*
X640078D01*
X640260Y719620D01*
X640441Y719684D01*
X640622Y719730D01*
X640791Y719762D01*
X640868Y719775D01*
X640940Y719781D01*
X641004Y719788D01*
X641056D01*
X641102Y719794D01*
X641160D01*
X641374Y719781D01*
D02*
G37*
G36*
X625829Y713155D02*
X624022D01*
Y717074D01*
X620472D01*
Y713155D01*
X618665D01*
Y722120D01*
X620472D01*
Y718590D01*
X624022D01*
Y722120D01*
X625829D01*
Y713155D01*
D02*
G37*
G36*
X696603D02*
X694653D01*
X691460Y722120D01*
X693384D01*
X695573Y715487D01*
X697847Y722120D01*
X699803D01*
X696603Y713155D01*
D02*
G37*
G36*
X650454Y722262D02*
X650681Y722249D01*
X650901Y722230D01*
X651102Y722197D01*
X651290Y722165D01*
X651465Y722126D01*
X651633Y722087D01*
X651782Y722048D01*
X651912Y722003D01*
X652028Y721964D01*
X652132Y721925D01*
X652216Y721893D01*
X652281Y721861D01*
X652333Y721841D01*
X652359Y721828D01*
X652372Y721822D01*
X652579Y721705D01*
X652767Y721582D01*
X652948Y721452D01*
X653116Y721317D01*
X653272Y721174D01*
X653408Y721038D01*
X653538Y720902D01*
X653654Y720766D01*
X653751Y720643D01*
X653842Y720526D01*
X653920Y720423D01*
X653978Y720332D01*
X654023Y720254D01*
X654062Y720196D01*
X654081Y720164D01*
X654088Y720151D01*
X654192Y719943D01*
X654282Y719730D01*
X654360Y719516D01*
X654425Y719302D01*
X654483Y719095D01*
X654528Y718888D01*
X654567Y718687D01*
X654600Y718499D01*
X654619Y718324D01*
X654639Y718162D01*
X654651Y718020D01*
X654665Y717897D01*
Y717800D01*
X654671Y717761D01*
Y717728D01*
Y717702D01*
Y717676D01*
Y717670D01*
Y717663D01*
X654665Y717424D01*
X654645Y717191D01*
X654619Y716964D01*
X654587Y716744D01*
X654548Y716536D01*
X654502Y716342D01*
X654457Y716154D01*
X654405Y715986D01*
X654360Y715830D01*
X654315Y715688D01*
X654269Y715571D01*
X654230Y715468D01*
X654192Y715384D01*
X654166Y715325D01*
X654153Y715286D01*
X654146Y715273D01*
X654043Y715073D01*
X653926Y714885D01*
X653810Y714710D01*
X653680Y714548D01*
X653550Y714399D01*
X653421Y714257D01*
X653291Y714134D01*
X653168Y714023D01*
X653045Y713920D01*
X652935Y713836D01*
X652838Y713758D01*
X652747Y713699D01*
X652676Y713654D01*
X652624Y713615D01*
X652592Y713596D01*
X652579Y713589D01*
X652378Y713486D01*
X652171Y713395D01*
X651964Y713317D01*
X651750Y713246D01*
X651543Y713194D01*
X651342Y713142D01*
X651147Y713104D01*
X650960Y713071D01*
X650785Y713052D01*
X650623Y713032D01*
X650480Y713019D01*
X650357Y713007D01*
X650260D01*
X650221Y713000D01*
X650124D01*
X649917Y713007D01*
X649709Y713019D01*
X649509Y713039D01*
X649314Y713065D01*
X649127Y713097D01*
X648945Y713130D01*
X648777Y713168D01*
X648615Y713207D01*
X648472Y713246D01*
X648343Y713285D01*
X648226Y713317D01*
X648129Y713350D01*
X648045Y713376D01*
X647987Y713395D01*
X647954Y713408D01*
X647941Y713415D01*
X647747Y713492D01*
X647559Y713576D01*
X647384Y713661D01*
X647229Y713745D01*
X647080Y713829D01*
X646944Y713907D01*
X646821Y713985D01*
X646711Y714056D01*
X646613Y714127D01*
X646529Y714192D01*
X646452Y714244D01*
X646393Y714295D01*
X646348Y714334D01*
X646316Y714360D01*
X646296Y714380D01*
X646290Y714386D01*
Y717961D01*
X650189D01*
Y716446D01*
X648116D01*
Y715306D01*
X648278Y715189D01*
X648447Y715086D01*
X648608Y714995D01*
X648764Y714917D01*
X648835Y714885D01*
X648900Y714852D01*
X648958Y714827D01*
X649004Y714807D01*
X649042Y714788D01*
X649075Y714781D01*
X649094Y714768D01*
X649101D01*
X649314Y714697D01*
X649522Y714639D01*
X649709Y714600D01*
X649800Y714587D01*
X649884Y714574D01*
X649962Y714567D01*
X650027Y714561D01*
X650092Y714555D01*
X650144D01*
X650182Y714548D01*
X650241D01*
X650448Y714555D01*
X650649Y714580D01*
X650836Y714619D01*
X651011Y714671D01*
X651180Y714736D01*
X651335Y714801D01*
X651471Y714872D01*
X651601Y714950D01*
X651711Y715021D01*
X651815Y715092D01*
X651899Y715163D01*
X651970Y715222D01*
X652028Y715273D01*
X652067Y715312D01*
X652093Y715338D01*
X652100Y715345D01*
X652223Y715500D01*
X652333Y715675D01*
X652430Y715863D01*
X652508Y716057D01*
X652579Y716252D01*
X652631Y716452D01*
X652682Y716646D01*
X652715Y716841D01*
X652747Y717022D01*
X652767Y717191D01*
X652786Y717340D01*
X652793Y717476D01*
X652799Y717534D01*
Y717586D01*
X652806Y717625D01*
Y717663D01*
Y717696D01*
Y717715D01*
Y717728D01*
Y717735D01*
X652799Y718000D01*
X652773Y718253D01*
X652741Y718486D01*
X652695Y718706D01*
X652644Y718907D01*
X652585Y719088D01*
X652521Y719257D01*
X652456Y719406D01*
X652391Y719535D01*
X652326Y719645D01*
X652268Y719743D01*
X652216Y719820D01*
X652171Y719885D01*
X652138Y719930D01*
X652113Y719956D01*
X652106Y719963D01*
X651970Y720099D01*
X651821Y720215D01*
X651672Y720312D01*
X651517Y720403D01*
X651361Y720474D01*
X651199Y720533D01*
X651050Y720585D01*
X650901Y720623D01*
X650759Y720656D01*
X650636Y720682D01*
X650519Y720695D01*
X650415Y720708D01*
X650338Y720714D01*
X650273Y720721D01*
X650221D01*
X650079Y720714D01*
X649943Y720701D01*
X649807Y720682D01*
X649690Y720662D01*
X649574Y720630D01*
X649463Y720598D01*
X649366Y720565D01*
X649276Y720526D01*
X649198Y720487D01*
X649127Y720455D01*
X649062Y720423D01*
X649010Y720390D01*
X648971Y720371D01*
X648945Y720351D01*
X648926Y720338D01*
X648919Y720332D01*
X648822Y720261D01*
X648738Y720176D01*
X648660Y720092D01*
X648583Y720008D01*
X648518Y719924D01*
X648459Y719833D01*
X648408Y719749D01*
X648362Y719671D01*
X648324Y719594D01*
X648291Y719522D01*
X648259Y719458D01*
X648239Y719406D01*
X648220Y719360D01*
X648207Y719322D01*
X648200Y719302D01*
Y719296D01*
X646406Y719632D01*
X646465Y719859D01*
X646536Y720066D01*
X646620Y720267D01*
X646711Y720455D01*
X646808Y720623D01*
X646911Y720785D01*
X647009Y720928D01*
X647112Y721057D01*
X647209Y721174D01*
X647307Y721278D01*
X647391Y721362D01*
X647468Y721433D01*
X647527Y721491D01*
X647579Y721530D01*
X647605Y721556D01*
X647617Y721563D01*
X647799Y721686D01*
X648000Y721796D01*
X648207Y721893D01*
X648421Y721971D01*
X648634Y722042D01*
X648855Y722094D01*
X649068Y722145D01*
X649269Y722178D01*
X649463Y722210D01*
X649645Y722230D01*
X649807Y722249D01*
X649949Y722256D01*
X650007Y722262D01*
X650059D01*
X650111Y722269D01*
X650221D01*
X650454Y722262D01*
D02*
G37*
G36*
X669963Y719781D02*
X670216Y719755D01*
X670449Y719710D01*
X670669Y719652D01*
X670876Y719587D01*
X671064Y719509D01*
X671233Y719425D01*
X671388Y719348D01*
X671531Y719263D01*
X671654Y719179D01*
X671757Y719101D01*
X671842Y719037D01*
X671906Y718978D01*
X671958Y718933D01*
X671984Y718907D01*
X671997Y718894D01*
X672146Y718719D01*
X672275Y718531D01*
X672392Y718331D01*
X672489Y718130D01*
X672567Y717916D01*
X672638Y717709D01*
X672696Y717508D01*
X672742Y717307D01*
X672774Y717119D01*
X672800Y716951D01*
X672820Y716796D01*
X672832Y716659D01*
X672839Y716601D01*
Y716549D01*
Y716504D01*
X672845Y716465D01*
Y716433D01*
Y716413D01*
Y716400D01*
Y716394D01*
X672839Y716103D01*
X672806Y715830D01*
X672768Y715571D01*
X672716Y715332D01*
X672651Y715111D01*
X672580Y714904D01*
X672502Y714716D01*
X672424Y714548D01*
X672347Y714399D01*
X672269Y714269D01*
X672198Y714159D01*
X672133Y714069D01*
X672081Y713991D01*
X672042Y713939D01*
X672010Y713913D01*
X672003Y713900D01*
X671835Y713745D01*
X671660Y713602D01*
X671479Y713486D01*
X671291Y713382D01*
X671103Y713298D01*
X670909Y713227D01*
X670727Y713168D01*
X670546Y713117D01*
X670378Y713084D01*
X670222Y713052D01*
X670086Y713032D01*
X669963Y713019D01*
X669866Y713013D01*
X669827D01*
X669795Y713007D01*
X669730D01*
X669503Y713013D01*
X669283Y713032D01*
X669076Y713058D01*
X668888Y713097D01*
X668707Y713142D01*
X668545Y713194D01*
X668396Y713246D01*
X668260Y713304D01*
X668137Y713356D01*
X668033Y713408D01*
X667942Y713460D01*
X667865Y713505D01*
X667806Y713544D01*
X667761Y713570D01*
X667735Y713589D01*
X667729Y713596D01*
X667592Y713712D01*
X667469Y713842D01*
X667359Y713978D01*
X667256Y714120D01*
X667165Y714269D01*
X667081Y714418D01*
X667010Y714561D01*
X666945Y714703D01*
X666887Y714833D01*
X666841Y714956D01*
X666802Y715066D01*
X666770Y715163D01*
X666750Y715247D01*
X666731Y715306D01*
X666718Y715345D01*
Y715358D01*
X668409Y715643D01*
X668435Y715519D01*
X668467Y715409D01*
X668499Y715299D01*
X668532Y715209D01*
X668571Y715118D01*
X668609Y715040D01*
X668642Y714969D01*
X668681Y714911D01*
X668713Y714852D01*
X668745Y714807D01*
X668778Y714768D01*
X668804Y714736D01*
X668823Y714716D01*
X668843Y714697D01*
X668849Y714690D01*
X668856Y714684D01*
X668914Y714632D01*
X668979Y714593D01*
X669108Y714522D01*
X669244Y714477D01*
X669367Y714438D01*
X669484Y714418D01*
X669529Y714412D01*
X669568D01*
X669607Y714406D01*
X669652D01*
X669769Y714412D01*
X669885Y714425D01*
X669989Y714451D01*
X670093Y714477D01*
X670183Y714516D01*
X670267Y714555D01*
X670345Y714600D01*
X670416Y714645D01*
X670481Y714684D01*
X670540Y714729D01*
X670585Y714768D01*
X670624Y714807D01*
X670656Y714833D01*
X670676Y714859D01*
X670688Y714872D01*
X670695Y714878D01*
X670766Y714976D01*
X670825Y715086D01*
X670876Y715209D01*
X670922Y715338D01*
X670954Y715468D01*
X670986Y715604D01*
X671032Y715876D01*
X671051Y715999D01*
X671064Y716122D01*
X671071Y716226D01*
X671077Y716323D01*
X671084Y716400D01*
Y716459D01*
Y716498D01*
Y716510D01*
X671077Y716698D01*
X671064Y716873D01*
X671051Y717035D01*
X671025Y717184D01*
X670993Y717314D01*
X670961Y717437D01*
X670928Y717547D01*
X670889Y717644D01*
X670857Y717728D01*
X670825Y717800D01*
X670792Y717858D01*
X670760Y717910D01*
X670734Y717948D01*
X670721Y717974D01*
X670708Y717987D01*
X670702Y717994D01*
X670624Y718072D01*
X670546Y718143D01*
X670462Y718201D01*
X670378Y718253D01*
X670294Y718298D01*
X670209Y718331D01*
X670125Y718363D01*
X670041Y718382D01*
X669970Y718402D01*
X669898Y718415D01*
X669834Y718428D01*
X669782Y718434D01*
X669736Y718441D01*
X669672D01*
X669503Y718428D01*
X669348Y718402D01*
X669212Y718356D01*
X669102Y718311D01*
X669011Y718266D01*
X668940Y718221D01*
X668920Y718207D01*
X668901Y718195D01*
X668894Y718182D01*
X668888D01*
X668784Y718072D01*
X668700Y717955D01*
X668629Y717825D01*
X668577Y717702D01*
X668538Y717592D01*
X668525Y717540D01*
X668512Y717502D01*
X668506Y717463D01*
X668499Y717437D01*
X668493Y717424D01*
Y717417D01*
X666802Y717722D01*
X666867Y717910D01*
X666932Y718091D01*
X667010Y718253D01*
X667094Y718402D01*
X667171Y718544D01*
X667256Y718674D01*
X667340Y718790D01*
X667424Y718888D01*
X667502Y718978D01*
X667573Y719062D01*
X667638Y719127D01*
X667696Y719179D01*
X667748Y719224D01*
X667780Y719250D01*
X667806Y719270D01*
X667813Y719276D01*
X667949Y719367D01*
X668091Y719445D01*
X668247Y719516D01*
X668402Y719574D01*
X668558Y719626D01*
X668719Y719671D01*
X668868Y719704D01*
X669017Y719730D01*
X669154Y719749D01*
X669283Y719769D01*
X669400Y719781D01*
X669503Y719788D01*
X669581Y719794D01*
X669698D01*
X669963Y719781D01*
D02*
G37*
G36*
X677191D02*
X677418Y719755D01*
X677632Y719710D01*
X677833Y719652D01*
X678020Y719581D01*
X678195Y719503D01*
X678357Y719419D01*
X678506Y719334D01*
X678636Y719250D01*
X678752Y719166D01*
X678856Y719088D01*
X678940Y719017D01*
X679005Y718959D01*
X679050Y718913D01*
X679076Y718888D01*
X679089Y718875D01*
X679238Y718693D01*
X679368Y718505D01*
X679478Y718305D01*
X679575Y718097D01*
X679659Y717884D01*
X679724Y717676D01*
X679782Y717469D01*
X679828Y717268D01*
X679860Y717081D01*
X679886Y716906D01*
X679905Y716750D01*
X679918Y716614D01*
X679925Y716556D01*
Y716504D01*
Y716459D01*
X679931Y716420D01*
Y716387D01*
Y716368D01*
Y716355D01*
Y716349D01*
X679925Y716103D01*
X679905Y715863D01*
X679873Y715636D01*
X679828Y715429D01*
X679782Y715228D01*
X679730Y715047D01*
X679672Y714878D01*
X679607Y714723D01*
X679549Y714580D01*
X679491Y714457D01*
X679439Y714354D01*
X679387Y714269D01*
X679348Y714198D01*
X679316Y714146D01*
X679296Y714120D01*
X679290Y714108D01*
X679128Y713913D01*
X678947Y713745D01*
X678759Y713596D01*
X678558Y713473D01*
X678351Y713363D01*
X678144Y713279D01*
X677936Y713201D01*
X677736Y713142D01*
X677541Y713097D01*
X677360Y713065D01*
X677204Y713039D01*
X677062Y713026D01*
X676997Y713019D01*
X676945Y713013D01*
X676900D01*
X676855Y713007D01*
X676783D01*
X676589Y713013D01*
X676401Y713026D01*
X676220Y713052D01*
X676051Y713084D01*
X675896Y713117D01*
X675747Y713162D01*
X675618Y713207D01*
X675495Y713253D01*
X675384Y713298D01*
X675281Y713337D01*
X675203Y713382D01*
X675132Y713415D01*
X675073Y713447D01*
X675035Y713473D01*
X675009Y713486D01*
X675002Y713492D01*
X674873Y713589D01*
X674750Y713693D01*
X674640Y713810D01*
X674536Y713926D01*
X674445Y714043D01*
X674354Y714166D01*
X674277Y714282D01*
X674212Y714399D01*
X674147Y714503D01*
X674096Y714606D01*
X674050Y714697D01*
X674018Y714775D01*
X673985Y714839D01*
X673966Y714891D01*
X673959Y714917D01*
X673953Y714930D01*
X675663Y715215D01*
X675721Y715040D01*
X675786Y714898D01*
X675857Y714775D01*
X675928Y714678D01*
X675987Y714600D01*
X676039Y714548D01*
X676071Y714516D01*
X676077Y714503D01*
X676084D01*
X676194Y714431D01*
X676304Y714380D01*
X676421Y714341D01*
X676524Y714315D01*
X676621Y714302D01*
X676693Y714295D01*
X676725Y714289D01*
X676764D01*
X676874Y714295D01*
X676978Y714308D01*
X677075Y714328D01*
X677172Y714354D01*
X677340Y714425D01*
X677418Y714457D01*
X677483Y714503D01*
X677548Y714541D01*
X677599Y714574D01*
X677651Y714613D01*
X677690Y714645D01*
X677723Y714671D01*
X677742Y714690D01*
X677755Y714703D01*
X677761Y714710D01*
X677833Y714794D01*
X677891Y714885D01*
X677943Y714982D01*
X677995Y715079D01*
X678034Y715176D01*
X678066Y715273D01*
X678111Y715468D01*
X678131Y715558D01*
X678144Y715636D01*
X678157Y715714D01*
X678163Y715779D01*
Y715830D01*
X678169Y715869D01*
Y715895D01*
Y715902D01*
X673862D01*
X673869Y716258D01*
X673888Y716595D01*
X673927Y716906D01*
X673972Y717191D01*
X674037Y717456D01*
X674102Y717696D01*
X674180Y717916D01*
X674257Y718110D01*
X674335Y718279D01*
X674406Y718428D01*
X674478Y718551D01*
X674542Y718654D01*
X674594Y718732D01*
X674633Y718790D01*
X674665Y718823D01*
X674672Y718836D01*
X674834Y719004D01*
X675009Y719153D01*
X675190Y719283D01*
X675378Y719393D01*
X675572Y719483D01*
X675760Y719561D01*
X675948Y719626D01*
X676123Y719678D01*
X676291Y719717D01*
X676453Y719743D01*
X676589Y719769D01*
X676712Y719781D01*
X676816Y719788D01*
X676855D01*
X676887Y719794D01*
X676952D01*
X677191Y719781D01*
D02*
G37*
G36*
X687697Y720604D02*
X685035D01*
Y713155D01*
X683228D01*
Y720604D01*
X680573D01*
Y722120D01*
X687697D01*
Y720604D01*
D02*
G37*
G36*
X704868Y722262D02*
X705062Y722256D01*
X705250Y722236D01*
X705431Y722210D01*
X705600Y722184D01*
X705761Y722159D01*
X705904Y722126D01*
X706040Y722094D01*
X706163Y722055D01*
X706273Y722022D01*
X706370Y721997D01*
X706448Y721971D01*
X706513Y721945D01*
X706558Y721925D01*
X706584Y721919D01*
X706597Y721912D01*
X706714Y721861D01*
X706830Y721802D01*
X707044Y721673D01*
X707245Y721537D01*
X707335Y721472D01*
X707420Y721407D01*
X707491Y721349D01*
X707562Y721291D01*
X707620Y721239D01*
X707672Y721193D01*
X707711Y721154D01*
X707737Y721129D01*
X707756Y721109D01*
X707763Y721103D01*
X707951Y720895D01*
X708113Y720682D01*
X708255Y720474D01*
X708372Y720287D01*
X708424Y720196D01*
X708469Y720118D01*
X708508Y720047D01*
X708534Y719989D01*
X708560Y719937D01*
X708579Y719904D01*
X708586Y719879D01*
X708592Y719872D01*
X708663Y719691D01*
X708728Y719509D01*
X708780Y719315D01*
X708825Y719121D01*
X708864Y718933D01*
X708903Y718739D01*
X708929Y718557D01*
X708948Y718376D01*
X708968Y718214D01*
X708981Y718058D01*
X708987Y717923D01*
X708994Y717806D01*
X709000Y717709D01*
Y717670D01*
Y717637D01*
Y717612D01*
Y717592D01*
Y717586D01*
Y717579D01*
X708994Y717378D01*
X708987Y717191D01*
X708948Y716821D01*
X708890Y716472D01*
X708819Y716148D01*
X708728Y715850D01*
X708624Y715571D01*
X708521Y715319D01*
X708411Y715092D01*
X708300Y714891D01*
X708249Y714801D01*
X708197Y714716D01*
X708145Y714639D01*
X708093Y714567D01*
X708048Y714503D01*
X708002Y714444D01*
X707964Y714393D01*
X707931Y714347D01*
X707899Y714308D01*
X707873Y714276D01*
X707847Y714250D01*
X707834Y714231D01*
X707821Y714224D01*
Y714218D01*
X707711Y714108D01*
X707588Y714004D01*
X707471Y713907D01*
X707348Y713816D01*
X707089Y713654D01*
X706824Y713512D01*
X706558Y713395D01*
X706299Y713298D01*
X706040Y713214D01*
X705787Y713155D01*
X705554Y713104D01*
X705334Y713065D01*
X705237Y713052D01*
X705140Y713039D01*
X705055Y713026D01*
X704971Y713019D01*
X704900Y713013D01*
X704835Y713007D01*
X704777D01*
X704732Y713000D01*
X704641D01*
X704460Y713007D01*
X704278Y713013D01*
X703935Y713052D01*
X703618Y713110D01*
X703313Y713194D01*
X703035Y713285D01*
X702776Y713389D01*
X702536Y713499D01*
X702322Y713615D01*
X702134Y713725D01*
X701966Y713836D01*
X701817Y713939D01*
X701700Y714036D01*
X701649Y714075D01*
X701610Y714114D01*
X701571Y714146D01*
X701538Y714172D01*
X701519Y714192D01*
X701500Y714211D01*
X701493Y714218D01*
X701487Y714224D01*
X701377Y714341D01*
X701279Y714464D01*
X701182Y714593D01*
X701098Y714723D01*
X700936Y714995D01*
X700800Y715273D01*
X700684Y715552D01*
X700593Y715837D01*
X700515Y716115D01*
X700450Y716381D01*
X700398Y716634D01*
X700366Y716867D01*
X700347Y716977D01*
X700340Y717081D01*
X700327Y717171D01*
X700321Y717262D01*
X700314Y717340D01*
X700308Y717411D01*
Y717469D01*
X700301Y717521D01*
Y717566D01*
Y717592D01*
Y717612D01*
Y717618D01*
Y717819D01*
X700314Y718020D01*
X700353Y718395D01*
X700412Y718745D01*
X700489Y719075D01*
X700580Y719380D01*
X700677Y719665D01*
X700787Y719917D01*
X700897Y720151D01*
X700956Y720254D01*
X701007Y720351D01*
X701066Y720449D01*
X701117Y720533D01*
X701169Y720611D01*
X701215Y720688D01*
X701260Y720753D01*
X701305Y720811D01*
X701344Y720863D01*
X701383Y720908D01*
X701415Y720947D01*
X701441Y720980D01*
X701461Y721006D01*
X701480Y721025D01*
X701487Y721031D01*
X701493Y721038D01*
X701610Y721148D01*
X701726Y721252D01*
X701849Y721355D01*
X701973Y721446D01*
X702232Y721608D01*
X702491Y721750D01*
X702756Y721867D01*
X703022Y721971D01*
X703281Y722048D01*
X703527Y722113D01*
X703760Y722165D01*
X703974Y722204D01*
X704078Y722217D01*
X704168Y722230D01*
X704259Y722243D01*
X704337Y722249D01*
X704414Y722256D01*
X704479Y722262D01*
X704531D01*
X704576Y722269D01*
X704667D01*
X704868Y722262D01*
D02*
G37*
G36*
X600159Y709724D02*
X600215Y709630D01*
X600342Y709447D01*
X600480Y709276D01*
X600552Y709193D01*
X600619Y709115D01*
X600685Y709049D01*
X600746Y708982D01*
X600802Y708927D01*
X600851Y708877D01*
X600890Y708838D01*
X600918Y708811D01*
X600940Y708794D01*
X600945Y708789D01*
X601172Y708600D01*
X601411Y708429D01*
X601643Y708274D01*
X601754Y708207D01*
X601859Y708141D01*
X601953Y708085D01*
X602042Y708036D01*
X602125Y707991D01*
X602191Y707958D01*
X602247Y707930D01*
X602291Y707908D01*
X602313Y707897D01*
X602324Y707892D01*
Y706983D01*
X602158Y707050D01*
X601986Y707127D01*
X601820Y707205D01*
X601665Y707282D01*
X601599Y707321D01*
X601532Y707355D01*
X601477Y707388D01*
X601433Y707415D01*
X601394Y707432D01*
X601361Y707449D01*
X601344Y707460D01*
X601339Y707465D01*
X601139Y707587D01*
X601051Y707648D01*
X600962Y707703D01*
X600885Y707764D01*
X600812Y707814D01*
X600746Y707869D01*
X600680Y707914D01*
X600630Y707958D01*
X600580Y707997D01*
X600536Y708036D01*
X600503Y708063D01*
X600475Y708085D01*
X600458Y708102D01*
X600447Y708113D01*
X600442Y708119D01*
Y702127D01*
X599500D01*
Y709818D01*
X600109D01*
X600159Y709724D01*
D02*
G37*
G36*
X694740Y704425D02*
X691839D01*
Y705372D01*
X694740D01*
Y704425D01*
D02*
G37*
G36*
X645974D02*
X643073D01*
Y705372D01*
X645974D01*
Y704425D01*
D02*
G37*
G36*
X620403D02*
X617502D01*
Y705372D01*
X620403D01*
Y704425D01*
D02*
G37*
G36*
X676417Y702127D02*
X675443D01*
Y708141D01*
X671429Y702127D01*
X670382D01*
Y709791D01*
X671357D01*
Y703772D01*
X675377Y709791D01*
X676417D01*
Y702127D01*
D02*
G37*
G36*
X631644Y709918D02*
X631826Y709902D01*
X632004Y709879D01*
X632175Y709852D01*
X632336Y709818D01*
X632491Y709774D01*
X632635Y709735D01*
X632768Y709691D01*
X632884Y709647D01*
X632995Y709608D01*
X633089Y709569D01*
X633166Y709531D01*
X633233Y709503D01*
X633277Y709481D01*
X633305Y709464D01*
X633316Y709459D01*
X633471Y709364D01*
X633615Y709265D01*
X633748Y709160D01*
X633875Y709049D01*
X633991Y708938D01*
X634097Y708827D01*
X634196Y708711D01*
X634279Y708606D01*
X634357Y708506D01*
X634429Y708407D01*
X634484Y708324D01*
X634534Y708251D01*
X634567Y708185D01*
X634595Y708141D01*
X634612Y708113D01*
X634617Y708102D01*
X634695Y707930D01*
X634767Y707759D01*
X634828Y707581D01*
X634877Y707404D01*
X634922Y707227D01*
X634961Y707050D01*
X634988Y706884D01*
X635016Y706729D01*
X635032Y706579D01*
X635049Y706441D01*
X635055Y706319D01*
X635066Y706214D01*
Y706131D01*
X635071Y706097D01*
Y706070D01*
Y706048D01*
Y706031D01*
Y706020D01*
Y706014D01*
X635066Y705810D01*
X635055Y705610D01*
X635032Y705416D01*
X635010Y705234D01*
X634977Y705051D01*
X634944Y704885D01*
X634905Y704724D01*
X634866Y704575D01*
X634833Y704442D01*
X634794Y704320D01*
X634761Y704215D01*
X634728Y704126D01*
X634706Y704054D01*
X634684Y704005D01*
X634673Y703971D01*
X634667Y703966D01*
Y703960D01*
X634590Y703789D01*
X634501Y703622D01*
X634407Y703473D01*
X634313Y703329D01*
X634213Y703202D01*
X634113Y703080D01*
X634019Y702974D01*
X633925Y702875D01*
X633836Y702786D01*
X633753Y702714D01*
X633681Y702648D01*
X633615Y702598D01*
X633559Y702559D01*
X633521Y702526D01*
X633499Y702509D01*
X633488Y702504D01*
X633338Y702415D01*
X633177Y702338D01*
X633011Y702271D01*
X632845Y702210D01*
X632679Y702166D01*
X632508Y702122D01*
X632347Y702089D01*
X632186Y702061D01*
X632042Y702044D01*
X631904Y702028D01*
X631782Y702017D01*
X631677Y702005D01*
X631594D01*
X631555Y702000D01*
X631472D01*
X631250Y702005D01*
X631040Y702028D01*
X630841Y702061D01*
X630647Y702100D01*
X630470Y702150D01*
X630304Y702205D01*
X630149Y702266D01*
X630010Y702327D01*
X629883Y702388D01*
X629772Y702449D01*
X629672Y702504D01*
X629595Y702554D01*
X629529Y702592D01*
X629484Y702626D01*
X629456Y702648D01*
X629445Y702653D01*
X629296Y702786D01*
X629157Y702925D01*
X629030Y703074D01*
X628914Y703229D01*
X628809Y703390D01*
X628714Y703545D01*
X628631Y703700D01*
X628559Y703855D01*
X628493Y703999D01*
X628438Y704132D01*
X628393Y704248D01*
X628355Y704353D01*
X628327Y704436D01*
X628316Y704475D01*
X628310Y704503D01*
X628305Y704525D01*
X628299Y704542D01*
X628294Y704553D01*
Y704558D01*
X629307Y704813D01*
X629351Y704636D01*
X629401Y704475D01*
X629456Y704320D01*
X629523Y704182D01*
X629584Y704049D01*
X629656Y703927D01*
X629722Y703822D01*
X629789Y703722D01*
X629850Y703639D01*
X629911Y703561D01*
X629966Y703501D01*
X630016Y703451D01*
X630055Y703406D01*
X630082Y703379D01*
X630104Y703362D01*
X630110Y703357D01*
X630226Y703273D01*
X630342Y703196D01*
X630464Y703130D01*
X630586Y703074D01*
X630708Y703030D01*
X630830Y702991D01*
X630946Y702958D01*
X631057Y702930D01*
X631156Y702908D01*
X631256Y702897D01*
X631339Y702886D01*
X631411Y702875D01*
X631472D01*
X631516Y702869D01*
X631555D01*
X631682Y702875D01*
X631810Y702886D01*
X631932Y702903D01*
X632053Y702925D01*
X632164Y702952D01*
X632275Y702986D01*
X632375Y703013D01*
X632469Y703052D01*
X632552Y703085D01*
X632629Y703113D01*
X632696Y703146D01*
X632751Y703174D01*
X632795Y703196D01*
X632829Y703213D01*
X632851Y703224D01*
X632856Y703229D01*
X632967Y703301D01*
X633067Y703379D01*
X633161Y703462D01*
X633250Y703550D01*
X633327Y703639D01*
X633399Y703733D01*
X633465Y703822D01*
X633526Y703905D01*
X633576Y703988D01*
X633620Y704065D01*
X633659Y704137D01*
X633687Y704198D01*
X633715Y704248D01*
X633731Y704281D01*
X633737Y704309D01*
X633742Y704314D01*
X633792Y704453D01*
X633836Y704597D01*
X633875Y704741D01*
X633903Y704890D01*
X633958Y705173D01*
X633975Y705311D01*
X633991Y705444D01*
X634002Y705560D01*
X634008Y705671D01*
X634014Y705771D01*
X634019Y705854D01*
X634025Y705926D01*
Y705976D01*
Y706009D01*
Y706020D01*
X634019Y706164D01*
X634014Y706302D01*
X633986Y706568D01*
X633969Y706695D01*
X633947Y706817D01*
X633925Y706934D01*
X633903Y707039D01*
X633881Y707139D01*
X633864Y707227D01*
X633842Y707305D01*
X633825Y707371D01*
X633809Y707421D01*
X633798Y707460D01*
X633787Y707487D01*
Y707493D01*
X633737Y707626D01*
X633681Y707748D01*
X633620Y707864D01*
X633554Y707969D01*
X633488Y708074D01*
X633421Y708168D01*
X633349Y708251D01*
X633283Y708329D01*
X633216Y708395D01*
X633155Y708456D01*
X633100Y708506D01*
X633050Y708550D01*
X633011Y708584D01*
X632984Y708611D01*
X632962Y708623D01*
X632956Y708628D01*
X632840Y708706D01*
X632718Y708766D01*
X632596Y708827D01*
X632474Y708877D01*
X632347Y708916D01*
X632225Y708949D01*
X632109Y708977D01*
X631992Y708999D01*
X631887Y709021D01*
X631788Y709032D01*
X631699Y709043D01*
X631622Y709049D01*
X631561Y709054D01*
X631478D01*
X631334Y709049D01*
X631201Y709038D01*
X631073Y709021D01*
X630951Y708994D01*
X630841Y708966D01*
X630736Y708933D01*
X630641Y708899D01*
X630553Y708866D01*
X630475Y708827D01*
X630403Y708794D01*
X630342Y708761D01*
X630293Y708733D01*
X630254Y708706D01*
X630226Y708689D01*
X630210Y708678D01*
X630204Y708672D01*
X630110Y708595D01*
X630021Y708512D01*
X629944Y708418D01*
X629866Y708324D01*
X629794Y708218D01*
X629733Y708119D01*
X629672Y708019D01*
X629623Y707919D01*
X629578Y707825D01*
X629534Y707737D01*
X629501Y707659D01*
X629473Y707593D01*
X629451Y707532D01*
X629434Y707493D01*
X629429Y707465D01*
X629423Y707454D01*
X628427Y707687D01*
X628488Y707880D01*
X628565Y708063D01*
X628643Y708235D01*
X628731Y708395D01*
X628820Y708539D01*
X628908Y708678D01*
X629002Y708800D01*
X629091Y708910D01*
X629180Y709010D01*
X629257Y709093D01*
X629329Y709171D01*
X629396Y709226D01*
X629445Y709276D01*
X629490Y709309D01*
X629512Y709331D01*
X629523Y709337D01*
X629672Y709442D01*
X629827Y709531D01*
X629994Y709608D01*
X630154Y709675D01*
X630315Y709735D01*
X630475Y709780D01*
X630630Y709818D01*
X630780Y709852D01*
X630924Y709874D01*
X631051Y709891D01*
X631162Y709907D01*
X631262Y709913D01*
X631345Y709918D01*
X631378Y709924D01*
X631455D01*
X631644Y709918D01*
D02*
G37*
G36*
X708500Y708888D02*
X705975D01*
Y702127D01*
X704962D01*
Y708888D01*
X702426D01*
Y709791D01*
X708500D01*
Y708888D01*
D02*
G37*
G36*
X701385Y702127D02*
X700371D01*
Y705245D01*
X698262D01*
X698118Y705250D01*
X697979Y705261D01*
X697846Y705273D01*
X697719Y705289D01*
X697597Y705306D01*
X697370Y705350D01*
X697171Y705400D01*
X696983Y705461D01*
X696822Y705522D01*
X696678Y705583D01*
X696551Y705643D01*
X696445Y705704D01*
X696357Y705765D01*
X696285Y705815D01*
X696230Y705859D01*
X696191Y705893D01*
X696169Y705915D01*
X696163Y705920D01*
X696052Y706048D01*
X695958Y706186D01*
X695875Y706324D01*
X695803Y706463D01*
X695742Y706601D01*
X695693Y706740D01*
X695648Y706873D01*
X695615Y707000D01*
X695587Y707116D01*
X695571Y707227D01*
X695554Y707321D01*
X695548Y707410D01*
X695543Y707476D01*
X695537Y707526D01*
Y707559D01*
Y707570D01*
X695548Y707781D01*
X695576Y707975D01*
X695593Y708069D01*
X695609Y708152D01*
X695632Y708235D01*
X695654Y708307D01*
X695676Y708373D01*
X695698Y708434D01*
X695715Y708490D01*
X695731Y708534D01*
X695748Y708567D01*
X695759Y708595D01*
X695764Y708611D01*
X695770Y708617D01*
X695864Y708783D01*
X695964Y708933D01*
X696069Y709060D01*
X696119Y709115D01*
X696163Y709165D01*
X696207Y709209D01*
X696252Y709248D01*
X696291Y709281D01*
X696324Y709304D01*
X696346Y709326D01*
X696368Y709342D01*
X696379Y709348D01*
X696385Y709353D01*
X696534Y709447D01*
X696695Y709520D01*
X696850Y709586D01*
X696999Y709636D01*
X697071Y709652D01*
X697132Y709669D01*
X697188Y709686D01*
X697237Y709697D01*
X697276Y709702D01*
X697304Y709708D01*
X697326Y709713D01*
X697331D01*
X697409Y709724D01*
X697498Y709741D01*
X697686Y709758D01*
X697880Y709774D01*
X698068Y709780D01*
X698157Y709785D01*
X698234D01*
X698312Y709791D01*
X701385D01*
Y702127D01*
D02*
G37*
G36*
X683522D02*
X677807D01*
Y703030D01*
X682508D01*
Y705638D01*
X678272D01*
Y706541D01*
X682508D01*
Y708888D01*
X677984D01*
Y709791D01*
X683522D01*
Y702127D01*
D02*
G37*
G36*
X653195D02*
X652181D01*
Y705533D01*
X650869D01*
X650752Y705527D01*
X650653Y705522D01*
X650575Y705516D01*
X650520Y705505D01*
X650476Y705499D01*
X650448Y705494D01*
X650443D01*
X650354Y705466D01*
X650271Y705439D01*
X650193Y705400D01*
X650127Y705367D01*
X650066Y705339D01*
X650022Y705311D01*
X649994Y705295D01*
X649983Y705289D01*
X649894Y705228D01*
X649806Y705151D01*
X649723Y705062D01*
X649640Y704979D01*
X649573Y704902D01*
X649518Y704835D01*
X649496Y704807D01*
X649479Y704791D01*
X649473Y704780D01*
X649468Y704774D01*
X649413Y704702D01*
X649352Y704625D01*
X649230Y704458D01*
X649108Y704281D01*
X648992Y704110D01*
X648942Y704032D01*
X648892Y703960D01*
X648848Y703894D01*
X648809Y703833D01*
X648781Y703789D01*
X648759Y703750D01*
X648743Y703728D01*
X648737Y703722D01*
X647724Y702127D01*
X646456D01*
X647779Y704209D01*
X647929Y704431D01*
X648006Y704530D01*
X648078Y704630D01*
X648150Y704719D01*
X648222Y704802D01*
X648288Y704879D01*
X648349Y704951D01*
X648405Y705018D01*
X648460Y705073D01*
X648504Y705117D01*
X648543Y705162D01*
X648576Y705189D01*
X648599Y705217D01*
X648615Y705228D01*
X648621Y705234D01*
X648709Y705306D01*
X648803Y705372D01*
X648903Y705439D01*
X649003Y705494D01*
X649091Y705544D01*
X649130Y705566D01*
X649163Y705583D01*
X649191Y705599D01*
X649213Y705605D01*
X649224Y705616D01*
X649230D01*
X649031Y705649D01*
X648842Y705688D01*
X648671Y705738D01*
X648510Y705787D01*
X648366Y705848D01*
X648228Y705904D01*
X648111Y705965D01*
X648001Y706025D01*
X647906Y706086D01*
X647829Y706142D01*
X647757Y706192D01*
X647701Y706236D01*
X647657Y706275D01*
X647624Y706302D01*
X647607Y706319D01*
X647602Y706324D01*
X647508Y706430D01*
X647425Y706546D01*
X647353Y706657D01*
X647292Y706773D01*
X647242Y706889D01*
X647198Y707006D01*
X647164Y707116D01*
X647137Y707222D01*
X647115Y707321D01*
X647098Y707410D01*
X647087Y707493D01*
X647076Y707559D01*
Y707620D01*
X647070Y707664D01*
Y707687D01*
Y707698D01*
X647076Y707814D01*
X647081Y707930D01*
X647098Y708041D01*
X647120Y708146D01*
X647142Y708246D01*
X647170Y708340D01*
X647203Y708429D01*
X647231Y708512D01*
X647259Y708584D01*
X647292Y708650D01*
X647319Y708711D01*
X647342Y708761D01*
X647364Y708800D01*
X647375Y708827D01*
X647386Y708844D01*
X647392Y708849D01*
X647452Y708944D01*
X647519Y709032D01*
X647591Y709110D01*
X647657Y709187D01*
X647729Y709254D01*
X647801Y709315D01*
X647873Y709364D01*
X647940Y709414D01*
X648001Y709453D01*
X648062Y709486D01*
X648111Y709520D01*
X648156Y709542D01*
X648194Y709558D01*
X648222Y709569D01*
X648239Y709580D01*
X648244D01*
X648349Y709619D01*
X648466Y709652D01*
X648587Y709680D01*
X648709Y709702D01*
X648970Y709741D01*
X649097Y709752D01*
X649219Y709763D01*
X649341Y709774D01*
X649446Y709780D01*
X649545Y709785D01*
X649634D01*
X649700Y709791D01*
X653195D01*
Y702127D01*
D02*
G37*
G36*
X641915D02*
X640902D01*
Y705245D01*
X638792D01*
X638648Y705250D01*
X638510Y705261D01*
X638377Y705273D01*
X638250Y705289D01*
X638128Y705306D01*
X637901Y705350D01*
X637701Y705400D01*
X637513Y705461D01*
X637352Y705522D01*
X637209Y705583D01*
X637081Y705643D01*
X636976Y705704D01*
X636887Y705765D01*
X636815Y705815D01*
X636760Y705859D01*
X636721Y705893D01*
X636699Y705915D01*
X636694Y705920D01*
X636583Y706048D01*
X636489Y706186D01*
X636406Y706324D01*
X636334Y706463D01*
X636273Y706601D01*
X636223Y706740D01*
X636179Y706873D01*
X636145Y707000D01*
X636118Y707116D01*
X636101Y707227D01*
X636085Y707321D01*
X636079Y707410D01*
X636073Y707476D01*
X636068Y707526D01*
Y707559D01*
Y707570D01*
X636079Y707781D01*
X636107Y707975D01*
X636123Y708069D01*
X636140Y708152D01*
X636162Y708235D01*
X636184Y708307D01*
X636206Y708373D01*
X636228Y708434D01*
X636245Y708490D01*
X636262Y708534D01*
X636278Y708567D01*
X636289Y708595D01*
X636295Y708611D01*
X636301Y708617D01*
X636395Y708783D01*
X636494Y708933D01*
X636600Y709060D01*
X636649Y709115D01*
X636694Y709165D01*
X636738Y709209D01*
X636782Y709248D01*
X636821Y709281D01*
X636854Y709304D01*
X636876Y709326D01*
X636898Y709342D01*
X636909Y709348D01*
X636915Y709353D01*
X637065Y709447D01*
X637225Y709520D01*
X637380Y709586D01*
X637530Y709636D01*
X637602Y709652D01*
X637663Y709669D01*
X637718Y709686D01*
X637768Y709697D01*
X637807Y709702D01*
X637834Y709708D01*
X637856Y709713D01*
X637862D01*
X637939Y709724D01*
X638028Y709741D01*
X638216Y709758D01*
X638410Y709774D01*
X638598Y709780D01*
X638687Y709785D01*
X638764D01*
X638842Y709791D01*
X641915D01*
Y702127D01*
D02*
G37*
G36*
X627087D02*
X624036D01*
X623903Y702133D01*
X623781Y702138D01*
X623665Y702150D01*
X623559Y702155D01*
X623454Y702166D01*
X623360Y702177D01*
X623277Y702194D01*
X623199Y702205D01*
X623133Y702216D01*
X623072Y702227D01*
X623022Y702233D01*
X622984Y702244D01*
X622956Y702249D01*
X622939Y702255D01*
X622934D01*
X622751Y702310D01*
X622590Y702365D01*
X622446Y702432D01*
X622385Y702460D01*
X622325Y702493D01*
X622275Y702521D01*
X622230Y702548D01*
X622192Y702570D01*
X622158Y702592D01*
X622131Y702609D01*
X622114Y702620D01*
X622103Y702631D01*
X622098D01*
X621976Y702731D01*
X621870Y702847D01*
X621776Y702963D01*
X621693Y703080D01*
X621627Y703179D01*
X621599Y703224D01*
X621577Y703262D01*
X621560Y703296D01*
X621549Y703318D01*
X621538Y703335D01*
Y703340D01*
X621461Y703517D01*
X621405Y703694D01*
X621361Y703866D01*
X621333Y704021D01*
X621322Y704088D01*
X621317Y704154D01*
X621311Y704209D01*
Y704254D01*
X621306Y704292D01*
Y704326D01*
Y704342D01*
Y704348D01*
X621311Y704470D01*
X621322Y704586D01*
X621339Y704702D01*
X621367Y704807D01*
X621394Y704913D01*
X621422Y705007D01*
X621461Y705095D01*
X621494Y705178D01*
X621527Y705250D01*
X621560Y705317D01*
X621594Y705372D01*
X621621Y705416D01*
X621649Y705455D01*
X621666Y705483D01*
X621677Y705499D01*
X621682Y705505D01*
X621754Y705594D01*
X621832Y705677D01*
X621920Y705754D01*
X622003Y705821D01*
X622092Y705887D01*
X622181Y705943D01*
X622269Y705992D01*
X622358Y706037D01*
X622435Y706081D01*
X622513Y706114D01*
X622579Y706142D01*
X622635Y706164D01*
X622685Y706181D01*
X622718Y706192D01*
X622745Y706203D01*
X622751D01*
X622651Y706253D01*
X622563Y706308D01*
X622480Y706363D01*
X622397Y706424D01*
X622325Y706485D01*
X622258Y706541D01*
X622203Y706596D01*
X622147Y706651D01*
X622103Y706701D01*
X622059Y706751D01*
X622026Y706790D01*
X621998Y706828D01*
X621976Y706862D01*
X621959Y706884D01*
X621954Y706895D01*
X621948Y706900D01*
X621898Y706983D01*
X621859Y707066D01*
X621821Y707144D01*
X621793Y707227D01*
X621743Y707382D01*
X621710Y707526D01*
X621699Y707587D01*
X621693Y707648D01*
X621682Y707698D01*
Y707742D01*
X621677Y707775D01*
Y707803D01*
Y707820D01*
Y707825D01*
X621682Y707925D01*
X621688Y708019D01*
X621726Y708207D01*
X621771Y708379D01*
X621799Y708456D01*
X621826Y708534D01*
X621859Y708600D01*
X621887Y708656D01*
X621909Y708711D01*
X621931Y708755D01*
X621954Y708789D01*
X621970Y708816D01*
X621976Y708833D01*
X621981Y708838D01*
X622042Y708927D01*
X622103Y709010D01*
X622169Y709082D01*
X622236Y709154D01*
X622308Y709221D01*
X622374Y709276D01*
X622441Y709331D01*
X622507Y709376D01*
X622568Y709420D01*
X622629Y709453D01*
X622679Y709486D01*
X622723Y709508D01*
X622762Y709531D01*
X622790Y709542D01*
X622806Y709553D01*
X622812D01*
X622911Y709597D01*
X623022Y709630D01*
X623255Y709691D01*
X623487Y709735D01*
X623604Y709746D01*
X623714Y709763D01*
X623814Y709769D01*
X623914Y709780D01*
X623997Y709785D01*
X624074D01*
X624135Y709791D01*
X627087D01*
Y702127D01*
D02*
G37*
G36*
X616328D02*
X615314D01*
Y705533D01*
X614002D01*
X613886Y705527D01*
X613786Y705522D01*
X613709Y705516D01*
X613653Y705505D01*
X613609Y705499D01*
X613581Y705494D01*
X613576D01*
X613487Y705466D01*
X613404Y705439D01*
X613327Y705400D01*
X613260Y705367D01*
X613199Y705339D01*
X613155Y705311D01*
X613127Y705295D01*
X613116Y705289D01*
X613028Y705228D01*
X612939Y705151D01*
X612856Y705062D01*
X612773Y704979D01*
X612706Y704902D01*
X612651Y704835D01*
X612629Y704807D01*
X612612Y704791D01*
X612607Y704780D01*
X612601Y704774D01*
X612546Y704702D01*
X612485Y704625D01*
X612363Y704458D01*
X612241Y704281D01*
X612125Y704110D01*
X612075Y704032D01*
X612025Y703960D01*
X611981Y703894D01*
X611942Y703833D01*
X611915Y703789D01*
X611893Y703750D01*
X611876Y703728D01*
X611870Y703722D01*
X610857Y702127D01*
X609589D01*
X610912Y704209D01*
X611062Y704431D01*
X611139Y704530D01*
X611211Y704630D01*
X611283Y704719D01*
X611355Y704802D01*
X611422Y704879D01*
X611483Y704951D01*
X611538Y705018D01*
X611594Y705073D01*
X611638Y705117D01*
X611676Y705162D01*
X611710Y705189D01*
X611732Y705217D01*
X611749Y705228D01*
X611754Y705234D01*
X611843Y705306D01*
X611937Y705372D01*
X612036Y705439D01*
X612136Y705494D01*
X612225Y705544D01*
X612263Y705566D01*
X612297Y705583D01*
X612324Y705599D01*
X612346Y705605D01*
X612358Y705616D01*
X612363D01*
X612164Y705649D01*
X611976Y705688D01*
X611804Y705738D01*
X611643Y705787D01*
X611499Y705848D01*
X611361Y705904D01*
X611245Y705965D01*
X611134Y706025D01*
X611040Y706086D01*
X610962Y706142D01*
X610890Y706192D01*
X610835Y706236D01*
X610791Y706275D01*
X610757Y706302D01*
X610741Y706319D01*
X610735Y706324D01*
X610641Y706430D01*
X610558Y706546D01*
X610486Y706657D01*
X610425Y706773D01*
X610375Y706889D01*
X610331Y707006D01*
X610298Y707116D01*
X610270Y707222D01*
X610248Y707321D01*
X610231Y707410D01*
X610220Y707493D01*
X610209Y707559D01*
Y707620D01*
X610204Y707664D01*
Y707687D01*
Y707698D01*
X610209Y707814D01*
X610215Y707930D01*
X610231Y708041D01*
X610253Y708146D01*
X610276Y708246D01*
X610303Y708340D01*
X610336Y708429D01*
X610364Y708512D01*
X610392Y708584D01*
X610425Y708650D01*
X610453Y708711D01*
X610475Y708761D01*
X610497Y708800D01*
X610508Y708827D01*
X610519Y708844D01*
X610525Y708849D01*
X610586Y708944D01*
X610652Y709032D01*
X610724Y709110D01*
X610791Y709187D01*
X610863Y709254D01*
X610934Y709315D01*
X611007Y709364D01*
X611073Y709414D01*
X611134Y709453D01*
X611195Y709486D01*
X611245Y709520D01*
X611289Y709542D01*
X611328Y709558D01*
X611355Y709569D01*
X611372Y709580D01*
X611377D01*
X611483Y709619D01*
X611599Y709652D01*
X611721Y709680D01*
X611843Y709702D01*
X612103Y709741D01*
X612230Y709752D01*
X612352Y709763D01*
X612474Y709774D01*
X612579Y709780D01*
X612679Y709785D01*
X612767D01*
X612834Y709791D01*
X616328D01*
Y702127D01*
D02*
G37*
G36*
X688184Y709918D02*
X688322Y709913D01*
X688455Y709902D01*
X688588Y709885D01*
X688710Y709863D01*
X688826Y709841D01*
X688932Y709818D01*
X689031Y709791D01*
X689125Y709769D01*
X689208Y709741D01*
X689275Y709719D01*
X689336Y709702D01*
X689386Y709680D01*
X689419Y709669D01*
X689441Y709663D01*
X689446Y709658D01*
X689563Y709608D01*
X689668Y709553D01*
X689768Y709492D01*
X689862Y709431D01*
X689950Y709364D01*
X690028Y709304D01*
X690100Y709237D01*
X690161Y709176D01*
X690216Y709121D01*
X690266Y709065D01*
X690310Y709021D01*
X690343Y708977D01*
X690371Y708944D01*
X690388Y708916D01*
X690399Y708899D01*
X690404Y708894D01*
X690460Y708800D01*
X690510Y708700D01*
X690554Y708606D01*
X690593Y708512D01*
X690626Y708418D01*
X690654Y708329D01*
X690670Y708246D01*
X690692Y708163D01*
X690703Y708085D01*
X690714Y708019D01*
X690720Y707958D01*
X690726Y707908D01*
X690731Y707864D01*
Y707836D01*
Y707814D01*
Y707809D01*
X690726Y707709D01*
X690720Y707615D01*
X690687Y707438D01*
X690648Y707277D01*
X690620Y707205D01*
X690598Y707133D01*
X690571Y707072D01*
X690548Y707017D01*
X690526Y706972D01*
X690504Y706934D01*
X690488Y706900D01*
X690476Y706878D01*
X690471Y706862D01*
X690465Y706856D01*
X690410Y706779D01*
X690355Y706701D01*
X690222Y706563D01*
X690089Y706441D01*
X689956Y706341D01*
X689890Y706297D01*
X689834Y706258D01*
X689779Y706219D01*
X689734Y706192D01*
X689696Y706170D01*
X689668Y706153D01*
X689651Y706147D01*
X689646Y706142D01*
X689557Y706097D01*
X689463Y706059D01*
X689352Y706014D01*
X689236Y705970D01*
X688992Y705887D01*
X688749Y705815D01*
X688638Y705782D01*
X688527Y705754D01*
X688428Y705726D01*
X688345Y705704D01*
X688273Y705688D01*
X688217Y705671D01*
X688201Y705666D01*
X688184D01*
X688178Y705660D01*
X688173D01*
X687985Y705616D01*
X687813Y705572D01*
X687652Y705533D01*
X687514Y705494D01*
X687387Y705461D01*
X687276Y705433D01*
X687182Y705405D01*
X687093Y705378D01*
X687021Y705356D01*
X686960Y705339D01*
X686916Y705322D01*
X686877Y705311D01*
X686844Y705300D01*
X686827Y705295D01*
X686816Y705289D01*
X686811D01*
X686722Y705250D01*
X686645Y705217D01*
X686567Y705178D01*
X686501Y705140D01*
X686434Y705101D01*
X686379Y705062D01*
X686329Y705023D01*
X686285Y704990D01*
X686246Y704957D01*
X686213Y704924D01*
X686157Y704874D01*
X686130Y704841D01*
X686119Y704835D01*
Y704829D01*
X686047Y704724D01*
X685991Y704619D01*
X685953Y704514D01*
X685930Y704420D01*
X685914Y704331D01*
X685908Y704298D01*
Y704265D01*
X685903Y704237D01*
Y704220D01*
Y704209D01*
Y704204D01*
X685914Y704076D01*
X685936Y703949D01*
X685975Y703838D01*
X686013Y703744D01*
X686052Y703661D01*
X686074Y703628D01*
X686091Y703600D01*
X686102Y703578D01*
X686113Y703561D01*
X686124Y703550D01*
Y703545D01*
X686213Y703440D01*
X686318Y703345D01*
X686429Y703262D01*
X686534Y703196D01*
X686634Y703146D01*
X686672Y703124D01*
X686711Y703107D01*
X686739Y703091D01*
X686761Y703080D01*
X686778Y703074D01*
X686783D01*
X686955Y703019D01*
X687126Y702974D01*
X687298Y702947D01*
X687459Y702925D01*
X687531Y702919D01*
X687597Y702914D01*
X687652Y702908D01*
X687702D01*
X687747Y702903D01*
X687802D01*
X688040Y702914D01*
X688261Y702936D01*
X688367Y702958D01*
X688461Y702974D01*
X688555Y702997D01*
X688638Y703019D01*
X688710Y703035D01*
X688782Y703058D01*
X688837Y703080D01*
X688887Y703096D01*
X688926Y703107D01*
X688959Y703119D01*
X688976Y703130D01*
X688981D01*
X689075Y703174D01*
X689164Y703218D01*
X689247Y703268D01*
X689319Y703318D01*
X689391Y703368D01*
X689452Y703418D01*
X689513Y703467D01*
X689563Y703512D01*
X689607Y703556D01*
X689646Y703595D01*
X689679Y703628D01*
X689701Y703661D01*
X689723Y703689D01*
X689740Y703706D01*
X689745Y703717D01*
X689751Y703722D01*
X689834Y703872D01*
X689901Y704027D01*
X689956Y704187D01*
X689995Y704337D01*
X690011Y704409D01*
X690028Y704470D01*
X690039Y704530D01*
X690044Y704580D01*
X690056Y704619D01*
Y704647D01*
X690061Y704669D01*
Y704675D01*
X691019Y704591D01*
X691013Y704447D01*
X690997Y704309D01*
X690975Y704176D01*
X690947Y704049D01*
X690914Y703932D01*
X690881Y703816D01*
X690842Y703711D01*
X690803Y703611D01*
X690770Y703523D01*
X690731Y703445D01*
X690698Y703379D01*
X690665Y703318D01*
X690642Y703273D01*
X690620Y703240D01*
X690609Y703218D01*
X690604Y703213D01*
X690526Y703102D01*
X690443Y702997D01*
X690355Y702903D01*
X690260Y702814D01*
X690172Y702731D01*
X690078Y702653D01*
X689989Y702587D01*
X689901Y702526D01*
X689823Y702476D01*
X689745Y702426D01*
X689679Y702388D01*
X689618Y702354D01*
X689568Y702332D01*
X689535Y702316D01*
X689507Y702305D01*
X689502Y702299D01*
X689369Y702249D01*
X689225Y702199D01*
X689081Y702161D01*
X688932Y702127D01*
X688638Y702072D01*
X688500Y702055D01*
X688367Y702039D01*
X688239Y702028D01*
X688123Y702017D01*
X688018Y702011D01*
X687929Y702005D01*
X687857Y702000D01*
X687758D01*
X687608Y702005D01*
X687459Y702011D01*
X687315Y702028D01*
X687182Y702044D01*
X687054Y702072D01*
X686933Y702094D01*
X686816Y702122D01*
X686711Y702150D01*
X686617Y702177D01*
X686534Y702205D01*
X686462Y702233D01*
X686401Y702255D01*
X686351Y702271D01*
X686312Y702288D01*
X686290Y702293D01*
X686285Y702299D01*
X686163Y702360D01*
X686052Y702421D01*
X685947Y702487D01*
X685853Y702554D01*
X685764Y702626D01*
X685681Y702698D01*
X685604Y702764D01*
X685537Y702831D01*
X685476Y702891D01*
X685426Y702947D01*
X685382Y703002D01*
X685349Y703046D01*
X685321Y703085D01*
X685299Y703113D01*
X685288Y703130D01*
X685283Y703135D01*
X685222Y703240D01*
X685166Y703340D01*
X685116Y703445D01*
X685078Y703545D01*
X685044Y703644D01*
X685017Y703739D01*
X684989Y703833D01*
X684972Y703916D01*
X684956Y703999D01*
X684945Y704071D01*
X684939Y704132D01*
X684934Y704187D01*
X684928Y704231D01*
Y704265D01*
Y704287D01*
Y704292D01*
X684934Y704409D01*
X684939Y704514D01*
X684956Y704619D01*
X684978Y704719D01*
X685000Y704818D01*
X685028Y704907D01*
X685061Y704990D01*
X685089Y705068D01*
X685116Y705134D01*
X685150Y705195D01*
X685177Y705250D01*
X685200Y705295D01*
X685222Y705328D01*
X685233Y705356D01*
X685244Y705372D01*
X685249Y705378D01*
X685316Y705466D01*
X685382Y705549D01*
X685537Y705704D01*
X685703Y705837D01*
X685786Y705898D01*
X685864Y705948D01*
X685941Y705998D01*
X686013Y706042D01*
X686074Y706075D01*
X686130Y706109D01*
X686174Y706131D01*
X686213Y706147D01*
X686235Y706158D01*
X686240Y706164D01*
X686335Y706203D01*
X686445Y706242D01*
X686567Y706286D01*
X686700Y706324D01*
X686839Y706369D01*
X686977Y706408D01*
X687259Y706480D01*
X687392Y706518D01*
X687520Y706546D01*
X687636Y706574D01*
X687736Y706601D01*
X687819Y706618D01*
X687852Y706629D01*
X687879Y706635D01*
X687902Y706640D01*
X687918D01*
X687929Y706646D01*
X687935D01*
X688156Y706701D01*
X688356Y706751D01*
X688533Y706801D01*
X688693Y706851D01*
X688832Y706900D01*
X688959Y706945D01*
X689064Y706989D01*
X689159Y707028D01*
X689236Y707066D01*
X689297Y707100D01*
X689352Y707127D01*
X689391Y707155D01*
X689424Y707172D01*
X689441Y707188D01*
X689452Y707194D01*
X689458Y707199D01*
X689507Y707249D01*
X689552Y707305D01*
X689596Y707360D01*
X689629Y707421D01*
X689679Y707532D01*
X689712Y707642D01*
X689734Y707737D01*
X689740Y707775D01*
X689745Y707814D01*
X689751Y707842D01*
Y707864D01*
Y707875D01*
Y707880D01*
X689745Y707969D01*
X689734Y708052D01*
X689712Y708135D01*
X689685Y708207D01*
X689618Y708346D01*
X689579Y708412D01*
X689541Y708467D01*
X689502Y708517D01*
X689469Y708562D01*
X689430Y708600D01*
X689402Y708634D01*
X689374Y708661D01*
X689352Y708678D01*
X689341Y708689D01*
X689336Y708695D01*
X689253Y708755D01*
X689159Y708805D01*
X689053Y708849D01*
X688948Y708888D01*
X688837Y708922D01*
X688727Y708949D01*
X688505Y708988D01*
X688406Y709005D01*
X688306Y709016D01*
X688223Y709021D01*
X688145Y709027D01*
X688084Y709032D01*
X687996D01*
X687835Y709027D01*
X687686Y709016D01*
X687547Y708999D01*
X687414Y708977D01*
X687298Y708944D01*
X687187Y708916D01*
X687088Y708883D01*
X686999Y708849D01*
X686921Y708811D01*
X686855Y708777D01*
X686800Y708750D01*
X686750Y708722D01*
X686711Y708695D01*
X686689Y708678D01*
X686672Y708667D01*
X686667Y708661D01*
X686589Y708589D01*
X686517Y708506D01*
X686451Y708423D01*
X686395Y708335D01*
X686346Y708240D01*
X686301Y708152D01*
X686263Y708063D01*
X686235Y707975D01*
X686207Y707892D01*
X686185Y707814D01*
X686169Y707742D01*
X686157Y707687D01*
X686146Y707637D01*
X686141Y707598D01*
X686135Y707576D01*
Y707565D01*
X685161Y707637D01*
X685172Y707759D01*
X685183Y707880D01*
X685205Y707997D01*
X685233Y708108D01*
X685260Y708213D01*
X685294Y708312D01*
X685327Y708407D01*
X685360Y708490D01*
X685399Y708567D01*
X685426Y708634D01*
X685460Y708695D01*
X685487Y708744D01*
X685510Y708783D01*
X685526Y708816D01*
X685537Y708833D01*
X685543Y708838D01*
X685609Y708938D01*
X685687Y709027D01*
X685764Y709115D01*
X685847Y709193D01*
X685930Y709265D01*
X686013Y709331D01*
X686091Y709392D01*
X686174Y709442D01*
X686246Y709492D01*
X686318Y709531D01*
X686379Y709569D01*
X686434Y709597D01*
X686479Y709619D01*
X686512Y709636D01*
X686534Y709641D01*
X686540Y709647D01*
X686661Y709697D01*
X686789Y709741D01*
X686916Y709774D01*
X687049Y709807D01*
X687298Y709857D01*
X687420Y709874D01*
X687531Y709891D01*
X687641Y709902D01*
X687736Y709907D01*
X687824Y709918D01*
X687896D01*
X687957Y709924D01*
X688040D01*
X688184Y709918D01*
D02*
G37*
G36*
X666179D02*
X666318Y709913D01*
X666451Y709902D01*
X666583Y709885D01*
X666705Y709863D01*
X666822Y709841D01*
X666927Y709818D01*
X667026Y709791D01*
X667121Y709769D01*
X667204Y709741D01*
X667270Y709719D01*
X667331Y709702D01*
X667381Y709680D01*
X667414Y709669D01*
X667436Y709663D01*
X667442Y709658D01*
X667558Y709608D01*
X667663Y709553D01*
X667763Y709492D01*
X667857Y709431D01*
X667946Y709364D01*
X668023Y709304D01*
X668095Y709237D01*
X668156Y709176D01*
X668211Y709121D01*
X668261Y709065D01*
X668306Y709021D01*
X668339Y708977D01*
X668366Y708944D01*
X668383Y708916D01*
X668394Y708899D01*
X668400Y708894D01*
X668455Y708800D01*
X668505Y708700D01*
X668549Y708606D01*
X668588Y708512D01*
X668621Y708418D01*
X668649Y708329D01*
X668665Y708246D01*
X668688Y708163D01*
X668699Y708085D01*
X668710Y708019D01*
X668715Y707958D01*
X668721Y707908D01*
X668726Y707864D01*
Y707836D01*
Y707814D01*
Y707809D01*
X668721Y707709D01*
X668715Y707615D01*
X668682Y707438D01*
X668643Y707277D01*
X668616Y707205D01*
X668593Y707133D01*
X668566Y707072D01*
X668544Y707017D01*
X668521Y706972D01*
X668499Y706934D01*
X668483Y706900D01*
X668472Y706878D01*
X668466Y706862D01*
X668460Y706856D01*
X668405Y706779D01*
X668350Y706701D01*
X668217Y706563D01*
X668084Y706441D01*
X667951Y706341D01*
X667885Y706297D01*
X667829Y706258D01*
X667774Y706219D01*
X667730Y706192D01*
X667691Y706170D01*
X667663Y706153D01*
X667646Y706147D01*
X667641Y706142D01*
X667552Y706097D01*
X667458Y706059D01*
X667347Y706014D01*
X667231Y705970D01*
X666988Y705887D01*
X666744Y705815D01*
X666633Y705782D01*
X666523Y705754D01*
X666423Y705726D01*
X666340Y705704D01*
X666268Y705688D01*
X666212Y705671D01*
X666196Y705666D01*
X666179D01*
X666174Y705660D01*
X666168D01*
X665980Y705616D01*
X665808Y705572D01*
X665648Y705533D01*
X665509Y705494D01*
X665382Y705461D01*
X665271Y705433D01*
X665177Y705405D01*
X665088Y705378D01*
X665016Y705356D01*
X664956Y705339D01*
X664911Y705322D01*
X664872Y705311D01*
X664839Y705300D01*
X664823Y705295D01*
X664811Y705289D01*
X664806D01*
X664717Y705250D01*
X664640Y705217D01*
X664562Y705178D01*
X664496Y705140D01*
X664429Y705101D01*
X664374Y705062D01*
X664324Y705023D01*
X664280Y704990D01*
X664241Y704957D01*
X664208Y704924D01*
X664153Y704874D01*
X664125Y704841D01*
X664114Y704835D01*
Y704829D01*
X664042Y704724D01*
X663987Y704619D01*
X663948Y704514D01*
X663925Y704420D01*
X663909Y704331D01*
X663903Y704298D01*
Y704265D01*
X663898Y704237D01*
Y704220D01*
Y704209D01*
Y704204D01*
X663909Y704076D01*
X663931Y703949D01*
X663970Y703838D01*
X664009Y703744D01*
X664047Y703661D01*
X664070Y703628D01*
X664086Y703600D01*
X664097Y703578D01*
X664108Y703561D01*
X664119Y703550D01*
Y703545D01*
X664208Y703440D01*
X664313Y703345D01*
X664424Y703262D01*
X664529Y703196D01*
X664629Y703146D01*
X664668Y703124D01*
X664706Y703107D01*
X664734Y703091D01*
X664756Y703080D01*
X664773Y703074D01*
X664778D01*
X664950Y703019D01*
X665122Y702974D01*
X665293Y702947D01*
X665454Y702925D01*
X665526Y702919D01*
X665592Y702914D01*
X665648Y702908D01*
X665697D01*
X665742Y702903D01*
X665797D01*
X666035Y702914D01*
X666257Y702936D01*
X666362Y702958D01*
X666456Y702974D01*
X666550Y702997D01*
X666633Y703019D01*
X666705Y703035D01*
X666777Y703058D01*
X666833Y703080D01*
X666882Y703096D01*
X666921Y703107D01*
X666954Y703119D01*
X666971Y703130D01*
X666976D01*
X667071Y703174D01*
X667159Y703218D01*
X667242Y703268D01*
X667314Y703318D01*
X667386Y703368D01*
X667447Y703418D01*
X667508Y703467D01*
X667558Y703512D01*
X667602Y703556D01*
X667641Y703595D01*
X667674Y703628D01*
X667696Y703661D01*
X667719Y703689D01*
X667735Y703706D01*
X667741Y703717D01*
X667746Y703722D01*
X667829Y703872D01*
X667896Y704027D01*
X667951Y704187D01*
X667990Y704337D01*
X668007Y704409D01*
X668023Y704470D01*
X668034Y704530D01*
X668040Y704580D01*
X668051Y704619D01*
Y704647D01*
X668056Y704669D01*
Y704675D01*
X669014Y704591D01*
X669009Y704447D01*
X668992Y704309D01*
X668970Y704176D01*
X668942Y704049D01*
X668909Y703932D01*
X668876Y703816D01*
X668837Y703711D01*
X668798Y703611D01*
X668765Y703523D01*
X668726Y703445D01*
X668693Y703379D01*
X668660Y703318D01*
X668638Y703273D01*
X668616Y703240D01*
X668605Y703218D01*
X668599Y703213D01*
X668521Y703102D01*
X668438Y702997D01*
X668350Y702903D01*
X668256Y702814D01*
X668167Y702731D01*
X668073Y702653D01*
X667984Y702587D01*
X667896Y702526D01*
X667818Y702476D01*
X667741Y702426D01*
X667674Y702388D01*
X667613Y702354D01*
X667563Y702332D01*
X667530Y702316D01*
X667503Y702305D01*
X667497Y702299D01*
X667364Y702249D01*
X667220Y702199D01*
X667076Y702161D01*
X666927Y702127D01*
X666633Y702072D01*
X666495Y702055D01*
X666362Y702039D01*
X666235Y702028D01*
X666118Y702017D01*
X666013Y702011D01*
X665925Y702005D01*
X665853Y702000D01*
X665753D01*
X665603Y702005D01*
X665454Y702011D01*
X665310Y702028D01*
X665177Y702044D01*
X665050Y702072D01*
X664928Y702094D01*
X664811Y702122D01*
X664706Y702150D01*
X664612Y702177D01*
X664529Y702205D01*
X664457Y702233D01*
X664396Y702255D01*
X664346Y702271D01*
X664308Y702288D01*
X664286Y702293D01*
X664280Y702299D01*
X664158Y702360D01*
X664047Y702421D01*
X663942Y702487D01*
X663848Y702554D01*
X663759Y702626D01*
X663676Y702698D01*
X663599Y702764D01*
X663532Y702831D01*
X663472Y702891D01*
X663422Y702947D01*
X663377Y703002D01*
X663344Y703046D01*
X663316Y703085D01*
X663294Y703113D01*
X663283Y703130D01*
X663278Y703135D01*
X663217Y703240D01*
X663161Y703340D01*
X663112Y703445D01*
X663073Y703545D01*
X663040Y703644D01*
X663012Y703739D01*
X662984Y703833D01*
X662968Y703916D01*
X662951Y703999D01*
X662940Y704071D01*
X662934Y704132D01*
X662929Y704187D01*
X662923Y704231D01*
Y704265D01*
Y704287D01*
Y704292D01*
X662929Y704409D01*
X662934Y704514D01*
X662951Y704619D01*
X662973Y704719D01*
X662995Y704818D01*
X663023Y704907D01*
X663056Y704990D01*
X663084Y705068D01*
X663112Y705134D01*
X663145Y705195D01*
X663173Y705250D01*
X663195Y705295D01*
X663217Y705328D01*
X663228Y705356D01*
X663239Y705372D01*
X663244Y705378D01*
X663311Y705466D01*
X663377Y705549D01*
X663532Y705704D01*
X663699Y705837D01*
X663782Y705898D01*
X663859Y705948D01*
X663937Y705998D01*
X664009Y706042D01*
X664070Y706075D01*
X664125Y706109D01*
X664169Y706131D01*
X664208Y706147D01*
X664230Y706158D01*
X664236Y706164D01*
X664330Y706203D01*
X664441Y706242D01*
X664562Y706286D01*
X664695Y706324D01*
X664834Y706369D01*
X664972Y706408D01*
X665255Y706480D01*
X665387Y706518D01*
X665515Y706546D01*
X665631Y706574D01*
X665731Y706601D01*
X665814Y706618D01*
X665847Y706629D01*
X665875Y706635D01*
X665897Y706640D01*
X665913D01*
X665925Y706646D01*
X665930D01*
X666152Y706701D01*
X666351Y706751D01*
X666528Y706801D01*
X666689Y706851D01*
X666827Y706900D01*
X666954Y706945D01*
X667060Y706989D01*
X667154Y707028D01*
X667231Y707066D01*
X667292Y707100D01*
X667347Y707127D01*
X667386Y707155D01*
X667420Y707172D01*
X667436Y707188D01*
X667447Y707194D01*
X667453Y707199D01*
X667503Y707249D01*
X667547Y707305D01*
X667591Y707360D01*
X667624Y707421D01*
X667674Y707532D01*
X667708Y707642D01*
X667730Y707737D01*
X667735Y707775D01*
X667741Y707814D01*
X667746Y707842D01*
Y707864D01*
Y707875D01*
Y707880D01*
X667741Y707969D01*
X667730Y708052D01*
X667708Y708135D01*
X667680Y708207D01*
X667613Y708346D01*
X667575Y708412D01*
X667536Y708467D01*
X667497Y708517D01*
X667464Y708562D01*
X667425Y708600D01*
X667397Y708634D01*
X667370Y708661D01*
X667347Y708678D01*
X667337Y708689D01*
X667331Y708695D01*
X667248Y708755D01*
X667154Y708805D01*
X667048Y708849D01*
X666943Y708888D01*
X666833Y708922D01*
X666722Y708949D01*
X666500Y708988D01*
X666401Y709005D01*
X666301Y709016D01*
X666218Y709021D01*
X666140Y709027D01*
X666079Y709032D01*
X665991D01*
X665830Y709027D01*
X665681Y709016D01*
X665542Y708999D01*
X665409Y708977D01*
X665293Y708944D01*
X665182Y708916D01*
X665083Y708883D01*
X664994Y708849D01*
X664917Y708811D01*
X664850Y708777D01*
X664795Y708750D01*
X664745Y708722D01*
X664706Y708695D01*
X664684Y708678D01*
X664668Y708667D01*
X664662Y708661D01*
X664585Y708589D01*
X664512Y708506D01*
X664446Y708423D01*
X664391Y708335D01*
X664341Y708240D01*
X664296Y708152D01*
X664258Y708063D01*
X664230Y707975D01*
X664202Y707892D01*
X664180Y707814D01*
X664164Y707742D01*
X664153Y707687D01*
X664141Y707637D01*
X664136Y707598D01*
X664130Y707576D01*
Y707565D01*
X663156Y707637D01*
X663167Y707759D01*
X663178Y707880D01*
X663200Y707997D01*
X663228Y708108D01*
X663255Y708213D01*
X663289Y708312D01*
X663322Y708407D01*
X663355Y708490D01*
X663394Y708567D01*
X663422Y708634D01*
X663455Y708695D01*
X663483Y708744D01*
X663505Y708783D01*
X663521Y708816D01*
X663532Y708833D01*
X663538Y708838D01*
X663604Y708938D01*
X663682Y709027D01*
X663759Y709115D01*
X663842Y709193D01*
X663925Y709265D01*
X664009Y709331D01*
X664086Y709392D01*
X664169Y709442D01*
X664241Y709492D01*
X664313Y709531D01*
X664374Y709569D01*
X664429Y709597D01*
X664474Y709619D01*
X664507Y709636D01*
X664529Y709641D01*
X664535Y709647D01*
X664657Y709697D01*
X664784Y709741D01*
X664911Y709774D01*
X665044Y709807D01*
X665293Y709857D01*
X665415Y709874D01*
X665526Y709891D01*
X665637Y709902D01*
X665731Y709907D01*
X665819Y709918D01*
X665891D01*
X665952Y709924D01*
X666035D01*
X666179Y709918D01*
D02*
G37*
G36*
X658333D02*
X658477Y709913D01*
X658621Y709896D01*
X658759Y709879D01*
X659025Y709824D01*
X659280Y709758D01*
X659512Y709675D01*
X659728Y709580D01*
X659928Y709486D01*
X660110Y709387D01*
X660271Y709281D01*
X660415Y709187D01*
X660537Y709093D01*
X660636Y709016D01*
X660720Y708944D01*
X660753Y708916D01*
X660775Y708888D01*
X660797Y708872D01*
X660814Y708855D01*
X660819Y708849D01*
X660825Y708844D01*
X660919Y708739D01*
X661007Y708634D01*
X661085Y708523D01*
X661162Y708407D01*
X661301Y708168D01*
X661417Y707925D01*
X661517Y707676D01*
X661600Y707426D01*
X661666Y707183D01*
X661722Y706945D01*
X661760Y706723D01*
X661794Y706518D01*
X661805Y706424D01*
X661816Y706336D01*
X661827Y706253D01*
X661833Y706175D01*
X661838Y706103D01*
X661844Y706042D01*
Y705987D01*
X661849Y705943D01*
Y705909D01*
Y705882D01*
Y705865D01*
Y705859D01*
X661844Y705671D01*
X661833Y705488D01*
X661810Y705311D01*
X661783Y705134D01*
X661749Y704968D01*
X661711Y704813D01*
X661672Y704663D01*
X661628Y704525D01*
X661589Y704398D01*
X661550Y704287D01*
X661511Y704187D01*
X661478Y704104D01*
X661450Y704032D01*
X661428Y703982D01*
X661417Y703955D01*
X661412Y703944D01*
X661323Y703777D01*
X661229Y703622D01*
X661129Y703478D01*
X661024Y703340D01*
X660919Y703213D01*
X660814Y703096D01*
X660703Y702991D01*
X660603Y702891D01*
X660504Y702808D01*
X660415Y702731D01*
X660332Y702670D01*
X660260Y702615D01*
X660204Y702576D01*
X660160Y702543D01*
X660133Y702526D01*
X660122Y702521D01*
X659961Y702426D01*
X659795Y702349D01*
X659623Y702277D01*
X659457Y702222D01*
X659296Y702172D01*
X659136Y702127D01*
X658981Y702094D01*
X658831Y702066D01*
X658698Y702044D01*
X658571Y702028D01*
X658460Y702017D01*
X658366Y702011D01*
X658289Y702005D01*
X658233Y702000D01*
X658184D01*
X658001Y702005D01*
X657818Y702022D01*
X657641Y702044D01*
X657475Y702072D01*
X657309Y702111D01*
X657159Y702150D01*
X657015Y702194D01*
X656877Y702238D01*
X656755Y702277D01*
X656650Y702321D01*
X656555Y702360D01*
X656472Y702399D01*
X656412Y702426D01*
X656362Y702449D01*
X656334Y702465D01*
X656323Y702471D01*
X656168Y702565D01*
X656018Y702664D01*
X655880Y702775D01*
X655747Y702886D01*
X655631Y703002D01*
X655520Y703119D01*
X655420Y703229D01*
X655332Y703340D01*
X655254Y703445D01*
X655182Y703545D01*
X655121Y703633D01*
X655077Y703711D01*
X655038Y703772D01*
X655011Y703822D01*
X654994Y703849D01*
X654988Y703860D01*
X654905Y704038D01*
X654834Y704215D01*
X654773Y704392D01*
X654717Y704575D01*
X654673Y704752D01*
X654634Y704924D01*
X654601Y705090D01*
X654579Y705250D01*
X654557Y705394D01*
X654540Y705533D01*
X654535Y705649D01*
X654523Y705749D01*
Y705832D01*
X654518Y705871D01*
Y705898D01*
Y705920D01*
Y705937D01*
Y705943D01*
Y705948D01*
X654523Y706158D01*
X654535Y706363D01*
X654557Y706563D01*
X654590Y706751D01*
X654623Y706934D01*
X654662Y707100D01*
X654701Y707260D01*
X654739Y707404D01*
X654784Y707537D01*
X654822Y707654D01*
X654861Y707759D01*
X654894Y707842D01*
X654922Y707914D01*
X654944Y707964D01*
X654961Y707991D01*
X654966Y708002D01*
X655055Y708168D01*
X655149Y708324D01*
X655254Y708467D01*
X655359Y708606D01*
X655465Y708733D01*
X655575Y708849D01*
X655681Y708955D01*
X655786Y709049D01*
X655885Y709132D01*
X655974Y709209D01*
X656057Y709270D01*
X656129Y709320D01*
X656184Y709364D01*
X656229Y709392D01*
X656256Y709409D01*
X656268Y709414D01*
X656428Y709503D01*
X656594Y709580D01*
X656760Y709652D01*
X656926Y709708D01*
X657087Y709758D01*
X657248Y709802D01*
X657403Y709835D01*
X657547Y709863D01*
X657680Y709879D01*
X657801Y709896D01*
X657912Y709907D01*
X658006Y709918D01*
X658078D01*
X658134Y709924D01*
X658184D01*
X658333Y709918D01*
D02*
G37*
G36*
X606654Y709813D02*
X606798Y709802D01*
X606937Y709780D01*
X607070Y709746D01*
X607191Y709713D01*
X607308Y709675D01*
X607413Y709636D01*
X607507Y709597D01*
X607596Y709553D01*
X607668Y709514D01*
X607734Y709475D01*
X607789Y709442D01*
X607834Y709414D01*
X607861Y709392D01*
X607883Y709376D01*
X607889Y709370D01*
X607989Y709281D01*
X608083Y709187D01*
X608172Y709088D01*
X608255Y708982D01*
X608326Y708877D01*
X608393Y708766D01*
X608459Y708661D01*
X608509Y708562D01*
X608559Y708467D01*
X608603Y708379D01*
X608637Y708296D01*
X608670Y708229D01*
X608692Y708168D01*
X608709Y708130D01*
X608714Y708102D01*
X608720Y708091D01*
X608769Y707930D01*
X608808Y707759D01*
X608847Y707581D01*
X608880Y707399D01*
X608930Y707033D01*
X608947Y706856D01*
X608963Y706684D01*
X608974Y706524D01*
X608980Y706374D01*
X608985Y706242D01*
X608991Y706131D01*
Y706081D01*
X608997Y706037D01*
Y705998D01*
Y705965D01*
Y705937D01*
Y705920D01*
Y705909D01*
Y705904D01*
Y705704D01*
X608985Y705511D01*
X608980Y705328D01*
X608963Y705151D01*
X608947Y704979D01*
X608924Y704813D01*
X608902Y704658D01*
X608880Y704508D01*
X608853Y704359D01*
X608819Y704226D01*
X608792Y704093D01*
X608758Y703971D01*
X608725Y703849D01*
X608692Y703739D01*
X608653Y703633D01*
X608620Y703534D01*
X608587Y703445D01*
X608548Y703357D01*
X608515Y703279D01*
X608482Y703202D01*
X608448Y703135D01*
X608421Y703074D01*
X608387Y703019D01*
X608360Y702969D01*
X608338Y702925D01*
X608315Y702891D01*
X608293Y702858D01*
X608277Y702831D01*
X608260Y702814D01*
X608249Y702797D01*
X608243Y702792D01*
Y702786D01*
X608122Y702648D01*
X607989Y702526D01*
X607850Y702421D01*
X607706Y702332D01*
X607557Y702255D01*
X607413Y702194D01*
X607275Y702138D01*
X607136Y702100D01*
X607003Y702066D01*
X606887Y702044D01*
X606776Y702022D01*
X606682Y702011D01*
X606604Y702005D01*
X606549Y702000D01*
X606499D01*
X606344Y702005D01*
X606200Y702022D01*
X606062Y702044D01*
X605929Y702072D01*
X605807Y702105D01*
X605696Y702144D01*
X605591Y702183D01*
X605491Y702227D01*
X605408Y702266D01*
X605331Y702305D01*
X605270Y702343D01*
X605215Y702376D01*
X605170Y702410D01*
X605143Y702432D01*
X605121Y702443D01*
X605115Y702449D01*
X605015Y702537D01*
X604921Y702631D01*
X604832Y702731D01*
X604749Y702836D01*
X604678Y702947D01*
X604611Y703052D01*
X604545Y703157D01*
X604489Y703257D01*
X604445Y703351D01*
X604401Y703440D01*
X604367Y703523D01*
X604334Y703589D01*
X604312Y703650D01*
X604295Y703689D01*
X604290Y703717D01*
X604284Y703728D01*
X604235Y703888D01*
X604190Y704060D01*
X604151Y704237D01*
X604118Y704420D01*
X604068Y704780D01*
X604052Y704957D01*
X604035Y705128D01*
X604024Y705289D01*
X604019Y705433D01*
X604013Y705566D01*
X604007Y705682D01*
Y705732D01*
X604002Y705776D01*
Y705815D01*
Y705843D01*
Y705871D01*
Y705887D01*
Y705898D01*
Y705904D01*
Y706114D01*
X604007Y706308D01*
X604019Y706496D01*
X604030Y706668D01*
X604041Y706828D01*
X604057Y706978D01*
X604074Y707116D01*
X604091Y707238D01*
X604107Y707349D01*
X604124Y707443D01*
X604140Y707526D01*
X604151Y707593D01*
X604162Y707648D01*
X604174Y707681D01*
X604179Y707709D01*
Y707714D01*
X604212Y707836D01*
X604251Y707958D01*
X604284Y708069D01*
X604323Y708174D01*
X604367Y708274D01*
X604406Y708368D01*
X604445Y708456D01*
X604484Y708534D01*
X604517Y708606D01*
X604550Y708667D01*
X604578Y708722D01*
X604605Y708766D01*
X604628Y708800D01*
X604644Y708827D01*
X604650Y708844D01*
X604655Y708849D01*
X604772Y709016D01*
X604899Y709160D01*
X605026Y709287D01*
X605148Y709387D01*
X605204Y709431D01*
X605259Y709464D01*
X605303Y709497D01*
X605342Y709525D01*
X605375Y709542D01*
X605397Y709558D01*
X605414Y709569D01*
X605420D01*
X605508Y709614D01*
X605597Y709652D01*
X605785Y709713D01*
X605968Y709758D01*
X606134Y709785D01*
X606211Y709796D01*
X606278Y709807D01*
X606344Y709813D01*
X606394D01*
X606438Y709818D01*
X606499D01*
X606654Y709813D01*
D02*
G37*
%LPC*%
G36*
X630492Y718480D02*
X630434D01*
X630317Y718473D01*
X630207Y718460D01*
X630104Y718434D01*
X630006Y718402D01*
X629916Y718363D01*
X629832Y718324D01*
X629754Y718279D01*
X629683Y718233D01*
X629618Y718188D01*
X629566Y718143D01*
X629514Y718104D01*
X629475Y718065D01*
X629443Y718033D01*
X629424Y718007D01*
X629411Y717994D01*
X629404Y717987D01*
X629333Y717890D01*
X629268Y717780D01*
X629216Y717657D01*
X629171Y717527D01*
X629126Y717398D01*
X629093Y717262D01*
X629048Y717003D01*
X629029Y716873D01*
X629016Y716757D01*
X629009Y716653D01*
X629003Y716562D01*
X628996Y716485D01*
Y716433D01*
Y716394D01*
Y716387D01*
Y716381D01*
X629003Y716193D01*
X629016Y716018D01*
X629035Y715850D01*
X629061Y715701D01*
X629087Y715565D01*
X629126Y715442D01*
X629158Y715325D01*
X629197Y715228D01*
X629236Y715137D01*
X629268Y715060D01*
X629307Y714995D01*
X629333Y714943D01*
X629359Y714904D01*
X629378Y714878D01*
X629391Y714859D01*
X629398Y714852D01*
X629475Y714768D01*
X629553Y714690D01*
X629637Y714626D01*
X629721Y714574D01*
X629799Y714522D01*
X629883Y714483D01*
X629961Y714451D01*
X630032Y714425D01*
X630104Y714406D01*
X630168Y714393D01*
X630227Y714380D01*
X630272Y714373D01*
X630311D01*
X630343Y714367D01*
X630369D01*
X630505Y714373D01*
X630635Y714399D01*
X630751Y714431D01*
X630868Y714470D01*
X630972Y714522D01*
X631069Y714580D01*
X631159Y714645D01*
X631237Y714710D01*
X631308Y714768D01*
X631373Y714833D01*
X631425Y714891D01*
X631470Y714943D01*
X631509Y714982D01*
X631535Y715021D01*
X631548Y715040D01*
X631554Y715047D01*
X631613Y715144D01*
X631658Y715247D01*
X631703Y715364D01*
X631736Y715487D01*
X631794Y715733D01*
X631833Y715973D01*
X631846Y716089D01*
X631852Y716193D01*
X631859Y716290D01*
X631865Y716375D01*
X631872Y716439D01*
Y716491D01*
Y716524D01*
Y716536D01*
X631865Y716711D01*
X631852Y716880D01*
X631833Y717035D01*
X631807Y717178D01*
X631775Y717307D01*
X631742Y717430D01*
X631703Y717534D01*
X631665Y717631D01*
X631632Y717715D01*
X631593Y717793D01*
X631561Y717851D01*
X631529Y717903D01*
X631503Y717942D01*
X631483Y717974D01*
X631470Y717987D01*
X631464Y717994D01*
X631386Y718078D01*
X631302Y718156D01*
X631218Y718221D01*
X631133Y718272D01*
X631043Y718324D01*
X630959Y718363D01*
X630874Y718395D01*
X630797Y718421D01*
X630719Y718441D01*
X630654Y718454D01*
X630589Y718467D01*
X630538Y718473D01*
X630492Y718480D01*
D02*
G37*
G36*
X676900D02*
X676848D01*
X676751Y718473D01*
X676660Y718460D01*
X676570Y718441D01*
X676486Y718421D01*
X676337Y718356D01*
X676207Y718285D01*
X676149Y718246D01*
X676097Y718207D01*
X676058Y718175D01*
X676019Y718149D01*
X675993Y718123D01*
X675974Y718104D01*
X675961Y718091D01*
X675954Y718084D01*
X675890Y718007D01*
X675831Y717923D01*
X675779Y717838D01*
X675741Y717741D01*
X675669Y717553D01*
X675624Y717372D01*
X675605Y717288D01*
X675592Y717210D01*
X675579Y717139D01*
X675572Y717074D01*
Y717022D01*
X675566Y716983D01*
Y716957D01*
Y716951D01*
X678144D01*
Y717081D01*
X678131Y717204D01*
X678111Y717314D01*
X678092Y717424D01*
X678059Y717521D01*
X678034Y717612D01*
X678001Y717696D01*
X677962Y717774D01*
X677930Y717838D01*
X677897Y717897D01*
X677865Y717948D01*
X677839Y717987D01*
X677813Y718020D01*
X677794Y718046D01*
X677787Y718058D01*
X677781Y718065D01*
X677710Y718136D01*
X677632Y718201D01*
X677561Y718259D01*
X677476Y718305D01*
X677399Y718344D01*
X677321Y718376D01*
X677178Y718428D01*
X677107Y718447D01*
X677049Y718460D01*
X676991Y718467D01*
X676939Y718473D01*
X676900Y718480D01*
D02*
G37*
G36*
X704699Y720721D02*
X704648D01*
X704440Y720714D01*
X704246Y720688D01*
X704064Y720649D01*
X703896Y720604D01*
X703734Y720546D01*
X703585Y720481D01*
X703449Y720410D01*
X703326Y720345D01*
X703216Y720274D01*
X703119Y720202D01*
X703041Y720138D01*
X702970Y720079D01*
X702918Y720034D01*
X702879Y719995D01*
X702853Y719969D01*
X702847Y719963D01*
X702724Y719814D01*
X702620Y719645D01*
X702530Y719471D01*
X702452Y719283D01*
X702387Y719095D01*
X702335Y718901D01*
X702290Y718713D01*
X702251Y718531D01*
X702225Y718356D01*
X702206Y718195D01*
X702186Y718046D01*
X702180Y717916D01*
X702173Y717858D01*
Y717812D01*
X702167Y717767D01*
Y717728D01*
Y717702D01*
Y717683D01*
Y717670D01*
Y717663D01*
X702173Y717378D01*
X702199Y717113D01*
X702232Y716867D01*
X702277Y716640D01*
X702329Y716433D01*
X702387Y716238D01*
X702452Y716064D01*
X702516Y715908D01*
X702581Y715772D01*
X702646Y715656D01*
X702704Y715552D01*
X702756Y715474D01*
X702802Y715409D01*
X702834Y715364D01*
X702860Y715332D01*
X702866Y715325D01*
X703002Y715189D01*
X703145Y715066D01*
X703287Y714962D01*
X703436Y714878D01*
X703585Y714801D01*
X703734Y714736D01*
X703877Y714684D01*
X704019Y714645D01*
X704149Y714613D01*
X704265Y714587D01*
X704375Y714574D01*
X704466Y714561D01*
X704544Y714555D01*
X704602Y714548D01*
X704648D01*
X704848Y714555D01*
X705036Y714580D01*
X705211Y714619D01*
X705386Y714671D01*
X705541Y714729D01*
X705690Y714794D01*
X705826Y714865D01*
X705949Y714943D01*
X706059Y715014D01*
X706157Y715086D01*
X706241Y715150D01*
X706306Y715209D01*
X706364Y715260D01*
X706403Y715299D01*
X706429Y715325D01*
X706435Y715332D01*
X706558Y715487D01*
X706668Y715656D01*
X706759Y715837D01*
X706837Y716025D01*
X706908Y716213D01*
X706966Y716407D01*
X707012Y716595D01*
X707044Y716776D01*
X707076Y716951D01*
X707096Y717113D01*
X707115Y717262D01*
X707122Y717385D01*
X707128Y717495D01*
X707135Y717534D01*
Y717573D01*
Y717599D01*
Y717618D01*
Y717631D01*
Y717637D01*
X707128Y717916D01*
X707102Y718182D01*
X707070Y718428D01*
X707031Y718654D01*
X706979Y718862D01*
X706921Y719050D01*
X706856Y719218D01*
X706791Y719373D01*
X706733Y719509D01*
X706668Y719626D01*
X706610Y719723D01*
X706558Y719807D01*
X706519Y719872D01*
X706480Y719911D01*
X706461Y719943D01*
X706454Y719950D01*
X706319Y720086D01*
X706182Y720202D01*
X706033Y720306D01*
X705885Y720397D01*
X705729Y720468D01*
X705580Y720533D01*
X705431Y720585D01*
X705295Y720623D01*
X705159Y720656D01*
X705036Y720682D01*
X704926Y720695D01*
X704835Y720708D01*
X704758Y720714D01*
X704699Y720721D01*
D02*
G37*
G36*
X700371Y708888D02*
X698289D01*
X698179Y708883D01*
X698074D01*
X697979Y708877D01*
X697891Y708872D01*
X697813Y708866D01*
X697747Y708861D01*
X697686Y708855D01*
X697630Y708844D01*
X697586Y708838D01*
X697547Y708833D01*
X697520Y708827D01*
X697498Y708822D01*
X697481D01*
X697475Y708816D01*
X697470D01*
X697326Y708766D01*
X697199Y708700D01*
X697093Y708623D01*
X696999Y708550D01*
X696927Y708478D01*
X696872Y708418D01*
X696855Y708395D01*
X696839Y708379D01*
X696828Y708368D01*
Y708362D01*
X696783Y708296D01*
X696745Y708229D01*
X696689Y708091D01*
X696645Y707952D01*
X696612Y707825D01*
X696606Y707770D01*
X696595Y707714D01*
X696590Y707664D01*
Y707626D01*
X696584Y707587D01*
Y707565D01*
Y707548D01*
Y707543D01*
X696590Y707421D01*
X696601Y707310D01*
X696623Y707199D01*
X696650Y707100D01*
X696678Y707011D01*
X696717Y706923D01*
X696750Y706851D01*
X696789Y706779D01*
X696828Y706718D01*
X696866Y706662D01*
X696905Y706618D01*
X696933Y706579D01*
X696961Y706552D01*
X696983Y706529D01*
X696994Y706518D01*
X696999Y706513D01*
X697082Y706446D01*
X697176Y706391D01*
X697282Y706341D01*
X697392Y706302D01*
X697509Y706264D01*
X697625Y706236D01*
X697852Y706192D01*
X697963Y706181D01*
X698062Y706170D01*
X698157Y706158D01*
X698234Y706153D01*
X698300Y706147D01*
X700371D01*
Y708888D01*
D02*
G37*
G36*
X652181Y708944D02*
X649761D01*
X649606Y708938D01*
X649462Y708927D01*
X649330Y708910D01*
X649208Y708888D01*
X649097Y708861D01*
X648992Y708833D01*
X648898Y708800D01*
X648820Y708766D01*
X648748Y708733D01*
X648687Y708700D01*
X648632Y708672D01*
X648587Y708645D01*
X648560Y708623D01*
X648532Y708606D01*
X648521Y708595D01*
X648515Y708589D01*
X648444Y708523D01*
X648383Y708451D01*
X648333Y708379D01*
X648283Y708301D01*
X648244Y708229D01*
X648216Y708152D01*
X648189Y708080D01*
X648167Y708013D01*
X648150Y707947D01*
X648139Y707886D01*
X648128Y707836D01*
X648122Y707786D01*
X648117Y707748D01*
Y707720D01*
Y707703D01*
Y707698D01*
X648128Y707559D01*
X648150Y707432D01*
X648183Y707316D01*
X648216Y707216D01*
X648255Y707133D01*
X648272Y707094D01*
X648288Y707066D01*
X648305Y707044D01*
X648311Y707028D01*
X648322Y707017D01*
Y707011D01*
X648405Y706900D01*
X648499Y706806D01*
X648599Y706729D01*
X648698Y706662D01*
X648787Y706612D01*
X648820Y706596D01*
X648853Y706579D01*
X648881Y706568D01*
X648903Y706557D01*
X648914Y706552D01*
X648920D01*
X648997Y706529D01*
X649075Y706507D01*
X649252Y706474D01*
X649435Y706446D01*
X649606Y706430D01*
X649689Y706424D01*
X649761Y706419D01*
X649833D01*
X649889Y706413D01*
X652181D01*
Y708944D01*
D02*
G37*
G36*
X640902Y708888D02*
X638820D01*
X638709Y708883D01*
X638604D01*
X638510Y708877D01*
X638421Y708872D01*
X638344Y708866D01*
X638277Y708861D01*
X638216Y708855D01*
X638161Y708844D01*
X638117Y708838D01*
X638078Y708833D01*
X638050Y708827D01*
X638028Y708822D01*
X638011D01*
X638006Y708816D01*
X638000D01*
X637856Y708766D01*
X637729Y708700D01*
X637624Y708623D01*
X637530Y708550D01*
X637458Y708478D01*
X637402Y708418D01*
X637386Y708395D01*
X637369Y708379D01*
X637358Y708368D01*
Y708362D01*
X637314Y708296D01*
X637275Y708229D01*
X637220Y708091D01*
X637175Y707952D01*
X637142Y707825D01*
X637137Y707770D01*
X637126Y707714D01*
X637120Y707664D01*
Y707626D01*
X637114Y707587D01*
Y707565D01*
Y707548D01*
Y707543D01*
X637120Y707421D01*
X637131Y707310D01*
X637153Y707199D01*
X637181Y707100D01*
X637209Y707011D01*
X637247Y706923D01*
X637281Y706851D01*
X637319Y706779D01*
X637358Y706718D01*
X637397Y706662D01*
X637436Y706618D01*
X637463Y706579D01*
X637491Y706552D01*
X637513Y706529D01*
X637524Y706518D01*
X637530Y706513D01*
X637613Y706446D01*
X637707Y706391D01*
X637812Y706341D01*
X637923Y706302D01*
X638039Y706264D01*
X638155Y706236D01*
X638382Y706192D01*
X638493Y706181D01*
X638593Y706170D01*
X638687Y706158D01*
X638764Y706153D01*
X638831Y706147D01*
X640902D01*
Y708888D01*
D02*
G37*
G36*
X626073D02*
X624395D01*
X624257Y708883D01*
X624130Y708877D01*
X624013Y708872D01*
X623908Y708861D01*
X623814Y708855D01*
X623731Y708844D01*
X623653Y708833D01*
X623587Y708822D01*
X623532Y708811D01*
X623487Y708805D01*
X623449Y708794D01*
X623421Y708789D01*
X623399Y708783D01*
X623388Y708777D01*
X623382D01*
X623260Y708728D01*
X623161Y708672D01*
X623066Y708606D01*
X622995Y708539D01*
X622939Y708478D01*
X622895Y708429D01*
X622873Y708390D01*
X622862Y708384D01*
Y708379D01*
X622801Y708268D01*
X622751Y708152D01*
X622718Y708041D01*
X622696Y707936D01*
X622685Y707847D01*
X622679Y707809D01*
X622673Y707775D01*
Y707748D01*
Y707726D01*
Y707714D01*
Y707709D01*
X622685Y707565D01*
X622707Y707432D01*
X622734Y707316D01*
X622773Y707222D01*
X622812Y707139D01*
X622828Y707111D01*
X622840Y707083D01*
X622856Y707061D01*
X622862Y707044D01*
X622873Y707039D01*
Y707033D01*
X622956Y706939D01*
X623044Y706862D01*
X623144Y706795D01*
X623238Y706745D01*
X623321Y706707D01*
X623360Y706690D01*
X623388Y706679D01*
X623415Y706668D01*
X623438Y706662D01*
X623449Y706657D01*
X623454D01*
X623515Y706640D01*
X623582Y706629D01*
X623653Y706618D01*
X623731Y706607D01*
X623892Y706590D01*
X624047Y706579D01*
X624124Y706574D01*
X624257D01*
X624312Y706568D01*
X626073D01*
Y708888D01*
D02*
G37*
G36*
Y705666D02*
X624174D01*
X624047Y705660D01*
X623930Y705655D01*
X623825Y705643D01*
X623726Y705632D01*
X623631Y705621D01*
X623548Y705610D01*
X623471Y705599D01*
X623404Y705588D01*
X623349Y705577D01*
X623299Y705566D01*
X623260Y705555D01*
X623227Y705544D01*
X623205Y705538D01*
X623194Y705533D01*
X623188D01*
X623050Y705477D01*
X622928Y705411D01*
X622823Y705339D01*
X622734Y705261D01*
X622662Y705195D01*
X622612Y705140D01*
X622596Y705117D01*
X622585Y705106D01*
X622574Y705095D01*
Y705090D01*
X622502Y704968D01*
X622446Y704841D01*
X622408Y704719D01*
X622380Y704603D01*
X622363Y704497D01*
X622358Y704458D01*
Y704420D01*
X622352Y704392D01*
Y704364D01*
Y704353D01*
Y704348D01*
X622358Y704215D01*
X622374Y704088D01*
X622402Y703977D01*
X622430Y703883D01*
X622458Y703805D01*
X622485Y703744D01*
X622491Y703722D01*
X622502Y703706D01*
X622507Y703700D01*
Y703694D01*
X622568Y703595D01*
X622629Y703512D01*
X622696Y703440D01*
X622757Y703379D01*
X622812Y703329D01*
X622856Y703296D01*
X622884Y703273D01*
X622889Y703268D01*
X622895D01*
X622989Y703218D01*
X623083Y703174D01*
X623183Y703141D01*
X623271Y703113D01*
X623354Y703091D01*
X623415Y703074D01*
X623443Y703069D01*
X623460D01*
X623471Y703063D01*
X623476D01*
X623515Y703058D01*
X623565Y703052D01*
X623670Y703046D01*
X623781Y703035D01*
X623897D01*
X624002Y703030D01*
X626073D01*
Y705666D01*
D02*
G37*
G36*
X615314Y708944D02*
X612895D01*
X612740Y708938D01*
X612596Y708927D01*
X612463Y708910D01*
X612341Y708888D01*
X612230Y708861D01*
X612125Y708833D01*
X612031Y708800D01*
X611953Y708766D01*
X611881Y708733D01*
X611820Y708700D01*
X611765Y708672D01*
X611721Y708645D01*
X611693Y708623D01*
X611665Y708606D01*
X611654Y708595D01*
X611649Y708589D01*
X611577Y708523D01*
X611516Y708451D01*
X611466Y708379D01*
X611416Y708301D01*
X611377Y708229D01*
X611350Y708152D01*
X611322Y708080D01*
X611300Y708013D01*
X611283Y707947D01*
X611272Y707886D01*
X611261Y707836D01*
X611256Y707786D01*
X611250Y707748D01*
Y707720D01*
Y707703D01*
Y707698D01*
X611261Y707559D01*
X611283Y707432D01*
X611317Y707316D01*
X611350Y707216D01*
X611389Y707133D01*
X611405Y707094D01*
X611422Y707066D01*
X611438Y707044D01*
X611444Y707028D01*
X611455Y707017D01*
Y707011D01*
X611538Y706900D01*
X611632Y706806D01*
X611732Y706729D01*
X611832Y706662D01*
X611920Y706612D01*
X611953Y706596D01*
X611987Y706579D01*
X612014Y706568D01*
X612036Y706557D01*
X612048Y706552D01*
X612053D01*
X612131Y706529D01*
X612208Y706507D01*
X612385Y706474D01*
X612568Y706446D01*
X612740Y706430D01*
X612823Y706424D01*
X612895Y706419D01*
X612967D01*
X613022Y706413D01*
X615314D01*
Y708944D01*
D02*
G37*
G36*
X658228Y709049D02*
X658178D01*
X658039Y709043D01*
X657901Y709032D01*
X657768Y709016D01*
X657646Y708988D01*
X657524Y708960D01*
X657414Y708927D01*
X657309Y708894D01*
X657209Y708855D01*
X657120Y708822D01*
X657043Y708783D01*
X656976Y708750D01*
X656916Y708722D01*
X656871Y708695D01*
X656838Y708678D01*
X656816Y708667D01*
X656810Y708661D01*
X656700Y708584D01*
X656594Y708506D01*
X656500Y708418D01*
X656406Y708329D01*
X656323Y708240D01*
X656251Y708152D01*
X656179Y708063D01*
X656118Y707980D01*
X656063Y707897D01*
X656018Y707825D01*
X655980Y707753D01*
X655946Y707698D01*
X655919Y707648D01*
X655902Y707615D01*
X655891Y707587D01*
X655885Y707581D01*
X655830Y707449D01*
X655780Y707310D01*
X655736Y707172D01*
X655697Y707033D01*
X655670Y706895D01*
X655642Y706762D01*
X655620Y706629D01*
X655603Y706507D01*
X655592Y706391D01*
X655581Y706286D01*
X655575Y706192D01*
X655570Y706109D01*
X655564Y706042D01*
Y705992D01*
Y705965D01*
Y705954D01*
X655570Y705682D01*
X655598Y705433D01*
X655631Y705195D01*
X655681Y704974D01*
X655736Y704769D01*
X655797Y704580D01*
X655863Y704414D01*
X655935Y704259D01*
X656002Y704121D01*
X656074Y704005D01*
X656135Y703905D01*
X656190Y703822D01*
X656240Y703755D01*
X656273Y703711D01*
X656295Y703683D01*
X656306Y703672D01*
X656450Y703534D01*
X656600Y703406D01*
X656755Y703301D01*
X656916Y703207D01*
X657070Y703130D01*
X657225Y703063D01*
X657381Y703013D01*
X657524Y702969D01*
X657663Y702936D01*
X657790Y702914D01*
X657901Y702891D01*
X658001Y702880D01*
X658078Y702875D01*
X658111D01*
X658139Y702869D01*
X658189D01*
X658394Y702880D01*
X658593Y702903D01*
X658782Y702941D01*
X658953Y702991D01*
X659119Y703052D01*
X659274Y703119D01*
X659418Y703191D01*
X659546Y703268D01*
X659662Y703340D01*
X659767Y703412D01*
X659850Y703478D01*
X659928Y703539D01*
X659983Y703589D01*
X660027Y703628D01*
X660050Y703650D01*
X660061Y703661D01*
X660193Y703816D01*
X660304Y703982D01*
X660404Y704159D01*
X660487Y704337D01*
X660559Y704519D01*
X660620Y704702D01*
X660670Y704879D01*
X660708Y705051D01*
X660742Y705212D01*
X660764Y705361D01*
X660780Y705499D01*
X660791Y705616D01*
X660797Y705666D01*
Y705710D01*
Y705749D01*
X660803Y705782D01*
Y705810D01*
Y705826D01*
Y705837D01*
Y705843D01*
Y706003D01*
X660791Y706153D01*
X660786Y706302D01*
X660769Y706446D01*
X660753Y706579D01*
X660731Y706712D01*
X660681Y706956D01*
X660620Y707177D01*
X660559Y707382D01*
X660487Y707565D01*
X660415Y707726D01*
X660343Y707864D01*
X660271Y707980D01*
X660204Y708085D01*
X660149Y708163D01*
X660099Y708229D01*
X660061Y708274D01*
X660038Y708296D01*
X660027Y708307D01*
X659878Y708440D01*
X659723Y708550D01*
X659568Y708650D01*
X659413Y708739D01*
X659252Y708805D01*
X659103Y708866D01*
X658953Y708916D01*
X658809Y708955D01*
X658682Y708988D01*
X658560Y709010D01*
X658449Y709027D01*
X658355Y709038D01*
X658283Y709043D01*
X658228Y709049D01*
D02*
G37*
G36*
X606538Y709038D02*
X606510D01*
X606389Y709032D01*
X606272Y709010D01*
X606167Y708982D01*
X606062Y708938D01*
X605962Y708894D01*
X605873Y708838D01*
X605790Y708783D01*
X605713Y708728D01*
X605647Y708667D01*
X605586Y708611D01*
X605536Y708556D01*
X605491Y708512D01*
X605458Y708467D01*
X605436Y708440D01*
X605420Y708418D01*
X605414Y708412D01*
X605375Y708351D01*
X605336Y708279D01*
X605303Y708207D01*
X605270Y708124D01*
X605209Y707952D01*
X605159Y707759D01*
X605115Y707554D01*
X605076Y707343D01*
X605048Y707133D01*
X605026Y706928D01*
X605010Y706723D01*
X604993Y706535D01*
X604982Y706363D01*
Y706280D01*
X604977Y706208D01*
Y706142D01*
X604971Y706081D01*
Y706031D01*
Y705987D01*
Y705954D01*
Y705926D01*
Y705909D01*
Y705904D01*
Y705732D01*
X604977Y705566D01*
X604982Y705405D01*
X604988Y705256D01*
X604999Y705112D01*
X605010Y704974D01*
X605026Y704841D01*
X605037Y704719D01*
X605054Y704597D01*
X605076Y704486D01*
X605093Y704381D01*
X605109Y704281D01*
X605132Y704187D01*
X605154Y704104D01*
X605170Y704021D01*
X605192Y703944D01*
X605231Y703805D01*
X605275Y703694D01*
X605309Y703600D01*
X605342Y703523D01*
X605375Y703467D01*
X605397Y703429D01*
X605408Y703401D01*
X605414Y703395D01*
X605497Y703285D01*
X605586Y703191D01*
X605680Y703107D01*
X605768Y703035D01*
X605863Y702974D01*
X605951Y702925D01*
X606040Y702886D01*
X606123Y702853D01*
X606200Y702825D01*
X606272Y702808D01*
X606339Y702792D01*
X606394Y702786D01*
X606438Y702781D01*
X606472Y702775D01*
X606499D01*
X606615Y702781D01*
X606732Y702803D01*
X606843Y702831D01*
X606942Y702875D01*
X607042Y702919D01*
X607131Y702969D01*
X607214Y703030D01*
X607285Y703085D01*
X607357Y703141D01*
X607413Y703202D01*
X607468Y703251D01*
X607513Y703301D01*
X607546Y703340D01*
X607568Y703368D01*
X607584Y703390D01*
X607590Y703395D01*
X607629Y703456D01*
X607668Y703528D01*
X607701Y703600D01*
X607734Y703683D01*
X607795Y703855D01*
X607845Y704049D01*
X607883Y704254D01*
X607922Y704464D01*
X607950Y704675D01*
X607972Y704885D01*
X607989Y705084D01*
X608005Y705273D01*
X608016Y705450D01*
Y705527D01*
X608022Y705599D01*
Y705666D01*
Y705726D01*
X608027Y705776D01*
Y705821D01*
Y705859D01*
Y705882D01*
Y705898D01*
Y705904D01*
Y706075D01*
X608022Y706242D01*
X608016Y706402D01*
X608005Y706557D01*
X607994Y706701D01*
X607983Y706840D01*
X607967Y706972D01*
X607950Y707100D01*
X607933Y707222D01*
X607917Y707338D01*
X607895Y707449D01*
X607873Y707548D01*
X607856Y707648D01*
X607834Y707737D01*
X607812Y707825D01*
X607784Y707903D01*
X607740Y708047D01*
X607695Y708168D01*
X607657Y708268D01*
X607623Y708351D01*
X607590Y708412D01*
X607568Y708456D01*
X607551Y708484D01*
X607546Y708490D01*
X607468Y708584D01*
X607391Y708672D01*
X607308Y708744D01*
X607219Y708805D01*
X607136Y708861D01*
X607047Y708905D01*
X606964Y708938D01*
X606881Y708971D01*
X606804Y708994D01*
X606737Y709010D01*
X606671Y709021D01*
X606615Y709027D01*
X606571Y709032D01*
X606538Y709038D01*
D02*
G37*
%LPD*%
D20*
X697000Y771160D02*
X702300D01*
X591700D02*
X597000D01*
X704500Y756500D02*
Y774160D01*
X589500Y756500D02*
Y774160D01*
X654500Y784160D02*
Y785160D01*
X639500Y784160D02*
X654500D01*
X639500D02*
Y785160D01*
X591700D02*
X639500D01*
X654500D02*
X702300D01*
X591700Y771160D02*
Y785160D01*
X702300Y771160D02*
Y785160D01*
X703000Y774160D02*
X704500D01*
X702500Y773660D02*
X703000Y774160D01*
X702500Y766260D02*
Y773660D01*
X695725Y766260D02*
X702500D01*
X695725Y761860D02*
Y766260D01*
X598275Y761860D02*
X695725D01*
X598275D02*
Y766260D01*
X591500D02*
X598275D01*
X591500D02*
Y773660D01*
X591000Y774160D02*
X591500Y773660D01*
X589500Y774160D02*
X591000D01*
D26*
X722500Y769498D02*
X725832D01*
X724166D01*
Y761168D01*
X725832Y759502D01*
X727498D01*
X729165Y761168D01*
X719168Y759502D02*
X715835D01*
X717502D01*
Y769498D01*
X719168Y767832D01*
M02*
