G04*
G04 #@! TF.GenerationSoftware,Altium Limited,Altium Designer,24.5.2 (23)*
G04*
G04 Layer_Color=8388736*
%FSLAX44Y44*%
%MOMM*%
G71*
G04*
G04 #@! TF.SameCoordinates,DF3C02B5-3F0F-4488-AB2D-F481A5C04937*
G04*
G04*
G04 #@! TF.FilePolarity,Positive*
G04*
G01*
G75*
%ADD28C,0.0500*%
%ADD30C,0.2500*%
G36*
X663010Y762949D02*
X663057Y762870D01*
X663163Y762718D01*
X663279Y762574D01*
X663339Y762505D01*
X663394Y762440D01*
X663449Y762385D01*
X663500Y762329D01*
X663547Y762283D01*
X663588Y762242D01*
X663621Y762209D01*
X663644Y762186D01*
X663662Y762172D01*
X663667Y762168D01*
X663856Y762010D01*
X664055Y761867D01*
X664249Y761738D01*
X664342Y761682D01*
X664429Y761627D01*
X664508Y761581D01*
X664582Y761539D01*
X664651Y761502D01*
X664707Y761474D01*
X664753Y761451D01*
X664790Y761432D01*
X664809Y761423D01*
X664818Y761419D01*
Y760660D01*
X664679Y760716D01*
X664536Y760781D01*
X664397Y760845D01*
X664268Y760910D01*
X664212Y760943D01*
X664157Y760970D01*
X664111Y760998D01*
X664074Y761021D01*
X664041Y761035D01*
X664014Y761049D01*
X664000Y761058D01*
X663995Y761063D01*
X663829Y761164D01*
X663755Y761215D01*
X663681Y761262D01*
X663616Y761312D01*
X663556Y761354D01*
X663500Y761400D01*
X663445Y761437D01*
X663403Y761474D01*
X663362Y761507D01*
X663325Y761539D01*
X663297Y761562D01*
X663274Y761581D01*
X663260Y761594D01*
X663251Y761604D01*
X663246Y761608D01*
Y756606D01*
X662460D01*
Y763027D01*
X662969D01*
X663010Y762949D01*
D02*
G37*
G36*
X667328Y758594D02*
Y758492D01*
X667333Y758400D01*
X667337Y758317D01*
X667342Y758238D01*
X667346Y758164D01*
X667356Y758100D01*
X667365Y758039D01*
X667370Y757989D01*
X667379Y757942D01*
X667388Y757901D01*
X667397Y757868D01*
X667402Y757841D01*
X667407Y757822D01*
X667411Y757808D01*
X667416Y757799D01*
Y757794D01*
X667453Y757707D01*
X667504Y757628D01*
X667554Y757559D01*
X667610Y757503D01*
X667656Y757457D01*
X667698Y757425D01*
X667726Y757406D01*
X667730Y757397D01*
X667735D01*
X667823Y757351D01*
X667920Y757314D01*
X668012Y757290D01*
X668095Y757272D01*
X668169Y757263D01*
X668202Y757258D01*
X668230D01*
X668253Y757253D01*
X668285D01*
X668363Y757258D01*
X668438Y757267D01*
X668507Y757277D01*
X668576Y757295D01*
X668636Y757314D01*
X668692Y757337D01*
X668743Y757365D01*
X668789Y757388D01*
X668830Y757411D01*
X668863Y757438D01*
X668895Y757462D01*
X668918Y757480D01*
X668937Y757498D01*
X668955Y757512D01*
X668960Y757517D01*
X668964Y757522D01*
X669006Y757577D01*
X669048Y757642D01*
X669080Y757716D01*
X669112Y757790D01*
X669159Y757956D01*
X669191Y758123D01*
X669205Y758206D01*
X669214Y758280D01*
X669223Y758344D01*
X669228Y758405D01*
X669233Y758456D01*
X669237Y758492D01*
Y758516D01*
Y758525D01*
X670000Y758419D01*
Y758247D01*
X669986Y758086D01*
X669968Y757933D01*
X669940Y757794D01*
X669908Y757665D01*
X669875Y757545D01*
X669834Y757438D01*
X669792Y757341D01*
X669755Y757258D01*
X669713Y757184D01*
X669676Y757124D01*
X669644Y757073D01*
X669616Y757032D01*
X669593Y757004D01*
X669579Y756985D01*
X669575Y756981D01*
X669487Y756898D01*
X669390Y756824D01*
X669288Y756759D01*
X669182Y756703D01*
X669075Y756657D01*
X668969Y756616D01*
X668863Y756588D01*
X668761Y756560D01*
X668664Y756542D01*
X668572Y756528D01*
X668488Y756514D01*
X668419Y756509D01*
X668359Y756505D01*
X668317Y756500D01*
X668280D01*
X668174Y756505D01*
X668077Y756509D01*
X667980Y756523D01*
X667887Y756537D01*
X667804Y756555D01*
X667721Y756574D01*
X667647Y756592D01*
X667578Y756616D01*
X667513Y756639D01*
X667458Y756657D01*
X667411Y756676D01*
X667370Y756694D01*
X667337Y756708D01*
X667314Y756722D01*
X667300Y756727D01*
X667296Y756731D01*
X667217Y756777D01*
X667148Y756828D01*
X667083Y756879D01*
X667023Y756935D01*
X666967Y756990D01*
X666917Y757046D01*
X666870Y757101D01*
X666829Y757152D01*
X666796Y757203D01*
X666764Y757249D01*
X666736Y757290D01*
X666718Y757327D01*
X666699Y757360D01*
X666690Y757383D01*
X666681Y757397D01*
Y757402D01*
X666644Y757489D01*
X666616Y757582D01*
X666588Y757679D01*
X666565Y757781D01*
X666528Y757989D01*
X666519Y758090D01*
X666505Y758187D01*
X666500Y758280D01*
X666491Y758368D01*
X666487Y758446D01*
Y758511D01*
X666482Y758566D01*
Y758608D01*
Y758636D01*
Y758645D01*
Y763004D01*
X667328D01*
Y758594D01*
D02*
G37*
D28*
X587500Y739500D02*
X706500D01*
X587500D02*
Y787500D01*
X706500D01*
Y739500D02*
Y787500D01*
D30*
X592000Y743500D02*
G03*
X592000Y743500I-500J0D01*
G01*
M02*
