%FSDAX56Y56*%
%MOMM*%
%SFA1B1*%

%IPPOS*%
%AMD26*
4,1,8,-0.800100,-0.398780,0.800100,-0.398780,1.000760,-0.200660,1.000760,0.200660,0.800100,0.398780,-0.800100,0.398780,-1.000760,0.200660,-1.000760,-0.200660,-0.800100,-0.398780,0.0*
1,1,0.400000,-0.800100,-0.200660*
1,1,0.400000,0.800100,-0.200660*
1,1,0.400000,0.800100,0.200660*
1,1,0.400000,-0.800100,0.200660*
%
%AMD31*
4,1,4,0.000000,-0.337820,0.337820,0.000000,0.000000,0.337820,-0.337820,0.000000,0.000000,-0.337820,0.0*
%
%ADD25R,1.699997X3.649993*%
G04~CAMADD=26~8~0.0~0.0~787.4~315.0~78.7~0.0~15~0.0~0.0~0.0~0.0~0~0.0~0.0~0.0~0.0~0~0.0~0.0~0.0~180.0~788.0~315.0*
%ADD26D26*%
%ADD27R,0.899998X0.799998*%
%ADD28R,0.250000X0.150000*%
%ADD29R,0.250000X0.499999*%
%ADD30R,0.549999X0.899998*%
G04~CAMADD=31~10~0.0~189.0~0.0~0.0~0.0~0.0~0~0.0~0.0~0.0~0.0~0~0.0~0.0~0.0~0.0~0~0.0~0.0~0.0~225.0~189.0~0.0*
%ADD31D31*%
%ADD32R,0.479999X0.379999*%
%ADD33R,0.299999X0.200000*%
%ADD34C,0.499999*%
%ADD35R,0.399999X0.399999*%
%ADD36R,0.949998X0.399999*%
%ADD37R,2.299995X0.374999*%
%ADD38R,0.399999X1.299997*%
%ADD39R,0.499999X0.250000*%
%ADD40R,0.150000X0.250000*%
%ADD41C,0.200000*%
%ADD42R,0.399999X0.299999*%
%ADD43R,0.899998X0.549999*%
%ADD44R,0.299999X0.399999*%
%ADD45R,0.499999X0.469999*%
%ADD46R,0.240000X0.449999*%
%LNwcam-tk-pcb-r02_paste_top-1*%
%LPD*%
G36*
X00182573879Y00005560491D02*
X00182610480Y00005523788D01*
X00182630394Y00005475884*
Y00005449976*
Y00005424093*
X00182610480Y00005376087*
X00182573879Y00005339486*
X00182525898Y00005319598*
X00182474082*
X00182426076Y00005339486*
X00182389475Y00005376087*
X00182369587Y00005424093*
Y00005449976*
Y00005475884*
X00182389475Y00005523788*
X00182426076Y00005560491*
X00182474082Y00005580380*
X00182525898*
X00182573879Y00005560491*
G37*
G36*
X00181973778D02*
X00182010481Y00005523788D01*
X00182030395Y00005475884*
Y00005449976*
Y00005424093*
X00182010481Y00005376087*
X00181973778Y00005339486*
X00181925899Y00005319598*
X00181874083*
X00181826077Y00005339486*
X00181789476Y00005376087*
X00181769588Y00005424093*
Y00005449976*
Y00005475884*
X00181789476Y00005523788*
X00181826077Y00005560491*
X00181874083Y00005580380*
X00181925899*
X00181973778Y00005560491*
G37*
G36*
X00148073897Y00005460492D02*
X00148110498Y00005423890D01*
X00148130387Y00005375884*
Y00005349976*
Y00005324094*
X00148110498Y00005276088*
X00148073897Y00005239486*
X00148025891Y00005219598*
X00147974075*
X00147926094Y00005239486*
X00147889493Y00005276088*
X00147869579Y00005324094*
Y00005349976*
Y00005375884*
X00147889493Y00005423890*
X00147926094Y00005460492*
X00147974075Y00005480380*
X00148025891*
X00148073897Y00005460492*
G37*
G36*
X00195783784D02*
X00195820487Y00005423890D01*
X00195840375Y00005375884*
Y00005349976*
Y00005324094*
X00195820487Y00005276088*
X00195783784Y00005239486*
X00195735879Y00005219598*
X00195684089*
X00195636083Y00005239486*
X00195599481Y00005276088*
X00195579593Y00005324094*
Y00005349976*
Y00005375884*
X00195599481Y00005423890*
X00195636083Y00005460492*
X00195684089Y00005480380*
X00195735879*
X00195783784Y00005460492*
G37*
G36*
X00108473798Y00005410479D02*
X00108510476Y00005373878D01*
X00108530390Y00005325897*
Y00005299989*
Y00005274081*
X00108510476Y00005226075*
X00108473798Y00005189499*
X00108425894Y00005169585*
X00108374078*
X00108326097Y00005189499*
X00108289496Y00005226075*
X00108269582Y00005274081*
Y00005299989*
Y00005325897*
X00108289496Y00005373878*
X00108326097Y00005410479*
X00108374078Y00005430393*
X00108425894*
X00108473798Y00005410479*
G37*
G36*
X00107973876D02*
X00108010477Y00005373878D01*
X00108030391Y00005325897*
Y00005299989*
Y00005274081*
X00108010477Y00005226075*
X00107973876Y00005189499*
X00107925895Y00005169585*
X00107874079*
X00107826098Y00005189499*
X00107789497Y00005226075*
X00107769583Y00005274081*
Y00005299989*
Y00005325897*
X00107789497Y00005373878*
X00107826098Y00005410479*
X00107874079Y00005430393*
X00107925895*
X00107973876Y00005410479*
G37*
G36*
X00107373775D02*
X00107410478Y00005373878D01*
X00107430392Y00005325897*
Y00005299989*
Y00005274081*
X00107410478Y00005226075*
X00107373775Y00005189499*
X00107325896Y00005169585*
X00107274080*
X00107226100Y00005189499*
X00107189498Y00005226075*
X00107169585Y00005274081*
Y00005299989*
Y00005325897*
X00107189498Y00005373878*
X00107226100Y00005410479*
X00107274080Y00005430393*
X00107325896*
X00107373775Y00005410479*
G37*
G36*
X00106873878D02*
X00106910479Y00005373878D01*
X00106930393Y00005325897*
Y00005299989*
Y00005274081*
X00106910479Y00005226075*
X00106873878Y00005189499*
X00106825897Y00005169585*
X00106774081*
X00106726075Y00005189499*
X00106689499Y00005226075*
X00106669586Y00005274081*
Y00005299989*
Y00005325897*
X00106689499Y00005373878*
X00106726075Y00005410479*
X00106774081Y00005430393*
X00106825897*
X00106873878Y00005410479*
G37*
G36*
X00127723798Y00005310479D02*
X00127760476Y00005273878D01*
X00127780389Y00005225897*
Y00005199989*
Y00005174081*
X00127760476Y00005126075*
X00127723798Y00005089499*
X00127675894Y00005069586*
X00127624078*
X00127576097Y00005089499*
X00127539496Y00005126075*
X00127519582Y00005174081*
Y00005199989*
Y00005225897*
X00127539496Y00005273878*
X00127576097Y00005310479*
X00127624078Y00005330393*
X00127675894*
X00127723798Y00005310479*
G37*
G36*
X00127223875D02*
X00127260477Y00005273878D01*
X00127280390Y00005225897*
Y00005199989*
Y00005174081*
X00127260477Y00005126075*
X00127223875Y00005089499*
X00127175895Y00005069586*
X00127124079*
X00127076098Y00005089499*
X00127039497Y00005126075*
X00127019583Y00005174081*
Y00005199989*
Y00005225897*
X00127039497Y00005273878*
X00127076098Y00005310479*
X00127124079Y00005330393*
X00127175895*
X00127223875Y00005310479*
G37*
G36*
X00128323898Y00005210479D02*
X00128360474Y00005173878D01*
X00128380388Y00005125897*
Y00005099989*
Y00005074081*
X00128360474Y00005026075*
X00128323898Y00004989499*
X00128275892Y00004969586*
X00128224076*
X00128176096Y00004989499*
X00128139494Y00005026075*
X00128119581Y00005074081*
Y00005099989*
Y00005125897*
X00128139494Y00005173878*
X00128176096Y00005210479*
X00128224076Y00005230393*
X00128275892*
X00128323898Y00005210479*
G37*
G36*
X00182573879Y00005060492D02*
X00182610480Y00005023891D01*
X00182630394Y00004975885*
Y00004949977*
Y00004924094*
X00182610480Y00004876088*
X00182573879Y00004839487*
X00182525898Y00004819599*
X00182474082*
X00182426076Y00004839487*
X00182389475Y00004876088*
X00182369587Y00004924094*
Y00004949977*
Y00004975885*
X00182389475Y00005023891*
X00182426076Y00005060492*
X00182474082Y00005080381*
X00182525898*
X00182573879Y00005060492*
G37*
G36*
X00181973778D02*
X00182010481Y00005023891D01*
X00182030395Y00004975885*
Y00004949977*
Y00004924094*
X00182010481Y00004876088*
X00181973778Y00004839487*
X00181925899Y00004819599*
X00181874083*
X00181826077Y00004839487*
X00181789476Y00004876088*
X00181769588Y00004924094*
Y00004949977*
Y00004975885*
X00181789476Y00005023891*
X00181826077Y00005060492*
X00181874083Y00005080381*
X00181925899*
X00181973778Y00005060492*
G37*
G36*
X00148073897Y00004960493D02*
X00148110498Y00004923891D01*
X00148130387Y00004875885*
Y00004849977*
Y00004824095*
X00148110498Y00004776089*
X00148073897Y00004739487*
X00148025891Y00004719599*
X00147974075*
X00147926094Y00004739487*
X00147889493Y00004776089*
X00147869579Y00004824095*
Y00004849977*
Y00004875885*
X00147889493Y00004923891*
X00147926094Y00004960493*
X00147974075Y00004980381*
X00148025891*
X00148073897Y00004960493*
G37*
G36*
X00195783784D02*
X00195820487Y00004923891D01*
X00195840375Y00004875885*
Y00004849977*
Y00004824095*
X00195820487Y00004776089*
X00195783784Y00004739487*
X00195735879Y00004719599*
X00195684089*
X00195636083Y00004739487*
X00195599481Y00004776089*
X00195579593Y00004824095*
Y00004849977*
Y00004875885*
X00195599481Y00004923891*
X00195636083Y00004960493*
X00195684089Y00004980381*
X00195735879*
X00195783784Y00004960493*
G37*
G36*
X00035173894Y00004910480D02*
X00035210496Y00004873879D01*
X00035230384Y00004825898*
Y00004799990*
Y00004774082*
X00035210496Y00004726076*
X00035173894Y00004689475*
X00035125888Y00004669586*
X00035074098*
X00035026092Y00004689475*
X00034989490Y00004726076*
X00034969577Y00004774082*
Y00004799990*
Y00004825898*
X00034989490Y00004873879*
X00035026092Y00004910480*
X00035074098Y00004930394*
X00035125888*
X00035173894Y00004910480*
G37*
G36*
X00034673895D02*
X00034710497Y00004873879D01*
X00034730385Y00004825898*
Y00004799990*
Y00004774082*
X00034710497Y00004726076*
X00034673895Y00004689475*
X00034625889Y00004669586*
X00034574099*
X00034526093Y00004689475*
X00034489491Y00004726076*
X00034469578Y00004774082*
Y00004799990*
Y00004825898*
X00034489491Y00004873879*
X00034526093Y00004910480*
X00034574099Y00004930394*
X00034625889*
X00034673895Y00004910480*
G37*
G36*
X00033823884D02*
X00033860486Y00004873879D01*
X00033880399Y00004825898*
Y00004799990*
Y00004774082*
X00033860486Y00004726076*
X00033823884Y00004689475*
X00033775878Y00004669586*
X00033724088*
X00033676082Y00004689475*
X00033639480Y00004726076*
X00033619592Y00004774082*
Y00004799990*
Y00004825898*
X00033639480Y00004873879*
X00033676082Y00004910480*
X00033724088Y00004930394*
X00033775878*
X00033823884Y00004910480*
G37*
G36*
X00032973899D02*
X00033010475Y00004873879D01*
X00033030388Y00004825898*
Y00004799990*
Y00004774082*
X00033010475Y00004726076*
X00032973899Y00004689475*
X00032925893Y00004669586*
X00032874077*
X00032826096Y00004689475*
X00032789495Y00004726076*
X00032769581Y00004774082*
Y00004799990*
Y00004825898*
X00032789495Y00004873879*
X00032826096Y00004910480*
X00032874077Y00004930394*
X00032925893*
X00032973899Y00004910480*
G37*
G36*
X00032473900D02*
X00032510476Y00004873879D01*
X00032530389Y00004825898*
Y00004799990*
Y00004774082*
X00032510476Y00004726076*
X00032473900Y00004689475*
X00032425894Y00004669586*
X00032374078*
X00032326097Y00004689475*
X00032289496Y00004726076*
X00032269582Y00004774082*
Y00004799990*
Y00004825898*
X00032289496Y00004873879*
X00032326097Y00004910480*
X00032374078Y00004930394*
X00032425894*
X00032473900Y00004910480*
G37*
G36*
X00173123885Y00004860493D02*
X00173160486Y00004823891D01*
X00173180375Y00004775885*
Y00004749977*
Y00004724095*
X00173160486Y00004676089*
X00173123885Y00004639487*
X00173075879Y00004619599*
X00173024088*
X00172976082Y00004639487*
X00172939481Y00004676089*
X00172919593Y00004724095*
Y00004749977*
Y00004775885*
X00172939481Y00004823891*
X00172976082Y00004860493*
X00173024088Y00004880381*
X00173075879*
X00173123885Y00004860493*
G37*
G36*
X00172623886D02*
X00172660487Y00004823891D01*
X00172680376Y00004775885*
Y00004749977*
Y00004724095*
X00172660487Y00004676089*
X00172623886Y00004639487*
X00172575880Y00004619599*
X00172524089*
X00172476083Y00004639487*
X00172439482Y00004676089*
X00172419594Y00004724095*
Y00004749977*
Y00004775885*
X00172439482Y00004823891*
X00172476083Y00004860493*
X00172524089Y00004880381*
X00172575880*
X00172623886Y00004860493*
G37*
G36*
X00170823890D02*
X00170860491Y00004823891D01*
X00170880379Y00004775885*
Y00004749977*
Y00004724095*
X00170860491Y00004676089*
X00170823890Y00004639487*
X00170775884Y00004619599*
X00170724093*
X00170676087Y00004639487*
X00170639486Y00004676089*
X00170619597Y00004724095*
Y00004749977*
Y00004775885*
X00170639486Y00004823891*
X00170676087Y00004860493*
X00170724093Y00004880381*
X00170775884*
X00170823890Y00004860493*
G37*
G36*
X00170323891D02*
X00170360492Y00004823891D01*
X00170380380Y00004775885*
Y00004749977*
Y00004724095*
X00170360492Y00004676089*
X00170323891Y00004639487*
X00170275885Y00004619599*
X00170224094*
X00170176088Y00004639487*
X00170139487Y00004676089*
X00170119598Y00004724095*
Y00004749977*
Y00004775885*
X00170139487Y00004823891*
X00170176088Y00004860493*
X00170224094Y00004880381*
X00170275885*
X00170323891Y00004860493*
G37*
G36*
X00171723888Y00004810480D02*
X00171760489Y00004773777D01*
X00171780377Y00004725898*
Y00004699990*
Y00004674082*
X00171760489Y00004626076*
X00171723888Y00004589475*
X00171675882Y00004569587*
X00171624091*
X00171576085Y00004589475*
X00171539484Y00004626076*
X00171519596Y00004674082*
Y00004699990*
Y00004725898*
X00171539484Y00004773777*
X00171576085Y00004810480*
X00171624091Y00004830394*
X00171675882*
X00171723888Y00004810480*
G37*
G36*
X00107373877Y00004760493D02*
X00107410478Y00004723892D01*
X00107430392Y00004675886*
Y00004649978*
Y00004624095*
X00107410478Y00004576089*
X00107373877Y00004539488*
X00107325896Y00004519599*
X00107274080*
X00107226100Y00004539488*
X00107189498Y00004576089*
X00107169585Y00004624095*
Y00004649978*
Y00004675886*
X00107189498Y00004723892*
X00107226100Y00004760493*
X00107274080Y00004780381*
X00107325896*
X00107373877Y00004760493*
G37*
G36*
X00106873878D02*
X00106910479Y00004723892D01*
X00106930393Y00004675886*
Y00004649978*
Y00004624095*
X00106910479Y00004576089*
X00106873878Y00004539488*
X00106825897Y00004519599*
X00106774081*
X00106726075Y00004539488*
X00106689499Y00004576089*
X00106669586Y00004624095*
Y00004649978*
Y00004675886*
X00106689499Y00004723892*
X00106726075Y00004760493*
X00106774081Y00004780381*
X00106825897*
X00106873878Y00004760493*
G37*
G36*
X00128323898Y00004710480D02*
X00128360474Y00004673879D01*
X00128380388Y00004625898*
Y00004599990*
Y00004574082*
X00128360474Y00004526076*
X00128323898Y00004489475*
X00128275892Y00004469587*
X00128224076*
X00128176096Y00004489475*
X00128139494Y00004526076*
X00128119581Y00004574082*
Y00004599990*
Y00004625898*
X00128139494Y00004673879*
X00128176096Y00004710480*
X00128224076Y00004730394*
X00128275892*
X00128323898Y00004710480*
G37*
G36*
X00127723798D02*
X00127760476Y00004673879D01*
X00127780389Y00004625898*
Y00004599990*
Y00004574082*
X00127760476Y00004526076*
X00127723798Y00004489475*
X00127675894Y00004469587*
X00127624078*
X00127576097Y00004489475*
X00127539496Y00004526076*
X00127519582Y00004574082*
Y00004599990*
Y00004625898*
X00127539496Y00004673879*
X00127576097Y00004710480*
X00127624078Y00004730394*
X00127675894*
X00127723798Y00004710480*
G37*
G36*
X00127223875D02*
X00127260477Y00004673879D01*
X00127280390Y00004625898*
Y00004599990*
Y00004574082*
X00127260477Y00004526076*
X00127223875Y00004489475*
X00127175895Y00004469587*
X00127124079*
X00127076098Y00004489475*
X00127039497Y00004526076*
X00127019583Y00004574082*
Y00004599990*
Y00004625898*
X00127039497Y00004673879*
X00127076098Y00004710480*
X00127124079Y00004730394*
X00127175895*
X00127223875Y00004710480*
G37*
G36*
X00108073875D02*
X00108110477Y00004673879D01*
X00108130390Y00004625898*
Y00004599990*
Y00004574082*
X00108110477Y00004526076*
X00108073875Y00004489475*
X00108025895Y00004469587*
X00107974079*
X00107926098Y00004489475*
X00107889497Y00004526076*
X00107869583Y00004574082*
Y00004599990*
Y00004625898*
X00107889497Y00004673879*
X00107926098Y00004710480*
X00107974079Y00004730394*
X00108025895*
X00108073875Y00004710480*
G37*
G36*
X00033823884Y00004410481D02*
X00033860486Y00004373880D01*
X00033880399Y00004325899*
Y00004299991*
Y00004274083*
X00033860486Y00004226077*
X00033823884Y00004189475*
X00033775878Y00004169587*
X00033724088*
X00033676082Y00004189475*
X00033639480Y00004226077*
X00033619592Y00004274083*
Y00004299991*
Y00004325899*
X00033639480Y00004373880*
X00033676082Y00004410481*
X00033724088Y00004430395*
X00033775878*
X00033823884Y00004410481*
G37*
G36*
X00171723888Y00004310481D02*
X00171760489Y00004273778D01*
X00171780377Y00004225899*
Y00004199991*
Y00004174083*
X00171760489Y00004126077*
X00171723888Y00004089476*
X00171675882Y00004069588*
X00171624091*
X00171576085Y00004089476*
X00171539484Y00004126077*
X00171519596Y00004174083*
Y00004199991*
Y00004225899*
X00171539484Y00004273778*
X00171576085Y00004310481*
X00171624091Y00004330395*
X00171675882*
X00171723888Y00004310481*
G37*
G36*
X00037873889D02*
X00037910490Y00004273778D01*
X00037930378Y00004225899*
Y00004199991*
Y00004174083*
X00037910490Y00004126077*
X00037873889Y00004089476*
X00037825883Y00004069588*
X00037774092*
X00037726086Y00004089476*
X00037689485Y00004126077*
X00037669597Y00004174083*
Y00004199991*
Y00004225899*
X00037689485Y00004273778*
X00037726086Y00004310481*
X00037774092Y00004330395*
X00037825883*
X00037873889Y00004310481*
G37*
G36*
X00035173894D02*
X00035210496Y00004273778D01*
X00035230384Y00004225899*
Y00004199991*
Y00004174083*
X00035210496Y00004126077*
X00035173894Y00004089476*
X00035125888Y00004069588*
X00035074098*
X00035026092Y00004089476*
X00034989490Y00004126077*
X00034969577Y00004174083*
Y00004199991*
Y00004225899*
X00034989490Y00004273778*
X00035026092Y00004310481*
X00035074098Y00004330395*
X00035125888*
X00035173894Y00004310481*
G37*
G36*
X00034673895D02*
X00034710497Y00004273778D01*
X00034730385Y00004225899*
Y00004199991*
Y00004174083*
X00034710497Y00004126077*
X00034673895Y00004089476*
X00034625889Y00004069588*
X00034574099*
X00034526093Y00004089476*
X00034489491Y00004126077*
X00034469578Y00004174083*
Y00004199991*
Y00004225899*
X00034489491Y00004273778*
X00034526093Y00004310481*
X00034574099Y00004330395*
X00034625889*
X00034673895Y00004310481*
G37*
G36*
X00032973899D02*
X00033010475Y00004273778D01*
X00033030388Y00004225899*
Y00004199991*
Y00004174083*
X00033010475Y00004126077*
X00032973899Y00004089476*
X00032925893Y00004069588*
X00032874077*
X00032826096Y00004089476*
X00032789495Y00004126077*
X00032769581Y00004174083*
Y00004199991*
Y00004225899*
X00032789495Y00004273778*
X00032826096Y00004310481*
X00032874077Y00004330395*
X00032925893*
X00032973899Y00004310481*
G37*
G36*
X00032473900D02*
X00032510476Y00004273778D01*
X00032530389Y00004225899*
Y00004199991*
Y00004174083*
X00032510476Y00004126077*
X00032473900Y00004089476*
X00032425894Y00004069588*
X00032374078*
X00032326097Y00004089476*
X00032289496Y00004126077*
X00032269582Y00004174083*
Y00004199991*
Y00004225899*
X00032289496Y00004273778*
X00032326097Y00004310481*
X00032374078Y00004330395*
X00032425894*
X00032473900Y00004310481*
G37*
G36*
X00173123885Y00004260494D02*
X00173160486Y00004223791D01*
X00173180375Y00004175886*
Y00004149979*
Y00004124096*
X00173160486Y00004076090*
X00173123885Y00004039489*
X00173075879Y00004019575*
X00173024088*
X00172976082Y00004039489*
X00172939481Y00004076090*
X00172919593Y00004124096*
Y00004149979*
Y00004175886*
X00172939481Y00004223791*
X00172976082Y00004260494*
X00173024088Y00004280382*
X00173075879*
X00173123885Y00004260494*
G37*
G36*
X00172623886D02*
X00172660487Y00004223791D01*
X00172680376Y00004175886*
Y00004149979*
Y00004124096*
X00172660487Y00004076090*
X00172623886Y00004039489*
X00172575880Y00004019575*
X00172524089*
X00172476083Y00004039489*
X00172439482Y00004076090*
X00172419594Y00004124096*
Y00004149979*
Y00004175886*
X00172439482Y00004223791*
X00172476083Y00004260494*
X00172524089Y00004280382*
X00172575880*
X00172623886Y00004260494*
G37*
G36*
X00170823890D02*
X00170860491Y00004223791D01*
X00170880379Y00004175886*
Y00004149979*
Y00004124096*
X00170860491Y00004076090*
X00170823890Y00004039489*
X00170775884Y00004019575*
X00170724093*
X00170676087Y00004039489*
X00170639486Y00004076090*
X00170619597Y00004124096*
Y00004149979*
Y00004175886*
X00170639486Y00004223791*
X00170676087Y00004260494*
X00170724093Y00004280382*
X00170775884*
X00170823890Y00004260494*
G37*
G36*
X00170323891D02*
X00170360492Y00004223791D01*
X00170380380Y00004175886*
Y00004149979*
Y00004124096*
X00170360492Y00004076090*
X00170323891Y00004039489*
X00170275885Y00004019575*
X00170224094*
X00170176088Y00004039489*
X00170139487Y00004076090*
X00170119598Y00004124096*
Y00004149979*
Y00004175886*
X00170139487Y00004223791*
X00170176088Y00004260494*
X00170224094Y00004280382*
X00170275885*
X00170323891Y00004260494*
G37*
G36*
X00182523790Y00004210481D02*
X00182560493Y00004173880D01*
X00182580381Y00004125899*
Y00004099991*
Y00004074083*
X00182560493Y00004026077*
X00182523790Y00003989476*
X00182475886Y00003969588*
X00182424095*
X00182376089Y00003989476*
X00182339488Y00004026077*
X00182319599Y00004074083*
Y00004099991*
Y00004125899*
X00182339488Y00004173880*
X00182376089Y00004210481*
X00182424095Y00004230395*
X00182475886*
X00182523790Y00004210481*
G37*
G36*
X00182023791D02*
X00182060494Y00004173880D01*
X00182080382Y00004125899*
Y00004099991*
Y00004074083*
X00182060494Y00004026077*
X00182023791Y00003989476*
X00181975887Y00003969588*
X00181924096*
X00181876090Y00003989476*
X00181839489Y00004026077*
X00181819575Y00004074083*
Y00004099991*
Y00004125899*
X00181839489Y00004173880*
X00181876090Y00004210481*
X00181924096Y00004230395*
X00181975887*
X00182023791Y00004210481*
G37*
G36*
X00108073875D02*
X00108110477Y00004173880D01*
X00108130390Y00004125899*
Y00004099991*
Y00004074083*
X00108110477Y00004026077*
X00108073875Y00003989476*
X00108025895Y00003969588*
X00107974079*
X00107926098Y00003989476*
X00107889497Y00004026077*
X00107869583Y00004074083*
Y00004099991*
Y00004125899*
X00107889497Y00004173880*
X00107926098Y00004210481*
X00107974079Y00004230395*
X00108025895*
X00108073875Y00004210481*
G37*
G36*
X00107373877Y00004160494D02*
X00107410478Y00004123893D01*
X00107430392Y00004075887*
Y00004049979*
Y00004024096*
X00107410478Y00003976192*
X00107373877Y00003939489*
X00107325896Y00003919575*
X00107274080*
X00107226100Y00003939489*
X00107189498Y00003976192*
X00107169585Y00004024096*
Y00004049979*
Y00004075887*
X00107189498Y00004123893*
X00107226100Y00004160494*
X00107274080Y00004180382*
X00107325896*
X00107373877Y00004160494*
G37*
G36*
X00106873878D02*
X00106910479Y00004123893D01*
X00106930393Y00004075887*
Y00004049979*
Y00004024096*
X00106910479Y00003976192*
X00106873878Y00003939489*
X00106825897Y00003919575*
X00106774081*
X00106726075Y00003939489*
X00106689499Y00003976192*
X00106669586Y00004024096*
Y00004049979*
Y00004075887*
X00106689499Y00004123893*
X00106726075Y00004160494*
X00106774081Y00004180382*
X00106825897*
X00106873878Y00004160494*
G37*
G36*
X00097798890Y00003980484D02*
X00097835491Y00003943883D01*
X00097855379Y00003895877*
Y00003869994*
Y00003844086*
X00097835491Y00003796080*
X00097798890Y00003759479*
X00097750884Y00003739591*
X00097699093*
X00097651087Y00003759479*
X00097614486Y00003796080*
X00097594597Y00003844086*
Y00003869994*
Y00003895877*
X00097614486Y00003943883*
X00097651087Y00003980484*
X00097699093Y00004000398*
X00097750884*
X00097798890Y00003980484*
G37*
G36*
X00097198891D02*
X00097235492Y00003943883D01*
X00097255380Y00003895877*
Y00003869994*
Y00003844086*
X00097235492Y00003796080*
X00097198891Y00003759479*
X00097150885Y00003739591*
X00097099094*
X00097051088Y00003759479*
X00097014487Y00003796080*
X00096994599Y00003844086*
Y00003869994*
Y00003895877*
X00097014487Y00003943883*
X00097051088Y00003980484*
X00097099094Y00004000398*
X00097150885*
X00097198891Y00003980484*
G37*
G36*
X00098398888Y00003960495D02*
X00098435490Y00003923893D01*
X00098455378Y00003875887*
Y00003849979*
Y00003824097*
X00098435490Y00003776091*
X00098398888Y00003739489*
X00098350882Y00003719576*
X00098299092*
X00098251086Y00003739489*
X00098214484Y00003776091*
X00098194596Y00003824097*
Y00003849979*
Y00003875887*
X00098214484Y00003923893*
X00098251086Y00003960495*
X00098299092Y00003980383*
X00098350882*
X00098398888Y00003960495*
G37*
G36*
X00098998786D02*
X00099035489Y00003923893D01*
X00099055377Y00003875887*
Y00003849979*
Y00003824097*
X00099035489Y00003776091*
X00098998786Y00003739489*
X00098950881Y00003719576*
X00098899091*
X00098851085Y00003739489*
X00098814483Y00003776091*
X00098794595Y00003824097*
Y00003849979*
Y00003875887*
X00098814483Y00003923893*
X00098851085Y00003960495*
X00098899091Y00003980383*
X00098950881*
X00098998786Y00003960495*
G37*
G36*
X00167443886Y00003872382D02*
X00167480488Y00003835679D01*
X00167500376Y00003787775*
Y00003761892*
Y00003735882*
X00167480488Y00003687978*
X00167443886Y00003651275*
X00167395880Y00003631488*
X00167344090*
X00167296084Y00003651275*
X00167259482Y00003687978*
X00167239594Y00003735882*
Y00003761892*
Y00003787775*
X00167259482Y00003835679*
X00167296084Y00003872382*
X00167344090Y00003892296*
X00167395880*
X00167443886Y00003872382*
G37*
G36*
X00045443876D02*
X00045480478Y00003835679D01*
X00045500391Y00003787775*
Y00003761892*
Y00003735882*
X00045480478Y00003687978*
X00045443876Y00003651275*
X00045395896Y00003631488*
X00045344080*
X00045296099Y00003651275*
X00045259498Y00003687978*
X00045239584Y00003735882*
Y00003761892*
Y00003787775*
X00045259498Y00003835679*
X00045296099Y00003872382*
X00045344080Y00003892296*
X00045395896*
X00045443876Y00003872382*
G37*
G36*
X00037873889Y00003810482D02*
X00037910490Y00003773881D01*
X00037930378Y00003725875*
Y00003699992*
Y00003674084*
X00037910490Y00003626078*
X00037873889Y00003589477*
X00037825883Y00003569589*
X00037774092*
X00037726086Y00003589477*
X00037689485Y00003626078*
X00037669597Y00003674084*
Y00003699992*
Y00003725875*
X00037689485Y00003773881*
X00037726086Y00003810482*
X00037774092Y00003830396*
X00037825883*
X00037873889Y00003810482*
G37*
G36*
X00035973893D02*
X00036010494Y00003773881D01*
X00036030382Y00003725875*
Y00003699992*
Y00003674084*
X00036010494Y00003626078*
X00035973893Y00003589477*
X00035925887Y00003569589*
X00035874096*
X00035826090Y00003589477*
X00035789489Y00003626078*
X00035769575Y00003674084*
Y00003699992*
Y00003725875*
X00035789489Y00003773881*
X00035826090Y00003810482*
X00035874096Y00003830396*
X00035925887*
X00035973893Y00003810482*
G37*
G36*
X00109059980Y00003419983D02*
X00108879995D01*
X00108699985Y00003599992*
Y00003629990*
X00109059980*
Y00003419983*
G37*
G36*
X00108199986Y00003599992D02*
X00108019977Y00003419983D01*
X00107839992*
Y00003629990*
X00108199986*
Y00003599992*
G37*
G36*
X00109573898Y00003660495D02*
X00109610499Y00003623894D01*
X00109630387Y00003575888*
Y00003549980*
Y00003524097*
X00109610499Y00003476091*
X00109573898Y00003439490*
X00109525892Y00003419576*
X00109474076*
X00109426095Y00003439490*
X00109389494Y00003476091*
X00109369580Y00003524097*
Y00003549980*
Y00003575888*
X00109389494Y00003623894*
X00109426095Y00003660495*
X00109474076Y00003680383*
X00109525892*
X00109573898Y00003660495*
G37*
G36*
X00107473877Y00003560495D02*
X00107510478Y00003523894D01*
X00107530392Y00003475888*
Y00003449980*
Y00003424097*
X00107510478Y00003376091*
X00107473877Y00003339490*
X00107425896Y00003319576*
X00107374080*
X00107326099Y00003339490*
X00107289498Y00003376091*
X00107269584Y00003424097*
Y00003449980*
Y00003475888*
X00107289498Y00003523894*
X00107326099Y00003560495*
X00107374080Y00003580384*
X00107425896*
X00107473877Y00003560495*
G37*
G36*
X00106873878D02*
X00106910479Y00003523894D01*
X00106930393Y00003475888*
Y00003449980*
Y00003424097*
X00106910479Y00003376091*
X00106873878Y00003339490*
X00106825897Y00003319576*
X00106774081*
X00106726075Y00003339490*
X00106689499Y00003376091*
X00106669586Y00003424097*
Y00003449980*
Y00003475888*
X00106689499Y00003523894*
X00106726075Y00003560495*
X00106774081Y00003580384*
X00106825897*
X00106873878Y00003560495*
G37*
G36*
X00097798890Y00003480485D02*
X00097835491Y00003443884D01*
X00097855379Y00003395878*
Y00003369995*
Y00003344087*
X00097835491Y00003296081*
X00097798890Y00003259480*
X00097750884Y00003239592*
X00097699093*
X00097651087Y00003259480*
X00097614486Y00003296081*
X00097594597Y00003344087*
Y00003369995*
Y00003395878*
X00097614486Y00003443884*
X00097651087Y00003480485*
X00097699093Y00003500399*
X00097750884*
X00097798890Y00003480485*
G37*
G36*
X00097198891D02*
X00097235492Y00003443884D01*
X00097255380Y00003395878*
Y00003369995*
Y00003344087*
X00097235492Y00003296081*
X00097198891Y00003259480*
X00097150885Y00003239592*
X00097099094*
X00097051088Y00003259480*
X00097014487Y00003296081*
X00096994599Y00003344087*
Y00003369995*
Y00003395878*
X00097014487Y00003443884*
X00097051088Y00003480485*
X00097099094Y00003500399*
X00097150885*
X00097198891Y00003480485*
G37*
G36*
X00098398888Y00003460496D02*
X00098435490Y00003423894D01*
X00098455378Y00003375888*
Y00003349980*
Y00003324098*
X00098435490Y00003276092*
X00098398888Y00003239490*
X00098350882Y00003219577*
X00098299092*
X00098251086Y00003239490*
X00098214484Y00003276092*
X00098194596Y00003324098*
Y00003349980*
Y00003375888*
X00098214484Y00003423894*
X00098251086Y00003460496*
X00098299092Y00003480384*
X00098350882*
X00098398888Y00003460496*
G37*
G36*
X00098998786D02*
X00099035489Y00003423894D01*
X00099055377Y00003375888*
Y00003349980*
Y00003324098*
X00099035489Y00003276092*
X00098998786Y00003239490*
X00098950881Y00003219577*
X00098899091*
X00098851085Y00003239490*
X00098814483Y00003276092*
X00098794595Y00003324098*
Y00003349980*
Y00003375888*
X00098814483Y00003423894*
X00098851085Y00003460496*
X00098899091Y00003480384*
X00098950881*
X00098998786Y00003460496*
G37*
G36*
X00167443886Y00003372383D02*
X00167480488Y00003335680D01*
X00167500376Y00003287776*
Y00003261893*
Y00003235883*
X00167480488Y00003187979*
X00167443886Y00003151276*
X00167395880Y00003131489*
X00167344090*
X00167296084Y00003151276*
X00167259482Y00003187979*
X00167239594Y00003235883*
Y00003261893*
Y00003287776*
X00167259482Y00003335680*
X00167296084Y00003372383*
X00167344090Y00003392297*
X00167395880*
X00167443886Y00003372383*
G37*
G36*
X00045443876D02*
X00045480478Y00003335680D01*
X00045500391Y00003287776*
Y00003261893*
Y00003235883*
X00045480478Y00003187979*
X00045443876Y00003151276*
X00045395896Y00003131489*
X00045344080*
X00045296099Y00003151276*
X00045259498Y00003187979*
X00045239584Y00003235883*
Y00003261893*
Y00003287776*
X00045259498Y00003335680*
X00045296099Y00003372383*
X00045344080Y00003392297*
X00045395896*
X00045443876Y00003372383*
G37*
G36*
X00182573879Y00003360496D02*
X00182610480Y00003323793D01*
X00182630394Y00003275888*
Y00003249980*
Y00003224098*
X00182610480Y00003176092*
X00182573879Y00003139490*
X00182525898Y00003119577*
X00182474082*
X00182426076Y00003139490*
X00182389475Y00003176092*
X00182369587Y00003224098*
Y00003249980*
Y00003275888*
X00182389475Y00003323793*
X00182426076Y00003360496*
X00182474082Y00003380384*
X00182525898*
X00182573879Y00003360496*
G37*
G36*
X00181973778D02*
X00182010481Y00003323793D01*
X00182030395Y00003275888*
Y00003249980*
Y00003224098*
X00182010481Y00003176092*
X00181973778Y00003139490*
X00181925899Y00003119577*
X00181874083*
X00181826077Y00003139490*
X00181789476Y00003176092*
X00181769588Y00003224098*
Y00003249980*
Y00003275888*
X00181789476Y00003323793*
X00181826077Y00003360496*
X00181874083Y00003380384*
X00181925899*
X00181973778Y00003360496*
G37*
G36*
X00035973893Y00003310483D02*
X00036010494Y00003273882D01*
X00036030382Y00003225876*
Y00003199993*
Y00003174085*
X00036010494Y00003126079*
X00035973893Y00003089478*
X00035925887Y00003069590*
X00035874096*
X00035826090Y00003089478*
X00035789489Y00003126079*
X00035769575Y00003174085*
Y00003199993*
Y00003225876*
X00035789489Y00003273882*
X00035826090Y00003310483*
X00035874096Y00003330397*
X00035925887*
X00035973893Y00003310483*
G37*
G36*
X00074573892D02*
X00074610493Y00003273780D01*
X00074630381Y00003225876*
Y00003199993*
Y00003174085*
X00074610493Y00003126079*
X00074573892Y00003089478*
X00074525886Y00003069590*
X00074474095*
X00074426089Y00003089478*
X00074389488Y00003126079*
X00074369599Y00003174085*
Y00003199993*
Y00003225876*
X00074389488Y00003273780*
X00074426089Y00003310483*
X00074474095Y00003330397*
X00074525886*
X00074573892Y00003310483*
G37*
G36*
X00109573898Y00003160496D02*
X00109610499Y00003123895D01*
X00109630387Y00003075889*
Y00003049981*
Y00003024098*
X00109610499Y00002976092*
X00109573898Y00002939491*
X00109525892Y00002919577*
X00109474076*
X00109426095Y00002939491*
X00109389494Y00002976092*
X00109369580Y00003024098*
Y00003049981*
Y00003075889*
X00109389494Y00003123895*
X00109426095Y00003160496*
X00109474076Y00003180384*
X00109525892*
X00109573898Y00003160496*
G37*
G36*
X00197573900D02*
X00197610476Y00003123895D01*
X00197630389Y00003075889*
Y00003049981*
Y00003024098*
X00197610476Y00002976092*
X00197573900Y00002939491*
X00197525894Y00002919577*
X00197474078*
X00197426097Y00002939491*
X00197389496Y00002976092*
X00197369582Y00003024098*
Y00003049981*
Y00003075889*
X00197389496Y00003123895*
X00197426097Y00003160496*
X00197474078Y00003180384*
X00197525894*
X00197573900Y00003160496*
G37*
G36*
X00197073875D02*
X00197110477Y00003123895D01*
X00197130390Y00003075889*
Y00003049981*
Y00003024098*
X00197110477Y00002976092*
X00197073875Y00002939491*
X00197025895Y00002919577*
X00196974079*
X00196926098Y00002939491*
X00196889497Y00002976092*
X00196869583Y00003024098*
Y00003049981*
Y00003075889*
X00196889497Y00003123895*
X00196926098Y00003160496*
X00196974079Y00003180384*
X00197025895*
X00197073875Y00003160496*
G37*
G36*
X00162668889Y00003147390D02*
X00162705491Y00003110687D01*
X00162725379Y00003062782*
Y00003036874*
Y00003010890*
X00162705491Y00002962986*
X00162668889Y00002926283*
X00162620883Y00002906496*
X00162569093*
X00162521087Y00002926283*
X00162484485Y00002962986*
X00162464597Y00003010890*
Y00003036874*
Y00003062782*
X00162484485Y00003110687*
X00162521087Y00003147390*
X00162569093Y00003167278*
X00162620883*
X00162668889Y00003147390*
G37*
G36*
X00162168890D02*
X00162205492Y00003110687D01*
X00162225380Y00003062782*
Y00003036874*
Y00003010890*
X00162205492Y00002962986*
X00162168890Y00002926283*
X00162120884Y00002906496*
X00162069094*
X00162021088Y00002926283*
X00161984486Y00002962986*
X00161964598Y00003010890*
Y00003036874*
Y00003062782*
X00161984486Y00003110687*
X00162021088Y00003147390*
X00162069094Y00003167278*
X00162120884*
X00162168890Y00003147390*
G37*
G36*
X00107473877Y00003060496D02*
X00107510478Y00003023895D01*
X00107530392Y00002975889*
Y00002949981*
Y00002924098*
X00107510478Y00002876092*
X00107473877Y00002839491*
X00107425896Y00002819577*
X00107374080*
X00107326099Y00002839491*
X00107289498Y00002876092*
X00107269584Y00002924098*
Y00002949981*
Y00002975889*
X00107289498Y00003023895*
X00107326099Y00003060496*
X00107374080Y00003080385*
X00107425896*
X00107473877Y00003060496*
G37*
G36*
X00106873878D02*
X00106910479Y00003023895D01*
X00106930393Y00002975889*
Y00002949981*
Y00002924098*
X00106910479Y00002876092*
X00106873878Y00002839491*
X00106825897Y00002819577*
X00106774081*
X00106726075Y00002839491*
X00106689499Y00002876092*
X00106669586Y00002924098*
Y00002949981*
Y00002975889*
X00106689499Y00003023895*
X00106726075Y00003060496*
X00106774081Y00003080385*
X00106825897*
X00106873878Y00003060496*
G37*
G36*
X00195173879D02*
X00195210480Y00003023793D01*
X00195230394Y00002975889*
Y00002949981*
Y00002924098*
X00195210480Y00002876092*
X00195173879Y00002839491*
X00195125898Y00002819577*
X00195074082*
X00195026076Y00002839491*
X00194989475Y00002876092*
X00194969587Y00002924098*
Y00002949981*
Y00002975889*
X00194989475Y00003023793*
X00195026076Y00003060496*
X00195074082Y00003080385*
X00195125898*
X00195173879Y00003060496*
G37*
G36*
X00109059980Y00002769997D02*
X00108699985D01*
Y00002799994*
X00108879995Y00002979978*
X00109059980*
Y00002769997*
G37*
G36*
X00108199986Y00002799994D02*
Y00002769997D01*
X00107839992*
Y00002979978*
X00108019977*
X00108199986Y00002799994*
G37*
G36*
X00077609979Y00002769997D02*
X00077429995D01*
X00077249985Y00002949981*
Y00002979978*
X00077609979*
Y00002769997*
G37*
G36*
X00076749986Y00002949981D02*
X00076569976Y00002769997D01*
X00076389992*
Y00002979978*
X00076749986*
Y00002949981*
G37*
G36*
X00097678798Y00002900476D02*
X00097715476Y00002863875D01*
X00097735390Y00002815894*
Y00002789986*
Y00002764078*
X00097715476Y00002716098*
X00097678798Y00002679496*
X00097630894Y00002659583*
X00097579078*
X00097531097Y00002679496*
X00097494496Y00002716098*
X00097474582Y00002764078*
Y00002789986*
Y00002815894*
X00097494496Y00002863875*
X00097531097Y00002900476*
X00097579078Y00002920390*
X00097630894*
X00097678798Y00002900476*
G37*
G36*
X00097178799D02*
X00097215477Y00002863875D01*
X00097235391Y00002815894*
Y00002789986*
Y00002764078*
X00097215477Y00002716098*
X00097178799Y00002679496*
X00097130895Y00002659583*
X00097079079*
X00097031098Y00002679496*
X00096994497Y00002716098*
X00096974583Y00002764078*
Y00002789986*
Y00002815894*
X00096994497Y00002863875*
X00097031098Y00002900476*
X00097079079Y00002920390*
X00097130895*
X00097178799Y00002900476*
G37*
G36*
X00182573879Y00002860497D02*
X00182610480Y00002823895D01*
X00182630394Y00002775889*
Y00002749981*
Y00002724099*
X00182610480Y00002676093*
X00182573879Y00002639491*
X00182525898Y00002619578*
X00182474082*
X00182426076Y00002639491*
X00182389475Y00002676093*
X00182369587Y00002724099*
Y00002749981*
Y00002775889*
X00182389475Y00002823895*
X00182426076Y00002860497*
X00182474082Y00002880385*
X00182525898*
X00182573879Y00002860497*
G37*
G36*
X00181973778D02*
X00182010481Y00002823895D01*
X00182030395Y00002775889*
Y00002749981*
Y00002724099*
X00182010481Y00002676093*
X00181973778Y00002639491*
X00181925899Y00002619578*
X00181874083*
X00181826077Y00002639491*
X00181789476Y00002676093*
X00181769588Y00002724099*
Y00002749981*
Y00002775889*
X00181789476Y00002823895*
X00181826077Y00002860497*
X00181874083Y00002880385*
X00181925899*
X00181973778Y00002860497*
G37*
G36*
X00098998786D02*
X00099035489Y00002823794D01*
X00099055377Y00002775889*
Y00002749981*
Y00002724099*
X00099035489Y00002676093*
X00098998786Y00002639491*
X00098950881Y00002619578*
X00098899091*
X00098851085Y00002639491*
X00098814483Y00002676093*
X00098794595Y00002724099*
Y00002749981*
Y00002775889*
X00098814483Y00002823794*
X00098851085Y00002860497*
X00098899091Y00002880385*
X00098950881*
X00098998786Y00002860497*
G37*
G36*
X00098398787Y00002840482D02*
X00098435490Y00002803779D01*
X00098455378Y00002755900*
Y00002729992*
Y00002704084*
X00098435490Y00002656078*
X00098398787Y00002619476*
X00098350882Y00002599588*
X00098299092*
X00098251086Y00002619476*
X00098214484Y00002656078*
X00098194596Y00002704084*
Y00002729992*
Y00002755900*
X00098214484Y00002803779*
X00098251086Y00002840482*
X00098299092Y00002860395*
X00098350882*
X00098398787Y00002840482*
G37*
G36*
X00074573892Y00002810484D02*
X00074610493Y00002773883D01*
X00074630381Y00002725877*
Y00002699994*
Y00002674086*
X00074610493Y00002626080*
X00074573892Y00002589479*
X00074525886Y00002569591*
X00074474095*
X00074426089Y00002589479*
X00074389488Y00002626080*
X00074369599Y00002674086*
Y00002699994*
Y00002725877*
X00074389488Y00002773883*
X00074426089Y00002810484*
X00074474095Y00002830398*
X00074525886*
X00074573892Y00002810484*
G37*
G36*
X00073923880Y00002710484D02*
X00073960482Y00002673883D01*
X00073980395Y00002625877*
Y00002599994*
Y00002574086*
X00073960482Y00002526080*
X00073923880Y00002489479*
X00073875900Y00002469591*
X00073824084*
X00073776078Y00002489479*
X00073739476Y00002526080*
X00073719588Y00002574086*
Y00002599994*
Y00002625877*
X00073739476Y00002673883*
X00073776078Y00002710484*
X00073824084Y00002730398*
X00073875900*
X00073923880Y00002710484*
G37*
G36*
X00021833890Y00002680487D02*
X00021870492Y00002643886D01*
X00021890380Y00002595880*
Y00002569997*
Y00002544089*
X00021870492Y00002496083*
X00021833890Y00002459482*
X00021785884Y00002439593*
X00021734094*
X00021686088Y00002459482*
X00021649486Y00002496083*
X00021629598Y00002544089*
Y00002569997*
Y00002595880*
X00021649486Y00002643886*
X00021686088Y00002680487*
X00021734094Y00002700375*
X00021785884*
X00021833890Y00002680487*
G37*
G36*
X00021253881Y00002660497D02*
X00021290483Y00002623896D01*
X00021310396Y00002575890*
Y00002549982*
Y00002524099*
X00021290483Y00002476093*
X00021253881Y00002439492*
X00021205875Y00002419578*
X00021154085*
X00021106079Y00002439492*
X00021069477Y00002476093*
X00021049589Y00002524099*
Y00002549982*
Y00002575890*
X00021069477Y00002623896*
X00021106079Y00002660497*
X00021154085Y00002680385*
X00021205875*
X00021253881Y00002660497*
G37*
G36*
X00020753882D02*
X00020790484Y00002623896D01*
X00020810397Y00002575890*
Y00002549982*
Y00002524099*
X00020790484Y00002476093*
X00020753882Y00002439492*
X00020705876Y00002419578*
X00020654086*
X00020606080Y00002439492*
X00020569478Y00002476093*
X00020549590Y00002524099*
Y00002549982*
Y00002575890*
X00020569478Y00002623896*
X00020606080Y00002660497*
X00020654086Y00002680385*
X00020705876*
X00020753882Y00002660497*
G37*
G36*
X00195173879Y00002560497D02*
X00195210480Y00002523896D01*
X00195230394Y00002475890*
Y00002449982*
Y00002424099*
X00195210480Y00002376093*
X00195173879Y00002339492*
X00195125898Y00002319578*
X00195074082*
X00195026076Y00002339492*
X00194989475Y00002376093*
X00194969587Y00002424099*
Y00002449982*
Y00002475890*
X00194989475Y00002523896*
X00195026076Y00002560497*
X00195074082Y00002580386*
X00195125898*
X00195173879Y00002560497*
G37*
G36*
X00037173890D02*
X00037210492Y00002523896D01*
X00037230380Y00002475890*
Y00002449982*
Y00002424099*
X00037210492Y00002376093*
X00037173890Y00002339492*
X00037125884Y00002319578*
X00037074094*
X00037026088Y00002339492*
X00036989486Y00002376093*
X00036969598Y00002424099*
Y00002449982*
Y00002475890*
X00036989486Y00002523896*
X00037026088Y00002560497*
X00037074094Y00002580386*
X00037125884*
X00037173890Y00002560497*
G37*
G36*
X00036673891D02*
X00036710493Y00002523896D01*
X00036730381Y00002475890*
Y00002449982*
Y00002424099*
X00036710493Y00002376093*
X00036673891Y00002339492*
X00036625885Y00002319578*
X00036574095*
X00036526089Y00002339492*
X00036489487Y00002376093*
X00036469599Y00002424099*
Y00002449982*
Y00002475890*
X00036489487Y00002523896*
X00036526089Y00002560497*
X00036574095Y00002580386*
X00036625885*
X00036673891Y00002560497*
G37*
G36*
X00162663886Y00002422398D02*
X00162700487Y00002385695D01*
X00162720375Y00002337790*
Y00002311882*
Y00002285898*
X00162700487Y00002237994*
X00162663886Y00002201291*
X00162615880Y00002181479*
X00162564089*
X00162516083Y00002201291*
X00162479482Y00002237994*
X00162459593Y00002285898*
Y00002311882*
Y00002337790*
X00162479482Y00002385695*
X00162516083Y00002422398*
X00162564089Y00002442286*
X00162615880*
X00162663886Y00002422398*
G37*
G36*
X00162163887D02*
X00162200488Y00002385695D01*
X00162220376Y00002337790*
Y00002311882*
Y00002285898*
X00162200488Y00002237994*
X00162163887Y00002201291*
X00162115881Y00002181479*
X00162064090*
X00162016084Y00002201291*
X00161979483Y00002237994*
X00161959594Y00002285898*
Y00002311882*
Y00002337790*
X00161979483Y00002385695*
X00162016084Y00002422398*
X00162064090Y00002442286*
X00162115881*
X00162163887Y00002422398*
G37*
G36*
X00109059980Y00002169998D02*
X00108879995D01*
X00108699985Y00002349982*
Y00002379980*
X00109059980*
Y00002169998*
G37*
G36*
X00108199986Y00002349982D02*
X00108019977Y00002169998D01*
X00107839992*
Y00002379980*
X00108199986*
Y00002349982*
G37*
G36*
X00077609979Y00002119985D02*
X00077249985D01*
Y00002149983*
X00077429995Y00002329992*
X00077609979*
Y00002119985*
G37*
G36*
X00076749986Y00002149983D02*
Y00002119985D01*
X00076389992*
Y00002329992*
X00076569976*
X00076749986Y00002149983*
G37*
G36*
X00098998786Y00002360498D02*
X00099035489Y00002323795D01*
X00099055377Y00002275890*
Y00002249982*
Y00002224074*
X00099035489Y00002176094*
X00098998786Y00002139492*
X00098950881Y00002119579*
X00098899091*
X00098851085Y00002139492*
X00098814483Y00002176094*
X00098794595Y00002224074*
Y00002249982*
Y00002275890*
X00098814483Y00002323795*
X00098851085Y00002360498*
X00098899091Y00002380386*
X00098950881*
X00098998786Y00002360498*
G37*
G36*
X00098398787Y00002340483D02*
X00098435490Y00002303780D01*
X00098455378Y00002255875*
Y00002229993*
Y00002204085*
X00098435490Y00002156079*
X00098398787Y00002119477*
X00098350882Y00002099589*
X00098299092*
X00098251086Y00002119477*
X00098214484Y00002156079*
X00098194596Y00002204085*
Y00002229993*
Y00002255875*
X00098214484Y00002303780*
X00098251086Y00002340483*
X00098299092Y00002360396*
X00098350882*
X00098398787Y00002340483*
G37*
G36*
X00109573898Y00002310485D02*
X00109610499Y00002273884D01*
X00109630387Y00002225878*
Y00002199995*
Y00002174087*
X00109610499Y00002126081*
X00109573898Y00002089480*
X00109525892Y00002069592*
X00109474076*
X00109426095Y00002089480*
X00109389494Y00002126081*
X00109369580Y00002174087*
Y00002199995*
Y00002225878*
X00109389494Y00002273884*
X00109426095Y00002310485*
X00109474076Y00002330399*
X00109525892*
X00109573898Y00002310485*
G37*
G36*
X00107473877D02*
X00107510478Y00002273884D01*
X00107530392Y00002225878*
Y00002199995*
Y00002174087*
X00107510478Y00002126081*
X00107473877Y00002089480*
X00107425896Y00002069592*
X00107374080*
X00107326099Y00002089480*
X00107289498Y00002126081*
X00107269584Y00002174087*
Y00002199995*
Y00002225878*
X00107289498Y00002273884*
X00107326099Y00002310485*
X00107374080Y00002330399*
X00107425896*
X00107473877Y00002310485*
G37*
G36*
X00106873878D02*
X00106910479Y00002273884D01*
X00106930393Y00002225878*
Y00002199995*
Y00002174087*
X00106910479Y00002126081*
X00106873878Y00002089480*
X00106825897Y00002069592*
X00106774081*
X00106726075Y00002089480*
X00106689499Y00002126081*
X00106669586Y00002174087*
Y00002199995*
Y00002225878*
X00106689499Y00002273884*
X00106726075Y00002310485*
X00106774081Y00002330399*
X00106825897*
X00106873878Y00002310485*
G37*
G36*
X00045443876Y00002302383D02*
X00045480478Y00002265680D01*
X00045500391Y00002217775*
Y00002191893*
Y00002165883*
X00045480478Y00002117979*
X00045443876Y00002081275*
X00045395896Y00002061489*
X00045344080*
X00045296175Y00002081275*
X00045259498Y00002117979*
X00045239584Y00002165883*
Y00002191893*
Y00002217775*
X00045259498Y00002265680*
X00045296175Y00002302383*
X00045344080Y00002322296*
X00045395896*
X00045443876Y00002302383*
G37*
G36*
X00040643886D02*
X00040680487Y00002265680D01*
X00040700375Y00002217775*
Y00002191893*
Y00002165883*
X00040680487Y00002117979*
X00040643886Y00002081275*
X00040595880Y00002061489*
X00040544089*
X00040496083Y00002081275*
X00040459482Y00002117979*
X00040439594Y00002165883*
Y00002191893*
Y00002217775*
X00040459482Y00002265680*
X00040496083Y00002302383*
X00040544089Y00002322296*
X00040595880*
X00040643886Y00002302383*
G37*
G36*
X00167443886D02*
X00167480488Y00002265680D01*
X00167500376Y00002217775*
Y00002191893*
Y00002165883*
X00167480488Y00002117979*
X00167443886Y00002081275*
X00167395880Y00002061489*
X00167344090*
X00167296084Y00002081275*
X00167259482Y00002117979*
X00167239594Y00002165883*
Y00002191893*
Y00002217775*
X00167259482Y00002265680*
X00167296084Y00002302383*
X00167344090Y00002322296*
X00167395880*
X00167443886Y00002302383*
G37*
G36*
X00073923880Y00002210485D02*
X00073960482Y00002173884D01*
X00073980395Y00002125878*
Y00002099995*
Y00002074087*
X00073960482Y00002026081*
X00073923880Y00001989480*
X00073875900Y00001969592*
X00073824084*
X00073776078Y00001989480*
X00073739476Y00002026081*
X00073719588Y00002074087*
Y00002099995*
Y00002125878*
X00073739476Y00002173884*
X00073776078Y00002210485*
X00073824084Y00002230399*
X00073875900*
X00073923880Y00002210485*
G37*
G36*
X00021833890Y00002180488D02*
X00021870492Y00002143887D01*
X00021890380Y00002095880*
Y00002069998*
Y00002044090*
X00021870492Y00001996084*
X00021833890Y00001959483*
X00021785884Y00001939594*
X00021734094*
X00021686088Y00001959483*
X00021649486Y00001996084*
X00021629598Y00002044090*
Y00002069998*
Y00002095880*
X00021649486Y00002143887*
X00021686088Y00002180488*
X00021734094Y00002200376*
X00021785884*
X00021833890Y00002180488*
G37*
G36*
X00184099987Y00002171090D02*
X00184136690Y00002134387D01*
X00184156477Y00002086482*
Y00002060498*
Y00002034590*
X00184136690Y00001986686*
X00184099987Y00001949983*
X00184052083Y00001930196*
X00184000190*
X00183952286Y00001949983*
X00183915583Y00001986686*
X00183895796Y00002034590*
Y00002060498*
Y00002086482*
X00183915583Y00002134387*
X00183952286Y00002171090*
X00184000190Y00002190877*
X00184052083*
X00184099987Y00002171090*
G37*
G36*
X00195823890Y00001960499D02*
X00195860492Y00001923897D01*
X00195880380Y00001875891*
Y00001849983*
Y00001824075*
X00195860492Y00001776095*
X00195823890Y00001739493*
X00195775884Y00001719580*
X00195724094*
X00195676088Y00001739493*
X00195639486Y00001776095*
X00195619598Y00001824075*
Y00001849983*
Y00001875891*
X00195639486Y00001923897*
X00195676088Y00001960499*
X00195724094Y00001980387*
X00195775884*
X00195823890Y00001960499*
G37*
G36*
X00196323889D02*
X00196360491Y00001923897D01*
X00196380379Y00001875891*
Y00001849983*
Y00001824075*
X00196360491Y00001776095*
X00196323889Y00001739493*
X00196275883Y00001719580*
X00196224093*
X00196176087Y00001739493*
X00196139485Y00001776095*
X00196119597Y00001824075*
Y00001849983*
Y00001875891*
X00196139485Y00001923897*
X00196176087Y00001960499*
X00196224093Y00001980387*
X00196275883*
X00196323889Y00001960499*
G37*
G36*
X00162663886Y00001822399D02*
X00162700487Y00001785696D01*
X00162720375Y00001737791*
Y00001711883*
Y00001685899*
X00162700487Y00001637995*
X00162663886Y00001601292*
X00162615880Y00001581480*
X00162564089*
X00162516083Y00001601292*
X00162479482Y00001637995*
X00162459593Y00001685899*
Y00001711883*
Y00001737791*
X00162479482Y00001785696*
X00162516083Y00001822399*
X00162564089Y00001842287*
X00162615880*
X00162663886Y00001822399*
G37*
G36*
X00162163887D02*
X00162200488Y00001785696D01*
X00162220376Y00001737791*
Y00001711883*
Y00001685899*
X00162200488Y00001637995*
X00162163887Y00001601292*
X00162115881Y00001581480*
X00162064090*
X00162016084Y00001601292*
X00161979483Y00001637995*
X00161959594Y00001685899*
Y00001711883*
Y00001737791*
X00161979483Y00001785696*
X00162016084Y00001822399*
X00162064090Y00001842287*
X00162115881*
X00162163887Y00001822399*
G37*
G36*
X00109573898Y00001810486D02*
X00109610499Y00001773885D01*
X00109630387Y00001725879*
Y00001699996*
Y00001674088*
X00109610499Y00001626082*
X00109573898Y00001589481*
X00109525892Y00001569593*
X00109474076*
X00109426095Y00001589481*
X00109389494Y00001626082*
X00109369580Y00001674088*
Y00001699996*
Y00001725879*
X00109389494Y00001773885*
X00109426095Y00001810486*
X00109474076Y00001830374*
X00109525892*
X00109573898Y00001810486*
G37*
G36*
X00107473877D02*
X00107510478Y00001773885D01*
X00107530392Y00001725879*
Y00001699996*
Y00001674088*
X00107510478Y00001626082*
X00107473877Y00001589481*
X00107425896Y00001569593*
X00107374080*
X00107326099Y00001589481*
X00107289498Y00001626082*
X00107269584Y00001674088*
Y00001699996*
Y00001725879*
X00107289498Y00001773885*
X00107326099Y00001810486*
X00107374080Y00001830374*
X00107425896*
X00107473877Y00001810486*
G37*
G36*
X00106873878D02*
X00106910479Y00001773885D01*
X00106930393Y00001725879*
Y00001699996*
Y00001674088*
X00106910479Y00001626082*
X00106873878Y00001589481*
X00106825897Y00001569593*
X00106774081*
X00106726075Y00001589481*
X00106689499Y00001626082*
X00106669586Y00001674088*
Y00001699996*
Y00001725879*
X00106689499Y00001773885*
X00106726075Y00001810486*
X00106774081Y00001830374*
X00106825897*
X00106873878Y00001810486*
G37*
G36*
X00045443876Y00001802384D02*
X00045480478Y00001765681D01*
X00045500391Y00001717776*
Y00001691894*
Y00001665884*
X00045480478Y00001617980*
X00045443876Y00001581277*
X00045395896Y00001561490*
X00045344080*
X00045296175Y00001581277*
X00045259498Y00001617980*
X00045239584Y00001665884*
Y00001691894*
Y00001717776*
X00045259498Y00001765681*
X00045296175Y00001802384*
X00045344080Y00001822297*
X00045395896*
X00045443876Y00001802384*
G37*
G36*
X00040643886D02*
X00040680487Y00001765681D01*
X00040700375Y00001717776*
Y00001691894*
Y00001665884*
X00040680487Y00001617980*
X00040643886Y00001581277*
X00040595880Y00001561490*
X00040544089*
X00040496083Y00001581277*
X00040459482Y00001617980*
X00040439594Y00001665884*
Y00001691894*
Y00001717776*
X00040459482Y00001765681*
X00040496083Y00001802384*
X00040544089Y00001822297*
X00040595880*
X00040643886Y00001802384*
G37*
G36*
X00167443886D02*
X00167480488Y00001765681D01*
X00167500376Y00001717776*
Y00001691894*
Y00001665884*
X00167480488Y00001617980*
X00167443886Y00001581277*
X00167395880Y00001561490*
X00167344090*
X00167296084Y00001581277*
X00167259482Y00001617980*
X00167239594Y00001665884*
Y00001691894*
Y00001717776*
X00167259482Y00001765681*
X00167296084Y00001802384*
X00167344090Y00001822297*
X00167395880*
X00167443886Y00001802384*
G37*
G36*
X00109059980Y00001519986D02*
X00108699985D01*
Y00001549984*
X00108879995Y00001729994*
X00109059980*
Y00001519986*
G37*
G36*
X00108199986Y00001549984D02*
Y00001519986D01*
X00107839992*
Y00001729994*
X00108019977*
X00108199986Y00001549984*
G37*
G36*
X00037273788Y00001710486D02*
X00037310491Y00001673885D01*
X00037330380Y00001625879*
Y00001599996*
Y00001574088*
X00037310491Y00001526082*
X00037273788Y00001489481*
X00037225884Y00001469593*
X00037174093*
X00037126087Y00001489481*
X00037089486Y00001526082*
X00037069598Y00001574088*
Y00001599996*
Y00001625879*
X00037089486Y00001673885*
X00037126087Y00001710486*
X00037174093Y00001730375*
X00037225884*
X00037273788Y00001710486*
G37*
G36*
X00184099987Y00001671091D02*
X00184136690Y00001634388D01*
X00184156477Y00001586484*
Y00001560499*
Y00001534591*
X00184136690Y00001486687*
X00184099987Y00001449984*
X00184052083Y00001430197*
X00184000190*
X00183952286Y00001449984*
X00183915583Y00001486687*
X00183895796Y00001534591*
Y00001560499*
Y00001586484*
X00183915583Y00001634388*
X00183952286Y00001671091*
X00184000190Y00001690878*
X00184052083*
X00184099987Y00001671091*
G37*
G36*
X00191223798Y00001660499D02*
X00191260476Y00001623898D01*
X00191280389Y00001575892*
Y00001549984*
Y00001524076*
X00191260476Y00001476095*
X00191223798Y00001439494*
X00191175894Y00001419580*
X00191124078*
X00191076097Y00001439494*
X00191039496Y00001476095*
X00191019582Y00001524076*
Y00001549984*
Y00001575892*
X00191039496Y00001623898*
X00191076097Y00001660499*
X00191124078Y00001680387*
X00191175894*
X00191223798Y00001660499*
G37*
G36*
X00190623875D02*
X00190660477Y00001623898D01*
X00190680390Y00001575892*
Y00001549984*
Y00001524076*
X00190660477Y00001476095*
X00190623875Y00001439494*
X00190575895Y00001419580*
X00190524079*
X00190476098Y00001439494*
X00190439497Y00001476095*
X00190419583Y00001524076*
Y00001549984*
Y00001575892*
X00190439497Y00001623898*
X00190476098Y00001660499*
X00190524079Y00001680387*
X00190575895*
X00190623875Y00001660499*
G37*
G36*
X00190023775D02*
X00190060478Y00001623898D01*
X00190080392Y00001575892*
Y00001549984*
Y00001524076*
X00190060478Y00001476095*
X00190023775Y00001439494*
X00189975896Y00001419580*
X00189924080*
X00189876099Y00001439494*
X00189839498Y00001476095*
X00189819584Y00001524076*
Y00001549984*
Y00001575892*
X00189839498Y00001623898*
X00189876099Y00001660499*
X00189924080Y00001680387*
X00189975896*
X00190023775Y00001660499*
G37*
G36*
X00178423874D02*
X00178460476Y00001623898D01*
X00178480389Y00001575892*
Y00001549984*
Y00001524076*
X00178460476Y00001476095*
X00178423874Y00001439494*
X00178375894Y00001419580*
X00178324078*
X00178276097Y00001439494*
X00178239496Y00001476095*
X00178219582Y00001524076*
Y00001549984*
Y00001575892*
X00178239496Y00001623898*
X00178276097Y00001660499*
X00178324078Y00001680387*
X00178375894*
X00178423874Y00001660499*
G37*
G36*
X00177823876D02*
X00177860477Y00001623898D01*
X00177880391Y00001575892*
Y00001549984*
Y00001524076*
X00177860477Y00001476095*
X00177823876Y00001439494*
X00177775895Y00001419580*
X00177724079*
X00177676098Y00001439494*
X00177639497Y00001476095*
X00177619583Y00001524076*
Y00001549984*
Y00001575892*
X00177639497Y00001623898*
X00177676098Y00001660499*
X00177724079Y00001680387*
X00177775895*
X00177823876Y00001660499*
G37*
G36*
X00177223877D02*
X00177260478Y00001623898D01*
X00177280392Y00001575892*
Y00001549984*
Y00001524076*
X00177260478Y00001476095*
X00177223877Y00001439494*
X00177175896Y00001419580*
X00177124080*
X00177076100Y00001439494*
X00177039498Y00001476095*
X00177019585Y00001524076*
Y00001549984*
Y00001575892*
X00177039498Y00001623898*
X00177076100Y00001660499*
X00177124080Y00001680387*
X00177175896*
X00177223877Y00001660499*
G37*
G36*
X00154123898D02*
X00154160499Y00001623898D01*
X00154180387Y00001575892*
Y00001549984*
Y00001524076*
X00154160499Y00001476095*
X00154123898Y00001439494*
X00154075892Y00001419580*
X00154024076*
X00153976095Y00001439494*
X00153939494Y00001476095*
X00153919580Y00001524076*
Y00001549984*
Y00001575892*
X00153939494Y00001623898*
X00153976095Y00001660499*
X00154024076Y00001680387*
X00154075892*
X00154123898Y00001660499*
G37*
G36*
X00153523899D02*
X00153560475Y00001623898D01*
X00153580388Y00001575892*
Y00001549984*
Y00001524076*
X00153560475Y00001476095*
X00153523899Y00001439494*
X00153475893Y00001419580*
X00153424077*
X00153376096Y00001439494*
X00153339495Y00001476095*
X00153319581Y00001524076*
Y00001549984*
Y00001575892*
X00153339495Y00001623898*
X00153376096Y00001660499*
X00153424077Y00001680387*
X00153475893*
X00153523899Y00001660499*
G37*
G36*
X00152923875D02*
X00152960476Y00001623898D01*
X00152980390Y00001575892*
Y00001549984*
Y00001524076*
X00152960476Y00001476095*
X00152923875Y00001439494*
X00152875894Y00001419580*
X00152824078*
X00152776097Y00001439494*
X00152739496Y00001476095*
X00152719582Y00001524076*
Y00001549984*
Y00001575892*
X00152739496Y00001623898*
X00152776097Y00001660499*
X00152824078Y00001680387*
X00152875894*
X00152923875Y00001660499*
G37*
G36*
X00144523891D02*
X00144560493Y00001623898D01*
X00144580381Y00001575892*
Y00001549984*
Y00001524076*
X00144560493Y00001476095*
X00144523891Y00001439494*
X00144475885Y00001419580*
X00144424095*
X00144376089Y00001439494*
X00144339487Y00001476095*
X00144319599Y00001524076*
Y00001549984*
Y00001575892*
X00144339487Y00001623898*
X00144376089Y00001660499*
X00144424095Y00001680387*
X00144475885*
X00144523891Y00001660499*
G37*
G36*
X00143923791D02*
X00143960494Y00001623898D01*
X00143980382Y00001575892*
Y00001549984*
Y00001524076*
X00143960494Y00001476095*
X00143923791Y00001439494*
X00143875887Y00001419580*
X00143824096*
X00143776090Y00001439494*
X00143739489Y00001476095*
X00143719575Y00001524076*
Y00001549984*
Y00001575892*
X00143739489Y00001623898*
X00143776090Y00001660499*
X00143824096Y00001680387*
X00143875887*
X00143923791Y00001660499*
G37*
G36*
X00143323894D02*
X00143360495Y00001623898D01*
X00143380383Y00001575892*
Y00001549984*
Y00001524076*
X00143360495Y00001476095*
X00143323894Y00001439494*
X00143275888Y00001419580*
X00143224097*
X00143176091Y00001439494*
X00143139490Y00001476095*
X00143119576Y00001524076*
Y00001549984*
Y00001575892*
X00143139490Y00001623898*
X00143176091Y00001660499*
X00143224097Y00001680387*
X00143275888*
X00143323894Y00001660499*
G37*
G36*
X00134523886D02*
X00134560487Y00001623898D01*
X00134580376Y00001575892*
Y00001549984*
Y00001524076*
X00134560487Y00001476095*
X00134523886Y00001439494*
X00134475880Y00001419580*
X00134424089*
X00134376083Y00001439494*
X00134339482Y00001476095*
X00134319594Y00001524076*
Y00001549984*
Y00001575892*
X00134339482Y00001623898*
X00134376083Y00001660499*
X00134424089Y00001680387*
X00134475880*
X00134523886Y00001660499*
G37*
G36*
X00133923785D02*
X00133960488Y00001623898D01*
X00133980377Y00001575892*
Y00001549984*
Y00001524076*
X00133960488Y00001476095*
X00133923785Y00001439494*
X00133875881Y00001419580*
X00133824090*
X00133776084Y00001439494*
X00133739483Y00001476095*
X00133719595Y00001524076*
Y00001549984*
Y00001575892*
X00133739483Y00001623898*
X00133776084Y00001660499*
X00133824090Y00001680387*
X00133875881*
X00133923785Y00001660499*
G37*
G36*
X00133323888D02*
X00133360490Y00001623898D01*
X00133380378Y00001575892*
Y00001549984*
Y00001524076*
X00133360490Y00001476095*
X00133323888Y00001439494*
X00133275882Y00001419580*
X00133224092*
X00133176086Y00001439494*
X00133139484Y00001476095*
X00133119596Y00001524076*
Y00001549984*
Y00001575892*
X00133139484Y00001623898*
X00133176086Y00001660499*
X00133224092Y00001680387*
X00133275882*
X00133323888Y00001660499*
G37*
G36*
X00123773793D02*
X00123810496Y00001623898D01*
X00123830384Y00001575892*
Y00001549984*
Y00001524076*
X00123810496Y00001476095*
X00123773793Y00001439494*
X00123725889Y00001419580*
X00123674098*
X00123626092Y00001439494*
X00123589491Y00001476095*
X00123569577Y00001524076*
Y00001549984*
Y00001575892*
X00123589491Y00001623898*
X00123626092Y00001660499*
X00123674098Y00001680387*
X00123725889*
X00123773793Y00001660499*
G37*
G36*
X00123173896D02*
X00123210497Y00001623898D01*
X00123230386Y00001575892*
Y00001549984*
Y00001524076*
X00123210497Y00001476095*
X00123173896Y00001439494*
X00123125890Y00001419580*
X00123074099*
X00123026093Y00001439494*
X00122989492Y00001476095*
X00122969578Y00001524076*
Y00001549984*
Y00001575892*
X00122989492Y00001623898*
X00123026093Y00001660499*
X00123074099Y00001680387*
X00123125890*
X00123173896Y00001660499*
G37*
G36*
X00122573897D02*
X00122610499Y00001623898D01*
X00122630387Y00001575892*
Y00001549984*
Y00001524076*
X00122610499Y00001476095*
X00122573897Y00001439494*
X00122525891Y00001419580*
X00122474075*
X00122426095Y00001439494*
X00122389493Y00001476095*
X00122369580Y00001524076*
Y00001549984*
Y00001575892*
X00122389493Y00001623898*
X00122426095Y00001660499*
X00122474075Y00001680387*
X00122525891*
X00122573897Y00001660499*
G37*
G36*
X00026539799D02*
X00026576477Y00001623898D01*
X00026596289Y00001575892*
Y00001549984*
Y00001524076*
X00026576477Y00001476095*
X00026539799Y00001439494*
X00026491895Y00001419580*
X00026439977*
X00026392098Y00001439494*
X00026355395Y00001476095*
X00026335583Y00001524076*
Y00001549984*
Y00001575892*
X00026355395Y00001623898*
X00026392098Y00001660499*
X00026439977Y00001680387*
X00026491895*
X00026539799Y00001660499*
G37*
G36*
X00025939775D02*
X00025976478Y00001623898D01*
X00025996290Y00001575892*
Y00001549984*
Y00001524076*
X00025976478Y00001476095*
X00025939775Y00001439494*
X00025891896Y00001419580*
X00025839978*
X00025792099Y00001439494*
X00025755396Y00001476095*
X00025735483Y00001524076*
Y00001549984*
Y00001575892*
X00025755396Y00001623898*
X00025792099Y00001660499*
X00025839978Y00001680387*
X00025891896*
X00025939775Y00001660499*
G37*
G36*
X00025339776D02*
X00025376479Y00001623898D01*
X00025396291Y00001575892*
Y00001549984*
Y00001524076*
X00025376479Y00001476095*
X00025339776Y00001439494*
X00025291897Y00001419580*
X00025239980*
X00025192075Y00001439494*
X00025155398Y00001476095*
X00025135484Y00001524076*
Y00001549984*
Y00001575892*
X00025155398Y00001623898*
X00025192075Y00001660499*
X00025239980Y00001680387*
X00025291897*
X00025339776Y00001660499*
G37*
G36*
X00015123795D02*
X00015160498Y00001623898D01*
X00015180386Y00001575892*
Y00001549984*
Y00001524076*
X00015160498Y00001476095*
X00015123795Y00001439494*
X00015075890Y00001419580*
X00015024100*
X00014976094Y00001439494*
X00014939492Y00001476095*
X00014919579Y00001524076*
Y00001549984*
Y00001575892*
X00014939492Y00001623898*
X00014976094Y00001660499*
X00015024100Y00001680387*
X00015075890*
X00015123795Y00001660499*
G37*
G36*
X00014523897D02*
X00014560499Y00001623898D01*
X00014580387Y00001575892*
Y00001549984*
Y00001524076*
X00014560499Y00001476095*
X00014523897Y00001439494*
X00014475891Y00001419580*
X00014424075*
X00014376095Y00001439494*
X00014339493Y00001476095*
X00014319580Y00001524076*
Y00001549984*
Y00001575892*
X00014339493Y00001623898*
X00014376095Y00001660499*
X00014424075Y00001680387*
X00014475891*
X00014523897Y00001660499*
G37*
G36*
X00013923899D02*
X00013960475Y00001623898D01*
X00013980388Y00001575892*
Y00001549984*
Y00001524076*
X00013960475Y00001476095*
X00013923899Y00001439494*
X00013875893Y00001419580*
X00013824077*
X00013776096Y00001439494*
X00013739495Y00001476095*
X00013719581Y00001524076*
Y00001549984*
Y00001575892*
X00013739495Y00001623898*
X00013776096Y00001660499*
X00013824077Y00001680387*
X00013875893*
X00013923899Y00001660499*
G37*
G36*
X00197573900Y00001560499D02*
X00197610476Y00001523898D01*
X00197630389Y00001475892*
Y00001449984*
Y00001424076*
X00197610476Y00001376095*
X00197573900Y00001339494*
X00197525894Y00001319580*
X00197474078*
X00197426097Y00001339494*
X00197389496Y00001376095*
X00197369582Y00001424076*
Y00001449984*
Y00001475892*
X00197389496Y00001523898*
X00197426097Y00001560499*
X00197474078Y00001580388*
X00197525894*
X00197573900Y00001560499*
G37*
G36*
X00196973875D02*
X00197010477Y00001523898D01*
X00197030390Y00001475892*
Y00001449984*
Y00001424076*
X00197010477Y00001376095*
X00196973875Y00001339494*
X00196925895Y00001319580*
X00196874079*
X00196826098Y00001339494*
X00196789497Y00001376095*
X00196769583Y00001424076*
Y00001449984*
Y00001475892*
X00196789497Y00001523898*
X00196826098Y00001560499*
X00196874079Y00001580388*
X00196925895*
X00196973875Y00001560499*
G37*
G36*
X00076749986Y00001449984D02*
X00076569976Y00001270000D01*
X00076389992*
Y00001479981*
X00076749986*
Y00001449984*
G37*
G36*
X00077609979Y00001270000D02*
X00077429995D01*
X00077249985Y00001449984*
Y00001479981*
X00077609979*
Y00001270000*
G37*
G36*
X00181959986Y00001221079D02*
X00181996689Y00001184376D01*
X00182016476Y00001136497*
Y00001110488*
Y00001084580*
X00181996689Y00001036675*
X00181959986Y00000999998*
X00181912082Y00000980186*
X00181860190*
X00181812285Y00000999998*
X00181775582Y00001036675*
X00181755796Y00001084580*
Y00001110488*
Y00001136497*
X00181775582Y00001184376*
X00181812285Y00001221079*
X00181860190Y00001240891*
X00181912082*
X00181959986Y00001221079*
G37*
G36*
X00073923880Y00001210487D02*
X00073960482Y00001173886D01*
X00073980395Y00001125880*
Y00001099997*
Y00001074089*
X00073960482Y00001026083*
X00073923880Y00000989482*
X00073875900Y00000969594*
X00073824084*
X00073776078Y00000989482*
X00073739476Y00001026083*
X00073719588Y00001074089*
Y00001099997*
Y00001125880*
X00073739476Y00001173886*
X00073776078Y00001210487*
X00073824084Y00001230376*
X00073875900*
X00073923880Y00001210487*
G37*
G36*
X00037273788D02*
X00037310491Y00001173886D01*
X00037330380Y00001125880*
Y00001099997*
Y00001074089*
X00037310491Y00001026083*
X00037273788Y00000989482*
X00037225884Y00000969594*
X00037174093*
X00037126087Y00000989482*
X00037089486Y00001026083*
X00037069598Y00001074089*
Y00001099997*
Y00001125880*
X00037089486Y00001173886*
X00037126087Y00001210487*
X00037174093Y00001230376*
X00037225884*
X00037273788Y00001210487*
G37*
G36*
X00109573898D02*
X00109610499Y00001173886D01*
X00109630387Y00001125880*
Y00001099997*
Y00001074089*
X00109610499Y00001026083*
X00109573898Y00000989482*
X00109525892Y00000969594*
X00109474076*
X00109426095Y00000989482*
X00109389494Y00001026083*
X00109369580Y00001074089*
Y00001099997*
Y00001125880*
X00109389494Y00001173886*
X00109426095Y00001210487*
X00109474076Y00001230376*
X00109525892*
X00109573898Y00001210487*
G37*
G36*
X00109059980Y00000919988D02*
X00108879995D01*
X00108699985Y00001099997*
Y00001129995*
X00109059980*
Y00000919988*
G37*
G36*
X00108199986Y00001099997D02*
X00108019977Y00000919988D01*
X00107839992*
Y00001129995*
X00108199986*
Y00001099997*
G37*
G36*
X00191223798Y00001160475D02*
X00191260476Y00001123899D01*
X00191280389Y00001075893*
Y00001049985*
Y00001024077*
X00191260476Y00000976096*
X00191223798Y00000939495*
X00191175894Y00000919581*
X00191124078*
X00191076097Y00000939495*
X00191039496Y00000976096*
X00191019582Y00001024077*
Y00001049985*
Y00001075893*
X00191039496Y00001123899*
X00191076097Y00001160475*
X00191124078Y00001180388*
X00191175894*
X00191223798Y00001160475*
G37*
G36*
X00190623875D02*
X00190660477Y00001123899D01*
X00190680390Y00001075893*
Y00001049985*
Y00001024077*
X00190660477Y00000976096*
X00190623875Y00000939495*
X00190575895Y00000919581*
X00190524079*
X00190476098Y00000939495*
X00190439497Y00000976096*
X00190419583Y00001024077*
Y00001049985*
Y00001075893*
X00190439497Y00001123899*
X00190476098Y00001160475*
X00190524079Y00001180388*
X00190575895*
X00190623875Y00001160475*
G37*
G36*
X00190023775D02*
X00190060478Y00001123899D01*
X00190080392Y00001075893*
Y00001049985*
Y00001024077*
X00190060478Y00000976096*
X00190023775Y00000939495*
X00189975896Y00000919581*
X00189924080*
X00189876099Y00000939495*
X00189839498Y00000976096*
X00189819584Y00001024077*
Y00001049985*
Y00001075893*
X00189839498Y00001123899*
X00189876099Y00001160475*
X00189924080Y00001180388*
X00189975896*
X00190023775Y00001160475*
G37*
G36*
X00178423874D02*
X00178460476Y00001123899D01*
X00178480389Y00001075893*
Y00001049985*
Y00001024077*
X00178460476Y00000976096*
X00178423874Y00000939495*
X00178375894Y00000919581*
X00178324078*
X00178276097Y00000939495*
X00178239496Y00000976096*
X00178219582Y00001024077*
Y00001049985*
Y00001075893*
X00178239496Y00001123899*
X00178276097Y00001160475*
X00178324078Y00001180388*
X00178375894*
X00178423874Y00001160475*
G37*
G36*
X00177823876D02*
X00177860477Y00001123899D01*
X00177880391Y00001075893*
Y00001049985*
Y00001024077*
X00177860477Y00000976096*
X00177823876Y00000939495*
X00177775895Y00000919581*
X00177724079*
X00177676098Y00000939495*
X00177639497Y00000976096*
X00177619583Y00001024077*
Y00001049985*
Y00001075893*
X00177639497Y00001123899*
X00177676098Y00001160475*
X00177724079Y00001180388*
X00177775895*
X00177823876Y00001160475*
G37*
G36*
X00177223877D02*
X00177260478Y00001123899D01*
X00177280392Y00001075893*
Y00001049985*
Y00001024077*
X00177260478Y00000976096*
X00177223877Y00000939495*
X00177175896Y00000919581*
X00177124080*
X00177076100Y00000939495*
X00177039498Y00000976096*
X00177019585Y00001024077*
Y00001049985*
Y00001075893*
X00177039498Y00001123899*
X00177076100Y00001160475*
X00177124080Y00001180388*
X00177175896*
X00177223877Y00001160475*
G37*
G36*
X00154123898D02*
X00154160499Y00001123899D01*
X00154180387Y00001075893*
Y00001049985*
Y00001024077*
X00154160499Y00000976096*
X00154123898Y00000939495*
X00154075892Y00000919581*
X00154024076*
X00153976095Y00000939495*
X00153939494Y00000976096*
X00153919580Y00001024077*
Y00001049985*
Y00001075893*
X00153939494Y00001123899*
X00153976095Y00001160475*
X00154024076Y00001180388*
X00154075892*
X00154123898Y00001160475*
G37*
G36*
X00153523899D02*
X00153560475Y00001123899D01*
X00153580388Y00001075893*
Y00001049985*
Y00001024077*
X00153560475Y00000976096*
X00153523899Y00000939495*
X00153475893Y00000919581*
X00153424077*
X00153376096Y00000939495*
X00153339495Y00000976096*
X00153319581Y00001024077*
Y00001049985*
Y00001075893*
X00153339495Y00001123899*
X00153376096Y00001160475*
X00153424077Y00001180388*
X00153475893*
X00153523899Y00001160475*
G37*
G36*
X00152923875D02*
X00152960476Y00001123899D01*
X00152980390Y00001075893*
Y00001049985*
Y00001024077*
X00152960476Y00000976096*
X00152923875Y00000939495*
X00152875894Y00000919581*
X00152824078*
X00152776097Y00000939495*
X00152739496Y00000976096*
X00152719582Y00001024077*
Y00001049985*
Y00001075893*
X00152739496Y00001123899*
X00152776097Y00001160475*
X00152824078Y00001180388*
X00152875894*
X00152923875Y00001160475*
G37*
G36*
X00144523891D02*
X00144560493Y00001123899D01*
X00144580381Y00001075893*
Y00001049985*
Y00001024077*
X00144560493Y00000976096*
X00144523891Y00000939495*
X00144475885Y00000919581*
X00144424095*
X00144376089Y00000939495*
X00144339487Y00000976096*
X00144319599Y00001024077*
Y00001049985*
Y00001075893*
X00144339487Y00001123899*
X00144376089Y00001160475*
X00144424095Y00001180388*
X00144475885*
X00144523891Y00001160475*
G37*
G36*
X00143923791D02*
X00143960494Y00001123899D01*
X00143980382Y00001075893*
Y00001049985*
Y00001024077*
X00143960494Y00000976096*
X00143923791Y00000939495*
X00143875887Y00000919581*
X00143824096*
X00143776090Y00000939495*
X00143739489Y00000976096*
X00143719575Y00001024077*
Y00001049985*
Y00001075893*
X00143739489Y00001123899*
X00143776090Y00001160475*
X00143824096Y00001180388*
X00143875887*
X00143923791Y00001160475*
G37*
G36*
X00143323894D02*
X00143360495Y00001123899D01*
X00143380383Y00001075893*
Y00001049985*
Y00001024077*
X00143360495Y00000976096*
X00143323894Y00000939495*
X00143275888Y00000919581*
X00143224097*
X00143176091Y00000939495*
X00143139490Y00000976096*
X00143119576Y00001024077*
Y00001049985*
Y00001075893*
X00143139490Y00001123899*
X00143176091Y00001160475*
X00143224097Y00001180388*
X00143275888*
X00143323894Y00001160475*
G37*
G36*
X00134523886D02*
X00134560487Y00001123899D01*
X00134580376Y00001075893*
Y00001049985*
Y00001024077*
X00134560487Y00000976096*
X00134523886Y00000939495*
X00134475880Y00000919581*
X00134424089*
X00134376083Y00000939495*
X00134339482Y00000976096*
X00134319594Y00001024077*
Y00001049985*
Y00001075893*
X00134339482Y00001123899*
X00134376083Y00001160475*
X00134424089Y00001180388*
X00134475880*
X00134523886Y00001160475*
G37*
G36*
X00133923785D02*
X00133960488Y00001123899D01*
X00133980377Y00001075893*
Y00001049985*
Y00001024077*
X00133960488Y00000976096*
X00133923785Y00000939495*
X00133875881Y00000919581*
X00133824090*
X00133776084Y00000939495*
X00133739483Y00000976096*
X00133719595Y00001024077*
Y00001049985*
Y00001075893*
X00133739483Y00001123899*
X00133776084Y00001160475*
X00133824090Y00001180388*
X00133875881*
X00133923785Y00001160475*
G37*
G36*
X00133323888D02*
X00133360490Y00001123899D01*
X00133380378Y00001075893*
Y00001049985*
Y00001024077*
X00133360490Y00000976096*
X00133323888Y00000939495*
X00133275882Y00000919581*
X00133224092*
X00133176086Y00000939495*
X00133139484Y00000976096*
X00133119596Y00001024077*
Y00001049985*
Y00001075893*
X00133139484Y00001123899*
X00133176086Y00001160475*
X00133224092Y00001180388*
X00133275882*
X00133323888Y00001160475*
G37*
G36*
X00123773793D02*
X00123810496Y00001123899D01*
X00123830384Y00001075893*
Y00001049985*
Y00001024077*
X00123810496Y00000976096*
X00123773793Y00000939495*
X00123725889Y00000919581*
X00123674098*
X00123626092Y00000939495*
X00123589491Y00000976096*
X00123569577Y00001024077*
Y00001049985*
Y00001075893*
X00123589491Y00001123899*
X00123626092Y00001160475*
X00123674098Y00001180388*
X00123725889*
X00123773793Y00001160475*
G37*
G36*
X00123173896D02*
X00123210497Y00001123899D01*
X00123230386Y00001075893*
Y00001049985*
Y00001024077*
X00123210497Y00000976096*
X00123173896Y00000939495*
X00123125890Y00000919581*
X00123074099*
X00123026093Y00000939495*
X00122989492Y00000976096*
X00122969578Y00001024077*
Y00001049985*
Y00001075893*
X00122989492Y00001123899*
X00123026093Y00001160475*
X00123074099Y00001180388*
X00123125890*
X00123173896Y00001160475*
G37*
G36*
X00122573897D02*
X00122610499Y00001123899D01*
X00122630387Y00001075893*
Y00001049985*
Y00001024077*
X00122610499Y00000976096*
X00122573897Y00000939495*
X00122525891Y00000919581*
X00122474075*
X00122426095Y00000939495*
X00122389493Y00000976096*
X00122369580Y00001024077*
Y00001049985*
Y00001075893*
X00122389493Y00001123899*
X00122426095Y00001160475*
X00122474075Y00001180388*
X00122525891*
X00122573897Y00001160475*
G37*
G36*
X00097073897D02*
X00097110499Y00001123899D01*
X00097130387Y00001075893*
Y00001049985*
Y00001024077*
X00097110499Y00000976096*
X00097073897Y00000939495*
X00097025891Y00000919581*
X00096974075*
X00096926095Y00000939495*
X00096889493Y00000976096*
X00096869580Y00001024077*
Y00001049985*
Y00001075893*
X00096889493Y00001123899*
X00096926095Y00001160475*
X00096974075Y00001180388*
X00097025891*
X00097073897Y00001160475*
G37*
G36*
X00096573898D02*
X00096610474Y00001123899D01*
X00096630388Y00001075893*
Y00001049985*
Y00001024077*
X00096610474Y00000976096*
X00096573898Y00000939495*
X00096525892Y00000919581*
X00096474076*
X00096426096Y00000939495*
X00096389494Y00000976096*
X00096369581Y00001024077*
Y00001049985*
Y00001075893*
X00096389494Y00001123899*
X00096426096Y00001160475*
X00096474076Y00001180388*
X00096525892*
X00096573898Y00001160475*
G37*
G36*
X00026539799D02*
X00026576477Y00001123899D01*
X00026596289Y00001075893*
Y00001049985*
Y00001024077*
X00026576477Y00000976096*
X00026539799Y00000939495*
X00026491895Y00000919581*
X00026439977*
X00026392098Y00000939495*
X00026355395Y00000976096*
X00026335583Y00001024077*
Y00001049985*
Y00001075893*
X00026355395Y00001123899*
X00026392098Y00001160475*
X00026439977Y00001180388*
X00026491895*
X00026539799Y00001160475*
G37*
G36*
X00025939775D02*
X00025976478Y00001123899D01*
X00025996290Y00001075893*
Y00001049985*
Y00001024077*
X00025976478Y00000976096*
X00025939775Y00000939495*
X00025891896Y00000919581*
X00025839978*
X00025792099Y00000939495*
X00025755396Y00000976096*
X00025735483Y00001024077*
Y00001049985*
Y00001075893*
X00025755396Y00001123899*
X00025792099Y00001160475*
X00025839978Y00001180388*
X00025891896*
X00025939775Y00001160475*
G37*
G36*
X00025339776D02*
X00025376479Y00001123899D01*
X00025396291Y00001075893*
Y00001049985*
Y00001024077*
X00025376479Y00000976096*
X00025339776Y00000939495*
X00025291897Y00000919581*
X00025239980*
X00025192075Y00000939495*
X00025155398Y00000976096*
X00025135484Y00001024077*
Y00001049985*
Y00001075893*
X00025155398Y00001123899*
X00025192075Y00001160475*
X00025239980Y00001180388*
X00025291897*
X00025339776Y00001160475*
G37*
G36*
X00015123795D02*
X00015160498Y00001123899D01*
X00015180386Y00001075893*
Y00001049985*
Y00001024077*
X00015160498Y00000976096*
X00015123795Y00000939495*
X00015075890Y00000919581*
X00015024100*
X00014976094Y00000939495*
X00014939492Y00000976096*
X00014919579Y00001024077*
Y00001049985*
Y00001075893*
X00014939492Y00001123899*
X00014976094Y00001160475*
X00015024100Y00001180388*
X00015075890*
X00015123795Y00001160475*
G37*
G36*
X00014523897D02*
X00014560499Y00001123899D01*
X00014580387Y00001075893*
Y00001049985*
Y00001024077*
X00014560499Y00000976096*
X00014523897Y00000939495*
X00014475891Y00000919581*
X00014424075*
X00014376095Y00000939495*
X00014339493Y00000976096*
X00014319580Y00001024077*
Y00001049985*
Y00001075893*
X00014339493Y00001123899*
X00014376095Y00001160475*
X00014424075Y00001180388*
X00014475891*
X00014523897Y00001160475*
G37*
G36*
X00013923899D02*
X00013960475Y00001123899D01*
X00013980388Y00001075893*
Y00001049985*
Y00001024077*
X00013960475Y00000976096*
X00013923899Y00000939495*
X00013875893Y00000919581*
X00013824077*
X00013776096Y00000939495*
X00013739495Y00000976096*
X00013719581Y00001024077*
Y00001049985*
Y00001075893*
X00013739495Y00001123899*
X00013776096Y00001160475*
X00013824077Y00001180388*
X00013875893*
X00013923899Y00001160475*
G37*
G36*
X00197573900Y00001060475D02*
X00197610476Y00001023899D01*
X00197630389Y00000975893*
Y00000949985*
Y00000924077*
X00197610476Y00000876096*
X00197573900Y00000839495*
X00197525894Y00000819581*
X00197474078*
X00197426097Y00000839495*
X00197389496Y00000876096*
X00197369582Y00000924077*
Y00000949985*
Y00000975893*
X00197389496Y00001023899*
X00197426097Y00001060475*
X00197474078Y00001080389*
X00197525894*
X00197573900Y00001060475*
G37*
G36*
X00196973875D02*
X00197010477Y00001023899D01*
X00197030390Y00000975893*
Y00000949985*
Y00000924077*
X00197010477Y00000876096*
X00196973875Y00000839495*
X00196925895Y00000819581*
X00196874079*
X00196826098Y00000839495*
X00196789497Y00000876096*
X00196769583Y00000924077*
Y00000949985*
Y00000975893*
X00196789497Y00001023899*
X00196826098Y00001060475*
X00196874079Y00001080389*
X00196925895*
X00196973875Y00001060475*
G37*
G36*
X00184573875D02*
X00184610476Y00001023899D01*
X00184630390Y00000975893*
Y00000949985*
Y00000924077*
X00184610476Y00000876096*
X00184573875Y00000839495*
X00184525894Y00000819581*
X00184474078*
X00184426098Y00000839495*
X00184389496Y00000876096*
X00184369583Y00000924077*
Y00000949985*
Y00000975893*
X00184389496Y00001023899*
X00184426098Y00001060475*
X00184474078Y00001080389*
X00184525894*
X00184573875Y00001060475*
G37*
G36*
X00184073876D02*
X00184110477Y00001023899D01*
X00184130391Y00000975893*
Y00000949985*
Y00000924077*
X00184110477Y00000876096*
X00184073876Y00000839495*
X00184025895Y00000819581*
X00183974079*
X00183926099Y00000839495*
X00183889497Y00000876096*
X00183869584Y00000924077*
Y00000949985*
Y00000975893*
X00183889497Y00001023899*
X00183926099Y00001060475*
X00183974079Y00001080389*
X00184025895*
X00184073876Y00001060475*
G37*
G36*
X00107473775D02*
X00107510478Y00001023797D01*
X00107530392Y00000975893*
Y00000949985*
Y00000924077*
X00107510478Y00000876096*
X00107473775Y00000839495*
X00107425896Y00000819581*
X00107374080*
X00107326099Y00000839495*
X00107289498Y00000876096*
X00107269584Y00000924077*
Y00000949985*
Y00000975893*
X00107289498Y00001023797*
X00107326099Y00001060475*
X00107374080Y00001080389*
X00107425896*
X00107473775Y00001060475*
G37*
G36*
X00106873776D02*
X00106910479Y00001023797D01*
X00106930393Y00000975893*
Y00000949985*
Y00000924077*
X00106910479Y00000876096*
X00106873776Y00000839495*
X00106825897Y00000819581*
X00106774081*
X00106726075Y00000839495*
X00106689499Y00000876096*
X00106669586Y00000924077*
Y00000949985*
Y00000975893*
X00106689499Y00001023797*
X00106726075Y00001060475*
X00106774081Y00001080389*
X00106825897*
X00106873776Y00001060475*
G37*
G36*
X00186273795Y00000960475D02*
X00186310498Y00000923899D01*
X00186330386Y00000875893*
Y00000849985*
Y00000824077*
X00186310498Y00000776097*
X00186273795Y00000739495*
X00186225891Y00000719582*
X00186174075*
X00186126094Y00000739495*
X00186089493Y00000776097*
X00186069579Y00000824077*
Y00000849985*
Y00000875893*
X00186089493Y00000923899*
X00186126094Y00000960475*
X00186174075Y00000980389*
X00186225891*
X00186273795Y00000960475*
G37*
G36*
X00185773898D02*
X00185810499Y00000923899D01*
X00185830387Y00000875893*
Y00000849985*
Y00000824077*
X00185810499Y00000776097*
X00185773898Y00000739495*
X00185725892Y00000719582*
X00185674076*
X00185626095Y00000739495*
X00185589494Y00000776097*
X00185569580Y00000824077*
Y00000849985*
Y00000875893*
X00185589494Y00000923899*
X00185626095Y00000960475*
X00185674076Y00000980389*
X00185725892*
X00185773898Y00000960475*
G37*
G36*
X00076749986Y00000649986D02*
Y00000619988D01*
X00076389992*
Y00000829995*
X00076569976*
X00076749986Y00000649986*
G37*
G36*
X00077609979Y00000619988D02*
X00077249985D01*
Y00000649986*
X00077429995Y00000829995*
X00077609979*
Y00000619988*
G37*
G36*
X00181959986Y00000721080D02*
X00181996689Y00000684377D01*
X00182016476Y00000636498*
Y00000610489*
Y00000584581*
X00181996689Y00000536676*
X00181959986Y00000499999*
X00181912082Y00000480187*
X00181860190*
X00181812285Y00000499999*
X00181775582Y00000536676*
X00181755796Y00000584581*
Y00000610489*
Y00000636498*
X00181775582Y00000684377*
X00181812285Y00000721080*
X00181860190Y00000740892*
X00181912082*
X00181959986Y00000721080*
G37*
G36*
X00073923880Y00000710488D02*
X00073960482Y00000673887D01*
X00073980395Y00000625881*
Y00000599998*
Y00000574090*
X00073960482Y00000526084*
X00073923880Y00000489483*
X00073875900Y00000469595*
X00073824084*
X00073776078Y00000489483*
X00073739476Y00000526084*
X00073719588Y00000574090*
Y00000599998*
Y00000625881*
X00073739476Y00000673887*
X00073776078Y00000710488*
X00073824084Y00000730377*
X00073875900*
X00073923880Y00000710488*
G37*
G36*
X00109573898D02*
X00109610499Y00000673785D01*
X00109630387Y00000625881*
Y00000599998*
Y00000574090*
X00109610499Y00000526084*
X00109573898Y00000489483*
X00109525892Y00000469595*
X00109474076*
X00109426095Y00000489483*
X00109389494Y00000526084*
X00109369580Y00000574090*
Y00000599998*
Y00000625881*
X00109389494Y00000673785*
X00109426095Y00000710488*
X00109474076Y00000730377*
X00109525892*
X00109573898Y00000710488*
G37*
G36*
X00107473775Y00000560476D02*
X00107510478Y00000523874D01*
X00107530392Y00000475894*
Y00000449986*
Y00000424078*
X00107510478Y00000376097*
X00107473775Y00000339496*
X00107425896Y00000319582*
X00107374080*
X00107326099Y00000339496*
X00107289498Y00000376097*
X00107269584Y00000424078*
Y00000449986*
Y00000475894*
X00107289498Y00000523874*
X00107326099Y00000560476*
X00107374080Y00000580390*
X00107425896*
X00107473775Y00000560476*
G37*
G36*
X00106873776D02*
X00106910479Y00000523874D01*
X00106930393Y00000475894*
Y00000449986*
Y00000424078*
X00106910479Y00000376097*
X00106873776Y00000339496*
X00106825897Y00000319582*
X00106774081*
X00106726075Y00000339496*
X00106689499Y00000376097*
X00106669586Y00000424078*
Y00000449986*
Y00000475894*
X00106689499Y00000523874*
X00106726075Y00000560476*
X00106774081Y00000580390*
X00106825897*
X00106873776Y00000560476*
G37*
G36*
X00109059980Y00000269976D02*
X00108699985D01*
Y00000299999*
X00108879995Y00000479983*
X00109059980*
Y00000269976*
G37*
G36*
X00108199986Y00000299999D02*
Y00000269976D01*
X00107839992*
Y00000479983*
X00108019977*
X00108199986Y00000299999*
G37*
G54D25*
X00009499981Y00002149983D03*
X00019249999D03*
X00030649976D03*
X00127899998Y00002199995D03*
X00138649989Y00002149983D03*
X00148649994Y00002099995D03*
X00158249975Y00002149983D03*
G54D26*
X00068749976Y00000913688D03*
Y00005113680D03*
Y00003013786D03*
X00063849986Y00000913688D03*
Y00003013786D03*
Y00005113680D03*
G54D27*
X00071074991Y00002324989D03*
X00072924974D03*
Y00000874979D03*
X00071074991D03*
G54D28*
X00148599982Y00005399989D03*
Y00005049977D03*
X00196274994Y00000924991D03*
Y00001274978D03*
X00109024978Y00004074998D03*
Y00004424984D03*
Y00004974996D03*
Y00005324983D03*
X00128874977Y00004774996D03*
Y00005124983D03*
G54D29*
X00149249993Y00005224983D03*
X00195624983Y00001099997D03*
X00109674990Y00004249978D03*
Y00005149977D03*
X00129524988Y00004949977D03*
G54D30*
X00170699988Y00000749985D03*
X00172599985D03*
Y00003249980D03*
X00170699988D03*
X00032799985Y00000799998D03*
X00033749996D03*
X00034699981D03*
Y00003299993D03*
X00033749996D03*
X00032799985D03*
X00171649999Y00000749985D03*
Y00003249980D03*
G54D31*
X00076999998Y00001049985D03*
Y00002549982D03*
X00108449999Y00000699998D03*
Y00003199993D03*
Y00001949983D03*
G54D32*
X00075849988Y00000654989D03*
Y00001444980D03*
Y00002154986D03*
Y00002944977D03*
X00078149983Y00001444980D03*
Y00000654989D03*
Y00002944977D03*
Y00002154986D03*
X00078949981Y00000654989D03*
Y00001444980D03*
Y00002154986D03*
Y00002944977D03*
G54D33*
X00182546091Y00002060498D03*
Y00001560499D03*
Y00001060475D03*
Y00000560476D03*
X00183126075Y00002060498D03*
Y00001560499D03*
Y00001060475D03*
Y00000560476D03*
X00037139981Y00003199993D03*
Y00003699992D03*
Y00004199991D03*
Y00004699990D03*
X00036559998Y00003199993D03*
Y00003699992D03*
Y00004199991D03*
Y00004699990D03*
X00196339993Y00002549982D03*
Y00003049981D03*
Y00003549980D03*
Y00004049979D03*
X00195759984Y00002549982D03*
Y00003049981D03*
Y00003549980D03*
Y00004049979D03*
G54D34*
X00199649994Y00003499993D03*
X00198649996D03*
X00199649994Y00004499991D03*
X00198649996D03*
X00199649994Y00005499989D03*
X00198649996D03*
Y00002499995D03*
X00199649994D03*
X00198649996Y00001499997D03*
X00199649994D03*
X00198649996Y00000499999D03*
X00199649994D03*
X00204349985D03*
X00205349983D03*
X00204349985Y00001499997D03*
X00205349983D03*
X00204349985Y00002499995D03*
X00205349983D03*
Y00005499989D03*
X00204349985D03*
X00205349983Y00004499991D03*
X00204349985D03*
X00205349983Y00003499993D03*
X00204349985D03*
X00203349987Y00000499999D03*
X00200649992D03*
X00201999977D03*
X00203349987Y00005499989D03*
X00200649992D03*
X00201999977D03*
X00112149991Y00003499993D03*
X00111149993D03*
X00112149991Y00004499991D03*
X00111149993D03*
X00112149991Y00005499989D03*
X00111149993D03*
Y00002499995D03*
X00112149991D03*
X00111149993Y00001499997D03*
X00112149991D03*
X00111149993Y00000499999D03*
X00112149991D03*
X00116849982D03*
X00117849980D03*
X00116849982Y00001499997D03*
X00117849980D03*
X00116849982Y00002499995D03*
X00117849980D03*
Y00005499989D03*
X00116849982D03*
X00117849980Y00004499991D03*
X00116849982D03*
X00117849980Y00003499993D03*
X00116849982D03*
X00115849984Y00000499999D03*
X00113149989D03*
X00114499999D03*
X00115849984Y00005499989D03*
X00113149989D03*
X00114499999D03*
X00003999992D03*
X00002649982D03*
X00005349976D03*
X00003999992Y00000499999D03*
X00002649982D03*
X00005349976D03*
X00006350000Y00003499993D03*
X00007349998D03*
X00006350000Y00004499991D03*
X00007349998D03*
X00006350000Y00005499989D03*
X00007349998D03*
Y00002499995D03*
X00006350000D03*
X00007349998Y00001499997D03*
X00006350000D03*
X00007349998Y00000499999D03*
X00006350000D03*
X00001649984D03*
X00000649986D03*
X00001649984Y00001499997D03*
X00000649986D03*
X00001649984Y00002499995D03*
X00000649986D03*
Y00005499989D03*
X00001649984D03*
X00000649986Y00004499991D03*
X00001649984D03*
X00000649986Y00003499993D03*
X00001649984D03*
G54D35*
X00177334875Y00003399993D03*
Y00002599994D03*
X00178134899Y00003399993D03*
Y00002599994D03*
X00190134875Y00003399993D03*
Y00002599994D03*
X00190934898Y00003399993D03*
Y00002599994D03*
X00014067891Y00003399993D03*
Y00002599994D03*
X00014867890Y00003399993D03*
Y00002599994D03*
X00025467995Y00003399993D03*
Y00002599994D03*
X00026267994Y00003399993D03*
Y00002599994D03*
X00122688781Y00003399993D03*
Y00002599994D03*
X00123488780Y00003399993D03*
Y00002599994D03*
X00133449999Y00003399993D03*
Y00002599994D03*
X00134249998Y00003399993D03*
Y00002599994D03*
X00143468191Y00003399993D03*
Y00002599994D03*
X00144268190Y00003399993D03*
Y00002599994D03*
X00153068299Y00003399993D03*
Y00002599994D03*
X00153868297Y00003399993D03*
Y00002599994D03*
G54D36*
X00165644982Y00002611882D03*
Y00003411880D03*
X00164294997Y00002611882D03*
Y00003411880D03*
X00043644997Y00002611882D03*
Y00003411880D03*
X00042294987Y00002611882D03*
Y00003411880D03*
G54D37*
X00164969977Y00001824380D03*
Y00004199382D03*
X00042969992Y00001824380D03*
Y00004199382D03*
G54D38*
X00163294999Y00003011881D03*
X00166644980D03*
X00041294989D03*
X00044644995D03*
G54D39*
X00162244989Y00004311878D03*
X00020824977Y00001299997D03*
G54D40*
X00162419995Y00003661892D03*
X00162069983D03*
X00020649996Y00001949983D03*
X00020999983D03*
G54D41*
X00104589986Y00002053793D03*
X00104059990D03*
X00103529993D03*
X00102999997D03*
X00102469975D03*
X00101939979D03*
X00101409982D03*
X00104589986Y00002533777D03*
X00104059990D03*
X00103529993D03*
X00102999997D03*
X00102469975D03*
X00101939979D03*
X00101409982D03*
X00104589986Y00003013786D03*
X00104059990D03*
X00103529993D03*
X00102999997D03*
X00102469975D03*
X00101939979D03*
X00101409982D03*
X00104589986Y00003493795D03*
X00104059990D03*
X00103529993D03*
X00102999997D03*
X00102469975D03*
X00101939979D03*
X00101409982D03*
X00104589986Y00003973779D03*
X00103529993D03*
X00102999997D03*
X00102469975D03*
X00101939979D03*
X00101409982D03*
G54D42*
X00036549990Y00000549986D03*
Y00001049985D03*
Y00001549984D03*
X00035949991Y00000549986D03*
Y00001049985D03*
Y00001549984D03*
G54D43*
X00185899983Y00003149981D03*
Y00004099991D03*
Y00005049977D03*
X00183399988D03*
Y00004099991D03*
Y00003149981D03*
G54D44*
X00197359981Y00005399989D03*
X00196859982D03*
X00196359983D03*
X00197359981Y00004799990D03*
X00196859982D03*
X00196359983D03*
X00185149998Y00001499997D03*
X00185649997D03*
X00186149996D03*
X00185149998Y00002099995D03*
X00185649997D03*
X00186149996D03*
G54D45*
X00093149978Y00001868678D03*
Y00004158792D03*
X00084049997D03*
Y00001868678D03*
G54D46*
X00092399993Y00001838782D03*
X00091999993D03*
X00091599994D03*
X00091199995D03*
X00090799996D03*
X00090399997D03*
X00089999997D03*
X00089599998D03*
X00089199999D03*
X00088799974D03*
X00088399975D03*
X00087999976D03*
X00087599977D03*
X00087199978D03*
X00086799978D03*
X00086399979D03*
X00085999980D03*
X00085599981D03*
X00085199982D03*
X00084799982D03*
X00092399993Y00004188688D03*
X00091999993D03*
X00091599994D03*
X00091199995D03*
X00090799996D03*
X00090399997D03*
X00089999997D03*
X00089599998D03*
X00089199999D03*
X00088799974D03*
X00088399975D03*
X00087999976D03*
X00087599977D03*
X00087199978D03*
X00086799978D03*
X00086399979D03*
X00085999980D03*
X00085599981D03*
X00085199982D03*
X00084799982D03*
M02*