%FSDAX56Y56*%
%MOMM*%
%SFA1B1*%

%IPPOS*%
%ADD52C,0.599999*%
%ADD71C,3.699993*%
%LNwcam-tk-pcb-r02_soldermask_bot-1*%
%LPD*%
G36*
X00000249986Y00000199999D02*
X00013287883D01*
X00013499998*
Y00000499999*
X00012499975Y00001499997*
Y00003999992*
X00012949986Y00004449978*
X00023449991*
X00023899977Y00004899990*
Y00005799988*
X00000249986*
Y00000199999*
G37*
G36*
X00038749986Y00005799988D02*
Y00005249976D01*
X00040499995Y00003499993*
X00044499987*
X00044749999Y00003749979*
Y00005799988*
X00038749986*
G37*
G36*
X00073499980Y00004999990D02*
X00072749994Y00004249978D01*
X00063749986*
X00063500000Y00004499991*
Y00005799988*
X00073499980*
Y00004999990*
G37*
G36*
X00060999979Y00004199991D02*
X00060299981Y00003499993D01*
X00046249996*
X00045999984Y00003749979*
Y00005799988*
X00060999979*
Y00004199991*
G37*
G36*
X00073499980Y00000899998D02*
Y00000199999D01*
X00062799976*
Y00000799998*
X00063749986Y00001749983*
X00072649994*
X00073499980Y00000899998*
G37*
G36*
X00131999990Y00005799988D02*
Y00004499991D01*
X00132249976Y00004249978*
X00132749975*
X00133199987Y00004699990*
X00133849998*
X00134299985Y00004249978*
X00135499983*
X00135749995Y00004499991*
Y00005799988*
X00131999990*
G37*
G36*
X00142249982D02*
Y00004899990D01*
X00142499994Y00004649978*
X00145499988*
X00145749975Y00004899990*
Y00005799988*
X00142249982*
G37*
G36*
X00151749988D02*
Y00005199989D01*
X00151999975Y00004949977*
X00154999994*
X00155249981Y00005199989*
Y00005799988*
X00151749988*
G37*
G36*
X00178249986Y00000199999D02*
Y00000799998D01*
X00177649987Y00001399997*
X00175999978*
X00175749991Y00001149985*
Y00000199999*
X00178249986*
G37*
G36*
X00188749990Y00005799988D02*
Y00004999990D01*
X00188999977Y00004749977*
X00190449987*
X00191449985Y00003749979*
X00192499996*
X00192749982Y00003999992*
Y00004249978*
X00192249983Y00004749977*
Y00005799988*
X00188749990*
G37*
G36*
X00205749982Y00000199999D02*
X00197499986D01*
Y00000999998*
X00198799983Y00002299995*
Y00004349978*
X00197849998Y00005299989*
X00196949999*
X00196749974Y00005499989*
Y00005799988*
X00205749982*
Y00000199999*
G37*
G54D52*
X00100499976Y00002649982D03*
X00121920482Y00001499997D03*
X00127649986Y00004599990D03*
X00185899983Y00003149981D03*
Y00005049977D03*
X00148574988Y00003549980D03*
X00142699994Y00001499997D03*
X00138749989Y00004899990D03*
X00170699988Y00000749985D03*
X00172599985D03*
X00128249984Y00003399993D03*
X00075849988Y00001344980D03*
Y00002944977D03*
X00162149993Y00004449978D03*
X00110249995Y00005149977D03*
Y00003549980D03*
X00161499981D03*
X00036559998Y00005149977D03*
X00033749996Y00001549984D03*
Y00002549982D03*
X00032799985Y00000799998D03*
X00034699981D03*
X00045369988Y00002749981D03*
X00040569997D03*
X00103549983Y00001049985D03*
X00110249995Y00000849985D03*
G54D71*
X00201999977Y00002999994D03*
X00114499999D03*
X00003999992D03*
M02*