%FSDAX56Y56*%
%MOMM*%
%SFA1B1*%

%IPPOS*%
%ADD10C,0.100000*%
%ADD12C,0.150000*%
%ADD13C,0.200000*%
%ADD34C,0.499999*%
%ADD75C,0.299999*%
%ADD76C,0.699999*%
%ADD77C,3.399993*%
%ADD78C,0.399999*%
%ADD79C,0.399999*%
%LNwcam-tk-pcb-r02_copper_signal_bot-1*%
%LPD*%
G36*
X00105196081Y00005599988D02*
X00105198087Y00005590082D01*
X00105197097Y00005579999*
X00105201897Y00005531180*
X00105210584Y00005502579*
X00105216375Y00005473192*
X00105253688Y00005383098*
X00105297986Y00005316880*
X00105366896Y00005247995*
X00105433088Y00005203698*
X00105523182Y00005166385*
X00105552595Y00005160594*
X00105581196Y00005151882*
X00105561485Y00005029377*
X00104641497*
X00104549981Y00005140299*
Y00005259679*
X00104504286Y00005369890*
X00104419882Y00005454294*
X00104309697Y00005499989*
X00104190292*
X00104188895Y00005499379*
X00104170099Y00005511876*
X00104082392Y00005529376*
X00096399985*
X00096312177Y00005511876*
X00096237780Y00005462193*
X00095804990Y00005029377*
X00092244976*
X00091912186Y00005362194*
X00091837789Y00005411876*
X00091749981Y00005429377*
X00089594893*
X00089569899Y00005454294*
X00089459689Y00005499989*
X00089340283*
X00089230098Y00005454294*
X00089145694Y00005369890*
X00089099999Y00005259679*
Y00005140299*
X00089145694Y00005030089*
X00089230098Y00004945684*
X00089340283Y00004899990*
X00089459689*
X00089569899Y00004945684*
X00089594893Y00004970576*
X00091654985*
X00091919196Y00004706391*
X00091866593Y00004579391*
X00088694996*
X00087612194Y00005662193*
X00087596091Y00005672988*
X00087634597Y00005799988*
X00105196081*
Y00005599988*
G37*
G36*
X00086153879Y00005672988D02*
X00086137775Y00005662193D01*
X00085837776Y00005362194*
X00085788093Y00005287797*
X00085770593Y00005199989*
Y00004944897*
X00085745675Y00004919878*
X00085699981Y00004809693*
Y00004777994*
X00085584080Y00004727397*
X00085499981Y00004794377*
Y00004809693*
X00085454286Y00004919878*
X00085369882Y00005004282*
X00085259697Y00005049977*
X00085140292*
X00085030081Y00005004282*
X00085005087Y00004979390*
X00084799982*
X00084712175Y00004961890*
X00084637778Y00004912182*
X00083654976Y00003929380*
X00081194986*
X00080512183Y00004612182*
X00080437786Y00004661890*
X00080349979Y00004679391*
X00073849992*
X00073762184Y00004661890*
X00073687787Y00004612182*
X00072954997Y00003879392*
X00062994997*
X00062812193Y00004062196*
X00062737796Y00004111879*
X00062649989Y00004129379*
X00061799978*
X00061712195Y00004111879*
X00061637799Y00004062196*
X00060254997Y00002679395*
X00045764983*
X00045720000Y00002724378*
Y00002819577*
X00045666685Y00002948279*
X00045568285Y00003046679*
X00045439584Y00003099993*
X00045300392*
X00045171690Y00003046679*
X00045073290Y00002948279*
X00045019976Y00002819577*
Y00002680385*
X00045073290Y00002551684*
X00045171690Y00002453284*
X00045300392Y00002399995*
X00045319797*
X00045350582Y00002356383*
X00045284999Y00002229383*
X00044244996*
X00043862193Y00002612186*
X00043787796Y00002661894*
X00043699988Y00002679395*
X00042224375*
X00042136593Y00002661894*
X00042062196Y00002612186*
X00041779393Y00002329383*
X00041314979*
X00040919984Y00002724378*
Y00002819577*
X00040866695Y00002948279*
X00040768295Y00003046679*
X00040639593Y00003099993*
X00040500376*
X00040371699Y00003046679*
X00040273274Y00002948279*
X00040219985Y00002819577*
Y00002783992*
X00040092985Y00002731389*
X00039562176Y00003262198*
X00039487779Y00003311880*
X00039399997Y00003329381*
X00037428576*
X00037396191Y00003382289*
X00037380799Y00003456381*
X00037892075Y00003967683*
X00037923393Y00003986479*
X00038054076Y00003971594*
X00038080086Y00003945686*
X00038190297Y00003899992*
X00038309677*
X00038419887Y00003945686*
X00038504291Y00004030091*
X00038549986Y00004140276*
Y00004259681*
X00038504291Y00004369892*
X00038419887Y00004454296*
X00038309677Y00004499991*
X00038190297*
X00038106375Y00004465193*
X00038017780Y00004503191*
X00037979375Y00004533290*
Y00004955082*
X00038004292Y00004980076*
X00038049987Y00005090287*
Y00005209692*
X00038004292Y00005319877*
X00037919888Y00005404281*
X00037809678Y00005449976*
X00037690298*
X00037580087Y00005404281*
X00037495683Y00005319877*
X00037449988Y00005209692*
Y00005090287*
X00037495683Y00004980076*
X00037520575Y00004955082*
Y00004244975*
X00037104980Y00003829380*
X00033203997*
X00033191881Y00003846576*
X00033145984Y00003944086*
X00033206385Y00004020591*
X00036099978*
X00036187786Y00004038092*
X00036262183Y00004087799*
X00036519281Y00004344898*
X00036529975Y00004346981*
X00036612677Y00004402277*
X00036740185Y00004529785*
X00036795481Y00004612487*
X00036814887Y00004709998*
Y00004909896*
X00036856695Y00004951679*
X00036909984Y00005080381*
Y00005219598*
X00036856695Y00005348274*
X00036758295Y00005446699*
X00036629594Y00005499989*
X00036490376*
X00036361674Y00005446699*
X00036263275Y00005348274*
X00036209986Y00005219598*
Y00005080381*
X00036263275Y00004951679*
X00036305083Y00004909896*
Y00004815586*
X00036252277Y00004762677*
X00036196981Y00004679975*
X00036194898Y00004669282*
X00036004982Y00004479391*
X00033099984*
X00033012176Y00004461891*
X00032937780Y00004412183*
X00032604989Y00004079392*
X00025744982*
X00025387198Y00004437176*
X00025312776Y00004486884*
X00025224994Y00004504385*
X00024224996*
X00024137188Y00004486884*
X00024062791Y00004437176*
X00023604982Y00003979392*
X00013544778*
X00013519785Y00004004284*
X00013409599Y00004049979*
X00013290194*
X00013179983Y00004004284*
X00013095579Y00003919880*
X00013049885Y00003809695*
Y00003690289*
X00013095579Y00003580079*
X00013179983Y00003495675*
X00013290194Y00003449980*
X00013409599*
X00013519785Y00003495675*
X00013544778Y00003520592*
X00023604982*
X00024519178Y00002606395*
X00024503786Y00002532278*
X00024471376Y00002479395*
X00022430994*
X00022343186Y00002461895*
X00022268789Y00002412187*
X00022226574Y00002369997*
X00022158375*
X00022048190Y00002324277*
X00021963786Y00002239899*
X00021918091Y00002129688*
Y00002010283*
X00021963786Y00001900097*
X00022048190Y00001815693*
X00022158375Y00001769999*
X00022265995*
X00022291497Y00001739188*
X00022329495Y00001653997*
X00022204984Y00001529384*
X00021944888*
X00021919895Y00001554276*
X00021809684Y00001599996*
X00021690279*
X00021580094Y00001554276*
X00021555075Y00001529384*
X00018544997*
X00018062194Y00002012188*
X00017987797Y00002061895*
X00017899989Y00002079396*
X00016365880*
X00016278098Y00002061895*
X00016203676Y00002012188*
X00015541498Y00001349984*
X00015506293*
X00015395981Y00001304290*
X00015311577Y00001219885*
X00015265882Y00001109675*
Y00000990295*
X00015311577Y00000880084*
X00015395981Y00000795680*
X00015506293Y00000749985*
X00015625597*
X00015735884Y00000795680*
X00015820288Y00000880084*
X00015865881Y00000990295*
Y00001025575*
X00016460978Y00001620596*
X00016952976*
X00016968495Y00001499997*
X00016784675Y00001423898*
X00016644086Y00001283182*
X00016567886Y00001099388*
Y00000900480*
X00016644086Y00000716788*
X00016784675Y00000576097*
X00016968495Y00000499999*
X00017167377*
X00017351197Y00000576097*
X00017491786Y00000716788*
X00017567884Y00000900480*
Y00001099388*
X00017491786Y00001283182*
X00017351197Y00001423898*
X00017167377Y00001499997*
X00017182795Y00001620596*
X00017804993*
X00018287796Y00001137793*
X00018362193Y00001088085*
X00018449975Y00001070584*
X00021555075*
X00021580094Y00001045692*
X00021690279Y00000999998*
X00021809684*
X00021919895Y00001045692*
X00021944888Y00001070584*
X00022299980*
X00022387788Y00001088085*
X00022462185Y00001137793*
X00022944988Y00001620596*
X00023153090*
X00023168584Y00001499997*
X00022984790Y00001423898*
X00022844175Y00001283182*
X00022767975Y00001099489*
Y00000900480*
X00022844175Y00000716788*
X00022984790Y00000576097*
X00023168584Y00000499999*
X00023367492*
X00023551286Y00000576097*
X00023691875Y00000716788*
X00023767999Y00000900480*
Y00001099489*
X00023691875Y00001283182*
X00023551286Y00001423898*
X00023367492Y00001499997*
X00023382884Y00001620596*
X00023854994*
X00024449989Y00001025575*
Y00000990295*
X00024495683Y00000880084*
X00024580088Y00000795680*
X00024690298Y00000749985*
X00024809678*
X00024919889Y00000795680*
X00025004293Y00000880084*
X00025049988Y00000990295*
Y00001109675*
X00025004293Y00001219885*
X00024919889Y00001304290*
X00024809678Y00001349984*
X00024774398*
X00024230787Y00001893595*
X00024283390Y00002020595*
X00033004988*
X00033137779Y00001887778*
X00033212176Y00001838096*
X00033299984Y00001820595*
X00034049995*
X00034137777Y00001838096*
X00034212199Y00001887778*
X00034494978Y00002170582*
X00035404983*
X00035687787Y00001887778*
X00035762184Y00001838096*
X00035849991Y00001820595*
X00037949987*
X00038037795Y00001838096*
X00038112192Y00001887778*
X00038294995Y00002070582*
X00039304976*
X00040587777Y00000787781*
X00040662199Y00000738098*
X00040749982Y00000720598*
X00044249975*
X00044337782Y00000738098*
X00044412179Y00000787781*
X00044544996Y00000920597*
X00061249991*
X00061337799Y00000938098*
X00061412196Y00000987780*
X00062144986Y00001720596*
X00063049988*
X00063137796Y00001738096*
X00063212192Y00001787779*
X00063544983Y00002120595*
X00072754998*
X00074037799Y00000837793*
X00074112196Y00000788085*
X00074199978Y00000770585*
X00074654994*
X00074937797Y00000487781*
X00075012194Y00000438099*
X00075099976Y00000420598*
X00077449984*
X00077537792Y00000438099*
X00077612189Y00000487781*
X00077722984Y00000598576*
X00077762100Y00000597585*
X00077864487Y00000560374*
X00077895678Y00000485089*
X00077980082Y00000400685*
X00078090293Y00000354990*
X00078209698*
X00078319884Y00000400685*
X00078404288Y00000485089*
X00078449982Y00000595299*
Y00000714679*
X00078544699Y00000743889*
X00078649982Y00000633679*
Y00000595299*
X00078695677Y00000485089*
X00078780081Y00000400685*
X00078890291Y00000354990*
X00079009697*
X00079119882Y00000400685*
X00079204286Y00000485089*
X00079249981Y00000595299*
Y00000714679*
X00079249879Y00000714984*
X00079320390Y00000820597*
X00083532497*
X00083737780Y00000615289*
X00083812176Y00000565581*
X00083899984Y00000548081*
X00086205085*
X00086230079Y00000523189*
X00086340289Y00000477494*
X00086459695*
X00086569880Y00000523189*
X00086654284Y00000607593*
X00086699979Y00000717778*
Y00000837184*
X00086654284Y00000947394*
X00086569880Y00001031798*
X00086459695Y00001077493*
X00086379278*
X00086305186Y00001159281*
X00086290175Y00001194181*
X00086299979Y00001217777*
Y00001337183*
X00086297287Y00001343583*
X00086382199Y00001470583*
X00086504983*
X00087053496Y00000922096*
X00087051794Y00000913384*
X00087010798Y00000785088*
X00086945698Y00000719886*
X00086899978Y00000609676*
Y00000490296*
X00086945698Y00000380085*
X00086998683Y00000326999*
X00086954385Y00000199999*
X00000249986*
Y00005799988*
X00086115398*
X00086153879Y00005672988*
G37*
G36*
X00120048477Y00005243576D02*
X00119988787Y00005099481D01*
Y00004900498*
X00120048477Y00004756378*
X00119986298Y00004629378*
X00117444977*
X00116821178Y00005253278*
X00116869794Y00005370576*
X00119986298*
X00120048477Y00005243576*
G37*
G36*
X00147898586Y00005672988D02*
X00147237780Y00005012182D01*
X00147188097Y00004937785*
X00147170597Y00004849977*
Y00004594987*
X00146854976Y00004279392*
X00140249986*
X00140162178Y00004261891*
X00140087781Y00004212183*
X00139754991Y00003879392*
X00131494987*
X00130892981Y00004481499*
X00130970985Y00004576089*
X00131154779Y00004499991*
X00131353687*
X00131537481Y00004576089*
X00131678095Y00004716780*
X00131754295Y00004900498*
Y00005099481*
X00131678095Y00005283200*
X00131537481Y00005423890*
X00131353687Y00005499989*
X00131154779*
X00130970985Y00005423890*
X00130830396Y00005283200*
X00130754297Y00005099481*
Y00004900498*
X00130830396Y00004716780*
X00130735679Y00004638675*
X00130012186Y00005362194*
X00129937789Y00005411876*
X00129849981Y00005429377*
X00126594997*
X00126351385Y00005672988*
X00126403989Y00005799988*
X00147845983*
X00147898586Y00005672988*
G37*
G36*
X00125287786Y00004087799D02*
X00125362182Y00004038092D01*
X00125449990Y00004020591*
X00125880190*
X00125928780Y00003903294*
X00125837797Y00003812184*
X00125788089Y00003737787*
X00125770589Y00003649980*
Y00002899994*
X00125788089Y00002812186*
X00125837797Y00002737789*
X00126169191Y00002406396*
X00126153799Y00002332278*
X00126121388Y00002279396*
X00122470494*
X00122382686Y00002261895*
X00122308289Y00002212187*
X00121946085Y00001849983*
X00121850886*
X00121722184Y00001796694*
X00121623785Y00001698294*
X00121570496Y00001569593*
Y00001483487*
X00121443496Y00001430883*
X00121062191Y00001812188*
X00120987794Y00001861896*
X00120899986Y00001879396*
X00120099988*
X00120012180Y00001861896*
X00119937784Y00001812188*
X00119754980Y00001629384*
X00116999994*
X00116912186Y00001611884*
X00116837790Y00001562176*
X00116404999Y00001129385*
X00115280795*
X00115255497Y00001256385*
X00115399997Y00001316177*
X00115711198Y00001524177*
X00115975790Y00001788795*
X00116183791Y00002099995*
X00116326996Y00002445791*
X00116399995Y00002812897*
Y00003187090*
X00116326996Y00003554196*
X00116183791Y00003899992*
X00115975790Y00004211193*
X00115711198Y00004475784*
X00115399997Y00004683785*
X00115054176Y00004826990*
X00114719277Y00004893589*
X00114731800Y00005020589*
X00116404999*
X00117187776Y00004237786*
X00117262198Y00004188078*
X00117349981Y00004170578*
X00120899986*
X00120987794Y00004188078*
X00121062191Y00004237786*
X00121844993Y00005020589*
X00124354996*
X00125287786Y00004087799*
G37*
G36*
X00129274392Y00004518583D02*
X00129249982Y00004459681D01*
Y00004340275*
X00129295677Y00004230090*
X00129380081Y00004145686*
X00129490292Y00004099991*
X00129525598*
X00129770581Y00003854983*
Y00003629380*
X00128515592*
X00128448282Y00003696690*
X00128319580Y00003749979*
X00128180388*
X00128051687Y00003696690*
X00127984377Y00003629380*
X00126844196*
X00126779299Y00003734079*
X00126823089Y00003842893*
X00126853797Y00003854881*
X00126946177Y00003882186*
X00127012192Y00003838092*
X00127099999Y00003820591*
X00127949985*
X00128037793Y00003838092*
X00128112189Y00003887774*
X00128869998Y00004645583*
X00129205380*
X00129274392Y00004518583*
G37*
G36*
X00148859976Y00004833696D02*
X00148849994Y00004809693D01*
Y00004690287*
X00148895689Y00004580077*
X00148920581Y00004555083*
Y00004299991*
X00148938081Y00004212183*
X00148987789Y00004137787*
X00149219183Y00003906393*
X00149166580Y00003779393*
X00148840596*
X00148773286Y00003846677*
X00148644584Y00003899992*
X00148505392*
X00148376690Y00003846677*
X00148309380Y00003779393*
X00147849996*
X00147762188Y00003761892*
X00147687792Y00003712184*
X00147453477Y00003477895*
X00147431175Y00003470376*
X00147425791Y00003471697*
X00147386090Y00003611676*
X00148012175Y00004237786*
X00148061883Y00004312183*
X00148079383Y00004399991*
Y00004704994*
X00148335187Y00004960797*
X00148775089*
X00148859976Y00004833696*
G37*
G36*
X00097183778Y00004253280D02*
X00097100593Y00004169994D01*
X00097065287*
X00096955076Y00004124299*
X00096870697Y00004039895*
X00096824977Y00003929684*
Y00003894378*
X00096409992Y00003479393*
X00088394997*
X00088216790Y00003657676*
X00088279274Y00003774694*
X00088299975Y00003770579*
X00092242182*
X00092257194Y00003773576*
X00093293285*
X00093308297Y00003770579*
X00096299985*
X00096387793Y00003788079*
X00096462189Y00003837787*
X00096994980Y00004370578*
X00097135188*
X00097183778Y00004253280*
G37*
G36*
X00167300275Y00004642891D02*
X00167301494Y00004628997D01*
X00167254377Y00004496790*
X00167200097Y00004474286*
X00167115693Y00004389882*
X00167087397Y00004321683*
X00167067992Y00004278884*
X00166949983Y00004229379*
X00166449984*
X00166362176Y00004211878*
X00166287780Y00004162196*
X00165354990Y00003229381*
X00162994975*
X00162688574Y00003535781*
X00162751185Y00003652799*
X00162799979Y00003643096*
X00163249991*
X00163386592Y00003670300*
X00163502289Y00003747693*
X00163579683Y00003863390*
X00163606886Y00003999992*
X00163579683Y00004136593*
X00163502289Y00004252290*
Y00004297680*
X00163579683Y00004413377*
X00163606886Y00004549978*
X00163603178Y00004568596*
X00163707394Y00004695596*
X00167261184*
X00167300275Y00004642891*
G37*
G36*
X00197920584Y00004054983D02*
Y00003625088D01*
X00197799985Y00003609695*
X00197754290Y00003719880*
X00197669886Y00003804285*
X00197559676Y00003849979*
X00197440296*
X00197330085Y00003804285*
X00197249999Y00003724275*
X00197169887Y00003804285*
X00197059677Y00003849979*
X00196940297*
X00196830086Y00003804285*
X00196745682Y00003719880*
X00196699987Y00003609695*
Y00003574389*
X00195354981Y00002229383*
X00195011497*
X00194927778Y00002356383*
X00194941875Y00002390292*
Y00002509697*
X00194896181Y00002619883*
X00194811777Y00002704287*
X00194701591Y00002749981*
X00194582186*
X00194471899Y00002704287*
X00194387495Y00002619883*
X00194341877Y00002509697*
Y00002490597*
X00194252088Y00002381986*
X00194224478Y00002379395*
X00193583382*
X00193530778Y00002506395*
X00194674388Y00003649980*
X00194709694*
X00194819879Y00003695700*
X00194904283Y00003780078*
X00194949978Y00003890289*
Y00004009694*
X00195041494Y00004120591*
X00196949999*
X00197037782Y00004138091*
X00197112178Y00004187799*
X00197215582Y00004291177*
X00197684390*
X00197920584Y00004054983*
G37*
G36*
X00098624999Y00003909695D02*
Y00003790289D01*
X00098670694Y00003680079*
X00098755098Y00003595674*
X00098865283Y00003549980*
X00098984689*
X00099017277Y00003536492*
X00099022687Y00003523488*
X00099087584Y00003458591*
X00099116794Y00003388080*
Y00003311880*
X00099087584Y00003241395*
X00099050983Y00003204794*
X00099040086Y00003178479*
X00099022890Y00003155797*
X00098993883Y00003075686*
X00098877882Y00003049981*
X00098865283*
X00098755098Y00003004286*
X00098670694Y00002919882*
X00098624999Y00002809697*
Y00002690291*
X00098669297Y00002583281*
X00098648697Y00002524683*
X00098623475Y00002461285*
X00098611791Y00002433091*
X00098594291Y00002408097*
X00098596399Y00002396083*
X00098591776Y00002384780*
Y00002212289*
X00098464776Y00002159685*
X00098112199Y00002512187*
X00098037777Y00002561894*
X00097949994Y00002579395*
X00093799990*
X00093712182Y00002561894*
X00093637785Y00002512187*
X00093304995Y00002179396*
X00092791483*
X00092699992Y00002290292*
Y00002409698*
X00092654297Y00002519883*
X00092569893Y00002604287*
X00092459683Y00002649982*
X00092340277*
X00092230092Y00002604287*
X00092145688Y00002519883*
X00092099993Y00002409698*
Y00002290292*
X00092008477Y00002179396*
X00091591485*
X00091499994Y00002290292*
Y00002409698*
X00091454274Y00002519883*
X00091369896Y00002604287*
X00091259685Y00002649982*
X00091140280*
X00091030094Y00002604287*
X00090945690Y00002519883*
X00090899996Y00002409698*
Y00002290292*
X00090808479Y00002179396*
X00090391488*
X00090299997Y00002290292*
Y00002409698*
X00090254277Y00002519883*
X00090169898Y00002604287*
X00090059687Y00002649982*
X00089940282*
X00089830097Y00002604287*
X00089745693Y00002519883*
X00089699998Y00002409698*
Y00002290292*
X00089608482Y00002179396*
X00089094995*
X00088380798Y00002893593*
X00088433376Y00003020593*
X00096504988*
X00096592796Y00003038094*
X00096667193Y00003087776*
X00097149386Y00003569995*
X00097184692*
X00097294877Y00003615690*
X00097346693Y00003667379*
X00097424976Y00003687978*
X00097503284Y00003667379*
X00097555075Y00003615690*
X00097665286Y00003569995*
X00097784691*
X00097894876Y00003615690*
X00097979280Y00003700094*
X00098024975Y00003810279*
Y00003929684*
X00098085681Y00004020591*
X00098533483*
X00098624999Y00003909695*
G37*
G36*
X00114280696Y00004893589D02*
X00113945797Y00004826990D01*
X00113599976Y00004683785*
X00113288775Y00004475784*
X00113024183Y00004211193*
X00112816182Y00003899992*
X00112672977Y00003554196*
X00112599978Y00003187090*
Y00002812897*
X00112672977Y00002445791*
X00112789487Y00002164486*
X00112681791Y00002092578*
X00112112196Y00002662199*
X00112037799Y00002711881*
X00111949992Y00002729382*
X00110549994*
X00110462187Y00002711881*
X00110387790Y00002662199*
X00110326982Y00002601391*
X00110199982Y00002653995*
Y00002659684*
X00110154288Y00002769895*
X00110069884Y00002854299*
X00109959698Y00002899994*
X00109840293*
X00109730082Y00002854299*
X00109645678Y00002769895*
X00109599984Y00002659684*
Y00002540279*
X00109645678Y00002430094*
X00109730082Y00002345690*
X00109840293Y00002299995*
X00109845983*
X00109898586Y00002172995*
X00109504988Y00001779397*
X00107999987*
X00107912179Y00001761896*
X00107837782Y00001712188*
X00107654979Y00001529384*
X00107098084*
X00106998185Y00001656384*
X00107006898Y00001699996*
X00106979694Y00001836597*
X00106902275Y00001952294*
X00106786578Y00002029688*
X00106649977Y00002056892*
X00106199990*
X00106063389Y00002029688*
X00105947692Y00001952294*
X00105925797Y00001919579*
X00105789882Y00001896186*
X00105695292Y00001967484*
X00105676496Y00002073478*
X00105708196Y00002149983*
Y00003699992*
X00105676496Y00003776497*
X00105349776Y00004103293*
X00105398392Y00004220591*
X00106049978*
X00106137786Y00004238091*
X00106212182Y00004287799*
X00106844998Y00004920589*
X00109004989*
X00109487792Y00004437786*
X00109562188Y00004388078*
X00109649996Y00004370578*
X00109880400*
X00109903285Y00004353280*
X00109907984Y00004346981*
X00109962696Y00004243578*
X00109961476Y00004237482*
X00109949996Y00004209694*
Y00004179595*
X00109944077Y00004149979*
Y00003726078*
X00109899983Y00003619576*
Y00003480384*
X00109953298Y00003351682*
X00110051697Y00003253282*
X00110180399Y00003199993*
X00110319591*
X00110448293Y00003253282*
X00110546692Y00003351682*
X00110599982Y00003480384*
Y00003619576*
X00110555887Y00003726078*
Y00004149979*
X00110549994Y00004179595*
Y00004209694*
X00110538488Y00004237482*
X00110537294Y00004243578*
X00110591981Y00004346981*
X00110596680Y00004353280*
X00110619590Y00004370578*
X00111799979*
X00111887787Y00004388078*
X00111962184Y00004437786*
X00112544987Y00005020589*
X00114268199*
X00114280696Y00004893589*
G37*
G36*
X00104294178Y00004093591D02*
X00104289987Y00004083380D01*
Y00003964076*
X00104335681Y00003853789*
X00104420085Y00003769385*
X00104530296Y00003723792*
X00104649676*
X00104759887Y00003769385*
X00104844291Y00003853789*
X00104889985Y00003964076*
Y00004083380*
X00104885794Y00004093591*
X00104959378Y00004203700*
X00105088486Y00004211497*
X00105599992Y00003699992*
Y00002149983*
X00105479392Y00002029383*
X00098720579*
X00098699980Y00002049983*
Y00002384780*
X00098826980Y00002465882*
X00098865283Y00002449982*
X00098984689*
X00099094899Y00002495677*
X00099179278Y00002580081*
X00099224998Y00002690291*
Y00002809697*
X00099179278Y00002919882*
X00099127487Y00002971698*
X00099106888Y00003049981*
X00099127487Y00003128289*
X00099179278Y00003180080*
X00099224998Y00003290290*
Y00003409696*
X00099179278Y00003519881*
X00099099293Y00003599992*
X00099179278Y00003680079*
X00099224998Y00003790289*
Y00003909695*
X00099316489Y00004020591*
X00102754988*
X00102892479Y00003883075*
Y00003421888*
X00102909878Y00003334080*
X00102898498Y00003296386*
X00102830096Y00003268091*
X00102817980Y00003255975*
X00102734999Y00003191891*
X00102651991Y00003255975*
X00102639876Y00003268091*
X00102529690Y00003313785*
X00102410285*
X00102300074Y00003268091*
X00102287984Y00003255975*
X00102204977Y00003191891*
X00102121995Y00003255975*
X00102109879Y00003268091*
X00101999694Y00003313785*
X00101880289*
X00101770078Y00003268091*
X00101685699Y00003183686*
X00101639979Y00003073400*
Y00002954096*
X00101685699Y00002843784*
X00101770078Y00002759379*
X00101880289Y00002713685*
X00101999694*
X00102109879Y00002759379*
X00102121995Y00002771495*
X00102204977Y00002835579*
X00102287984Y00002771495*
X00102300074Y00002759379*
X00102410285Y00002713685*
X00102529690*
X00102639876Y00002759379*
X00102651991Y00002771495*
X00102734999Y00002835579*
X00102817980Y00002771495*
X00102830096Y00002759379*
X00102940281Y00002713685*
X00103059687*
X00103169897Y00002759379*
X00103181988Y00002771495*
X00103264995Y00002835579*
X00103347977Y00002771495*
X00103360093Y00002759379*
X00103470278Y00002713685*
X00103589683*
X00103699894Y00002759379*
X00103711984Y00002771495*
X00103794991Y00002835579*
X00103877999Y00002771495*
X00103890089Y00002759379*
X00104000300Y00002713685*
X00104119680*
X00104229890Y00002759379*
X00104314294Y00002843784*
X00104359989Y00002954096*
Y00003073400*
X00104314294Y00003183686*
X00104229890Y00003268091*
X00104119680Y00003313785*
X00104000300*
X00103906294Y00003274796*
X00103834692Y00003284296*
X00103833879Y00003284499*
X00103764892Y00003329076*
X00103761082Y00003347186*
X00103772182Y00003361690*
X00103784298Y00003373780*
X00103829993Y00003484092*
Y00003603396*
X00103784298Y00003713683*
X00103772182Y00003725799*
X00103708200Y00003808679*
X00103772182Y00003891686*
X00103784298Y00003903776*
X00103829993Y00004014089*
Y00004133392*
X00103888286Y00004220591*
X00104209392*
X00104294178Y00004093591*
G37*
G36*
X00085030081Y00004495698D02*
X00085140292Y00004449978D01*
X00085175598*
X00085770593Y00003854983*
Y00003299993*
X00085788093Y00003212185*
X00085837776Y00003137789*
X00085906381Y00003069183*
X00085861677Y00002934284*
X00085799193Y00002925191*
X00085099982Y00003624376*
Y00003687191*
X00085054287Y00003797376*
X00084969883Y00003881780*
X00084859698Y00003927475*
X00084740292*
X00084630082Y00003881780*
X00084545678Y00003797376*
X00084499983Y00003687191*
Y00003651885*
X00084277479Y00003429381*
X00083978597*
X00083946187Y00003482289*
X00083930794Y00003556381*
X00084883091Y00004508576*
X00085017076*
X00085030081Y00004495698*
G37*
G36*
X00039557883Y00002617597D02*
X00039492377Y00002518791D01*
X00039483080Y00002512898*
X00039399997Y00002529382*
X00038199999*
X00038112192Y00002511882*
X00038037795Y00002462199*
X00037854991Y00002279396*
X00036541481*
X00036449990Y00002390292*
Y00002509697*
X00036404296Y00002619883*
X00036319891Y00002704287*
X00036209681Y00002749981*
X00036225099Y00002870581*
X00039304976*
X00039557883Y00002617597*
G37*
G36*
X00167037791Y00003587775D02*
X00167112188Y00003538093D01*
X00167199995Y00003520592*
X00167380183*
X00167428799Y00003403295*
X00166857781Y00002832176*
X00166808099Y00002757779*
X00166790598Y00002669997*
Y00002551582*
X00166705280Y00002466289*
X00163208081*
X00163021187Y00002653284*
X00163069778Y00002770581*
X00165449986*
X00165537794Y00002788081*
X00165612191Y00002837789*
X00166544980Y00003770579*
X00166854987*
X00167037791Y00003587775*
G37*
G36*
X00079469183Y00002906395D02*
X00079416579Y00002779395D01*
X00077699997*
X00077612189Y00002761894*
X00077537792Y00002712186*
X00076854989Y00002029383*
X00076183388*
X00076130785Y00002156383*
X00077064997Y00003090595*
X00079284982*
X00079469183Y00002906395*
G37*
G36*
X00043963386Y00001862099D02*
X00043986881Y00001830476D01*
X00043971489Y00001695881*
X00043904992Y00001629384*
X00041194990*
X00041002280Y00001822094*
X00041083280Y00001920798*
X00041132175Y00001888083*
X00041219983Y00001870583*
X00041874389*
X00041962197Y00001888083*
X00042036593Y00001937791*
X00042319498Y00002220595*
X00043604992*
X00043963386Y00001862099*
G37*
G36*
X00080319194Y00001406398D02*
X00080266590Y00001279398D01*
X00077849984*
X00077762176Y00001261897*
X00077687779Y00001212189*
X00077354988Y00000879398*
X00075972390*
X00075947092Y00001006398*
X00076048184Y00001048283*
X00076146685Y00001146683*
X00076200000Y00001275384*
Y00001414576*
X00076187985Y00001443583*
X00076272796Y00001570583*
X00076949985*
X00077037793Y00001588084*
X00077112190Y00001637792*
X00077732686Y00002258187*
X00077799793Y00002233295*
X00077849984Y00002195982*
Y00002095296*
X00077895678Y00001985086*
X00077980082Y00001900682*
X00078090293Y00001854987*
X00078209698*
X00078319884Y00001900682*
X00078404288Y00001985086*
X00078449982Y00002095296*
Y00002214676*
X00078544699Y00002243886*
X00078649982Y00002133676*
Y00002095296*
X00078695677Y00001985086*
X00078780081Y00001900682*
X00078890291Y00001854987*
X00079009697*
X00079119882Y00001900682*
X00079204286Y00001985086*
X00079249981Y00002095296*
Y00002214676*
X00079345790Y00002284984*
X00079434182Y00002291283*
X00080319194Y00001406398*
G37*
G36*
X00083910678Y00002056384D02*
X00083850276Y00001929384D01*
X00083762494Y00001911883*
X00083688097Y00001862175*
X00083505294Y00001679397*
X00080694987*
X00080430776Y00001943582*
X00080483379Y00002070582*
X00083901280*
X00083910678Y00002056384*
G37*
G36*
X00167120595Y00002066798D02*
Y00001944979D01*
X00166854987Y00001679397*
X00165649986*
X00165646785Y00001678787*
X00164167185*
X00164163984Y00001679397*
X00163494999*
X00163284281Y00001890090*
X00163332896Y00002007489*
X00166800276*
X00166888083Y00002024888*
X00166962582Y00002074697*
X00167003298Y00002115388*
X00167120595Y00002066798*
G37*
G36*
X00112369193Y00001756384D02*
X00112316590Y00001629384D01*
X00110183396*
X00110130793Y00001756384*
X00110644990Y00002270582*
X00111854996*
X00112369193Y00001756384*
G37*
G36*
X00205749982Y00000199999D02*
X00181552697D01*
X00181527399Y00000326999*
X00181597985Y00000356184*
X00181682288Y00000440588*
X00181704894Y00000495096*
X00181708780Y00000499389*
X00181834891Y00000545490*
X00181852392Y00000544576*
X00181862196Y00000538099*
X00181949979Y00000520598*
X00185249997*
X00185337780Y00000538099*
X00185412176Y00000587781*
X00186244992Y00001420596*
X00187482480*
X00187531095Y00001303299*
X00187510978Y00001283182*
X00187434880Y00001099388*
Y00000900480*
X00187510978Y00000716788*
X00187651694Y00000576097*
X00187835489Y00000499999*
X00188034396*
X00188218191Y00000576097*
X00188358780Y00000716788*
X00188434878Y00000900480*
Y00001099388*
X00188358780Y00001283182*
X00188338790Y00001303299*
X00188387380Y00001420596*
X00190354991*
X00190887781Y00000887780*
X00190962178Y00000838098*
X00191049986Y00000820597*
X00191471092*
X00191495984Y00000795680*
X00191606195Y00000749985*
X00191725575*
X00191835887Y00000795680*
X00191860779Y00000820597*
X00192149984*
X00192237791Y00000838098*
X00192312188Y00000887780*
X00192507895Y00001083487*
X00192634895Y00001030884*
Y00000900480*
X00192710993Y00000716788*
X00192851684Y00000576097*
X00193035478Y00000499999*
X00193234386*
X00193418180Y00000576097*
X00193558795Y00000716788*
X00193634893Y00000900480*
Y00001099388*
X00193558795Y00001283182*
X00193538779Y00001303299*
X00193587395Y00001420596*
X00194254983*
X00194599991Y00001075588*
Y00001040282*
X00194645686Y00000930097*
X00194730090Y00000845693*
X00194840275Y00000799998*
X00194959681*
X00195069891Y00000845693*
X00195154296Y00000930097*
X00195199990Y00001040282*
Y00001159687*
X00195154296Y00001269898*
X00195069891Y00001354277*
X00194959681Y00001399997*
X00194924375*
X00194671188Y00001653286*
X00194719778Y00001770583*
X00195449977*
X00195537785Y00001788083*
X00195612181Y00001837791*
X00197024396Y00003249980*
X00197059677*
X00197169887Y00003295675*
X00197249999Y00003375685*
X00197330085Y00003295675*
X00197440296Y00003249980*
X00197559676*
X00197669886Y00003295675*
X00197754290Y00003380079*
X00197799985Y00003490290*
X00197920584Y00003474897*
Y00002644978*
X00197475576Y00002199995*
X00197440296*
X00197330085Y00002154275*
X00197245681Y00002069896*
X00197199986Y00001959686*
Y00001840280*
X00197245681Y00001730095*
X00197330085Y00001645691*
X00197440296Y00001599996*
X00197559676*
X00197669886Y00001645691*
X00197754290Y00001730095*
X00197799985Y00001840280*
Y00001875586*
X00198312176Y00002387777*
X00198361884Y00002462199*
X00198379384Y00002549982*
Y00004149979*
X00198361884Y00004237786*
X00198312176Y00004312183*
X00197941590Y00004682794*
X00197867193Y00004732477*
X00197779386Y00004749977*
X00197120586*
X00197032778Y00004732477*
X00196958381Y00004682794*
X00196854978Y00004579391*
X00194099992*
X00194012185Y00004561890*
X00193937788Y00004512183*
X00192704999Y00003279394*
X00186844990*
X00186312175Y00003812184*
X00186237778Y00003861892*
X00186149996Y00003879392*
X00185599984*
X00185512176Y00003861892*
X00185437780Y00003812184*
X00184854977Y00003229381*
X00183044998*
X00182612182Y00003662197*
X00182537785Y00003711879*
X00182449978Y00003729380*
X00177618186*
X00177565583Y00003856380*
X00177589180Y00003880078*
X00177634900Y00003990289*
Y00004109694*
X00177589180Y00004219879*
X00177515494Y00004293590*
X00177521489Y00004343400*
X00177554483Y00004420590*
X00177854991*
X00178187781Y00004087799*
X00178262178Y00004038092*
X00178349986Y00004020591*
X00180949981*
X00181037788Y00004038092*
X00181112185Y00004087799*
X00181294989Y00004270578*
X00183758484*
X00183849975Y00004159681*
Y00004040276*
X00183895695Y00003930091*
X00183980099Y00003845687*
X00184090284Y00003799992*
X00184209690*
X00184319875Y00003845687*
X00184404279Y00003930091*
X00184449999Y00004040276*
Y00004159681*
X00184541490Y00004270578*
X00186604986*
X00186987789Y00003887774*
X00187062186Y00003837990*
X00187149994Y00003820591*
X00189940082*
X00189964999Y00003795699*
X00190075286Y00003749979*
X00190194590*
X00190304877Y00003795699*
X00190389281Y00003880078*
X00190434899Y00003990289*
Y00004109694*
X00190389281Y00004219879*
X00190304877Y00004304284*
X00190194590Y00004349978*
X00190075286*
X00189964999Y00004304284*
X00189940082Y00004279392*
X00187244990*
X00186862186Y00004662195*
X00186787790Y00004711877*
X00186699982Y00004729378*
X00186253983*
X00186196681Y00004851679*
X00186249995Y00004980381*
Y00005119598*
X00186196681Y00005248275*
X00186098281Y00005346700*
X00185969579Y00005399989*
X00185830387*
X00185701686Y00005346700*
X00185603286Y00005248275*
X00185549997Y00005119598*
Y00004980381*
X00185603286Y00004851679*
X00185545984Y00004729378*
X00181199993*
X00181112185Y00004711877*
X00181037788Y00004662195*
X00180854985Y00004479391*
X00180691180*
X00180648381Y00004606391*
X00180758795Y00004716780*
X00180834893Y00004900498*
Y00005099481*
X00180758795Y00005283200*
X00180618079Y00005423890*
X00180434284Y00005499989*
X00180235377*
X00180051684Y00005423890*
X00179910994Y00005283200*
X00179834895Y00005099481*
Y00004900498*
X00179910994Y00004716780*
X00180021382Y00004606391*
X00179978481Y00004479391*
X00178444982*
X00178112191Y00004812182*
X00178037794Y00004861890*
X00177949987Y00004879390*
X00176199977*
X00176112195Y00004861890*
X00176037798Y00004812182*
X00175754995Y00004529378*
X00175550982*
X00175498379Y00004656378*
X00175558780Y00004716780*
X00175634878Y00004900498*
Y00005099481*
X00175558780Y00005283200*
X00175418089Y00005423890*
X00175234295Y00005499989*
X00175035387*
X00174851695Y00005423890*
X00174710979Y00005283200*
X00174634880Y00005099481*
Y00004900498*
X00174710979Y00004716780*
X00174771380Y00004656378*
X00174718776Y00004529378*
X00173444992*
X00173112176Y00004862195*
X00173037779Y00004911877*
X00172949997Y00004929378*
X00168544976*
X00168012186Y00005462193*
X00167937789Y00005511876*
X00167849981Y00005529376*
X00160899983*
X00160812175Y00005511876*
X00160737778Y00005462193*
X00159054977Y00003779393*
X00158744996*
X00158012180Y00004512183*
X00157937784Y00004561890*
X00157849976Y00004579391*
X00156520692*
X00156472077Y00004696688*
X00156492194Y00004716780*
X00156568292Y00004900498*
Y00005099481*
X00156492194Y00005283200*
X00156351478Y00005423890*
X00156167683Y00005499989*
X00155968776*
X00155784981Y00005423890*
X00155644392Y00005283200*
X00155568294Y00005099481*
Y00004900498*
X00155644392Y00004716780*
X00155664382Y00004696688*
X00155615792Y00004579391*
X00151320677*
X00151272087Y00004696688*
X00151292077Y00004716780*
X00151368277Y00004900498*
Y00005099481*
X00151292077Y00005283200*
X00151151488Y00005423890*
X00150967694Y00005499989*
X00150768786*
X00150584992Y00005423890*
X00150444377Y00005283200*
X00150368279Y00005099481*
Y00005035778*
X00150241279Y00004983175*
X00149551390Y00005672988*
X00149603993Y00005799988*
X00205749982*
Y00000199999*
G37*
G36*
X00171087796Y00001837791D02*
X00171162192Y00001788083D01*
X00171249975Y00001770583*
X00179530197*
X00179578787Y00001653286*
X00179204975Y00001279398*
X00179060779*
X00179035887Y00001304290*
X00178925575Y00001349984*
X00178806297*
X00178695985Y00001304290*
X00178611580Y00001219885*
X00178565886Y00001109675*
Y00000990295*
X00178611580Y00000880084*
X00178695985Y00000795680*
X00178806297Y00000749985*
X00178925575*
X00179035887Y00000795680*
X00179060779Y00000820597*
X00179299997*
X00179387779Y00000838098*
X00179462176Y00000887780*
X00179717496Y00001143076*
X00179784883Y00001117981*
X00179834895Y00001080897*
Y00000900480*
X00179910994Y00000716788*
X00180051684Y00000576097*
X00180235377Y00000499999*
X00180434284*
X00180618079Y00000576097*
X00180758795Y00000716788*
X00180834893Y00000900480*
Y00000961085*
X00180961893Y00001013688*
X00181087776Y00000887780*
X00181095878Y00000882294*
X00181157397Y00000801878*
X00181145281Y00000711885*
X00181127984Y00000670179*
Y00000550875*
X00181173678Y00000440588*
X00181258083Y00000356184*
X00181328593Y00000326999*
X00181303295Y00000199999*
X00167853995*
X00167801391Y00000326999*
X00168812184Y00001337792*
X00168861892Y00001412189*
X00168879393Y00001499997*
Y00001954987*
X00169194988Y00002270582*
X00170654980*
X00171087796Y00001837791*
G37*
G36*
X00119929376Y00001143381D02*
X00119986475Y00001083284D01*
X00119988787Y00001078585*
Y00000900480*
X00120048477Y00000756386*
X00119986298Y00000629386*
X00116728595*
X00116696185Y00000682294*
X00116680792Y00000756386*
X00117094990Y00001170584*
X00119849976*
X00119883478Y00001177290*
X00119929376Y00001143381*
G37*
G36*
X00113148592Y00000326999D02*
X00113095989Y00000199999D01*
X00107038597*
X00106990794Y00000289382*
X00106982387Y00000326999*
X00107006898Y00000449986*
X00106979694Y00000586587*
X00106908193Y00000693597*
X00106918277Y00000738886*
X00106953888Y00000820597*
X00108149999*
X00108237782Y00000838098*
X00108312178Y00000887780*
X00108344995Y00000920597*
X00109782686*
X00109850199Y00000919988*
X00109899983Y00000801090*
Y00000780389*
X00109953298Y00000651687*
X00110051697Y00000553288*
X00110180399Y00000499999*
X00110319591*
X00110448293Y00000553288*
X00110546692Y00000651687*
X00110599982Y00000780389*
Y00000919581*
X00110546692Y00001048283*
X00110603995Y00001170584*
X00112304982*
X00113148592Y00000326999*
G37*
G36*
X00155408198Y00000317296D02*
X00155359582Y00000199999D01*
X00151490375*
X00151441785Y00000317296*
X00151844984Y00000720598*
X00155004998*
X00155408198Y00000317296*
G37*
G36*
X00140658189D02*
X00140609599Y00000199999D01*
X00137140391*
X00137091775Y00000317296*
X00137744987Y00000970584*
X00140004977*
X00140658189Y00000317296*
G37*
G36*
X00135858199D02*
X00135809583Y00000199999D01*
X00133840397*
X00133791782Y00000317296*
X00134394981Y00000920597*
X00135255000*
X00135858199Y00000317296*
G37*
G36*
X00130658184D02*
X00130609594Y00000199999D01*
X00126390400*
X00126341784Y00000317296*
X00126994996Y00000970584*
X00130004997*
X00130658184Y00000317296*
G37*
G36*
X00125058195D02*
X00125009579Y00000199999D01*
X00123003995*
X00122951392Y00000326999*
X00123494977Y00000870585*
X00124504983*
X00125058195Y00000317296*
G37*
G36*
X00097587790Y00000487781D02*
D01*
X00097662187Y00000438099*
X00097749995Y00000420598*
X00099699978*
X00099770895Y00000434695*
X00099779378Y00000433679*
X00099802696Y00000426999*
X00099896091Y00000357682*
Y00000199999*
X00088303989*
X00088251385Y00000326999*
X00088494997Y00000570585*
X00093899990*
X00093987797Y00000588086*
X00094062194Y00000637794*
X00094194985Y00000770585*
X00097304987*
X00097587790Y00000487781*
G37*
%LNwcam-tk-pcb-r02_copper_signal_bot-2*%
%LPC*%
G36*
X00062309679Y00005413781D02*
X00062190299D01*
X00062080089Y00005368086*
X00061995685Y00005283682*
X00061949990Y00005173395*
Y00005054092*
X00061995685Y00004943779*
X00062080089Y00004859375*
X00062190299Y00004813681*
X00062309679*
X00062419890Y00004859375*
X00062504294Y00004943779*
X00062549989Y00005054092*
Y00005173395*
X00062504294Y00005283682*
X00062419890Y00005368086*
X00062309679Y00005413781*
G37*
G36*
X00028567481Y00005499989D02*
X00028368599D01*
X00028184779Y00005423890*
X00028044089Y00005283200*
X00027967990Y00005099481*
Y00004900498*
X00028044089Y00004716780*
X00028184779Y00004576089*
X00028368599Y00004499991*
X00028567481*
X00028751276Y00004576089*
X00028891890Y00004716780*
X00028967988Y00004900498*
Y00005099481*
X00028891890Y00005283200*
X00028751276Y00005423890*
X00028567481Y00005499989*
G37*
G36*
X00023367492D02*
X00023168584D01*
X00022984790Y00005423890*
X00022844175Y00005283200*
X00022767975Y00005099481*
Y00004900498*
X00022844175Y00004716780*
X00022984790Y00004576089*
X00023168584Y00004499991*
X00023367492*
X00023551286Y00004576089*
X00023691875Y00004716780*
X00023767999Y00004900498*
Y00005099481*
X00023691875Y00005283200*
X00023551286Y00005423890*
X00023367492Y00005499989*
G37*
G36*
X00017167377D02*
X00016968495D01*
X00016784675Y00005423890*
X00016644086Y00005283200*
X00016567886Y00005099481*
Y00004900498*
X00016644086Y00004716780*
X00016784675Y00004576089*
X00016968495Y00004499991*
X00017167377*
X00017351197Y00004576089*
X00017491786Y00004716780*
X00017567884Y00004900498*
Y00005099481*
X00017491786Y00005283200*
X00017351197Y00005423890*
X00017167377Y00005499989*
G37*
G36*
X00011967387D02*
X00011768480D01*
X00011584686Y00005423890*
X00011443995Y00005283200*
X00011367897Y00005099481*
Y00004900498*
X00011443995Y00004716780*
X00011584686Y00004576089*
X00011768480Y00004499991*
X00011967387*
X00012151182Y00004576089*
X00012291796Y00004716780*
X00012367895Y00004900498*
Y00005099481*
X00012291796Y00005283200*
X00012151182Y00005423890*
X00011967387Y00005499989*
G37*
G36*
X00045429678Y00004519980D02*
X00045310298D01*
X00045200087Y00004474286*
X00045115683Y00004389882*
X00045069988Y00004279696*
Y00004160291*
X00045115683Y00004050080*
X00045200087Y00003965676*
X00045310298Y00003919982*
X00045429678*
X00045539888Y00003965676*
X00045624292Y00004050080*
X00045669987Y00004160291*
Y00004279696*
X00045624292Y00004389882*
X00045539888Y00004474286*
X00045429678Y00004519980*
G37*
G36*
X00004187088Y00004899990D02*
X00003812895D01*
X00003445789Y00004826990*
X00003099993Y00004683785*
X00002788793Y00004475784*
X00002524175Y00004211193*
X00002316175Y00003899992*
X00002172995Y00003554196*
X00002099995Y00003187090*
Y00002812897*
X00002172995Y00002445791*
X00002316175Y00002099995*
X00002524175Y00001788795*
X00002788793Y00001524177*
X00003099993Y00001316177*
X00003445789Y00001172997*
X00003812895Y00001099997*
X00004187088*
X00004554194Y00001172997*
X00004899990Y00001316177*
X00005211191Y00001524177*
X00005475782Y00001788795*
X00005683783Y00002099995*
X00005826988Y00002445791*
X00005899988Y00002812897*
Y00003187090*
X00005826988Y00003554196*
X00005683783Y00003899992*
X00005475782Y00004211193*
X00005211191Y00004475784*
X00004899990Y00004683785*
X00004554194Y00004826990*
X00004187088Y00004899990*
G37*
G36*
X00028567481Y00001499997D02*
X00028368599D01*
X00028184779Y00001423898*
X00028044089Y00001283182*
X00027967990Y00001099489*
Y00000900480*
X00028044089Y00000716788*
X00028184779Y00000576097*
X00028368599Y00000499999*
X00028567481*
X00028751276Y00000576097*
X00028891890Y00000716788*
X00028967988Y00000900480*
Y00001099489*
X00028891890Y00001283182*
X00028751276Y00001423898*
X00028567481Y00001499997*
G37*
G36*
X00011967387D02*
X00011768480D01*
X00011584686Y00001423898*
X00011443995Y00001283182*
X00011367897Y00001099388*
Y00000900480*
X00011443995Y00000716788*
X00011584686Y00000576097*
X00011768480Y00000499999*
X00011967387*
X00012151182Y00000576097*
X00012291796Y00000716788*
X00012367895Y00000900480*
Y00001099388*
X00012291796Y00001283182*
X00012151182Y00001423898*
X00011967387Y00001499997*
G37*
G36*
X00034769577Y00001149985D02*
X00034630385D01*
X00034501683Y00001096695*
X00034403284Y00000998296*
X00034349994Y00000869594*
Y00000730377*
X00034403284Y00000601675*
X00034501683Y00000503275*
X00034630385Y00000449986*
X00034769577*
X00034898279Y00000503275*
X00034996678Y00000601675*
X00035049993Y00000730377*
Y00000869594*
X00034996678Y00000998296*
X00034898279Y00001096695*
X00034769577Y00001149985*
G37*
G36*
X00032869581D02*
X00032730389D01*
X00032601687Y00001096695*
X00032503287Y00000998296*
X00032449998Y00000869594*
Y00000730377*
X00032503287Y00000601675*
X00032601687Y00000503275*
X00032730389Y00000449986*
X00032869581*
X00032998283Y00000503275*
X00033096682Y00000601675*
X00033149997Y00000730377*
Y00000869594*
X00033096682Y00000998296*
X00032998283Y00001096695*
X00032869581Y00001149985*
G37*
G36*
X00138819585Y00005249976D02*
X00138680393D01*
X00138551691Y00005196687*
X00138453291Y00005098288*
X00138399977Y00004969586*
Y00004830394*
X00138453291Y00004701692*
X00138551691Y00004603292*
X00138680393Y00004549978*
X00138819585*
X00138948287Y00004603292*
X00139046686Y00004701692*
X00139099975Y00004830394*
Y00004969586*
X00139046686Y00005098288*
X00138948287Y00005196687*
X00138819585Y00005249976*
G37*
G36*
X00146567677Y00005499989D02*
X00146368795D01*
X00146184975Y00005423890*
X00146044386Y00005283200*
X00145968186Y00005099481*
Y00004900498*
X00146044386Y00004716780*
X00146184975Y00004576089*
X00146368795Y00004499991*
X00146567677*
X00146751497Y00004576089*
X00146892086Y00004716780*
X00146968184Y00004900498*
Y00005099481*
X00146892086Y00005283200*
X00146751497Y00005423890*
X00146567677Y00005499989*
G37*
G36*
X00141367687D02*
X00141168780D01*
X00140984986Y00005423890*
X00140844295Y00005283200*
X00140768197Y00005099481*
Y00004900498*
X00140844295Y00004716780*
X00140984986Y00004576089*
X00141168780Y00004499991*
X00141367687*
X00141551482Y00004576089*
X00141692096Y00004716780*
X00141768195Y00004900498*
Y00005099481*
X00141692096Y00005283200*
X00141551482Y00005423890*
X00141367687Y00005499989*
G37*
G36*
X00136553676D02*
X00136354794D01*
X00136170974Y00005423890*
X00136030385Y00005283200*
X00135954287Y00005099481*
Y00004900498*
X00136030385Y00004716780*
X00136170974Y00004576089*
X00136354794Y00004499991*
X00136553676*
X00136737496Y00004576089*
X00136878085Y00004716780*
X00136954285Y00004900498*
Y00005099481*
X00136878085Y00005283200*
X00136737496Y00005423890*
X00136553676Y00005499989*
G37*
G36*
X00098384690Y00003649980D02*
X00098265284D01*
X00098155099Y00003604285*
X00098070695Y00003519881*
X00098024975Y00003409696*
Y00003290290*
X00098070695Y00003180080*
X00098155099Y00003095675*
X00098265284Y00003049981*
X00098384690*
X00098494875Y00003095675*
X00098579279Y00003180080*
X00098624999Y00003290290*
Y00003409696*
X00098579279Y00003519881*
X00098494875Y00003604285*
X00098384690Y00003649980*
G37*
G36*
X00108059677Y00004349978D02*
X00107940297D01*
X00107830086Y00004304284*
X00107745682Y00004219879*
X00107699987Y00004109694*
Y00003990289*
X00107745682Y00003880078*
X00107830086Y00003795699*
X00107940297Y00003749979*
X00108059677*
X00108169887Y00003795699*
X00108224980Y00003850690*
X00108280098Y00003795699*
X00108390283Y00003749979*
X00108509689*
X00108619899Y00003795699*
X00108704278Y00003880078*
X00108749998Y00003990289*
Y00004109694*
X00108704278Y00004219879*
X00108619899Y00004304284*
X00108509689Y00004349978*
X00108390283*
X00108280098Y00004304284*
X00108224980Y00004249293*
X00108169887Y00004304284*
X00108059677Y00004349978*
G37*
G36*
X00106649977Y00003306876D02*
X00106199990D01*
X00106063389Y00003279698*
X00105947692Y00003202279*
X00105870298Y00003086582*
X00105843095Y00002949981*
X00105870298Y00002813380*
X00105947692Y00002697683*
X00106063389Y00002620289*
X00106199990Y00002593086*
X00106649977*
X00106786578Y00002620289*
X00106902275Y00002697683*
X00106979694Y00002813380*
X00107006898Y00002949981*
X00106979694Y00003086582*
X00106902275Y00003202279*
X00106786578Y00003279698*
X00106649977Y00003306876*
G37*
G36*
X00100569598Y00002999994D02*
X00100430380D01*
X00100301679Y00002946679*
X00100203279Y00002848279*
X00100149990Y00002719578*
Y00002580386*
X00100203279Y00002451684*
X00100301679Y00002353284*
X00100430380Y00002299995*
X00100569598*
X00100698300Y00002353284*
X00100796699Y00002451684*
X00100849988Y00002580386*
Y00002719578*
X00100796699Y00002848279*
X00100698300Y00002946679*
X00100569598Y00002999994*
G37*
G36*
X00104649676Y00002783789D02*
X00104530296D01*
X00104420085Y00002738094*
X00104335681Y00002653690*
X00104289987Y00002543378*
Y00002424099*
X00104335681Y00002313787*
X00104420085Y00002229383*
X00104530296Y00002183688*
X00104649676*
X00104759887Y00002229383*
X00104844291Y00002313787*
X00104889985Y00002424099*
Y00002543378*
X00104844291Y00002653690*
X00104759887Y00002738094*
X00104649676Y00002783789*
G37*
G36*
X00195311598Y00005649976D02*
X00195192192D01*
X00195081880Y00005604281*
X00194997476Y00005519877*
X00194951883Y00005409692*
Y00005290286*
X00194997476Y00005180076*
X00195081880Y00005095697*
X00195192192Y00005049977*
X00195311598*
X00195421783Y00005095697*
X00195506187Y00005180076*
X00195551882Y00005290286*
Y00005409692*
X00195506187Y00005519877*
X00195421783Y00005604281*
X00195311598Y00005649976*
G37*
G36*
X00193234386Y00005499989D02*
X00193035478D01*
X00192851684Y00005423890*
X00192710993Y00005283200*
X00192634895Y00005099481*
Y00004900498*
X00192710993Y00004716780*
X00192851684Y00004576089*
X00193035478Y00004499991*
X00193234386*
X00193418180Y00004576089*
X00193558795Y00004716780*
X00193634893Y00004900498*
Y00005099481*
X00193558795Y00005283200*
X00193418180Y00005423890*
X00193234386Y00005499989*
G37*
G36*
X00188034396D02*
X00187835489D01*
X00187651694Y00005423890*
X00187510978Y00005283200*
X00187434880Y00005099481*
Y00004900498*
X00187510978Y00004716780*
X00187651694Y00004576089*
X00187835489Y00004499991*
X00188034396*
X00188218191Y00004576089*
X00188358780Y00004716780*
X00188434878Y00004900498*
Y00005099481*
X00188358780Y00005283200*
X00188218191Y00005423890*
X00188034396Y00005499989*
G37*
G36*
X00202187098Y00004899990D02*
X00201812880D01*
X00201445799Y00004826990*
X00201099978Y00004683785*
X00200788778Y00004475784*
X00200524186Y00004211193*
X00200316185Y00003899992*
X00200172980Y00003554196*
X00200099980Y00003187090*
Y00002812897*
X00200172980Y00002445791*
X00200316185Y00002099995*
X00200524186Y00001788795*
X00200788778Y00001524177*
X00201099978Y00001316177*
X00201445799Y00001172997*
X00201812880Y00001099997*
X00202187098*
X00202554179Y00001172997*
X00202899975Y00001316177*
X00203211176Y00001524177*
X00203475793Y00001788795*
X00203683793Y00002099995*
X00203826999Y00002445791*
X00203899998Y00002812897*
Y00003187090*
X00203826999Y00003554196*
X00203683793Y00003899992*
X00203475793Y00004211193*
X00203211176Y00004475784*
X00202899975Y00004683785*
X00202554179Y00004826990*
X00202187098Y00004899990*
G37*
G36*
X00186709685Y00001149985D02*
X00186590279D01*
X00186480094Y00001104290*
X00186395690Y00001019886*
X00186349995Y00000909675*
Y00000790295*
X00186395690Y00000680085*
X00186480094Y00000595680*
X00186590279Y00000549986*
X00186709685*
X00186819895Y00000595680*
X00186904299Y00000680085*
X00186949994Y00000790295*
Y00000909675*
X00186904299Y00001019886*
X00186819895Y00001104290*
X00186709685Y00001149985*
G37*
G36*
X00175234295Y00001499997D02*
X00175035387D01*
X00174851695Y00001423898*
X00174710979Y00001283182*
X00174634880Y00001099388*
Y00000900480*
X00174710979Y00000716788*
X00174851695Y00000576097*
X00175035387Y00000499999*
X00175234295*
X00175418089Y00000576097*
X00175558780Y00000716788*
X00175634878Y00000900480*
Y00001099388*
X00175558780Y00001283182*
X00175418089Y00001423898*
X00175234295Y00001499997*
G37*
G36*
X00172669581Y00001099997D02*
X00172530389D01*
X00172401687Y00001046683*
X00172303287Y00000948283*
X00172249998Y00000819581*
Y00000680389*
X00172303287Y00000551688*
X00172401687Y00000453288*
X00172530389Y00000399999*
X00172669581*
X00172798282Y00000453288*
X00172896682Y00000551688*
X00172949997Y00000680389*
Y00000819581*
X00172896682Y00000948283*
X00172798282Y00001046683*
X00172669581Y00001099997*
G37*
G36*
X00170769584D02*
X00170630392D01*
X00170501691Y00001046683*
X00170403291Y00000948283*
X00170349976Y00000819581*
Y00000680389*
X00170403291Y00000551688*
X00170501691Y00000453288*
X00170630392Y00000399999*
X00170769584*
X00170898286Y00000453288*
X00170996686Y00000551688*
X00171049975Y00000680389*
Y00000819581*
X00170996686Y00000948283*
X00170898286Y00001046683*
X00170769584Y00001099997*
G37*
%LNwcam-tk-pcb-r02_copper_signal_bot-3*%
%LPD*%
G54D10*
X00103121891Y00003421888D02*
X00103529993Y00003013786D01*
G54D12*
X00116999994Y00001399997D02*
X00119849976D01*
X00120099988Y00001649984*
X00116499995Y00000899998D02*
X00116999994Y00001399997D01*
X00113549988Y00000899998D02*
X00116499995D01*
X00113399976Y00000399999D02*
X00122699983D01*
X00112449991Y00005249976D02*
X00116499995D01*
X00117349981Y00004399991*
X00109649996Y00004599990D02*
X00111799979D01*
X00112449991Y00005249976*
X00109599984Y00001549984D02*
X00110549994Y00002499995D01*
X00111949992*
X00113549988Y00000899998*
X00105349979Y00001499997D02*
X00105799991Y00001049985D01*
X00108149999*
X00108249999Y00001149985*
X00105499992Y00001799996D02*
X00105999991Y00001299997D01*
X00107749975D02*
X00107999987Y00001549984D01*
X00105999991Y00001299997D02*
X00107749975D01*
X00104082392Y00005299989D02*
X00104182392Y00005199989D01*
X00096399985Y00005299989D02*
X00104082392D01*
X00095899986Y00004799990D02*
X00096399985Y00005299989D01*
X00104182392Y00005199989D02*
X00104249982D01*
X00103749983Y00004949977D02*
X00103899995Y00004799990D01*
X00096599984Y00004949977D02*
X00103749983D01*
X00095999985Y00004349978D02*
X00096599984Y00004949977D01*
X00096299985Y00003999992D02*
X00096899984Y00004599990D01*
X00103449983*
X00103599996Y00004449978*
X00097504986Y00004249978D02*
X00102849984D01*
X00103121891Y00003421888D02*
Y00003978097D01*
X00102849984Y00004249978D02*
X00103121891Y00003978097D01*
X00097124977Y00003869994D02*
X00097504986Y00004249978D01*
X00097749995Y00000649986D02*
X00099699978D01*
X00088399975Y00000799998D02*
X00093899990D01*
X00097399983Y00000999998D02*
X00097749995Y00000649986D01*
X00093899990Y00000799998D02*
X00094099989Y00000999998D01*
X00097399983*
X00097649995Y00001449984D02*
X00098149994Y00000949985D01*
X00093949977Y00001449984D02*
X00097649995D01*
X00093649977Y00001149985D02*
X00093949977Y00001449984D01*
X00088199976Y00001149985D02*
X00093649977D01*
X00088849987Y00001549984D02*
X00093449978D01*
X00093799990Y00001899996*
X00097799982*
X00098399981Y00001299997*
X00099299979*
X00098499980Y00001799996D02*
X00105499992D01*
X00097949994Y00002349982D02*
X00098499980Y00001799996D01*
X00093799990Y00002349982D02*
X00097949994D01*
X00093399991Y00001949983D02*
X00093799990Y00002349982D01*
X00088999999Y00001949983D02*
X00093399991D01*
X00101199975Y00000599998D02*
X00104499994D01*
X00104702178Y00000802182*
X00100799976Y00000999998D02*
X00101199975Y00000599998D01*
X00099699978Y00000649986D02*
X00100049990Y00000999998D01*
X00099299979Y00001299997D02*
X00099499978Y00001499997D01*
X00105349979*
X00088049989Y00000449986D02*
X00088399975Y00000799998D01*
X00087267592Y00000549986D02*
X00087367694Y00000449986D01*
X00088049989*
X00087199978Y00000549986D02*
X00087267592D01*
X00098149994Y00000949985D02*
X00099449991D01*
X00087899976Y00000849985D02*
X00088199976Y00001149985D01*
X00087449990Y00000849985D02*
X00087899976D01*
X00087749989Y00002649982D02*
X00088849987Y00001549984D01*
X00085549994Y00002199995D02*
X00086677500D01*
X00084999982Y00002749981D02*
X00085549994Y00002199995D01*
X00086677500D02*
X00087599977Y00001277493D01*
X00080699991Y00002749981D02*
X00084999982D01*
X00085749993Y00002649982D02*
X00087749989D01*
X00129849981Y00005199989D02*
X00131399991Y00003649980D01*
X00126499975Y00005199989D02*
X00129849981D01*
X00126099976Y00005599988D02*
X00126499975Y00005199989D01*
X00106549977Y00005599988D02*
X00126099976D01*
X00193299994Y00002599994D02*
X00194649979Y00003949979D01*
X00182099991Y00003149981D02*
X00182649977Y00002599994D01*
X00193299994*
X00194249979Y00002149983D02*
X00194399992Y00001999996D01*
X00184899985Y00001149985D02*
X00185899983Y00002149983D01*
X00194249979*
X00170749976Y00002499995D02*
X00171249975Y00001999996D01*
X00168649980Y00002049983D02*
X00169099992Y00002499995D01*
X00170749976*
X00172099986Y00003249980D02*
X00172549997Y00002799994D01*
X00167349982Y00002449982D02*
X00168149981Y00003249980D01*
X00172099986*
X00167849981Y00003999992D02*
X00172399985D01*
X00167599995Y00003749979D02*
X00167849981Y00003999992D01*
X00172399985D02*
X00172899984Y00003499993D01*
X00171249975Y00001999996D02*
X00180799994D01*
X00168649980Y00001499997D02*
Y00002049983D01*
X00167549982Y00000399999D02*
X00168649980Y00001499997D01*
X00167399995Y00000799998D02*
X00168249981Y00001649984D01*
Y00002299995*
X00162999978Y00000799998D02*
X00167399995D01*
X00168249981Y00002299995D02*
X00168849979Y00002899994D01*
X00171849999*
X00172349998Y00002399995*
X00172549997Y00002799994D02*
X00181949979D01*
X00172749997Y00003149981D02*
X00182099991D01*
X00172299985Y00003599992D02*
X00172749997Y00003149981D01*
X00167019986Y00002669997D02*
X00167949981Y00003599992D01*
X00172299985*
X00167019986Y00002456484D02*
Y00002669997D01*
X00167199995Y00003749979D02*
X00167599995D01*
X00172899984Y00003499993D02*
X00182449978D01*
X00166949983Y00003999992D02*
X00167199995Y00003749979D01*
X00172699984Y00004349978D02*
X00173149996Y00003899992D01*
X00167999994Y00004349978D02*
X00172699984D01*
X00167424989Y00004924983D02*
X00167999994Y00004349978D01*
X00161074989Y00004924983D02*
X00167424989D01*
X00168449980Y00004699990D02*
X00172949997D01*
X00167849981Y00005299989D02*
X00168449980Y00004699990D01*
X00172949997D02*
X00173349996Y00004299991D01*
X00035849991Y00002049983D02*
X00037949987D01*
X00033299984D02*
X00034049995D01*
X00035499979Y00002399995D02*
X00035849991Y00002049983D01*
X00034399982Y00002399995D02*
X00035499979D01*
X00034049995Y00002049983D02*
X00034399982Y00002399995D01*
X00040749982Y00000949985D02*
X00044249975D01*
X00037949987Y00002049983D02*
X00038199999Y00002299995D01*
X00039399997D02*
X00040749982Y00000949985D01*
X00038199999Y00002299995D02*
X00039399997D01*
X00062049990Y00001949983D02*
X00063049988D01*
X00063449987Y00002349982D02*
X00072849994D01*
X00044249975Y00000949985D02*
X00044450000Y00001149985D01*
X00061249991*
X00039399997Y00003099993D02*
X00041099994Y00001399997D01*
X00043999988*
X00044199987Y00001599996D02*
X00060849992D01*
X00043999988Y00001399997D02*
X00044199987Y00001599996D01*
X00060849992D02*
X00061624997Y00002374976D01*
X00041219983Y00002099995D02*
X00041874389D01*
X00040569997Y00002749981D02*
X00041219983Y00002099995D01*
X00041874389D02*
X00042224375Y00002449982D01*
X00061249991Y00001149985D02*
X00062049990Y00001949983D01*
X00063049988D02*
X00063449987Y00002349982D01*
X00062524995Y00002374976D02*
X00062949988Y00002799994D01*
X00061624997Y00002374976D02*
X00062524995D01*
X00044149975Y00001999996D02*
X00060549993D01*
X00061949990Y00003399993*
X00033349996Y00003099993D02*
X00039399997D01*
X00042224375Y00002449982D02*
X00043699988D01*
X00044149975Y00001999996*
X00045369988Y00002749981D02*
X00045669987Y00002449982D01*
X00060349993*
X00061799978Y00003899992*
X00062649989*
X00073849992Y00004449978D02*
X00080349979D01*
X00062899975Y00003649980D02*
X00073049993D01*
X00062649989Y00003899992D02*
X00062899975Y00003649980D01*
X00073049993D02*
X00073849992Y00004449978D01*
X00074099978Y00004049979D02*
X00080149979D01*
X00061949990Y00003399993D02*
X00062499976D01*
X00062649989Y00003249980D02*
X00073299980D01*
X00062499976Y00003399993D02*
X00062649989Y00003249980D01*
X00073299980D02*
X00074099978Y00004049979D01*
X00062949988Y00002799994D02*
X00073099980D01*
X00074549990Y00001999996D02*
X00074749990Y00001799996D01*
X00073099980Y00002799994D02*
X00073899979Y00001999996D01*
X00074549990*
X00074199978Y00000999998D02*
X00074749990D01*
X00072849994Y00002349982D02*
X00074199978Y00000999998D01*
X00083899984Y00000777494D02*
X00086399979D01*
X00083627493Y00001049985D02*
X00083899984Y00000777494D01*
X00074749990Y00000999998D02*
X00075099976Y00000649986D01*
X00077449984*
X00077849984Y00001049985*
X00083627493*
X00196949999Y00004349978D02*
X00197120586Y00004520590D01*
X00197779386*
X00198149997Y00004149979*
X00162867594Y00000399999D02*
X00167549982D01*
X00140249986Y00004049979D02*
X00146949998D01*
X00131399991Y00003649980D02*
X00139849987D01*
X00140249986Y00004049979*
X00107999987Y00001549984D02*
X00109599984D01*
X00110099983Y00001399997D02*
X00112399978D01*
X00109849996Y00001149985D02*
X00110099983Y00001399997D01*
X00108249999Y00001149985D02*
X00109849996D01*
X00103599996Y00004449978D02*
X00106049978D01*
X00106749977Y00005149977*
X00103899995Y00004799990D02*
X00105749979D01*
X00106549977Y00005599988*
X00101249988Y00001249984D02*
X00101449987Y00001049985D01*
X00099449991Y00000949985D02*
X00099749991Y00001249984D01*
X00101249988*
X00100049990Y00000999998D02*
X00100799976D01*
X00109099985Y00005149977D02*
X00109649996Y00004599990D01*
X00089399999Y00005199989D02*
X00091749981D01*
X00086599979Y00001699996D02*
X00087449990Y00000849985D01*
X00087849989Y00003099993D02*
X00088999999Y00001949983D01*
X00096504988Y00003249980D02*
X00097124977Y00003869994D01*
X00086799978Y00004749977D02*
X00088299975Y00003249980D01*
X00096504988*
X00120099988Y00001649984D02*
X00120899986D01*
X00157549977Y00004049979D02*
X00158449975Y00003149981D01*
X00154149983Y00003849979D02*
X00154349983Y00004049979D01*
X00157549977*
X00148099983Y00005549976D02*
X00149349993D01*
X00147399984Y00004499991D02*
Y00004849977D01*
X00148099983Y00005549976*
X00146949998Y00004049979D02*
X00147399984Y00004499991D01*
X00150549991Y00004349978D02*
X00157849976D01*
X00149349993Y00005549976D02*
X00150549991Y00004349978D01*
X00157849976D02*
X00158649974Y00003549980D01*
X00150599978Y00003849979D02*
X00154149983D01*
X00148240191Y00005190185D02*
X00149259798D01*
X00150599978Y00003849979*
X00121749997Y00005249976D02*
X00124449992D01*
X00125449990Y00004249978D02*
X00126099976D01*
X00124449992Y00005249976D02*
X00125449990Y00004249978D01*
X00129624988Y00004874996D02*
X00130449980Y00004049979D01*
X00127949985D02*
X00128774977Y00004874996D01*
X00129624988*
X00127099999Y00004049979D02*
X00127949985D01*
X00126699975Y00004449978D02*
X00127099999Y00004049979D01*
X00126299976Y00004449978D02*
X00126699975D01*
X00126099976Y00004249978D02*
X00126299976Y00004449978D01*
X00125999976Y00002899994D02*
Y00003649980D01*
X00126224487Y00003874490*
X00126474499D02*
X00126499975Y00003899992D01*
X00126224487Y00003874490D02*
X00126474499D01*
X00125999976Y00002899994D02*
X00126349988Y00002549982D01*
X00091749981Y00005199989D02*
X00092149980Y00004799990D01*
X00095899986*
X00088299975Y00003999992D02*
X00092242182D01*
X00086669676Y00005149977D02*
X00087149990D01*
X00088299975Y00003999992*
X00087449990Y00005499989D02*
X00088599975Y00004349978D01*
X00095999985*
X00093305299Y00004002989D02*
X00093308297Y00003999992D01*
X00092245180Y00004002989D02*
X00093305299D01*
X00092242182Y00003999992D02*
X00092245180Y00004002989D01*
X00093308297Y00003999992D02*
X00096299985D01*
X00086299979Y00005499989D02*
X00087449990D01*
X00086199980Y00003099993D02*
X00087849989D01*
X00080599991Y00001449984D02*
X00083600290D01*
X00077699997Y00002549982D02*
X00079499993D01*
X00080599991Y00001449984*
X00080399991Y00002299995D02*
X00084099984D01*
X00079379978Y00003319983D02*
X00080399991Y00002299995D01*
X00076969975Y00003319983D02*
X00079379978D01*
X00074949989Y00003699992D02*
X00079749980D01*
X00080699991Y00002749981*
X00080999990Y00003199993D02*
X00084372475D01*
X00080149979Y00004049979D02*
X00080999990Y00003199993D01*
X00083749997Y00003699992D02*
X00084799982Y00004749977D01*
X00081099990Y00003699992D02*
X00083749997D01*
X00080349979Y00004449978D02*
X00081099990Y00003699992D01*
X00084372475Y00003199993D02*
X00084799982Y00003627475D01*
X00036099978Y00004249978D02*
X00036432490Y00004582490D01*
X00023699978Y00003749979D02*
X00024224996Y00004274997D01*
X00033099984Y00004249978D02*
X00036099978D01*
X00025649986Y00003849979D02*
X00032699985D01*
X00033099984Y00004249978*
X00025224994Y00004274997D02*
X00025649986Y00003849979D01*
X00024224996Y00004274997D02*
X00025224994D01*
X00037199976Y00003599992D02*
X00037749988Y00004149979D01*
Y00005149977*
X00033199984Y00003599992D02*
X00037199976D01*
X00032899985Y00003299993D02*
X00033199984Y00003599992D01*
X00024749988Y00003749979D02*
X00025199975Y00003299993D01*
X00032899985*
X00032999984Y00002749981D02*
X00033349996Y00003099993D01*
X00024699976Y00002749981D02*
X00032999984D01*
X00023699978Y00003749979D02*
X00024699976Y00002749981D01*
X00022430994Y00002249982D02*
X00033099984D01*
X00033299984Y00002049983*
X00076949985Y00001799996D02*
X00077699997Y00002549982D01*
X00074749990Y00001799996D02*
X00076949985D01*
X00075149989Y00002199995D02*
X00075849988D01*
X00076969975Y00003319983*
X00084672474Y00001277493D02*
X00085999980D01*
X00084249996Y00001699996D02*
X00084672474Y00001277493D01*
X00083600290Y00001449984D02*
X00083850276Y00001699996D01*
X00084249996*
X00074449990Y00003199993D02*
X00074949989Y00003699992D01*
X00084799982Y00004749977D02*
X00085199982D01*
X00013349884Y00003749979D02*
X00023699978D01*
X00022218091Y00002069998D02*
X00022250984D01*
X00022430994Y00002249982*
X00022299980Y00001299997D02*
X00022849992Y00001849983D01*
X00023949990*
X00024749988Y00001049985*
X00021749994Y00001299997D02*
X00022299980D01*
X00018449975D02*
X00021749994D01*
X00017899989Y00001849983D02*
X00018449975Y00001299997D01*
X00016365880Y00001849983D02*
X00017899989D01*
X00015565882Y00001049985D02*
X00016365880Y00001849983D01*
X00084699983Y00001699996D02*
X00086599979D01*
X00101449987Y00001049985D02*
X00102999997D01*
X00084099984Y00002299995D02*
X00084699983Y00001699996D01*
X00073849992Y00003199993D02*
X00074449990D01*
X00084799982Y00003599992D02*
X00085749993Y00002649982D01*
X00104702178Y00001002182D02*
X00104749981Y00001049985D01*
X00104702178Y00000802182D02*
Y00001002182D01*
X00084799982Y00003599992D02*
Y00003627475D01*
X00112399978Y00001399997D02*
X00113399976Y00000399999D01*
X00122699983D02*
X00123399981Y00001099997D01*
X00085199982Y00004749977D02*
X00085999980Y00003949979D01*
Y00003299993D02*
Y00003949979D01*
Y00003299993D02*
X00086199980Y00003099993D01*
X00125349990Y00000349986D02*
X00126049989D01*
X00124599979Y00001099997D02*
X00125349990Y00000349986D01*
X00123399981Y00001099997D02*
X00124599979D01*
X00130949979Y00000349986D02*
X00133499986D01*
X00126899974Y00001199997D02*
X00130099993D01*
X00126049989Y00000349986D02*
X00126899974Y00001199997D01*
X00130099993D02*
X00130949979Y00000349986D01*
X00136149994D02*
X00136799980D01*
X00135349996Y00001149985D02*
X00136149994Y00000349986D01*
X00133499986D02*
X00134299985Y00001149985D01*
X00135349996*
X00137649991Y00001199997D02*
X00140099999D01*
X00136799980Y00000349986D02*
X00137649991Y00001199997D01*
X00140099999D02*
X00140949984Y00000349986D01*
X00151149989*
X00155699993D02*
X00160649996D01*
X00155099994Y00000949985D02*
X00155699993Y00000349986D01*
X00151749988Y00000949985D02*
X00155099994D01*
X00151149989Y00000349986D02*
X00151749988Y00000949985D01*
X00086424998Y00004905298D02*
X00086669676Y00005149977D01*
X00085999980Y00004749977D02*
Y00005199989D01*
X00086299979Y00005499989*
X00086399979Y00003627475D02*
X00086424998Y00003652494D01*
Y00004905298*
X00106749977Y00005149977D02*
X00109099985D01*
X00130449980Y00003699992D02*
Y00004049979D01*
Y00003699992D02*
X00131099991Y00003049981D01*
X00132599988*
X00132849975Y00003299993*
X00140199999*
X00126349988Y00002549982D02*
X00132949975D01*
X00147849996Y00004799990D02*
X00148240191Y00005190185D01*
X00158649974Y00003549980D02*
X00159149999D01*
X00160899983Y00005299989*
X00167849981*
X00173349996Y00004299991D02*
X00175849991D01*
X00176199977Y00004649978*
X00177949987*
X00178349986Y00004249978*
X00187149994Y00004049979D02*
X00190134875D01*
X00181199993Y00004499991D02*
X00186699982D01*
X00187149994Y00004049979*
X00177121997Y00003899992D02*
X00177271984Y00004049979D01*
X00177334875*
X00173149996Y00003899992D02*
X00177121997D01*
X00182449978Y00003499993D02*
X00182949977Y00002999994D01*
X00159299986Y00003149981D02*
X00161074989Y00004924983D01*
X00158449975Y00003149981D02*
X00159299986D01*
X00147849996Y00004399991D02*
Y00004799990D01*
X00147049998Y00003599992D02*
X00147849996Y00004399991D01*
X00140499998Y00003599992D02*
X00147049998D01*
X00140199999Y00003299993D02*
X00140499998Y00003599992D01*
X00120899986Y00004399991D02*
X00121749997Y00005249976D01*
X00117349981Y00004399991D02*
X00120899986D01*
X00140599998Y00002899994D02*
X00140849985Y00003149981D01*
X00143599992*
X00133299987Y00002899994D02*
X00140599998D01*
X00132949975Y00002549982D02*
X00133299987Y00002899994D01*
X00143599992Y00003149981D02*
X00144199991Y00002549982D01*
X00146199987Y00001649984D02*
X00146699986D01*
X00147649996Y00000699998*
X00149599980*
X00166449984Y00003999992D02*
X00166949983D01*
X00144199991Y00002549982D02*
X00144799989D01*
X00145299988Y00003049981*
X00146919696*
X00147244689Y00002724988*
X00147016089Y00002599994D02*
X00147141082Y00002474976D01*
X00145599988Y00002599994D02*
X00147016089D01*
X00144949976Y00001949983D02*
X00145599988Y00002599994D01*
X00147037577Y00002224989D02*
X00147124978D01*
X00146962596Y00002299995D02*
X00147037577Y00002224989D01*
X00147124978D02*
X00147899983Y00001449984D01*
X00145899987Y00002299995D02*
X00146962596D01*
X00147374991Y00002474976D02*
X00147999983Y00001849983D01*
X00147141082Y00002474976D02*
X00147374991D01*
X00149199981Y00001849983D02*
X00149824998Y00002474976D01*
X00150155275Y00002724988D02*
X00150880292Y00003449980D01*
X00154599995*
X00147244689Y00002724988D02*
X00150155275D01*
X00149824998Y00002474976D02*
X00150258881D01*
X00150465993Y00001974977D02*
X00150490986Y00001999996D01*
X00150374985Y00001974977D02*
X00150465993D01*
X00150124998Y00002224989D02*
X00150362386D01*
X00150487380Y00002349982D02*
X00151349989D01*
X00149349993Y00001449984D02*
X00150124998Y00002224989D01*
X00150490986Y00001999996D02*
X00151499976D01*
X00150508893Y00002724988D02*
X00151124996D01*
X00150362386Y00002224989D02*
X00150487380Y00002349982D01*
X00149449993Y00001049985D02*
X00150374985Y00001974977D01*
X00150258881Y00002474976D02*
X00150508893Y00002724988D01*
X00154599995Y00003449980D02*
X00154899995Y00003749979D01*
X00157249977D02*
X00158249975Y00002749981D01*
X00154899995Y00003749979D02*
X00157249977D01*
X00156949978Y00003399993D02*
X00158049976Y00002299995D01*
X00154699995Y00003049981D02*
X00155049982Y00003399993D01*
X00156949978*
X00158249975Y00002749981D02*
X00159399986D01*
X00160649996Y00003999992*
X00161899981*
X00162899979Y00002999994*
X00165449986*
X00166449984Y00003999992*
X00163113085Y00002236876D02*
X00166800276D01*
X00160424977Y00003124987D02*
X00162224999D01*
X00163113085Y00002236876*
X00161999980Y00002849981D02*
X00163399978Y00001449984D01*
X00160649996Y00002849981D02*
X00161999980D01*
X00163399978Y00001449984D02*
X00164163984D01*
X00163200588Y00001099388D02*
X00165749376D01*
X00161799981Y00002499995D02*
X00163200588Y00001099388D01*
X00160899983Y00002499995D02*
X00161799981D01*
X00161049995Y00002149983D02*
X00161649994D01*
X00162999978Y00000799998*
X00161552483Y00001715185D02*
X00162867594Y00000399999D01*
X00165749986Y00001099997D02*
X00167199995D01*
X00167828087Y00001728089*
X00165749376Y00001099388D02*
X00165749986Y00001099997D01*
X00165649986Y00001449984D02*
X00166949983D01*
X00167349982Y00001849983D02*
Y00002449982D01*
X00166949983Y00001449984D02*
X00167349982Y00001849983D01*
X00166800276Y00002236876D02*
X00167019986Y00002456484D01*
X00165649376Y00001449374D02*
X00165649986Y00001449984D01*
X00164164695Y00001449374D02*
X00165649376D01*
X00164163984Y00001449984D02*
X00164164695Y00001449374D01*
X00167828087Y00001728089D02*
Y00002191893D01*
X00161149995Y00001715185D02*
X00161552483D01*
X00159599985Y00002299995D02*
X00160424977Y00003124987D01*
X00182949977Y00002999994D02*
X00184949998D01*
X00185599984Y00003649980*
X00186149996*
X00186749994Y00003049981*
X00192799995*
X00194099992Y00004349978*
X00196949999*
X00184249999Y00001149985D02*
X00184899985D01*
X00184049974Y00001349984D02*
Y00001949983D01*
Y00001349984D02*
X00184249999Y00001149985D01*
X00183849975Y00002149983D02*
X00184049974Y00001949983D01*
X00182599990Y00002149983D02*
X00183849975D01*
X00181949979Y00002799994D02*
X00182599990Y00002149983D01*
X00122470494Y00002049983D02*
X00133149975D01*
X00121920482Y00001499997D02*
X00122470494Y00002049983D01*
X00141049984Y00002749981D02*
X00143299992D01*
X00133599986Y00002499995D02*
X00140799997D01*
X00133149975Y00002049983D02*
X00133599986Y00002499995D01*
X00141499996Y00002399995D02*
X00142999993D01*
X00133999985Y00002099995D02*
X00141199997D01*
X00133399987Y00001499997D02*
X00133999985Y00002099995D01*
X00142999993Y00002399995D02*
X00143899991Y00001499997D01*
X00141199997Y00002099995D02*
X00141499996Y00002399995D01*
X00140799997Y00002499995D02*
X00141049984Y00002749981D01*
X00123349994Y00001649984D02*
X00131749977D01*
X00122649996Y00000949985D02*
X00123349994Y00001649984D01*
X00121599985Y00000949985D02*
X00122649996D01*
X00120899986Y00001649984D02*
X00121599985Y00000949985D01*
X00143299992Y00002749981D02*
X00144099991Y00001949983D01*
X00144949976*
X00147999983Y00001849983D02*
X00149199981D01*
X00151449989Y00003049981D02*
X00154699995D01*
X00151124996Y00002724988D02*
X00151449989Y00003049981D01*
X00147849996Y00003549980D02*
X00149299980D01*
X00158049976Y00002299995D02*
X00159599985D01*
X00154899995Y00002649982D02*
X00155299994Y00003049981D01*
X00156699991*
X00157849976Y00001899996*
X00132681675Y00001499997D02*
X00133399987D01*
X00134149998Y00001649984D02*
X00141249984D01*
X00133349999Y00000849985D02*
X00134149998Y00001649984D01*
X00132549976Y00000849985D02*
X00133349999D01*
X00131749977Y00001649984D02*
X00132549976Y00000849985D01*
X00143899991Y00001499997D02*
X00145099989D01*
X00145899987Y00002299995*
X00146050000Y00001949983D02*
X00146849998D01*
X00147749996Y00001049985*
X00145199989Y00001099997D02*
X00146050000Y00001949983D01*
X00147899983Y00001449984D02*
X00149349993D01*
X00151349989Y00002349982D02*
X00151649988Y00002649982D01*
X00154899995*
X00157849976Y00001899996D02*
X00159699985D01*
X00160649996Y00002849981*
X00156549979Y00002649982D02*
X00157699989Y00001499997D01*
X00155449981Y00002649982D02*
X00156549979D01*
X00155049982Y00002249982D02*
X00155449981Y00002649982D01*
X00195449977Y00001999996D02*
X00196999987Y00003549980D01*
X00194399992Y00001999996D02*
X00195449977D01*
X00159899985Y00001499997D02*
X00160899983Y00002499995D01*
X00157699989Y00001499997D02*
X00159899985D01*
X00151749988Y00002249982D02*
X00155049982D01*
X00151499976Y00001999996D02*
X00151749988Y00002249982D01*
X00147749996Y00001049985D02*
X00149449993D01*
X00143799991Y00001099997D02*
X00145199989D01*
X00142849981Y00002049983D02*
X00143799991Y00001099997D01*
X00141649983Y00002049983D02*
X00142849981D01*
X00141249984Y00001649984D02*
X00141649983Y00002049983D01*
X00145299988Y00000749985D02*
X00146199987Y00001649984D01*
X00156399992Y00002299995D02*
X00157549977Y00001149985D01*
X00155599993Y00002299995D02*
X00156399992D01*
X00151849988Y00001899996D02*
X00155199994D01*
X00151599976Y00001649984D02*
X00151849988Y00001899996D01*
X00155199994D02*
X00155599993Y00002299995D01*
X00157549977Y00001149985D02*
X00160049997D01*
X00161049995Y00002149983*
X00160234782Y00000799998D02*
X00161149995Y00001715185D01*
X00157299990Y00000799998D02*
X00160234782D01*
X00155749980Y00001899996D02*
X00156199992D01*
X00157299990Y00000799998*
X00152299974Y00001499997D02*
X00155349981D01*
X00155749980Y00001899996*
X00149599980Y00000699998D02*
X00150549991Y00001649984D01*
X00143449979Y00000749985D02*
X00145299988D01*
X00142699994Y00001499997D02*
X00143449979Y00000749985D01*
X00172349998Y00002399995D02*
X00181399992D01*
X00181724477Y00002075484*
X00150549991Y00001649984D02*
X00151599976D01*
X00197499986Y00001899996D02*
X00198149997Y00002549982D01*
Y00004149979*
X00149749992Y00003099993D02*
X00149999979D01*
X00149299980Y00003549980D02*
X00149749992Y00003099993D01*
X00147399984D02*
X00147849996Y00003549980D01*
X00160649996Y00000349986D02*
X00161499981Y00001199997D01*
X00129999994Y00003399993D02*
Y00003949979D01*
X00129549982Y00004399991D02*
X00129999994Y00003949979D01*
X00126499975Y00003399993D02*
X00129999994D01*
X00149149993Y00004299991D02*
X00149999979Y00003449980D01*
Y00003099993D02*
Y00003449980D01*
X00149149993Y00004299991D02*
Y00004749977D01*
X00178349986Y00004249978D02*
X00180949981D01*
X00181199993Y00004499991*
X00181974490Y00002075484D02*
X00181999991Y00002049983D01*
X00181724477Y00002075484D02*
X00181974490D01*
X00181849979Y00001399997D02*
X00182149978Y00001099997D01*
X00181399992Y00001399997D02*
X00181849979D01*
X00180799994Y00001999996D02*
X00181399992Y00001399997D01*
X00182149978Y00001099997D02*
X00183115585D01*
X00183576188Y00001560499*
X00180649981Y00001649984D02*
X00181249980Y00001049985D01*
X00181649979D02*
X00181949979Y00000749985D01*
X00181249980Y00001049985D02*
X00181649979D01*
X00179899995Y00001649984D02*
X00180649981D01*
X00179299997Y00001049985D02*
X00179899995Y00001649984D01*
X00181949979Y00000749985D02*
X00185249997D01*
X00194349979Y00001649984D02*
X00194899991Y00001099997D01*
X00192749982Y00001649984D02*
X00194349979D01*
X00192149984Y00001049985D02*
X00192749982Y00001649984D01*
X00191665885Y00001049985D02*
X00192149984D01*
X00186149996Y00001649984D02*
X00190449987D01*
X00191049986Y00001049985D02*
X00191665885D01*
X00190449987Y00001649984D02*
X00191049986Y00001049985D01*
X00185249997Y00000749985D02*
X00186149996Y00001649984D01*
X00178865885Y00001049985D02*
X00179299997D01*
G54D13*
X00036559998Y00004709998D02*
Y00005149977D01*
X00036432490Y00004582490D02*
X00036559998Y00004709998D01*
X00162363099Y00004507382D02*
X00162405695Y00004549978D01*
X00162799979*
X00162149993Y00004449978D02*
X00162207397Y00004507382D01*
X00162363099*
G54D34*
X00100499976Y00002649982D03*
X00121920482Y00001499997D03*
X00127649986Y00004599990D03*
X00185899983Y00003149981D03*
Y00005049977D03*
X00148574988Y00003549980D03*
X00142699994Y00001499997D03*
X00138749989Y00004899990D03*
X00170699988Y00000749985D03*
X00172599985D03*
X00128249984Y00003399993D03*
X00075849988Y00001344980D03*
Y00002944977D03*
X00162149993Y00004449978D03*
X00110249995Y00005149977D03*
Y00003549980D03*
X00161499981D03*
X00036559998Y00005149977D03*
X00033749996Y00001549984D03*
Y00002549982D03*
X00032799985Y00000799998D03*
X00034699981D03*
X00045369988Y00002749981D03*
X00040569997D03*
X00103549983Y00001049985D03*
X00110249995Y00000849985D03*
G54D75*
X00110249995Y00003549980D02*
Y00004149979D01*
G54D76*
X00011867896Y00000999998D03*
X00017067885D03*
Y00004999990D03*
X00011867896D03*
X00023267974D03*
X00028467989D03*
Y00000999998D03*
X00023267974D03*
X00120488786D03*
X00125688775D03*
Y00004999990D03*
X00120488786D03*
X00131254296D03*
X00136454286D03*
Y00000999998D03*
X00131254296D03*
X00141268196D03*
X00146468185D03*
Y00004999990D03*
X00141268196D03*
X00150868278D03*
X00156068293D03*
Y00000999998D03*
X00150868278D03*
X00175134879D03*
X00180334894D03*
Y00004999990D03*
X00175134879D03*
X00187934879D03*
X00193134894D03*
Y00000999998D03*
X00187934879D03*
G54D77*
X00201999977Y00002999994D03*
X00114499999D03*
X00003999992D03*
G54D78*
X00117349981Y00000999998D03*
Y00004999990D03*
X00111649992D03*
Y00001999996D03*
X00192170989Y00005449976D03*
X00188898885D03*
X00160899983Y00003549980D03*
X00150049992Y00005449976D03*
X00080749978Y00000499999D03*
X00081749976D03*
X00082749999D03*
X00074499978Y00005249976D03*
X00076749986D03*
X00029431996Y00000549986D03*
X00027504085D03*
X00022304095D03*
X00024231981D03*
X00176098784Y00005449976D03*
X00179370888D03*
X00157613985D03*
X00048399979Y00003599992D03*
X00049899976D03*
X00051399998D03*
X00052899995D03*
X00054399992D03*
X00055899989D03*
X00057399986D03*
X00058899983D03*
X00060399980D03*
X00185899983Y00005049977D03*
Y00003149981D03*
X00172599985Y00000749985D03*
X00170699988D03*
X00094999987Y00000449986D03*
X00095799986D03*
X00124492994Y00000549986D03*
X00135258479D03*
X00140072491D03*
X00152413995D03*
X00154522474D03*
X00168998900D03*
X00179370888D03*
X00176098784D03*
X00132218176Y00005449976D03*
X00145504281D03*
X00139722479D03*
X00137999978D03*
X00129549982Y00000699998D03*
X00110249995Y00004149979D03*
X00104589986Y00004023690D03*
X00104249982Y00005199989D03*
X00001149985Y00004999990D03*
Y00003999992D03*
Y00002999994D03*
Y00001999996D03*
Y00000999998D03*
X00006849999D03*
Y00001999996D03*
Y00002999994D03*
Y00003999992D03*
Y00004999990D03*
X00117349981Y00001999996D03*
Y00002999994D03*
Y00003999992D03*
X00111649992Y00000999998D03*
Y00002999994D03*
Y00003999992D03*
X00204849984Y00004999990D03*
Y00003999992D03*
Y00002999994D03*
Y00001999996D03*
Y00000999998D03*
X00199149995D03*
Y00001999996D03*
Y00002999994D03*
Y00003999992D03*
Y00004999990D03*
X00089399999Y00005199989D03*
X00110249995Y00000849985D03*
X00109899983Y00002599994D03*
X00108449999Y00000699998D03*
X00162799979Y00003999992D03*
X00126499975Y00003899992D03*
X00075149989Y00002199995D03*
X00073849992Y00003199993D03*
X00087599977Y00001277493D03*
X00102999997Y00001049985D03*
X00086799978Y00004749977D03*
X00085999980D03*
X00085199982D03*
X00084799982Y00003627475D03*
X00121920482Y00001499997D03*
X00132681675D03*
X00167828087Y00002191893D03*
X00152299974Y00001499997D03*
X00142699994D03*
X00161484792Y00001715185D03*
X00161499981Y00001199997D03*
Y00003549980D03*
X00126499975Y00003399993D03*
X00129999994D03*
X00147399984Y00003099993D03*
X00149999979D03*
X00190134875Y00004049979D03*
X00177334875D03*
X00013349884Y00003749979D03*
X00024749988D03*
X00032799985Y00000799998D03*
X00034699981D03*
X00022218091Y00002069998D03*
X00195251882Y00005349976D03*
Y00004849977D03*
X00194649979Y00003949979D03*
X00197499986Y00004049979D03*
X00196999987Y00003549980D03*
X00197499986D03*
Y00001899996D03*
X00196899987Y00001908098D03*
X00194641876Y00002449982D03*
X00183576188Y00001560499D03*
X00184599986Y00002099995D03*
Y00001560499D03*
X00181999991Y00002049983D03*
X00185699984Y00000449986D03*
X00186649995Y00000849985D03*
X00181427983Y00000610489D03*
X00185149998Y00004099991D03*
X00184150000D03*
X00181499992D03*
X00171649999Y00005099989D03*
Y00002499995D03*
Y00001499997D03*
X00163249991Y00003999992D03*
X00162799979Y00004549978D03*
X00163249991D03*
X00149149993Y00004749977D03*
X00148399982D03*
X00138749989Y00004899990D03*
X00129549982Y00004399991D03*
X00128849983D03*
X00127649986Y00004599990D03*
X00106199990Y00002949981D03*
X00106649977D03*
X00106199990Y00001699996D03*
X00106649977D03*
Y00000449986D03*
X00106199990D03*
X00107299988Y00004049979D03*
Y00004649978D03*
X00108449999Y00004049979D03*
X00107999987D03*
X00110249995Y00005149977D03*
X00107399988Y00001699996D03*
Y00002949981D03*
X00108449999Y00003199993D03*
Y00001949983D03*
X00085999980Y00001277493D03*
X00086399979Y00000777494D03*
Y00003627475D03*
X00084049997Y00001307490D03*
X00083488682Y00001868678D03*
Y00004158792D03*
X00084049997Y00004719980D03*
X00085599981Y00003627475D03*
X00093149978Y00003627983D03*
X00092399993Y00003627475D03*
X00093149978Y00002349982D03*
X00088799974Y00004749977D03*
X00089999997D03*
X00091199995D03*
X00089449986Y00002349982D03*
X00194899991Y00001099997D03*
X00191665885Y00001049985D03*
X00178865885D03*
X00021749994Y00001299997D03*
X00015565882Y00001049985D03*
X00024749988D03*
X00020679994Y00003249980D03*
X00033749996Y00001549984D03*
X00037749988Y00005149977D03*
X00036559998D03*
X00037139981D03*
X00038249987Y00004199991D03*
X00031949999Y00004799990D03*
X00035099980Y00005249976D03*
X00033749996D03*
Y00002549982D03*
X00035349992Y00000549986D03*
X00037699975Y00002449982D03*
Y00001099997D03*
X00036149991Y00002449982D03*
X00070099986Y00000913688D03*
X00062249989Y00005113680D03*
Y00003013786D03*
Y00000913688D03*
X00164294997Y00003411880D03*
X00167369998Y00004219981D03*
X00163294999Y00003411880D03*
Y00002611882D03*
X00166644980D03*
Y00003411880D03*
X00165619988Y00001824380D03*
X00164319991D03*
Y00004199382D03*
X00165619988D03*
X00043619978D03*
X00042319981D03*
Y00001824380D03*
X00043619978D03*
X00044644995Y00003411880D03*
Y00002611882D03*
X00041294989D03*
Y00003411880D03*
X00045369988Y00004219981D03*
Y00002749981D03*
X00040569997D03*
X00074499978Y00001449984D03*
Y00000599998D03*
X00078149983Y00002154986D03*
X00078949981D03*
X00078149983Y00000654989D03*
X00078949981D03*
X00075299976Y00002949981D03*
Y00001349984D03*
X00075849988Y00002944977D03*
Y00001344980D03*
X00078949981Y00001444980D03*
X00078149983D03*
X00078949981Y00002944977D03*
X00078149983D03*
X00076999998Y00002549982D03*
Y00001049985D03*
X00097124977Y00003869994D03*
X00097724976D03*
X00105249980Y00001049985D03*
X00104749981D03*
X00100499976Y00002649982D03*
X00098924999Y00003349980D03*
X00087199978Y00000549986D03*
X00089999997Y00002349982D03*
X00092399993D03*
X00091199995D03*
X00090599996D03*
X00091799994D03*
X00104249982Y00001049985D03*
X00103549983D03*
X00098929596Y00002245385D03*
X00103529993Y00003543782D03*
X00104589986Y00002483789D03*
Y00003013786D03*
X00103529993Y00004073779D03*
X00104059990Y00003013786D03*
X00103529993D03*
X00102999997D03*
X00102469975D03*
X00098924999Y00002749981D03*
X00098324974Y00003849979D03*
Y00003349980D03*
X00101939979Y00003013786D03*
X00098924999Y00003849979D03*
G54D79*
X00106199990Y00002949981D02*
X00106649977D01*
X00106199990Y00001699996D02*
X00106649977D01*
X00106199990Y00000449986D02*
X00106649977D01*
X00162799979Y00003999992D02*
X00163249991D01*
X00162799979Y00004549978D02*
X00163249991D01*
M02*