%FSDAX56Y56*%
%MOMM*%
%SFA1B1*%

%IPPOS*%
%ADD76C,0.699999*%
%ADD77C,3.399993*%
%ADD78C,0.399999*%
%LNwcam-tk-pcb-r02_copper_signal_3-1*%
%LPD*%
G36*
X00205749982Y00000199999D02*
X00186040191D01*
X00185973796Y00000326999*
X00185999983Y00000390296*
Y00000509676*
X00185954289Y00000619887*
X00185869884Y00000704291*
X00185759699Y00000749985*
X00185640294*
X00185530083Y00000704291*
X00185445679Y00000619887*
X00185399984Y00000509676*
Y00000390296*
X00185426197Y00000326999*
X00185359776Y00000199999*
X00179616481*
X00179572183Y00000326999*
X00179625193Y00000380085*
X00179670887Y00000490296*
Y00000609676*
X00179625193Y00000719886*
X00179540789Y00000804291*
X00179430578Y00000849985*
X00179311198*
X00179218996Y00000811784*
X00179209192Y00000818489*
X00179147292Y00000876985*
X00179129182Y00000901598*
X00179165885Y00000990295*
Y00001109675*
X00179120292Y00001219885*
X00179035887Y00001304290*
X00178925575Y00001349984*
X00178806297*
X00178695985Y00001304290*
X00178611580Y00001219885*
X00178565886Y00001109675*
Y00000990295*
X00178611580Y00000880084*
X00178695985Y00000795680*
X00178806297Y00000749985*
X00178925575*
X00179017879Y00000788187*
X00179027582Y00000781481*
X00179089481Y00000722985*
X00179107693Y00000698398*
X00179070889Y00000609676*
Y00000490296*
X00179116583Y00000380085*
X00179169593Y00000326999*
X00179125295Y00000199999*
X00176344376*
X00176300079Y00000326999*
X00176353190Y00000380085*
X00176398783Y00000490296*
Y00000609676*
X00176353190Y00000719886*
X00176268786Y00000804291*
X00176158499Y00000849985*
X00176039195*
X00175928883Y00000804291*
X00175844479Y00000719886*
X00175798784Y00000609676*
Y00000490296*
X00175844479Y00000380085*
X00175897590Y00000326999*
X00175853293Y00000199999*
X00169244391*
X00169200093Y00000326999*
X00169253179Y00000380085*
X00169298797Y00000490296*
Y00000609676*
X00169253179Y00000719886*
X00169168775Y00000804291*
X00169058488Y00000849985*
X00168939184*
X00168828897Y00000804291*
X00168744493Y00000719886*
X00168698875Y00000609676*
Y00000490296*
X00168744493Y00000380085*
X00168797579Y00000326999*
X00168753282Y00000199999*
X00154768092*
X00154723795Y00000326999*
X00154776881Y00000380085*
X00154822499Y00000490296*
Y00000609676*
X00154776881Y00000719886*
X00154692477Y00000804291*
X00154582190Y00000849985*
X00154462784*
X00154352599Y00000804291*
X00154268195Y00000719886*
X00154222475Y00000609676*
Y00000490296*
X00154268195Y00000380085*
X00154321281Y00000326999*
X00154276983Y00000199999*
X00152659588*
X00152615290Y00000326999*
X00152668274Y00000380085*
X00152713994Y00000490296*
Y00000609676*
X00152668274Y00000719886*
X00152583896Y00000804291*
X00152473685Y00000849985*
X00152354280*
X00152244094Y00000804291*
X00152159690Y00000719886*
X00152113996Y00000609676*
Y00000490296*
X00152159690Y00000380085*
X00152212675Y00000326999*
X00152168377Y00000199999*
X00140318083*
X00140273786Y00000326999*
X00140326795Y00000380085*
X00140372490Y00000490296*
Y00000609676*
X00140326795Y00000719886*
X00140242391Y00000804291*
X00140132181Y00000849985*
X00140012775*
X00139902590Y00000804291*
X00139818186Y00000719886*
X00139772491Y00000609676*
Y00000490296*
X00139818186Y00000380085*
X00139871196Y00000326999*
X00139826898Y00000199999*
X00135504097*
X00135459774Y00000326999*
X00135512784Y00000380085*
X00135558479Y00000490296*
Y00000609676*
X00135512784Y00000719886*
X00135428482Y00000804291*
X00135318195Y00000849985*
X00135198891*
X00135088579Y00000804291*
X00135004175Y00000719886*
X00134958480Y00000609676*
Y00000490296*
X00135004175Y00000380085*
X00135057286Y00000326999*
X00135012988Y00000199999*
X00124738587*
X00124694289Y00000326999*
X00124747375Y00000380085*
X00124792994Y00000490296*
Y00000609676*
X00124747375Y00000719886*
X00124662996Y00000804291*
X00124552684Y00000849985*
X00124433279*
X00124323094Y00000804291*
X00124238689Y00000719886*
X00124192995Y00000609676*
Y00000490296*
X00124238689Y00000380085*
X00124291775Y00000326999*
X00124247478Y00000199999*
X00109368996*
X00109320380Y00000317296*
X00109822996Y00000819886*
X00109888197Y00000804697*
X00109956676Y00000774090*
X00109995690Y00000680085*
X00110080094Y00000595680*
X00110190280Y00000549986*
X00110309685*
X00110419896Y00000595680*
X00110504274Y00000680085*
X00110549994Y00000790295*
Y00000909675*
X00110504274Y00001019886*
X00110419896Y00001104290*
X00110325890Y00001143279*
X00110295283Y00001211783*
X00110280094Y00001276985*
X00110326474Y00001323492*
X00110358199Y00001399997*
Y00002599994*
X00110358275*
X00110326474Y00002676499*
X00110026475Y00002976499*
X00109949996Y00003008198*
X00108832675*
X00108747890Y00003135198*
X00108749998Y00003140278*
Y00003259683*
X00108704278Y00003369894*
X00108619899Y00003454298*
X00108509689Y00003499993*
X00108390283*
X00108280098Y00003454298*
X00108195694Y00003369894*
X00108149999Y00003259683*
Y00003140278*
X00108195694Y00003030093*
X00108146494Y00002899587*
X00107899987Y00002653080*
X00107713678Y00002839389*
X00107696279Y00002881376*
X00107699987Y00002890291*
Y00003009696*
X00107654293Y00003119882*
X00107569889Y00003204286*
X00107459678Y00003249980*
X00107340298*
X00107331383Y00003246297*
X00107289396Y00003263696*
X00106726482Y00003826484*
X00106649977Y00003858183*
X00104960496*
X00104889884Y00003963797*
X00104889985Y00003964076*
Y00004083380*
X00104844291Y00004193692*
X00104759887Y00004278096*
X00104649676Y00004323791*
X00104530296*
X00104420085Y00004278096*
X00104335681Y00004193692*
X00104289987Y00004083380*
Y00003964076*
X00104290088Y00003963797*
X00104219476Y00003858183*
X00103902891*
X00103817978Y00003985183*
X00103829993Y00004014089*
Y00004133392*
X00103784298Y00004243679*
X00103699894Y00004328083*
X00103589683Y00004373778*
X00103470278*
X00103360093Y00004328083*
X00103275688Y00004243679*
X00103229994Y00004133392*
Y00004014089*
X00103241881Y00003985183*
X00103157096Y00003858183*
X00102644778*
X00102326490Y00004176496*
X00102249986Y00004208195*
X00098699980*
X00098623475Y00004176496*
X00098617278Y00004161586*
X00098563988Y00004136694*
X00098477298Y00004113580*
X00098470694Y00004114393*
X00098384690Y00004149979*
X00098265284*
X00098155099Y00004104284*
X00098109074Y00004058386*
X00098009379Y00004044188*
X00097952585Y00004066692*
X00097894876Y00004124299*
X00097784691Y00004169994*
X00097665286*
X00097555075Y00004124299*
X00097503284Y00004072483*
X00097424976Y00004051884*
X00097346693Y00004072483*
X00097294877Y00004124299*
X00097184692Y00004169994*
X00097065287*
X00096955076Y00004124299*
X00096870697Y00004039895*
X00096824977Y00003929684*
Y00003810279*
X00096870697Y00003700094*
X00096955076Y00003615690*
X00097065287Y00003569995*
X00097184692*
X00097294877Y00003615690*
X00097346693Y00003667379*
X00097424976Y00003687978*
X00097503284Y00003667379*
X00097555075Y00003615690*
X00097665286Y00003569995*
X00097699499Y00003518789*
X00097691778Y00003499993*
Y00001944776*
X00097305190Y00001558188*
X00087956694*
X00087945899Y00001553794*
X00087934292Y00001555877*
X00087908790Y00001538376*
X00087880088Y00001526489*
X00087758295Y00001536598*
X00087659692Y00001577492*
X00087540287*
X00087441684Y00001536598*
X00087319891Y00001526489*
X00087291189Y00001538376*
X00087265586Y00001555877*
X00087254080Y00001553794*
X00087243285Y00001558188*
X00086356698*
X00086345877Y00001553794*
X00086334396Y00001555877*
X00086308793Y00001538376*
X00086280091Y00001526489*
X00086158298Y00001536598*
X00086059695Y00001577492*
X00085940290*
X00085841687Y00001536598*
X00085719894Y00001526489*
X00085691192Y00001538376*
X00085665589Y00001555877*
X00085654083Y00001553794*
X00085643288Y00001558188*
X00084426679*
X00084420583Y00001555699*
X00084414283Y00001557477*
X00084383092Y00001540179*
X00084350199Y00001526489*
X00084272094Y00001542796*
X00084219897Y00001561795*
X00084109687Y00001607489*
X00083990281*
X00083880096Y00001561795*
X00083827899Y00001542796*
X00083811491Y00001539392*
X00083716495Y00001645793*
X00083716393Y00001665376*
X00083719797Y00001675587*
X00083743088Y00001698777*
X00083788681Y00001809089*
Y00001928393*
X00083743088Y00002038680*
X00083658684Y00002123084*
X00083548397Y00002168779*
X00083429094*
X00083318781Y00002123084*
X00083234377Y00002038680*
X00083188784Y00001928393*
Y00001809089*
X00083234377Y00001698777*
X00083247992Y00001685188*
X00083195388Y00001558188*
X00080494784*
X00080076497Y00001976475*
X00079999992Y00002008174*
X00079308198*
X00079249981Y00002095296*
Y00002214676*
X00079204286Y00002324887*
X00079119882Y00002409291*
X00079009697Y00002454986*
X00078890291*
X00078780081Y00002409291*
X00078695677Y00002324887*
X00078649982Y00002214676*
Y00002095296*
X00078619578Y00002049780*
X00078558085*
X00078449982Y00002164181*
Y00002214676*
X00078404288Y00002324887*
X00078319884Y00002409291*
X00078209698Y00002454986*
X00078090293*
X00077980082Y00002409291*
X00077895678Y00002324887*
X00077849984Y00002214676*
Y00002095296*
X00077791792Y00002008174*
X00077349985*
X00077273480Y00001976475*
X00076808380Y00001511477*
X00076798195Y00001486890*
X00076781380Y00001466392*
X00076782980Y00001450086*
X00076776681Y00001434896*
X00076786892Y00001410385*
X00076789483Y00001383893*
X00076830783Y00001306499*
X00076830097Y00001304290*
X00076745693Y00001219885*
X00076743483Y00001219098*
X00076666090Y00001260475*
X00076639597Y00001263091*
X00076615086Y00001273276*
X00076599897Y00001266977*
X00076583590Y00001268577*
X00076563093Y00001251788*
X00076538480Y00001241577*
X00076405181Y00001108176*
X00075294794*
X00075258396Y00001144676*
X00075248185Y00001148892*
X00075241988Y00001158087*
X00075161775Y00001211783*
X00075108079Y00001291996*
X00075098884Y00001298194*
X00075094693Y00001308379*
X00074676482Y00001726488*
X00074599977Y00001758188*
X00074249991*
X00074173486Y00001726488*
X00074173384*
X00074073486Y00001626489*
X00074041787Y00001549984*
Y00000796188*
X00074051896Y00000771575*
X00074054487Y00000745083*
X00074067187Y00000734695*
X00074073486Y00000719582*
X00074085297Y00000714679*
X00074100486Y00000707390*
X00074118597Y00000692581*
X00074153496Y00000681990*
X00074199978Y00000659688*
Y00000540283*
X00074245698Y00000430098*
X00074330077Y00000345694*
X00074375086Y00000326999*
X00074349889Y00000199999*
X00035595585*
X00035551287Y00000326999*
X00035604297Y00000380085*
X00035649992Y00000490296*
Y00000609676*
X00035604297Y00000719886*
X00035519893Y00000804291*
X00035409682Y00000849985*
X00035290277*
X00035180092Y00000804291*
X00035126980Y00000751281*
X00034999980Y00000795578*
Y00000859688*
X00034954286Y00000969899*
X00034869882Y00001054277*
X00034759696Y00001099997*
X00034640291*
X00034530080Y00001054277*
X00034445676Y00000969899*
X00034399982Y00000859688*
Y00000740283*
X00034445676Y00000630097*
X00034530080Y00000545693*
X00034640291Y00000499999*
X00034759696*
X00034869882Y00000545693*
X00034922993Y00000598678*
X00035049993Y00000554380*
Y00000490296*
X00035095688Y00000380085*
X00035148697Y00000326999*
X00035104374Y00000199999*
X00029677588*
X00029633291Y00000326999*
X00029686275Y00000380085*
X00029731995Y00000490296*
Y00000609676*
X00029686275Y00000719886*
X00029601896Y00000804291*
X00029491686Y00000849985*
X00029372280*
X00029262095Y00000804291*
X00029177691Y00000719886*
X00029131996Y00000609676*
Y00000490296*
X00029177691Y00000380085*
X00029230675Y00000326999*
X00029186378Y00000199999*
X00027749576*
X00027705278Y00000326999*
X00027758390Y00000380085*
X00027804084Y00000490296*
Y00000609676*
X00027758390Y00000719886*
X00027673985Y00000804291*
X00027563699Y00000849985*
X00027444395*
X00027334083Y00000804291*
X00027249678Y00000719886*
X00027204085Y00000609676*
Y00000490296*
X00027249678Y00000380085*
X00027302790Y00000326999*
X00027258492Y00000199999*
X00024477599*
X00024433276Y00000326999*
X00024486285Y00000380085*
X00024531980Y00000490296*
Y00000609676*
X00024489689Y00000711885*
X00024486285Y00000719886*
X00024580088Y00000795680*
X00024690298Y00000749985*
X00024809678*
X00024919889Y00000795680*
X00025004293Y00000880084*
X00025049988Y00000990295*
Y00001109675*
X00025004293Y00001219885*
X00024919889Y00001304290*
X00024809678Y00001349984*
X00024690298*
X00024580088Y00001304290*
X00024495683Y00001219885*
X00024449989Y00001109675*
Y00000990295*
X00024492280Y00000888085*
X00024495683Y00000880084*
X00024401881Y00000804291*
X00024291696Y00000849985*
X00024172291*
X00024062080Y00000804291*
X00023977676Y00000719886*
X00023931981Y00000609676*
Y00000490296*
X00023977676Y00000380085*
X00024030686Y00000326999*
X00023986388Y00000199999*
X00022549586*
X00022505289Y00000326999*
X00022558375Y00000380085*
X00022604095Y00000490296*
Y00000609676*
X00022558375Y00000719886*
X00022473996Y00000804291*
X00022363684Y00000849985*
X00022244380*
X00022134093Y00000804291*
X00022049689Y00000719886*
X00022004096Y00000609676*
Y00000490296*
X00022049689Y00000380085*
X00022102775Y00000326999*
X00022058477Y00000199999*
X00000249986*
Y00005799988*
X00033180985*
X00033229575Y00005682691*
X00033173492Y00005626481*
X00033141793Y00005549976*
Y00002599994*
X00033173492Y00002523490*
X00033423478Y00002273477*
X00033499983Y00002241778*
X00035199980*
X00035276485Y00002273477*
X00035276586*
X00037444781Y00004441799*
X00041972179*
X00042043096Y00004314799*
X00042019982Y00004258995*
Y00004139692*
X00042065676Y00004029379*
X00042150080Y00003945077*
X00042260291Y00003899382*
X00042379696*
X00042489882Y00003945077*
X00042574286Y00004029379*
X00042619980Y00004139692*
Y00004258995*
X00042596892Y00004314799*
X00042667783Y00004441799*
X00043272176*
X00043343093Y00004314799*
X00043319979Y00004258995*
Y00004139692*
X00043365699Y00004029379*
X00043450078Y00003945077*
X00043560288Y00003899382*
X00043679694*
X00043789879Y00003945077*
X00043874283Y00004029379*
X00043919978Y00004139692*
Y00004258995*
X00043896889Y00004314799*
X00043967781Y00004441799*
X00045001586*
X00045084492Y00004314799*
X00045069988Y00004279696*
Y00004160291*
X00045115683Y00004050080*
X00045200087Y00003965676*
X00045310298Y00003919982*
X00045429678*
X00045539888Y00003965676*
X00045624292Y00004050080*
X00045669987Y00004160291*
Y00004279696*
X00045655484Y00004314799*
X00045738389Y00004441799*
X00073355200*
X00075123497Y00002673477*
X00075199976Y00002641777*
X00075999975*
X00076076479Y00002673477*
X00078294788Y00004891786*
X00083658989*
X00083749997Y00004779695*
Y00004660290*
X00083795692Y00004550079*
X00083880096Y00004465675*
X00083990281Y00004419981*
X00084109687*
X00084219897Y00004465675*
X00084304276Y00004550079*
X00084349996Y00004660290*
Y00004779695*
X00084440979Y00004891786*
X00084845194*
X00084899982Y00004809693*
Y00004690287*
X00084945677Y00004580077*
X00085030081Y00004495698*
X00085140292Y00004449978*
X00085259697*
X00085369882Y00004495698*
X00085454286Y00004580077*
X00085499981Y00004690287*
Y00004809693*
X00085532188Y00004857877*
X00085592996*
X00085699981Y00004744288*
Y00004690287*
X00085745675Y00004580077*
X00085830079Y00004495698*
X00085940290Y00004449978*
X00086059695*
X00086169881Y00004495698*
X00086254285Y00004580077*
X00086299979Y00004690287*
Y00004809693*
X00086332288Y00004857877*
X00086392994*
X00086499979Y00004744288*
Y00004690287*
X00086545699Y00004580077*
X00086630078Y00004495698*
X00086740288Y00004449978*
X00086859694*
X00086969879Y00004495698*
X00087054283Y00004580077*
X00087099978Y00004690287*
Y00004809693*
X00087154791Y00004891786*
X00087405184*
X00088223496Y00004073499*
X00088299975Y00004041775*
X00091449982*
X00091526487Y00004073499*
X00092544798Y00005091785*
X00103455190*
X00103873477Y00004673498*
X00103949982Y00004641799*
X00106349977*
X00106426482Y00004673498*
X00106944795Y00005191785*
X00108855179*
X00109623479Y00004423486*
X00109699983Y00004391787*
X00109901583*
X00109972779Y00004264787*
X00109949996Y00004209694*
Y00004090289*
X00109995690Y00003980078*
X00110080094Y00003895699*
X00110190280Y00003849979*
X00110309685*
X00110419896Y00003895699*
X00110504274Y00003980078*
X00110549994Y00004090289*
Y00004209694*
X00110527185Y00004264787*
X00110598381Y00004391787*
X00111479990*
X00111505187Y00004264787*
X00111480092Y00004254296*
X00111395687Y00004169892*
X00111349993Y00004059682*
Y00003940276*
X00111395687Y00003830091*
X00111480092Y00003745687*
X00111590277Y00003699992*
X00111709682*
X00111819893Y00003745687*
X00111904297Y00003830091*
X00111949992Y00003940276*
Y00004059682*
X00111904297Y00004169892*
X00111819893Y00004254296*
X00111794696Y00004264787*
X00111819994Y00004391787*
X00112499978*
X00112576483Y00004423486*
X00113194795Y00005041798*
X00117049981*
Y00004940300*
X00117095676Y00004830089*
X00117180080Y00004745685*
X00117290291Y00004699990*
X00117409696*
X00117519881Y00004745685*
X00117604286Y00004830089*
X00117649980Y00004940300*
Y00005041798*
X00117905199*
X00118923485Y00004023487*
X00118999990Y00003991787*
X00126082679*
X00126158879Y00003970883*
X00126199976Y00003874998*
Y00003840276*
X00126245696Y00003730091*
X00126325680Y00003649980*
X00126245696Y00003569893*
X00126199976Y00003459683*
Y00003340277*
X00126245696Y00003230092*
X00126330075Y00003145688*
X00126440285Y00003099993*
X00126559691*
X00126669876Y00003145688*
X00126754280Y00003230092*
X00126799975Y00003340277*
Y00003459683*
X00126754280Y00003569893*
X00126674295Y00003649980*
X00126754280Y00003730091*
X00126799975Y00003840276*
Y00003959682*
X00126754280Y00004069892*
X00126669876Y00004154297*
X00126575896Y00004193285*
X00126545289Y00004261789*
X00126530100Y00004326991*
X00127094792Y00004891786*
X00127337896*
X00127395681Y00004769891*
X00127349986Y00004659680*
Y00004540275*
X00127395681Y00004430090*
X00127480085Y00004345686*
X00127590296Y00004299991*
X00127709676*
X00127819886Y00004345686*
X00127904290Y00004430090*
X00127949985Y00004540275*
Y00004659680*
X00127904290Y00004769891*
X00127962075Y00004891786*
X00129605176*
X00129694686Y00004802276*
X00129622677Y00004694580*
X00129609697Y00004699990*
X00129490292*
X00129380081Y00004654296*
X00129295677Y00004569891*
X00129267280Y00004501489*
X00129132685*
X00129104288Y00004569891*
X00129019884Y00004654296*
X00128909699Y00004699990*
X00128790293*
X00128680083Y00004654296*
X00128595678Y00004569891*
X00128549984Y00004459681*
Y00004340275*
X00128595678Y00004230090*
X00128680083Y00004145686*
X00128790293Y00004099991*
X00128909699*
X00129019884Y00004145686*
X00129104288Y00004230090*
X00129132685Y00004298492*
X00129267280*
X00129295677Y00004230090*
X00129380081Y00004145686*
X00129490292Y00004099991*
X00129609697*
X00129719882Y00004145686*
X00129804287Y00004230090*
X00129849981Y00004340275*
Y00004459681*
X00129844596Y00004472686*
X00129952292Y00004544695*
X00130523488Y00003973499*
X00130599992Y00003941775*
X00132699988*
X00132776493Y00003973499*
X00133244793Y00004441799*
X00135005191*
X00135423478Y00004023487*
X00135499983Y00003991787*
X00161388577*
X00161404884Y00003967276*
X00161354389Y00003814394*
X00161330081Y00003804285*
X00161278290Y00003752494*
X00161199982Y00003731996*
X00161121699Y00003752494*
X00161069883Y00003804285*
X00160959698Y00003849979*
X00160840293*
X00160730082Y00003804285*
X00160645678Y00003719880*
X00160599983Y00003609695*
Y00003490290*
X00160645678Y00003380079*
X00160730082Y00003295675*
X00160840293Y00003249980*
X00160959698*
X00161069883Y00003295675*
X00161121699Y00003347491*
X00161199982Y00003368090*
X00161278290Y00003347491*
X00161330081Y00003295675*
X00161440291Y00003249980*
X00161559697*
X00161669882Y00003295675*
X00161754286Y00003380079*
X00161799981Y00003490290*
Y00003545687*
X00161893097Y00003635095*
X00161917278Y00003641775*
X00162934675*
X00163012882Y00003514775*
X00162994975Y00003471494*
Y00003352190*
X00163040695Y00003241878*
X00163125099Y00003157575*
X00163235284Y00003111881*
X00163354689*
X00163464875Y00003157575*
X00163549279Y00003241878*
X00163594999Y00003352190*
Y00003471494*
X00163563782Y00003546779*
X00163572190Y00003630295*
X00163606886Y00003703777*
X00163954587Y00004051477*
X00164065686Y00004029379*
X00164150090Y00003945077*
X00164260276Y00003899382*
X00164379681*
X00164489892Y00003945077*
X00164574296Y00004029379*
X00164619990Y00004139692*
Y00004258995*
X00164617577Y00004264787*
X00164702490Y00004391787*
X00165237490*
X00165322377Y00004264787*
X00165319989Y00004258995*
Y00004139692*
X00165365684Y00004029379*
X00165450088Y00003945077*
X00165560298Y00003899382*
X00165679678*
X00165789889Y00003945077*
X00165874293Y00004029379*
X00165919988Y00004139692*
Y00004258995*
X00165917575Y00004264787*
X00166002487Y00004391787*
X00166978990*
X00167069998Y00004279696*
Y00004160291*
X00167115693Y00004050080*
X00167200097Y00003965676*
X00167310282Y00003919982*
X00167429688*
X00167539898Y00003965676*
X00167624277Y00004050080*
X00167669997Y00004160291*
Y00004279696*
X00167760980Y00004391787*
X00169105199*
X00171323482Y00002173478*
X00171399987Y00002141778*
X00179299997*
X00179376476Y00002173478*
X00180844799Y00003641775*
X00181254400*
X00181276980Y00003651097*
X00181301491Y00003652494*
X00181313785Y00003666388*
X00181330981Y00003673475*
X00181340277Y00003696081*
X00181356584Y00003714292*
X00181376497Y00003771392*
X00181440277Y00003799992*
X00181559682*
X00181623487Y00003771392*
X00181643375Y00003714292*
X00181659682Y00003696081*
X00181668978Y00003673475*
X00181686200Y00003666388*
X00181698493Y00003652494*
X00181722979Y00003651097*
X00181745585Y00003641775*
X00184549999*
X00184626478Y00003673475*
X00184806386Y00003853383*
X00184829577Y00003873296*
X00184960590Y00003865194*
X00184980097Y00003845687*
X00185090282Y00003799992*
X00185209688*
X00185319898Y00003845687*
X00185404277Y00003930091*
X00185449997Y00004040276*
Y00004159681*
X00185404277Y00004269892*
X00185319898Y00004354296*
X00185209688Y00004399991*
X00185090282*
X00184980097Y00004354296*
X00184858177Y00004412081*
Y00005549976*
X00184826478Y00005626481*
X00184770395Y00005682691*
X00184818985Y00005799988*
X00188653293*
X00188697590Y00005672988*
X00188644580Y00005619877*
X00188598886Y00005509691*
Y00005390286*
X00188644580Y00005280075*
X00188728985Y00005195697*
X00188839195Y00005149977*
X00188958575*
X00189068786Y00005195697*
X00189153190Y00005280075*
X00189198885Y00005390286*
Y00005509691*
X00189153190Y00005619877*
X00189100180Y00005672988*
X00189144478Y00005799988*
X00191925397*
X00191969694Y00005672988*
X00191916583Y00005619877*
X00191870990Y00005509691*
Y00005390286*
X00191916583Y00005280075*
X00192000987Y00005195697*
X00192111299Y00005149977*
X00192230578*
X00192340890Y00005195697*
X00192425294Y00005280075*
X00192470989Y00005390286*
Y00005509691*
X00192425294Y00005619877*
X00192372183Y00005672988*
X00192416480Y00005799988*
X00205749982*
Y00000199999*
G37*
G36*
X00184749998Y00005549976D02*
Y00003949979D01*
X00184549999Y00003749979*
X00181745585*
X00181701287Y00003876979*
X00181754297Y00003930091*
X00181799992Y00004040276*
Y00004159681*
X00181754297Y00004269892*
X00181669893Y00004354296*
X00181559682Y00004399991*
X00181440277*
X00181330092Y00004354296*
X00181245687Y00004269892*
X00181199993Y00004159681*
Y00004040276*
X00181245687Y00003930091*
X00181298697Y00003876979*
X00181254400Y00003749979*
X00180799994*
X00179299997Y00002249982*
X00171399987*
X00169149979Y00004499991*
X00167477998*
X00167429688Y00004519980*
X00167310282*
X00167262098Y00004499991*
X00164249989*
X00164241581Y00004491583*
X00164150090Y00004453686*
X00164065686Y00004369282*
X00164027789Y00004277791*
X00163499977Y00003749979*
X00161899981*
X00161549994Y00004099991*
X00135499983*
X00135049996Y00004549978*
X00133199987*
X00132699988Y00004049979*
X00130599992*
X00129649982Y00004999990*
X00127049987*
X00126149989Y00004099991*
X00118999990*
X00117949980Y00005149977*
X00117612591*
X00117604286Y00005169890*
X00117519881Y00005254294*
X00117409696Y00005299989*
X00117290291*
X00117180080Y00005254294*
X00117095676Y00005169890*
X00117087396Y00005149977*
X00113149989*
X00112499978Y00004499991*
X00109699983*
X00108899985Y00005299989*
X00106899989*
X00106349977Y00004749977*
X00103949982*
X00103499996Y00005199989*
X00092499992*
X00091449982Y00004149979*
X00088299975*
X00087449990Y00004999990*
X00086974299*
X00086969879Y00005004282*
X00086859694Y00005049977*
X00086740288*
X00086630078Y00005004282*
X00086625684Y00004999990*
X00086174275*
X00086169881Y00005004282*
X00086059695Y00005049977*
X00085940290*
X00085830079Y00005004282*
X00085825685Y00004999990*
X00085374276*
X00085369882Y00005004282*
X00085259697Y00005049977*
X00085140292*
X00085030081Y00005004282*
X00085025687Y00004999990*
X00084157997*
X00084109687Y00005019979*
X00083990281*
X00083941996Y00004999990*
X00078249983*
X00075999975Y00002749981*
X00075199976*
X00073399980Y00004549978*
X00037399976*
X00035199980Y00002349982*
X00033499983*
X00033249997Y00002599994*
Y00005549976*
X00033499983Y00005799988*
X00105196081*
Y00005599988*
X00105198087Y00005590082*
X00105197097Y00005579999*
X00105201897Y00005531180*
X00105210584Y00005502579*
X00105216375Y00005473192*
X00105253688Y00005383098*
X00105297986Y00005316880*
X00105366896Y00005247995*
X00105433088Y00005203698*
X00105523182Y00005166385*
X00105552595Y00005160594*
X00105581196Y00005151882*
X00105629989Y00005147081*
X00105649979Y00005148986*
X00105669994Y00005147081*
X00105718787Y00005151882*
X00105747388Y00005160594*
X00105776776Y00005166385*
X00105866895Y00005203698*
X00105933087Y00005247894*
Y00005247995*
X00106002099Y00005316880*
X00106046193Y00005383098*
X00106083582Y00005473192*
X00106089399Y00005502579*
X00106098086Y00005531180*
X00106102886Y00005579999*
X00106101896Y00005590082*
X00106103877Y00005599988*
Y00005799988*
X00131972685*
X00132016982Y00005672988*
X00131963896Y00005619877*
X00131918176Y00005509691*
Y00005390286*
X00131963896Y00005280075*
X00132048275Y00005195697*
X00132158587Y00005149977*
X00132277891*
X00132388178Y00005195697*
X00132472582Y00005280075*
X00132518175Y00005390286*
Y00005509691*
X00132472582Y00005619877*
X00132419496Y00005672988*
X00132463794Y00005799988*
X00137754385*
X00137798683Y00005672988*
X00137745698Y00005619877*
X00137699978Y00005509691*
Y00005390286*
X00137745698Y00005280075*
X00137830077Y00005195697*
X00137940288Y00005149977*
X00138059693*
X00138169878Y00005195697*
X00138254282Y00005280075*
X00138299977Y00005390286*
Y00005509691*
X00138254282Y00005619877*
X00138201298Y00005672988*
X00138245596Y00005799988*
X00139476886*
X00139521184Y00005672988*
X00139468199Y00005619877*
X00139422479Y00005509691*
Y00005390286*
X00139468199Y00005280075*
X00139552578Y00005195697*
X00139662789Y00005149977*
X00139782194*
X00139892379Y00005195697*
X00139976783Y00005280075*
X00140022478Y00005390286*
Y00005509691*
X00139976783Y00005619877*
X00139923799Y00005672988*
X00139968097Y00005799988*
X00145258688*
X00145302986Y00005672988*
X00145249900Y00005619877*
X00145204281Y00005509691*
Y00005390286*
X00145249900Y00005280075*
X00145334278Y00005195697*
X00145444591Y00005149977*
X00145563894*
X00145674181Y00005195697*
X00145758585Y00005280075*
X00145804280Y00005390286*
Y00005509691*
X00145758585Y00005619877*
X00145705499Y00005672988*
X00145749797Y00005799988*
X00149804399*
X00149848697Y00005672988*
X00149795687Y00005619877*
X00149749992Y00005509691*
Y00005390286*
X00149795687Y00005280075*
X00149880091Y00005195697*
X00149990276Y00005149977*
X00150109682*
X00150219892Y00005195697*
X00150304296Y00005280075*
X00150349991Y00005390286*
Y00005509691*
X00150304296Y00005619877*
X00150251287Y00005672988*
X00150295584Y00005799988*
X00157368392*
X00157412791Y00005672988*
X00157359680Y00005619877*
X00157313985Y00005509691*
Y00005390286*
X00157359680Y00005280075*
X00157444084Y00005195697*
X00157554295Y00005149977*
X00157673675*
X00157783885Y00005195697*
X00157868289Y00005280075*
X00157913984Y00005390286*
Y00005509691*
X00157868289Y00005619877*
X00157815280Y00005672988*
X00157859577Y00005799988*
X00175853293*
X00175897590Y00005672988*
X00175844479Y00005619877*
X00175798784Y00005509691*
Y00005390286*
X00175844479Y00005280075*
X00175928883Y00005195697*
X00176039195Y00005149977*
X00176158499*
X00176268786Y00005195697*
X00176353190Y00005280075*
X00176398783Y00005390286*
Y00005509691*
X00176353190Y00005619877*
X00176300079Y00005672988*
X00176344376Y00005799988*
X00179125397*
X00179169593Y00005672988*
X00179116583Y00005619877*
X00179070889Y00005509691*
Y00005390286*
X00179116583Y00005280075*
X00179200987Y00005195697*
X00179311198Y00005149977*
X00179430578*
X00179540789Y00005195697*
X00179625193Y00005280075*
X00179670887Y00005390286*
Y00005509691*
X00179625193Y00005619877*
X00179572183Y00005672988*
X00179616481Y00005799988*
X00184499986*
X00184749998Y00005549976*
G37*
G36*
X00098599980Y00003499993D02*
Y00002099995D01*
X00098749993Y00001949983*
X00098876789*
X00098929596Y00001939493*
X00098982479Y00001949983*
X00099251287*
X00099260583Y00001943785*
X00099271378Y00001945995*
X00099281691Y00001941779*
X00101399975*
X00101419888Y00001949983*
X00101499974*
X00101600000Y00002049983*
Y00002130094*
X00101608178Y00002149983*
Y00003205175*
X00101694792Y00003291789*
X00102105180*
X00102199998Y00003196894*
Y00003149676*
X00102187375Y00003130778*
X00102164083Y00003013786*
X00102187375Y00002896692*
X00102199998Y00002877896*
Y00002681478*
X00102193775Y00002672283*
X00102195985Y00002661386*
X00102191794Y00002651175*
Y00001849983*
X00102191693*
X00102199998Y00001830095*
Y00001799996*
X00102221284Y00001778685*
X00102223493Y00001773478*
X00102323493Y00001673479*
X00102328675Y00001671294*
X00102349985Y00001649984*
X00102380084*
X00102399998Y00001641779*
X00105305199*
X00105823486Y00001123492*
X00105828693Y00001121283*
X00105849978Y00001099997*
X00105880077*
X00105899991Y00001091793*
X00107449975*
X00107469889Y00001099997*
X00107499988*
X00107521298Y00001121283*
X00107526480Y00001123492*
X00107676391Y00001273276*
X00107678499Y00001278483*
X00107821476Y00001421485*
X00107826683Y00001423695*
X00107926479Y00001523492*
X00107928689Y00001528699*
X00107950000Y00001549984*
Y00001580083*
X00107958178Y00001599996*
Y00002549982*
X00107955791Y00002555798*
X00108299986Y00002899994*
X00108420484*
X00108449999Y00002894076*
X00108479488Y00002899994*
X00109949996*
X00110249995Y00002599994*
Y00001399997*
X00109099985Y00000249986*
X00100803887*
Y00000399999*
X00100801881Y00000409879*
X00100802897Y00000419989*
X00100798096Y00000468782*
X00100789384Y00000497382*
X00100783593Y00000526796*
X00100746280Y00000616889*
X00100746179*
X00100701983Y00000683082*
X00100633098Y00000751992*
X00100566880Y00000796188*
X00100476786Y00000833577*
X00100447398Y00000839393*
X00100418798Y00000848080*
X00100369979Y00000852881*
X00100349989Y00000850976*
X00100330000Y00000852881*
X00100281181Y00000848080*
X00100252580Y00000839393*
X00100223193Y00000833577*
X00100133099Y00000796290*
Y00000796188*
X00100066881Y00000751992*
X00099997895Y00000683082*
X00099953699Y00000616889*
X00099916386Y00000526796*
X00099910595Y00000497382*
X00099901883Y00000468782*
X00099897082Y00000419989*
X00099898098Y00000409879*
X00099896091Y00000399999*
Y00000249986*
X00096138288*
X00096085990Y00000349986*
X00096105878Y00000449986*
X00096082586Y00000566978*
X00096016292Y00000666292*
X00095917080Y00000732586*
X00095799986Y00000755878*
X00095682993Y00000732586*
X00095583679Y00000666292*
X00095517385Y00000566978*
X00095494094Y00000449986*
X00095513982Y00000349986*
X00095461683Y00000249986*
X00095338290*
X00095285991Y00000349986*
X00095305880Y00000449986*
X00095282588Y00000566978*
X00095216294Y00000666292*
X00095117081Y00000732586*
X00094999987Y00000755878*
X00094882893Y00000732586*
X00094783681Y00000666292*
X00094717387Y00000566978*
X00094694095Y00000449986*
X00094713983Y00000349986*
X00094661685Y00000249986*
X00087470996*
X00087445596Y00000288899*
X00087427181Y00000349986*
X00087482578Y00000432892*
X00087505895Y00000549986*
X00087482578Y00000667080*
X00087416284Y00000766292*
X00087316995Y00000832586*
X00087199978Y00000855878*
X00087082884Y00000832586*
X00086983697Y00000766292*
X00086917377Y00000667080*
X00086894085Y00000549986*
X00086917377Y00000432892*
X00086972775Y00000349986*
X00086954385Y00000288899*
X00086928985Y00000249986*
X00083063994*
X00083010578Y00000349986*
X00083032600Y00000382981*
X00083055891Y00000499999*
X00083032600Y00000616991*
X00082966280Y00000716280*
X00082867093Y00000782599*
X00082749999Y00000805891*
X00082632880Y00000782599*
X00082533693Y00000716280*
X00082467399Y00000616991*
X00082444082Y00000499999*
X00082467399Y00000382981*
X00082489395Y00000349986*
X00082435979Y00000249986*
X00082063996*
X00082010580Y00000349986*
X00082032576Y00000382981*
X00082055893Y00000499999*
X00082032576Y00000616991*
X00081966282Y00000716280*
X00081867095Y00000782599*
X00081749976Y00000805891*
X00081632882Y00000782599*
X00081533695Y00000716280*
X00081467375Y00000616991*
X00081444084Y00000499999*
X00081467375Y00000382981*
X00081489397Y00000349986*
X00081435981Y00000249986*
X00081063998*
X00081010582Y00000349986*
X00081032578Y00000382981*
X00081055895Y00000499999*
X00081032578Y00000616991*
X00080966284Y00000716280*
X00080867097Y00000782599*
X00080749978Y00000805891*
X00080632884Y00000782599*
X00080533697Y00000716280*
X00080467377Y00000616991*
X00080444086Y00000499999*
X00080467377Y00000382981*
X00080489399Y00000349986*
X00080435983Y00000249986*
X00074696193*
X00074665789Y00000349986*
X00074716284Y00000383692*
X00074782578Y00000482981*
X00074805895Y00000599998*
X00074782578Y00000717092*
X00074716284Y00000816279*
X00074617097Y00000882599*
X00074499978Y00000905891*
X00074382884Y00000882599*
X00074283697Y00000816279*
X00074249991Y00000765784*
X00074149991Y00000796188*
Y00001549984*
X00074249991Y00001649984*
X00074599977*
X00075018087Y00001231900*
X00075083695Y00001133678*
X00075181891Y00001068095*
X00075249989Y00000999998*
X00076449986*
X00076615086Y00001165098*
X00076707187Y00001115796*
X00076694080Y00001049985*
X00076717398Y00000932891*
X00076783692Y00000833678*
X00076882879Y00000767384*
X00076999998Y00000744093*
X00077117092Y00000767384*
X00077216279Y00000833678*
X00077282598Y00000932891*
X00077305890Y00001049985*
X00077282598Y00001167079*
X00077216279Y00001266291*
X00077117092Y00001332585*
X00076999998Y00001355877*
X00076934187Y00001342796*
X00076884885Y00001434896*
X00077349985Y00001899996*
X00077991690*
X00078032991Y00001872386*
X00078149983Y00001849094*
X00078267077Y00001872386*
X00078308377Y00001899996*
X00078791689*
X00078832989Y00001872386*
X00078949981Y00001849094*
X00079067075Y00001872386*
X00079108376Y00001899996*
X00079999992*
X00080449978Y00001449984*
X00083673289*
X00083752588Y00001349984*
X00083744079Y00001307490*
X00083767396Y00001190396*
X00083833690Y00001091184*
X00083932979Y00001024890*
X00084049997Y00001001598*
X00084167091Y00001024890*
X00084266278Y00001091184*
X00084332597Y00001190396*
X00084355889Y00001307490*
X00084347380Y00001349984*
X00084426679Y00001449984*
X00085643288*
X00085708490Y00001349984*
X00085694088Y00001277493*
X00085717380Y00001160399*
X00085783699Y00001061186*
X00085882886Y00000994892*
X00085999980Y00000971575*
X00086056089Y00000982776*
X00086117379Y00000894588*
X00086094087Y00000777494*
X00086117379Y00000660400*
X00086183698Y00000561187*
X00086282987Y00000494893*
X00086399979Y00000471576*
X00086517099Y00000494893*
X00086616286Y00000561187*
X00086682580Y00000660400*
X00086705897Y00000777494*
X00086682580Y00000894588*
X00086616286Y00000993775*
X00086517099Y00001060094*
X00086399979Y00001083386*
X00086343896Y00001072184*
X00086282580Y00001160399*
X00086305898Y00001277493*
X00086291496Y00001349984*
X00086356698Y00001449984*
X00087243285*
X00087308486Y00001349984*
X00087294085Y00001277493*
X00087317376Y00001160399*
X00087383696Y00001061186*
X00087482883Y00000994892*
X00087599977Y00000971575*
X00087716995Y00000994892*
X00087816283Y00001061186*
X00087882577Y00001160399*
X00087905894Y00001277493*
X00087891493Y00001349984*
X00087956694Y00001449984*
X00097349995*
X00097799982Y00001899996*
Y00003499993*
X00097899982Y00003599992*
X00098159189*
X00098207880Y00003567379*
X00098324974Y00003544087*
X00098441992Y00003567379*
X00098490786Y00003599992*
X00098499980*
X00098599980Y00003499993*
G37*
G36*
X00102249986Y00004099991D02*
X00102599998Y00003749979D01*
X00104466999*
X00104530296Y00003723792*
X00104649676*
X00104712998Y00003749979*
X00106649977*
X00107212892Y00003187090*
X00107145683Y00003119882*
X00107099989Y00003009696*
Y00002890291*
X00107145683Y00002780080*
X00107230087Y00002695676*
X00107340298Y00002649982*
X00107459678*
X00107569889Y00002695676*
X00107637097Y00002762885*
X00107849974Y00002549982*
Y00001599996*
X00107750178Y00001500174*
X00107665393Y00001556791*
X00107699987Y00001640281*
Y00001759686*
X00107654293Y00001869897*
X00107569889Y00001954276*
X00107459678Y00001999996*
X00107340298*
X00107230087Y00001954276*
X00107145683Y00001869897*
X00107099989Y00001759686*
Y00001640281*
X00107145683Y00001530096*
X00107230087Y00001445691*
X00107340298Y00001399997*
X00107459678*
X00107543193Y00001434592*
X00107599784Y00001349781*
X00107449975Y00001199997*
X00105899991*
X00105349979Y00001749983*
X00102399998*
X00102299998Y00001849983*
Y00002651175*
X00102399998Y00002717977*
X00102410285Y00002713685*
X00102529690*
X00102639876Y00002759379*
X00102669695Y00002789199*
X00102734999Y00002836087*
X00102800277Y00002789199*
X00102830096Y00002759379*
X00102940281Y00002713685*
X00103059687*
X00103169897Y00002759379*
X00103199692Y00002789199*
X00103264995Y00002836087*
X00103330298Y00002789199*
X00103360093Y00002759379*
X00103470278Y00002713685*
X00103589683*
X00103699894Y00002759379*
X00103729688Y00002789199*
X00103794991Y00002836087*
X00103860295Y00002789199*
X00103890089Y00002759379*
X00104000300Y00002713685*
X00104119680*
X00104229890Y00002759379*
X00104255087Y00002784576*
X00104270581Y00002784678*
X00104369082Y00002744698*
X00104379979Y00002703677*
X00104365399Y00002683383*
X00104335681Y00002653690*
X00104289987Y00002543378*
Y00002424099*
X00104335681Y00002313787*
X00104420085Y00002229383*
X00104530296Y00002183688*
X00104649676*
X00104759887Y00002229383*
X00104844291Y00002313787*
X00104889985Y00002424099*
Y00002543378*
X00104844291Y00002653690*
X00104814598Y00002683383*
X00104767583Y00002748686*
X00104814598Y00002814091*
X00104844291Y00002843784*
X00104889985Y00002954096*
Y00003073400*
X00104844291Y00003183686*
X00104759887Y00003268091*
X00104649676Y00003313785*
X00104530296*
X00104420085Y00003268091*
X00104390291Y00003238296*
X00104324988Y00003191383*
X00104259684Y00003238296*
X00104229890Y00003268091*
X00104119680Y00003313785*
X00104000300*
X00103890089Y00003268091*
X00103860295Y00003238296*
X00103794991Y00003191383*
X00103729688Y00003238296*
X00103699894Y00003268091*
X00103589683Y00003313785*
X00103470278*
X00103360093Y00003268091*
X00103330298Y00003238296*
X00103264995Y00003191383*
X00103199692Y00003238296*
X00103169897Y00003268091*
X00103059687Y00003313785*
X00102940281*
X00102830096Y00003268091*
X00102800277Y00003238296*
X00102734999Y00003191383*
X00102669695Y00003238296*
X00102639876Y00003268091*
X00102529690Y00003313785*
X00102410285*
X00102300074Y00003268091*
X00102290981Y00003258997*
X00102149986Y00003399993*
X00101649987*
X00101499974Y00003249980*
Y00002149983*
X00101399975Y00002049983*
X00099281691*
X00099214889Y00002149983*
X00099229595Y00002185695*
Y00002304999*
X00099183977Y00002415286*
X00099169982Y00002429281*
X00099169778Y00002570581*
X00099179278Y00002580081*
X00099224998Y00002690291*
Y00002809697*
X00099179278Y00002919882*
X00099106888Y00002992399*
X00099100182Y00003049981*
X00099106888Y00003107588*
X00099179278Y00003180080*
X00099224998Y00003290290*
Y00003409696*
X00099179278Y00003519881*
X00099094899Y00003604285*
X00098984689Y00003649980*
X00098865283*
X00098799980Y00003622878*
X00098699980Y00003679875*
Y00004099991*
X00102249986*
G37*
%LNwcam-tk-pcb-r02_copper_signal_3-2*%
%LPC*%
G36*
X00185959699Y00005349976D02*
X00185840293D01*
X00185730083Y00005304282*
X00185645679Y00005219877*
X00185599984Y00005109692*
Y00004990287*
X00185645679Y00004880076*
X00185730083Y00004795697*
X00185840293Y00004749977*
X00185959699*
X00186069884Y00004795697*
X00186154288Y00004880076*
X00186199983Y00004990287*
Y00005109692*
X00186154288Y00005219877*
X00186069884Y00005304282*
X00185959699Y00005349976*
G37*
G36*
X00204909699Y00005299989D02*
X00204790294D01*
X00204680083Y00005254294*
X00204595679Y00005169890*
X00204549984Y00005059680*
Y00004940300*
X00204595679Y00004830089*
X00204680083Y00004745685*
X00204790294Y00004699990*
X00204909699*
X00205019884Y00004745685*
X00205104288Y00004830089*
X00205149983Y00004940300*
Y00005059680*
X00205104288Y00005169890*
X00205019884Y00005254294*
X00204909699Y00005299989*
G37*
G36*
X00199209685D02*
X00199090280D01*
X00198980094Y00005254294*
X00198895690Y00005169890*
X00198849996Y00005059680*
Y00004940300*
X00198895690Y00004830089*
X00198980094Y00004745685*
X00199090280Y00004699990*
X00199209685*
X00199319896Y00004745685*
X00199404274Y00004830089*
X00199449994Y00004940300*
Y00005059680*
X00199404274Y00005169890*
X00199319896Y00005254294*
X00199209685Y00005299989*
G37*
G36*
X00006909689D02*
X00006790283D01*
X00006680098Y00005254294*
X00006595694Y00005169890*
X00006549999Y00005059680*
Y00004940300*
X00006595694Y00004830089*
X00006680098Y00004745685*
X00006790283Y00004699990*
X00006909689*
X00007019899Y00004745685*
X00007104278Y00004830089*
X00007149998Y00004940300*
Y00005059680*
X00007104278Y00005169890*
X00007019899Y00005254294*
X00006909689Y00005299989*
G37*
G36*
X00001209675D02*
X00001090295D01*
X00000980084Y00005254294*
X00000895680Y00005169890*
X00000849985Y00005059680*
Y00004940300*
X00000895680Y00004830089*
X00000980084Y00004745685*
X00001090295Y00004699990*
X00001209675*
X00001319885Y00004745685*
X00001404289Y00004830089*
X00001449984Y00004940300*
Y00005059680*
X00001404289Y00005169890*
X00001319885Y00005254294*
X00001209675Y00005299989*
G37*
G36*
X00195311598Y00005149977D02*
X00195192192D01*
X00195081880Y00005104282*
X00194997476Y00005019878*
X00194951883Y00004909693*
Y00004790287*
X00194997476Y00004680077*
X00195081880Y00004595698*
X00195192192Y00004549978*
X00195311598*
X00195421783Y00004595698*
X00195506187Y00004680077*
X00195551882Y00004790287*
Y00004909693*
X00195506187Y00005019878*
X00195421783Y00005104282*
X00195311598Y00005149977*
G37*
G36*
X00028567481Y00005499989D02*
X00028368599D01*
X00028184779Y00005423890*
X00028044089Y00005283200*
X00027967990Y00005099481*
Y00004900498*
X00028044089Y00004716780*
X00028184779Y00004576089*
X00028368599Y00004499991*
X00028567481*
X00028751276Y00004576089*
X00028891890Y00004716780*
X00028967988Y00004900498*
Y00005099481*
X00028891890Y00005283200*
X00028751276Y00005423890*
X00028567481Y00005499989*
G37*
G36*
X00023367492D02*
X00023168584D01*
X00022984790Y00005423890*
X00022844175Y00005283200*
X00022767975Y00005099481*
Y00004900498*
X00022844175Y00004716780*
X00022984790Y00004576089*
X00023168584Y00004499991*
X00023367492*
X00023551286Y00004576089*
X00023691875Y00004716780*
X00023767999Y00004900498*
Y00005099481*
X00023691875Y00005283200*
X00023551286Y00005423890*
X00023367492Y00005499989*
G37*
G36*
X00193234386D02*
X00193035478D01*
X00192851684Y00005423890*
X00192710993Y00005283200*
X00192634895Y00005099481*
Y00004900498*
X00192710993Y00004716780*
X00192851684Y00004576089*
X00193035478Y00004499991*
X00193234386*
X00193418180Y00004576089*
X00193558795Y00004716780*
X00193634893Y00004900498*
Y00005099481*
X00193558795Y00005283200*
X00193418180Y00005423890*
X00193234386Y00005499989*
G37*
G36*
X00188034396D02*
X00187835489D01*
X00187651694Y00005423890*
X00187510978Y00005283200*
X00187434880Y00005099481*
Y00004900498*
X00187510978Y00004716780*
X00187651694Y00004576089*
X00187835489Y00004499991*
X00188034396*
X00188218191Y00004576089*
X00188358780Y00004716780*
X00188434878Y00004900498*
Y00005099481*
X00188358780Y00005283200*
X00188218191Y00005423890*
X00188034396Y00005499989*
G37*
G36*
X00032009689Y00005099989D02*
X00031890284D01*
X00031780099Y00005054295*
X00031695694Y00004969891*
X00031649974Y00004859680*
Y00004740275*
X00031695694Y00004630089*
X00031780099Y00004545685*
X00031890284Y00004499991*
X00032009689*
X00032119874Y00004545685*
X00032204279Y00004630089*
X00032249999Y00004740275*
Y00004859680*
X00032204279Y00004969891*
X00032119874Y00005054295*
X00032009689Y00005099989*
G37*
G36*
X00017167377Y00005499989D02*
X00016968495D01*
X00016784675Y00005423890*
X00016644086Y00005283200*
X00016567886Y00005099481*
Y00004900498*
X00016644086Y00004716780*
X00016784675Y00004576089*
X00016968495Y00004499991*
X00017167377*
X00017351197Y00004576089*
X00017491786Y00004716780*
X00017567884Y00004900498*
Y00005099481*
X00017491786Y00005283200*
X00017351197Y00005423890*
X00017167377Y00005499989*
G37*
G36*
X00011967387D02*
X00011768480D01*
X00011584686Y00005423890*
X00011443995Y00005283200*
X00011367897Y00005099481*
Y00004900498*
X00011443995Y00004716780*
X00011584686Y00004576089*
X00011768480Y00004499991*
X00011967387*
X00012151182Y00004576089*
X00012291796Y00004716780*
X00012367895Y00004900498*
Y00005099481*
X00012291796Y00005283200*
X00012151182Y00005423890*
X00011967387Y00005499989*
G37*
G36*
X00083548397Y00004458690D02*
X00083429094D01*
X00083318781Y00004413097*
X00083234377Y00004328693*
X00083188784Y00004218381*
Y00004099077*
X00083234377Y00003988790*
X00083318781Y00003904386*
X00083429094Y00003858793*
X00083548397*
X00083658684Y00003904386*
X00083743088Y00003988790*
X00083788681Y00004099077*
Y00004218381*
X00083743088Y00004328693*
X00083658684Y00004413097*
X00083548397Y00004458690*
G37*
G36*
X00197559676Y00004349978D02*
X00197440296D01*
X00197330085Y00004304284*
X00197245681Y00004219879*
X00197199986Y00004109694*
Y00003990289*
X00197235394Y00003904792*
X00197145198Y00003814495*
X00197059677Y00003849979*
X00196940297*
X00196830086Y00003804285*
X00196745682Y00003719880*
X00196699987Y00003609695*
Y00003490290*
X00196745682Y00003380079*
X00196830086Y00003295675*
X00196940297Y00003249980*
X00197059677*
X00197169887Y00003295675*
X00197254291Y00003380079*
X00197299986Y00003490290*
Y00003609695*
X00197264578Y00003695293*
X00197354799Y00003785387*
X00197440296Y00003749979*
X00197559676*
X00197669886Y00003795699*
X00197754290Y00003880078*
X00197799985Y00003990289*
Y00004109694*
X00197754290Y00004219879*
X00197669886Y00004304284*
X00197559676Y00004349978*
G37*
G36*
X00107359678Y00004949977D02*
X00107240298D01*
X00107130088Y00004904282*
X00107045683Y00004819878*
X00106999989Y00004709693*
Y00004590288*
X00107045683Y00004480077*
X00107097499Y00004428286*
X00107117997Y00004349978*
X00107097499Y00004271695*
X00107045683Y00004219879*
X00106999989Y00004109694*
Y00003990289*
X00107045683Y00003880078*
X00107130088Y00003795699*
X00107240298Y00003749979*
X00107359678*
X00107469889Y00003795699*
X00107554293Y00003880078*
X00107582690Y00003948480*
X00107717285*
X00107745682Y00003880078*
X00107830086Y00003795699*
X00107940297Y00003749979*
X00108059677*
X00108169887Y00003795699*
X00108224980Y00003850690*
X00108280098Y00003795699*
X00108390283Y00003749979*
X00108509689*
X00108619899Y00003795699*
X00108704278Y00003880078*
X00108749998Y00003990289*
Y00004109694*
X00108704278Y00004219879*
X00108619899Y00004304284*
X00108509689Y00004349978*
X00108390283*
X00108280098Y00004304284*
X00108224980Y00004249293*
X00108169887Y00004304284*
X00108059677Y00004349978*
X00107940297*
X00107830086Y00004304284*
X00107745682Y00004219879*
X00107717285Y00004151477*
X00107582690*
X00107554293Y00004219879*
X00107502477Y00004271695*
X00107481878Y00004349978*
X00107502477Y00004428286*
X00107554293Y00004480077*
X00107599988Y00004590288*
Y00004709693*
X00107554293Y00004819878*
X00107469889Y00004904282*
X00107359678Y00004949977*
G37*
G36*
X00190194590Y00004349978D02*
X00190075286D01*
X00189964999Y00004304284*
X00189880595Y00004219879*
X00189834875Y00004109694*
Y00003990289*
X00189880595Y00003880078*
X00189964999Y00003795699*
X00190075286Y00003749979*
X00190194590*
X00190304877Y00003795699*
X00190389281Y00003880078*
X00190434899Y00003990289*
Y00004109694*
X00190389281Y00004219879*
X00190304877Y00004304284*
X00190194590Y00004349978*
G37*
G36*
X00204909699Y00004299991D02*
X00204790294D01*
X00204680083Y00004254296*
X00204595679Y00004169892*
X00204549984Y00004059682*
Y00003940276*
X00204595679Y00003830091*
X00204680083Y00003745687*
X00204790294Y00003699992*
X00204909699*
X00205019884Y00003745687*
X00205104288Y00003830091*
X00205149983Y00003940276*
Y00004059682*
X00205104288Y00004169892*
X00205019884Y00004254296*
X00204909699Y00004299991*
G37*
G36*
X00199209685D02*
X00199090280D01*
X00198980094Y00004254296*
X00198895690Y00004169892*
X00198849996Y00004059682*
Y00003940276*
X00198895690Y00003830091*
X00198980094Y00003745687*
X00199090280Y00003699992*
X00199209685*
X00199319896Y00003745687*
X00199404274Y00003830091*
X00199449994Y00003940276*
Y00004059682*
X00199404274Y00004169892*
X00199319896Y00004254296*
X00199209685Y00004299991*
G37*
G36*
X00117409696D02*
X00117290291D01*
X00117180080Y00004254296*
X00117095676Y00004169892*
X00117049981Y00004059682*
Y00003940276*
X00117095676Y00003830091*
X00117180080Y00003745687*
X00117290291Y00003699992*
X00117409696*
X00117519881Y00003745687*
X00117604286Y00003830091*
X00117649980Y00003940276*
Y00004059682*
X00117604286Y00004169892*
X00117519881Y00004254296*
X00117409696Y00004299991*
G37*
G36*
X00006909689D02*
X00006790283D01*
X00006680098Y00004254296*
X00006595694Y00004169892*
X00006549999Y00004059682*
Y00003940276*
X00006595694Y00003830091*
X00006680098Y00003745687*
X00006790283Y00003699992*
X00006909689*
X00007019899Y00003745687*
X00007104278Y00003830091*
X00007149998Y00003940276*
Y00004059682*
X00007104278Y00004169892*
X00007019899Y00004254296*
X00006909689Y00004299991*
G37*
G36*
X00001209675D02*
X00001090295D01*
X00000980084Y00004254296*
X00000895680Y00004169892*
X00000849985Y00004059682*
Y00003940276*
X00000895680Y00003830091*
X00000980084Y00003745687*
X00001090295Y00003699992*
X00001209675*
X00001319885Y00003745687*
X00001404289Y00003830091*
X00001449984Y00003940276*
Y00004059682*
X00001404289Y00004169892*
X00001319885Y00004254296*
X00001209675Y00004299991*
G37*
G36*
X00194709694Y00004249978D02*
X00194590289D01*
X00194480078Y00004204284*
X00194395699Y00004119880*
X00194349979Y00004009694*
Y00003890289*
X00194395699Y00003780078*
X00194480078Y00003695700*
X00194590289Y00003649980*
X00194709694*
X00194819879Y00003695700*
X00194904283Y00003780078*
X00194949978Y00003890289*
Y00004009694*
X00194904283Y00004119880*
X00194819879Y00004204284*
X00194709694Y00004249978*
G37*
G36*
X00024809678Y00004049979D02*
X00024690298D01*
X00024580088Y00004004284*
X00024495683Y00003919880*
X00024449989Y00003809695*
Y00003690289*
X00024495683Y00003580079*
X00024580088Y00003495675*
X00024690298Y00003449980*
X00024809678*
X00024919889Y00003495675*
X00025004293Y00003580079*
X00025049988Y00003690289*
Y00003809695*
X00025004293Y00003919880*
X00024919889Y00004004284*
X00024809678Y00004049979*
G37*
G36*
X00013409599D02*
X00013290194D01*
X00013179983Y00004004284*
X00013095579Y00003919880*
X00013049885Y00003809695*
Y00003690289*
X00013095579Y00003580079*
X00013179983Y00003495675*
X00013290194Y00003449980*
X00013409599*
X00013519785Y00003495675*
X00013604189Y00003580079*
X00013649883Y00003690289*
Y00003809695*
X00013604189Y00003919880*
X00013519785Y00004004284*
X00013409599Y00004049979*
G37*
G36*
X00093209694Y00003927983D02*
X00093090288D01*
X00092980078Y00003882288*
X00092895699Y00003797884*
X00092849979Y00003687699*
Y00003568293*
X00092895699Y00003458083*
X00092980078Y00003373678*
X00093090288Y00003327984*
X00093209694*
X00093319879Y00003373678*
X00093404283Y00003458083*
X00093449978Y00003568293*
Y00003687699*
X00093404283Y00003797884*
X00093319879Y00003882288*
X00093209694Y00003927983*
G37*
G36*
X00092459683Y00003927475D02*
X00092340277D01*
X00092230092Y00003881780*
X00092145688Y00003797376*
X00092099993Y00003687191*
Y00003567785*
X00092145688Y00003457575*
X00092230092Y00003373196*
X00092340277Y00003327476*
X00092459683*
X00092569893Y00003373196*
X00092654297Y00003457575*
X00092699992Y00003567785*
Y00003687191*
X00092654297Y00003797376*
X00092569893Y00003881780*
X00092459683Y00003927475*
G37*
G36*
X00086459695D02*
X00086340289D01*
X00086230079Y00003881780*
X00086145674Y00003797376*
X00086099980Y00003687191*
Y00003567785*
X00086145674Y00003457575*
X00086230079Y00003373196*
X00086340289Y00003327476*
X00086459695*
X00086569880Y00003373196*
X00086654284Y00003457575*
X00086699979Y00003567785*
Y00003687191*
X00086654284Y00003797376*
X00086569880Y00003881780*
X00086459695Y00003927475*
G37*
G36*
X00085659696D02*
X00085540291D01*
X00085430080Y00003881780*
X00085345676Y00003797376*
X00085299981Y00003687191*
Y00003567785*
X00085345676Y00003457575*
X00085430080Y00003373196*
X00085540291Y00003327476*
X00085659696*
X00085769881Y00003373196*
X00085854286Y00003457575*
X00085899980Y00003567785*
Y00003687191*
X00085854286Y00003797376*
X00085769881Y00003881780*
X00085659696Y00003927475*
G37*
G36*
X00084859698D02*
X00084740292D01*
X00084630082Y00003881780*
X00084545678Y00003797376*
X00084499983Y00003687191*
Y00003567785*
X00084545678Y00003457575*
X00084630082Y00003373196*
X00084740292Y00003327476*
X00084859698*
X00084969883Y00003373196*
X00085054287Y00003457575*
X00085099982Y00003567785*
Y00003687191*
X00085054287Y00003797376*
X00084969883Y00003881780*
X00084859698Y00003927475*
G37*
G36*
X00060459696Y00003899992D02*
X00060340290D01*
X00060230080Y00003854297*
X00060145676Y00003769893*
X00060099981Y00003659682*
Y00003540277*
X00060145676Y00003430092*
X00060230080Y00003345688*
X00060340290Y00003299993*
X00060459696*
X00060569881Y00003345688*
X00060654285Y00003430092*
X00060699980Y00003540277*
Y00003659682*
X00060654285Y00003769893*
X00060569881Y00003854297*
X00060459696Y00003899992*
G37*
G36*
X00058959699D02*
X00058840293D01*
X00058730083Y00003854297*
X00058645679Y00003769893*
X00058599984Y00003659682*
Y00003540277*
X00058645679Y00003430092*
X00058730083Y00003345688*
X00058840293Y00003299993*
X00058959699*
X00059069884Y00003345688*
X00059154288Y00003430092*
X00059199983Y00003540277*
Y00003659682*
X00059154288Y00003769893*
X00059069884Y00003854297*
X00058959699Y00003899992*
G37*
G36*
X00057459676D02*
X00057340296D01*
X00057230086Y00003854297*
X00057145682Y00003769893*
X00057099987Y00003659682*
Y00003540277*
X00057145682Y00003430092*
X00057230086Y00003345688*
X00057340296Y00003299993*
X00057459676*
X00057569887Y00003345688*
X00057654291Y00003430092*
X00057699986Y00003540277*
Y00003659682*
X00057654291Y00003769893*
X00057569887Y00003854297*
X00057459676Y00003899992*
G37*
G36*
X00055959679D02*
X00055840299D01*
X00055730089Y00003854297*
X00055645685Y00003769893*
X00055599990Y00003659682*
Y00003540277*
X00055645685Y00003430092*
X00055730089Y00003345688*
X00055840299Y00003299993*
X00055959679*
X00056069890Y00003345688*
X00056154294Y00003430092*
X00056199989Y00003540277*
Y00003659682*
X00056154294Y00003769893*
X00056069890Y00003854297*
X00055959679Y00003899992*
G37*
G36*
X00054459682D02*
X00054340277D01*
X00054230092Y00003854297*
X00054145688Y00003769893*
X00054099993Y00003659682*
Y00003540277*
X00054145688Y00003430092*
X00054230092Y00003345688*
X00054340277Y00003299993*
X00054459682*
X00054569893Y00003345688*
X00054654297Y00003430092*
X00054699992Y00003540277*
Y00003659682*
X00054654297Y00003769893*
X00054569893Y00003854297*
X00054459682Y00003899992*
G37*
G36*
X00052959685D02*
X00052840280D01*
X00052729993Y00003854297*
X00052645691Y00003769893*
X00052599996Y00003659682*
Y00003540277*
X00052645691Y00003430092*
X00052729993Y00003345688*
X00052840280Y00003299993*
X00052959685*
X00053069896Y00003345688*
X00053154275Y00003430092*
X00053199995Y00003540277*
Y00003659682*
X00053154275Y00003769893*
X00053069896Y00003854297*
X00052959685Y00003899992*
G37*
G36*
X00051459688D02*
X00051340283D01*
X00051229996Y00003854297*
X00051145694Y00003769893*
X00051099999Y00003659682*
Y00003540277*
X00051145694Y00003430092*
X00051229996Y00003345688*
X00051340283Y00003299993*
X00051459688*
X00051569899Y00003345688*
X00051654278Y00003430092*
X00051699998Y00003540277*
Y00003659682*
X00051654278Y00003769893*
X00051569899Y00003854297*
X00051459688Y00003899992*
G37*
G36*
X00049959691D02*
X00049840286D01*
X00049729999Y00003854297*
X00049645697Y00003769893*
X00049599977Y00003659682*
Y00003540277*
X00049645697Y00003430092*
X00049729999Y00003345688*
X00049840286Y00003299993*
X00049959691*
X00050069877Y00003345688*
X00050154281Y00003430092*
X00050199975Y00003540277*
Y00003659682*
X00050154281Y00003769893*
X00050069877Y00003854297*
X00049959691Y00003899992*
G37*
G36*
X00048459694D02*
X00048340289D01*
X00048229977Y00003854297*
X00048145700Y00003769893*
X00048099980Y00003659682*
Y00003540277*
X00048145700Y00003430092*
X00048229977Y00003345688*
X00048340289Y00003299993*
X00048459694*
X00048569880Y00003345688*
X00048654284Y00003430092*
X00048699978Y00003540277*
Y00003659682*
X00048654284Y00003769893*
X00048569880Y00003854297*
X00048459694Y00003899992*
G37*
G36*
X00164354687Y00003711879D02*
X00164235282D01*
X00164125097Y00003666185*
X00164040693Y00003581781*
X00163994998Y00003471494*
Y00003352190*
X00164040693Y00003241878*
X00164125097Y00003157575*
X00164235282Y00003111881*
X00164354687*
X00164464898Y00003157575*
X00164549277Y00003241878*
X00164594997Y00003352190*
Y00003471494*
X00164549277Y00003581781*
X00164464898Y00003666185*
X00164354687Y00003711879*
G37*
G36*
X00166704695D02*
X00166585290D01*
X00166475079Y00003666185*
X00166390675Y00003581781*
X00166344981Y00003471494*
Y00003352190*
X00166390675Y00003241878*
X00166475079Y00003157575*
X00166585290Y00003111881*
X00166704695*
X00166814881Y00003157575*
X00166899285Y00003241878*
X00166944979Y00003352190*
Y00003471494*
X00166899285Y00003581781*
X00166814881Y00003666185*
X00166704695Y00003711879*
G37*
G36*
X00044704685D02*
X00044585280D01*
X00044475095Y00003666185*
X00044390691Y00003581781*
X00044344996Y00003471494*
Y00003352190*
X00044390691Y00003241878*
X00044475095Y00003157575*
X00044585280Y00003111881*
X00044704685*
X00044814896Y00003157575*
X00044899275Y00003241878*
X00044944995Y00003352190*
Y00003471494*
X00044899275Y00003581781*
X00044814896Y00003666185*
X00044704685Y00003711879*
G37*
G36*
X00041354679D02*
X00041235299D01*
X00041125089Y00003666185*
X00041040685Y00003581781*
X00040994990Y00003471494*
Y00003352190*
X00041040685Y00003241878*
X00041125089Y00003157575*
X00041235299Y00003111881*
X00041354679*
X00041464890Y00003157575*
X00041549294Y00003241878*
X00041594989Y00003352190*
Y00003471494*
X00041549294Y00003581781*
X00041464890Y00003666185*
X00041354679Y00003711879*
G37*
G36*
X00130059684Y00003699992D02*
X00129940278D01*
X00129830093Y00003654298*
X00129745689Y00003569893*
X00129699994Y00003459683*
Y00003340277*
X00129745689Y00003230092*
X00129830093Y00003145688*
X00129940278Y00003099993*
X00130059684*
X00130169894Y00003145688*
X00130254298Y00003230092*
X00130299993Y00003340277*
Y00003459683*
X00130254298Y00003569893*
X00130169894Y00003654298*
X00130059684Y00003699992*
G37*
G36*
X00020739684Y00003549980D02*
X00020620278D01*
X00020510093Y00003504285*
X00020425689Y00003419881*
X00020379994Y00003309696*
Y00003190290*
X00020425689Y00003080080*
X00020510093Y00002995676*
X00020620278Y00002949981*
X00020739684*
X00020849894Y00002995676*
X00020934299Y00003080080*
X00020979993Y00003190290*
Y00003309696*
X00020934299Y00003419881*
X00020849894Y00003504285*
X00020739684Y00003549980*
G37*
G36*
X00073909682Y00003499993D02*
X00073790276D01*
X00073680091Y00003454298*
X00073595687Y00003369894*
X00073549992Y00003259683*
Y00003140278*
X00073595687Y00003030093*
X00073680091Y00002945688*
X00073790276Y00002899994*
X00073909682*
X00074019892Y00002945688*
X00074104296Y00003030093*
X00074149991Y00003140278*
Y00003259683*
X00074104296Y00003369894*
X00074019892Y00003454298*
X00073909682Y00003499993*
G37*
G36*
X00185959699Y00003449980D02*
X00185840293D01*
X00185730083Y00003404285*
X00185645679Y00003319881*
X00185599984Y00003209696*
Y00003090291*
X00185645679Y00002980080*
X00185730083Y00002895676*
X00185840293Y00002849981*
X00185959699*
X00186069884Y00002895676*
X00186154288Y00002980080*
X00186199983Y00003090291*
Y00003209696*
X00186154288Y00003319881*
X00186069884Y00003404285*
X00185959699Y00003449980*
G37*
G36*
X00150059694Y00003399993D02*
X00149940289D01*
X00149830078Y00003354298*
X00149745700Y00003269894*
X00149699980Y00003159683*
Y00003040278*
X00149745700Y00002930093*
X00149830078Y00002845689*
X00149940289Y00002799994*
X00150059694*
X00150169880Y00002845689*
X00150254284Y00002930093*
X00150299978Y00003040278*
Y00003159683*
X00150254284Y00003269894*
X00150169880Y00003354298*
X00150059694Y00003399993*
G37*
G36*
X00147459700D02*
X00147340294D01*
X00147230084Y00003354298*
X00147145679Y00003269894*
X00147099985Y00003159683*
Y00003040278*
X00147145679Y00002930093*
X00147230084Y00002845689*
X00147340294Y00002799994*
X00147459700*
X00147569885Y00002845689*
X00147654289Y00002930093*
X00147699984Y00003040278*
Y00003159683*
X00147654289Y00003269894*
X00147569885Y00003354298*
X00147459700Y00003399993*
G37*
G36*
X00062309679Y00003313785D02*
X00062190299D01*
X00062080089Y00003268091*
X00061995685Y00003183686*
X00061949990Y00003073400*
Y00002954096*
X00061995685Y00002843784*
X00062080089Y00002759379*
X00062190299Y00002713685*
X00062309679*
X00062419890Y00002759379*
X00062504294Y00002843784*
X00062549989Y00002954096*
Y00003073400*
X00062504294Y00003183686*
X00062419890Y00003268091*
X00062309679Y00003313785*
G37*
G36*
X00204909699Y00003299993D02*
X00204790294D01*
X00204680083Y00003254298*
X00204595679Y00003169894*
X00204549984Y00003059684*
Y00002940278*
X00204595679Y00002830093*
X00204680083Y00002745689*
X00204790294Y00002699994*
X00204909699*
X00205019884Y00002745689*
X00205104288Y00002830093*
X00205149983Y00002940278*
Y00003059684*
X00205104288Y00003169894*
X00205019884Y00003254298*
X00204909699Y00003299993*
G37*
G36*
X00199209685D02*
X00199090280D01*
X00198980094Y00003254298*
X00198895690Y00003169894*
X00198849996Y00003059684*
Y00002940278*
X00198895690Y00002830093*
X00198980094Y00002745689*
X00199090280Y00002699994*
X00199209685*
X00199319896Y00002745689*
X00199404274Y00002830093*
X00199449994Y00002940278*
Y00003059684*
X00199404274Y00003169894*
X00199319896Y00003254298*
X00199209685Y00003299993*
G37*
G36*
X00117409696D02*
X00117290291D01*
X00117180080Y00003254298*
X00117095676Y00003169894*
X00117049981Y00003059684*
Y00002940278*
X00117095676Y00002830093*
X00117180080Y00002745689*
X00117290291Y00002699994*
X00117409696*
X00117519881Y00002745689*
X00117604286Y00002830093*
X00117649980Y00002940278*
Y00003059684*
X00117604286Y00003169894*
X00117519881Y00003254298*
X00117409696Y00003299993*
G37*
G36*
X00111709682D02*
X00111590277D01*
X00111480092Y00003254298*
X00111395687Y00003169894*
X00111349993Y00003059684*
Y00002940278*
X00111395687Y00002830093*
X00111480092Y00002745689*
X00111590277Y00002699994*
X00111709682*
X00111819893Y00002745689*
X00111904297Y00002830093*
X00111949992Y00002940278*
Y00003059684*
X00111904297Y00003169894*
X00111819893Y00003254298*
X00111709682Y00003299993*
G37*
G36*
X00006909689D02*
X00006790283D01*
X00006680098Y00003254298*
X00006595694Y00003169894*
X00006549999Y00003059684*
Y00002940278*
X00006595694Y00002830093*
X00006680098Y00002745689*
X00006790283Y00002699994*
X00006909689*
X00007019899Y00002745689*
X00007104278Y00002830093*
X00007149998Y00002940278*
Y00003059684*
X00007104278Y00003169894*
X00007019899Y00003254298*
X00006909689Y00003299993*
G37*
G36*
X00001209675D02*
X00001090295D01*
X00000980084Y00003254298*
X00000895680Y00003169894*
X00000849985Y00003059684*
Y00002940278*
X00000895680Y00002830093*
X00000980084Y00002745689*
X00001090295Y00002699994*
X00001209675*
X00001319885Y00002745689*
X00001404289Y00002830093*
X00001449984Y00002940278*
Y00003059684*
X00001404289Y00003169894*
X00001319885Y00003254298*
X00001209675Y00003299993*
G37*
G36*
X00079009697Y00003244977D02*
X00078890291D01*
X00078780081Y00003199282*
X00078695677Y00003114878*
X00078649982Y00003004693*
Y00002885287*
X00078695677Y00002775077*
X00078780081Y00002690698*
X00078890291Y00002644978*
X00079009697*
X00079119882Y00002690698*
X00079204286Y00002775077*
X00079249981Y00002885287*
Y00003004693*
X00079204286Y00003114878*
X00079119882Y00003199282*
X00079009697Y00003244977*
G37*
G36*
X00078209698D02*
X00078090293D01*
X00077980082Y00003199282*
X00077895678Y00003114878*
X00077849984Y00003004693*
Y00002885287*
X00077895678Y00002775077*
X00077980082Y00002690698*
X00078090293Y00002644978*
X00078209698*
X00078319884Y00002690698*
X00078404288Y00002775077*
X00078449982Y00002885287*
Y00003004693*
X00078404288Y00003114878*
X00078319884Y00003199282*
X00078209698Y00003244977*
G37*
G36*
X00092459683Y00002649982D02*
X00092340277D01*
X00092230092Y00002604287*
X00092178276Y00002552598*
X00092099993Y00002531897*
X00092021685Y00002552598*
X00091969894Y00002604287*
X00091859684Y00002649982*
X00091740278*
X00091630093Y00002604287*
X00091578277Y00002552598*
X00091499994Y00002531897*
X00091421686Y00002552598*
X00091369896Y00002604287*
X00091259685Y00002649982*
X00091140280*
X00091030094Y00002604287*
X00090978278Y00002552598*
X00090899996Y00002531897*
X00090821687Y00002552598*
X00090769897Y00002604287*
X00090659686Y00002649982*
X00090540281*
X00090430096Y00002604287*
X00090378280Y00002552598*
X00090299997Y00002531897*
X00090221689Y00002552598*
X00090169898Y00002604287*
X00090059687Y00002649982*
X00089940282*
X00089830097Y00002604287*
X00089807999Y00002582189*
X00089724992Y00002532380*
X00089641984Y00002582189*
X00089619886Y00002604287*
X00089509676Y00002649982*
X00089390296*
X00089280085Y00002604287*
X00089195681Y00002519883*
X00089149986Y00002409698*
Y00002290292*
X00089195681Y00002180082*
X00089280085Y00002095677*
X00089390296Y00002049983*
X00089509676*
X00089619886Y00002095677*
X00089641984Y00002117775*
X00089724992Y00002167585*
X00089807999Y00002117775*
X00089830097Y00002095677*
X00089940282Y00002049983*
X00090059687*
X00090169898Y00002095677*
X00090221689Y00002147392*
X00090299997Y00002168093*
X00090378280Y00002147392*
X00090430096Y00002095677*
X00090540281Y00002049983*
X00090659686*
X00090769897Y00002095677*
X00090821687Y00002147392*
X00090899996Y00002168093*
X00090978278Y00002147392*
X00091030094Y00002095677*
X00091140280Y00002049983*
X00091259685*
X00091369896Y00002095677*
X00091421686Y00002147392*
X00091499994Y00002168093*
X00091578277Y00002147392*
X00091630093Y00002095677*
X00091740278Y00002049983*
X00091859684*
X00091969894Y00002095677*
X00092021685Y00002147392*
X00092099993Y00002168093*
X00092178276Y00002147392*
X00092230092Y00002095677*
X00092340277Y00002049983*
X00092459683*
X00092569893Y00002095677*
X00092654297Y00002180082*
X00092699992Y00002290292*
Y00002409698*
X00092654297Y00002519883*
X00092569893Y00002604287*
X00092459683Y00002649982*
G37*
G36*
X00045429678Y00003049981D02*
X00045310298D01*
X00045200087Y00003004286*
X00045115683Y00002919882*
X00045069988Y00002809697*
Y00002690291*
X00045115683Y00002580081*
X00045200087Y00002495677*
X00045310298Y00002449982*
X00045429678*
X00045539888Y00002495677*
X00045624292Y00002580081*
X00045669987Y00002690291*
Y00002809697*
X00045624292Y00002919882*
X00045539888Y00003004286*
X00045429678Y00003049981*
G37*
G36*
X00040629687D02*
X00040510282D01*
X00040400097Y00003004286*
X00040315692Y00002919882*
X00040269998Y00002809697*
Y00002690291*
X00040315692Y00002580081*
X00040400097Y00002495677*
X00040510282Y00002449982*
X00040629687*
X00040739898Y00002495677*
X00040824277Y00002580081*
X00040869997Y00002690291*
Y00002809697*
X00040824277Y00002919882*
X00040739898Y00003004286*
X00040629687Y00003049981*
G37*
G36*
X00166704695Y00002911881D02*
X00166585290D01*
X00166475079Y00002866186*
X00166390675Y00002781782*
X00166344981Y00002671597*
Y00002552192*
X00166390675Y00002441879*
X00166475079Y00002357475*
X00166585290Y00002311882*
X00166704695*
X00166814881Y00002357475*
X00166899285Y00002441879*
X00166944979Y00002552192*
Y00002671597*
X00166899285Y00002781782*
X00166814881Y00002866186*
X00166704695Y00002911881*
G37*
G36*
X00163354689D02*
X00163235284D01*
X00163125099Y00002866186*
X00163040695Y00002781782*
X00162994975Y00002671597*
Y00002552192*
X00163040695Y00002441879*
X00163125099Y00002357475*
X00163235284Y00002311882*
X00163354689*
X00163464875Y00002357475*
X00163549279Y00002441879*
X00163594999Y00002552192*
Y00002671597*
X00163549279Y00002781782*
X00163464875Y00002866186*
X00163354689Y00002911881*
G37*
G36*
X00044704685D02*
X00044585280D01*
X00044475095Y00002866186*
X00044390691Y00002781782*
X00044344996Y00002671597*
Y00002552192*
X00044390691Y00002441879*
X00044475095Y00002357475*
X00044585280Y00002311882*
X00044704685*
X00044814896Y00002357475*
X00044899275Y00002441879*
X00044944995Y00002552192*
Y00002671597*
X00044899275Y00002781782*
X00044814896Y00002866186*
X00044704685Y00002911881*
G37*
G36*
X00041354679D02*
X00041235299D01*
X00041125089Y00002866186*
X00041040685Y00002781782*
X00040994990Y00002671597*
Y00002552192*
X00041040685Y00002441879*
X00041125089Y00002357475*
X00041235299Y00002311882*
X00041354679*
X00041464890Y00002357475*
X00041549294Y00002441879*
X00041594989Y00002552192*
Y00002671597*
X00041549294Y00002781782*
X00041464890Y00002866186*
X00041354679Y00002911881*
G37*
G36*
X00077059688Y00002849981D02*
X00076940283D01*
X00076830097Y00002804287*
X00076745693Y00002719882*
X00076699999Y00002609697*
Y00002490292*
X00076745693Y00002380081*
X00076830097Y00002295677*
X00076940283Y00002249982*
X00077059688*
X00077169899Y00002295677*
X00077254277Y00002380081*
X00077299997Y00002490292*
Y00002609697*
X00077254277Y00002719882*
X00077169899Y00002804287*
X00077059688Y00002849981*
G37*
G36*
X00037759690Y00002749981D02*
X00037640285D01*
X00037530074Y00002704287*
X00037445696Y00002619883*
X00037399976Y00002509697*
Y00002390292*
X00037445696Y00002280081*
X00037530074Y00002195677*
X00037640285Y00002149983*
X00037759690*
X00037869876Y00002195677*
X00037954280Y00002280081*
X00037999974Y00002390292*
Y00002509697*
X00037954280Y00002619883*
X00037869876Y00002704287*
X00037759690Y00002749981*
G37*
G36*
X00093209694Y00002649982D02*
X00093090288D01*
X00092980078Y00002604287*
X00092895699Y00002519883*
X00092849979Y00002409698*
Y00002290292*
X00092895699Y00002180082*
X00092980078Y00002095677*
X00093090288Y00002049983*
X00093209694*
X00093319879Y00002095677*
X00093404283Y00002180082*
X00093449978Y00002290292*
Y00002409698*
X00093404283Y00002519883*
X00093319879Y00002604287*
X00093209694Y00002649982*
G37*
G36*
X00075209679Y00002499995D02*
X00075090299D01*
X00074980088Y00002454275*
X00074895684Y00002369896*
X00074849990Y00002259685*
Y00002140280*
X00074895684Y00002030095*
X00074980088Y00001945690*
X00075090299Y00001899996*
X00075209679*
X00075319890Y00001945690*
X00075404294Y00002030095*
X00075449988Y00002140280*
Y00002259685*
X00075404294Y00002369896*
X00075319890Y00002454275*
X00075209679Y00002499995*
G37*
G36*
X00167887777Y00002491892D02*
X00167768397D01*
X00167658186Y00002446197*
X00167573782Y00002361793*
X00167528087Y00002251481*
Y00002132177*
X00167573782Y00002021890*
X00167658186Y00001937486*
X00167768397Y00001891893*
X00167887777*
X00167998089Y00001937486*
X00168082391Y00002021890*
X00168128086Y00002132177*
Y00002251481*
X00168082391Y00002361793*
X00167998089Y00002446197*
X00167887777Y00002491892*
G37*
G36*
X00184659676Y00002399995D02*
X00184540296D01*
X00184430085Y00002354275*
X00184345681Y00002269896*
X00184299987Y00002159685*
Y00002040280*
X00184345681Y00001930095*
X00184430085Y00001845691*
X00184540296Y00001799996*
X00184659676*
X00184769887Y00001845691*
X00184854291Y00001930095*
X00184899985Y00002040280*
Y00002159685*
X00184854291Y00002269896*
X00184769887Y00002354275*
X00184659676Y00002399995*
G37*
G36*
X00022277781Y00002369997D02*
X00022158375D01*
X00022048190Y00002324277*
X00021963786Y00002239899*
X00021918091Y00002129688*
Y00002010283*
X00021963786Y00001900097*
X00022048190Y00001815693*
X00022158375Y00001769999*
X00022277781*
X00022388093Y00001815693*
X00022472497Y00001900097*
X00022518090Y00002010283*
Y00002129688*
X00022472497Y00002239899*
X00022388093Y00002324277*
X00022277781Y00002369997*
G37*
G36*
X00182059681Y00002349982D02*
X00181940276D01*
X00181830091Y00002304288*
X00181745686Y00002219883*
X00181699992Y00002109698*
Y00001990293*
X00181745686Y00001880082*
X00181830091Y00001795678*
X00181940276Y00001749983*
X00182059681*
X00182169892Y00001795678*
X00182254296Y00001880082*
X00182299991Y00001990293*
Y00002109698*
X00182254296Y00002219883*
X00182169892Y00002304288*
X00182059681Y00002349982*
G37*
G36*
X00204909699Y00002299995D02*
X00204790294D01*
X00204680083Y00002254275*
X00204595679Y00002169896*
X00204549984Y00002059686*
Y00001940280*
X00204595679Y00001830095*
X00204680083Y00001745691*
X00204790294Y00001699996*
X00204909699*
X00205019884Y00001745691*
X00205104288Y00001830095*
X00205149983Y00001940280*
Y00002059686*
X00205104288Y00002169896*
X00205019884Y00002254275*
X00204909699Y00002299995*
G37*
G36*
X00199209685D02*
X00199090280D01*
X00198980094Y00002254275*
X00198895690Y00002169896*
X00198849996Y00002059686*
Y00001940280*
X00198895690Y00001830095*
X00198980094Y00001745691*
X00199090280Y00001699996*
X00199209685*
X00199319896Y00001745691*
X00199404274Y00001830095*
X00199449994Y00001940280*
Y00002059686*
X00199404274Y00002169896*
X00199319896Y00002254275*
X00199209685Y00002299995*
G37*
G36*
X00117409696D02*
X00117290291D01*
X00117180080Y00002254275*
X00117095676Y00002169896*
X00117049981Y00002059686*
Y00001940280*
X00117095676Y00001830095*
X00117180080Y00001745691*
X00117290291Y00001699996*
X00117409696*
X00117519881Y00001745691*
X00117604286Y00001830095*
X00117649980Y00001940280*
Y00002059686*
X00117604286Y00002169896*
X00117519881Y00002254275*
X00117409696Y00002299995*
G37*
G36*
X00111709682D02*
X00111590277D01*
X00111480092Y00002254275*
X00111395687Y00002169896*
X00111349993Y00002059686*
Y00001940280*
X00111395687Y00001830095*
X00111480092Y00001745691*
X00111590277Y00001699996*
X00111709682*
X00111819893Y00001745691*
X00111904297Y00001830095*
X00111949992Y00001940280*
Y00002059686*
X00111904297Y00002169896*
X00111819893Y00002254275*
X00111709682Y00002299995*
G37*
G36*
X00006909689D02*
X00006790283D01*
X00006680098Y00002254275*
X00006595694Y00002169896*
X00006549999Y00002059686*
Y00001940280*
X00006595694Y00001830095*
X00006680098Y00001745691*
X00006790283Y00001699996*
X00006909689*
X00007019899Y00001745691*
X00007104278Y00001830095*
X00007149998Y00001940280*
Y00002059686*
X00007104278Y00002169896*
X00007019899Y00002254275*
X00006909689Y00002299995*
G37*
G36*
X00001209675D02*
X00001090295D01*
X00000980084Y00002254275*
X00000895680Y00002169896*
X00000849985Y00002059686*
Y00001940280*
X00000895680Y00001830095*
X00000980084Y00001745691*
X00001090295Y00001699996*
X00001209675*
X00001319885Y00001745691*
X00001404289Y00001830095*
X00001449984Y00001940280*
Y00002059686*
X00001404289Y00002169896*
X00001319885Y00002254275*
X00001209675Y00002299995*
G37*
G36*
X00196959677Y00002208098D02*
X00196840297D01*
X00196730086Y00002162479*
X00196645682Y00002078075*
X00196599987Y00001967788*
Y00001848383*
X00196645682Y00001738198*
X00196730086Y00001653794*
X00196840297Y00001608099*
X00196959677*
X00197069887Y00001653794*
X00197119290Y00001703197*
X00197206489Y00001721688*
X00197275881Y00001699793*
X00197330085Y00001645691*
X00197440296Y00001599996*
X00197559676*
X00197669886Y00001645691*
X00197754290Y00001730095*
X00197799985Y00001840280*
Y00001959686*
X00197754290Y00002069896*
X00197669886Y00002154275*
X00197559676Y00002199995*
X00197440296*
X00197330085Y00002154275*
X00197280682Y00002104898*
X00197193484Y00002086381*
X00197124091Y00002108276*
X00197069887Y00002162479*
X00196959677Y00002208098*
G37*
G36*
X00165679678Y00002124379D02*
X00165560298D01*
X00165450088Y00002078685*
X00165365684Y00001994281*
X00165319989Y00001884095*
Y00001764690*
X00165365684Y00001654378*
X00165450088Y00001570075*
X00165560298Y00001524381*
X00165679678*
X00165789889Y00001570075*
X00165874293Y00001654378*
X00165919988Y00001764690*
Y00001884095*
X00165874293Y00001994281*
X00165789889Y00002078685*
X00165679678Y00002124379*
G37*
G36*
X00164379681D02*
X00164260276D01*
X00164150090Y00002078685*
X00164065686Y00001994281*
X00164019992Y00001884095*
Y00001764690*
X00164065686Y00001654378*
X00164150090Y00001570075*
X00164260276Y00001524381*
X00164379681*
X00164489892Y00001570075*
X00164574296Y00001654378*
X00164619990Y00001764690*
Y00001884095*
X00164574296Y00001994281*
X00164489892Y00002078685*
X00164379681Y00002124379*
G37*
G36*
X00043679694D02*
X00043560288D01*
X00043450078Y00002078685*
X00043365699Y00001994281*
X00043319979Y00001884095*
Y00001764690*
X00043365699Y00001654378*
X00043450078Y00001570075*
X00043560288Y00001524381*
X00043679694*
X00043789879Y00001570075*
X00043874283Y00001654378*
X00043919978Y00001764690*
Y00001884095*
X00043874283Y00001994281*
X00043789879Y00002078685*
X00043679694Y00002124379*
G37*
G36*
X00042379696D02*
X00042260291D01*
X00042150080Y00002078685*
X00042065676Y00001994281*
X00042019982Y00001884095*
Y00001764690*
X00042065676Y00001654378*
X00042150080Y00001570075*
X00042260291Y00001524381*
X00042379696*
X00042489882Y00001570075*
X00042574286Y00001654378*
X00042619980Y00001764690*
Y00001884095*
X00042574286Y00001994281*
X00042489882Y00002078685*
X00042379696Y00002124379*
G37*
G36*
X00183635777Y00001860499D02*
X00183516498D01*
X00183406186Y00001814880*
X00183321782Y00001730476*
X00183276189Y00001620189*
Y00001500886*
X00183321782Y00001390599*
X00183406186Y00001306195*
X00183516498Y00001260475*
X00183635777*
X00183746089Y00001306195*
X00183830493Y00001390599*
X00183876086Y00001500886*
Y00001620189*
X00183830493Y00001730476*
X00183746089Y00001814880*
X00183635777Y00001860499*
G37*
G36*
X00033809686Y00001849983D02*
X00033690280D01*
X00033580095Y00001804289*
X00033495691Y00001719884*
X00033449996Y00001609699*
Y00001490294*
X00033495691Y00001380083*
X00033580095Y00001295679*
X00033690280Y00001249984*
X00033809686*
X00033919896Y00001295679*
X00034004275Y00001380083*
X00034049995Y00001490294*
Y00001609699*
X00034004275Y00001719884*
X00033919896Y00001804289*
X00033809686Y00001849983*
G37*
G36*
X00132741390Y00001799996D02*
X00132622086D01*
X00132511800Y00001754276*
X00132427395Y00001669897*
X00132381675Y00001559687*
Y00001440281*
X00132427395Y00001330096*
X00132511800Y00001245692*
X00132622086Y00001199997*
X00132741390*
X00132851677Y00001245692*
X00132936081Y00001330096*
X00132981700Y00001440281*
Y00001559687*
X00132936081Y00001669897*
X00132851677Y00001754276*
X00132741390Y00001799996*
G37*
G36*
X00121980198D02*
X00121860792D01*
X00121750582Y00001754276*
X00121666177Y00001669897*
X00121620483Y00001559687*
Y00001440281*
X00121666177Y00001330096*
X00121750582Y00001245692*
X00121860792Y00001199997*
X00121980198*
X00122090383Y00001245692*
X00122174787Y00001330096*
X00122220482Y00001440281*
Y00001559687*
X00122174787Y00001669897*
X00122090383Y00001754276*
X00121980198Y00001799996*
G37*
G36*
X00202177294Y00004799990D02*
X00201822685D01*
X00201474984Y00004730775*
X00201147375Y00004595088*
X00200852582Y00004398086*
X00200601884Y00004147388*
X00200404882Y00003852595*
X00200269195Y00003524986*
X00200199980Y00003177286*
Y00002822676*
X00200269195Y00002474976*
X00200404882Y00002147392*
X00200601884Y00001852599*
X00200852582Y00001601876*
X00201147375Y00001404899*
X00201474984Y00001269187*
X00201822685Y00001199997*
X00202177294*
X00202524995Y00001269187*
X00202852578Y00001404899*
X00203147396Y00001601876*
X00203398094Y00001852599*
X00203595097Y00002147392*
X00203730783Y00002474976*
X00203799998Y00002822676*
Y00003177286*
X00203730783Y00003524986*
X00203595097Y00003852595*
X00203398094Y00004147388*
X00203147396Y00004398086*
X00202852578Y00004595088*
X00202524995Y00004730775*
X00202177294Y00004799990*
G37*
G36*
X00171709689Y00001799996D02*
X00171590284D01*
X00171480099Y00001754276*
X00171395694Y00001669897*
X00171349974Y00001559687*
Y00001440281*
X00171395694Y00001330096*
X00171480099Y00001245692*
X00171590284Y00001199997*
X00171709689*
X00171819874Y00001245692*
X00171904279Y00001330096*
X00171949999Y00001440281*
Y00001559687*
X00171904279Y00001669897*
X00171819874Y00001754276*
X00171709689Y00001799996*
G37*
G36*
X00152359690D02*
X00152240284D01*
X00152130099Y00001754276*
X00152045695Y00001669897*
X00151999975Y00001559687*
Y00001440281*
X00152045695Y00001330096*
X00152130099Y00001245692*
X00152240284Y00001199997*
X00152359690*
X00152469875Y00001245692*
X00152554279Y00001330096*
X00152599999Y00001440281*
Y00001559687*
X00152554279Y00001669897*
X00152469875Y00001754276*
X00152359690Y00001799996*
G37*
G36*
X00142759582D02*
X00142640278D01*
X00142529991Y00001754276*
X00142445587Y00001669897*
X00142399994Y00001559687*
Y00001440281*
X00142445587Y00001330096*
X00142529991Y00001245692*
X00142640278Y00001199997*
X00142759582*
X00142869894Y00001245692*
X00142954298Y00001330096*
X00142999993Y00001440281*
Y00001559687*
X00142954298Y00001669897*
X00142869894Y00001754276*
X00142759582Y00001799996*
G37*
G36*
X00114677291Y00004799990D02*
X00114322682D01*
X00113974981Y00004730775*
X00113647397Y00004595088*
X00113352580Y00004398086*
X00113101882Y00004147388*
X00112904879Y00003852595*
X00112769192Y00003524986*
X00112699977Y00003177286*
Y00002822676*
X00112769192Y00002474976*
X00112904879Y00002147392*
X00113101882Y00001852599*
X00113352580Y00001601876*
X00113647397Y00001404899*
X00113974981Y00001269187*
X00114322682Y00001199997*
X00114677291*
X00115024992Y00001269187*
X00115352576Y00001404899*
X00115647393Y00001601876*
X00115898091Y00001852599*
X00116095094Y00002147392*
X00116230781Y00002474976*
X00116299996Y00002822676*
Y00003177286*
X00116230781Y00003524986*
X00116095094Y00003852595*
X00115898091Y00004147388*
X00115647393Y00004398086*
X00115352576Y00004595088*
X00115024992Y00004730775*
X00114677291Y00004799990*
G37*
G36*
X00004177283D02*
X00003822700D01*
X00003474999Y00004730775*
X00003147390Y00004595088*
X00002852597Y00004398086*
X00002601899Y00004147388*
X00002404897Y00003852595*
X00002269185Y00003524986*
X00002199995Y00003177286*
Y00002822676*
X00002269185Y00002474976*
X00002404897Y00002147392*
X00002601899Y00001852599*
X00002852597Y00001601876*
X00003147390Y00001404899*
X00003474999Y00001269187*
X00003822700Y00001199997*
X00004177283*
X00004524984Y00001269187*
X00004852593Y00001404899*
X00005147386Y00001601876*
X00005398084Y00001852599*
X00005595086Y00002147392*
X00005730798Y00002474976*
X00005799988Y00002822676*
Y00003177286*
X00005730798Y00003524986*
X00005595086Y00003852595*
X00005398084Y00004147388*
X00005147386Y00004398086*
X00004852593Y00004595088*
X00004524984Y00004730775*
X00004177283Y00004799990*
G37*
G36*
X00021809684Y00001599996D02*
X00021690279D01*
X00021580094Y00001554276*
X00021495689Y00001469898*
X00021449995Y00001359687*
Y00001240282*
X00021495689Y00001130096*
X00021580094Y00001045692*
X00021690279Y00000999998*
X00021809684*
X00021919895Y00001045692*
X00022004299Y00001130096*
X00022049994Y00001240282*
Y00001359687*
X00022004299Y00001469898*
X00021919895Y00001554276*
X00021809684Y00001599996*
G37*
G36*
X00161544482Y00002015185D02*
X00161425178D01*
X00161314892Y00001969490*
X00161230487Y00001885086*
X00161184793Y00001774799*
Y00001655495*
X00161230487Y00001545183*
X00161314892Y00001460779*
X00161245677Y00001369898*
X00161199982Y00001259687*
Y00001140282*
X00161245677Y00001030097*
X00161330081Y00000945692*
X00161440291Y00000899998*
X00161559697*
X00161669882Y00000945692*
X00161754286Y00001030097*
X00161799981Y00001140282*
Y00001259687*
X00161754286Y00001369898*
X00161669882Y00001454277*
X00161739199Y00001545183*
X00161784792Y00001655495*
Y00001774799*
X00161739199Y00001885086*
X00161654794Y00001969490*
X00161544482Y00002015185*
G37*
G36*
X00194959681Y00001399997D02*
X00194840275D01*
X00194730090Y00001354277*
X00194645686Y00001269898*
X00194599991Y00001159687*
Y00001040282*
X00194645686Y00000930097*
X00194730090Y00000845693*
X00194840275Y00000799998*
X00194959681*
X00195069891Y00000845693*
X00195154296Y00000930097*
X00195199990Y00001040282*
Y00001159687*
X00195154296Y00001269898*
X00195069891Y00001354277*
X00194959681Y00001399997*
G37*
G36*
X00037759690D02*
X00037640285D01*
X00037530074Y00001354277*
X00037445696Y00001269898*
X00037399976Y00001159687*
Y00001040282*
X00037445696Y00000930097*
X00037530074Y00000845693*
X00037640285Y00000799998*
X00037759690*
X00037869876Y00000845693*
X00037954280Y00000930097*
X00037999974Y00001040282*
Y00001159687*
X00037954280Y00001269898*
X00037869876Y00001354277*
X00037759690Y00001399997*
G37*
G36*
X00191725575Y00001349984D02*
X00191606195D01*
X00191495984Y00001304290*
X00191411580Y00001219885*
X00191365886Y00001109675*
Y00000990295*
X00191411580Y00000880084*
X00191495984Y00000795680*
X00191606195Y00000749985*
X00191725575*
X00191835887Y00000795680*
X00191920291Y00000880084*
X00191965884Y00000990295*
Y00001109675*
X00191920291Y00001219885*
X00191835887Y00001304290*
X00191725575Y00001349984*
G37*
G36*
X00015625597D02*
X00015506293D01*
X00015395981Y00001304290*
X00015311577Y00001219885*
X00015265882Y00001109675*
Y00000990295*
X00015311577Y00000880084*
X00015395981Y00000795680*
X00015506293Y00000749985*
X00015625597*
X00015735884Y00000795680*
X00015820288Y00000880084*
X00015865881Y00000990295*
Y00001109675*
X00015820288Y00001219885*
X00015735884Y00001304290*
X00015625597Y00001349984*
G37*
G36*
X00204909699Y00001299997D02*
X00204790294D01*
X00204680083Y00001254277*
X00204595679Y00001169898*
X00204549984Y00001059688*
Y00000940282*
X00204595679Y00000830097*
X00204680083Y00000745693*
X00204790294Y00000699998*
X00204909699*
X00205019884Y00000745693*
X00205104288Y00000830097*
X00205149983Y00000940282*
Y00001059688*
X00205104288Y00001169898*
X00205019884Y00001254277*
X00204909699Y00001299997*
G37*
G36*
X00199209685D02*
X00199090280D01*
X00198980094Y00001254277*
X00198895690Y00001169898*
X00198849996Y00001059688*
Y00000940282*
X00198895690Y00000830097*
X00198980094Y00000745693*
X00199090280Y00000699998*
X00199209685*
X00199319896Y00000745693*
X00199404274Y00000830097*
X00199449994Y00000940282*
Y00001059688*
X00199404274Y00001169898*
X00199319896Y00001254277*
X00199209685Y00001299997*
G37*
G36*
X00117409696D02*
X00117290291D01*
X00117180080Y00001254277*
X00117095676Y00001169898*
X00117049981Y00001059688*
Y00000940282*
X00117095676Y00000830097*
X00117180080Y00000745693*
X00117290291Y00000699998*
X00117409696*
X00117519881Y00000745693*
X00117604286Y00000830097*
X00117649980Y00000940282*
Y00001059688*
X00117604286Y00001169898*
X00117519881Y00001254277*
X00117409696Y00001299997*
G37*
G36*
X00111709682D02*
X00111590277D01*
X00111480092Y00001254277*
X00111395687Y00001169898*
X00111349993Y00001059688*
Y00000940282*
X00111395687Y00000830097*
X00111480092Y00000745693*
X00111590277Y00000699998*
X00111709682*
X00111819893Y00000745693*
X00111904297Y00000830097*
X00111949992Y00000940282*
Y00001059688*
X00111904297Y00001169898*
X00111819893Y00001254277*
X00111709682Y00001299997*
G37*
G36*
X00006909689D02*
X00006790283D01*
X00006680098Y00001254277*
X00006595694Y00001169898*
X00006549999Y00001059688*
Y00000940282*
X00006595694Y00000830097*
X00006680098Y00000745693*
X00006790283Y00000699998*
X00006909689*
X00007019899Y00000745693*
X00007104278Y00000830097*
X00007149998Y00000940282*
Y00001059688*
X00007104278Y00001169898*
X00007019899Y00001254277*
X00006909689Y00001299997*
G37*
G36*
X00001209675D02*
X00001090295D01*
X00000980084Y00001254277*
X00000895680Y00001169898*
X00000849985Y00001059688*
Y00000940282*
X00000895680Y00000830097*
X00000980084Y00000745693*
X00001090295Y00000699998*
X00001209675*
X00001319885Y00000745693*
X00001404289Y00000830097*
X00001449984Y00000940282*
Y00001059688*
X00001404289Y00001169898*
X00001319885Y00001254277*
X00001209675Y00001299997*
G37*
G36*
X00070159676Y00001213789D02*
X00070040296D01*
X00069930086Y00001168095*
X00069845682Y00001083691*
X00069799987Y00000973378*
Y00000854075*
X00069845682Y00000743788*
X00069930086Y00000659384*
X00070040296Y00000613689*
X00070159676*
X00070269887Y00000659384*
X00070354291Y00000743788*
X00070399986Y00000854075*
Y00000973378*
X00070354291Y00001083691*
X00070269887Y00001168095*
X00070159676Y00001213789*
G37*
G36*
X00062309679D02*
X00062190299D01*
X00062080089Y00001168095*
X00061995685Y00001083691*
X00061949990Y00000973378*
Y00000854075*
X00061995685Y00000743788*
X00062080089Y00000659384*
X00062190299Y00000613689*
X00062309679*
X00062419890Y00000659384*
X00062504294Y00000743788*
X00062549989Y00000854075*
Y00000973378*
X00062504294Y00001083691*
X00062419890Y00001168095*
X00062309679Y00001213789*
G37*
G36*
X00125788191Y00001499997D02*
X00125589284D01*
X00125405489Y00001423898*
X00125264875Y00001283182*
X00125188776Y00001099489*
Y00000900480*
X00125264875Y00000716788*
X00125405489Y00000576097*
X00125589284Y00000499999*
X00125788191*
X00125971985Y00000576097*
X00126112574Y00000716788*
X00126188774Y00000900480*
Y00001099489*
X00126112574Y00001283182*
X00125971985Y00001423898*
X00125788191Y00001499997*
G37*
G36*
X00120588176D02*
X00120389294D01*
X00120205500Y00001423898*
X00120064885Y00001283182*
X00119988787Y00001099489*
Y00000900480*
X00120064885Y00000716788*
X00120205500Y00000576097*
X00120389294Y00000499999*
X00120588176*
X00120771996Y00000576097*
X00120912585Y00000716788*
X00120988785Y00000900480*
Y00001099489*
X00120912585Y00001283182*
X00120771996Y00001423898*
X00120588176Y00001499997*
G37*
G36*
X00032859675Y00001099997D02*
X00032740295D01*
X00032630084Y00001054277*
X00032545680Y00000969899*
X00032499985Y00000859688*
Y00000740283*
X00032545680Y00000630097*
X00032630084Y00000545693*
X00032740295Y00000499999*
X00032859675*
X00032969885Y00000545693*
X00033054290Y00000630097*
X00033099984Y00000740283*
Y00000859688*
X00033054290Y00000969899*
X00032969885Y00001054277*
X00032859675Y00001099997*
G37*
G36*
X00028567481Y00001499997D02*
X00028368599D01*
X00028184779Y00001423898*
X00028044089Y00001283182*
X00027967990Y00001099489*
Y00000900480*
X00028044089Y00000716788*
X00028184779Y00000576097*
X00028368599Y00000499999*
X00028567481*
X00028751276Y00000576097*
X00028891890Y00000716788*
X00028967988Y00000900480*
Y00001099489*
X00028891890Y00001283182*
X00028751276Y00001423898*
X00028567481Y00001499997*
G37*
G36*
X00023367492D02*
X00023168584D01*
X00022984790Y00001423898*
X00022844175Y00001283182*
X00022767975Y00001099489*
Y00000900480*
X00022844175Y00000716788*
X00022984790Y00000576097*
X00023168584Y00000499999*
X00023367492*
X00023551286Y00000576097*
X00023691875Y00000716788*
X00023767999Y00000900480*
Y00001099489*
X00023691875Y00001283182*
X00023551286Y00001423898*
X00023367492Y00001499997*
G37*
G36*
X00193234386D02*
X00193035478D01*
X00192851684Y00001423898*
X00192710993Y00001283182*
X00192634895Y00001099388*
Y00000900480*
X00192710993Y00000716788*
X00192851684Y00000576097*
X00193035478Y00000499999*
X00193234386*
X00193418180Y00000576097*
X00193558795Y00000716788*
X00193634893Y00000900480*
Y00001099388*
X00193558795Y00001283182*
X00193418180Y00001423898*
X00193234386Y00001499997*
G37*
G36*
X00188034396D02*
X00187835489D01*
X00187651694Y00001423898*
X00187510978Y00001283182*
X00187434880Y00001099388*
Y00000900480*
X00187510978Y00000716788*
X00187651694Y00000576097*
X00187835489Y00000499999*
X00188034396*
X00188218191Y00000576097*
X00188358780Y00000716788*
X00188434878Y00000900480*
Y00001099388*
X00188358780Y00001283182*
X00188218191Y00001423898*
X00188034396Y00001499997*
G37*
G36*
X00180434284D02*
X00180235377D01*
X00180051684Y00001423898*
X00179910994Y00001283182*
X00179834895Y00001099388*
Y00000900480*
X00179910994Y00000716788*
X00180051684Y00000576097*
X00180235377Y00000499999*
X00180434284*
X00180618079Y00000576097*
X00180758795Y00000716788*
X00180834893Y00000900480*
Y00001099388*
X00180758795Y00001283182*
X00180618079Y00001423898*
X00180434284Y00001499997*
G37*
G36*
X00175234295D02*
X00175035387D01*
X00174851695Y00001423898*
X00174710979Y00001283182*
X00174634880Y00001099388*
Y00000900480*
X00174710979Y00000716788*
X00174851695Y00000576097*
X00175035387Y00000499999*
X00175234295*
X00175418089Y00000576097*
X00175558780Y00000716788*
X00175634878Y00000900480*
Y00001099388*
X00175558780Y00001283182*
X00175418089Y00001423898*
X00175234295Y00001499997*
G37*
G36*
X00156167683D02*
X00155968776D01*
X00155784981Y00001423898*
X00155644392Y00001283182*
X00155568294Y00001099388*
Y00000900480*
X00155644392Y00000716788*
X00155784981Y00000576097*
X00155968776Y00000499999*
X00156167683*
X00156351478Y00000576097*
X00156492194Y00000716788*
X00156568292Y00000900480*
Y00001099388*
X00156492194Y00001283182*
X00156351478Y00001423898*
X00156167683Y00001499997*
G37*
G36*
X00150967694D02*
X00150768786D01*
X00150584992Y00001423898*
X00150444377Y00001283182*
X00150368279Y00001099388*
Y00000900480*
X00150444377Y00000716788*
X00150584992Y00000576097*
X00150768786Y00000499999*
X00150967694*
X00151151488Y00000576097*
X00151292077Y00000716788*
X00151368277Y00000900480*
Y00001099388*
X00151292077Y00001283182*
X00151151488Y00001423898*
X00150967694Y00001499997*
G37*
G36*
X00146567677D02*
X00146368795D01*
X00146184975Y00001423898*
X00146044386Y00001283182*
X00145968186Y00001099388*
Y00000900480*
X00146044386Y00000716788*
X00146184975Y00000576097*
X00146368795Y00000499999*
X00146567677*
X00146751497Y00000576097*
X00146892086Y00000716788*
X00146968184Y00000900480*
Y00001099388*
X00146892086Y00001283182*
X00146751497Y00001423898*
X00146567677Y00001499997*
G37*
G36*
X00141367687D02*
X00141168780D01*
X00140984986Y00001423898*
X00140844295Y00001283182*
X00140768197Y00001099388*
Y00000900480*
X00140844295Y00000716788*
X00140984986Y00000576097*
X00141168780Y00000499999*
X00141367687*
X00141551482Y00000576097*
X00141692096Y00000716788*
X00141768195Y00000900480*
Y00001099388*
X00141692096Y00001283182*
X00141551482Y00001423898*
X00141367687Y00001499997*
G37*
G36*
X00136553676D02*
X00136354794D01*
X00136170974Y00001423898*
X00136030385Y00001283182*
X00135954287Y00001099388*
Y00000900480*
X00136030385Y00000716788*
X00136170974Y00000576097*
X00136354794Y00000499999*
X00136553676*
X00136737496Y00000576097*
X00136878085Y00000716788*
X00136954285Y00000900480*
Y00001099388*
X00136878085Y00001283182*
X00136737496Y00001423898*
X00136553676Y00001499997*
G37*
G36*
X00131353687D02*
X00131154779D01*
X00130970985Y00001423898*
X00130830396Y00001283182*
X00130754297Y00001099388*
Y00000900480*
X00130830396Y00000716788*
X00130970985Y00000576097*
X00131154779Y00000499999*
X00131353687*
X00131537481Y00000576097*
X00131678095Y00000716788*
X00131754295Y00000900480*
Y00001099388*
X00131678095Y00001283182*
X00131537481Y00001423898*
X00131353687Y00001499997*
G37*
G36*
X00017167377D02*
X00016968495D01*
X00016784675Y00001423898*
X00016644086Y00001283182*
X00016567886Y00001099388*
Y00000900480*
X00016644086Y00000716788*
X00016784675Y00000576097*
X00016968495Y00000499999*
X00017167377*
X00017351197Y00000576097*
X00017491786Y00000716788*
X00017567884Y00000900480*
Y00001099388*
X00017491786Y00001283182*
X00017351197Y00001423898*
X00017167377Y00001499997*
G37*
G36*
X00011967387D02*
X00011768480D01*
X00011584686Y00001423898*
X00011443995Y00001283182*
X00011367897Y00001099388*
Y00000900480*
X00011443995Y00000716788*
X00011584686Y00000576097*
X00011768480Y00000499999*
X00011967387*
X00012151182Y00000576097*
X00012291796Y00000716788*
X00012367895Y00000900480*
Y00001099388*
X00012291796Y00001283182*
X00012151182Y00001423898*
X00011967387Y00001499997*
G37*
G36*
X00172659675Y00001049985D02*
X00172540295D01*
X00172430084Y00001004290*
X00172345680Y00000919886*
X00172299985Y00000809675*
Y00000690295*
X00172345680Y00000580085*
X00172430084Y00000495681*
X00172540295Y00000449986*
X00172659675*
X00172769885Y00000495681*
X00172854289Y00000580085*
X00172899984Y00000690295*
Y00000809675*
X00172854289Y00000919886*
X00172769885Y00001004290*
X00172659675Y00001049985*
G37*
G36*
X00170759678D02*
X00170640298D01*
X00170530088Y00001004290*
X00170445684Y00000919886*
X00170399989Y00000809675*
Y00000690295*
X00170445684Y00000580085*
X00170530088Y00000495681*
X00170640298Y00000449986*
X00170759678*
X00170869889Y00000495681*
X00170954293Y00000580085*
X00170999988Y00000690295*
Y00000809675*
X00170954293Y00000919886*
X00170869889Y00001004290*
X00170759678Y00001049985*
G37*
G36*
X00129609697Y00000999998D02*
X00129490292D01*
X00129380081Y00000954278*
X00129295677Y00000869899*
X00129249982Y00000759688*
Y00000640283*
X00129295677Y00000530098*
X00129380081Y00000445693*
X00129490292Y00000399999*
X00129609697*
X00129719882Y00000445693*
X00129804287Y00000530098*
X00129849981Y00000640283*
Y00000759688*
X00129804287Y00000869899*
X00129719882Y00000954278*
X00129609697Y00000999998*
G37*
G36*
X00037199697Y00005449976D02*
X00037080291D01*
X00036970081Y00005404281*
X00036932387Y00005366689*
X00036849989Y00005334076*
X00036767592Y00005366689*
X00036729898Y00005404281*
X00036619688Y00005449976*
X00036500282*
X00036390097Y00005404281*
X00036305693Y00005319877*
X00036259998Y00005209692*
Y00005090287*
X00036305693Y00004980076*
X00036390097Y00004895697*
X00036500282Y00004849977*
X00036619688*
X00036729898Y00004895697*
X00036767592Y00004933289*
X00036849989Y00004965877*
X00036932387Y00004933289*
X00036970081Y00004895697*
X00037080291Y00004849977*
X00037199697*
X00037309882Y00004895697*
X00037368784Y00004954498*
X00037444984Y00004969891*
X00037521184Y00004954498*
X00037580087Y00004895697*
X00037690298Y00004849977*
X00037809678*
X00037919888Y00004895697*
X00038004292Y00004980076*
X00038049987Y00005090287*
Y00005209692*
X00038004292Y00005319877*
X00037919888Y00005404281*
X00037809678Y00005449976*
X00037690298*
X00037580087Y00005404281*
X00037521184Y00005345480*
X00037444984Y00005330088*
X00037368784Y00005345480*
X00037309882Y00005404281*
X00037199697Y00005449976*
G37*
G36*
X00076809676Y00005549976D02*
X00076690296D01*
X00076580085Y00005504281*
X00076495681Y00005419877*
X00076449986Y00005309692*
Y00005190286*
X00076495681Y00005080076*
X00076580085Y00004995697*
X00076690296Y00004949977*
X00076809676*
X00076919886Y00004995697*
X00077004291Y00005080076*
X00077049985Y00005190286*
Y00005309692*
X00077004291Y00005419877*
X00076919886Y00005504281*
X00076809676Y00005549976*
G37*
G36*
X00074559693D02*
X00074440288D01*
X00074330077Y00005504281*
X00074245698Y00005419877*
X00074199978Y00005309692*
Y00005190286*
X00074245698Y00005080076*
X00074330077Y00004995697*
X00074440288Y00004949977*
X00074559693*
X00074669878Y00004995697*
X00074754282Y00005080076*
X00074799977Y00005190286*
Y00005309692*
X00074754282Y00005419877*
X00074669878Y00005504281*
X00074559693Y00005549976*
G37*
G36*
X00035159696D02*
X00035040290D01*
X00034930080Y00005504281*
X00034845675Y00005419877*
X00034799981Y00005309692*
Y00005190286*
X00034845675Y00005080076*
X00034930080Y00004995697*
X00035040290Y00004949977*
X00035159696*
X00035269881Y00004995697*
X00035354285Y00005080076*
X00035399980Y00005190286*
Y00005309692*
X00035354285Y00005419877*
X00035269881Y00005504281*
X00035159696Y00005549976*
G37*
G36*
X00033809686D02*
X00033690280D01*
X00033580095Y00005504281*
X00033495691Y00005419877*
X00033449996Y00005309692*
Y00005190286*
X00033495691Y00005080076*
X00033580095Y00004995697*
X00033690280Y00004949977*
X00033809686*
X00033919896Y00004995697*
X00034004275Y00005080076*
X00034049995Y00005190286*
Y00005309692*
X00034004275Y00005419877*
X00033919896Y00005504281*
X00033809686Y00005549976*
G37*
G36*
X00104309697Y00005499989D02*
X00104190292D01*
X00104080081Y00005454294*
X00103995677Y00005369890*
X00103949982Y00005259679*
Y00005140299*
X00103995677Y00005030089*
X00104080081Y00004945684*
X00104190292Y00004899990*
X00104309697*
X00104419882Y00004945684*
X00104504286Y00005030089*
X00104549981Y00005140299*
Y00005259679*
X00104504286Y00005369890*
X00104419882Y00005454294*
X00104309697Y00005499989*
G37*
G36*
X00089459689D02*
X00089340283D01*
X00089230098Y00005454294*
X00089145694Y00005369890*
X00089099999Y00005259679*
Y00005140299*
X00089145694Y00005030089*
X00089230098Y00004945684*
X00089340283Y00004899990*
X00089459689*
X00089569899Y00004945684*
X00089654278Y00005030089*
X00089699998Y00005140299*
Y00005259679*
X00089654278Y00005369890*
X00089569899Y00005454294*
X00089459689Y00005499989*
G37*
G36*
X00110309685Y00005449976D02*
X00110190280D01*
X00110080094Y00005404281*
X00109995690Y00005319877*
X00109949996Y00005209692*
Y00005090287*
X00109995690Y00004980076*
X00110080094Y00004895697*
X00110190280Y00004849977*
X00110309685*
X00110419896Y00004895697*
X00110504274Y00004980076*
X00110549994Y00005090287*
Y00005209692*
X00110504274Y00005319877*
X00110419896Y00005404281*
X00110309685Y00005449976*
G37*
G36*
X00171709689Y00005399989D02*
X00171590284D01*
X00171480099Y00005354294*
X00171395694Y00005269890*
X00171349974Y00005159679*
Y00005040299*
X00171395694Y00004930089*
X00171480099Y00004845685*
X00171590284Y00004799990*
X00171709689*
X00171819874Y00004845685*
X00171904279Y00004930089*
X00171949999Y00005040299*
Y00005159679*
X00171904279Y00005269890*
X00171819874Y00005354294*
X00171709689Y00005399989*
G37*
G36*
X00163309681Y00004849977D02*
X00163190275D01*
X00163080090Y00004804283*
X00163024997Y00004749292*
X00162969879Y00004804283*
X00162859694Y00004849977*
X00162740289*
X00162630078Y00004804283*
X00162545699Y00004719878*
X00162499979Y00004609693*
Y00004490288*
X00162545699Y00004380077*
X00162630078Y00004295698*
X00162740289Y00004249978*
X00162859694*
X00162969879Y00004295698*
X00163024997Y00004350689*
X00163080090Y00004295698*
X00163190275Y00004249978*
X00163309681*
X00163419891Y00004295698*
X00163504295Y00004380077*
X00163549990Y00004490288*
Y00004609693*
X00163504295Y00004719878*
X00163419891Y00004804283*
X00163309681Y00004849977*
G37*
G36*
X00111709682Y00005299989D02*
X00111590277D01*
X00111480092Y00005254294*
X00111395687Y00005169890*
X00111349993Y00005059680*
Y00004940300*
X00111395687Y00004830089*
X00111480092Y00004745685*
X00111590277Y00004699990*
X00111709682*
X00111819893Y00004745685*
X00111904297Y00004830089*
X00111949992Y00004940300*
Y00005059680*
X00111904297Y00005169890*
X00111819893Y00005254294*
X00111709682Y00005299989*
G37*
G36*
X00138809679Y00005199989D02*
X00138690299D01*
X00138580088Y00005154295*
X00138495684Y00005069890*
X00138449989Y00004959680*
Y00004840274*
X00138495684Y00004730089*
X00138580088Y00004645685*
X00138690299Y00004599990*
X00138809679*
X00138919889Y00004645685*
X00139004294Y00004730089*
X00139049988Y00004840274*
Y00004959680*
X00139004294Y00005069890*
X00138919889Y00005154295*
X00138809679Y00005199989*
G37*
G36*
X00125788191Y00005499989D02*
X00125589284D01*
X00125405489Y00005423890*
X00125264875Y00005283200*
X00125188776Y00005099481*
Y00004900498*
X00125264875Y00004716780*
X00125405489Y00004576089*
X00125589284Y00004499991*
X00125788191*
X00125971985Y00004576089*
X00126112574Y00004716780*
X00126188774Y00004900498*
Y00005099481*
X00126112574Y00005283200*
X00125971985Y00005423890*
X00125788191Y00005499989*
G37*
G36*
X00120588176D02*
X00120389294D01*
X00120205500Y00005423890*
X00120064885Y00005283200*
X00119988787Y00005099481*
Y00004900498*
X00120064885Y00004716780*
X00120205500Y00004576089*
X00120389294Y00004499991*
X00120588176*
X00120771996Y00004576089*
X00120912585Y00004716780*
X00120988785Y00004900498*
Y00005099481*
X00120912585Y00005283200*
X00120771996Y00005423890*
X00120588176Y00005499989*
G37*
G36*
X00180434284D02*
X00180235377D01*
X00180051684Y00005423890*
X00179910994Y00005283200*
X00179834895Y00005099481*
Y00004900498*
X00179910994Y00004716780*
X00180051684Y00004576089*
X00180235377Y00004499991*
X00180434284*
X00180618079Y00004576089*
X00180758795Y00004716780*
X00180834893Y00004900498*
Y00005099481*
X00180758795Y00005283200*
X00180618079Y00005423890*
X00180434284Y00005499989*
G37*
G36*
X00175234295D02*
X00175035387D01*
X00174851695Y00005423890*
X00174710979Y00005283200*
X00174634880Y00005099481*
Y00004900498*
X00174710979Y00004716780*
X00174851695Y00004576089*
X00175035387Y00004499991*
X00175234295*
X00175418089Y00004576089*
X00175558780Y00004716780*
X00175634878Y00004900498*
Y00005099481*
X00175558780Y00005283200*
X00175418089Y00005423890*
X00175234295Y00005499989*
G37*
G36*
X00156167683D02*
X00155968776D01*
X00155784981Y00005423890*
X00155644392Y00005283200*
X00155568294Y00005099481*
Y00004900498*
X00155644392Y00004716780*
X00155784981Y00004576089*
X00155968776Y00004499991*
X00156167683*
X00156351478Y00004576089*
X00156492194Y00004716780*
X00156568292Y00004900498*
Y00005099481*
X00156492194Y00005283200*
X00156351478Y00005423890*
X00156167683Y00005499989*
G37*
G36*
X00150967694D02*
X00150768786D01*
X00150584992Y00005423890*
X00150444377Y00005283200*
X00150368279Y00005099481*
Y00004900498*
X00150444377Y00004716780*
X00150584992Y00004576089*
X00150768786Y00004499991*
X00150967694*
X00151151488Y00004576089*
X00151292077Y00004716780*
X00151368277Y00004900498*
Y00005099481*
X00151292077Y00005283200*
X00151151488Y00005423890*
X00150967694Y00005499989*
G37*
G36*
X00146567677D02*
X00146368795D01*
X00146184975Y00005423890*
X00146044386Y00005283200*
X00145968186Y00005099481*
Y00004900498*
X00146044386Y00004716780*
X00146184975Y00004576089*
X00146368795Y00004499991*
X00146567677*
X00146751497Y00004576089*
X00146892086Y00004716780*
X00146968184Y00004900498*
Y00005099481*
X00146892086Y00005283200*
X00146751497Y00005423890*
X00146567677Y00005499989*
G37*
G36*
X00141367687D02*
X00141168780D01*
X00140984986Y00005423890*
X00140844295Y00005283200*
X00140768197Y00005099481*
Y00004900498*
X00140844295Y00004716780*
X00140984986Y00004576089*
X00141168780Y00004499991*
X00141367687*
X00141551482Y00004576089*
X00141692096Y00004716780*
X00141768195Y00004900498*
Y00005099481*
X00141692096Y00005283200*
X00141551482Y00005423890*
X00141367687Y00005499989*
G37*
G36*
X00136553676D02*
X00136354794D01*
X00136170974Y00005423890*
X00136030385Y00005283200*
X00135954287Y00005099481*
Y00004900498*
X00136030385Y00004716780*
X00136170974Y00004576089*
X00136354794Y00004499991*
X00136553676*
X00136737496Y00004576089*
X00136878085Y00004716780*
X00136954285Y00004900498*
Y00005099481*
X00136878085Y00005283200*
X00136737496Y00005423890*
X00136553676Y00005499989*
G37*
G36*
X00131353687D02*
X00131154779D01*
X00130970985Y00005423890*
X00130830396Y00005283200*
X00130754297Y00005099481*
Y00004900498*
X00130830396Y00004716780*
X00130970985Y00004576089*
X00131154779Y00004499991*
X00131353687*
X00131537481Y00004576089*
X00131678095Y00004716780*
X00131754295Y00004900498*
Y00005099481*
X00131678095Y00005283200*
X00131537481Y00005423890*
X00131353687Y00005499989*
G37*
G36*
X00149209683Y00005049977D02*
X00149090278D01*
X00148980093Y00005004282*
X00148895689Y00004919878*
X00148849994Y00004809693*
Y00004690287*
X00148895689Y00004580077*
X00148980093Y00004495698*
X00149090278Y00004449978*
X00149209683*
X00149319894Y00004495698*
X00149404298Y00004580077*
X00149449993Y00004690287*
Y00004809693*
X00149404298Y00004919878*
X00149319894Y00005004282*
X00149209683Y00005049977*
G37*
G36*
X00148459698D02*
X00148340292D01*
X00148230082Y00005004282*
X00148145677Y00004919878*
X00148099983Y00004809693*
Y00004690287*
X00148145677Y00004580077*
X00148230082Y00004495698*
X00148340292Y00004449978*
X00148459698*
X00148569883Y00004495698*
X00148654287Y00004580077*
X00148699982Y00004690287*
Y00004809693*
X00148654287Y00004919878*
X00148569883Y00005004282*
X00148459698Y00005049977*
G37*
G36*
X00091259685D02*
X00091140280D01*
X00091030094Y00005004282*
X00090945690Y00004919878*
X00090899996Y00004809693*
Y00004690287*
X00090945690Y00004580077*
X00091030094Y00004495698*
X00091140280Y00004449978*
X00091259685*
X00091369896Y00004495698*
X00091454274Y00004580077*
X00091499994Y00004690287*
Y00004809693*
X00091454274Y00004919878*
X00091369896Y00005004282*
X00091259685Y00005049977*
G37*
G36*
X00090059687D02*
X00089940282D01*
X00089830097Y00005004282*
X00089745693Y00004919878*
X00089699998Y00004809693*
Y00004690287*
X00089745693Y00004580077*
X00089830097Y00004495698*
X00089940282Y00004449978*
X00090059687*
X00090169898Y00004495698*
X00090254277Y00004580077*
X00090299997Y00004690287*
Y00004809693*
X00090254277Y00004919878*
X00090169898Y00005004282*
X00090059687Y00005049977*
G37*
G36*
X00088859690D02*
X00088740284D01*
X00088630099Y00005004282*
X00088545695Y00004919878*
X00088499975Y00004809693*
Y00004690287*
X00088545695Y00004580077*
X00088630099Y00004495698*
X00088740284Y00004449978*
X00088859690*
X00088969875Y00004495698*
X00089054279Y00004580077*
X00089099999Y00004690287*
Y00004809693*
X00089054279Y00004919878*
X00088969875Y00005004282*
X00088859690Y00005049977*
G37*
G36*
X00177394590Y00004349978D02*
X00177275185D01*
X00177164898Y00004304284*
X00177080595Y00004219879*
X00177034875Y00004109694*
Y00003990289*
X00177080595Y00003880078*
X00177164898Y00003795699*
X00177275185Y00003749979*
X00177394590*
X00177504775Y00003795699*
X00177589180Y00003880078*
X00177634900Y00003990289*
Y00004109694*
X00177589180Y00004219879*
X00177504775Y00004304284*
X00177394590Y00004349978*
G37*
G36*
X00108449999Y00002255875D02*
X00108332879Y00002232583D01*
X00108233692Y00002166289*
X00108167398Y00002066975*
X00108144081Y00001949983*
X00108167398Y00001832889*
X00108233692Y00001733677*
X00108332879Y00001667383*
X00108449999Y00001644091*
X00108566991Y00001667383*
X00108666280Y00001733677*
X00108732599Y00001832889*
X00108755891Y00001949983*
X00108732599Y00002066975*
X00108666280Y00002166289*
X00108566991Y00002232583*
X00108449999Y00002255875*
G37*
G36*
X00105249980Y00001355877D02*
X00105132886Y00001332585D01*
X00105070275Y00001290675*
X00104999993Y00001274191*
X00104929686Y00001290675*
X00104867075Y00001332585*
X00104749981Y00001355877*
X00104632887Y00001332585*
X00104570276Y00001290675*
X00104499994Y00001274191*
X00104429687Y00001290675*
X00104367076Y00001332585*
X00104249982Y00001355877*
X00104132888Y00001332585*
X00104033675Y00001266291*
X00103967381Y00001167079*
X00103944089Y00001049985*
X00103967381Y00000932992*
X00104033675Y00000833678*
X00104132888Y00000767384*
X00104249982Y00000744093*
X00104367076Y00000767384*
X00104429687Y00000809294*
X00104499994Y00000825779*
X00104570276Y00000809294*
X00104632887Y00000767384*
X00104749981Y00000744093*
X00104867075Y00000767384*
X00104929686Y00000809294*
X00104999993Y00000825779*
X00105070275Y00000809294*
X00105132886Y00000767384*
X00105249980Y00000744093*
X00105367099Y00000767384*
X00105466286Y00000833678*
X00105532580Y00000932992*
X00105555897Y00001049985*
X00105532580Y00001167079*
X00105466286Y00001266291*
X00105367099Y00001332585*
X00105249980Y00001355877*
G37*
G36*
X00078949981Y00001750898D02*
X00078832989Y00001727581D01*
X00078733675Y00001661287*
X00078667381Y00001561998*
X00078644089Y00001444980*
X00078667381Y00001327988*
X00078733675Y00001228699*
X00078832989Y00001162380*
X00078949981Y00001139088*
X00079067075Y00001162380*
X00079166288Y00001228699*
X00079232582Y00001327988*
X00079255899Y00001444980*
X00079232582Y00001561998*
X00079166288Y00001661287*
X00079067075Y00001727581*
X00078949981Y00001750898*
G37*
G36*
X00078149983D02*
X00078032991Y00001727581D01*
X00077933677Y00001661287*
X00077867383Y00001561998*
X00077844091Y00001444980*
X00077867383Y00001327886*
X00077933677Y00001228699*
X00078032991Y00001162380*
X00078149983Y00001139088*
X00078267077Y00001162380*
X00078366289Y00001228699*
X00078432583Y00001327886*
X00078455875Y00001444980*
X00078432583Y00001561998*
X00078366289Y00001661287*
X00078267077Y00001727581*
X00078149983Y00001750898*
G37*
G36*
X00102999997Y00001355877D02*
X00102882877Y00001332585D01*
X00102783690Y00001266291*
X00102717396Y00001167079*
X00102694079Y00001049985*
X00102717396Y00000932992*
X00102783690Y00000833678*
X00102882877Y00000767384*
X00102999997Y00000744093*
X00103117091Y00000767384*
X00103216278Y00000833678*
X00103282597Y00000932992*
X00103305889Y00001049985*
X00103282597Y00001167079*
X00103216278Y00001266291*
X00103117091Y00001332585*
X00102999997Y00001355877*
G37*
G36*
X00108449999Y00001005890D02*
X00108332879Y00000982599D01*
X00108233692Y00000916279*
X00108167398Y00000816991*
X00108144081Y00000699998*
X00108167398Y00000582879*
X00108233692Y00000483692*
X00108332879Y00000417398*
X00108449999Y00000394081*
X00108566991Y00000417398*
X00108666280Y00000483692*
X00108732599Y00000582879*
X00108755891Y00000699998*
X00108732599Y00000816991*
X00108666280Y00000916279*
X00108566991Y00000982599*
X00108449999Y00001005890*
G37*
G36*
X00078949981Y00000960882D02*
X00078832989Y00000937590D01*
X00078733675Y00000871296*
X00078667381Y00000772083*
X00078644089Y00000654989*
X00078667381Y00000537895*
X00078733675Y00000438683*
X00078832989Y00000372389*
X00078949981Y00000349097*
X00079067075Y00000372389*
X00079166288Y00000438683*
X00079232582Y00000537895*
X00079255899Y00000654989*
X00079232582Y00000772083*
X00079166288Y00000871296*
X00079067075Y00000937590*
X00078949981Y00000960882*
G37*
G36*
X00078149983D02*
X00078032991Y00000937590D01*
X00077933677Y00000871296*
X00077867383Y00000772083*
X00077844091Y00000654989*
X00077867383Y00000537895*
X00077933677Y00000438683*
X00078032991Y00000372389*
X00078149983Y00000349097*
X00078267077Y00000372389*
X00078366289Y00000438683*
X00078432583Y00000537895*
X00078455875Y00000654989*
X00078432583Y00000772083*
X00078366289Y00000871296*
X00078267077Y00000937590*
X00078149983Y00000960882*
G37*
G36*
X00106709692Y00001999996D02*
X00106590287D01*
X00106480076Y00001954276*
X00106424984Y00001899285*
X00106369891Y00001954276*
X00106259680Y00001999996*
X00106140275*
X00106030090Y00001954276*
X00105945686Y00001869897*
X00105899991Y00001759686*
Y00001640281*
X00105945686Y00001530096*
X00106030090Y00001445691*
X00106140275Y00001399997*
X00106259680*
X00106369891Y00001445691*
X00106424984Y00001500682*
X00106480076Y00001445691*
X00106590287Y00001399997*
X00106709692*
X00106819877Y00001445691*
X00106904282Y00001530096*
X00106949976Y00001640281*
Y00001759686*
X00106904282Y00001869897*
X00106819877Y00001954276*
X00106709692Y00001999996*
G37*
%LNwcam-tk-pcb-r02_copper_signal_3-3*%
%LPD*%
G54D76*
X00011867896Y00000999998D03*
X00017067885D03*
Y00004999990D03*
X00011867896D03*
X00023267974D03*
X00028467989D03*
Y00000999998D03*
X00023267974D03*
X00120488786D03*
X00125688775D03*
Y00004999990D03*
X00120488786D03*
X00131254296D03*
X00136454286D03*
Y00000999998D03*
X00131254296D03*
X00141268196D03*
X00146468185D03*
Y00004999990D03*
X00141268196D03*
X00150868278D03*
X00156068293D03*
Y00000999998D03*
X00150868278D03*
X00175134879D03*
X00180334894D03*
Y00004999990D03*
X00175134879D03*
X00187934879D03*
X00193134894D03*
Y00000999998D03*
X00187934879D03*
G54D77*
X00201999977Y00002999994D03*
X00114499999D03*
X00003999992D03*
G54D78*
X00117349981Y00000999998D03*
Y00004999990D03*
X00111649992D03*
Y00001999996D03*
X00192170989Y00005449976D03*
X00188898885D03*
X00160899983Y00003549980D03*
X00150049992Y00005449976D03*
X00080749978Y00000499999D03*
X00081749976D03*
X00082749999D03*
X00074499978Y00005249976D03*
X00076749986D03*
X00029431996Y00000549986D03*
X00027504085D03*
X00022304095D03*
X00024231981D03*
X00176098784Y00005449976D03*
X00179370888D03*
X00157613985D03*
X00048399979Y00003599992D03*
X00049899976D03*
X00051399998D03*
X00052899995D03*
X00054399992D03*
X00055899989D03*
X00057399986D03*
X00058899983D03*
X00060399980D03*
X00185899983Y00005049977D03*
Y00003149981D03*
X00172599985Y00000749985D03*
X00170699988D03*
X00094999987Y00000449986D03*
X00095799986D03*
X00124492994Y00000549986D03*
X00135258479D03*
X00140072491D03*
X00152413995D03*
X00154522474D03*
X00168998900D03*
X00179370888D03*
X00176098784D03*
X00132218176Y00005449976D03*
X00145504281D03*
X00139722479D03*
X00137999978D03*
X00129549982Y00000699998D03*
X00110249995Y00004149979D03*
X00104589986Y00004023690D03*
X00104249982Y00005199989D03*
X00001149985Y00004999990D03*
Y00003999992D03*
Y00002999994D03*
Y00001999996D03*
Y00000999998D03*
X00006849999D03*
Y00001999996D03*
Y00002999994D03*
Y00003999992D03*
Y00004999990D03*
X00117349981Y00001999996D03*
Y00002999994D03*
Y00003999992D03*
X00111649992Y00000999998D03*
Y00002999994D03*
Y00003999992D03*
X00204849984Y00004999990D03*
Y00003999992D03*
Y00002999994D03*
Y00001999996D03*
Y00000999998D03*
X00199149995D03*
Y00001999996D03*
Y00002999994D03*
Y00003999992D03*
Y00004999990D03*
X00089399999Y00005199989D03*
X00110249995Y00000849985D03*
X00109899983Y00002599994D03*
X00108449999Y00000699998D03*
X00162799979Y00003999992D03*
X00126499975Y00003899992D03*
X00075149989Y00002199995D03*
X00073849992Y00003199993D03*
X00087599977Y00001277493D03*
X00102999997Y00001049985D03*
X00086799978Y00004749977D03*
X00085999980D03*
X00085199982D03*
X00084799982Y00003627475D03*
X00121920482Y00001499997D03*
X00132681675D03*
X00167828087Y00002191893D03*
X00152299974Y00001499997D03*
X00142699994D03*
X00161484792Y00001715185D03*
X00161499981Y00001199997D03*
Y00003549980D03*
X00126499975Y00003399993D03*
X00129999994D03*
X00147399984Y00003099993D03*
X00149999979D03*
X00190134875Y00004049979D03*
X00177334875D03*
X00013349884Y00003749979D03*
X00024749988D03*
X00032799985Y00000799998D03*
X00034699981D03*
X00022218091Y00002069998D03*
X00195251882Y00005349976D03*
Y00004849977D03*
X00194649979Y00003949979D03*
X00197499986Y00004049979D03*
X00196999987Y00003549980D03*
X00197499986D03*
Y00001899996D03*
X00196899987Y00001908098D03*
X00194641876Y00002449982D03*
X00183576188Y00001560499D03*
X00184599986Y00002099995D03*
Y00001560499D03*
X00181999991Y00002049983D03*
X00185699984Y00000449986D03*
X00186649995Y00000849985D03*
X00181427983Y00000610489D03*
X00185149998Y00004099991D03*
X00184150000D03*
X00181499992D03*
X00171649999Y00005099989D03*
Y00002499995D03*
Y00001499997D03*
X00163249991Y00003999992D03*
X00162799979Y00004549978D03*
X00163249991D03*
X00149149993Y00004749977D03*
X00148399982D03*
X00138749989Y00004899990D03*
X00129549982Y00004399991D03*
X00128849983D03*
X00127649986Y00004599990D03*
X00106199990Y00002949981D03*
X00106649977D03*
X00106199990Y00001699996D03*
X00106649977D03*
Y00000449986D03*
X00106199990D03*
X00107299988Y00004049979D03*
Y00004649978D03*
X00108449999Y00004049979D03*
X00107999987D03*
X00110249995Y00005149977D03*
X00107399988Y00001699996D03*
Y00002949981D03*
X00108449999Y00003199993D03*
Y00001949983D03*
X00085999980Y00001277493D03*
X00086399979Y00000777494D03*
Y00003627475D03*
X00084049997Y00001307490D03*
X00083488682Y00001868678D03*
Y00004158792D03*
X00084049997Y00004719980D03*
X00085599981Y00003627475D03*
X00093149978Y00003627983D03*
X00092399993Y00003627475D03*
X00093149978Y00002349982D03*
X00088799974Y00004749977D03*
X00089999997D03*
X00091199995D03*
X00089449986Y00002349982D03*
X00194899991Y00001099997D03*
X00191665885Y00001049985D03*
X00178865885D03*
X00021749994Y00001299997D03*
X00015565882Y00001049985D03*
X00024749988D03*
X00020679994Y00003249980D03*
X00033749996Y00001549984D03*
X00037749988Y00005149977D03*
X00036559998D03*
X00037139981D03*
X00038249987Y00004199991D03*
X00031949999Y00004799990D03*
X00035099980Y00005249976D03*
X00033749996D03*
Y00002549982D03*
X00035349992Y00000549986D03*
X00037699975Y00002449982D03*
Y00001099997D03*
X00036149991Y00002449982D03*
X00070099986Y00000913688D03*
X00062249989Y00005113680D03*
Y00003013786D03*
Y00000913688D03*
X00164294997Y00003411880D03*
X00167369998Y00004219981D03*
X00163294999Y00003411880D03*
Y00002611882D03*
X00166644980D03*
Y00003411880D03*
X00165619988Y00001824380D03*
X00164319991D03*
Y00004199382D03*
X00165619988D03*
X00043619978D03*
X00042319981D03*
Y00001824380D03*
X00043619978D03*
X00044644995Y00003411880D03*
Y00002611882D03*
X00041294989D03*
Y00003411880D03*
X00045369988Y00004219981D03*
Y00002749981D03*
X00040569997D03*
X00074499978Y00001449984D03*
Y00000599998D03*
X00078149983Y00002154986D03*
X00078949981D03*
X00078149983Y00000654989D03*
X00078949981D03*
X00075299976Y00002949981D03*
Y00001349984D03*
X00075849988Y00002944977D03*
Y00001344980D03*
X00078949981Y00001444980D03*
X00078149983D03*
X00078949981Y00002944977D03*
X00078149983D03*
X00076999998Y00002549982D03*
Y00001049985D03*
X00097124977Y00003869994D03*
X00097724976D03*
X00105249980Y00001049985D03*
X00104749981D03*
X00100499976Y00002649982D03*
X00098924999Y00003349980D03*
X00087199978Y00000549986D03*
X00089999997Y00002349982D03*
X00092399993D03*
X00091199995D03*
X00090599996D03*
X00091799994D03*
X00104249982Y00001049985D03*
X00103549983D03*
X00098929596Y00002245385D03*
X00103529993Y00003543782D03*
X00104589986Y00002483789D03*
Y00003013786D03*
X00103529993Y00004073779D03*
X00104059990Y00003013786D03*
X00103529993D03*
X00102999997D03*
X00102469975D03*
X00098924999Y00002749981D03*
X00098324974Y00003849979D03*
Y00003349980D03*
X00101939979Y00003013786D03*
X00098924999Y00003849979D03*
M02*