%FSDAX56Y56*%
%MOMM*%
%SFA1B1*%

%IPPOS*%
%ADD10C,0.100000*%
%ADD11C,0.250000*%
%ADD12C,0.150000*%
%ADD13C,0.200000*%
%ADD14R,0.499999X1.099998*%
%ADD15R,0.200000X0.949998*%
%ADD16R,0.250000X5.599989*%
%ADD17R,0.220000X1.199998*%
%ADD18R,1.199998X0.220000*%
%ADD19R,1.199998X0.220000*%
%ADD20R,0.699999X0.200000*%
%ADD21R,0.200000X0.699999*%
%ADD22R,0.200000X0.699999*%
%ADD23R,0.200000X0.699999*%
%ADD24R,0.200000X0.699999*%
%LNwcam-tk-pcb-r02_legend_top-1*%
%LPD*%
G36*
X00050064974Y00005290083D02*
X00050265279D01*
Y00005273395*
X00050348692*
Y00005256784*
X00050432182*
Y00005240096*
X00050482296*
Y00005223383*
X00050532284*
Y00005206695*
X00050565685*
Y00005189982*
X00050615799*
Y00005173294*
X00050649174*
Y00005156581*
X00050682575*
Y00005139893*
X00050715875*
Y00005123180*
X00050732588*
Y00005106492*
X00050765989*
Y00005089779*
X00050799390*
Y00005073192*
X00050816078*
Y00005056479*
X00050832791*
Y00005039791*
X00050866192*
Y00005023078*
X00050882880*
Y00005006390*
X00050899593*
Y00004989677*
X00050916179*
Y00004972989*
X00050949580*
Y00004956276*
X00050966293*
Y00004939588*
X00050982981*
Y00004922875*
X00050999694*
Y00004906187*
X00051016382*
Y00004889500*
X00051033095*
Y00004872786*
Y00004856175*
X00051049783*
Y00004839487*
X00051066496*
Y00004822799*
X00051083184*
Y00004806086*
X00051099796*
Y00004789398*
Y00004772685*
X00051116484*
Y00004755997*
X00051133197*
Y00004739284*
Y00004722596*
X00051149885*
Y00004705883*
X00051166598*
Y00004689195*
Y00004672584*
X00051183286*
Y00004655896*
Y00004639183*
X00051199999*
Y00004622495*
X00051216687*
Y00004605782*
Y00004589094*
X00051233374*
Y00004572381*
Y00004555693*
Y00004538980*
X00051250088*
Y00004522292*
Y00004505579*
X00051266775*
Y00004488891*
Y00004472178*
X00051283489*
Y00004455591*
Y00004438878*
Y00004422190*
X00051300176*
Y00004405477*
Y00004388789*
Y00004372076*
X00051316788*
Y00004355388*
Y00004338675*
Y00004321987*
X00051333476*
Y00004305300*
Y00004288586*
Y00004271899*
Y00004255185*
X00051350189*
Y00004238599*
Y00004221886*
Y00004205198*
Y00004188485*
Y00004171797*
X00051366877*
Y00004155084*
Y00004138396*
Y00004121683*
Y00004104995*
Y00004088282*
Y00004071696*
Y00004054983*
X00051383590*
Y00004038295*
Y00004021582*
Y00004004894*
Y00003988181*
Y00003971493*
Y00003954780*
Y00003938092*
Y00003921379*
Y00003904691*
Y00003887978*
Y00003871391*
Y00003854678*
Y00003837990*
Y00003821277*
Y00003804589*
Y00003787876*
Y00003771188*
Y00003754475*
Y00003737787*
Y00003721100*
Y00003704386*
Y00003687699*
Y00003671087*
Y00003654399*
Y00003637686*
X00051366877*
Y00003620998*
Y00003604285*
Y00003587597*
Y00003570884*
Y00003554196*
Y00003537483*
Y00003520795*
X00051350189*
Y00003504082*
Y00003487394*
Y00003470783*
Y00003454095*
Y00003437382*
X00051333476*
Y00003420694*
Y00003403981*
Y00003387293*
Y00003370580*
X00051316788*
Y00003353892*
Y00003337179*
Y00003320491*
X00051300176*
Y00003303778*
Y00003287090*
Y00003270478*
Y00003253790*
X00051283489*
Y00003237077*
Y00003220389*
X00051266775*
Y00003203676*
Y00003186988*
Y00003170275*
X00051250088*
Y00003153587*
Y00003136900*
X00051233374*
Y00003120186*
Y00003103499*
X00051216687*
Y00003086785*
Y00003070098*
X00051199999*
Y00003053486*
Y00003036798*
X00051183286*
Y00003020085*
Y00003003397*
X00051166598*
Y00002986684*
X00051149885*
Y00002969996*
Y00002953283*
X00051133197*
Y00002936595*
X00051116484*
Y00002919882*
Y00002903194*
X00051099796*
Y00002886481*
X00051083184*
Y00002869793*
X00051066496*
Y00002853182*
Y00002836494*
X00051049783*
Y00002819781*
X00051033095*
Y00002803093*
X00051016382*
Y00002786380*
X00050999694*
Y00002769692*
X00050982981*
Y00002752979*
X00050966293*
Y00002736291*
X00050949580*
Y00002719578*
X00050932892*
Y00002702890*
X00050916179*
Y00002686177*
X00050899593*
Y00002669489*
X00050866192*
Y00002652776*
X00050849479*
Y00002636189*
X00050832791*
Y00002619476*
X00050849479*
Y00002602788*
Y00002586075*
Y00002569387*
X00050866192*
Y00002552700*
Y00002535986*
Y00002519299*
X00050882880*
Y00002502585*
Y00002485898*
Y00002469184*
X00050899593*
Y00002452497*
Y00002435885*
X00050916179*
Y00002419197*
Y00002402484*
Y00002385796*
X00050932892*
Y00002369083*
Y00002352395*
Y00002335682*
X00050949580*
Y00002318994*
Y00002302281*
Y00002285593*
X00050966293*
Y00002268880*
Y00002252294*
Y00002235581*
X00050982981*
Y00002218893*
Y00002202180*
X00050999694*
Y00002185492*
Y00002168779*
Y00002152091*
X00051016382*
Y00002135378*
Y00002118690*
Y00002101977*
X00051033095*
Y00002085289*
Y00002068576*
Y00002051888*
X00051049783*
Y00002035276*
Y00002018588*
Y00002001875*
X00051066496*
Y00001985187*
Y00001968500*
X00051083184*
Y00001951786*
Y00001935099*
Y00001918385*
X00051099796*
Y00001901698*
Y00001884984*
Y00001868398*
X00051116484*
Y00001851583*
Y00001834997*
Y00001818284*
X00051133197*
Y00001801596*
Y00001784883*
Y00001768195*
X00051149885*
Y00001751482*
Y00001734794*
X00051166598*
Y00001718081*
Y00001701393*
Y00001684680*
X00051183286*
Y00001667992*
Y00001651381*
Y00001634693*
X00051199999*
Y00001617980*
Y00001601292*
Y00001584579*
X00051216687*
Y00001567891*
Y00001551178*
Y00001534490*
X00051233374*
Y00001517777*
Y00001501089*
X00051250088*
Y00001484376*
Y00001467688*
Y00001451076*
X00051266775*
Y00001434388*
Y00001417675*
Y00001400987*
X00051283489*
Y00001384300*
Y00001367586*
Y00001350899*
X00051300176*
Y00001334185*
Y00001317498*
Y00001300784*
X00051316788*
Y00001284097*
Y00001267383*
Y00001250696*
X00051333476*
Y00001234084*
Y00001217396*
Y00001200683*
Y00001183995*
X00051350189*
Y00001167282*
Y00001150594*
Y00001133881*
X00051366877*
Y00001117193*
Y00001100480*
Y00001083792*
X00051383590*
Y00001067079*
Y00001050391*
X00051400278*
Y00001067079*
Y00001083792*
X00051416991*
Y00001100480*
Y00001117193*
Y00001133881*
Y00001150594*
X00051433679*
Y00001167282*
Y00001183995*
Y00001200683*
X00051450392*
Y00001217396*
Y00001234084*
Y00001250696*
X00051467080*
Y00001267383*
Y00001284097*
Y00001300784*
X00051483793*
Y00001317498*
Y00001334185*
Y00001350899*
X00051500481*
Y00001367586*
Y00001384300*
Y00001400987*
X00051517092*
Y00001417675*
Y00001434388*
Y00001451076*
X00051533780*
Y00001467688*
Y00001484376*
X00051550493*
Y00001501089*
Y00001517777*
Y00001534490*
X00051567181*
Y00001551178*
Y00001567891*
Y00001584579*
X00051583894*
Y00001601292*
Y00001617980*
Y00001634693*
X00051600582*
Y00001651381*
Y00001667992*
X00051617295*
Y00001684680*
Y00001701393*
Y00001718081*
X00051633983*
Y00001734794*
Y00001751482*
Y00001768195*
X00051650696*
Y00001784883*
Y00001801596*
X00051667384*
Y00001818284*
Y00001834997*
Y00001851583*
X00051684097*
Y00001868398*
Y00001884984*
Y00001901698*
X00051700684*
Y00001918385*
Y00001935099*
X00051717397*
Y00001951786*
Y00001968500*
Y00001985187*
X00051734085*
Y00002001875*
Y00002018588*
Y00002035276*
X00051750798*
Y00002051888*
Y00002068576*
Y00002085289*
X00051767486*
Y00002101977*
Y00002118690*
X00051784199*
Y00002135378*
Y00002152091*
Y00002168779*
X00051800887*
Y00002185492*
Y00002202180*
Y00002218893*
X00051817574*
Y00002235581*
Y00002252294*
X00051834288*
Y00002268880*
Y00002285593*
Y00002302281*
X00051850975*
Y00002318994*
Y00002335682*
Y00002352395*
X00051867689*
Y00002369083*
Y00002385796*
X00051884376*
Y00002402484*
Y00002419197*
Y00002435885*
X00051901090*
Y00002452497*
Y00002469184*
Y00002485898*
X00051917676*
Y00002502585*
Y00002519299*
Y00002535986*
X00051934389*
Y00002552700*
Y00002569387*
X00051951077*
Y00002586075*
Y00002602788*
Y00002619476*
X00051967790*
Y00002636189*
Y00002652776*
Y00002669489*
X00051984478*
Y00002686177*
Y00002702890*
X00052001191*
Y00002719578*
Y00002736291*
Y00002752979*
X00052017879*
Y00002769692*
Y00002786380*
Y00002803093*
X00052034592*
Y00002819781*
Y00002836494*
X00052051280*
Y00002853182*
Y00002869793*
Y00002886481*
X00052067993*
Y00002903194*
Y00002919882*
Y00002936595*
X00052084681*
Y00002953283*
Y00002969996*
X00052101292*
Y00002986684*
Y00003003397*
Y00003020085*
X00052117980*
Y00003036798*
Y00003053486*
Y00003070098*
X00052134693*
Y00003086785*
Y00003103499*
Y00003120186*
X00052151381*
Y00003136900*
Y00003153587*
X00052168094*
Y00003170275*
Y00003186988*
Y00003203676*
X00052184782*
Y00003220389*
Y00003237077*
Y00003253790*
X00052201495*
Y00003270478*
Y00003287090*
X00052218183*
Y00003303778*
Y00003320491*
Y00003337179*
X00052234896*
Y00003353892*
Y00003370580*
Y00003387293*
X00052251584*
Y00003403981*
Y00003420694*
X00052268297*
Y00003437382*
Y00003454095*
Y00003470783*
X00052284985*
Y00003487394*
Y00003504082*
Y00003520795*
X00052301698*
Y00003537483*
Y00003554196*
X00052318285*
Y00003570884*
X00052668881*
Y00003554196*
Y00003537483*
X00052652193*
Y00003520795*
Y00003504082*
X00052635480*
Y00003487394*
Y00003470783*
Y00003454095*
X00052618792*
Y00003437382*
Y00003420694*
Y00003403981*
X00052602079*
Y00003387293*
Y00003370580*
X00052585391*
Y00003353892*
Y00003337179*
Y00003320491*
X00052568678*
Y00003303778*
Y00003287090*
X00052551990*
Y00003270478*
Y00003253790*
Y00003237077*
X00052535277*
Y00003220389*
Y00003203676*
X00052518589*
Y00003186988*
Y00003170275*
Y00003153587*
X00052501876*
Y00003136900*
Y00003120186*
X00052485290*
Y00003103499*
Y00003086785*
Y00003070098*
X00052468576*
Y00003053486*
Y00003036798*
Y00003020085*
X00052451889*
Y00003003397*
Y00002986684*
X00052435175*
Y00002969996*
Y00002953283*
Y00002936595*
X00052418488*
Y00002919882*
Y00002903194*
X00052401774*
Y00002886481*
Y00002869793*
Y00002853182*
X00052385087*
Y00002836494*
Y00002819781*
X00052368399*
Y00002803093*
Y00002786380*
Y00002769692*
X00052351686*
Y00002752979*
Y00002736291*
X00052334998*
Y00002719578*
Y00002702890*
Y00002686177*
X00052318285*
Y00002669489*
Y00002652776*
Y00002636189*
X00052301698*
Y00002619476*
Y00002602788*
X00052284985*
Y00002586075*
Y00002569387*
Y00002552700*
X00052268297*
Y00002535986*
Y00002519299*
X00052251584*
Y00002502585*
Y00002485898*
Y00002469184*
X00052234896*
Y00002452497*
Y00002435885*
X00052218183*
Y00002419197*
Y00002402484*
Y00002385796*
X00052201495*
Y00002369083*
Y00002352395*
X00052184782*
Y00002335682*
Y00002318994*
Y00002302281*
X00052168094*
Y00002285593*
Y00002268880*
Y00002252294*
X00052151381*
Y00002235581*
Y00002218893*
X00052134693*
Y00002202180*
Y00002185492*
Y00002168779*
X00052117980*
Y00002152091*
Y00002135378*
X00052101292*
Y00002118690*
Y00002101977*
Y00002085289*
X00052084681*
Y00002068576*
Y00002051888*
X00052067993*
Y00002035276*
Y00002018588*
Y00002001875*
X00052051280*
Y00001985187*
Y00001968500*
Y00001951786*
X00052034592*
Y00001935099*
Y00001918385*
X00052017879*
Y00001901698*
Y00001884984*
Y00001868398*
X00052001191*
Y00001851583*
Y00001834997*
X00051984478*
Y00001818284*
Y00001801596*
Y00001784883*
X00051967790*
Y00001768195*
Y00001751482*
X00051951077*
Y00001734794*
Y00001718081*
Y00001701393*
X00051934389*
Y00001684680*
Y00001667992*
X00051917676*
Y00001651381*
Y00001634693*
Y00001617980*
X00051901090*
Y00001601292*
Y00001584579*
Y00001567891*
X00051884376*
Y00001551178*
Y00001534490*
X00051867689*
Y00001517777*
Y00001501089*
Y00001484376*
X00051850975*
Y00001467688*
Y00001451076*
X00051834288*
Y00001434388*
Y00001417675*
Y00001400987*
X00051817574*
Y00001384300*
Y00001367586*
X00051800887*
Y00001350899*
Y00001334185*
Y00001317498*
X00051784199*
Y00001300784*
Y00001284097*
X00051767486*
Y00001267383*
Y00001250696*
Y00001234084*
X00051750798*
Y00001217396*
Y00001200683*
Y00001183995*
X00051734085*
Y00001167282*
Y00001150594*
X00051717397*
Y00001133881*
Y00001117193*
Y00001100480*
X00051700684*
Y00001083792*
Y00001067079*
X00051684097*
Y00001050391*
Y00001033780*
Y00001017092*
X00051667384*
Y00001000379*
Y00000983691*
X00051650696*
Y00000966978*
Y00000950290*
Y00000933577*
X00051633983*
Y00000916889*
Y00000900176*
X00051617295*
Y00000883488*
Y00000866775*
Y00000850087*
X00051600582*
Y00000833475*
Y00000816787*
Y00000800100*
X00051583894*
Y00000783386*
Y00000766699*
X00051567181*
Y00000749985*
X00051199999*
Y00000766699*
Y00000783386*
Y00000800100*
X00051183286*
Y00000816787*
Y00000833475*
X00051166598*
Y00000850087*
Y00000866775*
Y00000883488*
X00051149885*
Y00000900176*
Y00000916889*
X00051133197*
Y00000933577*
Y00000950290*
Y00000966978*
X00051116484*
Y00000983691*
Y00001000379*
Y00001017092*
X00051099796*
Y00001033780*
Y00001050391*
X00051083184*
Y00001067079*
Y00001083792*
Y00001100480*
X00051066496*
Y00001117193*
Y00001133881*
X00051049783*
Y00001150594*
Y00001167282*
Y00001183995*
X00051033095*
Y00001200683*
Y00001217396*
X00051016382*
Y00001234084*
Y00001250696*
Y00001267383*
X00050999694*
Y00001284097*
Y00001300784*
Y00001317498*
X00050982981*
Y00001334185*
Y00001350899*
X00050966293*
Y00001367586*
Y00001384300*
Y00001400987*
X00050949580*
Y00001417675*
Y00001434388*
X00050932892*
Y00001451076*
Y00001467688*
Y00001484376*
X00050916179*
Y00001501089*
Y00001517777*
Y00001534490*
X00050899593*
Y00001551178*
Y00001567891*
X00050882880*
Y00001584579*
Y00001601292*
Y00001617980*
X00050866192*
Y00001634693*
Y00001651381*
X00050849479*
Y00001667992*
Y00001684680*
Y00001701393*
X00050832791*
Y00001718081*
Y00001734794*
Y00001751482*
X00050816078*
Y00001768195*
Y00001784883*
X00050799390*
Y00001801596*
Y00001818284*
Y00001834997*
X00050782677*
Y00001851583*
Y00001868398*
X00050765989*
Y00001884984*
Y00001901698*
Y00001918385*
X00050749276*
Y00001935099*
Y00001951786*
X00050732588*
Y00001968500*
Y00001985187*
Y00002001875*
X00050715875*
Y00002018588*
Y00002035276*
Y00002051888*
X00050699187*
Y00002068576*
Y00002085289*
X00050682575*
Y00002101977*
Y00002118690*
Y00002135378*
X00050665888*
Y00002152091*
Y00002168779*
X00050649174*
Y00002185492*
Y00002202180*
Y00002218893*
X00050632487*
Y00002235581*
Y00002252294*
Y00002268880*
X00050615799*
Y00002285593*
Y00002302281*
X00050599086*
Y00002318994*
Y00002335682*
Y00002352395*
X00050582398*
Y00002369083*
Y00002385796*
X00050565685*
Y00002402484*
Y00002419197*
Y00002435885*
X00050548997*
Y00002452497*
Y00002469184*
X00050482296*
Y00002452497*
X00050432182*
Y00002435885*
X00050365380*
Y00002419197*
X00050281992*
Y00002402484*
X00050148388*
Y00002385796*
X00049948084*
Y00002402484*
X00049797893*
Y00002419197*
X00049714378*
Y00002435885*
X00049664391*
Y00002452497*
X00049597589*
Y00002469184*
X00049564188*
Y00002485898*
X00049514099*
Y00002502585*
X00049480774*
Y00002519299*
X00049447399*
Y00002535986*
X00049413998*
Y00002552700*
X00049380597*
Y00002569387*
X00049347196*
Y00002586075*
X00049330483*
Y00002602788*
X00049297082*
Y00002619476*
X00049280495*
Y00002636189*
X00049247094*
Y00002652776*
X00049230381*
Y00002669489*
X00049213693*
Y00002686177*
X00049180292*
Y00002702890*
X00049163579*
Y00002719578*
X00049146891*
Y00002736291*
X00049130178*
Y00002752979*
X00049113490*
Y00002769692*
X00049096777*
Y00002786380*
X00049080191*
Y00002803093*
X00049063478*
Y00002819781*
X00049046790*
Y00002836494*
X00049030077*
Y00002853182*
Y00002869793*
X00049013389*
Y00002886481*
X00048996676*
Y00002903194*
X00048979988*
Y00002919882*
Y00002936595*
X00048963275*
Y00002953283*
X00048946587*
Y00002969996*
Y00002986684*
X00048929899*
Y00003003397*
X00048913186*
Y00003020085*
Y00003036798*
X00048896498*
Y00003053486*
Y00003070098*
X00048879785*
Y00003086785*
Y00003103499*
X00048863199*
Y00003120186*
Y00003136900*
X00048846486*
Y00003153587*
Y00003170275*
X00048829798*
Y00003186988*
Y00003203676*
X00048813085*
Y00003220389*
Y00003237077*
Y00003253790*
X00048796397*
Y00003270478*
Y00003287090*
Y00003303778*
X00048779684*
Y00003320491*
Y00003337179*
Y00003353892*
X00048762996*
Y00003370580*
Y00003387293*
Y00003403981*
Y00003420694*
X00048746283*
Y00003437382*
Y00003454095*
Y00003470783*
Y00003487394*
X00048729595*
Y00003504082*
Y00003520795*
Y00003537483*
Y00003554196*
Y00003570884*
Y00003587597*
X00048712882*
Y00003604285*
Y00003620998*
Y00003637686*
Y00003654399*
Y00003671087*
Y00003687699*
Y00003704386*
Y00003721100*
Y00003737787*
Y00003754475*
Y00003771188*
Y00003787876*
Y00003804589*
Y00003821277*
Y00003837990*
Y00003854678*
Y00003871391*
Y00003887978*
Y00003904691*
Y00003921379*
Y00003938092*
Y00003954780*
Y00003971493*
Y00003988181*
Y00004004894*
Y00004021582*
Y00004038295*
Y00004054983*
Y00004071696*
Y00004088282*
X00048729595*
Y00004104995*
Y00004121683*
Y00004138396*
Y00004155084*
Y00004171797*
Y00004188485*
X00048746283*
Y00004205198*
Y00004221886*
Y00004238599*
Y00004255185*
Y00004271899*
X00048762996*
Y00004288586*
Y00004305300*
Y00004321987*
Y00004338675*
X00048779684*
Y00004355388*
Y00004372076*
Y00004388789*
X00048796397*
Y00004405477*
Y00004422190*
Y00004438878*
X00048813085*
Y00004455591*
Y00004472178*
Y00004488891*
X00048829798*
Y00004505579*
Y00004522292*
X00048846486*
Y00004538980*
Y00004555693*
Y00004572381*
X00048863199*
Y00004589094*
Y00004605782*
X00048879785*
Y00004622495*
Y00004639183*
X00048896498*
Y00004655896*
X00048913186*
Y00004672584*
Y00004689195*
X00048929899*
Y00004705883*
Y00004722596*
X00048946587*
Y00004739284*
X00048963275*
Y00004755997*
Y00004772685*
X00048979988*
Y00004789398*
X00048996676*
Y00004806086*
X00049013389*
Y00004822799*
Y00004839487*
X00049030077*
Y00004856175*
X00049046790*
Y00004872786*
X00049063478*
Y00004889500*
X00049080191*
Y00004906187*
X00049096777*
Y00004922875*
X00049113490*
Y00004939588*
X00049130178*
Y00004956276*
X00049146891*
Y00004972989*
X00049163579*
Y00004989677*
X00049180292*
Y00005006390*
X00049196980*
Y00005023078*
X00049230381*
Y00005039791*
X00049247094*
Y00005056479*
X00049263782*
Y00005073192*
X00049297082*
Y00005089779*
X00049313795*
Y00005106492*
X00049347196*
Y00005123180*
X00049380597*
Y00005139893*
X00049397285*
Y00005156581*
X00049430686*
Y00005173294*
X00049480774*
Y00005189982*
X00049514099*
Y00005206695*
X00049547475*
Y00005223383*
X00049597589*
Y00005240096*
X00049664391*
Y00005256784*
X00049731091*
Y00005273395*
X00049814581*
Y00005290083*
X00050031599*
Y00005306796*
X00050064974*
Y00005290083*
G37*
G36*
X00062499976Y00005113680D02*
X00061999977Y00005363692D01*
Y00004863693*
X00062499976Y00005113680*
G37*
G36*
X00084799982Y00004763795D02*
X00084424977Y00005513781D01*
X00085174988*
X00084799982Y00004763795*
G37*
G36*
X00105399992Y00002063775D02*
X00105899991Y00001813788D01*
Y00002313787*
X00105399992Y00002063775*
G37*
G36*
X00059588577Y00003397681D02*
X00059019998D01*
Y00003103981*
X00059552078*
Y00002990494*
X00059019998*
Y00002663494*
X00059610396*
Y00002549982*
X00058892897*
Y00003511194*
X00059588577*
Y00003397681*
G37*
G36*
X00058264882Y00002663494D02*
X00058738795D01*
Y00002549982*
X00058137882*
Y00003511194*
X00058264882*
Y00002663494*
G37*
G36*
X00057629679Y00003510178D02*
X00057641083D01*
X00057652589Y00003509086*
X00057666077Y00003507079*
X00057693179Y00003503879*
X00057723379Y00003498697*
X00057751497Y00003491382*
X00057778599Y00003480993*
X00057779691*
X00057781698Y00003479977*
X00057784898Y00003477895*
X00057790080Y00003475786*
X00057801484Y00003468497*
X00057817080Y00003459099*
X00057833793Y00003446678*
X00057850481Y00003430981*
X00057867092Y00003412286*
X00057882790Y00003391382*
Y00003390392*
X00057884796Y00003388283*
X00057885888Y00003385185*
X00057888987Y00003380994*
X00057892086Y00003375787*
X00057895185Y00003368497*
X00057902475Y00003352876*
X00057908799Y00003334181*
X00057914997Y00003312287*
X00057919188Y00003289376*
X00057921296Y00003264382*
Y00003263392*
Y00003261283*
Y00003258185*
Y00003253994*
X00057919188Y00003242487*
X00057917080Y00003226892*
X00057912889Y00003209188*
X00057906691Y00003189376*
X00057898385Y00003169589*
X00057886879Y00003148787*
Y00003147796*
X00057885888Y00003146679*
X00057883780Y00003143580*
X00057880681Y00003139389*
X00057873392Y00003130092*
X00057861885Y00003117596*
X00057848398Y00003103981*
X00057830694Y00003089376*
X00057810882Y00003074898*
X00057786879Y00003061284*
X00057787997*
X00057791096Y00003060293*
X00057795287Y00003058185*
X00057801484Y00003056077*
X00057808799Y00003052978*
X00057817080Y00003049879*
X00057835876Y00003040481*
X00057857796Y00003028975*
X00057879589Y00003013379*
X00057901484Y00002995676*
X00057920178Y00002973882*
X00057921296Y00002972790*
X00057922287Y00002970682*
X00057924395Y00002967583*
X00057927494Y00002963392*
X00057931685Y00002957195*
X00057935876Y00002949879*
X00057939990Y00002941599*
X00057944181Y00002932176*
X00057952487Y00002911398*
X00057960793Y00002886379*
X00057966076Y00002858185*
X00057968083Y00002843682*
Y00002827985*
Y00002826994*
Y00002824886*
Y00002821787*
Y00002816580*
X00057967092Y00002810281*
Y00002804083*
X00057964984Y00002787396*
X00057960793Y00002767584*
X00057955688Y00002746781*
X00057948398Y00002723896*
X00057938974Y00002701975*
Y00002700985*
X00057937882Y00002699994*
X00057935876Y00002696794*
X00057933793Y00002692679*
X00057927494Y00002682290*
X00057919188Y00002669794*
X00057909790Y00002655189*
X00057897293Y00002640584*
X00057883780Y00002625979*
X00057868185Y00002612491*
X00057866076Y00002611399*
X00057860895Y00002607284*
X00057851497Y00002602077*
X00057838975Y00002594787*
X00057824395Y00002587498*
X00057806691Y00002579192*
X00057785889Y00002571877*
X00057762978Y00002565577*
X00057761987*
X00057759879Y00002564587*
X00057756679*
X00057751497Y00002563495*
X00057745299Y00002562479*
X00057737984Y00002560396*
X00057729678Y00002559380*
X00057720280Y00002558288*
X00057709892Y00002556281*
X00057697395Y00002555189*
X00057671284Y00002552090*
X00057641083Y00002550998*
X00057607784Y00002549982*
X00057242278*
Y00003511194*
X00057620281*
X00057629679Y00003510178*
G37*
G36*
X00057146494Y00002549982D02*
X00057001689D01*
X00056890285Y00002840482*
X00056486196*
X00056382081Y00002549982*
X00056247690*
X00056615380Y00003511194*
X00056752794*
X00057146494Y00002549982*
G37*
G36*
X00055727092Y00002663494D02*
X00056200878D01*
Y00002549982*
X00055599990*
Y00003511194*
X00055727092*
Y00002663494*
G37*
G36*
X00076398297Y00005725591D02*
X00076412877Y00005724677D01*
X00076429387Y00005722696*
X00076446888Y00005720791*
X00076466192Y00005717895*
X00076486588Y00005713984*
X00076507975Y00005709081*
X00076529285Y00005704281*
X00076551586Y00005697499*
X00076572999Y00005688787*
X00076593395Y00005679998*
X00076612775Y00005669381*
X00076631190Y00005656783*
X00076632181Y00005655792*
X00076635076Y00005653887*
X00076639877Y00005649976*
X00076646684Y00005644083*
X00076653491Y00005636387*
X00076662178Y00005628589*
X00076671982Y00005617895*
X00076681685Y00005606288*
X00076692277Y00005593689*
X00076701980Y00005579084*
X00076712699Y00005562600*
X00076722376Y00005546191*
X00076731088Y00005527675*
X00076739877Y00005507278*
X00076746684Y00005485993*
X00076752475Y00005463692*
X00076572999Y00005429681*
Y00005430697*
X00076571983Y00005432577*
X00076570992Y00005436489*
X00076569087Y00005440375*
X00076567182Y00005446191*
X00076564185Y00005452999*
X00076556489Y00005467477*
X00076546786Y00005483987*
X00076534187Y00005501487*
X00076519582Y00005517997*
X00076501193Y00005533491*
X00076500177*
X00076499186Y00005535498*
X00076496291Y00005537377*
X00076491490Y00005539384*
X00076486588Y00005542280*
X00076480797Y00005546191*
X00076472999Y00005549087*
X00076465277Y00005552897*
X00076446888Y00005559679*
X00076424485Y00005566486*
X00076399288Y00005570397*
X00076371196Y00005572277*
X00076359486*
X00076351790Y00005571388*
X00076342087Y00005570397*
X00076330378Y00005568492*
X00076316789Y00005565495*
X00076303276Y00005562600*
X00076288696Y00005558790*
X00076273177Y00005553887*
X00076257581Y00005548096*
X00076242087Y00005540298*
X00076226593Y00005531586*
X00076211099Y00005521883*
X00076196494Y00005510276*
X00076182880Y00005496687*
X00076181991Y00005495696*
X00076179984Y00005492775*
X00076176098Y00005488889*
X00076172288Y00005482082*
X00076166395Y00005474284*
X00076160579Y00005464581*
X00076154788Y00005453989*
X00076147980Y00005440375*
X00076141199Y00005425795*
X00076135382Y00005409285*
X00076129591Y00005390896*
X00076123698Y00005370499*
X00076119888Y00005349189*
X00076115976Y00005325897*
X00076113995Y00005300675*
X00076113081Y00005273497*
Y00005271592*
Y00005266690*
X00076113995Y00005257977*
Y00005247284*
X00076114986Y00005233695*
X00076116992Y00005219192*
X00076118897Y00005201691*
X00076121793Y00005183276*
X00076125679Y00005164785*
X00076130480Y00005144490*
X00076136398Y00005124983*
X00076143180Y00005104688*
X00076150876Y00005085283*
X00076160579Y00005066792*
X00076171298Y00005049393*
X00076183896Y00005033797*
X00076184887Y00005032883*
X00076186792Y00005030876*
X00076191694Y00005026075*
X00076196494Y00005021199*
X00076204292Y00005015382*
X00076211988Y00005008575*
X00076222682Y00005001793*
X00076233375Y00004994097*
X00076245999Y00004986299*
X00076260579Y00004979492*
X00076275082Y00004972685*
X00076291592Y00004966893*
X00076309982Y00004961991*
X00076328498Y00004958181*
X00076347878Y00004955184*
X00076369189Y00004954295*
X00076378892*
X00076383794Y00004955184*
X00076390576*
X00076405079Y00004957191*
X00076422580Y00004960086*
X00076440995Y00004963998*
X00076461391Y00004968798*
X00076482676Y00004976596*
X00076483692*
X00076485699Y00004977587*
X00076488594Y00004978476*
X00076492379Y00004980482*
X00076503098Y00004985283*
X00076516687Y00004992090*
X00076532181Y00004999888*
X00076548691Y00005008575*
X00076565175Y00005018278*
X00076581685Y00005029987*
Y00005144490*
X00076375082*
Y00005295798*
X00076764083*
Y00004937785*
X00076763194Y00004936794*
X00076761187Y00004935778*
X00076758292Y00004932883*
X00076753491Y00004928997*
X00076747598Y00004924196*
X00076740791Y00004918379*
X00076732079Y00004912487*
X00076722376Y00004905781*
X00076710794Y00004897983*
X00076699084Y00004890185*
X00076685495Y00004882489*
X00076669976Y00004874691*
X00076654482Y00004865979*
X00076636981Y00004858181*
X00076618592Y00004849495*
X00076599186Y00004841697*
X00076598195*
X00076594284Y00004839792*
X00076588493Y00004837785*
X00076580695Y00004834890*
X00076570992Y00004831994*
X00076559384Y00004828082*
X00076545795Y00004825187*
X00076531292Y00004821377*
X00076515696Y00004817491*
X00076498297Y00004813579*
X00076480797Y00004809693*
X00076461391Y00004806797*
X00076421589Y00004801895*
X00076401193Y00004800981*
X00076380898Y00004799990*
X00076367284*
X00076357581Y00004800981*
X00076344983Y00004801895*
X00076330378Y00004802886*
X00076314884Y00004804892*
X00076297383Y00004807788*
X00076278994Y00004810683*
X00076259588Y00004814493*
X00076239192Y00004819396*
X00076217881Y00004824298*
X00076196494Y00004830978*
X00076176098Y00004838776*
X00076155778Y00004847488*
X00076135382Y00004858181*
X00076134391Y00004859197*
X00076130480Y00004861077*
X00076125679Y00004863998*
X00076117881Y00004868875*
X00076110185Y00004875682*
X00076099492Y00004882489*
X00076088798Y00004891176*
X00076077191Y00004901895*
X00076064592Y00004912487*
X00076051892Y00004925187*
X00076038379Y00004939690*
X00076025679Y00004954295*
X00076013081Y00004970780*
X00076000483Y00004988179*
X00075989891Y00005006695*
X00075979197Y00005027091*
X00075978181Y00005027980*
X00075977191Y00005031892*
X00075974295Y00005037683*
X00075971400Y00005046497*
X00075967488Y00005056098*
X00075962687Y00005068798*
X00075957785Y00005082286*
X00075952985Y00005097881*
X00075948082Y00005115280*
X00075943282Y00005133797*
X00075939396Y00005153177*
X00075934493Y00005173599*
X00075931598Y00005195874*
X00075928677Y00005218176*
X00075927686Y00005241493*
X00075926797Y00005265699*
Y00005267680*
Y00005271592*
Y00005279288*
X00075927686Y00005288991*
X00075928677Y00005301589*
X00075929693Y00005316194*
X00075931598Y00005331688*
X00075934493Y00005349189*
X00075937389Y00005367578*
X00075941275Y00005387975*
X00075946177Y00005408396*
X00075950978Y00005429681*
X00075957785Y00005451094*
X00075965583Y00005472379*
X00075974295Y00005493791*
X00075984989Y00005514086*
X00075985979Y00005515076*
X00075987884Y00005518988*
X00075990780Y00005524779*
X00075995682Y00005532577*
X00076002489Y00005541289*
X00076009195Y00005551982*
X00076017983Y00005563590*
X00076028677Y00005576189*
X00076039294Y00005589778*
X00076052883Y00005603392*
X00076066497Y00005616981*
X00076081991Y00005631484*
X00076098476Y00005645099*
X00076116992Y00005657697*
X00076136398Y00005670296*
X00076156693Y00005681980*
X00076157683Y00005682996*
X00076160579Y00005683885*
X00076165481Y00005685891*
X00076172288Y00005688787*
X00076180975Y00005692698*
X00076190678Y00005696483*
X00076202286Y00005700395*
X00076215875Y00005704281*
X00076230480Y00005708192*
X00076246990Y00005712079*
X00076264389Y00005715889*
X00076283794Y00005719775*
X00076304190Y00005722696*
X00076325577Y00005724677*
X00076347878Y00005726582*
X00076387680*
X00076398297Y00005725591*
G37*
G36*
X00077676197Y00005479186D02*
X00077682979Y00005478195D01*
X00077699489Y00005476290*
X00077717878Y00005473395*
X00077738274Y00005467477*
X00077758696Y00005460796*
X00077778076Y00005451094*
X00077778991*
X00077779981Y00005450078*
X00077785798Y00005445175*
X00077794586Y00005438394*
X00077806194Y00005429681*
X00077817776Y00005417083*
X00077830476Y00005402478*
X00077842084Y00005385079*
X00077851787Y00005365699*
X00077852778Y00005363692*
X00077853794Y00005360797*
X00077854683Y00005357876*
X00077855699Y00005353075*
X00077857578Y00005347182*
X00077859585Y00005341391*
X00077861490Y00005333695*
X00077862480Y00005323890*
X00077864385Y00005314188*
X00077866392Y00005303596*
X00077867281Y00005290997*
X00077868297Y00005278297*
X00077869288Y00005263794*
X00077870177Y00005247284*
Y00005230799*
Y00004816475*
X00077698498*
Y00005187086*
Y00005188077*
Y00005190998*
Y00005195874*
Y00005202682*
X00077697482Y00005210378*
Y00005219192*
X00077696593Y00005239486*
X00077693697Y00005259882*
X00077690776Y00005281295*
X00077688795Y00005289981*
X00077685900Y00005298694*
X00077682979Y00005306491*
X00077680083Y00005312283*
X00077679092Y00005314188*
X00077675181Y00005318099*
X00077670380Y00005323890*
X00077662582Y00005330698*
X00077651889Y00005337479*
X00077639291Y00005343398*
X00077624787Y00005347182*
X00077607287Y00005349189*
X00077601495*
X00077594688Y00005348198*
X00077584985Y00005346293*
X00077575283Y00005343398*
X00077563599Y00005339486*
X00077551991Y00005334584*
X00077539392Y00005326888*
X00077538376Y00005325897*
X00077534490Y00005322976*
X00077528699Y00005317185*
X00077521892Y00005310378*
X00077514196Y00005301589*
X00077506398Y00005289981*
X00077499591Y00005277383*
X00077493799Y00005261787*
X00077492783Y00005259882*
Y00005256987*
X00077491793Y00005254091*
X00077490878Y00005249189*
X00077489888Y00005243398*
X00077487983Y00005237581*
X00077486992Y00005229783*
X00077485976Y00005221097*
X00077484097Y00005210378*
X00077483081Y00005199786*
X00077482090Y00005188077*
X00077481176Y00005174488*
Y00005159984*
X00077480185Y00005144490*
Y00005127980*
Y00004816475*
X00077308481*
Y00005171592*
Y00005172583*
Y00005175478*
Y00005180279*
Y00005187086*
Y00005194884*
Y00005203596*
X00077307490Y00005222976*
X00077306474Y00005243398*
X00077304595Y00005263794*
X00077303579Y00005272481*
X00077301699Y00005281295*
X00077300683Y00005288076*
X00077298778Y00005293893*
Y00005294782*
X00077296797Y00005298694*
X00077294892Y00005303596*
X00077291996Y00005309387*
X00077283183Y00005322976*
X00077277391Y00005329783*
X00077270584Y00005335574*
X00077269594Y00005336590*
X00077266698Y00005337479*
X00077262786Y00005339486*
X00077256995Y00005342382*
X00077249299Y00005345277*
X00077240485Y00005347182*
X00077229893Y00005348198*
X00077218184Y00005349189*
X00077211377*
X00077203681Y00005348198*
X00077193978Y00005346293*
X00077183284Y00005343398*
X00077171677Y00005339486*
X00077158977Y00005334584*
X00077146378Y00005326888*
X00077145388Y00005325897*
X00077141578Y00005322976*
X00077135685Y00005318099*
X00077128979Y00005311292*
X00077122197Y00005302580*
X00077114400Y00005291886*
X00077107592Y00005279288*
X00077101776Y00005264785*
X00077100785Y00005262778*
Y00005260898*
X00077099896Y00005256987*
X00077098880Y00005253075*
X00077097890Y00005247284*
X00077095985Y00005240477*
X00077094994Y00005233695*
X00077093978Y00005224983*
X00077092098Y00005215280*
X00077091082Y00005203596*
X00077090092Y00005191988*
X00077089177Y00005178399*
Y00005163896*
X00077088187Y00005148275*
Y00005131790*
Y00004816475*
X00076916483*
Y00005465597*
X00077074598*
Y00005376291*
X00077075588Y00005377281*
X00077078484Y00005381193*
X00077083386Y00005386095*
X00077090092Y00005392775*
X00077097890Y00005400598*
X00077107592Y00005409285*
X00077119175Y00005418988*
X00077131875Y00005428691*
X00077145388Y00005438394*
X00077160983Y00005447182*
X00077177493Y00005455894*
X00077194892Y00005463692*
X00077214298Y00005470499*
X00077233678Y00005475274*
X00077255090Y00005479186*
X00077276375Y00005480177*
X00077287094*
X00077291996Y00005479186*
X00077298778*
X00077313282Y00005477281*
X00077329792Y00005473395*
X00077348181Y00005469483*
X00077366698Y00005462676*
X00077384097Y00005453989*
X00077385087*
X00077386078Y00005452999*
X00077391895Y00005449087*
X00077400581Y00005443296*
X00077411275Y00005434584*
X00077422984Y00005423890*
X00077435583Y00005410276*
X00077448181Y00005394782*
X00077459789Y00005376291*
X00077460779Y00005377281*
X00077461795Y00005378297*
X00077463675Y00005381193*
X00077467587Y00005385079*
X00077476299Y00005393791*
X00077486992Y00005405475*
X00077501496Y00005418099*
X00077517091Y00005431688*
X00077533576Y00005443296*
X00077551991Y00005453989*
X00077552981*
X00077553896Y00005454878*
X00077556791Y00005456885*
X00077560678Y00005457799*
X00077570380Y00005462676*
X00077583995Y00005467477*
X00077599489Y00005471388*
X00077617980Y00005476290*
X00077637386Y00005479186*
X00077657782Y00005480177*
X00077669390*
X00077676197Y00005479186*
G37*
G36*
X00079522599Y00004816475D02*
X00079342183D01*
Y00005208498*
X00078986989*
Y00004816475*
X00078806598*
Y00005712079*
X00078986989*
Y00005359781*
X00079342183*
Y00005712079*
X00079522599*
Y00004816475*
G37*
G36*
X00074445190Y00005479186D02*
X00074455782Y00005478195D01*
X00074466475Y00005477281*
X00074480089Y00005476290*
X00074493678Y00005473395*
X00074523777Y00005467477*
X00074554791Y00005458790*
X00074570285Y00005452999*
X00074585880Y00005446191*
X00074600384Y00005437479*
X00074613998Y00005428691*
X00074614989Y00005427776*
X00074616894Y00005426786*
X00074620780Y00005423890*
X00074625581Y00005418988*
X00074631397Y00005414187*
X00074638281Y00005407380*
X00074644986Y00005399582*
X00074652784Y00005390896*
X00074660582Y00005380177*
X00074669294Y00005368594*
X00074677981Y00005355996*
X00074685779Y00005342382*
X00074694491Y00005326888*
X00074701298Y00005311292*
X00074709096Y00005292877*
X00074714887Y00005274487*
X00074546079Y00005244388*
Y00005245379*
Y00005246293*
X00074544097Y00005252186*
X00074541176Y00005261787*
X00074538281Y00005272481*
X00074532490Y00005284190*
X00074525682Y00005296789*
X00074516996Y00005308396*
X00074506277Y00005319090*
X00074505286Y00005320080*
X00074500486Y00005322976*
X00074494593Y00005327777*
X00074484890Y00005332679*
X00074474298Y00005336590*
X00074460684Y00005341391*
X00074445190Y00005344287*
X00074427689Y00005345277*
X00074421898*
X00074416996Y00005344287*
X00074412195*
X00074405388Y00005343398*
X00074390783Y00005339486*
X00074374298Y00005334584*
X00074357788Y00005326888*
X00074341278Y00005315178*
X00074333582Y00005308396*
X00074325784Y00005300675*
Y00005299684*
X00074323879Y00005298694*
X00074321898Y00005295798*
X00074319993Y00005291886*
X00074317098Y00005287086*
X00074314177Y00005281295*
X00074310290Y00005273497*
X00074307395Y00005265699*
X00074303483Y00005255996*
X00074299597Y00005244388*
X00074296676Y00005232679*
X00074293780Y00005219192*
X00074291875Y00005204587*
X00074289894Y00005188077*
X00074287989Y00005170678*
Y00005152186*
Y00005151196*
Y00005147386*
Y00005141493*
X00074288878Y00005133797*
Y00005124094*
X00074289894Y00005113375*
X00074290885Y00005101793*
X00074292790Y00005088178*
X00074297692Y00005061991*
X00074303483Y00005034788*
X00074308284Y00005022189*
X00074313186Y00005009591*
X00074318977Y00004998897*
X00074325784Y00004989195*
Y00004988179*
X00074327791Y00004987290*
X00074332592Y00004981397*
X00074341278Y00004974590*
X00074353978Y00004965877*
X00074368482Y00004957191*
X00074385982Y00004949393*
X00074407293Y00004943576*
X00074418977Y00004942586*
X00074430585Y00004941697*
X00074438383*
X00074448085Y00004943576*
X00074458677Y00004945481*
X00074471377Y00004948478*
X00074484890Y00004953279*
X00074497590Y00004960086*
X00074510188Y00004968798*
X00074511077Y00004969789*
X00074514989Y00004974590*
X00074520780Y00004981397*
X00074527587Y00004991100*
X00074534395Y00005004689*
X00074542192Y00005021199*
X00074549000Y00005041595*
X00074554791Y00005064887*
X00074723599Y00005035778*
Y00005034788*
X00074722685Y00005030876*
X00074720678Y00005025085*
X00074717783Y00005016398*
X00074714887Y00005006695*
X00074710975Y00004995976*
X00074706175Y00004983378*
X00074700282Y00004969789*
X00074686795Y00004941697*
X00074678997Y00004927092*
X00074669294Y00004912487*
X00074658575Y00004897983*
X00074647882Y00004884394*
X00074635283Y00004871796*
X00074621694Y00004860188*
X00074620780Y00004859197*
X00074618799Y00004857292*
X00074613998Y00004854295*
X00074608182Y00004851400*
X00074600384Y00004846599*
X00074591697Y00004841697*
X00074580978Y00004836896*
X00074569396Y00004830978*
X00074555781Y00004825187*
X00074541176Y00004820386*
X00074524692Y00004815484*
X00074506277Y00004810683*
X00074487786Y00004807788*
X00074467491Y00004804892*
X00074446079Y00004802886*
X00074422787Y00004801895*
X00074416996*
X00074409300Y00004802886*
X00074399597*
X00074387887Y00004804892*
X00074373384Y00004806797*
X00074357788Y00004809693*
X00074341278Y00004813579*
X00074323879Y00004817491*
X00074305388Y00004823282*
X00074286999Y00004830978*
X00074267593Y00004839792*
X00074249178Y00004849495*
X00074230687Y00004862093*
X00074213288Y00004875682*
X00074196778Y00004891176*
X00074195787Y00004892192*
X00074192892Y00004895088*
X00074188980Y00004900879*
X00074183189Y00004907686*
X00074177398Y00004917389*
X00074170590Y00004928082*
X00074162793Y00004941697*
X00074155096Y00004956175*
X00074146283Y00004972685*
X00074139475Y00004991100*
X00074131779Y00005011496*
X00074125886Y00005033797*
X00074120095Y00005058079*
X00074116184Y00005083276*
X00074113288Y00005110480*
X00074112399Y00005139588*
Y00005141493*
Y00005146395*
X00074113288Y00005155082*
Y00005165775*
X00074115295Y00005179390*
X00074117200Y00005194884*
X00074119079Y00005212384*
X00074122991Y00005231790*
X00074127893Y00005251196*
X00074132694Y00005271592*
X00074139475Y00005291886*
X00074148188Y00005313299*
X00074157992Y00005333695*
X00074168584Y00005353989*
X00074182198Y00005372481*
X00074196778Y00005389880*
X00074197692Y00005390896*
X00074200689Y00005393791*
X00074205490Y00005398693*
X00074212297Y00005404485*
X00074220984Y00005411292*
X00074230687Y00005418099*
X00074243285Y00005426786*
X00074256900Y00005435498*
X00074272495Y00005443296*
X00074289894Y00005451983*
X00074308284Y00005458790*
X00074328680Y00005466588*
X00074350981Y00005471388*
X00074374298Y00005476290*
X00074399597Y00005479186*
X00074425784Y00005480177*
X00074437392*
X00074445190Y00005479186*
G37*
G36*
X00071932088Y00004816475D02*
X00071738083D01*
X00071418881Y00005712079*
X00071613877*
X00071840877Y00005049393*
X00072060181Y00005712079*
X00072252281*
X00071932088Y00004816475*
G37*
G36*
X00075015699Y00005382183D02*
X00075016588Y00005383098D01*
X00075019585Y00005386095*
X00075024386Y00005390896*
X00075030177Y00005397677*
X00075037975Y00005404485*
X00075047678Y00005413197*
X00075059286Y00005421884*
X00075070995Y00005431688*
X00075085498Y00005440375*
X00075100078Y00005449087*
X00075116588Y00005457799*
X00075134089Y00005464581*
X00075152478Y00005471388*
X00075171884Y00005476290*
X00075192280Y00005479186*
X00075213591Y00005480177*
X00075223293*
X00075229085Y00005479186*
X00075234977*
X00075249481Y00005477281*
X00075265991Y00005474284*
X00075283491Y00005470499*
X00075301881Y00005465597*
X00075320398Y00005457799*
X00075321287*
X00075322277Y00005456885*
X00075328094Y00005453989*
X00075336882Y00005449087*
X00075347499Y00005442280*
X00075358193Y00005434584*
X00075370791Y00005424881*
X00075381485Y00005414187*
X00075391187Y00005401589*
X00075392178Y00005399582*
X00075395099Y00005395798*
X00075398884Y00005388991*
X00075404776Y00005379288*
X00075409577Y00005368594*
X00075415394Y00005354980*
X00075420296Y00005341391*
X00075424182Y00005325897*
Y00005323890*
X00075425096Y00005320995*
X00075426087Y00005318099*
Y00005313299*
X00075427078Y00005308396*
X00075427992Y00005301589*
X00075428983Y00005293893*
X00075429999Y00005286095*
X00075430989Y00005276392*
X00075431878Y00005265699*
Y00005254091*
X00075432894Y00005241493*
X00075433885Y00005227878*
Y00005212384*
Y00005196789*
Y00004816475*
X00075262079*
Y00005158994*
Y00005159984*
Y00005163896*
Y00005168696*
Y00005175478*
Y00005183276*
X00075261190Y00005192979*
Y00005213299*
X00075259184Y00005235676*
X00075257279Y00005255996*
X00075256288Y00005265699*
X00075255297Y00005274487*
X00075253392Y00005282184*
X00075251487Y00005288076*
Y00005288991*
X00075249481Y00005292877*
X00075247576Y00005297678*
X00075243690Y00005304586*
X00075238889Y00005311292*
X00075232996Y00005319090*
X00075226189Y00005325897*
X00075217477Y00005332679*
X00075216486Y00005333695*
X00075213591Y00005335574*
X00075207799Y00005337479*
X00075200992Y00005341391*
X00075191289Y00005344287*
X00075180596Y00005346293*
X00075168988Y00005348198*
X00075155399Y00005349189*
X00075148592*
X00075139880Y00005348198*
X00075130177Y00005346293*
X00075117579Y00005344287*
X00075104879Y00005340375*
X00075091391Y00005334584*
X00075078793Y00005327777*
X00075077777Y00005326888*
X00075072875Y00005323890*
X00075067083Y00005319090*
X00075060276Y00005312283*
X00075052580Y00005303596*
X00075044782Y00005292877*
X00075036984Y00005279288*
X00075030177Y00005264785*
X00075029288Y00005262778*
Y00005260898*
X00075028298Y00005256987*
X00075025377Y00005247284*
X00075023497Y00005233695*
X00075020474Y00005216194*
X00075017579Y00005194884*
X00075016588Y00005170678*
X00075015699Y00005141493*
Y00004816475*
X00074843894*
Y00005712079*
X00075015699*
Y00005382183*
G37*
G36*
X00073338994Y00005560695D02*
X00073075088D01*
Y00004816475*
X00072894698*
Y00005560695*
X00072628785*
Y00005712079*
X00073338994*
Y00005560695*
G37*
G36*
X00078205990Y00005388991D02*
X00078206879Y00005389880D01*
X00078209775Y00005392775*
X00078213686Y00005397677*
X00078219579Y00005403494*
X00078227275Y00005410276*
X00078236978Y00005418099*
X00078246681Y00005425795*
X00078259279Y00005434584*
X00078271878Y00005443296*
X00078286483Y00005451094*
X00078301977Y00005458790*
X00078318487Y00005465597*
X00078335987Y00005471388*
X00078354377Y00005476290*
X00078372792Y00005479186*
X00078393188Y00005480177*
X00078398090*
X00078404897Y00005479186*
X00078412594*
X00078423287Y00005477281*
X00078434996Y00005475274*
X00078447595Y00005473395*
X00078462098Y00005469483*
X00078477592Y00005464581*
X00078493188Y00005458790*
X00078509698Y00005451983*
X00078526182Y00005443296*
X00078542591Y00005433593*
X00078558186Y00005421884*
X00078574696Y00005409285*
X00078589174Y00005393791*
X00078590190Y00005392775*
X00078592095Y00005389880*
X00078595982Y00005385079*
X00078601798Y00005378297*
X00078607691Y00005369585*
X00078613482Y00005357876*
X00078621178Y00005345277*
X00078627986Y00005330698*
X00078634793Y00005314188*
X00078642591Y00005295798*
X00078648382Y00005275376*
X00078655189Y00005254091*
X00078660091Y00005229783*
X00078663876Y00005204587*
X00078665882Y00005176494*
X00078666797Y00005147386*
Y00005145379*
Y00005140579*
X00078665882Y00005131790*
Y00005120182*
X00078664892Y00005106593*
X00078662987Y00005090083*
X00078660091Y00005072583*
X00078657196Y00005053177*
X00078652293Y00005032883*
X00078647391Y00005011496*
X00078640584Y00004990185*
X00078632888Y00004969789*
X00078624176Y00004948478*
X00078613482Y00004928082*
X00078600884Y00004908677*
X00078587295Y00004891176*
X00078586279Y00004890185*
X00078583383Y00004887290*
X00078579497Y00004883378*
X00078573680Y00004877587*
X00078565883Y00004870780*
X00078556180Y00004863084*
X00078545588Y00004855286*
X00078533879Y00004846599*
X00078520290Y00004837785*
X00078505786Y00004830089*
X00078490292Y00004822291*
X00078472792Y00004815484*
X00078455291Y00004810683*
X00078435885Y00004805781*
X00078416480Y00004802886*
X00078395195Y00004801895*
X00078385492*
X00078374798Y00004803876*
X00078361184Y00004805781*
X00078343683Y00004808677*
X00078325294Y00004813579*
X00078305888Y00004820386*
X00078285492Y00004829098*
X00078284578*
X00078283587Y00004830089*
X00078280691Y00004831994*
X00078276780Y00004833975*
X00078267077Y00004840782*
X00078254479Y00004850485*
X00078239899Y00004862093*
X00078224380Y00004875682*
X00078208886Y00004892192*
X00078193392Y00004911598*
Y00004816475*
X00078034184*
Y00005712079*
X00078205990*
Y00005388991*
G37*
G36*
X00073714483Y00005479186D02*
X00073725176Y00005478195D01*
X00073736885Y00005477281*
X00073751389Y00005475274*
X00073766883Y00005472379*
X00073783393Y00005468493*
X00073801884Y00005462676*
X00073820299Y00005456885*
X00073838689Y00005449087*
X00073858094Y00005439384*
X00073876585Y00005428691*
X00073894975Y00005416092*
X00073912476Y00005400598*
X00073928986Y00005384088*
X00073929875Y00005383098*
X00073932897Y00005379288*
X00073936682Y00005374386*
X00073941584Y00005366588*
X00073948391Y00005355996*
X00073955198Y00005343398*
X00073962895Y00005328793*
X00073970692Y00005312283*
X00073978490Y00005292877*
X00073985297Y00005270576*
X00073991978Y00005247284*
X00073997896Y00005221097*
X00074002696Y00005191988*
X00074006583Y00005160899*
X00074009478Y00005127980*
Y00005092090*
X00073579685*
Y00005091099*
Y00005089093*
Y00005084292*
X00073580599Y00005079390*
X00073581590Y00005072583*
X00073582580Y00005064887*
X00073585476Y00005048377*
X00073590277Y00005028996*
X00073597084Y00005008575*
X00073606787Y00004989195*
X00073620376Y00004971694*
X00073621392*
X00073622382Y00004969789*
X00073627183Y00004964988*
X00073635895Y00004958181*
X00073647579Y00004951399*
X00073662082Y00004943576*
X00073679583Y00004936794*
X00073698989Y00004931994*
X00073709682Y00004930978*
X00073720375Y00004929987*
X00073727081*
X00073733888Y00004930978*
X00073743693Y00004932883*
X00073754284Y00004934889*
X00073764978Y00004938699*
X00073776586Y00004944592*
X00073787279Y00004951399*
X00073788295Y00004952288*
X00073792181Y00004955184*
X00073796982Y00004961077*
X00073802798Y00004968798*
X00073810596Y00004978476*
X00073817378Y00004991100*
X00073824185Y00005005679*
X00073829976Y00005023180*
X00074000791Y00004994097*
Y00004993081*
X00073998785Y00004990185*
X00073996880Y00004985283*
X00073994899Y00004978476*
X00073991089Y00004970780*
X00073986186Y00004961991*
X00073981386Y00004951399*
X00073975493Y00004940681*
X00073960990Y00004917389*
X00073942575Y00004894097*
X00073921188Y00004870780*
X00073908589Y00004860188*
X00073895991Y00004850485*
X00073894975Y00004849495*
X00073893095Y00004848479*
X00073889184Y00004845583*
X00073883393Y00004842687*
X00073876585Y00004838776*
X00073867797Y00004834890*
X00073858094Y00004830978*
X00073847477Y00004826177*
X00073834777Y00004821377*
X00073821290Y00004817491*
X00073806685Y00004813579*
X00073791191Y00004809693*
X00073774681Y00004806797*
X00073756291Y00004803876*
X00073737774Y00004802886*
X00073718394Y00004801895*
X00073710698*
X00073701884Y00004802886*
X00073690276Y00004803876*
X00073676687Y00004804892*
X00073660177Y00004807788*
X00073642677Y00004810683*
X00073623297Y00004815484*
X00073602977Y00004821377*
X00073582580Y00004829098*
X00073562184Y00004837785*
X00073540899Y00004848479*
X00073521392Y00004861077*
X00073502088Y00004875682*
X00073484587Y00004892192*
X00073468077Y00004911598*
X00073467087Y00004912487*
X00073465182Y00004915484*
X00073462286Y00004920284*
X00073458374Y00004928082*
X00073453498Y00004936794*
X00073447681Y00004946497*
X00073441890Y00004959096*
X00073436099Y00004972685*
X00073430282Y00004988179*
X00073424389Y00005005679*
X00073418598Y00005024094*
X00073413696Y00005043474*
X00073409886Y00005064887*
X00073406990Y00005087188*
X00073404984Y00005111496*
X00073404095Y00005135676*
Y00005137683*
Y00005142484*
X00073404984Y00005151196*
Y00005161889*
X00073406990Y00005175478*
X00073408895Y00005191988*
X00073410775Y00005208498*
X00073414686Y00005227878*
X00073418598Y00005247284*
X00073424389Y00005267680*
X00073431196Y00005288991*
X00073438994Y00005310378*
X00073448697Y00005330698*
X00073460279Y00005351094*
X00073472878Y00005370499*
X00073487483Y00005387975*
X00073488499Y00005388991*
X00073491394Y00005391886*
X00073496195Y00005396687*
X00073502977Y00005402478*
X00073510775Y00005409285*
X00073521392Y00005417083*
X00073533076Y00005425795*
X00073545700Y00005434584*
X00073560279Y00005442280*
X00073576789Y00005451094*
X00073594188Y00005458790*
X00073613594Y00005465597*
X00073632999Y00005471388*
X00073654386Y00005476290*
X00073677678Y00005479186*
X00073700995Y00005480177*
X00073707675*
X00073714483Y00005479186*
G37*
G36*
X00070952080Y00005725591D02*
X00070965695Y00005724677D01*
X00070982179Y00005722696*
X00071001585Y00005719775*
X00071022997Y00005715889*
X00071046289Y00005711088*
X00071071486Y00005704281*
X00071096682Y00005696483*
X00071122895Y00005686780*
X00071150099Y00005674182*
X00071176286Y00005660593*
X00071201483Y00005644083*
X00071225791Y00005624677*
X00071249082Y00005603392*
X00071249997Y00005602376*
X00071253883Y00005597575*
X00071259700Y00005590794*
X00071267497Y00005581091*
X00071277175Y00005568492*
X00071286878Y00005552897*
X00071297596Y00005535498*
X00071309179Y00005514086*
X00071319898Y00005491784*
X00071330591Y00005465597*
X00071341183Y00005437479*
X00071349997Y00005407380*
X00071357693Y00005374386*
X00071363484Y00005339486*
X00071367396Y00005301589*
X00071368386Y00005261787*
Y00005260898*
Y00005258892*
Y00005255996*
Y00005252186*
Y00005247284*
X00071367396Y00005241493*
X00071366481Y00005225897*
X00071364475Y00005207482*
X00071362595Y00005187086*
X00071358683Y00005162880*
X00071353883Y00005137683*
X00071347076Y00005111496*
X00071339278Y00005083276*
X00071329575Y00005055184*
X00071318882Y00005027091*
X00071305293Y00004998897*
X00071288783Y00004971694*
X00071271384Y00004946497*
X00071249997Y00004922291*
X00071249082Y00004921275*
X00071244180Y00004917389*
X00071238389Y00004910582*
X00071228686Y00004902885*
X00071216977Y00004894097*
X00071202499Y00004883378*
X00071185989Y00004872786*
X00071166583Y00004861077*
X00071145196Y00004849495*
X00071121879Y00004838776*
X00071095692Y00004828082*
X00071067599Y00004819396*
X00071037475Y00004811598*
X00071005496Y00004804892*
X00070970597Y00004800981*
X00070934681Y00004799990*
X00070925893*
X00070915276Y00004800981*
X00070901687Y00004801895*
X00070885177Y00004803876*
X00070864780Y00004806797*
X00070843495Y00004809693*
X00070820178Y00004815484*
X00070794981Y00004821377*
X00070769683Y00004830089*
X00070742581Y00004839792*
X00070716394Y00004851400*
X00070690181Y00004864989*
X00070664882Y00004881499*
X00070640676Y00004899888*
X00070617384Y00004921275*
X00070616394Y00004923180*
X00070612482Y00004927092*
X00070606691Y00004933899*
X00070598995Y00004943576*
X00070590181Y00004956175*
X00070580478Y00004971694*
X00070569886Y00004989195*
X00070559193Y00005009591*
X00070547484Y00005031892*
X00070536892Y00005057089*
X00070527189Y00005084292*
X00070518375Y00005114391*
X00070510679Y00005146395*
X00070504888Y00005181295*
X00070500976Y00005218176*
X00070499986Y00005256987*
Y00005258892*
Y00005262778*
Y00005270576*
X00070500976Y00005280279*
Y00005291886*
X00070501891Y00005305475*
X00070503897Y00005320080*
X00070504888Y00005337479*
X00070507783Y00005354980*
X00070509688Y00005373395*
X00070517486Y00005412282*
X00070527189Y00005450078*
X00070533996Y00005469483*
X00070540676Y00005486984*
Y00005487898*
X00070541692Y00005489879*
X00070543699Y00005493791*
X00070546595Y00005498592*
X00070549490Y00005504383*
X00070553376Y00005511190*
X00070562089Y00005528691*
X00070573696Y00005547080*
X00070588276Y00005568492*
X00070604786Y00005588787*
X00070623176Y00005610199*
X00070624192Y00005611088*
X00070626097Y00005612079*
X00070629094Y00005614974*
X00070632878Y00005618886*
X00070637781Y00005623788*
X00070643597Y00005628589*
X00070658177Y00005640298*
X00070674687Y00005653887*
X00070694981Y00005667375*
X00070716394Y00005679998*
X00070739685Y00005690692*
X00070740574*
X00070743495Y00005692698*
X00070748398Y00005693587*
X00070754189Y00005696483*
X00070761987Y00005699480*
X00070771689Y00005702376*
X00070782281Y00005705297*
X00070794981Y00005709081*
X00070808494Y00005712079*
X00070823099Y00005715000*
X00070839584Y00005717895*
X00070856094Y00005720791*
X00070892974Y00005724677*
X00070932675Y00005726582*
X00070941488*
X00070952080Y00005725591*
G37*
G36*
X00071935492Y00004293997D02*
X00071945500Y00004293082D01*
X00071957082Y00004291482*
X00071969579Y00004289780*
X00071983777Y00004287291*
X00071998789Y00004283989*
X00072014588Y00004280585*
X00072030386Y00004275582*
X00072047100Y00004269790*
X00072063787Y00004263085*
X00072079586Y00004254779*
X00072095385Y00004246499*
X00072110396Y00004235678*
X00072111285Y00004234789*
X00072113698Y00004233189*
X00072117889Y00004229785*
X00072122893Y00004224782*
X00072129599Y00004218990*
X00072137092Y00004211497*
X00072144585Y00004203090*
X00072153678Y00004193184*
X00072162898Y00004182287*
X00072172093Y00004169790*
X00072181186Y00004156481*
X00072189594Y00004141495*
X00072198687Y00004125696*
X00072206180Y00004108196*
X00072213698Y00004089781*
X00072220378Y00004070680*
X00072120379Y00004047388*
Y00004048175*
X00072118778Y00004050690*
X00072117889Y00004055694*
X00072115375Y00004061485*
X00072112886Y00004068191*
X00072108796Y00004075684*
X00072100389Y00004093997*
X00072089594Y00004113987*
X00072075395Y00004134789*
X00072060384Y00004153992*
X00072051291Y00004162297*
X00072042096Y00004169790*
X00072041283Y00004170679*
X00072039581Y00004171492*
X00072037092Y00004173194*
X00072032876Y00004175683*
X00072027897Y00004178985*
X00072022081Y00004182287*
X00072015375Y00004185691*
X00072007095Y00004188993*
X00071997874Y00004192295*
X00071988781Y00004195699*
X00071967090Y00004202277*
X00071942096Y00004206494*
X00071928786Y00004208094*
X00071906282*
X00071899576Y00004207281*
X00071892083Y00004206494*
X00071882990Y00004205579*
X00071872983Y00004204792*
X00071862975Y00004203090*
X00071838794Y00004197299*
X00071813775Y00004189780*
X00071801278Y00004184776*
X00071788782Y00004178985*
X00071777199Y00004172280*
X00071765490Y00004164787*
X00071764677Y00004163999*
X00071762975Y00004163186*
X00071759699Y00004160697*
X00071755482Y00004157294*
X00071751393Y00004153179*
X00071745475Y00004147286*
X00071739683Y00004141495*
X00071732978Y00004134789*
X00071726298Y00004126484*
X00071718881Y00004118178*
X00071705495Y00004098975*
X00071692998Y00004076496*
X00071682178Y00004050690*
Y00004049877*
X00071681390Y00004047388*
X00071679689Y00004043197*
X00071678876Y00004038193*
X00071677199Y00004031488*
X00071674685Y00004023995*
X00071672983Y00004014876*
X00071670494Y00004005681*
X00071667979Y00003994886*
X00071666379Y00003983177*
X00071662188Y00003958183*
X00071659699Y00003931589*
X00071658886Y00003903192*
Y00003902379*
Y00003899077*
Y00003894099*
X00071659699Y00003886581*
Y00003878199*
X00071660486Y00003868191*
X00071661375Y00003857396*
X00071662188Y00003844899*
X00071663890Y00003831590*
X00071665490Y00003818178*
X00071670494Y00003789095*
X00071677987Y00003759885*
X00071687182Y00003731590*
Y00003730777*
X00071688883Y00003728288*
X00071690484Y00003724884*
X00071692185Y00003719880*
X00071695487Y00003713276*
X00071699678Y00003706596*
X00071708899Y00003690797*
X00071721395Y00003672484*
X00071736381Y00003654983*
X00071754695Y00003637483*
X00071764677Y00003629990*
X00071775497Y00003622497*
X00071776285*
X00071777987Y00003620795*
X00071781289Y00003619093*
X00071786292Y00003616579*
X00071792185Y00003614089*
X00071798789Y00003610787*
X00071806282Y00003608298*
X00071814690Y00003604996*
X00071833790Y00003598291*
X00071856295Y00003592499*
X00071880476Y00003588283*
X00071892998Y00003587496*
X00071906282Y00003586581*
X00071914588*
X00071920481Y00003587496*
X00071927999Y00003588283*
X00071936279Y00003589096*
X00071946287Y00003590798*
X00071956295Y00003592499*
X00071979586Y00003598291*
X00071991296Y00003602482*
X00072003793Y00003607485*
X00072016289Y00003613277*
X00072027897Y00003619982*
X00072039581Y00003627475*
X00072051291Y00003635781*
X00072052078Y00003636594*
X00072053780Y00003638296*
X00072057082Y00003640785*
X00072061298Y00003644976*
X00072065388Y00003649980*
X00072071280Y00003656584*
X00072077097Y00003664077*
X00072083777Y00003672484*
X00072090381Y00003682492*
X00072097087Y00003693287*
X00072103792Y00003704996*
X00072110396Y00003718280*
X00072116188Y00003732377*
X00072122080Y00003748278*
X00072127897Y00003764889*
X00072132088Y00003782390*
X00072233688Y00003756583*
Y00003754882*
X00072232088Y00003750792*
X00072230386Y00003744899*
X00072227084Y00003735781*
X00072223680Y00003725799*
X00072218677Y00003713276*
X00072213698Y00003699891*
X00072207094Y00003685794*
X00072199576Y00003669995*
X00072191194Y00003654983*
X00072182075Y00003638296*
X00072171179Y00003622497*
X00072159596Y00003607485*
X00072147099Y00003592499*
X00072132875Y00003578275*
X00072117889Y00003564991*
X00072117077Y00003564178*
X00072113698Y00003562477*
X00072109584Y00003559098*
X00072102878Y00003554984*
X00072095385Y00003549980*
X00072085377Y00003544189*
X00072074582Y00003538296*
X00072061298Y00003532479*
X00072047100Y00003526688*
X00072032088Y00003520795*
X00072015375Y00003514979*
X00071997087Y00003509975*
X00071977986Y00003505784*
X00071957996Y00003502482*
X00071937092Y00003500780*
X00071914588Y00003499993*
X00071902980*
X00071893785Y00003500780*
X00071883778Y00003501694*
X00071871281Y00003502482*
X00071857997Y00003504184*
X00071842985Y00003506698*
X00071827186Y00003509187*
X00071810499Y00003512489*
X00071793785Y00003516680*
X00071777199Y00003520795*
X00071759699Y00003526688*
X00071742985Y00003533292*
X00071727187Y00003540785*
X00071712175Y00003549980*
X00071711388Y00003550793*
X00071708899Y00003552494*
X00071704682Y00003554984*
X00071699678Y00003559098*
X00071692998Y00003564991*
X00071685480Y00003570782*
X00071677199Y00003578275*
X00071667979Y00003587496*
X00071658886Y00003597478*
X00071648878Y00003608298*
X00071639684Y00003619982*
X00071629676Y00003633292*
X00071619694Y00003647490*
X00071610499Y00003662476*
X00071602193Y00003679088*
X00071593887Y00003696589*
X00071592998Y00003697376*
X00071592186Y00003700780*
X00071590585Y00003706596*
X00071588096Y00003713276*
X00071584693Y00003722395*
X00071581391Y00003732377*
X00071578089Y00003744899*
X00071573898Y00003758285*
X00071570596Y00003773297*
X00071566379Y00003789095*
X00071563077Y00003805783*
X00071560588Y00003824097*
X00071555584Y00003862374*
X00071554695Y00003882390*
X00071553882Y00003902379*
Y00003904081*
Y00003907383*
Y00003914089*
X00071554695Y00003922395*
X00071555584Y00003933190*
X00071556397Y00003945686*
X00071558099Y00003958996*
X00071559699Y00003974084*
X00071562188Y00003989882*
X00071564677Y00004006494*
X00071573085Y00004042384*
X00071578876Y00004059885*
X00071584693Y00004077385*
X00071591398Y00004095699*
X00071599679Y00004112285*
X00071600491Y00004113199*
X00071602193Y00004116476*
X00071604682Y00004120692*
X00071607984Y00004127296*
X00071613090Y00004134789*
X00071618881Y00004143197*
X00071625485Y00004152290*
X00071632978Y00004163186*
X00071642198Y00004173194*
X00071651393Y00004184776*
X00071662188Y00004195699*
X00071673897Y00004207281*
X00071686394Y00004218178*
X00071699678Y00004228998*
X00071714690Y00004238980*
X00071729676Y00004248099*
X00071730489Y00004248988*
X00071733791Y00004249775*
X00071737982Y00004252290*
X00071744687Y00004255592*
X00071752180Y00004258995*
X00071762188Y00004263085*
X00071772983Y00004267276*
X00071784692Y00004271492*
X00071797976Y00004275582*
X00071812988Y00004279798*
X00071827999Y00004283989*
X00071844687Y00004287291*
X00071878799Y00004293082*
X00071897087Y00004293997*
X00071916290Y00004294784*
X00071927085*
X00071935492Y00004293997*
G37*
G36*
X00075277878Y00003969893D02*
X00075614479Y00003512489D01*
X00075479579*
X00075206275Y00003900678*
X00075080495Y00003779088*
Y00003512489*
X00074978895*
Y00004281474*
X00075080495*
Y00003900678*
X00075462079Y00004281474*
X00075600382*
X00075277878Y00003969893*
G37*
G36*
X00075941097Y00003743299D02*
X00075650394D01*
Y00003838194*
X00075941097*
Y00003743299*
G37*
G36*
X00074211484D02*
X00073920781D01*
Y00003838194*
X00074211484*
Y00003743299*
G37*
G36*
X00073806583Y00003512489D02*
X00073708387D01*
Y00004156481*
X00073483393Y00003512489*
X00073391776*
X00073170186Y00004167276*
Y00003512489*
X00073071786*
Y00004281474*
X00073224288*
X00073406787Y00003736594*
Y00003735781*
X00073407574Y00003733292*
X00073409276Y00003729075*
X00073410876Y00003724097*
X00073412578Y00003718280*
X00073415093Y00003710787*
X00073420884Y00003694099*
X00073426777Y00003675786*
X00073432593Y00003656584*
X00073438385Y00003639083*
X00073440899Y00003630777*
X00073443388Y00003623284*
Y00003624097*
X00073444277Y00003624986*
X00073445090Y00003627475*
X00073445878Y00003630777*
X00073447579Y00003635781*
X00073449180Y00003640785*
X00073450881Y00003647490*
X00073453396Y00003654094*
X00073455885Y00003662476*
X00073459187Y00003671595*
X00073462591Y00003681577*
X00073465893Y00003693287*
X00073470084Y00003704996*
X00073474199Y00003718280*
X00073479177Y00003731590*
X00073484181Y00003746576*
X00073669194Y00004281474*
X00073806583*
Y00003512489*
G37*
G36*
X00071278089D02*
X00071178978D01*
X00071018196Y00004098188*
Y00004098975*
X00071017384Y00004101490*
X00071016495Y00004104792*
X00071014894Y00004109796*
X00071013193Y00004115689*
X00071011491Y00004122293*
X00071007376Y00004137279*
X00071003185Y00004152290*
X00070998994Y00004167276*
X00070997394Y00004173981*
X00070995692Y00004179798*
X00070993990Y00004184776*
X00070993177Y00004188180*
Y00004187291*
X00070992390Y00004185691*
Y00004183176*
X00070990688Y00004178985*
X00070989875Y00004174794*
X00070988986Y00004168978*
X00070985684Y00004157294*
X00070982382Y00004143197*
X00070978191Y00004127296*
X00070974077Y00004112285*
X00070969886Y00004098188*
X00070808291Y00003512489*
X00070702474*
X00070499986Y00004281474*
X00070604989*
X00070720788Y00003776599*
Y00003775786*
X00070721575Y00003773297*
X00070722388Y00003769080*
X00070724090Y00003763289*
X00070725792Y00003755796*
X00070727392Y00003747389*
X00070729881Y00003738295*
X00070732396Y00003727399*
X00070734885Y00003715791*
X00070737399Y00003703294*
X00070742378Y00003677488*
X00070748296Y00003649091*
X00070753274Y00003619982*
Y00003621582*
X00070754875Y00003624986*
X00070755789Y00003631590*
X00070758278Y00003639083*
X00070759878Y00003649091*
X00070762393Y00003659987*
X00070765797Y00003671595*
X00070768286Y00003683279*
X00070774890Y00003708298*
X00070777379Y00003719880*
X00070780783Y00003731590*
X00070783297Y00003741597*
X00070784897Y00003749878*
X00070786599Y00003756583*
X00070788276Y00003761587*
X00070934884Y00004281474*
X00071057389*
X00071166482Y00003891584*
X00071167294Y00003889883*
X00071168183Y00003884879*
X00071170698Y00003877386*
X00071173187Y00003866591*
X00071176489Y00003854094*
X00071180680Y00003839083*
X00071184795Y00003822395*
X00071189799Y00003803294*
X00071194777Y00003783279*
X00071199781Y00003761587*
X00071204785Y00003739083*
X00071209789Y00003715791*
X00071218983Y00003668293*
X00071227289Y00003619982*
Y00003620795*
X00071228077Y00003623284*
X00071228991Y00003627475*
X00071229778Y00003632479*
X00071231480Y00003639997*
X00071233080Y00003648278*
X00071235595Y00003657498*
X00071238186Y00003668293*
X00071240599Y00003679875*
X00071243088Y00003692499*
X00071246492Y00003706596*
X00071249794Y00003720795*
X00071257287Y00003752392*
X00071265592Y00003786581*
X00071386395Y00004281474*
X00071488884*
X00071278089Y00003512489*
G37*
G36*
X00077664792Y00004283075D02*
X00077673987Y00004282287D01*
X00077684782Y00004280585*
X00077697279Y00004278985*
X00077709776Y00004276496*
X00077724000Y00004273092*
X00077738198Y00004268978*
X00077753083Y00004263999*
X00077767281Y00004258081*
X00077782293Y00004250588*
X00077796491Y00004242282*
X00077809775Y00004233189*
X00077822298Y00004222292*
X00077823085Y00004221480*
X00077824787Y00004219778*
X00077828089Y00004215688*
X00077832280Y00004211497*
X00077837284Y00004205579*
X00077843075Y00004198188*
X00077848993Y00004189780*
X00077854784Y00004179798*
X00077860575Y00004169790*
X00077866392Y00004158183*
X00077872285Y00004145686*
X00077877289Y00004132275*
X00077881378Y00004117289*
X00077884782Y00004102379*
X00077886382Y00004086479*
X00077887296Y00004069791*
Y00004068978*
Y00004068191*
Y00004065676*
Y00004062399*
X00077886382Y00004053179*
X00077884782Y00004041495*
X00077882292Y00004027398*
X00077878990Y00004012387*
X00077874799Y00003995699*
X00077868094Y00003978986*
Y00003978198*
X00077867281Y00003977386*
X00077866392Y00003974896*
X00077864792Y00003971493*
X00077859788Y00003962400*
X00077853082Y00003950690*
X00077843888Y00003936593*
X00077833093Y00003920693*
X00077820596Y00003904081*
X00077804797Y00003885692*
X00077803984Y00003884879*
X00077803095Y00003883177*
X00077799793Y00003880688*
X00077796491Y00003876598*
X00077791487Y00003871595*
X00077785595Y00003865676*
X00077778991Y00003858183*
X00077770583Y00003850690*
X00077760576Y00003841597*
X00077749781Y00003831590*
X00077738198Y00003819880*
X00077724787Y00003808298*
X00077710588Y00003794887*
X00077694790Y00003781577*
X00077677289Y00003766591*
X00077658976Y00003750792*
X00077658188Y00003749878*
X00077655699Y00003747389*
X00077650695Y00003744087*
X00077645691Y00003739083*
X00077638198Y00003733292*
X00077630680Y00003726586*
X00077613179Y00003711575*
X00077594790Y00003695776*
X00077577391Y00003679088*
X00077568983Y00003671595*
X00077561490Y00003664991*
X00077554886Y00003658285*
X00077549883Y00003653282*
X00077548994Y00003652494*
X00077545692Y00003649091*
X00077541475Y00003644087*
X00077535684Y00003637483*
X00077528978Y00003629990*
X00077522374Y00003621582*
X00077508989Y00003603294*
X00077888084*
Y00003512489*
X00077379093*
Y00003514191*
Y00003518281*
Y00003524986*
X00077379880Y00003533292*
X00077380693Y00003543300*
X00077383182Y00003554196*
X00077385697Y00003565779*
X00077389888Y00003577488*
Y00003578275*
X00077390675Y00003579977*
X00077391590Y00003582492*
X00077393190Y00003586581*
X00077395679Y00003590798*
X00077398194Y00003596589*
X00077404899Y00003609975*
X00077413180Y00003625799*
X00077424076Y00003643299*
X00077436599Y00003661587*
X00077451585Y00003679875*
X00077452397Y00003680790*
X00077453185Y00003682492*
X00077455699Y00003684981*
X00077459890Y00003689096*
X00077464081Y00003693287*
X00077469898Y00003699078*
X00077475689Y00003705783*
X00077483182Y00003713276*
X00077491488Y00003721582*
X00077500683Y00003729888*
X00077510690Y00003739896*
X00077522374Y00003749878*
X00077533982Y00003760774*
X00077547393Y00003771595*
X00077560678Y00003783279*
X00077575689Y00003795776*
X00077577391Y00003796588*
X00077581480Y00003800779*
X00077587297Y00003805783*
X00077595679Y00003813276*
X00077605686Y00003821582*
X00077617294Y00003831590*
X00077630680Y00003842385*
X00077643990Y00003854881*
X00077672285Y00003880688*
X00077699793Y00003908196*
X00077713179Y00003921582*
X00077725574Y00003934891*
X00077736496Y00003947388*
X00077745691Y00003958996*
X00077746479Y00003959885*
X00077747291Y00003961485*
X00077749781Y00003964889*
X00077752295Y00003968978*
X00077756486Y00003974896*
X00077759788Y00003980688*
X00077768094Y00003995699*
X00077776476Y00004013200*
X00077783994Y00004032377*
X00077788998Y00004052392*
X00077789786Y00004062399*
X00077790598Y00004072382*
Y00004073194*
Y00004074896*
Y00004078198*
X00077789786Y00004081475*
Y00004086479*
X00077788084Y00004092397*
X00077785595Y00004104792*
X00077780591Y00004119778*
X00077773098Y00004135678*
X00077768983Y00004143984*
X00077763090Y00004151477*
X00077757299Y00004158996*
X00077749781Y00004166488*
X00077748993Y00004167276*
X00077748180Y00004168190*
X00077745691Y00004169790*
X00077742288Y00004172280*
X00077738198Y00004175683*
X00077733093Y00004178985*
X00077721485Y00004186478*
X00077705686Y00004193184*
X00077688186Y00004199788*
X00077667281Y00004203979*
X00077655699Y00004205579*
X00077637284*
X00077632280Y00004204792*
X00077626489*
X00077619783Y00004203090*
X00077604899Y00004200677*
X00077587297Y00004195699*
X00077568983Y00004188180*
X00077559890Y00004183176*
X00077550695Y00004178198*
X00077542390Y00004171492*
X00077533982Y00004163999*
X00077533195Y00004163186*
X00077532382Y00004162297*
X00077530680Y00004159783*
X00077527378Y00004156481*
X00077524889Y00004152290*
X00077521485Y00004147286*
X00077517396Y00004141495*
X00077513992Y00004134789*
X00077509878Y00004127296*
X00077506499Y00004118991*
X00077499895Y00004098975*
X00077494892Y00004077385*
X00077493977Y00004064889*
X00077493190Y00004051477*
X00077396594Y00004061485*
Y00004063187*
X00077397381Y00004066489*
X00077398194Y00004071493*
X00077399083Y00004078986*
X00077400683Y00004088180*
X00077403198Y00004098975*
X00077405687Y00004110685*
X00077409878Y00004123182*
X00077414094Y00004135678*
X00077419098Y00004149775*
X00077425677Y00004163186*
X00077432382Y00004176496*
X00077440688Y00004190695*
X00077449883Y00004203090*
X00077459890Y00004215688*
X00077471498Y00004226483*
X00077472387Y00004227296*
X00077474876Y00004228998*
X00077478178Y00004231487*
X00077483182Y00004235678*
X00077489888Y00004239793*
X00077498194Y00004244797*
X00077507388Y00004249775*
X00077518183Y00004255592*
X00077529893Y00004260596*
X00077543177Y00004265599*
X00077557376Y00004270578*
X00077573174Y00004274794*
X00077589888Y00004278985*
X00077607388Y00004281474*
X00077626489Y00004283075*
X00077646479Y00004283989*
X00077657299*
X00077664792Y00004283075*
G37*
G36*
X00076425094Y00004280585D02*
X00076434289D01*
X00076445186Y00004279798*
X00076457581Y00004278985*
X00076482575Y00004276496*
X00076508483Y00004272280*
X00076533476Y00004267276*
X00076544297Y00004263999*
X00076555092Y00004260596*
X00076555879*
X00076557581Y00004259783*
X00076560095Y00004258081*
X00076564286Y00004256481*
X00076574294Y00004251477*
X00076585876Y00004243984*
X00076600075Y00004233976*
X00076614299Y00004220692*
X00076628396Y00004205579*
X00076640893Y00004187291*
Y00004186478*
X00076642595Y00004184776*
X00076644296Y00004182287*
X00076645897Y00004178198*
X00076648386Y00004173194*
X00076650875Y00004167276*
X00076654279Y00004160697*
X00076657581Y00004153179*
X00076663397Y00004135678*
X00076668376Y00004116476*
X00076671779Y00004094886*
X00076673379Y00004071493*
Y00004070680*
Y00004068191*
Y00004063187*
X00076672592Y00004058183*
X00076671779Y00004050690*
X00076670890Y00004042384*
X00076669290Y00004033189*
X00076666775Y00004023182*
X00076660095Y00004001490*
X00076655879Y00003989882*
X00076650875Y00003978198*
X00076645084Y00003966591*
X00076637591Y00003954881*
X00076629285Y00003944086*
X00076620090Y00003933190*
X00076619277Y00003932377*
X00076617576Y00003930675*
X00076614299Y00003928186*
X00076610083Y00003924096*
X00076604291Y00003919880*
X00076597586Y00003914876*
X00076589280Y00003909085*
X00076579298Y00003903192*
X00076568477Y00003897376*
X00076556793Y00003891584*
X00076543382Y00003885692*
X00076528498Y00003879875*
X00076512597Y00003874897*
X00076495097Y00003869893*
X00076475996Y00003865676*
X00076455981Y00003862374*
X00076456794*
X00076457581Y00003861587*
X00076462585Y00003859098*
X00076470078Y00003854881*
X00076479298Y00003849878*
X00076489280Y00003844086*
X00076499288Y00003838194*
X00076509295Y00003830675*
X00076517576Y00003824097*
X00076518490Y00003823284*
X00076519278Y00003822395*
X00076521792Y00003819880*
X00076525094Y00003816578*
X00076529285Y00003812387*
X00076534289Y00003807383*
X00076545084Y00003795776*
X00076557581Y00003780790*
X00076571779Y00003763289*
X00076586791Y00003743299*
X00076601777Y00003721582*
X00076735076Y00003512489*
X00076607593*
X00076505993Y00003672484*
X00076505079Y00003673297*
X00076504292Y00003675786*
X00076501777Y00003679088*
X00076498475Y00003684092*
X00076495097Y00003689883*
X00076490093Y00003696589*
X00076480085Y00003711575*
X00076468478Y00003729075*
X00076456794Y00003746576*
X00076444297Y00003763289*
X00076432587Y00003778275*
Y00003779088*
X00076430987Y00003779875*
X00076427685Y00003784092*
X00076422681Y00003790797*
X00076415188Y00003798290*
X00076407695Y00003806596*
X00076398475Y00003814876*
X00076389280Y00003823284*
X00076380975Y00003829075*
X00076380187Y00003829888*
X00076376784Y00003831590*
X00076372694Y00003834079*
X00076366776Y00003837381*
X00076359283Y00003840683*
X00076351790Y00003844086*
X00076343484Y00003847388*
X00076334289Y00003849878*
X00076333477*
X00076330987Y00003850690*
X00076326796Y00003851579*
X00076320980Y00003852392*
X00076312699*
X00076302692Y00003853180*
X00076290982Y00003854094*
X00076160198*
Y00003512489*
X00076058598*
Y00004281474*
X00076415976*
X00076425094Y00004280585*
G37*
G36*
X00074878082Y00004190695D02*
X00074624793D01*
Y00003512489*
X00074523092*
Y00004190695*
X00074269879*
Y00004281474*
X00074878082*
Y00004190695*
G37*
G36*
X00072994393Y00003512489D02*
X00072878594D01*
X00072789389Y00003744899*
X00072466200*
X00072382888Y00003512489*
X00072275395*
X00072569476Y00004281474*
X00072679382*
X00072994393Y00003512489*
G37*
G36*
X00077060780Y00004283075D02*
X00077066698Y00004282287D01*
X00077081583Y00004280585*
X00077098296Y00004278096*
X00077116584Y00004273092*
X00077134999Y00004267276*
X00077153287Y00004258995*
X00077154074*
X00077155776Y00004258081*
X00077158291Y00004256481*
X00077161593Y00004253992*
X00077169975Y00004248988*
X00077180795Y00004240580*
X00077193292Y00004230598*
X00077205789Y00004218178*
X00077219098Y00004203090*
X00077230782Y00004186478*
Y00004185691*
X00077232383Y00004183989*
X00077233297Y00004181474*
X00077235786Y00004178198*
X00077238275Y00004173981*
X00077241577Y00004168190*
X00077244092Y00004161485*
X00077248283Y00004154779*
X00077255776Y00004138193*
X00077263294Y00004118991*
X00077271575Y00004096486*
X00077278280Y00004072382*
Y00004071493*
X00077279093Y00004068978*
X00077279881Y00004065676*
X00077280795Y00004059885*
X00077282395Y00004053179*
X00077284097Y00004044899*
X00077285799Y00004035679*
X00077287399Y00004024884*
X00077288288Y00004012387*
X00077289888Y00003998976*
X00077291590Y00003983990*
X00077293292Y00003968191*
X00077294079Y00003950690*
X00077294892Y00003932377*
X00077295781Y00003912387*
Y00003891584*
Y00003889883*
Y00003885692*
Y00003878199*
Y00003869080*
X00077294892Y00003857396*
X00077294079Y00003844899*
X00077293292Y00003829888*
X00077292377Y00003814089*
X00077290777Y00003796588*
X00077289075Y00003779088*
X00077284097Y00003742385*
X00077276579Y00003706596*
X00077272388Y00003689096*
X00077267384Y00003673297*
Y00003672484*
X00077265784Y00003669995*
X00077264895Y00003664991*
X00077262380Y00003659987*
X00077259078Y00003652494*
X00077255776Y00003644976*
X00077251585Y00003635781*
X00077246581Y00003625799*
X00077234897Y00003604996*
X00077220775Y00003584194*
X00077204087Y00003563289*
X00077194079Y00003554196*
X00077184097Y00003544976*
X00077183284Y00003544189*
X00077181583Y00003543300*
X00077178281Y00003540785*
X00077174090Y00003538296*
X00077169086Y00003534994*
X00077162482Y00003530777*
X00077154989Y00003526688*
X00077145794Y00003522497*
X00077136599Y00003518281*
X00077125779Y00003514191*
X00077114984Y00003510788*
X00077102487Y00003506698*
X00077089076Y00003504184*
X00077074979Y00003501694*
X00077060780Y00003500780*
X00077044981Y00003499993*
X00077039978*
X00077034186Y00003500780*
X00077026693Y00003501694*
X00077017499Y00003502482*
X00077006678Y00003504184*
X00076994994Y00003506698*
X00076981685Y00003509975*
X00076968299Y00003514191*
X00076954176Y00003519195*
X00076939190Y00003525799*
X00076924992Y00003533292*
X00076910895Y00003542487*
X00076896696Y00003553282*
X00076883387Y00003564991*
X00076870890Y00003579088*
X00076869975Y00003579977*
X00076867486Y00003583279*
X00076864184Y00003589096*
X00076859180Y00003597478*
X00076853389Y00003608298*
X00076846684Y00003620795*
X00076839978Y00003636594*
X00076833399Y00003654094*
X00076825881Y00003674999*
X00076819175Y00003697376*
X00076812597Y00003723284*
X00076806679Y00003751580*
X00076801675Y00003782390*
X00076798398Y00003815689*
X00076795884Y00003852392*
X00076795096Y00003891584*
Y00003893185*
Y00003897376*
Y00003904894*
X00076795884Y00003914089*
Y00003925697*
X00076796696Y00003938981*
X00076797585Y00003954094*
X00076798398Y00003969893*
X00076799998Y00003987393*
X00076801675Y00004004894*
X00076806679Y00004041495*
X00076813384Y00004077385*
X00076817575Y00004094886*
X00076822477Y00004110685*
Y00004111498*
X00076824179Y00004113987*
X00076825881Y00004118991*
X00076827583Y00004124782*
X00076830885Y00004131487*
X00076834187Y00004139793*
X00076838378Y00004148175*
X00076843382Y00004158183*
X00076854989Y00004178985*
X00076869975Y00004199788*
X00076886689Y00004220692*
X00076895883Y00004229785*
X00076905891Y00004238980*
X00076906678Y00004239793*
X00076908380Y00004240580*
X00076911682Y00004243095*
X00076915899Y00004245584*
X00076920877Y00004249775*
X00076927481Y00004253077*
X00076934999Y00004257294*
X00076944194Y00004261485*
X00076953287Y00004265599*
X00076964184Y00004269790*
X00076975792Y00004273981*
X00076987476Y00004277283*
X00077000785Y00004279798*
X00077014984Y00004282287*
X00077029995Y00004283075*
X00077044981Y00004283989*
X00077054989*
X00077060780Y00004283075*
G37*
%LNwcam-tk-pcb-r02_legend_top-2*%
%LPC*%
G36*
X00050215190Y00004989677D02*
X00049897995D01*
Y00004972989*
X00049797893*
Y00004956276*
X00049747779*
Y00004939588*
X00049697792*
Y00004922875*
X00049647678*
Y00004906187*
X00049614277*
Y00004889500*
X00049580876*
Y00004872786*
X00049547475*
Y00004856175*
X00049530787*
Y00004839487*
X00049497488*
Y00004822799*
X00049480774*
Y00004806086*
X00049447399*
Y00004789398*
X00049430686*
Y00004772685*
X00049413998*
Y00004755997*
X00049397285*
Y00004739284*
X00049363884*
Y00004722596*
X00049347196*
Y00004705883*
X00049330483*
Y00004689195*
X00049313795*
Y00004672584*
Y00004655896*
X00049297082*
Y00004639183*
X00049280495*
Y00004622495*
X00049263782*
Y00004605782*
Y00004589094*
X00049247094*
Y00004572381*
X00049230381*
Y00004555693*
Y00004538980*
X00049213693*
Y00004522292*
Y00004505579*
X00049196980*
Y00004488891*
Y00004472178*
X00049180292*
Y00004455591*
Y00004438878*
X00049163579*
Y00004422190*
Y00004405477*
Y00004388789*
X00049146891*
Y00004372076*
Y00004355388*
Y00004338675*
X00049130178*
Y00004321987*
Y00004305300*
Y00004288586*
Y00004271899*
X00049113490*
Y00004255185*
Y00004238599*
Y00004221886*
Y00004205198*
Y00004188485*
X00049096777*
Y00004171797*
Y00004155084*
Y00004138396*
Y00004121683*
Y00004104995*
Y00004088282*
Y00004071696*
X00049080191*
Y00004054983*
Y00004038295*
Y00004021582*
Y00004004894*
Y00003988181*
Y00003971493*
Y00003954780*
Y00003938092*
Y00003921379*
Y00003904691*
Y00003887978*
Y00003871391*
Y00003854678*
Y00003837990*
Y00003821277*
Y00003804589*
Y00003787876*
Y00003771188*
Y00003754475*
Y00003737787*
Y00003721100*
Y00003704386*
Y00003687699*
Y00003671087*
Y00003654399*
Y00003637686*
Y00003620998*
Y00003604285*
Y00003587597*
Y00003570884*
X00049096777*
Y00003554196*
Y00003537483*
Y00003520795*
Y00003504082*
Y00003487394*
Y00003470783*
X00049113490*
Y00003454095*
Y00003437382*
Y00003420694*
Y00003403981*
X00049130178*
Y00003387293*
Y00003370580*
Y00003353892*
X00049146891*
Y00003337179*
Y00003320491*
Y00003303778*
X00049163579*
Y00003287090*
Y00003270478*
Y00003253790*
X00049180292*
Y00003237077*
Y00003220389*
X00049196980*
Y00003203676*
Y00003186988*
X00049213693*
Y00003170275*
Y00003153587*
X00049230381*
Y00003136900*
X00049247094*
Y00003120186*
Y00003103499*
X00049263782*
Y00003086785*
X00049280495*
Y00003070098*
Y00003053486*
X00049297082*
Y00003036798*
X00049313795*
Y00003020085*
X00049330483*
Y00003003397*
X00049347196*
Y00002986684*
X00049363884*
Y00002969996*
X00049380597*
Y00002953283*
X00049397285*
Y00002936595*
X00049413998*
Y00002919882*
X00049430686*
Y00002903194*
X00049447399*
Y00002886481*
X00049464087*
Y00002869793*
X00049497488*
Y00002853182*
X00049514099*
Y00002836494*
X00049547475*
Y00002819781*
X00049564188*
Y00002803093*
X00049597589*
Y00002786380*
X00049630990*
Y00002769692*
X00049664391*
Y00002752979*
X00049714378*
Y00002736291*
X00049781180*
Y00002719578*
X00049847982*
Y00002702890*
X00050031599*
Y00002686177*
X00050048287*
Y00002702890*
X00050248591*
Y00002719578*
X00050315291*
Y00002736291*
X00050365380*
Y00002752979*
X00050415494*
Y00002769692*
X00050432182*
Y00002786380*
X00050415494*
Y00002803093*
Y00002819781*
X00050398781*
Y00002836494*
Y00002853182*
Y00002869793*
X00050382093*
Y00002886481*
Y00002903194*
X00050365380*
Y00002919882*
Y00002936595*
Y00002953283*
X00050348692*
Y00002969996*
Y00002986684*
X00050331979*
Y00003003397*
Y00003020085*
Y00003036798*
X00050315291*
Y00003053486*
Y00003070098*
Y00003086785*
X00050298578*
Y00003103499*
Y00003120186*
X00050281992*
Y00003136900*
Y00003153587*
Y00003170275*
X00050265279*
Y00003186988*
Y00003203676*
X00050248591*
Y00003220389*
Y00003237077*
Y00003253790*
X00050231878*
Y00003270478*
Y00003287090*
Y00003303778*
X00050215190*
Y00003320491*
Y00003337179*
X00050198477*
Y00003353892*
Y00003370580*
Y00003387293*
X00050181789*
Y00003403981*
Y00003420694*
X00050165076*
Y00003437382*
Y00003454095*
Y00003470783*
X00050148388*
Y00003487394*
Y00003504082*
X00050131675*
Y00003520795*
Y00003537483*
Y00003554196*
X00050114987*
Y00003570884*
X00050498984*
Y00003554196*
X00050515596*
Y00003537483*
Y00003520795*
Y00003504082*
X00050532284*
Y00003487394*
Y00003470783*
Y00003454095*
X00050548997*
Y00003437382*
Y00003420694*
Y00003403981*
X00050565685*
Y00003387293*
Y00003370580*
X00050582398*
Y00003353892*
Y00003337179*
Y00003320491*
X00050599086*
Y00003303778*
Y00003287090*
Y00003270478*
X00050615799*
Y00003253790*
Y00003237077*
Y00003220389*
X00050632487*
Y00003203676*
Y00003186988*
Y00003170275*
X00050649174*
Y00003153587*
Y00003136900*
X00050665888*
Y00003120186*
Y00003103499*
Y00003086785*
X00050682575*
Y00003070098*
Y00003053486*
Y00003036798*
X00050699187*
Y00003020085*
Y00003003397*
Y00002986684*
X00050715875*
Y00002969996*
X00050732588*
Y00002986684*
X00050749276*
Y00003003397*
X00050765989*
Y00003020085*
X00050782677*
Y00003036798*
Y00003053486*
X00050799390*
Y00003070098*
X00050816078*
Y00003086785*
X00050832791*
Y00003103499*
Y00003120186*
X00050849479*
Y00003136900*
X00050866192*
Y00003153587*
Y00003170275*
X00050882880*
Y00003186988*
Y00003203676*
X00050899593*
Y00003220389*
Y00003237077*
X00050916179*
Y00003253790*
Y00003270478*
Y00003287090*
X00050932892*
Y00003303778*
Y00003320491*
X00050949580*
Y00003337179*
Y00003353892*
Y00003370580*
Y00003387293*
X00050966293*
Y00003403981*
Y00003420694*
Y00003437382*
X00050982981*
Y00003454095*
Y00003470783*
Y00003487394*
Y00003504082*
Y00003520795*
X00050999694*
Y00003537483*
Y00003554196*
Y00003570884*
Y00003587597*
Y00003604285*
Y00003620998*
Y00003637686*
Y00003654399*
X00051016382*
Y00003671087*
Y00003687699*
Y00003704386*
Y00003721100*
Y00003737787*
Y00003754475*
Y00003771188*
Y00003787876*
Y00003804589*
Y00003821277*
Y00003837990*
Y00003854678*
Y00003871391*
Y00003887978*
Y00003904691*
Y00003921379*
Y00003938092*
Y00003954780*
Y00003971493*
Y00003988181*
Y00004004894*
Y00004021582*
Y00004038295*
X00050999694*
Y00004054983*
Y00004071696*
Y00004088282*
Y00004104995*
Y00004121683*
Y00004138396*
Y00004155084*
X00050982981*
Y00004171797*
Y00004188485*
Y00004205198*
Y00004221886*
Y00004238599*
X00050966293*
Y00004255185*
Y00004271899*
Y00004288586*
X00050949580*
Y00004305300*
Y00004321987*
Y00004338675*
Y00004355388*
X00050932892*
Y00004372076*
Y00004388789*
X00050916179*
Y00004405477*
Y00004422190*
Y00004438878*
X00050899593*
Y00004455591*
Y00004472178*
X00050882880*
Y00004488891*
Y00004505579*
X00050866192*
Y00004522292*
Y00004538980*
X00050849479*
Y00004555693*
X00050832791*
Y00004572381*
Y00004589094*
X00050816078*
Y00004605782*
Y00004622495*
X00050799390*
Y00004639183*
X00050782677*
Y00004655896*
X00050765989*
Y00004672584*
X00050749276*
Y00004689195*
Y00004705883*
X00050732588*
Y00004722596*
X00050715875*
Y00004739284*
X00050699187*
Y00004755997*
X00050665888*
Y00004772685*
X00050649174*
Y00004789398*
X00050632487*
Y00004806086*
X00050615799*
Y00004822799*
X00050582398*
Y00004839487*
X00050565685*
Y00004856175*
X00050532284*
Y00004872786*
X00050498984*
Y00004889500*
X00050482296*
Y00004906187*
X00050432182*
Y00004922875*
X00050398781*
Y00004939588*
X00050348692*
Y00004956276*
X00050298578*
Y00004972989*
X00050215190*
Y00004989677*
G37*
G36*
X00057579691Y00003397681D02*
X00057369278D01*
Y00003107182*
X00057597395*
X00057605676Y00003108198*
X00057623379*
X00057643191Y00003109188*
X00057664096Y00003111296*
X00057682790Y00003114395*
X00057691096Y00003115487*
X00057698386Y00003117596*
X00057699478*
X00057700494Y00003118586*
X00057706691Y00003120694*
X00057715099Y00003123793*
X00057725487Y00003128975*
X00057736892Y00003135299*
X00057749490Y00003143580*
X00057760895Y00003153994*
X00057771284Y00003165475*
X00057772376Y00003167583*
X00057775475Y00003171698*
X00057779691Y00003178987*
X00057783780Y00003188385*
X00057787997Y00003200882*
X00057792086Y00003215487*
X00057795287Y00003231083*
X00057796277Y00003249777*
Y00003250895*
Y00003251885*
Y00003258185*
X00057795287Y00003266490*
X00057793178Y00003277895*
X00057790080Y00003291484*
X00057785889Y00003306089*
X00057780682Y00003320592*
X00057772376Y00003334181*
X00057771284Y00003336290*
X00057768185Y00003340379*
X00057762978Y00003346678*
X00057755688Y00003353993*
X00057746290Y00003362299*
X00057734885Y00003370580*
X00057722389Y00003377895*
X00057706691Y00003384194*
X00057704685Y00003385185*
X00057702577*
X00057698386Y00003386175*
X00057694296Y00003387293*
X00057687997Y00003388283*
X00057680682Y00003389376*
X00057673392Y00003391382*
X00057664096Y00003392474*
X00057652589Y00003393490*
X00057641083Y00003394583*
X00057627596Y00003395599*
X00057612991Y00003396691*
X00057597395*
X00057579691Y00003397681*
G37*
G36*
X00057591198Y00002993593D02*
X00057369278D01*
Y00002663494*
X00057629679*
X00057643191Y00002664587*
X00057656780*
X00057671284Y00002665577*
X00057684898Y00002666593*
X00057695287Y00002667685*
X00057697395*
X00057702577Y00002668676*
X00057710882Y00002670784*
X00057721296Y00002673883*
X00057732777Y00002677083*
X00057744182Y00002682290*
X00057756679Y00002687497*
X00057768185Y00002693695*
X00057769175Y00002694787*
X00057773392Y00002696794*
X00057778599Y00002700985*
X00057785889Y00002707284*
X00057793178Y00002714498*
X00057801484Y00002723896*
X00057809790Y00002734284*
X00057817080Y00002746781*
X00057818197Y00002748889*
X00057820280Y00002753080*
X00057823379Y00002760395*
X00057827595Y00002770784*
X00057830694Y00002782189*
X00057833793Y00002795778*
X00057835876Y00002811399*
X00057836892Y00002827985*
Y00002829077*
Y00002830093*
Y00002833293*
Y00002837383*
X00057835876Y00002846781*
X00057833793Y00002860294*
X00057829577Y00002874899*
X00057825487Y00002890494*
X00057818197Y00002906191*
X00057808799Y00002921787*
X00057807783Y00002923895*
X00057803592Y00002927985*
X00057797395Y00002935274*
X00057788987Y00002943682*
X00057777583Y00002952978*
X00057763994Y00002961284*
X00057749490Y00002969691*
X00057731787Y00002976981*
X00057730694*
X00057729678Y00002977997*
X00057726478Y00002979089*
X00057722389Y00002980080*
X00057717182Y00002981096*
X00057711975Y00002982188*
X00057704685Y00002984296*
X00057696277Y00002985287*
X00057685889Y00002987395*
X00057675475Y00002988386*
X00057664096Y00002989478*
X00057651599Y00002991485*
X00057623379Y00002992577*
X00057591198Y00002993593*
G37*
G36*
X00056680989Y00003411194D02*
Y00003410178D01*
X00056679896Y00003407079*
X00056678880Y00003401898*
X00056677788Y00003395599*
X00056675782Y00003386175*
X00056673699Y00003376879*
X00056670575Y00003365398*
X00056667400Y00003352876*
X00056664275Y00003339388*
X00056660084Y00003324783*
X00056650788Y00003293592*
X00056640399Y00003260191*
X00056628893Y00003225876*
X00056522696Y00002943682*
X00056850686*
X00056749696Y00003210179*
Y00003211296*
X00056747587Y00003215487*
X00056745479Y00003221685*
X00056742380Y00003231083*
X00056738291Y00003240379*
X00056734075Y00003252876*
X00056728893Y00003266490*
X00056723686Y00003281095*
X00056713297Y00003313277*
X00056701791Y00003346678*
X00056690285Y00003379978*
X00056680989Y00003411194*
G37*
G36*
X00078346681Y00005349189D02*
X00078340788D01*
X00078335987Y00005348198*
X00078325294Y00005346293*
X00078310790Y00005343398*
X00078294280Y00005337479*
X00078276780Y00005328793*
X00078268093Y00005322976*
X00078260295Y00005317185*
X00078251583Y00005309387*
X00078243785Y00005300675*
Y00005299684*
X00078241880Y00005298694*
X00078239899Y00005295798*
X00078236978Y00005291886*
X00078234082Y00005287086*
X00078231187Y00005280279*
X00078227275Y00005273497*
X00078223389Y00005264785*
X00078219579Y00005255082*
X00078215693Y00005244388*
X00078212797Y00005232679*
X00078209775Y00005219192*
X00078206879Y00005204587*
X00078204999Y00005189093*
X00078203983Y00005172583*
X00078202993Y00005155082*
Y00005154193*
Y00005150281*
Y00005145379*
X00078203983Y00005138597*
Y00005129885*
X00078204999Y00005120182*
X00078205990Y00005110480*
X00078206879Y00005098796*
X00078210791Y00005074589*
X00078216582Y00005049393*
X00078223389Y00005026075*
X00078228291Y00005015382*
X00078234082Y00005005679*
X00078235098Y00005004689*
X00078235987Y00005002784*
X00078238985Y00004999888*
X00078241880Y00004994986*
X00078252497Y00004984394*
X00078266086Y00004971694*
X00078282596Y00004959096*
X00078302993Y00004948478*
X00078314575Y00004943576*
X00078327199Y00004940681*
X00078339899Y00004938699*
X00078353386Y00004937785*
X00078359279*
X00078363191Y00004938699*
X00078373782Y00004940681*
X00078387397Y00004943576*
X00078401976Y00004949393*
X00078418486Y00004958181*
X00078427199Y00004963998*
X00078434996Y00004970780*
X00078442693Y00004977587*
X00078450490Y00004986299*
X00078451379Y00004987290*
X00078452395Y00004988179*
X00078454377Y00004991100*
X00078457298Y00004995976*
X00078460193Y00005000879*
X00078463089Y00005006695*
X00078466975Y00005014391*
X00078470785Y00005023180*
X00078474697Y00005033797*
X00078478583Y00005044490*
X00078481478Y00005057089*
X00078484399Y00005070678*
X00078487397Y00005086197*
X00078489276Y00005102682*
X00078491181Y00005120182*
Y00005138597*
Y00005139588*
Y00005143500*
Y00005149291*
X00078490292Y00005157089*
Y00005165775*
X00078489276Y00005176494*
X00078488286Y00005188077*
X00078486381Y00005200675*
X00078481478Y00005226888*
X00078473782Y00005254091*
X00078464079Y00005278297*
X00078457298Y00005289981*
X00078450490Y00005299684*
Y00005300675*
X00078448484Y00005301589*
X00078442693Y00005307482*
X00078433980Y00005315178*
X00078422296Y00005324881*
X00078406777Y00005333695*
X00078389378Y00005341391*
X00078368982Y00005347182*
X00078358288Y00005348198*
X00078346681Y00005349189*
G37*
G36*
X00073710698D02*
X00073704780D01*
X00073700995Y00005348198*
X00073691292Y00005347182*
X00073677678Y00005344287*
X00073663098Y00005339486*
X00073647579Y00005331688*
X00073632999Y00005320995*
X00073625278Y00005315178*
X00073618496Y00005307482*
X00073616489Y00005305475*
X00073612679Y00005299684*
X00073606787Y00005290997*
X00073600081Y00005278297*
X00073593198Y00005262778*
X00073587381Y00005243398*
X00073583495Y00005222087*
X00073582580Y00005196789*
X00073838689*
Y00005197779*
Y00005199786*
Y00005203596*
X00073837800Y00005209489*
X00073836784Y00005215280*
X00073835793Y00005222087*
X00073832897Y00005238597*
X00073828097Y00005256987*
X00073821290Y00005275376*
X00073812476Y00005293893*
X00073799877Y00005309387*
X00073797998Y00005311292*
X00073793096Y00005315178*
X00073785399Y00005321985*
X00073774681Y00005329783*
X00073762082Y00005336590*
X00073746588Y00005343398*
X00073729088Y00005347182*
X00073710698Y00005349189*
G37*
G36*
X00070934681Y00005572277D02*
X00070923988D01*
X00070916292Y00005571388*
X00070906487Y00005570397*
X00070895895Y00005568492*
X00070883297Y00005565495*
X00070870699Y00005562600*
X00070856094Y00005558790*
X00070841489Y00005553887*
X00070826985Y00005547080*
X00070811491Y00005539384*
X00070796886Y00005530596*
X00070781392Y00005519877*
X00070767778Y00005508294*
X00070754189Y00005494680*
X00070753198Y00005493791*
X00070751293Y00005490794*
X00070748398Y00005486984*
X00070743495Y00005480177*
X00070738695Y00005472379*
X00070732878Y00005462676*
X00070727087Y00005451094*
X00070720280Y00005437479*
X00070714387Y00005421884*
X00070707580Y00005404485*
X00070701789Y00005386095*
X00070696988Y00005364683*
X00070692086Y00005342382*
X00070689190Y00005318099*
X00070687285Y00005291886*
X00070686295Y00005263794*
Y00005261787*
Y00005256987*
X00070687285Y00005249189*
Y00005238597*
X00070688200Y00005225897*
X00070690181Y00005211394*
X00070692086Y00005194884*
X00070694981Y00005177383*
X00070698893Y00005158994*
X00070703795Y00005140579*
X00070708596Y00005121198*
X00070715378Y00005101793*
X00070724090Y00005083276*
X00070732878Y00005065877*
X00070743495Y00005048377*
X00070756195Y00005032883*
X00070757084Y00005031892*
X00070759091Y00005029987*
X00070762876Y00005026075*
X00070768794Y00005020183*
X00070775576Y00005014391*
X00070784288Y00005007584*
X00070793991Y00005000879*
X00070804684Y00004994097*
X00070817282Y00004986299*
X00070830897Y00004979492*
X00070845375Y00004972685*
X00070860894Y00004966893*
X00070877379Y00004961991*
X00070895895Y00004958181*
X00070915276Y00004955184*
X00070934681Y00004954295*
X00070939482*
X00070945375Y00004955184*
X00070953096*
X00070961885Y00004956175*
X00070972476Y00004958181*
X00070984186Y00004961077*
X00070997699Y00004963998*
X00071011288Y00004967884*
X00071024877Y00004973675*
X00071040498Y00004979492*
X00071054976Y00004987290*
X00071069581Y00004995976*
X00071084084Y00005006695*
X00071098689Y00005018278*
X00071112278Y00005031892*
X00071113192Y00005032883*
X00071115199Y00005035778*
X00071118984Y00005039690*
X00071122895Y00005046497*
X00071128686Y00005054193*
X00071134579Y00005064887*
X00071140396Y00005076494*
X00071147178Y00005090083*
X00071153985Y00005105577*
X00071159776Y00005123078*
X00071165593Y00005142484*
X00071171384Y00005162880*
X00071175295Y00005186197*
X00071179182Y00005210378*
X00071181087Y00005237581*
X00071182077Y00005265699*
Y00005267680*
Y00005272481*
Y00005280279*
X00071181087Y00005290997*
X00071180198Y00005303596*
X00071178191Y00005318099*
X00071176286Y00005334584*
X00071173390Y00005352084*
X00071170495Y00005370499*
X00071165593Y00005389880*
X00071159776Y00005409285*
X00071153985Y00005427776*
X00071145196Y00005446191*
X00071136484Y00005463692*
X00071125791Y00005481091*
X00071114183Y00005495696*
X00071113192Y00005496687*
X00071111287Y00005498592*
X00071107376Y00005502478*
X00071101585Y00005507278*
X00071094777Y00005513197*
X00071086980Y00005519877*
X00071077277Y00005526684*
X00071066583Y00005534482*
X00071053985Y00005541289*
X00071040498Y00005548096*
X00071025893Y00005554878*
X00071009383Y00005560695*
X00070992898Y00005565495*
X00070974483Y00005569381*
X00070955077Y00005571388*
X00070934681Y00005572277*
G37*
G36*
X00076419278Y00004196486D02*
X00076160198D01*
Y00003942384*
X00076390195*
X00076395986Y00003943197*
X00076402692*
X00076418490Y00003944086*
X00076435991Y00003945686*
X00076454279Y00003948176*
X00076471780Y00003951579*
X00076487578Y00003956481*
X00076488493*
X00076489280Y00003957396*
X00076494284Y00003958996*
X00076500990Y00003962400*
X00076510083Y00003967378*
X00076519278Y00003974084*
X00076529285Y00003981475*
X00076539293Y00003991483*
X00076547599Y00004002379*
X00076548386Y00004003979*
X00076550875Y00004008196*
X00076554279Y00004013987*
X00076558394Y00004023182*
X00076561797Y00004033189*
X00076565099Y00004044899*
X00076567588Y00004058183*
X00076568477Y00004071493*
Y00004072382*
Y00004073982*
Y00004076496*
X00076567588Y00004080687*
Y00004084777*
X00076566776Y00004090695*
X00076563499Y00004103192*
X00076558394Y00004117289*
X00076551790Y00004132275*
X00076541782Y00004146499*
X00076535076Y00004153992*
X00076528498Y00004160697*
X00076527583Y00004161485*
X00076526796Y00004162297*
X00076524281Y00004163999*
X00076520979Y00004166488*
X00076516788Y00004168978*
X00076510997Y00004172280*
X00076505079Y00004175683*
X00076497586Y00004178985*
X00076489280Y00004182287*
X00076480085Y00004184776*
X00076470078Y00004188180*
X00076459283Y00004190695*
X00076446786Y00004193184*
X00076433476Y00004194784*
X00076419278Y00004196486*
G37*
G36*
X00072621978Y00004201490D02*
Y00004200677D01*
X00072621089Y00004198188*
X00072620276Y00004193997*
X00072619489Y00004188993*
X00072617787Y00004181474*
X00072616085Y00004173981*
X00072613596Y00004164787*
X00072611081Y00004154779*
X00072608592Y00004143984*
X00072605290Y00004132275*
X00072597797Y00004107281*
X00072589491Y00004080687*
X00072580296Y00004053179*
X00072495283Y00003827399*
X00072757792*
X00072676893Y00004040682*
Y00004041495*
X00072675292Y00004044899*
X00072673591Y00004049877*
X00072671076Y00004057396*
X00072667799Y00004064889*
X00072664497Y00004074896*
X00072660281Y00004085691*
X00072656090Y00004097375*
X00072647784Y00004123182*
X00072638589Y00004149775*
X00072629496Y00004176496*
X00072621978Y00004201490*
G37*
G36*
X00077044194Y00004205579D02*
X00077038276D01*
X00077033297Y00004204792*
X00077028294Y00004203979*
X00077021690Y00004203090*
X00077006678Y00004198975*
X00076989990Y00004192295*
X00076981685Y00004188180*
X00076972490Y00004182287*
X00076964184Y00004176496*
X00076955777Y00004168978*
X00076947496Y00004160697*
X00076939978Y00004150690*
X00076939190Y00004149775*
X00076938276Y00004147286*
X00076935888Y00004143197*
X00076932485Y00004136491*
X00076929183Y00004128185*
X00076924992Y00004118178*
X00076919988Y00004106494*
X00076915899Y00004091482*
X00076911682Y00004074896*
X00076906678Y00004056481*
X00076902487Y00004034891*
X00076899185Y00004011498*
X00076895883Y00003985691*
X00076894182Y00003956481*
X00076892480Y00003925697*
X00076891692Y00003891584*
Y00003890695*
Y00003889095*
Y00003886581*
Y00003883177*
Y00003879088*
Y00003873195*
X00076892480Y00003860698*
X00076893394Y00003845788*
X00076894182Y00003828186*
X00076894994Y00003809085*
X00076897484Y00003789095*
X00076902487Y00003746576*
X00076905891Y00003725799*
X00076909980Y00003704996*
X00076914984Y00003685794*
X00076921690Y00003668293*
X00076928395Y00003652494*
X00076935888Y00003639083*
X00076936676Y00003638296*
X00076937489Y00003636594*
X00076939978Y00003633292*
X00076944194Y00003629075*
X00076948284Y00003624986*
X00076953287Y00003619982*
X00076965886Y00003608298*
X00076981685Y00003596589*
X00077000785Y00003587496*
X00077010793Y00003583279*
X00077021690Y00003579977*
X00077033297Y00003578275*
X00077044981Y00003577488*
X00077047496*
X00077051687Y00003578275*
X00077055776*
X00077061695Y00003579088*
X00077068299Y00003580790*
X00077083285Y00003584981*
X00077091692Y00003588283*
X00077099998Y00003592499*
X00077109091Y00003597478*
X00077118286Y00003604082*
X00077127481Y00003610787*
X00077136599Y00003619093*
X00077145794Y00003629075*
X00077154074Y00003639997*
X00077154989Y00003640785*
X00077155776Y00003643299*
X00077158291Y00003646576*
X00077160780Y00003652494*
X00077164996Y00003659987*
X00077168298Y00003669995*
X00077172489Y00003681577*
X00077176579Y00003694988*
X00077180795Y00003710787*
X00077184986Y00003729075*
X00077189076Y00003749090*
X00077192479Y00003772382*
X00077194892Y00003798290*
X00077197381Y00003826586*
X00077198296Y00003857396*
X00077199083Y00003891584*
Y00003892397*
Y00003894099*
Y00003896588*
Y00003899890*
Y00003904081*
Y00003909085*
X00077198296Y00003922395*
X00077197381Y00003937381*
X00077196594Y00003954881*
X00077195781Y00003974084*
X00077193292Y00003993997*
X00077188288Y00004036491*
X00077184097Y00004057396*
X00077179982Y00004077385*
X00077174979Y00004096486*
X00077169086Y00004114800*
X00077162482Y00004129786*
X00077154074Y00004143197*
X00077153287Y00004143984*
X00077152500Y00004145686*
X00077149985Y00004148988*
X00077146581Y00004153179*
X00077141578Y00004157294*
X00077136599Y00004163186*
X00077130783Y00004168978*
X00077124077Y00004174794*
X00077108278Y00004185691*
X00077089076Y00004195699*
X00077079094Y00004199788*
X00077067486Y00004203090*
X00077056691Y00004204792*
X00077044194Y00004205579*
G37*
%LNwcam-tk-pcb-r02_legend_top-3*%
%LPD*%
G54D10*
X00011517884Y00005999988D02*
D01*
X00011472545Y00005998413*
X00011427434Y00005993663*
X00011382756Y00005985789*
X00011338712Y00005974816*
X00011295583Y00005960795*
X00011253520Y00005943803*
X00011212728Y00005923915*
X00011173434Y00005901207*
X00011135817Y00005875858*
X00011100079Y00005847918*
X00011066348Y00005817565*
X00011034852Y00005784926*
X00011005693Y00005750179*
X00010979023Y00005713450*
X00010954969Y00005674995*
X00010933658Y00005634939*
X00010915218Y00005593486*
X00010899698Y00005550839*
X00010887202Y00005507228*
X00010877753Y00005462854*
X00010871454Y00005417921*
X00010868279Y00005372684*
X00010867898Y00005349976*
X00018067883D02*
D01*
X00018066308Y00005395341*
X00018061559Y00005440451*
X00018053685Y00005485130*
X00018042712Y00005529148*
X00018028691Y00005572302*
X00018011698Y00005614365*
X00017991810Y00005655132*
X00017969128Y00005694426*
X00017943753Y00005732043*
X00017915813Y00005767806*
X00017885460Y00005801512*
X00017852821Y00005833033*
X00017818074Y00005862193*
X00017781371Y00005888863*
X00017742890Y00005912891*
X00017702834Y00005934202*
X00017661382Y00005952667*
X00017618760Y00005968161*
X00017575149Y00005980684*
X00017530749Y00005990107*
X00017485842Y00005996432*
X00017440579Y00005999581*
X00017417897Y00005999988*
Y00000000000D02*
D01*
X00017463236Y00000001574*
X00017508347Y00000006324*
X00017553025Y00000014198*
X00017597043Y00000025171*
X00017640198Y00000039192*
X00017682260Y00000056184*
X00017723053Y00000076073*
X00017762347Y00000098755*
X00017799939Y00000124129*
X00017835702Y00000152069*
X00017869408Y00000182422*
X00017900929Y00000215061*
X00017930088Y00000249809*
X00017956758Y00000286512*
X00017980812Y00000324993*
X00018002097Y00000365048*
X00018020563Y00000406501*
X00018036082Y00000449122*
X00018048579Y00000492734*
X00018058003Y00000537108*
X00018064327Y00000582041*
X00018067502Y00000627303*
X00018067883Y00000649986*
X00010867898D02*
D01*
X00010869472Y00000604647*
X00010874222Y00000559536*
X00010882096Y00000514832*
X00010893069Y00000470814*
X00010907090Y00000427685*
X00010924082Y00000385597*
X00010943971Y00000344830*
X00010966653Y00000305536*
X00010992027Y00000267919*
X00011019967Y00000232181*
X00011050320Y00000198450*
X00011082959Y00000166954*
X00011117707Y00000137769*
X00011154410Y00000111125*
X00011192891Y00000087071*
X00011232946Y00000065760*
X00011274399Y00000047320*
X00011317020Y00000031800*
X00011360632Y00000019304*
X00011405006Y00000009855*
X00011449939Y00000003556*
X00011495201Y00000000381*
X00011517884Y00000000000*
X00022267976Y00000649986D02*
D01*
X00022269577Y00000604647*
X00022274301Y00000559536*
X00022282200Y00000514832*
X00022293173Y00000470814*
X00022307194Y00000427685*
X00022324187Y00000385597*
X00022344075Y00000344830*
X00022366757Y00000305536*
X00022392132Y00000267919*
X00022420046Y00000232181*
X00022450425Y00000198450*
X00022483064Y00000166954*
X00022517811Y00000137769*
X00022554514Y00000111125*
X00022592995Y00000087071*
X00022633051Y00000065760*
X00022674503Y00000047320*
X00022717125Y00000031800*
X00022760736Y00000019304*
X00022805110Y00000009855*
X00022850043Y00000003556*
X00022895306Y00000000381*
X00022917988Y00000000000*
X00028817976D02*
D01*
X00028863340Y00000001574*
X00028908451Y00000006324*
X00028953129Y00000014198*
X00028997148Y00000025171*
X00029040302Y00000039192*
X00029082365Y00000056184*
X00029123132Y00000076073*
X00029162425Y00000098755*
X00029200043Y00000124129*
X00029235806Y00000152069*
X00029269512Y00000182422*
X00029301033Y00000215061*
X00029330192Y00000249809*
X00029356862Y00000286512*
X00029380891Y00000324993*
X00029402201Y00000365048*
X00029420667Y00000406501*
X00029436161Y00000449122*
X00029448683Y00000492734*
X00029458107Y00000537108*
X00029464431Y00000582041*
X00029467581Y00000627303*
X00029467987Y00000649986*
Y00005349976D02*
D01*
X00029466413Y00005395341*
X00029461663Y00005440451*
X00029453789Y00005485130*
X00029442816Y00005529148*
X00029428795Y00005572302*
X00029411803Y00005614365*
X00029391914Y00005655132*
X00029369207Y00005694426*
X00029343858Y00005732043*
X00029315918Y00005767806*
X00029285565Y00005801512*
X00029252926Y00005833033*
X00029218178Y00005862193*
X00029181450Y00005888863*
X00029142994Y00005912891*
X00029102939Y00005934202*
X00029061486Y00005952667*
X00029018839Y00005968161*
X00028975227Y00005980684*
X00028930854Y00005990107*
X00028885921Y00005996432*
X00028840684Y00005999581*
X00028817976Y00005999988*
X00022917988D02*
D01*
X00022872649Y00005998413*
X00022827513Y00005993663*
X00022782834Y00005985789*
X00022738816Y00005974816*
X00022695662Y00005960795*
X00022653599Y00005943803*
X00022612832Y00005923915*
X00022573538Y00005901207*
X00022535921Y00005875858*
X00022500183Y00005847918*
X00022466452Y00005817565*
X00022434931Y00005784926*
X00022405771Y00005750179*
X00022379101Y00005713450*
X00022355073Y00005674995*
X00022333762Y00005634939*
X00022315322Y00005593486*
X00022299803Y00005550839*
X00022287306Y00005507228*
X00022277857Y00005462854*
X00022271558Y00005417921*
X00022268383Y00005372684*
X00022267976Y00005349976*
X00120138799Y00005999988D02*
D01*
X00120093435Y00005998413*
X00120048324Y00005993663*
X00120003646Y00005985789*
X00119959628Y00005974816*
X00119916473Y00005960795*
X00119874411Y00005943803*
X00119833618Y00005923915*
X00119794350Y00005901207*
X00119756732Y00005875858*
X00119720969Y00005847918*
X00119687263Y00005817565*
X00119655742Y00005784926*
X00119626583Y00005750179*
X00119599913Y00005713450*
X00119575859Y00005674995*
X00119554574Y00005634939*
X00119536108Y00005593486*
X00119520589Y00005550839*
X00119508092Y00005507228*
X00119498668Y00005462854*
X00119492344Y00005417921*
X00119489194Y00005372684*
X00119488788Y00005349976*
X00126688799D02*
D01*
X00126687199Y00005395341*
X00126682449Y00005440451*
X00126674575Y00005485130*
X00126663602Y00005529148*
X00126649581Y00005572302*
X00126632589Y00005614365*
X00126612700Y00005655132*
X00126590018Y00005694426*
X00126564644Y00005732043*
X00126536704Y00005767806*
X00126506351Y00005801512*
X00126473712Y00005833033*
X00126438964Y00005862193*
X00126402261Y00005888863*
X00126363780Y00005912891*
X00126323725Y00005934202*
X00126282272Y00005952667*
X00126239651Y00005968161*
X00126196039Y00005980684*
X00126151665Y00005990107*
X00126106732Y00005996432*
X00126061470Y00005999581*
X00126038787Y00005999988*
Y00000000000D02*
D01*
X00126084126Y00000001574*
X00126129237Y00000006324*
X00126173941Y00000014198*
X00126217959Y00000025171*
X00126261088Y00000039192*
X00126303176Y00000056184*
X00126343943Y00000076073*
X00126383237Y00000098755*
X00126420854Y00000124129*
X00126456592Y00000152069*
X00126490323Y00000182422*
X00126521819Y00000215061*
X00126551004Y00000249809*
X00126577674Y00000286512*
X00126601702Y00000324993*
X00126623013Y00000365048*
X00126641453Y00000406501*
X00126656973Y00000449122*
X00126669469Y00000492734*
X00126678918Y00000537108*
X00126685217Y00000582041*
X00126688392Y00000627303*
X00126688799Y00000649986*
X00119488788D02*
D01*
X00119490363Y00000604647*
X00119495112Y00000559536*
X00119502986Y00000514832*
X00119513959Y00000470814*
X00119527980Y00000427685*
X00119544973Y00000385597*
X00119564861Y00000344830*
X00119587543Y00000305536*
X00119612918Y00000267919*
X00119640858Y00000232181*
X00119671211Y00000198450*
X00119703850Y00000166954*
X00119738597Y00000137769*
X00119775300Y00000111125*
X00119813781Y00000087071*
X00119853837Y00000065760*
X00119895289Y00000047320*
X00119937936Y00000031800*
X00119981548Y00000019304*
X00120025922Y00000009855*
X00120070854Y00000003556*
X00120116092Y00000000381*
X00120138799Y00000000000*
X00130254298Y00000649986D02*
D01*
X00130255873Y00000604647*
X00130260623Y00000559536*
X00130268497Y00000514832*
X00130279470Y00000470814*
X00130293491Y00000427685*
X00130310483Y00000385597*
X00130330371Y00000344830*
X00130353054Y00000305536*
X00130378428Y00000267919*
X00130406368Y00000232181*
X00130436721Y00000198450*
X00130469360Y00000166954*
X00130504107Y00000137769*
X00130540810Y00000111125*
X00130579291Y00000087071*
X00130619347Y00000065760*
X00130660800Y00000047320*
X00130703421Y00000031800*
X00130747033Y00000019304*
X00130791407Y00000009855*
X00130836339Y00000003556*
X00130881602Y00000000381*
X00130904284Y00000000000*
X00136804298D02*
D01*
X00136849637Y00000001574*
X00136894747Y00000006324*
X00136939426Y00000014198*
X00136983444Y00000025171*
X00137026599Y00000039192*
X00137068661Y00000056184*
X00137109454Y00000076073*
X00137148722Y00000098755*
X00137186339Y00000124129*
X00137222103Y00000152069*
X00137255808Y00000182422*
X00137287330Y00000215061*
X00137316489Y00000249809*
X00137343159Y00000286512*
X00137367213Y00000324993*
X00137388498Y00000365048*
X00137406964Y00000406501*
X00137422483Y00000449122*
X00137434980Y00000492734*
X00137444403Y00000537108*
X00137450728Y00000582041*
X00137453903Y00000627303*
X00137454284Y00000649986*
Y00005349976D02*
D01*
X00137452709Y00005395341*
X00137447959Y00005440451*
X00137440085Y00005485130*
X00137429113Y00005529148*
X00137415092Y00005572302*
X00137398099Y00005614365*
X00137378211Y00005655132*
X00137355529Y00005694426*
X00137330154Y00005732043*
X00137302214Y00005767806*
X00137271861Y00005801512*
X00137239222Y00005833033*
X00137204475Y00005862193*
X00137167772Y00005888863*
X00137129291Y00005912891*
X00137089235Y00005934202*
X00137047782Y00005952667*
X00137005136Y00005968161*
X00136961524Y00005980684*
X00136917150Y00005990107*
X00136872243Y00005996432*
X00136826980Y00005999581*
X00136804298Y00005999988*
X00130904284D02*
D01*
X00130858945Y00005998413*
X00130813835Y00005993663*
X00130769156Y00005985789*
X00130725113Y00005974816*
X00130681984Y00005960795*
X00130639896Y00005943803*
X00130599129Y00005923915*
X00130559835Y00005901207*
X00130522218Y00005875858*
X00130486480Y00005847918*
X00130452749Y00005817565*
X00130421253Y00005784926*
X00130392068Y00005750179*
X00130365423Y00005713450*
X00130341370Y00005674995*
X00130320059Y00005634939*
X00130301619Y00005593486*
X00130286099Y00005550839*
X00130273602Y00005507228*
X00130264154Y00005462854*
X00130257854Y00005417921*
X00130254679Y00005372684*
X00130254298Y00005349976*
X00140918184Y00005999988D02*
D01*
X00140872845Y00005998413*
X00140827734Y00005993663*
X00140783056Y00005985789*
X00140739012Y00005974816*
X00140695883Y00005960795*
X00140653820Y00005943803*
X00140613028Y00005923915*
X00140573734Y00005901207*
X00140536117Y00005875858*
X00140500379Y00005847918*
X00140466648Y00005817565*
X00140435152Y00005784926*
X00140405993Y00005750179*
X00140379323Y00005713450*
X00140355269Y00005674995*
X00140333958Y00005634939*
X00140315518Y00005593486*
X00140299998Y00005550839*
X00140287502Y00005507228*
X00140278053Y00005462854*
X00140271754Y00005417921*
X00140268579Y00005372684*
X00140268198Y00005349976*
X00147468183D02*
D01*
X00147466608Y00005395341*
X00147461859Y00005440451*
X00147453985Y00005485130*
X00147443012Y00005529148*
X00147428991Y00005572302*
X00147411998Y00005614365*
X00147392110Y00005655132*
X00147369428Y00005694426*
X00147344053Y00005732043*
X00147316113Y00005767806*
X00147285760Y00005801512*
X00147253121Y00005833033*
X00147218374Y00005862193*
X00147181671Y00005888863*
X00147143190Y00005912891*
X00147103134Y00005934202*
X00147061682Y00005952667*
X00147019060Y00005968161*
X00146975449Y00005980684*
X00146931049Y00005990107*
X00146886142Y00005996432*
X00146840879Y00005999581*
X00146818197Y00005999988*
Y00000000000D02*
D01*
X00146863536Y00000001574*
X00146908647Y00000006324*
X00146953325Y00000014198*
X00146997343Y00000025171*
X00147040498Y00000039192*
X00147082560Y00000056184*
X00147123353Y00000076073*
X00147162647Y00000098755*
X00147200239Y00000124129*
X00147236002Y00000152069*
X00147269708Y00000182422*
X00147301229Y00000215061*
X00147330388Y00000249809*
X00147357058Y00000286512*
X00147381112Y00000324993*
X00147402397Y00000365048*
X00147420863Y00000406501*
X00147436382Y00000449122*
X00147448879Y00000492734*
X00147458303Y00000537108*
X00147464627Y00000582041*
X00147467802Y00000627303*
X00147468183Y00000649986*
X00140268198D02*
D01*
X00140269772Y00000604647*
X00140274522Y00000559536*
X00140282396Y00000514832*
X00140293369Y00000470814*
X00140307390Y00000427685*
X00140324382Y00000385597*
X00140344271Y00000344830*
X00140366953Y00000305536*
X00140392327Y00000267919*
X00140420267Y00000232181*
X00140450620Y00000198450*
X00140483259Y00000166954*
X00140518007Y00000137769*
X00140554710Y00000111125*
X00140593191Y00000087071*
X00140633246Y00000065760*
X00140674699Y00000047320*
X00140717320Y00000031800*
X00140760932Y00000019304*
X00140805306Y00000009855*
X00140850239Y00000003556*
X00140895501Y00000000381*
X00140918184Y00000000000*
X00149868280Y00000649986D02*
D01*
X00149869880Y00000604647*
X00149874605Y00000559536*
X00149882479Y00000514832*
X00149893477Y00000470814*
X00149907498Y00000427685*
X00149924490Y00000385597*
X00149944378Y00000344830*
X00149967061Y00000305536*
X00149992435Y00000267919*
X00150020350Y00000232181*
X00150050728Y00000198450*
X00150083342Y00000166954*
X00150118114Y00000137769*
X00150154817Y00000111125*
X00150193298Y00000087071*
X00150233354Y00000065760*
X00150274782Y00000047320*
X00150317428Y00000031800*
X00150361040Y00000019304*
X00150405414Y00000009855*
X00150450346Y00000003556*
X00150495609Y00000000381*
X00150518291Y00000000000*
X00156418280D02*
D01*
X00156463619Y00000001574*
X00156508754Y00000006324*
X00156553433Y00000014198*
X00156597451Y00000025171*
X00156640606Y00000039192*
X00156682668Y00000056184*
X00156723435Y00000076073*
X00156762729Y00000098755*
X00156800346Y00000124129*
X00156836110Y00000152069*
X00156869815Y00000182422*
X00156901337Y00000215061*
X00156930496Y00000249809*
X00156957166Y00000286512*
X00156981194Y00000324993*
X00157002505Y00000365048*
X00157020945Y00000406501*
X00157036465Y00000449122*
X00157048987Y00000492734*
X00157058410Y00000537108*
X00157064735Y00000582041*
X00157067885Y00000627303*
X00157068291Y00000649986*
Y00005349976D02*
D01*
X00157066716Y00005395341*
X00157061966Y00005440451*
X00157054092Y00005485130*
X00157043120Y00005529148*
X00157029099Y00005572302*
X00157012081Y00005614365*
X00156992193Y00005655132*
X00156969510Y00005694426*
X00156944136Y00005732043*
X00156916221Y00005767806*
X00156885868Y00005801512*
X00156853229Y00005833033*
X00156818457Y00005862193*
X00156781754Y00005888863*
X00156743298Y00005912891*
X00156703217Y00005934202*
X00156661789Y00005952667*
X00156619143Y00005968161*
X00156575531Y00005980684*
X00156531157Y00005990107*
X00156486225Y00005996432*
X00156440962Y00005999581*
X00156418280Y00005999988*
X00150518291D02*
D01*
X00150472952Y00005998413*
X00150427817Y00005993663*
X00150383138Y00005985789*
X00150339120Y00005974816*
X00150295965Y00005960795*
X00150253903Y00005943803*
X00150213136Y00005923915*
X00150173842Y00005901207*
X00150136225Y00005875858*
X00150100487Y00005847918*
X00150066756Y00005817565*
X00150035234Y00005784926*
X00150006075Y00005750179*
X00149979405Y00005713450*
X00149955377Y00005674995*
X00149934066Y00005634939*
X00149915626Y00005593486*
X00149900106Y00005550839*
X00149887584Y00005507228*
X00149878161Y00005462854*
X00149871836Y00005417921*
X00149868686Y00005372684*
X00149868280Y00005349976*
X00174784893Y00005999988D02*
D01*
X00174739554Y00005998413*
X00174694418Y00005993663*
X00174649739Y00005985789*
X00174605721Y00005974816*
X00174562566Y00005960795*
X00174520504Y00005943803*
X00174479737Y00005923915*
X00174440443Y00005901207*
X00174402826Y00005875858*
X00174367063Y00005847918*
X00174333357Y00005817565*
X00174301835Y00005784926*
X00174272676Y00005750179*
X00174246006Y00005713450*
X00174221978Y00005674995*
X00174200667Y00005634939*
X00174182227Y00005593486*
X00174166707Y00005550839*
X00174154185Y00005507228*
X00174144762Y00005462854*
X00174138437Y00005417921*
X00174135288Y00005372684*
X00174134881Y00005349976*
X00181334892D02*
D01*
X00181333292Y00005395341*
X00181328568Y00005440451*
X00181320694Y00005485130*
X00181309695Y00005529148*
X00181295675Y00005572302*
X00181278682Y00005614365*
X00181258794Y00005655132*
X00181236112Y00005694426*
X00181210737Y00005732043*
X00181182822Y00005767806*
X00181152469Y00005801512*
X00181119830Y00005833033*
X00181085058Y00005862193*
X00181048355Y00005888863*
X00181009899Y00005912891*
X00180969818Y00005934202*
X00180928391Y00005952667*
X00180885744Y00005968161*
X00180842132Y00005980684*
X00180797758Y00005990107*
X00180752826Y00005996432*
X00180707563Y00005999581*
X00180684881Y00005999988*
Y00000000000D02*
D01*
X00180730220Y00000001574*
X00180775356Y00000006324*
X00180820034Y00000014198*
X00180864052Y00000025171*
X00180907207Y00000039192*
X00180949269Y00000056184*
X00180990036Y00000076073*
X00181029330Y00000098755*
X00181066948Y00000124129*
X00181102711Y00000152069*
X00181136417Y00000182422*
X00181167938Y00000215061*
X00181197097Y00000249809*
X00181223767Y00000286512*
X00181247796Y00000324993*
X00181269106Y00000365048*
X00181287547Y00000406501*
X00181303066Y00000449122*
X00181315588Y00000492734*
X00181325012Y00000537108*
X00181331336Y00000582041*
X00181334486Y00000627303*
X00181334892Y00000649986*
X00174134881D02*
D01*
X00174136481Y00000604647*
X00174141206Y00000559536*
X00174149080Y00000514832*
X00174160078Y00000470814*
X00174174099Y00000427685*
X00174191091Y00000385597*
X00174210980Y00000344830*
X00174233662Y00000305536*
X00174259036Y00000267919*
X00174286951Y00000232181*
X00174317304Y00000198450*
X00174349943Y00000166954*
X00174384716Y00000137769*
X00174421419Y00000111125*
X00174459900Y00000087071*
X00174499955Y00000065760*
X00174541383Y00000047320*
X00174584029Y00000031800*
X00174627641Y00000019304*
X00174672015Y00000009855*
X00174716948Y00000003556*
X00174762210Y00000000381*
X00174784893Y00000000000*
X00186934881Y00000649986D02*
D01*
X00186936481Y00000604647*
X00186941206Y00000559536*
X00186949080Y00000514832*
X00186960078Y00000470814*
X00186974099Y00000427685*
X00186991091Y00000385597*
X00187010979Y00000344830*
X00187033662Y00000305536*
X00187059036Y00000267919*
X00187086951Y00000232181*
X00187117304Y00000198450*
X00187149943Y00000166954*
X00187184715Y00000137769*
X00187221418Y00000111125*
X00187259899Y00000087071*
X00187299955Y00000065760*
X00187341383Y00000047320*
X00187384029Y00000031800*
X00187427641Y00000019304*
X00187472015Y00000009855*
X00187516947Y00000003556*
X00187562210Y00000000381*
X00187584892Y00000000000*
X00193484881D02*
D01*
X00193530220Y00000001574*
X00193575355Y00000006324*
X00193620034Y00000014198*
X00193664052Y00000025171*
X00193707207Y00000039192*
X00193749269Y00000056184*
X00193790036Y00000076073*
X00193829330Y00000098755*
X00193866947Y00000124129*
X00193902711Y00000152069*
X00193936416Y00000182422*
X00193967938Y00000215061*
X00193997097Y00000249809*
X00194023767Y00000286512*
X00194047795Y00000324993*
X00194069106Y00000365048*
X00194087546Y00000406501*
X00194103066Y00000449122*
X00194115588Y00000492734*
X00194125011Y00000537108*
X00194131336Y00000582041*
X00194134486Y00000627303*
X00194134892Y00000649986*
Y00005349976D02*
D01*
X00194133292Y00005395341*
X00194128567Y00005440451*
X00194120693Y00005485130*
X00194109695Y00005529148*
X00194095700Y00005572302*
X00194078682Y00005614365*
X00194058794Y00005655132*
X00194036111Y00005694426*
X00194010737Y00005732043*
X00193982822Y00005767806*
X00193952469Y00005801512*
X00193919830Y00005833033*
X00193885058Y00005862193*
X00193848355Y00005888863*
X00193809899Y00005912891*
X00193769818Y00005934202*
X00193728390Y00005952667*
X00193685744Y00005968161*
X00193642132Y00005980684*
X00193597758Y00005990107*
X00193552826Y00005996432*
X00193507563Y00005999581*
X00193484881Y00005999988*
X00187584892D02*
D01*
X00187539553Y00005998413*
X00187494418Y00005993663*
X00187449739Y00005985789*
X00187405721Y00005974816*
X00187362566Y00005960795*
X00187320504Y00005943803*
X00187279737Y00005923915*
X00187240443Y00005901207*
X00187202826Y00005875858*
X00187167062Y00005847918*
X00187133357Y00005817565*
X00187101835Y00005784926*
X00187072676Y00005750179*
X00187046006Y00005713450*
X00187021978Y00005674995*
X00187000667Y00005634939*
X00186982227Y00005593486*
X00186966707Y00005550839*
X00186954185Y00005507228*
X00186944762Y00005462854*
X00186938437Y00005417921*
X00186935287Y00005372684*
X00186934881Y00005349976*
X00148449995Y00005949975D02*
D01*
X00148449868Y00005953480*
X00148449512Y00005956935*
X00148448903Y00005960389*
X00148448039Y00005963767*
X00148446972Y00005967095*
X00148445677Y00005970320*
X00148444127Y00005973470*
X00148442400Y00005976493*
X00148440444Y00005979388*
X00148438285Y00005982131*
X00148435949Y00005984722*
X00148433434Y00005987135*
X00148430767Y00005989396*
X00148427948Y00005991428*
X00148424976Y00005993282*
X00148421902Y00005994933*
X00148418727Y00005996355*
X00148415425Y00005997549*
X00148412073Y00005998489*
X00148408669Y00005999226*
X00148405215Y00005999708*
X00148401735Y00005999962*
X00148398230*
X00148394750Y00005999708*
X00148391295Y00005999226*
X00148387892Y00005998489*
X00148384539Y00005997549*
X00148381262Y00005996355*
X00148378062Y00005994933*
X00148374989Y00005993282*
X00148372017Y00005991428*
X00148369197Y00005989396*
X00148366530Y00005987135*
X00148364016Y00005984722*
X00148361679Y00005982131*
X00148359545Y00005979388*
X00148357590Y00005976493*
X00148355837Y00005973470*
X00148354313Y00005970320*
X00148352992Y00005967095*
X00148351925Y00005963767*
X00148351087Y00005960389*
X00148350478Y00005956935*
X00148350097Y00005953480*
X00148349995Y00005949975*
X00148350097Y00005946495*
X00148350478Y00005943041*
X00148351087Y00005939586*
X00148351925Y00005936208*
X00148352992Y00005932881*
X00148354313Y00005929655*
X00148355837Y00005926505*
X00148357590Y00005923483*
X00148359545Y00005920587*
X00148361679Y00005917844*
X00148364016Y00005915253*
X00148366530Y00005912840*
X00148369197Y00005910580*
X00148372017Y00005908548*
X00148374989Y00005906693*
X00148378062Y00005905042*
X00148381262Y00005903620*
X00148384539Y00005902426*
X00148387892Y00005901461*
X00148391295Y00005900750*
X00148394750Y00005900267*
X00148398230Y00005900013*
X00148401735*
X00148405215Y00005900267*
X00148408669Y00005900750*
X00148412073Y00005901461*
X00148415425Y00005902426*
X00148418727Y00005903620*
X00148421902Y00005905042*
X00148424976Y00005906693*
X00148427948Y00005908548*
X00148430767Y00005910580*
X00148433434Y00005912840*
X00148435949Y00005915253*
X00148438285Y00005917844*
X00148440444Y00005920587*
X00148442400Y00005923483*
X00148444127Y00005926505*
X00148445677Y00005929655*
X00148446972Y00005932881*
X00148448039Y00005936208*
X00148448903Y00005939586*
X00148449512Y00005943041*
X00148449868Y00005946495*
X00148449995Y00005949975*
X00196524981Y00000374980D02*
D01*
X00196524854Y00000378485*
X00196524499Y00000381939*
X00196523889Y00000385394*
X00196523051Y00000388772*
X00196521984Y00000392099*
X00196520663Y00000395325*
X00196519139Y00000398449*
X00196517387Y00000401472*
X00196515431Y00000404368*
X00196513297Y00000407136*
X00196510960Y00000409727*
X00196508446Y00000412140*
X00196505779Y00000414375*
X00196502934Y00000416433*
X00196499988Y00000418287*
X00196496914Y00000419938*
X00196493714Y00000421335*
X00196490437Y00000422529*
X00196487084Y00000423494*
X00196483681Y00000424230*
X00196480201Y00000424713*
X00196476721Y00000424967*
X00196473241*
X00196469762Y00000424713*
X00196466307Y00000424230*
X00196462878Y00000423494*
X00196459525Y00000422529*
X00196456249Y00000421335*
X00196453074Y00000419938*
X00196449975Y00000418287*
X00196447029Y00000416433*
X00196444209Y00000414375*
X00196441542Y00000412140*
X00196439028Y00000409727*
X00196436691Y00000407136*
X00196434532Y00000404368*
X00196432576Y00000401472*
X00196430849Y00000398449*
X00196429299Y00000395325*
X00196428004Y00000392099*
X00196426912Y00000388772*
X00196426074Y00000385394*
X00196425464Y00000381939*
X00196425108Y00000378485*
X00196424981Y00000374980*
X00196425108Y00000371500*
X00196425464Y00000368020*
X00196426074Y00000364591*
X00196426912Y00000361213*
X00196428004Y00000357886*
X00196429299Y00000354660*
X00196430849Y00000351510*
X00196432576Y00000348488*
X00196434532Y00000345592*
X00196436691Y00000342849*
X00196439028Y00000340258*
X00196441542Y00000337820*
X00196444209Y00000335584*
X00196447029Y00000333527*
X00196449975Y00000331698*
X00196453074Y00000330047*
X00196456249Y00000328625*
X00196459525Y00000327431*
X00196462878Y00000326466*
X00196466307Y00000325755*
X00196469762Y00000325272*
X00196473241Y00000325018*
X00196476721*
X00196480201Y00000325272*
X00196483681Y00000325755*
X00196487084Y00000326466*
X00196490437Y00000327431*
X00196493714Y00000328625*
X00196496914Y00000330047*
X00196499988Y00000331698*
X00196502934Y00000333527*
X00196505779Y00000335584*
X00196508446Y00000337820*
X00196510960Y00000340258*
X00196513297Y00000342849*
X00196515431Y00000345592*
X00196517387Y00000348488*
X00196519139Y00000351510*
X00196520663Y00000354660*
X00196521984Y00000357886*
X00196523051Y00000361213*
X00196523889Y00000364591*
X00196524499Y00000368020*
X00196524854Y00000371500*
X00196524981Y00000374980*
X00161569984Y00003461893D02*
D01*
X00161569857Y00003465372*
X00161569501Y00003468852*
X00161568892Y00003472281*
X00161568053Y00003475659*
X00161566961Y00003478987*
X00161565666Y00003482213*
X00161564142Y00003485362*
X00161562389Y00003488385*
X00161560433Y00003491280*
X00161558300Y00003494024*
X00161555963Y00003496614*
X00161553448Y00003499053*
X00161550781Y00003501288*
X00161547937Y00003503345*
X00161544990Y00003505200*
X00161541917Y00003506825*
X00161538716Y00003508248*
X00161535440Y00003509441*
X00161532087Y00003510407*
X00161528658Y00003511118*
X00161525204Y00003511600*
X00161521724Y00003511854*
X00161518244*
X00161514764Y00003511600*
X00161511310Y00003511118*
X00161507881Y00003510407*
X00161504528Y00003509441*
X00161501251Y00003508248*
X00161498076Y00003506825*
X00161494978Y00003505200*
X00161492031Y00003503345*
X00161489212Y00003501288*
X00161486519Y00003499053*
X00161484030Y00003496614*
X00161481693Y00003494024*
X00161479534Y00003491280*
X00161477579Y00003488385*
X00161475851Y00003485362*
X00161474302Y00003482213*
X00161473007Y00003478987*
X00161471914Y00003475659*
X00161471076Y00003472281*
X00161470467Y00003468852*
X00161470111Y00003465372*
X00161469984Y00003461893*
X00161470111Y00003458387*
X00161470467Y00003454933*
X00161471076Y00003451504*
X00161471914Y00003448100*
X00161473007Y00003444798*
X00161474302Y00003441547*
X00161475851Y00003438423*
X00161477579Y00003435400*
X00161479534Y00003432505*
X00161481693Y00003429736*
X00161484030Y00003427145*
X00161486519Y00003424732*
X00161489212Y00003422497*
X00161492031Y00003420440*
X00161494978Y00003418586*
X00161498076Y00003416935*
X00161501251Y00003415538*
X00161504528Y00003414344*
X00161507881Y00003413379*
X00161511310Y00003412642*
X00161514764Y00003412159*
X00161518244Y00003411905*
X00161521724*
X00161525204Y00003412159*
X00161528658Y00003412642*
X00161532087Y00003413379*
X00161535440Y00003414344*
X00161538716Y00003415538*
X00161541917Y00003416935*
X00161544990Y00003418586*
X00161547937Y00003420440*
X00161550781Y00003422497*
X00161553448Y00003424732*
X00161555963Y00003427145*
X00161558300Y00003429736*
X00161560433Y00003432505*
X00161562389Y00003435400*
X00161564142Y00003438423*
X00161565666Y00003441547*
X00161566961Y00003444798*
X00161568053Y00003448100*
X00161568892Y00003451504*
X00161569501Y00003454933*
X00161569857Y00003458387*
X00161569984Y00003461893*
X00108599986Y00004499991D02*
D01*
X00108599859Y00004503470*
X00108599503Y00004506950*
X00108598893Y00004510379*
X00108598055Y00004513757*
X00108596963Y00004517085*
X00108595668Y00004520336*
X00108594144Y00004523460*
X00108592391Y00004526483*
X00108590435Y00004529378*
X00108588302Y00004532122*
X00108585965Y00004534712*
X00108583450Y00004537151*
X00108580758Y00004539386*
X00108577938Y00004541443*
X00108574992Y00004543298*
X00108571893Y00004544923*
X00108568718Y00004546346*
X00108565442Y00004547539*
X00108562089Y00004548505*
X00108558660Y00004549216*
X00108555205Y00004549724*
X00108551726Y00004549952*
X00108548246*
X00108544766Y00004549724*
X00108541312Y00004549216*
X00108537883Y00004548505*
X00108534530Y00004547539*
X00108531253Y00004546346*
X00108528078Y00004544923*
X00108524979Y00004543298*
X00108522033Y00004541443*
X00108519214Y00004539386*
X00108516521Y00004537151*
X00108514032Y00004534712*
X00108511695Y00004532122*
X00108509536Y00004529378*
X00108507580Y00004526483*
X00108505828Y00004523460*
X00108504304Y00004520336*
X00108503008Y00004517085*
X00108501916Y00004513757*
X00108501078Y00004510379*
X00108500468Y00004506950*
X00108500113Y00004503470*
X00108499986Y00004499991*
X00108500113Y00004496511*
X00108500468Y00004493031*
X00108501078Y00004489602*
X00108501916Y00004486198*
X00108503008Y00004482896*
X00108504304Y00004479645*
X00108505828Y00004476521*
X00108507580Y00004473498*
X00108509536Y00004470603*
X00108511695Y00004467860*
X00108514032Y00004465243*
X00108516521Y00004462830*
X00108519214Y00004460595*
X00108522033Y00004458538*
X00108524979Y00004456684*
X00108528078Y00004455058*
X00108531253Y00004453636*
X00108534530Y00004452442*
X00108537883Y00004451477*
X00108541312Y00004450740*
X00108544766Y00004450257*
X00108548246Y00004450029*
X00108551726*
X00108555205Y00004450257*
X00108558660Y00004450740*
X00108562089Y00004451477*
X00108565442Y00004452442*
X00108568718Y00004453636*
X00108571893Y00004455058*
X00108574992Y00004456684*
X00108577938Y00004458538*
X00108580758Y00004460595*
X00108583450Y00004462830*
X00108585965Y00004465243*
X00108588302Y00004467860*
X00108590435Y00004470603*
X00108592391Y00004473498*
X00108594144Y00004476521*
X00108595668Y00004479645*
X00108596963Y00004482896*
X00108598055Y00004486198*
X00108598893Y00004489602*
X00108599503Y00004493031*
X00108599859Y00004496511*
X00108599986Y00004499991*
X00108849998Y00005699988D02*
D01*
X00108849871Y00005703468*
X00108849490Y00005706948*
X00108848906Y00005710377*
X00108848042Y00005713780*
X00108846975Y00005717082*
X00108845654Y00005720334*
X00108844130Y00005723458*
X00108842378Y00005726480*
X00108840447Y00005729376*
X00108838288Y00005732119*
X00108835952Y00005734710*
X00108833437Y00005737148*
X00108830770Y00005739384*
X00108827951Y00005741441*
X00108824979Y00005743295*
X00108821905Y00005744921*
X00108818705Y00005746343*
X00108815428Y00005747537*
X00108812076Y00005748502*
X00108808672Y00005749239*
X00108805218Y00005749721*
X00108801738Y00005749950*
X00108798233*
X00108794753Y00005749721*
X00108791298Y00005749239*
X00108787895Y00005748502*
X00108784542Y00005747537*
X00108781265Y00005746343*
X00108778065Y00005744921*
X00108774992Y00005743295*
X00108772020Y00005741441*
X00108769200Y00005739384*
X00108766533Y00005737148*
X00108764019Y00005734710*
X00108761682Y00005732119*
X00108759548Y00005729376*
X00108757593Y00005726480*
X00108755840Y00005723458*
X00108754316Y00005720334*
X00108752995Y00005717082*
X00108751928Y00005713780*
X00108751090Y00005710377*
X00108750481Y00005706948*
X00108750100Y00005703468*
X00108749998Y00005699988*
X00108750100Y00005696508*
X00108750481Y00005693029*
X00108751090Y00005689600*
X00108751928Y00005686196*
X00108752995Y00005682894*
X00108754316Y00005679643*
X00108755840Y00005676519*
X00108757593Y00005673496*
X00108759548Y00005670600*
X00108761682Y00005667857*
X00108764019Y00005665266*
X00108766533Y00005662828*
X00108769200Y00005660593*
X00108772020Y00005658535*
X00108774992Y00005656681*
X00108778065Y00005655056*
X00108781265Y00005653633*
X00108784542Y00005652439*
X00108787895Y00005651474*
X00108791298Y00005650738*
X00108794753Y00005650255*
X00108798233Y00005650026*
X00108801738*
X00108805218Y00005650255*
X00108808672Y00005650738*
X00108812076Y00005651474*
X00108815428Y00005652439*
X00108818705Y00005653633*
X00108821905Y00005655056*
X00108824979Y00005656681*
X00108827951Y00005658535*
X00108830770Y00005660593*
X00108833437Y00005662828*
X00108835952Y00005665266*
X00108838288Y00005667857*
X00108840447Y00005670600*
X00108842378Y00005673496*
X00108844130Y00005676519*
X00108845654Y00005679643*
X00108846975Y00005682894*
X00108848042Y00005686196*
X00108848906Y00005689600*
X00108849490Y00005693029*
X00108849871Y00005696508*
X00108849998Y00005699988*
X00021599982Y00002149983D02*
D01*
X00021599855Y00002153462*
X00021599499Y00002156942*
X00021598890Y00002160371*
X00021598051Y00002163775*
X00021596959Y00002167077*
X00021595664Y00002170328*
X00021594140Y00002173452*
X00021592387Y00002176475*
X00021590431Y00002179370*
X00021588298Y00002182114*
X00021585961Y00002184730*
X00021583446Y00002187143*
X00021580779Y00002189378*
X00021577935Y00002191435*
X00021574988Y00002193290*
X00021571915Y00002194915*
X00021568714Y00002196338*
X00021565438Y00002197531*
X00021562085Y00002198497*
X00021558681Y00002199233*
X00021555202Y00002199716*
X00021551722Y00002199944*
X00021548242*
X00021544762Y00002199716*
X00021541308Y00002199233*
X00021537879Y00002198497*
X00021534526Y00002197531*
X00021531249Y00002196338*
X00021528074Y00002194915*
X00021524976Y00002193290*
X00021522029Y00002191435*
X00021519210Y00002189378*
X00021516543Y00002187143*
X00021514028Y00002184730*
X00021511691Y00002182114*
X00021509532Y00002179370*
X00021507577Y00002176475*
X00021505849Y00002173452*
X00021504300Y00002170328*
X00021503005Y00002167077*
X00021501912Y00002163775*
X00021501074Y00002160371*
X00021500465Y00002156942*
X00021500109Y00002153462*
X00021499982Y00002149983*
X00021500109Y00002146503*
X00021500465Y00002143023*
X00021501074Y00002139594*
X00021501912Y00002136216*
X00021503005Y00002132888*
X00021504300Y00002129663*
X00021505849Y00002126513*
X00021507577Y00002123490*
X00021509532Y00002120595*
X00021511691Y00002117852*
X00021514028Y00002115261*
X00021516543Y00002112822*
X00021519210Y00002110587*
X00021522029Y00002108530*
X00021524976Y00002106676*
X00021528074Y00002105050*
X00021531249Y00002103628*
X00021534526Y00002102434*
X00021537879Y00002101469*
X00021541308Y00002100757*
X00021544762Y00002100249*
X00021548242Y00002100021*
X00021551722*
X00021555202Y00002100249*
X00021558681Y00002100757*
X00021562085Y00002101469*
X00021565438Y00002102434*
X00021568714Y00002103628*
X00021571915Y00002105050*
X00021574988Y00002106676*
X00021577935Y00002108530*
X00021580779Y00002110587*
X00021583446Y00002112822*
X00021585961Y00002115261*
X00021588298Y00002117852*
X00021590431Y00002120595*
X00021592387Y00002123490*
X00021594140Y00002126513*
X00021595664Y00002129663*
X00021596959Y00002132888*
X00021598051Y00002136216*
X00021598890Y00002139594*
X00021599499Y00002143023*
X00021599855Y00002146503*
X00021599982Y00002149983*
X00128724990Y00005674995D02*
D01*
X00128724863Y00005678474*
X00128724507Y00005681954*
X00128723898Y00005685383*
X00128723059Y00005688761*
X00128721967Y00005692089*
X00128720672Y00005695315*
X00128719122Y00005698464*
X00128717395Y00005701487*
X00128715439Y00005704382*
X00128713280Y00005707126*
X00128710944Y00005709716*
X00128708454Y00005712155*
X00128705762Y00005714390*
X00128702943Y00005716447*
X00128699996Y00005718276*
X00128696897Y00005719927*
X00128693722Y00005721350*
X00128690446Y00005722543*
X00128687093Y00005723509*
X00128683664Y00005724220*
X00128680210Y00005724702*
X00128676730Y00005724956*
X00128673250*
X00128669770Y00005724702*
X00128666316Y00005724220*
X00128662887Y00005723509*
X00128659534Y00005722543*
X00128656257Y00005721350*
X00128653057Y00005719927*
X00128649984Y00005718276*
X00128647037Y00005716447*
X00128644192Y00005714390*
X00128641525Y00005712155*
X00128639011Y00005709716*
X00128636674Y00005707126*
X00128634540Y00005704382*
X00128632585Y00005701487*
X00128630832Y00005698464*
X00128629308Y00005695315*
X00128628013Y00005692089*
X00128626920Y00005688761*
X00128626082Y00005685383*
X00128625473Y00005681954*
X00128625117Y00005678474*
X00128624990Y00005674995*
X00128625117Y00005671489*
X00128625473Y00005668035*
X00128626082Y00005664581*
X00128626920Y00005661202*
X00128628013Y00005657875*
X00128629308Y00005654649*
X00128630832Y00005651525*
X00128632585Y00005648502*
X00128634540Y00005645607*
X00128636674Y00005642838*
X00128639011Y00005640247*
X00128641525Y00005637834*
X00128644192Y00005635574*
X00128647037Y00005633542*
X00128649984Y00005631688*
X00128653057Y00005630037*
X00128656257Y00005628640*
X00128659534Y00005627446*
X00128662887Y00005626481*
X00128666316Y00005625744*
X00128669770Y00005625261*
X00128673250Y00005625007*
X00128676730*
X00128680210Y00005625261*
X00128683664Y00005625744*
X00128687093Y00005626481*
X00128690446Y00005627446*
X00128693722Y00005628640*
X00128696897Y00005630037*
X00128699996Y00005631688*
X00128702943Y00005633542*
X00128705762Y00005635574*
X00128708454Y00005637834*
X00128710944Y00005640247*
X00128713280Y00005642838*
X00128715439Y00005645607*
X00128717395Y00005648502*
X00128719122Y00005651525*
X00128720672Y00005654649*
X00128721967Y00005657875*
X00128723059Y00005661202*
X00128723898Y00005664581*
X00128724507Y00005668035*
X00128724863Y00005671489*
X00128724990Y00005674995*
X00011517884Y00000000000D02*
X00017417897D01*
X00018067883Y00000649986D02*
Y00005349976D01*
X00011517884Y00005999988D02*
X00017417897D01*
X00010867898Y00000649986D02*
Y00005349976D01*
X00022267976Y00000649986D02*
Y00005349976D01*
X00022917988Y00005999988D02*
X00028817976D01*
X00029467987Y00000649986D02*
Y00005349976D01*
X00022917988Y00000000000D02*
X00028817976D01*
X00120138799D02*
X00126038787D01*
X00126688799Y00000649986D02*
Y00005349976D01*
X00120138799Y00005999988D02*
X00126038787D01*
X00119488788Y00000649986D02*
Y00005349976D01*
X00130254298Y00000649986D02*
Y00005349976D01*
X00130904284Y00005999988D02*
X00136804298D01*
X00137454284Y00000649986D02*
Y00005349976D01*
X00130904284Y00000000000D02*
X00136804298D01*
X00140918184D02*
X00146818197D01*
X00147468183Y00000649986D02*
Y00005349976D01*
X00140918184Y00005999988D02*
X00146818197D01*
X00140268198Y00000649986D02*
Y00005349976D01*
X00149868280Y00000649986D02*
Y00005349976D01*
X00150518291Y00005999988D02*
X00156418280D01*
X00157068291Y00000649986D02*
Y00005349976D01*
X00150518291Y00000000000D02*
X00156418280D01*
X00174784893D02*
X00180684881D01*
X00181334892Y00000649986D02*
Y00005349976D01*
X00174784893Y00005999988D02*
X00180684881D01*
X00174134881Y00000649986D02*
Y00005349976D01*
X00186934881Y00000649986D02*
Y00005349976D01*
X00187584892Y00005999988D02*
X00193484881D01*
X00194134892Y00000649986D02*
Y00005349976D01*
X00187584892Y00000000000D02*
X00193484881D01*
G54D11*
X00032099986Y00000799998D02*
D01*
X00032099681Y00000808710*
X00032098767Y00000817372*
X00032097243Y00000825982*
X00032095135Y00000834440*
X00032092442Y00000842746*
X00032089191Y00000850823*
X00032085356Y00000858672*
X00032080987Y00000866216*
X00032076110Y00000873455*
X00032070751Y00000880338*
X00032064909Y00000886815*
X00032058635Y00000892886*
X00032051955Y00000898499*
X00032044894Y00000903605*
X00032037477Y00000908227*
X00032029781Y00000912342*
X00032021805Y00000915873*
X00032013626Y00000918870*
X00032005219Y00000921283*
X00031996684Y00000923086*
X00031988048Y00000924306*
X00031979362Y00000924915*
X00031970624*
X00031961912Y00000924306*
X00031953276Y00000923086*
X00031944741Y00000921283*
X00031936359Y00000918870*
X00031928155Y00000915873*
X00031920180Y00000912342*
X00031912483Y00000908227*
X00031905092Y00000903605*
X00031898031Y00000898499*
X00031891351Y00000892886*
X00031885077Y00000886815*
X00031879235Y00000880338*
X00031873850Y00000873455*
X00031868973Y00000866216*
X00031864630Y00000858672*
X00031860794Y00000850823*
X00031857518Y00000842746*
X00031854825Y00000834440*
X00031852717Y00000825982*
X00031851193Y00000817372*
X00031850279Y00000808710*
X00031849999Y00000799998*
X00031850279Y00000791260*
X00031851193Y00000782599*
X00031852717Y00000773988*
X00031854825Y00000765530*
X00031857518Y00000757224*
X00031860794Y00000749147*
X00031864630Y00000741299*
X00031868973Y00000733755*
X00031873850Y00000726516*
X00031879235Y00000719632*
X00031885077Y00000713155*
X00031891351Y00000707085*
X00031898031Y00000701497*
X00031905092Y00000696366*
X00031912483Y00000691743*
X00031920180Y00000687628*
X00031928155Y00000684098*
X00031936359Y00000681101*
X00031944741Y00000678688*
X00031953276Y00000676884*
X00031961912Y00000675665*
X00031970624Y00000675055*
X00031979362*
X00031988048Y00000675665*
X00031996684Y00000676884*
X00032005219Y00000678688*
X00032013626Y00000681101*
X00032021805Y00000684098*
X00032029781Y00000687628*
X00032037477Y00000691743*
X00032044894Y00000696366*
X00032051955Y00000701497*
X00032058635Y00000707085*
X00032064909Y00000713155*
X00032070751Y00000719632*
X00032076110Y00000726516*
X00032080987Y00000733755*
X00032085356Y00000741299*
X00032089191Y00000749147*
X00032092442Y00000757224*
X00032095135Y00000765530*
X00032097243Y00000773988*
X00032098767Y00000782599*
X00032099681Y00000791260*
X00032099986Y00000799998*
X00185174991Y00003149981D02*
D01*
X00185174686Y00003158718*
X00185173772Y00003167380*
X00185172248Y00003175965*
X00185170140Y00003184448*
X00185167447Y00003192729*
X00185164171Y00003200831*
X00185160361Y00003208680*
X00185155992Y00003216224*
X00185151115Y00003223463*
X00185145730Y00003230346*
X00185139914Y00003236823*
X00185133640Y00003242868*
X00185126934Y00003248482*
X00185119899Y00003253613*
X00185112482Y00003258235*
X00185104786Y00003262325*
X00185096810Y00003265881*
X00185088606Y00003268878*
X00185080224Y00003271266*
X00185071689Y00003273094*
X00185063053Y00003274314*
X00185054341Y00003274923*
X00185045629*
X00185036917Y00003274314*
X00185028281Y00003273094*
X00185019746Y00003271266*
X00185011364Y00003268878*
X00185003160Y00003265881*
X00184995185Y00003262325*
X00184987488Y00003258235*
X00184980097Y00003253613*
X00184973036Y00003248482*
X00184966356Y00003242868*
X00184960082Y00003236823*
X00184954240Y00003230346*
X00184948855Y00003223463*
X00184943978Y00003216224*
X00184939609Y00003208680*
X00184935799Y00003200831*
X00184932523Y00003192729*
X00184929830Y00003184448*
X00184927722Y00003175965*
X00184926198Y00003167380*
X00184925284Y00003158718*
X00184924979Y00003149981*
X00184925284Y00003141268*
X00184926198Y00003132582*
X00184927722Y00003123996*
X00184929830Y00003115538*
X00184932523Y00003107232*
X00184935799Y00003099155*
X00184939609Y00003091307*
X00184943978Y00003083737*
X00184948855Y00003076524*
X00184954240Y00003069640*
X00184960082Y00003063163*
X00184966356Y00003057093*
X00184973036Y00003051479*
X00184980097Y00003046349*
X00184987488Y00003041726*
X00184995185Y00003037636*
X00185003160Y00003034080*
X00185011364Y00003031109*
X00185019746Y00003028696*
X00185028281Y00003026892*
X00185036917Y00003025673*
X00185045629Y00003025063*
X00185054341*
X00185063053Y00003025673*
X00185071689Y00003026892*
X00185080224Y00003028696*
X00185088606Y00003031109*
X00185096810Y00003034080*
X00185104786Y00003037636*
X00185112482Y00003041726*
X00185119899Y00003046349*
X00185126934Y00003051479*
X00185133640Y00003057093*
X00185139914Y00003063163*
X00185145730Y00003069640*
X00185151115Y00003076524*
X00185155992Y00003083737*
X00185160361Y00003091307*
X00185164171Y00003099155*
X00185167447Y00003107232*
X00185170140Y00003115538*
X00185172248Y00003123996*
X00185173772Y00003132582*
X00185174686Y00003141268*
X00185174991Y00003149981*
X00169999990Y00000749985D02*
D01*
X00169999685Y00000758698*
X00169998771Y00000767384*
X00169997247Y00000775970*
X00169995138Y00000784453*
X00169992446Y00000792734*
X00169989169Y00000800836*
X00169985359Y00000808659*
X00169980991Y00000816229*
X00169976114Y00000823468*
X00169970754Y00000830326*
X00169964912Y00000836828*
X00169958639Y00000842873*
X00169951933Y00000848487*
X00169944897Y00000853617*
X00169937480Y00000858240*
X00169929784Y00000862330*
X00169921809Y00000865886*
X00169913604Y00000868857*
X00169905222Y00000871270*
X00169896688Y00000873099*
X00169888052Y00000874293*
X00169879340Y00000874903*
X00169870628*
X00169861915Y00000874293*
X00169853279Y00000873099*
X00169844745Y00000871270*
X00169836363Y00000868857*
X00169828159Y00000865886*
X00169820183Y00000862330*
X00169812487Y00000858240*
X00169805096Y00000853617*
X00169798034Y00000848487*
X00169791354Y00000842873*
X00169785080Y00000836828*
X00169779238Y00000830326*
X00169773854Y00000823468*
X00169768977Y00000816229*
X00169764608Y00000808659*
X00169760798Y00000800836*
X00169757521Y00000792734*
X00169754829Y00000784453*
X00169752721Y00000775970*
X00169751197Y00000767384*
X00169750282Y00000758698*
X00169749978Y00000749985*
X00169750282Y00000741273*
X00169751197Y00000732586*
X00169752721Y00000724001*
X00169754829Y00000715543*
X00169757521Y00000707237*
X00169760798Y00000699135*
X00169764608Y00000691311*
X00169768977Y00000683742*
X00169773854Y00000676503*
X00169779238Y00000669645*
X00169785080Y00000663143*
X00169791354Y00000657098*
X00169798034Y00000651484*
X00169805096Y00000646353*
X00169812487Y00000641731*
X00169820183Y00000637641*
X00169828159Y00000634085*
X00169836363Y00000631113*
X00169844745Y00000628700*
X00169853279Y00000626897*
X00169861915Y00000625678*
X00169870628Y00000625068*
X00169879340*
X00169888052Y00000625678*
X00169896688Y00000626897*
X00169905222Y00000628700*
X00169913604Y00000631113*
X00169921809Y00000634085*
X00169929784Y00000637641*
X00169937480Y00000641731*
X00169944897Y00000646353*
X00169951933Y00000651484*
X00169958639Y00000657098*
X00169964912Y00000663143*
X00169970754Y00000669645*
X00169976114Y00000676503*
X00169980991Y00000683742*
X00169985359Y00000691311*
X00169989169Y00000699135*
X00169992446Y00000707237*
X00169995138Y00000715543*
X00169997247Y00000724001*
X00169998771Y00000732586*
X00169999685Y00000741273*
X00169999990Y00000749985*
G54D12*
X00035849991Y00002049983D02*
D01*
X00035849864Y00002053463*
X00035849509Y00002056942*
X00035848899Y00002060371*
X00035848061Y00002063775*
X00035846969Y00002067077*
X00035845673Y00002070328*
X00035844124Y00002073452*
X00035842397Y00002076475*
X00035840441Y00002079371*
X00035838282Y00002082114*
X00035835945Y00002084730*
X00035833456Y00002087143*
X00035830764Y00002089378*
X00035827944Y00002091435*
X00035824998Y00002093290*
X00035821899Y00002094915*
X00035818724Y00002096338*
X00035815447Y00002097532*
X00035812095Y00002098497*
X00035808666Y00002099233*
X00035805211Y00002099716*
X00035801731Y00002099945*
X00035798252*
X00035794772Y00002099716*
X00035791292Y00002099233*
X00035787888Y00002098497*
X00035784536Y00002097532*
X00035781259Y00002096338*
X00035778059Y00002094915*
X00035774985Y00002093290*
X00035772039Y00002091435*
X00035769194Y00002089378*
X00035766527Y00002087143*
X00035764012Y00002084730*
X00035761676Y00002082114*
X00035759542Y00002079371*
X00035757586Y00002076475*
X00035755834Y00002073452*
X00035754310Y00002070328*
X00035753014Y00002067077*
X00035751922Y00002063775*
X00035751084Y00002060371*
X00035750474Y00002056942*
X00035750119Y00002053463*
X00035749992Y00002049983*
X00035750119Y00002046503*
X00035750474Y00002043023*
X00035751084Y00002039594*
X00035751922Y00002036216*
X00035753014Y00002032889*
X00035754310Y00002029637*
X00035755834Y00002026513*
X00035757586Y00002023491*
X00035759542Y00002020595*
X00035761676Y00002017852*
X00035764012Y00002015261*
X00035766527Y00002012823*
X00035769194Y00002010587*
X00035772039Y00002008530*
X00035774985Y00002006676*
X00035778059Y00002005050*
X00035781259Y00002003628*
X00035784536Y00002002434*
X00035787888Y00002001469*
X00035791292Y00002000758*
X00035794772Y00002000250*
X00035798252Y00002000021*
X00035801731*
X00035805211Y00002000250*
X00035808666Y00002000758*
X00035812095Y00002001469*
X00035815447Y00002002434*
X00035818724Y00002003628*
X00035821899Y00002005050*
X00035824998Y00002006676*
X00035827944Y00002008530*
X00035830764Y00002010587*
X00035833456Y00002012823*
X00035835945Y00002015261*
X00035838282Y00002017852*
X00035840441Y00002020595*
X00035842397Y00002023491*
X00035844124Y00002026513*
X00035845673Y00002029637*
X00035846969Y00002032889*
X00035848061Y00002036216*
X00035848899Y00002039594*
X00035849509Y00002043023*
X00035849864Y00002046503*
X00035849991Y00002049983*
X00195909996Y00004649978D02*
D01*
X00195909869Y00004653483*
X00195909488Y00004656937*
X00195908904Y00004660392*
X00195908041Y00004663770*
X00195906974Y00004667097*
X00195905653Y00004670323*
X00195904129Y00004673473*
X00195902402Y00004676495*
X00195900446Y00004679365*
X00195898287Y00004682134*
X00195895950Y00004684725*
X00195893436Y00004687138*
X00195890769Y00004689398*
X00195887949Y00004691430*
X00195884977Y00004693285*
X00195881904Y00004694936*
X00195878729Y00004696358*
X00195875427Y00004697552*
X00195872074Y00004698492*
X00195868671Y00004699228*
X00195865216Y00004699711*
X00195861736Y00004699965*
X00195858231*
X00195854751Y00004699711*
X00195851297Y00004699228*
X00195847893Y00004698492*
X00195844541Y00004697552*
X00195841264Y00004696358*
X00195838064Y00004694936*
X00195834990Y00004693285*
X00195832018Y00004691430*
X00195829199Y00004689398*
X00195826532Y00004687138*
X00195824017Y00004684725*
X00195821681Y00004682134*
X00195819547Y00004679365*
X00195817591Y00004676495*
X00195815839Y00004673473*
X00195814315Y00004670323*
X00195812994Y00004667097*
X00195811927Y00004663770*
X00195811089Y00004660392*
X00195810479Y00004656937*
X00195810098Y00004653483*
X00195809997Y00004649978*
X00195810098Y00004646498*
X00195810479Y00004643018*
X00195811089Y00004639589*
X00195811927Y00004636211*
X00195812994Y00004632883*
X00195814315Y00004629658*
X00195815839Y00004626508*
X00195817591Y00004623485*
X00195819547Y00004620590*
X00195821681Y00004617847*
X00195824017Y00004615256*
X00195826532Y00004612817*
X00195829199Y00004610582*
X00195832018Y00004608525*
X00195834990Y00004606696*
X00195838064Y00004605045*
X00195841264Y00004603623*
X00195844541Y00004602429*
X00195847893Y00004601464*
X00195851297Y00004600752*
X00195854751Y00004600270*
X00195858231Y00004600016*
X00195861736*
X00195865216Y00004600270*
X00195868671Y00004600752*
X00195872074Y00004601464*
X00195875427Y00004602429*
X00195878729Y00004603623*
X00195881904Y00004605045*
X00195884977Y00004606696*
X00195887949Y00004608525*
X00195890769Y00004610582*
X00195893436Y00004612817*
X00195895950Y00004615256*
X00195898287Y00004617847*
X00195900446Y00004620590*
X00195902402Y00004623485*
X00195904129Y00004626508*
X00195905653Y00004629658*
X00195906974Y00004632883*
X00195908041Y00004636211*
X00195908904Y00004639589*
X00195909488Y00004643018*
X00195909869Y00004646498*
X00195909996Y00004649978*
X00186699982Y00002249982D02*
D01*
X00186699855Y00002253462*
X00186699499Y00002256942*
X00186698890Y00002260371*
X00186698051Y00002263775*
X00186696959Y00002267077*
X00186695664Y00002270328*
X00186694140Y00002273452*
X00186692387Y00002276475*
X00186690431Y00002279370*
X00186688298Y00002282139*
X00186685961Y00002284730*
X00186683446Y00002287143*
X00186680779Y00002289378*
X00186677935Y00002291435*
X00186674988Y00002293289*
X00186671915Y00002294915*
X00186668714Y00002296337*
X00186665438Y00002297531*
X00186662085Y00002298496*
X00186658681Y00002299233*
X00186655202Y00002299716*
X00186651722Y00002299944*
X00186648242*
X00186644762Y00002299716*
X00186641308Y00002299233*
X00186637879Y00002298496*
X00186634526Y00002297531*
X00186631249Y00002296337*
X00186628074Y00002294915*
X00186624976Y00002293289*
X00186622029Y00002291435*
X00186619210Y00002289378*
X00186616543Y00002287143*
X00186614028Y00002284730*
X00186611691Y00002282139*
X00186609532Y00002279370*
X00186607577Y00002276475*
X00186605849Y00002273452*
X00186604300Y00002270328*
X00186603005Y00002267077*
X00186601912Y00002263775*
X00186601074Y00002260371*
X00186600465Y00002256942*
X00186600109Y00002253462*
X00186599982Y00002249982*
X00186600109Y00002246503*
X00186600465Y00002243023*
X00186601074Y00002239594*
X00186601912Y00002236216*
X00186603005Y00002232888*
X00186604300Y00002229662*
X00186605849Y00002226513*
X00186607577Y00002223490*
X00186609532Y00002220595*
X00186611691Y00002217851*
X00186614028Y00002215261*
X00186616543Y00002212822*
X00186619210Y00002210587*
X00186622029Y00002208530*
X00186624976Y00002206675*
X00186628074Y00002205050*
X00186631249Y00002203627*
X00186634526Y00002202434*
X00186637879Y00002201468*
X00186641308Y00002200757*
X00186644762Y00002200249*
X00186648242Y00002200021*
X00186651722*
X00186655202Y00002200249*
X00186658681Y00002200757*
X00186662085Y00002201468*
X00186665438Y00002202434*
X00186668714Y00002203627*
X00186671915Y00002205050*
X00186674988Y00002206675*
X00186677935Y00002208530*
X00186680779Y00002210587*
X00186683446Y00002212822*
X00186685961Y00002215261*
X00186688298Y00002217851*
X00186690431Y00002220595*
X00186692387Y00002223490*
X00186694140Y00002226513*
X00186695664Y00002229662*
X00186696959Y00002232888*
X00186698051Y00002236216*
X00186698890Y00002239594*
X00186699499Y00002243023*
X00186699855Y00002246503*
X00186699982Y00002249982*
X00081549976Y00000299999D02*
X00083099986Y00001863699D01*
X00095049975Y00000299999D02*
X00095899986Y00001163675D01*
X00094299989Y00000299999D02*
X00095899986Y00001913686D01*
X00093549978Y00000299999D02*
X00095899986Y00002663698D01*
X00092791381Y00000305181D02*
X00093710683Y00001224381D01*
X00092041395Y00000305181D02*
X00092960698Y00001224381D01*
X00091291384Y00000305181D02*
X00092210686Y00001224381D01*
X00090541398Y00000305181D02*
X00091460675Y00001224381D01*
X00089791387Y00000305181D02*
X00090710689Y00001224381D01*
X00089041376Y00000305181D02*
X00089960678Y00001224381D01*
X00088291390Y00000305181D02*
X00089210692Y00001224381D01*
X00087541379Y00000305181D02*
X00088460681Y00001224381D01*
X00086791393Y00000305181D02*
X00087710695Y00001224381D01*
X00086041382Y00000305181D02*
X00086960684Y00001224381D01*
X00085291396Y00000305181D02*
X00086210698Y00001224381D01*
X00084541385Y00000305181D02*
X00085460687Y00001224381D01*
X00083791399Y00000305181D02*
X00084710676Y00001224381D01*
X00083041388Y00000305181D02*
X00083960690Y00001224381D01*
X00082291377Y00000305181D02*
X00083210679Y00001224381D01*
X00094249976Y00004763795D02*
X00095169278Y00005682996D01*
X00093549978Y00004813681D02*
X00094469280Y00005732983D01*
X00092799992Y00004813681D02*
X00093719294Y00005732983D01*
X00092049981Y00004813681D02*
X00092969283Y00005732983D01*
X00091299995Y00004813681D02*
X00092219297Y00005732983D01*
X00090549984Y00004813681D02*
X00091469286Y00005732983D01*
X00089799998Y00004813681D02*
X00090719198Y00005732983D01*
X00089049987Y00004813681D02*
X00089969187Y00005732983D01*
X00088299975Y00004813681D02*
X00089219176Y00005732983D01*
X00087549990Y00004813681D02*
X00088469190Y00005732983D01*
X00086799978Y00004813681D02*
X00087719179Y00005732983D01*
X00086049993Y00004813681D02*
X00086969193Y00005732983D01*
X00085299981Y00004813681D02*
X00086219182Y00005732983D01*
X00081349977Y00005163794D02*
X00081849976Y00005663793D01*
X00081349977Y00004613681D02*
X00082418097Y00005681878D01*
X00081299989Y00003813784D02*
X00083168083Y00005681878D01*
X00081349977Y00003113684D02*
X00083918094Y00005681878D01*
X00081299989Y00002313787D02*
X00083099986Y00004113682D01*
X00081299989Y00001563776D02*
X00083099986Y00003363696D01*
X00081349977Y00000863676D02*
X00083099986Y00002613685D01*
X00094149976Y00003913682D02*
X00095899986Y00005663692D01*
X00094149976Y00003163697D02*
X00095899986Y00004913680D01*
X00094149976Y00002413685D02*
X00095899986Y00004163694D01*
X00094149976Y00001663700D02*
X00095899986Y00003413683D01*
X00094499988Y00001263675D02*
X00095899986Y00002663698D01*
X00095250000Y00001263675D02*
X00095899986Y00001913686D01*
G54D13*
X00053999993Y00005749975D02*
X00061199979D01*
Y00000249986D02*
Y00005749975D01*
X00053999993Y00000249986D02*
X00061199979D01*
X00053999993D02*
Y00005749975D01*
X00161499981Y00001249984D02*
X00161999980D01*
X00161499981D02*
Y00001749983D01*
X00167899994Y00001249984D02*
X00168399993D01*
Y00001749983*
Y00004249978D02*
Y00004749977D01*
X00167899994D02*
X00168399993D01*
X00161499981D02*
X00161999980D01*
X00161499981Y00004249978D02*
Y00004749977D01*
X00039499997Y00004249978D02*
Y00004749977D01*
X00039999996*
X00045899984D02*
X00046399983D01*
Y00004249978D02*
Y00004749977D01*
Y00001249984D02*
Y00001749983D01*
X00045899984Y00001249984D02*
X00046399983D01*
X00038499999Y00001749983D02*
D01*
X00039499997Y00001249984D02*
Y00001749983D01*
Y00001249984D02*
X00039999996D01*
X00160499983Y00000249986D02*
X00161999980D01*
X00160499983D02*
Y00001749983D01*
X00167899994Y00000249986D02*
X00169399991D01*
Y00001749983*
Y00004249978D02*
Y00005749975D01*
X00167899994D02*
X00169399991D01*
X00160499983D02*
X00161999980D01*
X00160499983Y00004249978D02*
Y00005749975D01*
X00038499999Y00004249978D02*
Y00005749975D01*
X00039999996*
X00045899984D02*
X00047399981D01*
Y00004249978D02*
Y00005749975D01*
Y00000249986D02*
Y00001749983D01*
X00045899984Y00000249986D02*
X00047399981D01*
X00038499999D02*
Y00001749983D01*
Y00000249986D02*
X00039999996D01*
X00032299986Y00001649984D02*
Y00002449982D01*
X00035199980Y00001649984D02*
Y00002449982D01*
X00032299986Y00001649984D02*
X00035199980D01*
X00032299986Y00002449982D02*
X00035199980D01*
X00184249999Y00002649982D02*
X00185049998D01*
X00184249999Y00005549976D02*
X00185049998D01*
Y00002649982D02*
Y00005549976D01*
X00184249999Y00002649982D02*
Y00005549976D01*
X00170199989Y00001599996D02*
Y00002399995D01*
X00173099984Y00001599996D02*
Y00002399995D01*
X00170199989Y00001599996D02*
X00173099984D01*
X00170199989Y00002399995D02*
X00173099984D01*
X00084574989Y00002673680D02*
X00092624986D01*
Y00003353689*
X00084574989D02*
X00092624986D01*
X00084574989Y00002673680D02*
Y00003353689D01*
X00083449998Y00003413683D02*
Y00004233697D01*
Y00003413683D02*
X00083489977D01*
Y00002613685D02*
Y00003413683D01*
X00083449998Y00002613685D02*
X00083489977D01*
X00083449998Y00001793798D02*
Y00002613685D01*
X00093749977Y00003413683D02*
Y00004233697D01*
X00093709998Y00003413683D02*
X00093749977D01*
X00093709998Y00002613685D02*
Y00003413683D01*
Y00002613685D02*
X00093749977D01*
Y00001793798D02*
Y00002613685D01*
X00093349978Y00002413685D02*
Y00003613683D01*
X00083839989Y00002413685D02*
Y00003613683D01*
G54D14*
X00013467892Y00002999994D03*
X00015467888D03*
X00026867993D03*
X00024867997D03*
X00122088783D03*
X00124088779D03*
X00134854289D03*
X00132854293D03*
X00142868192D03*
X00144868188D03*
X00154468296D03*
X00152468275D03*
X00176734876D03*
X00178734897D03*
X00191534897D03*
X00189534876D03*
G54D15*
X00069399988Y00001974977D03*
Y00004052493D03*
X00063199975D03*
Y00001974977D03*
G54D16*
X00099874984Y00002999994D03*
X00106124984D03*
X00095874992D03*
X00081324983D03*
G54D17*
X00100979986Y00001953793D03*
X00105019983Y00004073779D03*
X00100979986D03*
X00105019983Y00001953793D03*
G54D18*
X00101469977Y00001463776D03*
X00104529991Y00004563694D03*
G54D19*
X00101469977Y00004563694D03*
X00104529991Y00001463776D03*
G54D20*
X00177333681Y00004204081D03*
X00190133681D03*
X00014066697D03*
X00025466776D03*
X00122687486D03*
X00133448780D03*
X00143466997D03*
X00153066978D03*
G54D21*
X00177334875Y00004199991D03*
X00025467995D03*
G54D22*
X00190134875Y00004199991D03*
X00122688781D03*
X00133449999D03*
G54D23*
X00014067891Y00004199991D03*
G54D24*
X00143468191Y00004199991D03*
X00153068299D03*
M02*