G04*
G04 #@! TF.GenerationSoftware,Altium Limited,Altium Designer,24.2.2 (26)*
G04*
G04 Layer_Color=65535*
%FSLAX44Y44*%
%MOMM*%
G71*
G04*
G04 #@! TF.SameCoordinates,6EDC250C-81D3-48BC-95F6-F0A130F5604E*
G04*
G04*
G04 #@! TF.FilePolarity,Positive*
G04*
G01*
G75*
%ADD10C,0.1000*%
%ADD11C,0.2500*%
%ADD12C,0.2000*%
%ADD13C,0.1530*%
%ADD14R,1.2000X0.2200*%
%ADD15R,0.2200X1.2000*%
%ADD16R,1.2000X0.2200*%
G36*
X105000Y366500D02*
X110000Y369000D01*
Y364000D01*
X105000Y366500D01*
D02*
G37*
G36*
X246300Y300200D02*
X251300Y297700D01*
Y302700D01*
X246300Y300200D01*
D02*
G37*
G36*
X279798Y423111D02*
X279867Y423106D01*
X279951Y423101D01*
X280043Y423088D01*
X280149Y423074D01*
X280270Y423055D01*
X280394Y423027D01*
X280524Y422995D01*
X280658Y422958D01*
X280792Y422907D01*
X280926Y422852D01*
X281065Y422787D01*
X281194Y422713D01*
X281319Y422625D01*
X281328Y422621D01*
X281347Y422602D01*
X281384Y422574D01*
X281425Y422533D01*
X281481Y422487D01*
X281541Y422422D01*
X281606Y422352D01*
X281680Y422269D01*
X281754Y422177D01*
X281832Y422075D01*
X281906Y421960D01*
X281980Y421839D01*
X282054Y421705D01*
X282119Y421562D01*
X282183Y421409D01*
X282234Y421248D01*
X281402Y421054D01*
X281398Y421063D01*
X281393Y421086D01*
X281379Y421118D01*
X281361Y421169D01*
X281338Y421225D01*
X281310Y421289D01*
X281273Y421363D01*
X281236Y421442D01*
X281194Y421525D01*
X281143Y421608D01*
X281092Y421691D01*
X281032Y421779D01*
X280968Y421858D01*
X280903Y421936D01*
X280829Y422006D01*
X280750Y422071D01*
X280746Y422075D01*
X280732Y422084D01*
X280709Y422098D01*
X280676Y422121D01*
X280635Y422145D01*
X280584Y422172D01*
X280524Y422200D01*
X280459Y422232D01*
X280385Y422260D01*
X280307Y422288D01*
X280219Y422315D01*
X280126Y422339D01*
X280025Y422362D01*
X279918Y422376D01*
X279807Y422385D01*
X279687Y422389D01*
X279618D01*
X279567Y422385D01*
X279502Y422380D01*
X279428Y422371D01*
X279345Y422362D01*
X279257Y422343D01*
X279160Y422325D01*
X279063Y422302D01*
X278961Y422274D01*
X278855Y422242D01*
X278753Y422200D01*
X278652Y422149D01*
X278550Y422098D01*
X278453Y422034D01*
X278448Y422029D01*
X278430Y422020D01*
X278407Y421996D01*
X278374Y421969D01*
X278333Y421932D01*
X278286Y421890D01*
X278236Y421839D01*
X278180Y421784D01*
X278125Y421719D01*
X278064Y421650D01*
X278009Y421571D01*
X277954Y421483D01*
X277898Y421396D01*
X277847Y421298D01*
X277801Y421197D01*
X277759Y421086D01*
Y421081D01*
X277750Y421058D01*
X277741Y421026D01*
X277727Y420984D01*
X277713Y420929D01*
X277695Y420864D01*
X277681Y420790D01*
X277662Y420707D01*
X277644Y420619D01*
X277625Y420522D01*
X277607Y420420D01*
X277593Y420314D01*
X277570Y420092D01*
X277565Y419976D01*
X277561Y419856D01*
Y419847D01*
Y419819D01*
Y419778D01*
X277565Y419717D01*
X277570Y419648D01*
X277575Y419565D01*
X277579Y419473D01*
X277588Y419375D01*
X277602Y419264D01*
X277616Y419149D01*
X277662Y418913D01*
X277686Y418788D01*
X277718Y418668D01*
X277755Y418548D01*
X277796Y418432D01*
X277801Y418428D01*
X277806Y418405D01*
X277819Y418377D01*
X277843Y418335D01*
X277866Y418284D01*
X277898Y418224D01*
X277935Y418160D01*
X277977Y418090D01*
X278028Y418021D01*
X278083Y417947D01*
X278143Y417868D01*
X278208Y417794D01*
X278282Y417720D01*
X278360Y417651D01*
X278444Y417586D01*
X278536Y417526D01*
X278541Y417522D01*
X278559Y417512D01*
X278587Y417499D01*
X278624Y417480D01*
X278670Y417457D01*
X278726Y417429D01*
X278790Y417406D01*
X278860Y417378D01*
X278938Y417346D01*
X279021Y417323D01*
X279114Y417295D01*
X279206Y417272D01*
X279308Y417253D01*
X279410Y417240D01*
X279516Y417230D01*
X279622Y417226D01*
X279655D01*
X279692Y417230D01*
X279743D01*
X279803Y417240D01*
X279872Y417249D01*
X279955Y417258D01*
X280039Y417277D01*
X280131Y417300D01*
X280228Y417327D01*
X280330Y417360D01*
X280431Y417397D01*
X280533Y417443D01*
X280635Y417499D01*
X280732Y417563D01*
X280829Y417633D01*
X280834Y417637D01*
X280852Y417651D01*
X280875Y417674D01*
X280908Y417711D01*
X280949Y417753D01*
X280995Y417804D01*
X281046Y417868D01*
X281097Y417938D01*
X281153Y418021D01*
X281208Y418109D01*
X281268Y418210D01*
X281319Y418321D01*
X281374Y418437D01*
X281421Y418566D01*
X281462Y418700D01*
X281499Y418848D01*
X282345Y418636D01*
Y418631D01*
X282341Y418622D01*
X282336Y418608D01*
X282331Y418590D01*
X282327Y418566D01*
X282318Y418534D01*
X282294Y418465D01*
X282262Y418377D01*
X282225Y418280D01*
X282179Y418169D01*
X282123Y418049D01*
X282063Y417919D01*
X281994Y417790D01*
X281915Y417660D01*
X281828Y417526D01*
X281730Y417397D01*
X281624Y417272D01*
X281509Y417156D01*
X281384Y417046D01*
X281374Y417041D01*
X281351Y417022D01*
X281314Y416995D01*
X281259Y416962D01*
X281194Y416921D01*
X281111Y416875D01*
X281019Y416824D01*
X280912Y416773D01*
X280797Y416722D01*
X280667Y416671D01*
X280529Y416625D01*
X280381Y416583D01*
X280219Y416551D01*
X280052Y416523D01*
X279877Y416505D01*
X279692Y416500D01*
X279622D01*
X279590Y416505D01*
X279521D01*
X279433Y416514D01*
X279331Y416523D01*
X279216Y416537D01*
X279095Y416551D01*
X278961Y416574D01*
X278827Y416602D01*
X278684Y416639D01*
X278545Y416676D01*
X278407Y416726D01*
X278268Y416782D01*
X278134Y416847D01*
X278009Y416921D01*
X278000Y416925D01*
X277981Y416939D01*
X277949Y416967D01*
X277903Y416999D01*
X277847Y417041D01*
X277787Y417096D01*
X277718Y417156D01*
X277644Y417230D01*
X277565Y417314D01*
X277487Y417402D01*
X277404Y417503D01*
X277320Y417609D01*
X277242Y417730D01*
X277163Y417854D01*
X277089Y417993D01*
X277024Y418136D01*
Y418141D01*
X277020Y418146D01*
X277010Y418173D01*
X276992Y418215D01*
X276974Y418275D01*
X276946Y418349D01*
X276918Y418437D01*
X276886Y418539D01*
X276858Y418650D01*
X276826Y418774D01*
X276793Y418909D01*
X276765Y419047D01*
X276738Y419200D01*
X276719Y419352D01*
X276701Y419514D01*
X276692Y419680D01*
X276687Y419852D01*
Y419856D01*
Y419865D01*
Y419879D01*
Y419898D01*
Y419921D01*
X276692Y419949D01*
Y420018D01*
X276701Y420106D01*
X276705Y420207D01*
X276719Y420323D01*
X276733Y420448D01*
X276756Y420577D01*
X276779Y420716D01*
X276812Y420864D01*
X276849Y421012D01*
X276890Y421160D01*
X276941Y421308D01*
X277001Y421451D01*
X277066Y421594D01*
X277071Y421604D01*
X277085Y421627D01*
X277108Y421664D01*
X277135Y421719D01*
X277177Y421779D01*
X277223Y421849D01*
X277283Y421932D01*
X277348Y422015D01*
X277417Y422103D01*
X277501Y422200D01*
X277588Y422292D01*
X277686Y422385D01*
X277792Y422477D01*
X277903Y422565D01*
X278023Y422648D01*
X278152Y422727D01*
X278162Y422732D01*
X278185Y422745D01*
X278222Y422764D01*
X278277Y422787D01*
X278342Y422819D01*
X278421Y422852D01*
X278513Y422884D01*
X278610Y422921D01*
X278721Y422958D01*
X278841Y422990D01*
X278971Y423027D01*
X279105Y423055D01*
X279248Y423078D01*
X279396Y423097D01*
X279548Y423111D01*
X279706Y423115D01*
X279770D01*
X279798Y423111D01*
D02*
G37*
G36*
X198876Y423111D02*
X198945Y423106D01*
X199028Y423101D01*
X199121Y423088D01*
X199227Y423074D01*
X199347Y423055D01*
X199472Y423027D01*
X199602Y422995D01*
X199736Y422958D01*
X199870Y422907D01*
X200004Y422852D01*
X200143Y422787D01*
X200272Y422713D01*
X200397Y422625D01*
X200406Y422621D01*
X200425Y422602D01*
X200462Y422574D01*
X200503Y422533D01*
X200559Y422486D01*
X200619Y422422D01*
X200683Y422352D01*
X200758Y422269D01*
X200831Y422177D01*
X200910Y422075D01*
X200984Y421959D01*
X201058Y421839D01*
X201132Y421705D01*
X201197Y421562D01*
X201261Y421409D01*
X201312Y421248D01*
X200480Y421054D01*
X200476Y421063D01*
X200471Y421086D01*
X200457Y421118D01*
X200438Y421169D01*
X200415Y421225D01*
X200388Y421289D01*
X200351Y421363D01*
X200314Y421442D01*
X200272Y421525D01*
X200221Y421608D01*
X200170Y421691D01*
X200110Y421779D01*
X200046Y421858D01*
X199981Y421936D01*
X199907Y422006D01*
X199828Y422071D01*
X199824Y422075D01*
X199810Y422084D01*
X199787Y422098D01*
X199754Y422121D01*
X199713Y422144D01*
X199662Y422172D01*
X199602Y422200D01*
X199537Y422232D01*
X199463Y422260D01*
X199384Y422288D01*
X199297Y422315D01*
X199204Y422339D01*
X199102Y422362D01*
X198996Y422376D01*
X198885Y422385D01*
X198765Y422389D01*
X198696D01*
X198645Y422385D01*
X198580Y422380D01*
X198506Y422371D01*
X198423Y422362D01*
X198335Y422343D01*
X198238Y422325D01*
X198141Y422302D01*
X198039Y422274D01*
X197933Y422242D01*
X197831Y422200D01*
X197729Y422149D01*
X197628Y422098D01*
X197531Y422034D01*
X197526Y422029D01*
X197508Y422020D01*
X197484Y421996D01*
X197452Y421969D01*
X197411Y421932D01*
X197364Y421890D01*
X197313Y421839D01*
X197258Y421784D01*
X197202Y421719D01*
X197142Y421650D01*
X197087Y421571D01*
X197031Y421483D01*
X196976Y421396D01*
X196925Y421298D01*
X196879Y421197D01*
X196837Y421086D01*
Y421081D01*
X196828Y421058D01*
X196819Y421026D01*
X196805Y420984D01*
X196791Y420929D01*
X196773Y420864D01*
X196759Y420790D01*
X196740Y420707D01*
X196722Y420619D01*
X196703Y420522D01*
X196685Y420420D01*
X196671Y420314D01*
X196648Y420092D01*
X196643Y419976D01*
X196639Y419856D01*
Y419847D01*
Y419819D01*
Y419778D01*
X196643Y419717D01*
X196648Y419648D01*
X196652Y419565D01*
X196657Y419473D01*
X196666Y419375D01*
X196680Y419264D01*
X196694Y419149D01*
X196740Y418913D01*
X196763Y418788D01*
X196796Y418668D01*
X196833Y418548D01*
X196874Y418432D01*
X196879Y418428D01*
X196884Y418405D01*
X196897Y418377D01*
X196921Y418335D01*
X196944Y418284D01*
X196976Y418224D01*
X197013Y418160D01*
X197055Y418090D01*
X197105Y418021D01*
X197161Y417947D01*
X197221Y417868D01*
X197286Y417794D01*
X197360Y417720D01*
X197438Y417651D01*
X197521Y417586D01*
X197614Y417526D01*
X197619Y417522D01*
X197637Y417512D01*
X197665Y417499D01*
X197702Y417480D01*
X197748Y417457D01*
X197803Y417429D01*
X197868Y417406D01*
X197938Y417378D01*
X198016Y417346D01*
X198099Y417323D01*
X198192Y417295D01*
X198284Y417272D01*
X198386Y417253D01*
X198488Y417240D01*
X198594Y417230D01*
X198700Y417226D01*
X198733D01*
X198770Y417230D01*
X198820D01*
X198881Y417240D01*
X198950Y417249D01*
X199033Y417258D01*
X199116Y417277D01*
X199209Y417300D01*
X199306Y417327D01*
X199408Y417360D01*
X199509Y417397D01*
X199611Y417443D01*
X199713Y417499D01*
X199810Y417563D01*
X199907Y417633D01*
X199911Y417637D01*
X199930Y417651D01*
X199953Y417674D01*
X199986Y417711D01*
X200027Y417753D01*
X200073Y417804D01*
X200124Y417868D01*
X200175Y417938D01*
X200231Y418021D01*
X200286Y418109D01*
X200346Y418210D01*
X200397Y418321D01*
X200452Y418437D01*
X200499Y418566D01*
X200540Y418700D01*
X200577Y418848D01*
X201423Y418636D01*
Y418631D01*
X201418Y418622D01*
X201414Y418608D01*
X201409Y418590D01*
X201405Y418566D01*
X201395Y418534D01*
X201372Y418465D01*
X201340Y418377D01*
X201303Y418280D01*
X201257Y418169D01*
X201201Y418049D01*
X201141Y417919D01*
X201072Y417790D01*
X200993Y417660D01*
X200905Y417526D01*
X200808Y417397D01*
X200702Y417272D01*
X200586Y417156D01*
X200462Y417046D01*
X200452Y417041D01*
X200429Y417022D01*
X200392Y416995D01*
X200337Y416962D01*
X200272Y416921D01*
X200189Y416875D01*
X200096Y416824D01*
X199990Y416773D01*
X199874Y416722D01*
X199745Y416671D01*
X199606Y416625D01*
X199459Y416583D01*
X199297Y416551D01*
X199130Y416523D01*
X198955Y416505D01*
X198770Y416500D01*
X198700D01*
X198668Y416505D01*
X198599D01*
X198511Y416514D01*
X198409Y416523D01*
X198293Y416537D01*
X198173Y416551D01*
X198039Y416574D01*
X197905Y416602D01*
X197762Y416639D01*
X197623Y416676D01*
X197484Y416726D01*
X197346Y416782D01*
X197212Y416847D01*
X197087Y416921D01*
X197078Y416925D01*
X197059Y416939D01*
X197027Y416967D01*
X196981Y416999D01*
X196925Y417041D01*
X196865Y417096D01*
X196796Y417156D01*
X196722Y417230D01*
X196643Y417314D01*
X196565Y417402D01*
X196481Y417503D01*
X196398Y417609D01*
X196320Y417730D01*
X196241Y417854D01*
X196167Y417993D01*
X196102Y418136D01*
Y418141D01*
X196098Y418146D01*
X196088Y418173D01*
X196070Y418215D01*
X196051Y418275D01*
X196024Y418349D01*
X195996Y418437D01*
X195964Y418539D01*
X195936Y418650D01*
X195903Y418774D01*
X195871Y418909D01*
X195843Y419047D01*
X195816Y419200D01*
X195797Y419352D01*
X195779Y419514D01*
X195770Y419680D01*
X195765Y419851D01*
Y419856D01*
Y419865D01*
Y419879D01*
Y419898D01*
Y419921D01*
X195770Y419949D01*
Y420018D01*
X195779Y420106D01*
X195783Y420207D01*
X195797Y420323D01*
X195811Y420448D01*
X195834Y420577D01*
X195857Y420716D01*
X195890Y420864D01*
X195927Y421012D01*
X195968Y421160D01*
X196019Y421308D01*
X196079Y421451D01*
X196144Y421594D01*
X196148Y421604D01*
X196162Y421627D01*
X196185Y421664D01*
X196213Y421719D01*
X196255Y421779D01*
X196301Y421849D01*
X196361Y421932D01*
X196426Y422015D01*
X196495Y422103D01*
X196578Y422200D01*
X196666Y422292D01*
X196763Y422385D01*
X196870Y422477D01*
X196981Y422565D01*
X197101Y422648D01*
X197230Y422727D01*
X197239Y422732D01*
X197263Y422745D01*
X197300Y422764D01*
X197355Y422787D01*
X197420Y422819D01*
X197498Y422852D01*
X197591Y422884D01*
X197688Y422921D01*
X197799Y422958D01*
X197919Y422990D01*
X198048Y423027D01*
X198183Y423055D01*
X198326Y423078D01*
X198474Y423097D01*
X198626Y423111D01*
X198783Y423115D01*
X198848D01*
X198876Y423111D01*
D02*
G37*
G36*
X245622Y420406D02*
X248428Y416606D01*
X247309D01*
X245030Y419833D01*
X243985Y418825D01*
Y416606D01*
X243139D01*
Y423004D01*
X243985D01*
Y419828D01*
X247161Y423004D01*
X248312D01*
X245622Y420406D01*
D02*
G37*
G36*
X291355Y418525D02*
X288933D01*
Y419315D01*
X291355D01*
Y418525D01*
D02*
G37*
G36*
X270007D02*
X267585D01*
Y419315D01*
X270007D01*
Y418525D01*
D02*
G37*
G36*
X217876Y418525D02*
X215453D01*
Y419315D01*
X217876D01*
Y418525D01*
D02*
G37*
G36*
X214506Y416606D02*
X213687D01*
Y421959D01*
X211824Y416606D01*
X211057D01*
X209213Y422052D01*
Y416606D01*
X208394D01*
Y423004D01*
X209666D01*
X211182Y418474D01*
X211187Y418465D01*
X211191Y418446D01*
X211200Y418414D01*
X211214Y418372D01*
X211233Y418317D01*
X211251Y418257D01*
X211274Y418192D01*
X211297Y418118D01*
X211348Y417965D01*
X211399Y417808D01*
X211422Y417730D01*
X211445Y417656D01*
X211469Y417591D01*
X211487Y417526D01*
Y417531D01*
X211492Y417545D01*
X211501Y417563D01*
X211510Y417591D01*
X211519Y417628D01*
X211533Y417674D01*
X211552Y417725D01*
X211570Y417785D01*
X211593Y417854D01*
X211621Y417929D01*
X211649Y418012D01*
X211677Y418104D01*
X211714Y418206D01*
X211746Y418312D01*
X211787Y418428D01*
X211829Y418553D01*
X213364Y423004D01*
X214506D01*
Y416606D01*
D02*
G37*
G36*
X193467D02*
X192644D01*
X191308Y421479D01*
Y421488D01*
X191299Y421507D01*
X191290Y421534D01*
X191281Y421576D01*
X191267Y421627D01*
X191253Y421678D01*
X191234Y421738D01*
X191216Y421802D01*
X191179Y421932D01*
X191165Y421992D01*
X191147Y422052D01*
X191133Y422108D01*
X191119Y422154D01*
X191110Y422195D01*
X191100Y422228D01*
Y422223D01*
X191096Y422209D01*
X191091Y422186D01*
X191082Y422154D01*
X191073Y422117D01*
X191063Y422071D01*
X191050Y422024D01*
X191036Y421969D01*
X191008Y421853D01*
X190976Y421728D01*
X190943Y421599D01*
X190911Y421479D01*
X189566Y416606D01*
X188687D01*
X187000Y423004D01*
X187864D01*
X188835Y418807D01*
Y418797D01*
X188845Y418779D01*
X188849Y418742D01*
X188863Y418696D01*
X188877Y418636D01*
X188891Y418566D01*
X188909Y418483D01*
X188928Y418395D01*
X188951Y418303D01*
X188969Y418201D01*
X188992Y418090D01*
X189016Y417979D01*
X189062Y417743D01*
X189108Y417499D01*
Y417503D01*
X189113Y417512D01*
Y417526D01*
X189117Y417545D01*
X189126Y417568D01*
X189131Y417596D01*
X189145Y417660D01*
X189168Y417743D01*
X189187Y417831D01*
X189210Y417929D01*
X189237Y418030D01*
X189288Y418238D01*
X189311Y418340D01*
X189335Y418432D01*
X189358Y418516D01*
X189371Y418585D01*
X189390Y418645D01*
X189395Y418663D01*
X189399Y418682D01*
X190610Y423004D01*
X191632D01*
X192547Y419764D01*
Y419759D01*
X192552Y419750D01*
X192557Y419731D01*
X192561Y419708D01*
X192570Y419680D01*
X192580Y419644D01*
X192589Y419607D01*
X192603Y419560D01*
X192617Y419509D01*
X192631Y419454D01*
X192663Y419324D01*
X192700Y419186D01*
X192737Y419029D01*
X192778Y418858D01*
X192820Y418682D01*
X192862Y418492D01*
X192903Y418298D01*
X192982Y417901D01*
X193047Y417499D01*
Y417508D01*
X193051Y417526D01*
X193060Y417559D01*
X193070Y417605D01*
X193084Y417665D01*
X193097Y417730D01*
X193116Y417813D01*
X193134Y417901D01*
X193158Y417998D01*
X193181Y418104D01*
X193204Y418220D01*
X193236Y418340D01*
X193264Y418469D01*
X193296Y418603D01*
X193329Y418747D01*
X193366Y418890D01*
X194369Y423004D01*
X195224D01*
X193467Y416606D01*
D02*
G37*
G36*
X261127Y419306D02*
Y419301D01*
Y419297D01*
Y419283D01*
Y419264D01*
Y419241D01*
Y419214D01*
X261122Y419149D01*
Y419066D01*
X261117Y418973D01*
X261108Y418867D01*
X261099Y418756D01*
X261085Y418636D01*
X261071Y418511D01*
X261034Y418257D01*
X261006Y418127D01*
X260979Y418007D01*
X260942Y417887D01*
X260905Y417776D01*
X260900Y417771D01*
X260896Y417753D01*
X260882Y417720D01*
X260863Y417683D01*
X260835Y417633D01*
X260808Y417577D01*
X260771Y417517D01*
X260724Y417448D01*
X260674Y417374D01*
X260618Y417300D01*
X260553Y417226D01*
X260479Y417147D01*
X260401Y417069D01*
X260318Y416995D01*
X260221Y416921D01*
X260119Y416851D01*
X260114Y416847D01*
X260091Y416838D01*
X260059Y416819D01*
X260017Y416796D01*
X259957Y416768D01*
X259892Y416740D01*
X259809Y416708D01*
X259721Y416676D01*
X259615Y416643D01*
X259504Y416611D01*
X259384Y416583D01*
X259250Y416555D01*
X259106Y416532D01*
X258954Y416514D01*
X258797Y416505D01*
X258626Y416500D01*
X258538D01*
X258478Y416505D01*
X258399Y416509D01*
X258311Y416519D01*
X258210Y416528D01*
X258103Y416537D01*
X257988Y416555D01*
X257868Y416574D01*
X257747Y416602D01*
X257623Y416629D01*
X257502Y416666D01*
X257377Y416708D01*
X257262Y416754D01*
X257151Y416810D01*
X257146Y416814D01*
X257128Y416824D01*
X257096Y416842D01*
X257059Y416865D01*
X257012Y416898D01*
X256957Y416939D01*
X256901Y416985D01*
X256837Y417036D01*
X256772Y417096D01*
X256703Y417166D01*
X256633Y417235D01*
X256569Y417318D01*
X256504Y417402D01*
X256444Y417499D01*
X256388Y417596D01*
X256337Y417702D01*
X256333Y417711D01*
X256328Y417730D01*
X256314Y417762D01*
X256300Y417808D01*
X256282Y417868D01*
X256263Y417942D01*
X256240Y418026D01*
X256217Y418123D01*
X256194Y418234D01*
X256171Y418354D01*
X256152Y418483D01*
X256134Y418627D01*
X256120Y418779D01*
X256106Y418946D01*
X256102Y419121D01*
X256097Y419306D01*
Y423004D01*
X256943D01*
Y419311D01*
Y419301D01*
Y419274D01*
Y419232D01*
X256948Y419177D01*
Y419107D01*
X256952Y419029D01*
X256957Y418941D01*
X256961Y418844D01*
X256971Y418747D01*
X256980Y418645D01*
X257008Y418442D01*
X257026Y418344D01*
X257045Y418247D01*
X257068Y418160D01*
X257096Y418081D01*
Y418076D01*
X257105Y418063D01*
X257114Y418044D01*
X257128Y418016D01*
X257142Y417984D01*
X257165Y417947D01*
X257220Y417859D01*
X257294Y417762D01*
X257336Y417711D01*
X257387Y417660D01*
X257438Y417609D01*
X257498Y417563D01*
X257558Y417517D01*
X257627Y417475D01*
X257632D01*
X257646Y417466D01*
X257664Y417457D01*
X257696Y417443D01*
X257733Y417425D01*
X257775Y417406D01*
X257826Y417388D01*
X257886Y417369D01*
X257951Y417351D01*
X258020Y417332D01*
X258094Y417314D01*
X258177Y417295D01*
X258265Y417281D01*
X258358Y417272D01*
X258450Y417267D01*
X258552Y417263D01*
X258593D01*
X258640Y417267D01*
X258704D01*
X258783Y417277D01*
X258866Y417286D01*
X258963Y417300D01*
X259069Y417314D01*
X259176Y417337D01*
X259287Y417365D01*
X259398Y417402D01*
X259509Y417438D01*
X259615Y417489D01*
X259712Y417545D01*
X259804Y417609D01*
X259883Y417683D01*
X259888Y417688D01*
X259902Y417702D01*
X259920Y417730D01*
X259943Y417767D01*
X259975Y417817D01*
X260008Y417882D01*
X260045Y417956D01*
X260082Y418049D01*
X260119Y418150D01*
X260156Y418266D01*
X260188Y418400D01*
X260221Y418548D01*
X260244Y418714D01*
X260262Y418895D01*
X260276Y419093D01*
X260281Y419311D01*
Y423004D01*
X261127D01*
Y419306D01*
D02*
G37*
G36*
X306384Y416606D02*
X305598D01*
Y421608D01*
X305593Y421604D01*
X305584Y421594D01*
X305570Y421581D01*
X305547Y421562D01*
X305519Y421539D01*
X305482Y421507D01*
X305441Y421474D01*
X305399Y421437D01*
X305344Y421400D01*
X305288Y421354D01*
X305228Y421312D01*
X305163Y421261D01*
X305089Y421215D01*
X305016Y421164D01*
X304849Y421063D01*
X304844Y421058D01*
X304831Y421049D01*
X304803Y421035D01*
X304771Y421021D01*
X304734Y420998D01*
X304687Y420970D01*
X304632Y420942D01*
X304576Y420910D01*
X304447Y420845D01*
X304308Y420781D01*
X304165Y420716D01*
X304026Y420661D01*
Y421419D01*
X304035Y421423D01*
X304054Y421433D01*
X304091Y421451D01*
X304137Y421474D01*
X304193Y421502D01*
X304262Y421539D01*
X304336Y421581D01*
X304415Y421627D01*
X304502Y421682D01*
X304595Y421738D01*
X304789Y421867D01*
X304988Y422010D01*
X305177Y422168D01*
X305182Y422172D01*
X305200Y422186D01*
X305224Y422209D01*
X305256Y422242D01*
X305298Y422283D01*
X305344Y422329D01*
X305394Y422385D01*
X305450Y422440D01*
X305506Y422505D01*
X305566Y422574D01*
X305681Y422718D01*
X305788Y422870D01*
X305834Y422949D01*
X305875Y423027D01*
X306384D01*
Y416606D01*
D02*
G37*
G36*
X295308Y423000D02*
X295382D01*
X295465Y422995D01*
X295553Y422990D01*
X295654Y422981D01*
X295756Y422972D01*
X295862Y422963D01*
X296080Y422930D01*
X296181Y422912D01*
X296283Y422889D01*
X296380Y422861D01*
X296468Y422829D01*
X296472D01*
X296486Y422819D01*
X296509Y422810D01*
X296542Y422796D01*
X296579Y422778D01*
X296621Y422750D01*
X296671Y422722D01*
X296722Y422690D01*
X296778Y422648D01*
X296838Y422607D01*
X296898Y422556D01*
X296958Y422500D01*
X297013Y422436D01*
X297073Y422371D01*
X297129Y422297D01*
X297180Y422218D01*
X297184Y422214D01*
X297194Y422200D01*
X297203Y422177D01*
X297221Y422145D01*
X297240Y422103D01*
X297263Y422052D01*
X297291Y421996D01*
X297314Y421936D01*
X297337Y421867D01*
X297365Y421793D01*
X297388Y421715D01*
X297406Y421631D01*
X297425Y421544D01*
X297439Y421451D01*
X297443Y421354D01*
X297448Y421257D01*
Y421248D01*
Y421229D01*
X297443Y421192D01*
Y421141D01*
X297434Y421086D01*
X297425Y421017D01*
X297411Y420942D01*
X297393Y420859D01*
X297369Y420771D01*
X297342Y420679D01*
X297305Y420582D01*
X297263Y420485D01*
X297212Y420388D01*
X297152Y420295D01*
X297083Y420198D01*
X297004Y420110D01*
X296999Y420106D01*
X296986Y420092D01*
X296958Y420069D01*
X296921Y420037D01*
X296875Y420000D01*
X296815Y419958D01*
X296750Y419912D01*
X296671Y419861D01*
X296579Y419810D01*
X296482Y419759D01*
X296366Y419713D01*
X296246Y419662D01*
X296112Y419620D01*
X295969Y419579D01*
X295812Y419547D01*
X295645Y419519D01*
X295650D01*
X295659Y419510D01*
X295677Y419505D01*
X295700Y419491D01*
X295728Y419477D01*
X295761Y419459D01*
X295835Y419417D01*
X295918Y419371D01*
X296001Y419315D01*
X296080Y419260D01*
X296154Y419200D01*
X296158Y419195D01*
X296172Y419186D01*
X296190Y419163D01*
X296218Y419140D01*
X296251Y419103D01*
X296288Y419066D01*
X296334Y419020D01*
X296380Y418964D01*
X296431Y418904D01*
X296486Y418839D01*
X296546Y418770D01*
X296607Y418696D01*
X296667Y418613D01*
X296731Y418529D01*
X296856Y418344D01*
X297961Y416606D01*
X296903D01*
X296056Y417938D01*
X296052Y417942D01*
X296038Y417961D01*
X296019Y417993D01*
X295996Y418030D01*
X295964Y418081D01*
X295927Y418136D01*
X295885Y418197D01*
X295844Y418261D01*
X295747Y418405D01*
X295645Y418553D01*
X295543Y418691D01*
X295492Y418756D01*
X295446Y418816D01*
X295442Y418821D01*
X295437Y418830D01*
X295423Y418844D01*
X295405Y418867D01*
X295358Y418922D01*
X295303Y418987D01*
X295234Y419056D01*
X295164Y419130D01*
X295090Y419195D01*
X295016Y419246D01*
X295007Y419251D01*
X294984Y419264D01*
X294947Y419288D01*
X294896Y419311D01*
X294841Y419338D01*
X294776Y419371D01*
X294707Y419394D01*
X294633Y419417D01*
X294628D01*
X294605Y419422D01*
X294568Y419426D01*
X294522Y419436D01*
X294457Y419440D01*
X294374Y419445D01*
X294277Y419449D01*
X293181D01*
Y416606D01*
X292335D01*
Y423004D01*
X295252D01*
X295308Y423000D01*
D02*
G37*
G36*
X285868D02*
X285933D01*
X286002Y422995D01*
X286085Y422986D01*
X286168Y422981D01*
X286261Y422967D01*
X286358Y422958D01*
X286552Y422921D01*
X286746Y422870D01*
X286839Y422842D01*
X286922Y422805D01*
X286926D01*
X286940Y422796D01*
X286963Y422787D01*
X286996Y422769D01*
X287033Y422750D01*
X287074Y422722D01*
X287125Y422695D01*
X287176Y422658D01*
X287232Y422621D01*
X287287Y422574D01*
X287342Y422528D01*
X287403Y422473D01*
X287458Y422413D01*
X287514Y422352D01*
X287564Y422283D01*
X287615Y422209D01*
X287620Y422205D01*
X287624Y422191D01*
X287638Y422168D01*
X287657Y422140D01*
X287675Y422103D01*
X287694Y422057D01*
X287717Y422010D01*
X287745Y421955D01*
X287768Y421890D01*
X287791Y421825D01*
X287828Y421682D01*
X287860Y421525D01*
X287865Y421446D01*
X287869Y421363D01*
Y421359D01*
Y421345D01*
Y421322D01*
X287865Y421294D01*
Y421257D01*
X287856Y421215D01*
X287851Y421164D01*
X287842Y421114D01*
X287814Y420993D01*
X287772Y420864D01*
X287749Y420795D01*
X287717Y420730D01*
X287685Y420661D01*
X287643Y420591D01*
X287638Y420587D01*
X287634Y420577D01*
X287620Y420559D01*
X287601Y420531D01*
X287578Y420499D01*
X287551Y420466D01*
X287514Y420425D01*
X287477Y420383D01*
X287430Y420337D01*
X287384Y420291D01*
X287329Y420244D01*
X287269Y420194D01*
X287199Y420143D01*
X287130Y420097D01*
X287056Y420050D01*
X286973Y420009D01*
X286977D01*
X287000Y420000D01*
X287028Y419990D01*
X287070Y419976D01*
X287116Y419958D01*
X287171Y419935D01*
X287236Y419907D01*
X287301Y419870D01*
X287375Y419833D01*
X287449Y419791D01*
X287523Y419745D01*
X287597Y419690D01*
X287666Y419634D01*
X287740Y419570D01*
X287805Y419500D01*
X287865Y419426D01*
X287869Y419422D01*
X287879Y419408D01*
X287893Y419385D01*
X287916Y419352D01*
X287939Y419315D01*
X287967Y419269D01*
X287994Y419214D01*
X288022Y419154D01*
X288050Y419084D01*
X288082Y419010D01*
X288105Y418932D01*
X288128Y418844D01*
X288151Y418756D01*
X288165Y418659D01*
X288175Y418562D01*
X288179Y418460D01*
Y418456D01*
Y418442D01*
Y418414D01*
X288175Y418382D01*
Y418344D01*
X288170Y418298D01*
X288165Y418243D01*
X288156Y418187D01*
X288133Y418058D01*
X288096Y417915D01*
X288050Y417767D01*
X287985Y417619D01*
Y417614D01*
X287976Y417600D01*
X287967Y417582D01*
X287953Y417554D01*
X287934Y417522D01*
X287911Y417485D01*
X287856Y417402D01*
X287786Y417304D01*
X287708Y417207D01*
X287620Y417110D01*
X287518Y417027D01*
X287514D01*
X287504Y417018D01*
X287490Y417009D01*
X287467Y416995D01*
X287440Y416976D01*
X287407Y416958D01*
X287370Y416935D01*
X287329Y416912D01*
X287278Y416884D01*
X287227Y416861D01*
X287107Y416805D01*
X286973Y416759D01*
X286820Y416713D01*
X286815D01*
X286802Y416708D01*
X286779Y416703D01*
X286746Y416694D01*
X286705Y416690D01*
X286654Y416680D01*
X286598Y416671D01*
X286534Y416662D01*
X286464Y416648D01*
X286386Y416639D01*
X286298Y416629D01*
X286210Y416625D01*
X286113Y416616D01*
X286011Y416611D01*
X285900Y416606D01*
X283353D01*
Y423004D01*
X285817D01*
X285868Y423000D01*
D02*
G37*
G36*
X273603D02*
X273668D01*
X273742Y422995D01*
X273899Y422990D01*
X274061Y422977D01*
X274218Y422963D01*
X274292Y422949D01*
X274357Y422940D01*
X274362D01*
X274380Y422935D01*
X274403Y422930D01*
X274436Y422926D01*
X274477Y422916D01*
X274524Y422903D01*
X274574Y422889D01*
X274634Y422875D01*
X274759Y422833D01*
X274889Y422778D01*
X275023Y422718D01*
X275148Y422639D01*
X275152Y422635D01*
X275161Y422630D01*
X275180Y422616D01*
X275198Y422598D01*
X275226Y422579D01*
X275259Y422551D01*
X275296Y422519D01*
X275333Y422482D01*
X275369Y422440D01*
X275411Y422394D01*
X275499Y422288D01*
X275582Y422163D01*
X275661Y422024D01*
X275665Y422020D01*
X275670Y422006D01*
X275679Y421983D01*
X275693Y421955D01*
X275707Y421918D01*
X275721Y421872D01*
X275739Y421821D01*
X275758Y421765D01*
X275776Y421705D01*
X275795Y421636D01*
X275809Y421567D01*
X275823Y421488D01*
X275846Y421326D01*
X275855Y421151D01*
Y421141D01*
Y421114D01*
X275850Y421072D01*
X275846Y421017D01*
X275841Y420942D01*
X275827Y420864D01*
X275813Y420771D01*
X275790Y420674D01*
X275762Y420568D01*
X275725Y420457D01*
X275684Y420342D01*
X275633Y420226D01*
X275573Y420110D01*
X275504Y419995D01*
X275425Y419879D01*
X275333Y419773D01*
X275328Y419768D01*
X275309Y419750D01*
X275277Y419722D01*
X275231Y419685D01*
X275171Y419644D01*
X275097Y419593D01*
X275009Y419542D01*
X274902Y419491D01*
X274782Y419440D01*
X274648Y419389D01*
X274491Y419338D01*
X274325Y419297D01*
X274135Y419260D01*
X274034Y419246D01*
X273927Y419232D01*
X273816Y419223D01*
X273701Y419214D01*
X273580Y419209D01*
X271819D01*
Y416606D01*
X270973D01*
Y423004D01*
X273539D01*
X273603Y423000D01*
D02*
G37*
G36*
X267127Y422251D02*
X265010D01*
Y416606D01*
X264164D01*
Y422251D01*
X262056D01*
Y423004D01*
X267127D01*
Y422251D01*
D02*
G37*
G36*
X242497Y416606D02*
X241535D01*
X240795Y418543D01*
X238110D01*
X237412Y416606D01*
X236519D01*
X238974Y423004D01*
X239880D01*
X242497Y416606D01*
D02*
G37*
G36*
X235895Y422251D02*
X232118D01*
Y420291D01*
X235655D01*
Y419537D01*
X232118D01*
Y417360D01*
X236043D01*
Y416606D01*
X231273D01*
Y423004D01*
X235895D01*
Y422251D01*
D02*
G37*
G36*
X227787Y423000D02*
X227861D01*
X227944Y422995D01*
X228032Y422990D01*
X228134Y422981D01*
X228235Y422972D01*
X228342Y422963D01*
X228559Y422930D01*
X228661Y422912D01*
X228762Y422889D01*
X228860Y422861D01*
X228947Y422829D01*
X228952D01*
X228966Y422819D01*
X228989Y422810D01*
X229021Y422796D01*
X229058Y422778D01*
X229100Y422750D01*
X229151Y422722D01*
X229202Y422690D01*
X229257Y422648D01*
X229317Y422607D01*
X229377Y422556D01*
X229437Y422500D01*
X229493Y422436D01*
X229553Y422371D01*
X229608Y422297D01*
X229659Y422218D01*
X229664Y422214D01*
X229673Y422200D01*
X229682Y422177D01*
X229701Y422144D01*
X229719Y422103D01*
X229742Y422052D01*
X229770Y421996D01*
X229793Y421936D01*
X229816Y421867D01*
X229844Y421793D01*
X229867Y421715D01*
X229886Y421631D01*
X229904Y421544D01*
X229918Y421451D01*
X229923Y421354D01*
X229927Y421257D01*
Y421248D01*
Y421229D01*
X229923Y421192D01*
Y421141D01*
X229914Y421086D01*
X229904Y421017D01*
X229890Y420942D01*
X229872Y420859D01*
X229849Y420771D01*
X229821Y420679D01*
X229784Y420582D01*
X229742Y420485D01*
X229692Y420388D01*
X229632Y420295D01*
X229562Y420198D01*
X229484Y420110D01*
X229479Y420106D01*
X229465Y420092D01*
X229437Y420069D01*
X229400Y420036D01*
X229354Y420000D01*
X229294Y419958D01*
X229229Y419912D01*
X229151Y419861D01*
X229058Y419810D01*
X228961Y419759D01*
X228846Y419713D01*
X228725Y419662D01*
X228591Y419620D01*
X228448Y419579D01*
X228291Y419546D01*
X228124Y419519D01*
X228129D01*
X228138Y419509D01*
X228157Y419505D01*
X228180Y419491D01*
X228208Y419477D01*
X228240Y419459D01*
X228314Y419417D01*
X228397Y419371D01*
X228480Y419315D01*
X228559Y419260D01*
X228633Y419200D01*
X228638Y419195D01*
X228651Y419186D01*
X228670Y419163D01*
X228698Y419140D01*
X228730Y419103D01*
X228767Y419066D01*
X228813Y419019D01*
X228860Y418964D01*
X228910Y418904D01*
X228966Y418839D01*
X229026Y418770D01*
X229086Y418696D01*
X229146Y418613D01*
X229211Y418529D01*
X229336Y418344D01*
X230441Y416606D01*
X229382D01*
X228536Y417938D01*
X228531Y417942D01*
X228517Y417961D01*
X228499Y417993D01*
X228476Y418030D01*
X228443Y418081D01*
X228406Y418136D01*
X228365Y418197D01*
X228323Y418261D01*
X228226Y418405D01*
X228124Y418553D01*
X228023Y418691D01*
X227972Y418756D01*
X227926Y418816D01*
X227921Y418821D01*
X227916Y418830D01*
X227903Y418844D01*
X227884Y418867D01*
X227838Y418922D01*
X227782Y418987D01*
X227713Y419056D01*
X227644Y419130D01*
X227570Y419195D01*
X227496Y419246D01*
X227486Y419251D01*
X227463Y419264D01*
X227426Y419288D01*
X227376Y419311D01*
X227320Y419338D01*
X227255Y419371D01*
X227186Y419394D01*
X227112Y419417D01*
X227107D01*
X227084Y419422D01*
X227047Y419426D01*
X227001Y419436D01*
X226936Y419440D01*
X226853Y419445D01*
X226756Y419449D01*
X225660D01*
Y416606D01*
X224814D01*
Y423004D01*
X227731D01*
X227787Y423000D01*
D02*
G37*
G36*
X221324D02*
X221389D01*
X221458Y422995D01*
X221542Y422986D01*
X221625Y422981D01*
X221717Y422967D01*
X221814Y422958D01*
X222008Y422921D01*
X222203Y422870D01*
X222295Y422842D01*
X222378Y422805D01*
X222383D01*
X222397Y422796D01*
X222420Y422787D01*
X222452Y422769D01*
X222489Y422750D01*
X222531Y422722D01*
X222582Y422695D01*
X222633Y422658D01*
X222688Y422621D01*
X222743Y422574D01*
X222799Y422528D01*
X222859Y422473D01*
X222915Y422413D01*
X222970Y422352D01*
X223021Y422283D01*
X223072Y422209D01*
X223076Y422205D01*
X223081Y422191D01*
X223095Y422168D01*
X223113Y422140D01*
X223132Y422103D01*
X223150Y422057D01*
X223173Y422010D01*
X223201Y421955D01*
X223224Y421890D01*
X223247Y421825D01*
X223284Y421682D01*
X223317Y421525D01*
X223321Y421446D01*
X223326Y421363D01*
Y421359D01*
Y421345D01*
Y421322D01*
X223321Y421294D01*
Y421257D01*
X223312Y421215D01*
X223307Y421164D01*
X223298Y421114D01*
X223270Y420993D01*
X223229Y420864D01*
X223206Y420795D01*
X223173Y420730D01*
X223141Y420661D01*
X223099Y420591D01*
X223095Y420587D01*
X223090Y420577D01*
X223076Y420559D01*
X223058Y420531D01*
X223035Y420499D01*
X223007Y420466D01*
X222970Y420425D01*
X222933Y420383D01*
X222887Y420337D01*
X222841Y420291D01*
X222785Y420244D01*
X222725Y420194D01*
X222656Y420143D01*
X222586Y420097D01*
X222512Y420050D01*
X222429Y420009D01*
X222434D01*
X222457Y420000D01*
X222485Y419990D01*
X222526Y419976D01*
X222572Y419958D01*
X222628Y419935D01*
X222693Y419907D01*
X222757Y419870D01*
X222831Y419833D01*
X222905Y419791D01*
X222979Y419745D01*
X223053Y419690D01*
X223123Y419634D01*
X223197Y419570D01*
X223261Y419500D01*
X223321Y419426D01*
X223326Y419422D01*
X223335Y419408D01*
X223349Y419385D01*
X223372Y419352D01*
X223395Y419315D01*
X223423Y419269D01*
X223451Y419214D01*
X223479Y419154D01*
X223506Y419084D01*
X223539Y419010D01*
X223562Y418932D01*
X223585Y418844D01*
X223608Y418756D01*
X223622Y418659D01*
X223631Y418562D01*
X223636Y418460D01*
Y418455D01*
Y418442D01*
Y418414D01*
X223631Y418382D01*
Y418344D01*
X223626Y418298D01*
X223622Y418243D01*
X223613Y418187D01*
X223589Y418058D01*
X223552Y417915D01*
X223506Y417767D01*
X223442Y417619D01*
Y417614D01*
X223432Y417600D01*
X223423Y417582D01*
X223409Y417554D01*
X223391Y417522D01*
X223368Y417485D01*
X223312Y417402D01*
X223243Y417304D01*
X223164Y417207D01*
X223076Y417110D01*
X222975Y417027D01*
X222970D01*
X222961Y417018D01*
X222947Y417009D01*
X222924Y416995D01*
X222896Y416976D01*
X222864Y416958D01*
X222827Y416935D01*
X222785Y416911D01*
X222734Y416884D01*
X222683Y416861D01*
X222563Y416805D01*
X222429Y416759D01*
X222277Y416713D01*
X222272D01*
X222258Y416708D01*
X222235Y416703D01*
X222203Y416694D01*
X222161Y416689D01*
X222110Y416680D01*
X222055Y416671D01*
X221990Y416662D01*
X221921Y416648D01*
X221842Y416639D01*
X221754Y416629D01*
X221666Y416625D01*
X221569Y416616D01*
X221468Y416611D01*
X221357Y416606D01*
X218810D01*
Y423004D01*
X221273D01*
X221324Y423000D01*
D02*
G37*
G36*
X207747Y416606D02*
X206786D01*
X206046Y418543D01*
X203360D01*
X202662Y416606D01*
X201770D01*
X204225Y423004D01*
X205131D01*
X207747Y416606D01*
D02*
G37*
G36*
X300628Y423023D02*
X300670D01*
X300725Y423018D01*
X300781Y423009D01*
X300846Y423000D01*
X300984Y422977D01*
X301137Y422940D01*
X301294Y422889D01*
X301368Y422856D01*
X301442Y422819D01*
X301447D01*
X301460Y422810D01*
X301479Y422796D01*
X301507Y422782D01*
X301539Y422759D01*
X301576Y422732D01*
X301622Y422704D01*
X301669Y422667D01*
X301770Y422584D01*
X301877Y422477D01*
X301983Y422357D01*
X302080Y422218D01*
X302085Y422214D01*
X302089Y422200D01*
X302103Y422177D01*
X302122Y422149D01*
X302145Y422112D01*
X302168Y422066D01*
X302196Y422015D01*
X302223Y421955D01*
X302256Y421890D01*
X302288Y421816D01*
X302320Y421738D01*
X302357Y421655D01*
X302390Y421567D01*
X302418Y421474D01*
X302450Y421372D01*
X302478Y421271D01*
Y421266D01*
X302482Y421243D01*
X302491Y421215D01*
X302501Y421169D01*
X302510Y421114D01*
X302524Y421044D01*
X302538Y420966D01*
X302551Y420873D01*
X302565Y420771D01*
X302579Y420656D01*
X302593Y420531D01*
X302602Y420397D01*
X302612Y420254D01*
X302621Y420097D01*
X302626Y419935D01*
Y419759D01*
Y419754D01*
Y419745D01*
Y419731D01*
Y419708D01*
Y419685D01*
Y419653D01*
X302621Y419616D01*
Y419574D01*
X302616Y419477D01*
X302612Y419366D01*
X302607Y419246D01*
X302598Y419112D01*
X302584Y418969D01*
X302570Y418821D01*
X302528Y418520D01*
X302501Y418368D01*
X302468Y418220D01*
X302431Y418076D01*
X302390Y417942D01*
X302385Y417933D01*
X302381Y417910D01*
X302367Y417878D01*
X302348Y417827D01*
X302320Y417771D01*
X302293Y417702D01*
X302256Y417628D01*
X302219Y417549D01*
X302172Y417466D01*
X302117Y417378D01*
X302062Y417290D01*
X302001Y417198D01*
X301932Y417110D01*
X301858Y417027D01*
X301779Y416948D01*
X301696Y416875D01*
X301692Y416870D01*
X301673Y416861D01*
X301650Y416842D01*
X301613Y416814D01*
X301567Y416787D01*
X301516Y416754D01*
X301451Y416722D01*
X301382Y416690D01*
X301299Y416653D01*
X301211Y416620D01*
X301118Y416588D01*
X301017Y416560D01*
X300906Y416537D01*
X300790Y416519D01*
X300670Y416505D01*
X300541Y416500D01*
X300499D01*
X300453Y416505D01*
X300388Y416509D01*
X300310Y416519D01*
X300217Y416537D01*
X300120Y416555D01*
X300009Y416583D01*
X299893Y416616D01*
X299778Y416662D01*
X299658Y416713D01*
X299533Y416777D01*
X299413Y416851D01*
X299297Y416939D01*
X299186Y417041D01*
X299084Y417156D01*
Y417161D01*
X299080Y417166D01*
X299070Y417180D01*
X299057Y417193D01*
X299043Y417217D01*
X299024Y417244D01*
X299006Y417272D01*
X298987Y417309D01*
X298964Y417351D01*
X298937Y417397D01*
X298913Y417448D01*
X298886Y417503D01*
X298858Y417568D01*
X298830Y417633D01*
X298798Y417707D01*
X298770Y417780D01*
X298742Y417864D01*
X298710Y417952D01*
X298682Y418044D01*
X298654Y418146D01*
X298627Y418247D01*
X298604Y418358D01*
X298576Y418469D01*
X298553Y418594D01*
X298534Y418719D01*
X298516Y418848D01*
X298497Y418987D01*
X298484Y419130D01*
X298470Y419278D01*
X298465Y419431D01*
X298456Y419593D01*
Y419759D01*
Y419764D01*
Y419773D01*
Y419787D01*
Y419810D01*
Y419838D01*
Y419870D01*
X298460Y419907D01*
Y419949D01*
X298465Y420041D01*
X298470Y420152D01*
X298474Y420277D01*
X298484Y420411D01*
X298497Y420554D01*
X298511Y420702D01*
X298553Y421007D01*
X298580Y421160D01*
X298613Y421308D01*
X298645Y421451D01*
X298687Y421585D01*
X298692Y421594D01*
X298696Y421618D01*
X298710Y421650D01*
X298729Y421701D01*
X298756Y421756D01*
X298784Y421825D01*
X298821Y421899D01*
X298862Y421978D01*
X298904Y422061D01*
X298960Y422149D01*
X299015Y422242D01*
X299075Y422329D01*
X299144Y422417D01*
X299219Y422500D01*
X299297Y422579D01*
X299380Y422653D01*
X299385Y422658D01*
X299403Y422672D01*
X299426Y422690D01*
X299464Y422713D01*
X299510Y422741D01*
X299565Y422773D01*
X299625Y422805D01*
X299699Y422842D01*
X299778Y422875D01*
X299866Y422907D01*
X299963Y422940D01*
X300064Y422967D01*
X300175Y422995D01*
X300291Y423014D01*
X300411Y423023D01*
X300541Y423027D01*
X300591D01*
X300628Y423023D01*
D02*
G37*
G36*
X252020Y423111D02*
X252080D01*
X252158Y423101D01*
X252251Y423092D01*
X252353Y423078D01*
X252463Y423064D01*
X252584Y423041D01*
X252713Y423013D01*
X252847Y422976D01*
X252981Y422935D01*
X253120Y422889D01*
X253259Y422829D01*
X253397Y422764D01*
X253531Y422690D01*
X253541Y422685D01*
X253564Y422671D01*
X253601Y422648D01*
X253647Y422611D01*
X253707Y422570D01*
X253776Y422519D01*
X253850Y422454D01*
X253934Y422385D01*
X254021Y422306D01*
X254109Y422218D01*
X254202Y422121D01*
X254289Y422015D01*
X254377Y421899D01*
X254465Y421779D01*
X254544Y421650D01*
X254618Y421511D01*
X254622Y421502D01*
X254636Y421479D01*
X254655Y421437D01*
X254678Y421377D01*
X254706Y421308D01*
X254738Y421220D01*
X254770Y421123D01*
X254807Y421012D01*
X254840Y420892D01*
X254872Y420758D01*
X254904Y420619D01*
X254932Y420466D01*
X254960Y420309D01*
X254978Y420143D01*
X254988Y419972D01*
X254992Y419796D01*
Y419791D01*
Y419787D01*
Y419773D01*
Y419754D01*
Y419731D01*
X254988Y419699D01*
Y419630D01*
X254978Y419546D01*
X254974Y419449D01*
X254960Y419334D01*
X254941Y419214D01*
X254923Y419080D01*
X254895Y418941D01*
X254863Y418797D01*
X254826Y418650D01*
X254779Y418497D01*
X254729Y418349D01*
X254669Y418201D01*
X254599Y418053D01*
X254595Y418044D01*
X254581Y418021D01*
X254558Y417979D01*
X254525Y417929D01*
X254488Y417864D01*
X254437Y417790D01*
X254377Y417707D01*
X254313Y417619D01*
X254239Y417526D01*
X254155Y417434D01*
X254063Y417337D01*
X253966Y417240D01*
X253855Y417147D01*
X253739Y417055D01*
X253615Y416972D01*
X253485Y416893D01*
X253476Y416888D01*
X253453Y416875D01*
X253411Y416856D01*
X253360Y416833D01*
X253291Y416800D01*
X253212Y416768D01*
X253125Y416731D01*
X253023Y416699D01*
X252907Y416662D01*
X252787Y416625D01*
X252662Y416592D01*
X252524Y416560D01*
X252385Y416537D01*
X252237Y416519D01*
X252084Y416505D01*
X251932Y416500D01*
X251890D01*
X251844Y416505D01*
X251779Y416509D01*
X251701Y416514D01*
X251608Y416523D01*
X251502Y416537D01*
X251391Y416555D01*
X251266Y416579D01*
X251137Y416606D01*
X251003Y416643D01*
X250869Y416685D01*
X250730Y416731D01*
X250587Y416791D01*
X250448Y416856D01*
X250314Y416935D01*
X250305Y416939D01*
X250282Y416953D01*
X250245Y416981D01*
X250198Y417013D01*
X250138Y417059D01*
X250069Y417110D01*
X249995Y417175D01*
X249912Y417244D01*
X249828Y417327D01*
X249736Y417415D01*
X249648Y417512D01*
X249560Y417619D01*
X249473Y417734D01*
X249389Y417854D01*
X249311Y417984D01*
X249237Y418123D01*
X249232Y418132D01*
X249223Y418155D01*
X249204Y418197D01*
X249181Y418257D01*
X249154Y418326D01*
X249121Y418409D01*
X249089Y418502D01*
X249056Y418608D01*
X249020Y418724D01*
X248987Y418848D01*
X248955Y418978D01*
X248927Y419117D01*
X248904Y419264D01*
X248885Y419412D01*
X248876Y419565D01*
X248872Y419722D01*
Y419727D01*
Y419741D01*
Y419764D01*
Y419791D01*
X248876Y419828D01*
Y419875D01*
X248881Y419925D01*
X248885Y419986D01*
X248890Y420050D01*
X248899Y420120D01*
X248909Y420194D01*
X248918Y420272D01*
X248946Y420443D01*
X248978Y420628D01*
X249024Y420827D01*
X249080Y421030D01*
X249149Y421238D01*
X249232Y421446D01*
X249329Y421650D01*
X249445Y421849D01*
X249510Y421946D01*
X249574Y422038D01*
X249648Y422126D01*
X249727Y422214D01*
X249731Y422218D01*
X249736Y422223D01*
X249750Y422237D01*
X249768Y422251D01*
X249787Y422274D01*
X249815Y422297D01*
X249884Y422357D01*
X249967Y422422D01*
X250069Y422500D01*
X250189Y422579D01*
X250323Y422667D01*
X250476Y422750D01*
X250642Y422829D01*
X250822Y422907D01*
X251017Y422976D01*
X251229Y423032D01*
X251451Y423078D01*
X251567Y423092D01*
X251687Y423106D01*
X251807Y423111D01*
X251932Y423115D01*
X251973D01*
X252020Y423111D01*
D02*
G37*
G36*
X259441Y437262D02*
X259492D01*
X259551Y437256D01*
X259693Y437249D01*
X259855Y437230D01*
X260037Y437210D01*
X260231Y437178D01*
X260432Y437146D01*
X260645Y437094D01*
X260866Y437042D01*
X261079Y436971D01*
X261293Y436893D01*
X261500Y436796D01*
X261701Y436686D01*
X261882Y436563D01*
X261896Y436556D01*
X261921Y436530D01*
X261973Y436491D01*
X262031Y436433D01*
X262109Y436362D01*
X262193Y436278D01*
X262291Y436174D01*
X262388Y436057D01*
X262491Y435928D01*
X262589Y435785D01*
X262692Y435623D01*
X262789Y435455D01*
X262880Y435267D01*
X262964Y435066D01*
X263035Y434859D01*
X263094Y434632D01*
X261300Y434296D01*
Y434302D01*
X261293Y434322D01*
X261280Y434360D01*
X261261Y434406D01*
X261241Y434458D01*
X261209Y434522D01*
X261176Y434594D01*
X261138Y434671D01*
X261092Y434749D01*
X261040Y434833D01*
X260982Y434924D01*
X260917Y435008D01*
X260840Y435092D01*
X260762Y435177D01*
X260678Y435261D01*
X260581Y435332D01*
X260574Y435338D01*
X260555Y435351D01*
X260529Y435371D01*
X260490Y435390D01*
X260438Y435423D01*
X260373Y435455D01*
X260302Y435487D01*
X260224Y435526D01*
X260134Y435565D01*
X260037Y435597D01*
X259926Y435630D01*
X259810Y435662D01*
X259693Y435682D01*
X259557Y435701D01*
X259421Y435714D01*
X259279Y435721D01*
X259227D01*
X259162Y435714D01*
X259084Y435708D01*
X258981Y435695D01*
X258864Y435682D01*
X258741Y435656D01*
X258599Y435623D01*
X258450Y435585D01*
X258301Y435533D01*
X258139Y435475D01*
X257983Y435403D01*
X257828Y435312D01*
X257679Y435215D01*
X257530Y435099D01*
X257394Y434963D01*
X257388Y434956D01*
X257362Y434930D01*
X257329Y434885D01*
X257284Y434820D01*
X257232Y434743D01*
X257174Y434645D01*
X257109Y434535D01*
X257044Y434406D01*
X256979Y434257D01*
X256915Y434088D01*
X256856Y433907D01*
X256805Y433706D01*
X256759Y433486D01*
X256727Y433253D01*
X256701Y433000D01*
X256695Y432735D01*
Y432728D01*
Y432715D01*
Y432696D01*
Y432663D01*
Y432625D01*
X256701Y432586D01*
Y432534D01*
X256707Y432476D01*
X256714Y432340D01*
X256733Y432191D01*
X256753Y432022D01*
X256785Y431841D01*
X256817Y431647D01*
X256869Y431452D01*
X256921Y431251D01*
X256992Y431057D01*
X257070Y430863D01*
X257167Y430675D01*
X257277Y430500D01*
X257400Y430345D01*
X257407Y430338D01*
X257433Y430312D01*
X257472Y430273D01*
X257530Y430222D01*
X257601Y430163D01*
X257685Y430092D01*
X257789Y430021D01*
X257899Y429950D01*
X258029Y429872D01*
X258165Y429801D01*
X258320Y429736D01*
X258489Y429671D01*
X258664Y429619D01*
X258851Y429580D01*
X259052Y429554D01*
X259259Y429548D01*
X259318D01*
X259356Y429554D01*
X259408D01*
X259473Y429561D01*
X259538Y429567D01*
X259616Y429574D01*
X259700Y429587D01*
X259790Y429600D01*
X259978Y429639D01*
X260186Y429697D01*
X260399Y429768D01*
X260406D01*
X260425Y429781D01*
X260458Y429788D01*
X260497Y429807D01*
X260542Y429827D01*
X260600Y429852D01*
X260665Y429885D01*
X260736Y429917D01*
X260892Y429995D01*
X261054Y430086D01*
X261222Y430189D01*
X261384Y430306D01*
Y431446D01*
X259311D01*
Y432961D01*
X263210D01*
Y429386D01*
X263204Y429380D01*
X263184Y429360D01*
X263152Y429334D01*
X263107Y429295D01*
X263048Y429244D01*
X262971Y429192D01*
X262887Y429127D01*
X262789Y429056D01*
X262679Y428984D01*
X262556Y428907D01*
X262420Y428829D01*
X262271Y428745D01*
X262116Y428661D01*
X261941Y428577D01*
X261753Y428492D01*
X261559Y428414D01*
X261546Y428408D01*
X261513Y428395D01*
X261455Y428376D01*
X261371Y428350D01*
X261274Y428317D01*
X261157Y428285D01*
X261028Y428246D01*
X260885Y428207D01*
X260723Y428168D01*
X260555Y428130D01*
X260373Y428097D01*
X260186Y428065D01*
X259991Y428039D01*
X259790Y428019D01*
X259583Y428007D01*
X259376Y428000D01*
X259279D01*
X259240Y428007D01*
X259143D01*
X259020Y428019D01*
X258877Y428032D01*
X258715Y428052D01*
X258540Y428071D01*
X258353Y428104D01*
X258158Y428143D01*
X257957Y428194D01*
X257750Y428246D01*
X257537Y428317D01*
X257329Y428395D01*
X257122Y428486D01*
X256921Y428589D01*
X256908Y428596D01*
X256876Y428615D01*
X256824Y428654D01*
X256753Y428699D01*
X256662Y428758D01*
X256565Y428835D01*
X256455Y428920D01*
X256332Y429023D01*
X256209Y429133D01*
X256079Y429257D01*
X255950Y429399D01*
X255820Y429548D01*
X255690Y429710D01*
X255574Y429885D01*
X255457Y430073D01*
X255354Y430273D01*
X255347Y430286D01*
X255334Y430325D01*
X255308Y430383D01*
X255270Y430468D01*
X255231Y430571D01*
X255185Y430688D01*
X255140Y430830D01*
X255095Y430986D01*
X255043Y431154D01*
X254998Y431342D01*
X254952Y431536D01*
X254913Y431744D01*
X254881Y431964D01*
X254855Y432191D01*
X254836Y432424D01*
X254829Y432663D01*
Y432670D01*
Y432676D01*
Y432702D01*
Y432728D01*
Y432761D01*
X254836Y432799D01*
Y432897D01*
X254848Y433020D01*
X254862Y433162D01*
X254881Y433324D01*
X254900Y433499D01*
X254933Y433687D01*
X254972Y433888D01*
X255017Y434095D01*
X255075Y434302D01*
X255140Y434516D01*
X255218Y434730D01*
X255308Y434943D01*
X255412Y435151D01*
X255418Y435164D01*
X255438Y435196D01*
X255477Y435254D01*
X255522Y435332D01*
X255580Y435423D01*
X255658Y435526D01*
X255749Y435643D01*
X255846Y435766D01*
X255963Y435902D01*
X256092Y436038D01*
X256228Y436174D01*
X256384Y436316D01*
X256552Y436452D01*
X256733Y436582D01*
X256921Y436705D01*
X257128Y436822D01*
X257141Y436828D01*
X257167Y436841D01*
X257219Y436861D01*
X257284Y436893D01*
X257368Y436925D01*
X257472Y436964D01*
X257588Y437003D01*
X257718Y437048D01*
X257867Y437087D01*
X258035Y437126D01*
X258210Y437165D01*
X258398Y437197D01*
X258599Y437230D01*
X258819Y437249D01*
X259046Y437262D01*
X259279Y437269D01*
X259389D01*
X259441Y437262D01*
D02*
G37*
G36*
X272278Y434788D02*
X272336D01*
X272408Y434781D01*
X272492Y434768D01*
X272576Y434756D01*
X272764Y434723D01*
X272971Y434671D01*
X273172Y434600D01*
X273269Y434555D01*
X273366Y434503D01*
X273373D01*
X273386Y434490D01*
X273412Y434471D01*
X273451Y434451D01*
X273489Y434419D01*
X273535Y434380D01*
X273587Y434334D01*
X273645Y434289D01*
X273703Y434231D01*
X273761Y434166D01*
X273826Y434095D01*
X273884Y434017D01*
X273943Y433939D01*
X274001Y433849D01*
X274105Y433648D01*
Y433642D01*
X274111Y433629D01*
X274124Y433603D01*
X274130Y433570D01*
X274150Y433525D01*
X274163Y433467D01*
X274176Y433402D01*
X274195Y433324D01*
X274215Y433233D01*
X274228Y433136D01*
X274247Y433026D01*
X274260Y432903D01*
X274267Y432774D01*
X274279Y432625D01*
X274286Y432469D01*
Y432301D01*
Y428156D01*
X272570Y428156D01*
Y431860D01*
Y431873D01*
Y431906D01*
Y431951D01*
Y432016D01*
X272563Y432094D01*
Y432178D01*
X272557Y432275D01*
X272550Y432379D01*
X272524Y432592D01*
X272492Y432793D01*
X272472Y432890D01*
X272446Y432974D01*
X272421Y433052D01*
X272388Y433110D01*
Y433117D01*
X272375Y433123D01*
X272362Y433143D01*
X272343Y433169D01*
X272285Y433227D01*
X272207Y433298D01*
X272103Y433363D01*
X271980Y433421D01*
X271909Y433447D01*
X271831Y433467D01*
X271747Y433473D01*
X271656Y433479D01*
X271598D01*
X271527Y433467D01*
X271436Y433454D01*
X271332Y433428D01*
X271216Y433389D01*
X271099Y433331D01*
X270976Y433259D01*
X270970D01*
X270963Y433246D01*
X270924Y433220D01*
X270866Y433169D01*
X270801Y433097D01*
X270724Y433007D01*
X270646Y432897D01*
X270575Y432761D01*
X270516Y432612D01*
Y432605D01*
X270510Y432592D01*
X270503Y432566D01*
X270497Y432534D01*
X270484Y432482D01*
X270471Y432430D01*
X270458Y432359D01*
X270452Y432281D01*
X270439Y432197D01*
X270426Y432094D01*
X270413Y431990D01*
X270400Y431867D01*
X270393Y431731D01*
X270387Y431588D01*
X270380Y431439D01*
Y431271D01*
Y428156D01*
X268664D01*
Y431711D01*
Y431724D01*
Y431750D01*
Y431802D01*
Y431867D01*
Y431938D01*
X268657Y432022D01*
Y432119D01*
X268651Y432216D01*
X268638Y432424D01*
X268625Y432625D01*
X268612Y432715D01*
X268599Y432799D01*
X268586Y432871D01*
X268567Y432929D01*
Y432935D01*
X268560Y432942D01*
X268547Y432974D01*
X268528Y433026D01*
X268496Y433084D01*
X268457Y433156D01*
X268411Y433220D01*
X268353Y433285D01*
X268282Y433344D01*
X268275Y433350D01*
X268249Y433363D01*
X268204Y433389D01*
X268146Y433415D01*
X268074Y433434D01*
X267984Y433460D01*
X267880Y433473D01*
X267764Y433479D01*
X267699D01*
X267660Y433473D01*
X267621Y433467D01*
X267524Y433454D01*
X267414Y433428D01*
X267291Y433389D01*
X267168Y433331D01*
X267045Y433259D01*
X267038D01*
X267032Y433246D01*
X266993Y433220D01*
X266935Y433169D01*
X266870Y433104D01*
X266792Y433013D01*
X266721Y432910D01*
X266650Y432786D01*
X266591Y432644D01*
Y432637D01*
X266585Y432625D01*
X266578Y432599D01*
X266572Y432566D01*
X266559Y432521D01*
X266546Y432469D01*
X266533Y432404D01*
X266527Y432327D01*
X266514Y432236D01*
X266501Y432139D01*
X266488Y432029D01*
X266475Y431912D01*
X266468Y431776D01*
X266462Y431634D01*
X266455Y431472D01*
Y431303D01*
Y428156D01*
X264739D01*
Y434652D01*
X266319D01*
Y433764D01*
X266332Y433778D01*
X266358Y433810D01*
X266404Y433862D01*
X266468Y433927D01*
X266553Y434004D01*
X266650Y434088D01*
X266760Y434185D01*
X266889Y434283D01*
X267032Y434373D01*
X267187Y434470D01*
X267349Y434555D01*
X267530Y434632D01*
X267718Y434697D01*
X267919Y434749D01*
X268126Y434781D01*
X268340Y434794D01*
X268398D01*
X268444Y434788D01*
X268496D01*
X268560Y434781D01*
X268632Y434775D01*
X268709Y434762D01*
X268878Y434730D01*
X269059Y434684D01*
X269240Y434619D01*
X269422Y434535D01*
X269428D01*
X269441Y434522D01*
X269467Y434509D01*
X269499Y434490D01*
X269538Y434458D01*
X269584Y434425D01*
X269687Y434341D01*
X269810Y434231D01*
X269933Y434101D01*
X270056Y433939D01*
X270173Y433758D01*
X270180Y433764D01*
X270193Y433784D01*
X270218Y433810D01*
X270251Y433842D01*
X270290Y433888D01*
X270335Y433933D01*
X270387Y433991D01*
X270452Y434049D01*
X270588Y434173D01*
X270743Y434302D01*
X270912Y434425D01*
X271093Y434535D01*
X271099D01*
X271119Y434548D01*
X271145Y434561D01*
X271177Y434574D01*
X271229Y434594D01*
X271281Y434619D01*
X271345Y434639D01*
X271410Y434665D01*
X271488Y434691D01*
X271572Y434710D01*
X271754Y434756D01*
X271948Y434781D01*
X272155Y434794D01*
X272226D01*
X272278Y434788D01*
D02*
G37*
G36*
X290835Y428156D02*
X289028D01*
Y432074D01*
X285478D01*
Y428156D01*
X283671D01*
Y437120D01*
X285478D01*
Y433590D01*
X289028D01*
Y437120D01*
X290835D01*
Y428156D01*
D02*
G37*
G36*
X239997Y434788D02*
X240100Y434781D01*
X240217Y434768D01*
X240347Y434749D01*
X240483Y434730D01*
X240632Y434704D01*
X240781Y434671D01*
X240942Y434626D01*
X241098Y434574D01*
X241253Y434516D01*
X241409Y434445D01*
X241551Y434367D01*
X241687Y434276D01*
X241694Y434270D01*
X241720Y434250D01*
X241752Y434224D01*
X241804Y434179D01*
X241862Y434127D01*
X241927Y434062D01*
X241998Y433978D01*
X242076Y433888D01*
X242160Y433790D01*
X242244Y433674D01*
X242328Y433544D01*
X242406Y433402D01*
X242490Y433253D01*
X242568Y433091D01*
X242633Y432910D01*
X242698Y432722D01*
X241007Y432417D01*
Y432424D01*
X241001Y432437D01*
X240994Y432463D01*
X240988Y432501D01*
X240975Y432540D01*
X240962Y432592D01*
X240923Y432702D01*
X240871Y432825D01*
X240800Y432955D01*
X240716Y433072D01*
X240612Y433182D01*
X240606D01*
X240599Y433195D01*
X240580Y433208D01*
X240560Y433220D01*
X240489Y433266D01*
X240398Y433311D01*
X240288Y433357D01*
X240152Y433402D01*
X239997Y433428D01*
X239828Y433441D01*
X239764D01*
X239718Y433434D01*
X239666Y433428D01*
X239602Y433415D01*
X239530Y433402D01*
X239459Y433382D01*
X239375Y433363D01*
X239291Y433331D01*
X239207Y433298D01*
X239122Y433253D01*
X239038Y433201D01*
X238954Y433143D01*
X238876Y433072D01*
X238799Y432994D01*
X238792Y432987D01*
X238779Y432974D01*
X238766Y432948D01*
X238740Y432910D01*
X238708Y432858D01*
X238675Y432799D01*
X238643Y432728D01*
X238611Y432644D01*
X238572Y432547D01*
X238539Y432437D01*
X238507Y432314D01*
X238475Y432184D01*
X238449Y432035D01*
X238436Y431873D01*
X238423Y431698D01*
X238416Y431511D01*
Y431498D01*
Y431459D01*
Y431400D01*
X238423Y431323D01*
X238429Y431226D01*
X238436Y431122D01*
X238449Y430999D01*
X238468Y430876D01*
X238514Y430604D01*
X238546Y430468D01*
X238578Y430338D01*
X238624Y430209D01*
X238675Y430086D01*
X238734Y429976D01*
X238805Y429878D01*
X238811Y429872D01*
X238824Y429859D01*
X238844Y429833D01*
X238876Y429807D01*
X238915Y429768D01*
X238960Y429729D01*
X239019Y429684D01*
X239083Y429645D01*
X239155Y429600D01*
X239233Y429554D01*
X239317Y429516D01*
X239407Y429477D01*
X239511Y429451D01*
X239615Y429425D01*
X239731Y429412D01*
X239848Y429406D01*
X239893D01*
X239932Y429412D01*
X239971D01*
X240016Y429418D01*
X240133Y429438D01*
X240256Y429477D01*
X240392Y429522D01*
X240521Y429593D01*
X240586Y429632D01*
X240644Y429684D01*
X240651Y429691D01*
X240657Y429697D01*
X240677Y429716D01*
X240696Y429736D01*
X240722Y429768D01*
X240755Y429807D01*
X240787Y429852D01*
X240819Y429911D01*
X240858Y429969D01*
X240891Y430040D01*
X240929Y430118D01*
X240968Y430209D01*
X241001Y430299D01*
X241033Y430410D01*
X241066Y430520D01*
X241091Y430643D01*
X242782Y430358D01*
Y430345D01*
X242769Y430306D01*
X242750Y430247D01*
X242730Y430163D01*
X242698Y430066D01*
X242659Y429956D01*
X242614Y429833D01*
X242555Y429703D01*
X242490Y429561D01*
X242419Y429418D01*
X242335Y429269D01*
X242244Y429120D01*
X242141Y428978D01*
X242031Y428842D01*
X241908Y428713D01*
X241771Y428596D01*
X241765Y428589D01*
X241739Y428570D01*
X241694Y428544D01*
X241635Y428505D01*
X241558Y428460D01*
X241467Y428408D01*
X241363Y428356D01*
X241240Y428304D01*
X241104Y428246D01*
X240955Y428194D01*
X240793Y428143D01*
X240612Y428097D01*
X240424Y428058D01*
X240217Y428032D01*
X239997Y428013D01*
X239770Y428007D01*
X239705D01*
X239673Y428013D01*
X239634D01*
X239537Y428019D01*
X239414Y428032D01*
X239278Y428052D01*
X239122Y428084D01*
X238954Y428117D01*
X238773Y428168D01*
X238591Y428227D01*
X238397Y428298D01*
X238209Y428382D01*
X238021Y428486D01*
X237840Y428602D01*
X237665Y428745D01*
X237497Y428900D01*
X237490Y428913D01*
X237458Y428939D01*
X237419Y428991D01*
X237367Y429069D01*
X237302Y429159D01*
X237231Y429269D01*
X237153Y429399D01*
X237076Y429548D01*
X236998Y429716D01*
X236920Y429904D01*
X236849Y430112D01*
X236784Y430332D01*
X236732Y430571D01*
X236693Y430830D01*
X236661Y431102D01*
X236655Y431394D01*
Y431400D01*
Y431413D01*
Y431433D01*
Y431465D01*
X236661Y431504D01*
Y431549D01*
Y431601D01*
X236668Y431660D01*
X236681Y431796D01*
X236700Y431951D01*
X236726Y432119D01*
X236758Y432307D01*
X236804Y432508D01*
X236862Y432709D01*
X236933Y432916D01*
X237011Y433130D01*
X237108Y433331D01*
X237225Y433531D01*
X237354Y433719D01*
X237503Y433894D01*
X237516Y433907D01*
X237542Y433933D01*
X237594Y433978D01*
X237659Y434037D01*
X237743Y434101D01*
X237846Y434179D01*
X237969Y434263D01*
X238112Y434347D01*
X238267Y434425D01*
X238436Y434509D01*
X238624Y434587D01*
X238831Y434652D01*
X239051Y434710D01*
X239284Y434756D01*
X239537Y434781D01*
X239802Y434794D01*
X239919D01*
X239997Y434788D01*
D02*
G37*
G36*
X214847Y428156D02*
X212897D01*
X209697Y437120D01*
X211653D01*
X213927Y430487D01*
X216116Y437120D01*
X218040D01*
X214847Y428156D01*
D02*
G37*
G36*
X245709Y433816D02*
X245722Y433829D01*
X245748Y433862D01*
X245794Y433907D01*
X245858Y433972D01*
X245936Y434043D01*
X246033Y434127D01*
X246143Y434212D01*
X246266Y434309D01*
X246409Y434399D01*
X246558Y434483D01*
X246726Y434568D01*
X246901Y434639D01*
X247083Y434704D01*
X247277Y434756D01*
X247484Y434781D01*
X247698Y434794D01*
X247795D01*
X247847Y434788D01*
X247912Y434781D01*
X247976Y434775D01*
X248054Y434768D01*
X248216Y434743D01*
X248397Y434704D01*
X248579Y434645D01*
X248760Y434574D01*
X248767D01*
X248780Y434561D01*
X248806Y434555D01*
X248838Y434535D01*
X248877Y434516D01*
X248922Y434483D01*
X249032Y434419D01*
X249149Y434341D01*
X249265Y434244D01*
X249382Y434134D01*
X249479Y434011D01*
Y434004D01*
X249492Y433998D01*
X249505Y433978D01*
X249518Y433952D01*
X249537Y433920D01*
X249563Y433881D01*
X249615Y433784D01*
X249667Y433674D01*
X249725Y433544D01*
X249777Y433402D01*
X249816Y433246D01*
Y433240D01*
X249822Y433227D01*
Y433201D01*
X249829Y433169D01*
X249835Y433123D01*
X249842Y433072D01*
X249855Y433007D01*
X249861Y432929D01*
X249868Y432845D01*
X249881Y432754D01*
X249887Y432644D01*
X249894Y432534D01*
X249900Y432404D01*
Y432268D01*
X249907Y432119D01*
Y431964D01*
Y428156D01*
X248190D01*
Y431582D01*
Y431595D01*
Y431627D01*
Y431679D01*
Y431744D01*
Y431828D01*
X248184Y431919D01*
Y432022D01*
X248177Y432126D01*
X248164Y432346D01*
X248158Y432456D01*
X248145Y432560D01*
X248132Y432657D01*
X248119Y432741D01*
X248106Y432819D01*
X248086Y432877D01*
X248080Y432890D01*
X248067Y432923D01*
X248041Y432974D01*
X248009Y433033D01*
X247964Y433104D01*
X247899Y433175D01*
X247827Y433246D01*
X247743Y433311D01*
X247730Y433318D01*
X247698Y433337D01*
X247646Y433363D01*
X247575Y433395D01*
X247484Y433428D01*
X247381Y433454D01*
X247257Y433473D01*
X247122Y433479D01*
X247050D01*
X247011Y433473D01*
X246966Y433467D01*
X246869Y433454D01*
X246746Y433428D01*
X246616Y433389D01*
X246487Y433337D01*
X246357Y433266D01*
X246351D01*
X246344Y433259D01*
X246305Y433227D01*
X246241Y433175D01*
X246169Y433110D01*
X246092Y433020D01*
X246007Y432916D01*
X245930Y432786D01*
X245865Y432637D01*
Y432631D01*
X245858Y432618D01*
X245852Y432592D01*
X245839Y432560D01*
X245826Y432514D01*
X245813Y432463D01*
X245800Y432398D01*
X245787Y432327D01*
X245774Y432249D01*
X245761Y432158D01*
X245748Y432055D01*
X245735Y431945D01*
X245722Y431821D01*
X245716Y431692D01*
X245709Y431556D01*
Y431407D01*
Y428156D01*
X243993D01*
Y437120D01*
X245709D01*
Y433816D01*
D02*
G37*
G36*
X228928Y435604D02*
X226272D01*
Y428156D01*
X224465D01*
Y435604D01*
X221803D01*
Y437120D01*
X228928D01*
Y435604D01*
D02*
G37*
G36*
X277641Y433888D02*
X277648Y433901D01*
X277680Y433927D01*
X277719Y433972D01*
X277784Y434030D01*
X277855Y434101D01*
X277945Y434173D01*
X278056Y434257D01*
X278172Y434341D01*
X278302Y434425D01*
X278444Y434509D01*
X278600Y434587D01*
X278768Y434652D01*
X278943Y434710D01*
X279124Y434756D01*
X279319Y434781D01*
X279519Y434794D01*
X279571D01*
X279636Y434788D01*
X279720Y434781D01*
X279817Y434768D01*
X279940Y434749D01*
X280070Y434723D01*
X280212Y434684D01*
X280368Y434639D01*
X280523Y434587D01*
X280685Y434516D01*
X280854Y434432D01*
X281016Y434334D01*
X281184Y434218D01*
X281339Y434082D01*
X281488Y433933D01*
X281495Y433920D01*
X281521Y433894D01*
X281560Y433842D01*
X281611Y433771D01*
X281670Y433687D01*
X281735Y433577D01*
X281806Y433447D01*
X281877Y433305D01*
X281948Y433136D01*
X282020Y432955D01*
X282084Y432748D01*
X282143Y432528D01*
X282194Y432288D01*
X282233Y432035D01*
X282259Y431757D01*
X282266Y431465D01*
Y431459D01*
Y431446D01*
Y431426D01*
Y431394D01*
Y431355D01*
X282259Y431303D01*
Y431251D01*
X282253Y431193D01*
X282240Y431051D01*
X282227Y430889D01*
X282201Y430714D01*
X282169Y430520D01*
X282123Y430319D01*
X282071Y430105D01*
X282007Y429891D01*
X281929Y429684D01*
X281838Y429470D01*
X281735Y429269D01*
X281611Y429075D01*
X281469Y428900D01*
X281462Y428887D01*
X281430Y428862D01*
X281391Y428816D01*
X281327Y428758D01*
X281249Y428693D01*
X281158Y428615D01*
X281054Y428538D01*
X280931Y428453D01*
X280802Y428369D01*
X280653Y428292D01*
X280491Y428214D01*
X280323Y428149D01*
X280141Y428091D01*
X279953Y428045D01*
X279753Y428019D01*
X279545Y428007D01*
X279494D01*
X279448Y428013D01*
X279403D01*
X279338Y428019D01*
X279273Y428032D01*
X279202Y428039D01*
X279034Y428078D01*
X278846Y428123D01*
X278645Y428194D01*
X278548Y428233D01*
X278444Y428285D01*
X278438Y428292D01*
X278418Y428298D01*
X278392Y428317D01*
X278354Y428337D01*
X278308Y428369D01*
X278256Y428402D01*
X278192Y428447D01*
X278127Y428492D01*
X277984Y428609D01*
X277829Y428751D01*
X277667Y428913D01*
X277518Y429108D01*
Y428156D01*
X275925D01*
Y437120D01*
X277641D01*
Y433888D01*
D02*
G37*
G36*
X232645Y434788D02*
X232684D01*
X232788Y434781D01*
X232911Y434768D01*
X233047Y434743D01*
X233209Y434717D01*
X233377Y434678D01*
X233552Y434626D01*
X233740Y434561D01*
X233928Y434483D01*
X234122Y434393D01*
X234310Y434283D01*
X234491Y434153D01*
X234666Y434004D01*
X234828Y433836D01*
X234835Y433823D01*
X234867Y433790D01*
X234906Y433732D01*
X234958Y433654D01*
X235022Y433551D01*
X235094Y433428D01*
X235165Y433279D01*
X235243Y433110D01*
X235320Y432916D01*
X235398Y432696D01*
X235463Y432456D01*
X235528Y432191D01*
X235573Y431906D01*
X235612Y431595D01*
X235631Y431258D01*
X235638Y430902D01*
X231331D01*
Y430895D01*
Y430869D01*
X231337Y430830D01*
Y430779D01*
X231343Y430714D01*
X231356Y430636D01*
X231369Y430558D01*
X231389Y430468D01*
X231434Y430273D01*
X231467Y430176D01*
X231505Y430079D01*
X231557Y429982D01*
X231609Y429885D01*
X231667Y429794D01*
X231739Y429710D01*
X231745Y429703D01*
X231758Y429691D01*
X231777Y429671D01*
X231810Y429645D01*
X231849Y429613D01*
X231901Y429574D01*
X231952Y429542D01*
X232017Y429503D01*
X232082Y429457D01*
X232160Y429425D01*
X232328Y429354D01*
X232425Y429328D01*
X232522Y429308D01*
X232626Y429295D01*
X232736Y429289D01*
X232775D01*
X232807Y429295D01*
X232878Y429302D01*
X232976Y429315D01*
X233079Y429341D01*
X233196Y429380D01*
X233306Y429431D01*
X233416Y429503D01*
X233423D01*
X233429Y429516D01*
X233461Y429548D01*
X233513Y429600D01*
X233572Y429678D01*
X233643Y429775D01*
X233714Y429898D01*
X233779Y430040D01*
X233837Y430215D01*
X235547Y429930D01*
X235541Y429917D01*
X235534Y429891D01*
X235515Y429840D01*
X235482Y429775D01*
X235450Y429697D01*
X235405Y429606D01*
X235353Y429503D01*
X235288Y429399D01*
X235223Y429282D01*
X235145Y429166D01*
X235055Y429043D01*
X234964Y428926D01*
X234860Y428810D01*
X234750Y428693D01*
X234627Y428589D01*
X234498Y428492D01*
X234491Y428486D01*
X234465Y428473D01*
X234426Y428447D01*
X234368Y428414D01*
X234297Y428382D01*
X234219Y428337D01*
X234116Y428298D01*
X234006Y428253D01*
X233883Y428207D01*
X233753Y428162D01*
X233604Y428117D01*
X233449Y428084D01*
X233280Y428052D01*
X233099Y428026D01*
X232911Y428013D01*
X232717Y428007D01*
X232645D01*
X232600Y428013D01*
X232555D01*
X232503Y428019D01*
X232438Y428026D01*
X232296Y428039D01*
X232140Y428065D01*
X231959Y428097D01*
X231765Y428143D01*
X231564Y428201D01*
X231356Y428279D01*
X231149Y428363D01*
X230942Y428473D01*
X230741Y428596D01*
X230553Y428745D01*
X230372Y428913D01*
X230210Y429108D01*
X230203Y429120D01*
X230184Y429146D01*
X230152Y429198D01*
X230113Y429269D01*
X230061Y429354D01*
X230009Y429457D01*
X229951Y429580D01*
X229893Y429723D01*
X229828Y429878D01*
X229770Y430047D01*
X229718Y430228D01*
X229672Y430429D01*
X229627Y430636D01*
X229595Y430863D01*
X229575Y431102D01*
X229569Y431349D01*
Y431355D01*
Y431368D01*
Y431387D01*
Y431420D01*
X229575Y431459D01*
Y431504D01*
Y431556D01*
X229582Y431614D01*
X229595Y431750D01*
X229614Y431906D01*
X229640Y432080D01*
X229672Y432268D01*
X229718Y432469D01*
X229776Y432676D01*
X229841Y432884D01*
X229925Y433097D01*
X230022Y433305D01*
X230132Y433506D01*
X230262Y433693D01*
X230411Y433875D01*
X230424Y433888D01*
X230450Y433913D01*
X230495Y433959D01*
X230560Y434017D01*
X230644Y434088D01*
X230748Y434166D01*
X230864Y434250D01*
X230994Y434334D01*
X231143Y434419D01*
X231305Y434503D01*
X231479Y434581D01*
X231667Y434652D01*
X231868Y434710D01*
X232082Y434756D01*
X232309Y434781D01*
X232548Y434794D01*
X232613D01*
X232645Y434788D01*
D02*
G37*
G36*
X204969Y437262D02*
X205021D01*
X205086Y437256D01*
X205163Y437249D01*
X205241Y437243D01*
X205332Y437230D01*
X205422Y437217D01*
X205526Y437204D01*
X205740Y437165D01*
X205973Y437113D01*
X206219Y437048D01*
X206478Y436971D01*
X206744Y436867D01*
X207009Y436750D01*
X207269Y436608D01*
X207528Y436446D01*
X207651Y436355D01*
X207774Y436252D01*
X207890Y436148D01*
X208007Y436038D01*
X208013Y436031D01*
X208020Y436025D01*
X208039Y436006D01*
X208059Y435980D01*
X208085Y435947D01*
X208117Y435908D01*
X208156Y435863D01*
X208195Y435811D01*
X208240Y435753D01*
X208285Y435688D01*
X208331Y435611D01*
X208382Y435533D01*
X208434Y435449D01*
X208493Y435351D01*
X208544Y435254D01*
X208603Y435151D01*
X208713Y434917D01*
X208823Y434665D01*
X208920Y434380D01*
X209011Y434075D01*
X209088Y433745D01*
X209147Y433395D01*
X209186Y433020D01*
X209199Y432819D01*
Y432618D01*
Y432612D01*
Y432592D01*
Y432566D01*
Y432521D01*
X209192Y432469D01*
Y432411D01*
X209186Y432340D01*
X209179Y432262D01*
X209173Y432171D01*
X209160Y432080D01*
X209153Y431977D01*
X209134Y431867D01*
X209102Y431634D01*
X209050Y431381D01*
X208985Y431115D01*
X208907Y430837D01*
X208817Y430552D01*
X208700Y430273D01*
X208564Y429995D01*
X208402Y429723D01*
X208318Y429593D01*
X208221Y429464D01*
X208123Y429341D01*
X208013Y429224D01*
X208007Y429218D01*
X208000Y429211D01*
X207981Y429192D01*
X207962Y429172D01*
X207929Y429146D01*
X207890Y429114D01*
X207851Y429075D01*
X207800Y429036D01*
X207683Y428939D01*
X207534Y428835D01*
X207366Y428725D01*
X207178Y428615D01*
X206964Y428499D01*
X206724Y428389D01*
X206465Y428285D01*
X206187Y428194D01*
X205882Y428110D01*
X205565Y428052D01*
X205222Y428013D01*
X205040Y428007D01*
X204859Y428000D01*
X204768D01*
X204723Y428007D01*
X204665D01*
X204600Y428013D01*
X204529Y428019D01*
X204445Y428026D01*
X204360Y428039D01*
X204263Y428052D01*
X204166Y428065D01*
X203946Y428104D01*
X203713Y428156D01*
X203460Y428214D01*
X203201Y428298D01*
X202942Y428395D01*
X202676Y428512D01*
X202411Y428654D01*
X202152Y428816D01*
X202029Y428907D01*
X201912Y429004D01*
X201789Y429108D01*
X201679Y429218D01*
Y429224D01*
X201666Y429231D01*
X201653Y429250D01*
X201627Y429276D01*
X201601Y429308D01*
X201569Y429347D01*
X201536Y429393D01*
X201497Y429444D01*
X201452Y429503D01*
X201407Y429567D01*
X201355Y429639D01*
X201303Y429716D01*
X201251Y429801D01*
X201199Y429891D01*
X201089Y430092D01*
X200979Y430319D01*
X200876Y430571D01*
X200772Y430850D01*
X200681Y431148D01*
X200610Y431472D01*
X200552Y431821D01*
X200513Y432191D01*
X200506Y432379D01*
X200500Y432579D01*
Y432586D01*
Y432592D01*
Y432612D01*
Y432637D01*
Y432670D01*
Y432709D01*
X200506Y432806D01*
X200513Y432923D01*
X200519Y433059D01*
X200532Y433214D01*
X200552Y433376D01*
X200571Y433557D01*
X200597Y433739D01*
X200636Y433933D01*
X200675Y434121D01*
X200720Y434315D01*
X200772Y434509D01*
X200837Y434691D01*
X200908Y434872D01*
X200914Y434879D01*
X200921Y434905D01*
X200940Y434937D01*
X200966Y434989D01*
X200992Y435047D01*
X201031Y435118D01*
X201077Y435196D01*
X201128Y435287D01*
X201245Y435475D01*
X201387Y435682D01*
X201549Y435896D01*
X201737Y436103D01*
X201744Y436109D01*
X201763Y436129D01*
X201789Y436155D01*
X201828Y436193D01*
X201880Y436239D01*
X201938Y436291D01*
X202009Y436349D01*
X202080Y436407D01*
X202165Y436472D01*
X202255Y436537D01*
X202456Y436673D01*
X202670Y436802D01*
X202786Y436861D01*
X202903Y436912D01*
X202916Y436919D01*
X202942Y436925D01*
X202987Y436945D01*
X203052Y436971D01*
X203130Y436997D01*
X203227Y437023D01*
X203337Y437055D01*
X203460Y437094D01*
X203596Y437126D01*
X203738Y437159D01*
X203900Y437184D01*
X204069Y437210D01*
X204250Y437236D01*
X204438Y437256D01*
X204632Y437262D01*
X204833Y437269D01*
X204924D01*
X204969Y437262D01*
D02*
G37*
%LPC*%
G36*
X295201Y422297D02*
X293181D01*
Y420184D01*
X295095D01*
X295141Y420189D01*
X295201D01*
X295261Y420194D01*
X295331Y420198D01*
X295474Y420212D01*
X295627Y420235D01*
X295774Y420263D01*
X295839Y420281D01*
X295904Y420300D01*
X295909D01*
X295918Y420305D01*
X295936Y420314D01*
X295959Y420323D01*
X295987Y420337D01*
X296015Y420351D01*
X296089Y420392D01*
X296172Y420448D01*
X296255Y420513D01*
X296334Y420591D01*
X296403Y420684D01*
Y420688D01*
X296412Y420698D01*
X296417Y420711D01*
X296431Y420730D01*
X296445Y420753D01*
X296459Y420785D01*
X296491Y420855D01*
X296519Y420938D01*
X296546Y421035D01*
X296565Y421141D01*
X296574Y421257D01*
Y421261D01*
Y421275D01*
Y421298D01*
X296570Y421331D01*
X296565Y421372D01*
X296556Y421414D01*
X296546Y421465D01*
X296533Y421520D01*
X296514Y421576D01*
X296491Y421636D01*
X296468Y421701D01*
X296436Y421761D01*
X296394Y421825D01*
X296352Y421886D01*
X296301Y421946D01*
X296241Y422001D01*
X296237Y422006D01*
X296227Y422015D01*
X296204Y422029D01*
X296181Y422047D01*
X296144Y422071D01*
X296098Y422094D01*
X296047Y422121D01*
X295987Y422149D01*
X295922Y422177D01*
X295844Y422205D01*
X295756Y422228D01*
X295664Y422251D01*
X295562Y422269D01*
X295451Y422283D01*
X295331Y422292D01*
X295201Y422297D01*
D02*
G37*
G36*
X285600Y422251D02*
X284199D01*
Y420314D01*
X285669D01*
X285715Y420318D01*
X285826D01*
X285891Y420323D01*
X286020Y420332D01*
X286154Y420346D01*
X286219Y420355D01*
X286279Y420365D01*
X286335Y420374D01*
X286386Y420388D01*
X286390D01*
X286399Y420392D01*
X286418Y420397D01*
X286441Y420406D01*
X286464Y420415D01*
X286497Y420429D01*
X286566Y420462D01*
X286644Y420503D01*
X286728Y420559D01*
X286802Y420624D01*
X286871Y420702D01*
Y420707D01*
X286880Y420711D01*
X286885Y420725D01*
X286899Y420744D01*
X286908Y420767D01*
X286922Y420790D01*
X286954Y420859D01*
X286987Y420938D01*
X287010Y421035D01*
X287028Y421146D01*
X287037Y421266D01*
Y421271D01*
Y421280D01*
Y421298D01*
Y421322D01*
X287033Y421349D01*
X287028Y421382D01*
X287019Y421456D01*
X287000Y421544D01*
X286973Y421636D01*
X286931Y421733D01*
X286880Y421825D01*
Y421830D01*
X286871Y421835D01*
X286852Y421867D01*
X286815Y421909D01*
X286769Y421960D01*
X286709Y422015D01*
X286631Y422071D01*
X286547Y422117D01*
X286446Y422158D01*
X286441D01*
X286432Y422163D01*
X286413Y422168D01*
X286390Y422172D01*
X286358Y422182D01*
X286321Y422186D01*
X286275Y422195D01*
X286219Y422205D01*
X286154Y422214D01*
X286085Y422223D01*
X286007Y422228D01*
X285919Y422237D01*
X285822Y422242D01*
X285715Y422246D01*
X285600Y422251D01*
D02*
G37*
G36*
X285785Y419560D02*
X284199D01*
Y417360D01*
X285928D01*
X286016Y417365D01*
X286113D01*
X286205Y417374D01*
X286293Y417378D01*
X286335Y417383D01*
X286367Y417388D01*
X286372D01*
X286381Y417392D01*
X286395D01*
X286418Y417397D01*
X286469Y417411D01*
X286538Y417429D01*
X286612Y417452D01*
X286695Y417480D01*
X286774Y417517D01*
X286852Y417559D01*
X286857D01*
X286862Y417563D01*
X286885Y417582D01*
X286922Y417609D01*
X286968Y417651D01*
X287019Y417702D01*
X287074Y417762D01*
X287125Y417831D01*
X287176Y417915D01*
Y417919D01*
X287181Y417924D01*
X287190Y417938D01*
X287195Y417956D01*
X287218Y418007D01*
X287241Y418072D01*
X287264Y418150D01*
X287287Y418243D01*
X287301Y418349D01*
X287306Y418460D01*
Y418465D01*
Y418474D01*
Y418497D01*
X287301Y418520D01*
Y418553D01*
X287296Y418585D01*
X287282Y418673D01*
X287259Y418770D01*
X287227Y418871D01*
X287181Y418978D01*
X287121Y419080D01*
Y419084D01*
X287111Y419093D01*
X287102Y419103D01*
X287088Y419121D01*
X287047Y419167D01*
X286987Y419223D01*
X286913Y419288D01*
X286825Y419348D01*
X286723Y419403D01*
X286607Y419449D01*
X286603D01*
X286594Y419454D01*
X286575Y419459D01*
X286547Y419468D01*
X286515Y419477D01*
X286473Y419486D01*
X286427Y419496D01*
X286372Y419505D01*
X286307Y419514D01*
X286238Y419523D01*
X286159Y419533D01*
X286076Y419542D01*
X285988Y419551D01*
X285891Y419556D01*
X285785Y419560D01*
D02*
G37*
G36*
X273557Y422251D02*
X271819D01*
Y419963D01*
X273548D01*
X273603Y419967D01*
X273668Y419972D01*
X273747Y419981D01*
X273830Y419990D01*
X273923Y420000D01*
X274112Y420037D01*
X274209Y420060D01*
X274306Y420092D01*
X274399Y420124D01*
X274487Y420166D01*
X274565Y420212D01*
X274634Y420268D01*
X274639Y420272D01*
X274648Y420281D01*
X274667Y420300D01*
X274690Y420323D01*
X274713Y420355D01*
X274745Y420392D01*
X274778Y420439D01*
X274810Y420490D01*
X274842Y420550D01*
X274870Y420610D01*
X274902Y420684D01*
X274926Y420758D01*
X274949Y420841D01*
X274967Y420933D01*
X274977Y421026D01*
X274981Y421128D01*
Y421132D01*
Y421146D01*
Y421164D01*
X274977Y421197D01*
Y421229D01*
X274972Y421271D01*
X274963Y421317D01*
X274958Y421363D01*
X274930Y421469D01*
X274893Y421585D01*
X274847Y421701D01*
X274815Y421756D01*
X274778Y421812D01*
Y421816D01*
X274769Y421825D01*
X274755Y421839D01*
X274741Y421858D01*
X274694Y421909D01*
X274634Y421969D01*
X274556Y422029D01*
X274468Y422094D01*
X274362Y422149D01*
X274242Y422191D01*
X274237D01*
X274232Y422195D01*
X274218D01*
X274200Y422200D01*
X274177Y422205D01*
X274144Y422209D01*
X274107Y422214D01*
X274061Y422223D01*
X274010Y422228D01*
X273955Y422232D01*
X273890Y422237D01*
X273816Y422242D01*
X273738Y422246D01*
X273650D01*
X273557Y422251D01*
D02*
G37*
G36*
X239404Y422334D02*
Y422325D01*
X239399Y422306D01*
X239390Y422274D01*
X239381Y422228D01*
X239367Y422172D01*
X239353Y422108D01*
X239335Y422034D01*
X239316Y421950D01*
X239289Y421858D01*
X239265Y421761D01*
X239238Y421664D01*
X239205Y421557D01*
X239136Y421335D01*
X239057Y421109D01*
X238355Y419232D01*
X240527D01*
X239857Y421003D01*
Y421007D01*
X239853Y421012D01*
X239843Y421040D01*
X239829Y421081D01*
X239806Y421137D01*
X239783Y421206D01*
X239751Y421285D01*
X239723Y421377D01*
X239686Y421474D01*
X239649Y421576D01*
X239612Y421682D01*
X239538Y421904D01*
X239464Y422126D01*
X239432Y422232D01*
X239404Y422334D01*
D02*
G37*
G36*
X227681Y422297D02*
X225660D01*
Y420184D01*
X227574D01*
X227621Y420189D01*
X227681D01*
X227741Y420194D01*
X227810Y420198D01*
X227953Y420212D01*
X228106Y420235D01*
X228254Y420263D01*
X228319Y420281D01*
X228383Y420300D01*
X228388D01*
X228397Y420305D01*
X228416Y420314D01*
X228439Y420323D01*
X228466Y420337D01*
X228494Y420351D01*
X228568Y420392D01*
X228651Y420448D01*
X228735Y420513D01*
X228813Y420591D01*
X228883Y420684D01*
Y420688D01*
X228892Y420698D01*
X228896Y420711D01*
X228910Y420730D01*
X228924Y420753D01*
X228938Y420785D01*
X228970Y420855D01*
X228998Y420938D01*
X229026Y421035D01*
X229044Y421141D01*
X229054Y421257D01*
Y421261D01*
Y421275D01*
Y421298D01*
X229049Y421331D01*
X229044Y421372D01*
X229035Y421414D01*
X229026Y421465D01*
X229012Y421520D01*
X228993Y421576D01*
X228970Y421636D01*
X228947Y421701D01*
X228915Y421761D01*
X228873Y421825D01*
X228832Y421886D01*
X228781Y421946D01*
X228721Y422001D01*
X228716Y422006D01*
X228707Y422015D01*
X228684Y422029D01*
X228661Y422047D01*
X228624Y422071D01*
X228577Y422094D01*
X228527Y422121D01*
X228466Y422149D01*
X228402Y422177D01*
X228323Y422205D01*
X228235Y422228D01*
X228143Y422251D01*
X228041Y422269D01*
X227930Y422283D01*
X227810Y422292D01*
X227681Y422297D01*
D02*
G37*
G36*
X221056Y422251D02*
X219655D01*
Y420314D01*
X221126D01*
X221172Y420318D01*
X221283D01*
X221347Y420323D01*
X221477Y420332D01*
X221611Y420346D01*
X221676Y420355D01*
X221736Y420365D01*
X221791Y420374D01*
X221842Y420388D01*
X221847D01*
X221856Y420392D01*
X221874Y420397D01*
X221898Y420406D01*
X221921Y420415D01*
X221953Y420429D01*
X222022Y420462D01*
X222101Y420503D01*
X222184Y420559D01*
X222258Y420624D01*
X222327Y420702D01*
Y420707D01*
X222337Y420711D01*
X222341Y420725D01*
X222355Y420744D01*
X222364Y420767D01*
X222378Y420790D01*
X222411Y420859D01*
X222443Y420938D01*
X222466Y421035D01*
X222485Y421146D01*
X222494Y421266D01*
Y421271D01*
Y421280D01*
Y421298D01*
Y421322D01*
X222489Y421349D01*
X222485Y421382D01*
X222475Y421456D01*
X222457Y421544D01*
X222429Y421636D01*
X222388Y421733D01*
X222337Y421825D01*
Y421830D01*
X222327Y421835D01*
X222309Y421867D01*
X222272Y421909D01*
X222226Y421959D01*
X222166Y422015D01*
X222087Y422071D01*
X222004Y422117D01*
X221902Y422158D01*
X221898D01*
X221888Y422163D01*
X221870Y422168D01*
X221847Y422172D01*
X221814Y422181D01*
X221777Y422186D01*
X221731Y422195D01*
X221676Y422205D01*
X221611Y422214D01*
X221542Y422223D01*
X221463Y422228D01*
X221375Y422237D01*
X221278Y422242D01*
X221172Y422246D01*
X221056Y422251D01*
D02*
G37*
G36*
X221241Y419560D02*
X219655D01*
Y417360D01*
X221384D01*
X221472Y417365D01*
X221569D01*
X221662Y417374D01*
X221750Y417378D01*
X221791Y417383D01*
X221824Y417388D01*
X221828D01*
X221837Y417392D01*
X221851D01*
X221874Y417397D01*
X221925Y417411D01*
X221995Y417429D01*
X222069Y417452D01*
X222152Y417480D01*
X222230Y417517D01*
X222309Y417559D01*
X222314D01*
X222318Y417563D01*
X222341Y417582D01*
X222378Y417609D01*
X222425Y417651D01*
X222475Y417702D01*
X222531Y417762D01*
X222582Y417831D01*
X222633Y417915D01*
Y417919D01*
X222637Y417924D01*
X222646Y417938D01*
X222651Y417956D01*
X222674Y418007D01*
X222697Y418072D01*
X222720Y418150D01*
X222743Y418243D01*
X222757Y418349D01*
X222762Y418460D01*
Y418465D01*
Y418474D01*
Y418497D01*
X222757Y418520D01*
Y418553D01*
X222753Y418585D01*
X222739Y418673D01*
X222716Y418770D01*
X222683Y418871D01*
X222637Y418978D01*
X222577Y419080D01*
Y419084D01*
X222568Y419093D01*
X222559Y419103D01*
X222545Y419121D01*
X222503Y419167D01*
X222443Y419223D01*
X222369Y419288D01*
X222281Y419348D01*
X222180Y419403D01*
X222064Y419449D01*
X222059D01*
X222050Y419454D01*
X222032Y419459D01*
X222004Y419468D01*
X221971Y419477D01*
X221930Y419486D01*
X221884Y419496D01*
X221828Y419505D01*
X221763Y419514D01*
X221694Y419523D01*
X221616Y419533D01*
X221532Y419542D01*
X221444Y419551D01*
X221347Y419556D01*
X221241Y419560D01*
D02*
G37*
G36*
X204655Y422334D02*
Y422325D01*
X204650Y422306D01*
X204641Y422274D01*
X204631Y422228D01*
X204618Y422172D01*
X204604Y422108D01*
X204585Y422034D01*
X204567Y421950D01*
X204539Y421858D01*
X204516Y421761D01*
X204488Y421664D01*
X204456Y421557D01*
X204386Y421335D01*
X204308Y421109D01*
X203605Y419232D01*
X205778D01*
X205107Y421003D01*
Y421007D01*
X205103Y421012D01*
X205094Y421040D01*
X205080Y421081D01*
X205057Y421137D01*
X205033Y421206D01*
X205001Y421285D01*
X204974Y421377D01*
X204937Y421474D01*
X204900Y421576D01*
X204862Y421682D01*
X204788Y421904D01*
X204715Y422126D01*
X204682Y422232D01*
X204655Y422334D01*
D02*
G37*
G36*
X300531Y422376D02*
X300508D01*
X300480Y422371D01*
X300443Y422366D01*
X300397Y422362D01*
X300342Y422352D01*
X300286Y422339D01*
X300222Y422320D01*
X300152Y422292D01*
X300083Y422265D01*
X300009Y422228D01*
X299940Y422182D01*
X299866Y422131D01*
X299796Y422071D01*
X299732Y421996D01*
X299667Y421918D01*
X299662Y421913D01*
X299648Y421890D01*
X299630Y421853D01*
X299602Y421802D01*
X299574Y421733D01*
X299542Y421650D01*
X299505Y421548D01*
X299468Y421428D01*
X299445Y421363D01*
X299426Y421289D01*
X299408Y421215D01*
X299394Y421132D01*
X299376Y421049D01*
X299357Y420956D01*
X299343Y420859D01*
X299329Y420758D01*
X299316Y420651D01*
X299302Y420540D01*
X299292Y420425D01*
X299283Y420305D01*
X299274Y420175D01*
X299269Y420041D01*
X299265Y419902D01*
Y419759D01*
Y419754D01*
Y419741D01*
Y419722D01*
Y419690D01*
Y419653D01*
X299269Y419611D01*
Y419560D01*
Y419505D01*
X299274Y419445D01*
Y419380D01*
X299283Y419232D01*
X299297Y419075D01*
X299311Y418909D01*
X299329Y418733D01*
X299352Y418557D01*
X299385Y418382D01*
X299417Y418210D01*
X299459Y418049D01*
X299510Y417905D01*
X299538Y417836D01*
X299565Y417776D01*
X299597Y417716D01*
X299630Y417665D01*
X299634Y417660D01*
X299648Y417642D01*
X299667Y417619D01*
X299695Y417586D01*
X299732Y417545D01*
X299778Y417503D01*
X299824Y417452D01*
X299884Y417406D01*
X299944Y417360D01*
X300014Y417309D01*
X300088Y417267D01*
X300171Y417230D01*
X300254Y417193D01*
X300346Y417170D01*
X300443Y417152D01*
X300541Y417147D01*
X300564D01*
X300591Y417152D01*
X300628Y417156D01*
X300675Y417161D01*
X300730Y417175D01*
X300790Y417189D01*
X300855Y417212D01*
X300924Y417240D01*
X300998Y417272D01*
X301072Y417314D01*
X301151Y417365D01*
X301225Y417425D01*
X301303Y417494D01*
X301377Y417573D01*
X301447Y417665D01*
X301451Y417670D01*
X301460Y417693D01*
X301479Y417725D01*
X301507Y417771D01*
X301535Y417836D01*
X301562Y417915D01*
X301599Y418007D01*
X301632Y418123D01*
X301650Y418187D01*
X301664Y418257D01*
X301682Y418326D01*
X301701Y418405D01*
X301715Y418488D01*
X301729Y418576D01*
X301747Y418668D01*
X301761Y418770D01*
X301770Y418871D01*
X301784Y418983D01*
X301793Y419098D01*
X301803Y419218D01*
X301807Y419343D01*
X301812Y419477D01*
X301817Y419616D01*
Y419759D01*
Y419764D01*
Y419778D01*
Y419801D01*
Y419828D01*
Y419865D01*
Y419907D01*
X301812Y419958D01*
Y420013D01*
X301807Y420074D01*
Y420143D01*
X301798Y420286D01*
X301784Y420443D01*
X301770Y420614D01*
X301752Y420785D01*
X301729Y420961D01*
X301696Y421137D01*
X301659Y421308D01*
X301618Y421469D01*
X301567Y421613D01*
X301539Y421682D01*
X301511Y421742D01*
X301479Y421802D01*
X301447Y421853D01*
X301442Y421858D01*
X301428Y421876D01*
X301410Y421899D01*
X301382Y421936D01*
X301345Y421973D01*
X301303Y422020D01*
X301252Y422066D01*
X301197Y422117D01*
X301132Y422163D01*
X301063Y422209D01*
X300989Y422255D01*
X300906Y422292D01*
X300818Y422329D01*
X300730Y422352D01*
X300633Y422371D01*
X300531Y422376D01*
D02*
G37*
G36*
X251936Y422385D02*
X251895D01*
X251849Y422380D01*
X251789Y422376D01*
X251710Y422366D01*
X251618Y422352D01*
X251516Y422334D01*
X251409Y422306D01*
X251289Y422274D01*
X251164Y422232D01*
X251040Y422181D01*
X250906Y422126D01*
X250776Y422052D01*
X250647Y421969D01*
X250517Y421876D01*
X250392Y421765D01*
X250383Y421756D01*
X250365Y421738D01*
X250332Y421701D01*
X250291Y421645D01*
X250245Y421581D01*
X250189Y421493D01*
X250129Y421396D01*
X250069Y421280D01*
X250009Y421146D01*
X249949Y420993D01*
X249898Y420822D01*
X249847Y420637D01*
X249805Y420434D01*
X249787Y420323D01*
X249773Y420212D01*
X249759Y420092D01*
X249755Y419967D01*
X249745Y419842D01*
Y419708D01*
Y419704D01*
Y419694D01*
Y419680D01*
Y419657D01*
X249750Y419630D01*
Y419597D01*
Y419560D01*
X249755Y419519D01*
X249764Y419422D01*
X249778Y419306D01*
X249796Y419181D01*
X249824Y419047D01*
X249856Y418904D01*
X249898Y418756D01*
X249949Y418603D01*
X250009Y418451D01*
X250078Y418303D01*
X250161Y418155D01*
X250254Y418016D01*
X250365Y417887D01*
X250374Y417878D01*
X250392Y417859D01*
X250429Y417827D01*
X250476Y417785D01*
X250540Y417734D01*
X250610Y417679D01*
X250698Y417619D01*
X250795Y417559D01*
X250901Y417494D01*
X251021Y417434D01*
X251151Y417378D01*
X251289Y417327D01*
X251433Y417286D01*
X251590Y417253D01*
X251756Y417235D01*
X251927Y417226D01*
X251969D01*
X251992Y417230D01*
X252020D01*
X252084Y417235D01*
X252168Y417244D01*
X252260Y417263D01*
X252366Y417281D01*
X252482Y417309D01*
X252602Y417346D01*
X252732Y417388D01*
X252861Y417443D01*
X252990Y417508D01*
X253125Y417586D01*
X253254Y417674D01*
X253379Y417780D01*
X253499Y417896D01*
X253508Y417905D01*
X253527Y417929D01*
X253554Y417965D01*
X253596Y418021D01*
X253642Y418090D01*
X253693Y418173D01*
X253753Y418270D01*
X253809Y418386D01*
X253869Y418516D01*
X253924Y418654D01*
X253975Y418811D01*
X254021Y418982D01*
X254063Y419167D01*
X254091Y419366D01*
X254114Y419574D01*
X254118Y419801D01*
Y419810D01*
Y419833D01*
Y419875D01*
X254114Y419930D01*
X254109Y420000D01*
X254105Y420078D01*
X254095Y420166D01*
X254086Y420263D01*
X254072Y420365D01*
X254054Y420476D01*
X254031Y420587D01*
X254007Y420702D01*
X253975Y420818D01*
X253938Y420933D01*
X253897Y421049D01*
X253850Y421160D01*
X253846Y421164D01*
X253836Y421188D01*
X253823Y421215D01*
X253799Y421257D01*
X253772Y421303D01*
X253739Y421363D01*
X253702Y421423D01*
X253656Y421493D01*
X253605Y421562D01*
X253545Y421636D01*
X253485Y421710D01*
X253416Y421784D01*
X253337Y421858D01*
X253259Y421932D01*
X253171Y421996D01*
X253078Y422061D01*
X253074Y422066D01*
X253055Y422075D01*
X253027Y422089D01*
X252990Y422112D01*
X252940Y422135D01*
X252884Y422163D01*
X252819Y422195D01*
X252745Y422223D01*
X252662Y422255D01*
X252574Y422283D01*
X252482Y422311D01*
X252380Y422334D01*
X252279Y422357D01*
X252168Y422371D01*
X252052Y422380D01*
X251936Y422385D01*
D02*
G37*
G36*
X279066Y433480D02*
X279008D01*
X278962Y433473D01*
X278911Y433467D01*
X278846Y433454D01*
X278781Y433441D01*
X278703Y433421D01*
X278626Y433395D01*
X278541Y433363D01*
X278457Y433324D01*
X278367Y433272D01*
X278282Y433220D01*
X278198Y433156D01*
X278114Y433078D01*
X278036Y432994D01*
X278030Y432987D01*
X278017Y432974D01*
X277997Y432942D01*
X277971Y432903D01*
X277939Y432851D01*
X277907Y432793D01*
X277868Y432715D01*
X277835Y432631D01*
X277796Y432534D01*
X277758Y432430D01*
X277725Y432307D01*
X277693Y432178D01*
X277667Y432035D01*
X277648Y431880D01*
X277635Y431711D01*
X277628Y431536D01*
Y431524D01*
Y431491D01*
Y431439D01*
X277635Y431375D01*
X277641Y431290D01*
X277648Y431193D01*
X277654Y431090D01*
X277667Y430973D01*
X277706Y430733D01*
X277764Y430487D01*
X277796Y430364D01*
X277842Y430248D01*
X277887Y430144D01*
X277945Y430047D01*
X277952Y430040D01*
X277965Y430021D01*
X277991Y429982D01*
X278030Y429943D01*
X278075Y429891D01*
X278127Y429833D01*
X278192Y429768D01*
X278263Y429710D01*
X278341Y429645D01*
X278431Y429580D01*
X278528Y429522D01*
X278632Y429470D01*
X278749Y429431D01*
X278865Y429399D01*
X278995Y429373D01*
X279131Y429367D01*
X279157D01*
X279189Y429373D01*
X279228D01*
X279273Y429380D01*
X279332Y429393D01*
X279396Y429406D01*
X279468Y429425D01*
X279539Y429451D01*
X279617Y429483D01*
X279701Y429522D01*
X279778Y429574D01*
X279863Y429626D01*
X279947Y429691D01*
X280025Y429768D01*
X280102Y429852D01*
X280109Y429859D01*
X280122Y429878D01*
X280141Y429904D01*
X280167Y429943D01*
X280193Y429995D01*
X280232Y430060D01*
X280264Y430137D01*
X280303Y430228D01*
X280342Y430325D01*
X280374Y430442D01*
X280413Y430565D01*
X280439Y430701D01*
X280465Y430850D01*
X280485Y431018D01*
X280497Y431193D01*
X280504Y431381D01*
Y431387D01*
Y431394D01*
Y431433D01*
Y431485D01*
X280497Y431562D01*
X280491Y431653D01*
X280485Y431757D01*
X280471Y431873D01*
X280452Y432003D01*
X280407Y432262D01*
X280374Y432398D01*
X280329Y432528D01*
X280284Y432657D01*
X280232Y432780D01*
X280167Y432890D01*
X280096Y432987D01*
X280089Y432994D01*
X280076Y433007D01*
X280057Y433033D01*
X280025Y433065D01*
X279986Y433104D01*
X279934Y433143D01*
X279882Y433188D01*
X279817Y433233D01*
X279746Y433279D01*
X279668Y433324D01*
X279584Y433363D01*
X279494Y433402D01*
X279396Y433434D01*
X279293Y433460D01*
X279183Y433473D01*
X279066Y433480D01*
D02*
G37*
G36*
X232652Y433479D02*
X232600D01*
X232561Y433473D01*
X232509Y433467D01*
X232451Y433460D01*
X232393Y433447D01*
X232321Y433428D01*
X232179Y433376D01*
X232101Y433344D01*
X232024Y433305D01*
X231939Y433259D01*
X231868Y433201D01*
X231790Y433136D01*
X231719Y433065D01*
X231713Y433059D01*
X231706Y433046D01*
X231687Y433020D01*
X231661Y432987D01*
X231635Y432948D01*
X231603Y432897D01*
X231570Y432838D01*
X231538Y432774D01*
X231499Y432696D01*
X231467Y432612D01*
X231441Y432521D01*
X231408Y432424D01*
X231389Y432314D01*
X231369Y432204D01*
X231356Y432080D01*
Y431951D01*
X233934D01*
Y431958D01*
Y431983D01*
X233928Y432022D01*
Y432074D01*
X233921Y432139D01*
X233908Y432210D01*
X233895Y432288D01*
X233876Y432372D01*
X233831Y432553D01*
X233759Y432741D01*
X233720Y432838D01*
X233669Y432923D01*
X233610Y433007D01*
X233546Y433084D01*
X233539Y433091D01*
X233526Y433104D01*
X233507Y433123D01*
X233481Y433149D01*
X233442Y433175D01*
X233403Y433208D01*
X233351Y433246D01*
X233293Y433285D01*
X233164Y433357D01*
X233015Y433421D01*
X232930Y433441D01*
X232840Y433460D01*
X232749Y433473D01*
X232652Y433479D01*
D02*
G37*
G36*
X204853Y435721D02*
X204801D01*
X204742Y435714D01*
X204665Y435708D01*
X204574Y435695D01*
X204464Y435682D01*
X204341Y435656D01*
X204205Y435623D01*
X204069Y435585D01*
X203920Y435533D01*
X203771Y435468D01*
X203615Y435397D01*
X203466Y435306D01*
X203318Y435202D01*
X203181Y435086D01*
X203046Y434950D01*
X203039Y434943D01*
X203020Y434911D01*
X202981Y434872D01*
X202942Y434807D01*
X202890Y434723D01*
X202832Y434626D01*
X202767Y434509D01*
X202709Y434373D01*
X202644Y434218D01*
X202579Y434049D01*
X202521Y433862D01*
X202469Y433654D01*
X202430Y433428D01*
X202398Y433182D01*
X202372Y432916D01*
X202365Y432637D01*
Y432631D01*
Y432618D01*
Y432599D01*
Y432573D01*
Y432534D01*
X202372Y432495D01*
X202378Y432385D01*
X202385Y432262D01*
X202404Y432113D01*
X202424Y431951D01*
X202456Y431776D01*
X202488Y431595D01*
X202534Y431407D01*
X202592Y431213D01*
X202663Y431025D01*
X202741Y430837D01*
X202832Y430656D01*
X202942Y430487D01*
X203065Y430332D01*
X203071Y430325D01*
X203097Y430299D01*
X203136Y430261D01*
X203194Y430209D01*
X203259Y430150D01*
X203343Y430086D01*
X203441Y430014D01*
X203551Y429943D01*
X203674Y429865D01*
X203810Y429794D01*
X203959Y429729D01*
X204114Y429671D01*
X204289Y429619D01*
X204464Y429580D01*
X204652Y429554D01*
X204853Y429548D01*
X204898D01*
X204956Y429554D01*
X205034Y429561D01*
X205125Y429574D01*
X205235Y429587D01*
X205351Y429613D01*
X205481Y429645D01*
X205623Y429684D01*
X205766Y429736D01*
X205915Y429801D01*
X206064Y429878D01*
X206213Y429963D01*
X206355Y430066D01*
X206498Y430189D01*
X206634Y430325D01*
X206640Y430332D01*
X206666Y430364D01*
X206698Y430410D01*
X206744Y430474D01*
X206796Y430552D01*
X206854Y430656D01*
X206919Y430772D01*
X206984Y430908D01*
X207048Y431064D01*
X207113Y431239D01*
X207171Y431433D01*
X207223Y431640D01*
X207269Y431867D01*
X207301Y432113D01*
X207327Y432379D01*
X207333Y432663D01*
Y432670D01*
Y432683D01*
Y432702D01*
Y432728D01*
Y432767D01*
X207327Y432812D01*
Y432858D01*
X207320Y432916D01*
X207314Y433046D01*
X207294Y433195D01*
X207275Y433357D01*
X207249Y433531D01*
X207210Y433713D01*
X207165Y433901D01*
X207113Y434095D01*
X207048Y434283D01*
X206971Y434470D01*
X206880Y434645D01*
X206776Y434814D01*
X206653Y434963D01*
X206647Y434969D01*
X206621Y434995D01*
X206582Y435034D01*
X206530Y435079D01*
X206459Y435138D01*
X206381Y435202D01*
X206284Y435274D01*
X206174Y435345D01*
X206051Y435410D01*
X205915Y435481D01*
X205766Y435546D01*
X205604Y435604D01*
X205436Y435649D01*
X205254Y435688D01*
X205060Y435714D01*
X204853Y435721D01*
D02*
G37*
%LPD*%
D10*
X306400Y251400D02*
G03*
X306400Y251400I-500J0D01*
G01*
X270300Y141150D02*
G03*
X270300Y141150I-500J0D01*
G01*
X270550Y125400D02*
G03*
X270550Y125400I-500J0D01*
G01*
X270300Y157400D02*
G03*
X270300Y157400I-500J0D01*
G01*
X306400Y169400D02*
G03*
X306400Y169400I-500J0D01*
G01*
Y212400D02*
G03*
X306400Y212400I-500J0D01*
G01*
X200425Y239720D02*
G03*
X200425Y239720I-500J0D01*
G01*
X185250Y261250D02*
G03*
X185250Y261250I-500J0D01*
G01*
X289600Y331350D02*
G03*
X289600Y331350I-500J0D01*
G01*
X349350Y316350D02*
G03*
X349350Y316350I-500J0D01*
G01*
X374350Y316350D02*
G03*
X374350Y316350I-500J0D01*
G01*
X114500Y299500D02*
G03*
X114500Y299500I-500J0D01*
G01*
X131500Y300000D02*
G03*
X131500Y300000I-500J0D01*
G01*
X131421Y337521D02*
G03*
X131421Y337521I-500J0D01*
G01*
X131494Y352482D02*
G03*
X131494Y352482I-500J0D01*
G01*
X114500Y352000D02*
G03*
X114500Y352000I-500J0D01*
G01*
X168174Y456674D02*
X171000Y459500D01*
X328707D01*
X331674Y456533D01*
Y396674D02*
Y456533D01*
X329000Y394000D02*
X331674Y396674D01*
X172000Y394000D02*
X329000D01*
X168174Y397826D02*
X172000Y394000D01*
X168174Y397826D02*
Y456674D01*
X311089Y159339D02*
X313000Y161249D01*
Y166900D01*
X326712Y68884D02*
X327798Y69970D01*
X326712Y64931D02*
Y68884D01*
X302432Y69280D02*
X303518Y70367D01*
X302432Y65328D02*
Y69280D01*
X276467Y69181D02*
X277553Y70267D01*
X276467Y59855D02*
Y69181D01*
X250899Y69280D02*
X251985Y70367D01*
X250899Y59855D02*
Y69280D01*
X225231Y69082D02*
X226318Y70168D01*
X225231Y62210D02*
Y69082D01*
X341421Y36353D02*
X345115Y40048D01*
X341460Y94056D02*
X345115Y90400D01*
Y40048D02*
Y90400D01*
X316150Y37443D02*
X319844Y41138D01*
X316189Y95146D02*
X319844Y91491D01*
Y41138D02*
Y91491D01*
X293780Y45147D02*
Y91292D01*
X290125Y94948D02*
X293780Y91292D01*
X290086Y41453D02*
X293780Y45147D01*
X269004Y41435D02*
Y91788D01*
X265349Y95443D02*
X269004Y91788D01*
X265310Y37741D02*
X269004Y41435D01*
X243337Y41633D02*
Y91986D01*
X239682Y95641D02*
X243337Y91986D01*
X239643Y37939D02*
X243337Y41633D01*
X198870Y65328D02*
Y69280D01*
X199957Y70367D01*
X214513Y38350D02*
X218208Y42044D01*
X214552Y96052D02*
X218208Y92397D01*
Y42044D02*
Y92397D01*
X172873Y67873D02*
X175495Y65250D01*
X172873Y67873D02*
Y67873D01*
X172066Y68679D02*
X172873Y67873D01*
X172066Y68679D02*
Y90954D01*
X176500Y95388D01*
Y95500D01*
X189175Y38350D02*
X192828Y42003D01*
Y94172D01*
X191000Y96000D02*
X192828Y94172D01*
X148237Y56362D02*
X148315Y56284D01*
X148237Y56362D02*
Y67414D01*
X149323Y68500D01*
X165437Y63600D02*
X167383Y65546D01*
Y93331D01*
X166060Y94654D02*
X167383Y93331D01*
X322241Y4949D02*
Y117260D01*
X297329Y4949D02*
Y117260D01*
X271502Y4949D02*
Y117260D01*
X246000Y4800D02*
Y117260D01*
X220424Y4800D02*
X220451Y117260D01*
X195000Y5031D02*
Y117260D01*
X169949Y4800D02*
X170023Y117260D01*
X143112Y4800D02*
Y117263D01*
Y4800D02*
X347800D01*
Y117263D01*
X143112D02*
X347800D01*
X176000Y302500D02*
X180000D01*
X187000Y295500D01*
Y286000D02*
Y295500D01*
X179500Y272000D02*
X191000D01*
X178295Y273205D02*
X179500Y272000D01*
X178295Y273205D02*
Y276870D01*
X31500Y190500D02*
X111000D01*
Y402500D01*
X31500Y190500D02*
Y402500D01*
X111000D01*
X192300Y279700D02*
Y339700D01*
X252300Y279700D02*
Y339700D01*
X192300D02*
X252300D01*
X192300Y279700D02*
X252300D01*
D11*
X266750Y255375D02*
G03*
X266750Y255375I-1250J0D01*
G01*
D12*
X273500Y251500D02*
X274500D01*
X273500Y234500D02*
X274500D01*
X273500D02*
Y251500D01*
X274500Y234500D02*
Y251500D01*
D13*
X337939Y12995D02*
X336273Y11328D01*
Y7996D01*
X337939Y6330D01*
X344604D01*
X346270Y7996D01*
Y11328D01*
X344604Y12995D01*
X341272D01*
Y9662D01*
X346270Y16327D02*
X336273D01*
X346270Y22991D01*
X336273D01*
Y26324D02*
X346270D01*
Y31322D01*
X344604Y32988D01*
X337939D01*
X336273Y31322D01*
Y26324D01*
X107671Y184998D02*
X114335D01*
X111003D01*
Y175002D01*
X117668D02*
Y184998D01*
X122666D01*
X124332Y183332D01*
Y180000D01*
X122666Y178334D01*
X117668D01*
X127664Y176668D02*
X129331Y175002D01*
X132663D01*
X134329Y176668D01*
Y183332D01*
X132663Y184998D01*
X129331D01*
X127664Y183332D01*
Y181666D01*
X129331Y180000D01*
X134329D01*
X311692Y384879D02*
X318356D01*
X315024D01*
Y374882D01*
X321689D02*
Y384879D01*
X326687D01*
X328353Y383213D01*
Y379880D01*
X326687Y378214D01*
X321689D01*
X331686Y383213D02*
X333352Y384879D01*
X336684D01*
X338350Y383213D01*
Y381547D01*
X336684Y379880D01*
X338350Y378214D01*
Y376548D01*
X336684Y374882D01*
X333352D01*
X331686Y376548D01*
Y378214D01*
X333352Y379880D01*
X331686Y381547D01*
Y383213D01*
X333352Y379880D02*
X336684D01*
X158496Y12995D02*
X156830Y11328D01*
Y7996D01*
X158496Y6330D01*
X165161D01*
X166827Y7996D01*
Y11328D01*
X165161Y12995D01*
X161829D01*
Y9662D01*
X166827Y16327D02*
X156830D01*
Y21325D01*
X158496Y22991D01*
X161829D01*
X163495Y21325D01*
Y16327D01*
X156830Y26323D02*
Y29656D01*
Y27990D01*
X166827D01*
Y26323D01*
Y29656D01*
X156830Y39653D02*
Y36320D01*
X158496Y34654D01*
X165161D01*
X166827Y36320D01*
Y39653D01*
X165161Y41319D01*
X158496D01*
X156830Y39653D01*
X168493Y44651D02*
Y51315D01*
X156830Y59646D02*
Y56314D01*
X158496Y54648D01*
X165161D01*
X166827Y56314D01*
Y59646D01*
X165161Y61312D01*
X158496D01*
X156830Y59646D01*
X144691Y6330D02*
X154688Y12995D01*
X144691D02*
X154688Y6330D01*
X146358Y22991D02*
X144691Y21325D01*
Y17993D01*
X146358Y16327D01*
X148024D01*
X149690Y17993D01*
Y21325D01*
X151356Y22991D01*
X153022D01*
X154688Y21325D01*
Y17993D01*
X153022Y16327D01*
X144691Y26323D02*
X154688D01*
X149690D01*
Y32988D01*
X144691D01*
X154688D01*
X144691Y36320D02*
X154688D01*
Y41319D01*
X153022Y42985D01*
X146358D01*
X144691Y41319D01*
Y36320D01*
X154688Y46317D02*
X144691D01*
X154688Y52982D01*
X144691D01*
X171720Y6330D02*
X181716Y12995D01*
X171720D02*
X181716Y6330D01*
X173386Y22991D02*
X171720Y21325D01*
Y17993D01*
X173386Y16327D01*
X175052D01*
X176718Y17993D01*
Y21325D01*
X178384Y22991D01*
X180050D01*
X181716Y21325D01*
Y17993D01*
X180050Y16327D01*
X171720Y26323D02*
X181716D01*
X176718D01*
Y32988D01*
X171720D01*
X181716D01*
X171720Y36320D02*
X181716D01*
Y41319D01*
X180050Y42985D01*
X173386D01*
X171720Y41319D01*
Y36320D01*
X181716Y46317D02*
X171720D01*
X181716Y52982D01*
X171720D01*
X181716Y62978D02*
Y56314D01*
X175052Y62978D01*
X173386D01*
X171720Y61312D01*
Y57980D01*
X173386Y56314D01*
X323934Y12995D02*
Y6330D01*
X328932D01*
Y9662D01*
Y6330D01*
X333931D01*
X325600Y22991D02*
X323934Y21325D01*
Y17993D01*
X325600Y16327D01*
X327266D01*
X328932Y17993D01*
Y21325D01*
X330598Y22991D01*
X332265D01*
X333931Y21325D01*
Y17993D01*
X332265Y16327D01*
X323934Y26323D02*
Y29656D01*
Y27990D01*
X333931D01*
Y26323D01*
Y29656D01*
Y34654D02*
X323934D01*
X333931Y41319D01*
X323934D01*
X335597Y44651D02*
Y51315D01*
X323934Y59646D02*
Y56314D01*
X325600Y54648D01*
X332265D01*
X333931Y56314D01*
Y59646D01*
X332265Y61312D01*
X325600D01*
X323934Y59646D01*
X312381Y13143D02*
X310714Y11477D01*
Y8145D01*
X312381Y6478D01*
X319045D01*
X320711Y8145D01*
Y11477D01*
X319045Y13143D01*
X315713D01*
Y9811D01*
X320711Y16475D02*
X310714D01*
X320711Y23140D01*
X310714D01*
Y26472D02*
X320711D01*
Y31470D01*
X319045Y33137D01*
X312381D01*
X310714Y31470D01*
Y26472D01*
X300412Y12995D02*
X298746Y11328D01*
Y7996D01*
X300412Y6330D01*
X302078D01*
X303745Y7996D01*
Y11328D01*
X305411Y12995D01*
X307077D01*
X308743Y11328D01*
Y7996D01*
X307077Y6330D01*
X298746Y16327D02*
Y22991D01*
Y19659D01*
X308743D01*
Y26323D02*
X298746D01*
Y31322D01*
X300412Y32988D01*
X303745D01*
X305411Y31322D01*
Y26323D01*
Y29656D02*
X308743Y32988D01*
X298746Y36320D02*
X308743D01*
Y41319D01*
X307077Y42985D01*
X305411D01*
X303745Y41319D01*
Y36320D01*
Y41319D01*
X302078Y42985D01*
X300412D01*
X298746Y41319D01*
Y36320D01*
X310409Y46317D02*
Y52982D01*
X298746Y61312D02*
Y57980D01*
X300412Y56314D01*
X307077D01*
X308743Y57980D01*
Y61312D01*
X307077Y62978D01*
X300412D01*
X298746Y61312D01*
X295799Y6478D02*
X289134D01*
Y11477D01*
X290800Y13143D01*
X295799D01*
X285802Y16475D02*
Y19807D01*
Y18141D01*
X295799D01*
Y16475D01*
Y19807D01*
Y24806D02*
X285802D01*
X295799Y31470D01*
X285802D01*
Y34803D02*
Y41467D01*
Y38135D01*
X295799D01*
X261641Y13143D02*
X259975Y11477D01*
Y8145D01*
X261641Y6478D01*
X268306D01*
X269972Y8145D01*
Y11477D01*
X268306Y13143D01*
X264974D01*
Y9811D01*
X269972Y16475D02*
X259975D01*
X269972Y23140D01*
X259975D01*
Y26472D02*
X269972D01*
Y31470D01*
X268306Y33136D01*
X261641D01*
X259975Y31470D01*
Y26472D01*
X236139Y12995D02*
X234473Y11328D01*
Y7996D01*
X236139Y6330D01*
X242804D01*
X244470Y7996D01*
Y11328D01*
X242804Y12995D01*
X239472D01*
Y9662D01*
X244470Y16327D02*
X234473D01*
X244470Y22991D01*
X234473D01*
Y26323D02*
X244470D01*
Y31322D01*
X242804Y32988D01*
X236139D01*
X234473Y31322D01*
Y26323D01*
X210564Y12995D02*
X208898Y11328D01*
Y7996D01*
X210564Y6330D01*
X217228D01*
X218894Y7996D01*
Y11328D01*
X217228Y12995D01*
X213896D01*
Y9662D01*
X218894Y16327D02*
X208898D01*
X218894Y22991D01*
X208898D01*
Y26323D02*
X218894D01*
Y31322D01*
X217228Y32988D01*
X210564D01*
X208898Y31322D01*
Y26323D01*
X207187Y6330D02*
X197190D01*
Y11328D01*
X198856Y12995D01*
X202188D01*
X203854Y11328D01*
Y6330D01*
X197190Y16327D02*
X207187D01*
Y21325D01*
X205520Y22991D01*
X198856D01*
X197190Y21325D01*
Y16327D01*
X207187Y26323D02*
X197190D01*
X207187Y32988D01*
X197190D01*
Y36320D02*
X207187D01*
Y41319D01*
X205520Y42985D01*
X203854D01*
X202188Y41319D01*
Y36320D01*
Y41319D01*
X200522Y42985D01*
X198856D01*
X197190Y41319D01*
Y36320D01*
X208853Y46317D02*
Y52982D01*
X197190Y61312D02*
Y57980D01*
X198856Y56314D01*
X205520D01*
X207187Y57980D01*
Y61312D01*
X205520Y62978D01*
X198856D01*
X197190Y61312D01*
X185139Y13226D02*
X183473Y11559D01*
Y8227D01*
X185139Y6561D01*
X191804D01*
X193470Y8227D01*
Y11559D01*
X191804Y13226D01*
X188472D01*
Y9893D01*
X193470Y16558D02*
X183473D01*
X193470Y23222D01*
X183473D01*
Y26555D02*
X193470D01*
Y31553D01*
X191804Y33219D01*
X185139D01*
X183473Y31553D01*
Y26555D01*
X275228Y12995D02*
X273562Y11328D01*
Y7996D01*
X275228Y6330D01*
X281892D01*
X283558Y7996D01*
Y11328D01*
X281892Y12995D01*
X278560D01*
Y9662D01*
X283558Y16327D02*
X273562D01*
Y21325D01*
X275228Y22991D01*
X278560D01*
X280226Y21325D01*
Y16327D01*
X273562Y26323D02*
Y29656D01*
Y27990D01*
X283558D01*
Y26323D01*
Y29656D01*
X273562Y39653D02*
Y36320D01*
X275228Y34654D01*
X281892D01*
X283558Y36320D01*
Y39653D01*
X281892Y41319D01*
X275228D01*
X273562Y39653D01*
X285225Y44651D02*
Y51315D01*
X273562Y54648D02*
Y57980D01*
Y56314D01*
X283558D01*
Y54648D01*
Y57980D01*
X247773Y12995D02*
Y6330D01*
X252771D01*
Y9662D01*
Y6330D01*
X257769D01*
X249439Y22991D02*
X247773Y21325D01*
Y17993D01*
X249439Y16327D01*
X251105D01*
X252771Y17993D01*
Y21325D01*
X254437Y22991D01*
X256103D01*
X257769Y21325D01*
Y17993D01*
X256103Y16327D01*
X247773Y26323D02*
Y29656D01*
Y27990D01*
X257769D01*
Y26323D01*
Y29656D01*
Y34654D02*
X247773D01*
X257769Y41319D01*
X247773D01*
X259436Y44651D02*
Y51315D01*
X247773Y54648D02*
Y57980D01*
Y56314D01*
X257769D01*
Y54648D01*
Y57980D01*
X223844Y12995D02*
X222178Y11328D01*
Y7996D01*
X223844Y6330D01*
X225510D01*
X227176Y7996D01*
Y11328D01*
X228842Y12995D01*
X230508D01*
X232174Y11328D01*
Y7996D01*
X230508Y6330D01*
X222178Y16327D02*
Y22991D01*
Y19659D01*
X232174D01*
Y26323D02*
X222178D01*
Y31322D01*
X223844Y32988D01*
X227176D01*
X228842Y31322D01*
Y26323D01*
Y29656D02*
X232174Y32988D01*
X222178Y36320D02*
X232174D01*
Y41319D01*
X230508Y42985D01*
X228842D01*
X227176Y41319D01*
Y36320D01*
Y41319D01*
X225510Y42985D01*
X223844D01*
X222178Y41319D01*
Y36320D01*
X233840Y46317D02*
Y52982D01*
X222178Y56314D02*
Y59646D01*
Y57980D01*
X232174D01*
Y56314D01*
Y59646D01*
X291002Y255169D02*
X299332D01*
X300998Y256835D01*
Y260168D01*
X299332Y261834D01*
X291002D01*
Y271831D02*
Y265166D01*
X296000D01*
X294334Y268498D01*
Y270165D01*
X296000Y271831D01*
X299332D01*
X300998Y270165D01*
Y266832D01*
X299332Y265166D01*
X200502Y193669D02*
X208832D01*
X210498Y195336D01*
Y198668D01*
X208832Y200334D01*
X200502D01*
X210498Y208664D02*
X200502D01*
X205500Y203666D01*
Y210331D01*
X216502Y193169D02*
X224832D01*
X226498Y194835D01*
Y198168D01*
X224832Y199834D01*
X216502D01*
X218168Y203166D02*
X216502Y204832D01*
Y208165D01*
X218168Y209831D01*
X219834D01*
X221500Y208165D01*
Y206498D01*
Y208165D01*
X223166Y209831D01*
X224832D01*
X226498Y208165D01*
Y204832D01*
X224832Y203166D01*
X232002Y193169D02*
X240332D01*
X241998Y194835D01*
Y198168D01*
X240332Y199834D01*
X232002D01*
X241998Y209831D02*
Y203166D01*
X235334Y209831D01*
X233668D01*
X232002Y208165D01*
Y204832D01*
X233668Y203166D01*
X238836Y352498D02*
Y344168D01*
X240502Y342502D01*
X243834D01*
X245500Y344168D01*
Y352498D01*
X248832Y342502D02*
X252164D01*
X250498D01*
Y352498D01*
X248832Y350832D01*
X151671Y288998D02*
X158336D01*
X155003D01*
Y279002D01*
X161668D02*
Y288998D01*
X166666D01*
X168332Y287332D01*
Y284000D01*
X166666Y282334D01*
X161668D01*
X178329Y288998D02*
X171665D01*
Y284000D01*
X174997Y285666D01*
X176663D01*
X178329Y284000D01*
Y280668D01*
X176663Y279002D01*
X173331D01*
X171665Y280668D01*
X147671Y239498D02*
X154335D01*
X151003D01*
Y229502D01*
X157668D02*
Y239498D01*
X162666D01*
X164332Y237832D01*
Y234500D01*
X162666Y232834D01*
X157668D01*
X172663Y229502D02*
Y239498D01*
X167665Y234500D01*
X174329D01*
X163002Y299171D02*
Y305835D01*
Y302503D01*
X172998D01*
Y309168D02*
X163002D01*
Y314166D01*
X164668Y315832D01*
X168000D01*
X169666Y314166D01*
Y309168D01*
X164668Y319165D02*
X163002Y320831D01*
Y324163D01*
X164668Y325829D01*
X166334D01*
X168000Y324163D01*
Y322497D01*
Y324163D01*
X169666Y325829D01*
X171332D01*
X172998Y324163D01*
Y320831D01*
X171332Y319165D01*
X305501Y317671D02*
Y324336D01*
Y321003D01*
X315498D01*
Y327668D02*
X305501D01*
Y332666D01*
X307168Y334332D01*
X310500D01*
X312166Y332666D01*
Y327668D01*
X315498Y344329D02*
Y337664D01*
X308834Y344329D01*
X307168D01*
X305501Y342663D01*
Y339331D01*
X307168Y337664D01*
X257337Y226498D02*
X264002D01*
X260669D01*
Y216502D01*
X267334D02*
Y226498D01*
X272332D01*
X273998Y224832D01*
Y221500D01*
X272332Y219834D01*
X267334D01*
X277331Y216502D02*
X280663D01*
X278997D01*
Y226498D01*
X277331Y224832D01*
X327169Y247168D02*
Y253832D01*
X325502Y255498D01*
X322170D01*
X320504Y253832D01*
Y247168D01*
X322170Y245502D01*
X325502D01*
X323836Y248834D02*
X327169Y245502D01*
X325502D02*
X327169Y247168D01*
X330501Y245502D02*
X333833D01*
X332167D01*
Y255498D01*
X330501Y253832D01*
X345496Y245502D02*
X338831D01*
X345496Y252166D01*
Y253832D01*
X343830Y255498D01*
X340498D01*
X338831Y253832D01*
X219335Y131668D02*
Y138332D01*
X217669Y139998D01*
X214336D01*
X212670Y138332D01*
Y131668D01*
X214336Y130002D01*
X217669D01*
X216002Y133334D02*
X219335Y130002D01*
X217669D02*
X219335Y131668D01*
X222667Y130002D02*
X225999D01*
X224333D01*
Y139998D01*
X222667Y138332D01*
X230998Y130002D02*
X234330D01*
X232664D01*
Y139998D01*
X230998Y138332D01*
X308125Y138669D02*
X301461D01*
X299795Y137003D01*
Y133670D01*
X301461Y132004D01*
X308125D01*
X309791Y133670D01*
Y137003D01*
X306459Y135336D02*
X309791Y138669D01*
Y137003D02*
X308125Y138669D01*
X309791Y142001D02*
Y145333D01*
Y143667D01*
X299795D01*
X301461Y142001D01*
Y150332D02*
X299795Y151998D01*
Y155330D01*
X301461Y156996D01*
X308125D01*
X309791Y155330D01*
Y151998D01*
X308125Y150332D01*
X301461D01*
X224334Y160668D02*
Y167332D01*
X222668Y168998D01*
X219335D01*
X217669Y167332D01*
Y160668D01*
X219335Y159002D01*
X222668D01*
X221002Y162334D02*
X224334Y159002D01*
X222668D02*
X224334Y160668D01*
X227666D02*
X229332Y159002D01*
X232665D01*
X234331Y160668D01*
Y167332D01*
X232665Y168998D01*
X229332D01*
X227666Y167332D01*
Y165666D01*
X229332Y164000D01*
X234331D01*
X296834Y216168D02*
Y222832D01*
X295168Y224498D01*
X291835D01*
X290169Y222832D01*
Y216168D01*
X291835Y214502D01*
X295168D01*
X293502Y217834D02*
X296834Y214502D01*
X295168D02*
X296834Y216168D01*
X300166Y222832D02*
X301832Y224498D01*
X305165D01*
X306831Y222832D01*
Y221166D01*
X305165Y219500D01*
X306831Y217834D01*
Y216168D01*
X305165Y214502D01*
X301832D01*
X300166Y216168D01*
Y217834D01*
X301832Y219500D01*
X300166Y221166D01*
Y222832D01*
X301832Y219500D02*
X305165D01*
X389334Y307168D02*
Y313832D01*
X387668Y315498D01*
X384336D01*
X382669Y313832D01*
Y307168D01*
X384336Y305502D01*
X387668D01*
X386002Y308834D02*
X389334Y305502D01*
X387668D02*
X389334Y307168D01*
X392666Y315498D02*
X399331D01*
Y313832D01*
X392666Y307168D01*
Y305502D01*
X223834Y146168D02*
Y152832D01*
X222168Y154498D01*
X218836D01*
X217169Y152832D01*
Y146168D01*
X218836Y144502D01*
X222168D01*
X220502Y147834D02*
X223834Y144502D01*
X222168D02*
X223834Y146168D01*
X233831Y154498D02*
X230498Y152832D01*
X227166Y149500D01*
Y146168D01*
X228832Y144502D01*
X232164D01*
X233831Y146168D01*
Y147834D01*
X232164Y149500D01*
X227166D01*
X327832Y309834D02*
X321168D01*
X319502Y308168D01*
Y304835D01*
X321168Y303169D01*
X327832D01*
X329498Y304835D01*
Y308168D01*
X326166Y306502D02*
X329498Y309834D01*
Y308168D02*
X327832Y309834D01*
X319502Y319831D02*
Y313166D01*
X324500D01*
X322834Y316498D01*
Y318165D01*
X324500Y319831D01*
X327832D01*
X329498Y318165D01*
Y314832D01*
X327832Y313166D01*
X299832Y325334D02*
X293168D01*
X291502Y323668D01*
Y320336D01*
X293168Y318669D01*
X299832D01*
X301498Y320336D01*
Y323668D01*
X298166Y322002D02*
X301498Y325334D01*
Y323668D02*
X299832Y325334D01*
X301498Y333665D02*
X291502D01*
X296500Y328666D01*
Y335331D01*
X269081Y266058D02*
Y272723D01*
X267414Y274389D01*
X264082D01*
X262416Y272723D01*
Y266058D01*
X264082Y264392D01*
X267414D01*
X265748Y267724D02*
X269081Y264392D01*
X267414D02*
X269081Y266058D01*
X272413Y272723D02*
X274079Y274389D01*
X277411D01*
X279077Y272723D01*
Y271056D01*
X277411Y269390D01*
X275745D01*
X277411D01*
X279077Y267724D01*
Y266058D01*
X277411Y264392D01*
X274079D01*
X272413Y266058D01*
X169834Y250418D02*
Y257082D01*
X168168Y258748D01*
X164835D01*
X163169Y257082D01*
Y250418D01*
X164835Y248752D01*
X168168D01*
X166502Y252084D02*
X169834Y248752D01*
X168168D02*
X169834Y250418D01*
X179831Y248752D02*
X173166D01*
X179831Y255416D01*
Y257082D01*
X178165Y258748D01*
X174832D01*
X173166Y257082D01*
X193332Y218500D02*
X186668D01*
X185002Y216834D01*
Y213502D01*
X186668Y211835D01*
X193332D01*
X194998Y213502D01*
Y216834D01*
X191666Y215168D02*
X194998Y218500D01*
Y216834D02*
X193332Y218500D01*
X194998Y221832D02*
Y225165D01*
Y223498D01*
X185002D01*
X186668Y221832D01*
X132169Y282998D02*
Y273002D01*
X138834D01*
X142166Y281332D02*
X143832Y282998D01*
X147164D01*
X148831Y281332D01*
Y279666D01*
X147164Y278000D01*
X145498D01*
X147164D01*
X148831Y276334D01*
Y274668D01*
X147164Y273002D01*
X143832D01*
X142166Y274668D01*
X131669Y319998D02*
Y310002D01*
X138334D01*
X148331D02*
X141666D01*
X148331Y316666D01*
Y318332D01*
X146664Y319998D01*
X143332D01*
X141666Y318332D01*
X134335Y362498D02*
Y352502D01*
X141000D01*
X144332D02*
X147665D01*
X145998D01*
Y362498D01*
X144332Y360832D01*
X119500Y385498D02*
X116168D01*
X117834D01*
Y377168D01*
X116168Y375502D01*
X114502D01*
X112836Y377168D01*
X122832Y375502D02*
X126165D01*
X124498D01*
Y385498D01*
X122832Y383832D01*
X115002Y303169D02*
X124998D01*
Y308168D01*
X123332Y309834D01*
X116668D01*
X115002Y308168D01*
Y303169D01*
X124998Y319831D02*
Y313166D01*
X118334Y319831D01*
X116668D01*
X115002Y318165D01*
Y314832D01*
X116668Y313166D01*
X115502Y355336D02*
X125498D01*
Y360334D01*
X123832Y362000D01*
X117168D01*
X115502Y360334D01*
Y355336D01*
X125498Y365332D02*
Y368665D01*
Y366998D01*
X115502D01*
X117168Y365332D01*
D14*
X237579Y294180D02*
D03*
X207000Y325180D02*
D03*
Y294179D02*
D03*
D15*
X242500Y299080D02*
D03*
X202100Y299079D02*
D03*
Y320279D02*
D03*
X242500D02*
D03*
D16*
X237579Y325179D02*
D03*
M02*
