G04*
G04 #@! TF.GenerationSoftware,Altium Limited,Altium Designer,24.2.2 (26)*
G04*
G04 Layer_Physical_Order=3*
G04 Layer_Color=16440176*
%FSLAX44Y44*%
%MOMM*%
G71*
G04*
G04 #@! TF.SameCoordinates,6EDC250C-81D3-48BC-95F6-F0A130F5604E*
G04*
G04*
G04 #@! TF.FilePolarity,Positive*
G04*
G01*
G75*
%ADD10C,0.1000*%
%ADD12C,0.2000*%
%ADD50C,0.5000*%
G04:AMPARAMS|DCode=65|XSize=1.6mm|YSize=1.6mm|CornerRadius=0.4mm|HoleSize=0mm|Usage=FLASHONLY|Rotation=180.000|XOffset=0mm|YOffset=0mm|HoleType=Round|Shape=RoundedRectangle|*
%AMROUNDEDRECTD65*
21,1,1.6000,0.8000,0,0,180.0*
21,1,0.8000,1.6000,0,0,180.0*
1,1,0.8000,-0.4000,0.4000*
1,1,0.8000,0.4000,0.4000*
1,1,0.8000,0.4000,-0.4000*
1,1,0.8000,-0.4000,-0.4000*
%
%ADD65ROUNDEDRECTD65*%
%ADD66C,1.6000*%
%ADD67C,1.6500*%
G04:AMPARAMS|DCode=68|XSize=1.65mm|YSize=1.65mm|CornerRadius=0.4125mm|HoleSize=0mm|Usage=FLASHONLY|Rotation=180.000|XOffset=0mm|YOffset=0mm|HoleType=Round|Shape=RoundedRectangle|*
%AMROUNDEDRECTD68*
21,1,1.6500,0.8250,0,0,180.0*
21,1,0.8250,1.6500,0,0,180.0*
1,1,0.8250,-0.4125,0.4125*
1,1,0.8250,0.4125,0.4125*
1,1,0.8250,0.4125,-0.4125*
1,1,0.8250,-0.4125,-0.4125*
%
%ADD68ROUNDEDRECTD68*%
%ADD69C,5.0000*%
%ADD70C,0.4000*%
G36*
X423941Y3059D02*
X3059D01*
X3059Y477441D01*
X423941D01*
Y3059D01*
D02*
G37*
%LPC*%
G36*
X389561Y466500D02*
X384439D01*
X379416Y465501D01*
X374684Y463541D01*
X370426Y460695D01*
X366805Y457074D01*
X363959Y452816D01*
X361999Y448084D01*
X361000Y443061D01*
Y437939D01*
X361999Y432916D01*
X363959Y428184D01*
X366805Y423926D01*
X370426Y420304D01*
X374684Y417459D01*
X379416Y415499D01*
X384439Y414500D01*
X389561D01*
X394584Y415499D01*
X399316Y417459D01*
X403574Y420304D01*
X407196Y423926D01*
X410041Y428184D01*
X412001Y432916D01*
X413000Y437939D01*
Y443061D01*
X412001Y448084D01*
X410041Y452816D01*
X407196Y457074D01*
X403574Y460695D01*
X399316Y463541D01*
X394584Y465501D01*
X389561Y466500D01*
D02*
G37*
G36*
X42561D02*
X37439D01*
X32416Y465501D01*
X27684Y463541D01*
X23426Y460695D01*
X19805Y457074D01*
X16959Y452816D01*
X14999Y448084D01*
X14000Y443061D01*
Y437939D01*
X14999Y432916D01*
X16959Y428184D01*
X19805Y423926D01*
X23426Y420304D01*
X27684Y417459D01*
X32416Y415499D01*
X37439Y414500D01*
X42561D01*
X47584Y415499D01*
X52316Y417459D01*
X56574Y420304D01*
X60195Y423926D01*
X63041Y428184D01*
X65001Y432916D01*
X66000Y437939D01*
Y443061D01*
X65001Y448084D01*
X63041Y452816D01*
X60195Y457074D01*
X56574Y460695D01*
X52316Y463541D01*
X47584Y465501D01*
X42561Y466500D01*
D02*
G37*
G36*
X286097Y358000D02*
X284903D01*
X283801Y357543D01*
X282957Y356699D01*
X282500Y355597D01*
Y354403D01*
X282957Y353301D01*
X283801Y352457D01*
X284903Y352000D01*
X286097D01*
X287199Y352457D01*
X288043Y353301D01*
X288500Y354403D01*
Y355597D01*
X288043Y356699D01*
X287199Y357543D01*
X286097Y358000D01*
D02*
G37*
G36*
X336824Y343925D02*
X335631D01*
X334528Y343468D01*
X333684Y342624D01*
X333228Y341521D01*
Y340328D01*
X333684Y339225D01*
X334528Y338382D01*
X335631Y337925D01*
X336824D01*
X337927Y338382D01*
X338771Y339225D01*
X339228Y340328D01*
Y341521D01*
X338771Y342624D01*
X337927Y343468D01*
X336824Y343925D01*
D02*
G37*
G36*
X362824Y341925D02*
X361631D01*
X360528Y341468D01*
X359684Y340624D01*
X359228Y339521D01*
Y338328D01*
X359684Y337225D01*
X360528Y336381D01*
X361631Y335925D01*
X362824D01*
X363927Y336381D01*
X364771Y337225D01*
X365228Y338328D01*
Y339521D01*
X364771Y340624D01*
X363927Y341468D01*
X362824Y341925D01*
D02*
G37*
G36*
X249596Y340200D02*
X248004D01*
X246534Y339591D01*
X245409Y338466D01*
X244800Y336996D01*
Y335404D01*
X245409Y333934D01*
X246534Y332809D01*
X248004Y332200D01*
X249596D01*
X251066Y332809D01*
X252191Y333934D01*
X252800Y335404D01*
Y336996D01*
X252191Y338466D01*
X251066Y339591D01*
X249596Y340200D01*
D02*
G37*
G36*
X199753Y341700D02*
X198560D01*
X197457Y341243D01*
X196613Y340399D01*
X196156Y339297D01*
Y338103D01*
X196613Y337001D01*
X196706Y336908D01*
X197259Y335918D01*
X196706Y335248D01*
X196457Y334999D01*
X196000Y333897D01*
Y332703D01*
X196457Y331601D01*
X197301Y330757D01*
X198403Y330300D01*
X199597D01*
X200699Y330757D01*
X201543Y331601D01*
X202000Y332703D01*
Y333897D01*
X201543Y334999D01*
X201451Y335092D01*
X200897Y336082D01*
X201451Y336752D01*
X201700Y337001D01*
X202156Y338103D01*
Y339297D01*
X201700Y340399D01*
X200856Y341243D01*
X199753Y341700D01*
D02*
G37*
G36*
X261797Y334700D02*
X260603D01*
X259501Y334243D01*
X258657Y333399D01*
X258200Y332297D01*
Y331103D01*
X258657Y330001D01*
X259501Y329157D01*
X260603Y328700D01*
X261797D01*
X262899Y329157D01*
X263743Y330001D01*
X264200Y331103D01*
Y332297D01*
X263743Y333399D01*
X262899Y334243D01*
X261797Y334700D01*
D02*
G37*
G36*
X378597Y316500D02*
X377403D01*
X376301Y316043D01*
X375457Y315199D01*
X375000Y314097D01*
Y312903D01*
X375457Y311801D01*
X376301Y310957D01*
X377403Y310500D01*
X378597D01*
X379699Y310957D01*
X380543Y311801D01*
X381000Y312903D01*
Y314097D01*
X380543Y315199D01*
X379699Y316043D01*
X378597Y316500D01*
D02*
G37*
G36*
X352597Y314500D02*
X351403D01*
X350301Y314043D01*
X349457Y313199D01*
X349000Y312097D01*
Y310903D01*
X349457Y309801D01*
X350301Y308957D01*
X351403Y308500D01*
X352597D01*
X353699Y308957D01*
X354543Y309801D01*
X355000Y310903D01*
Y312097D01*
X354543Y313199D01*
X353699Y314043D01*
X352597Y314500D01*
D02*
G37*
G36*
X191000Y328083D02*
X190235Y327765D01*
Y327765D01*
X184735Y322265D01*
X184418Y321500D01*
Y261500D01*
X184418Y261500D01*
X184735Y260735D01*
X188117Y257352D01*
X188045Y256803D01*
X187728Y256082D01*
X179448D01*
X177765Y257765D01*
X177000Y258082D01*
X172500D01*
X172500Y258083D01*
X171735Y257765D01*
X171735Y257765D01*
X170735Y256765D01*
X170418Y256000D01*
Y254772D01*
X169244Y254286D01*
X168082Y255448D01*
Y258000D01*
X167765Y258765D01*
X164765Y261765D01*
X164000Y262082D01*
X155500D01*
X155183Y261951D01*
X154851Y261866D01*
X152851Y260366D01*
X152809Y260296D01*
X152735Y260265D01*
X152235Y259765D01*
X151918Y259000D01*
Y249082D01*
X130000D01*
X130000Y249082D01*
X129235Y248765D01*
X95235Y214765D01*
X94918Y214000D01*
Y192082D01*
X81500D01*
X81500Y192082D01*
X80735Y191765D01*
X63735Y174765D01*
X63418Y174000D01*
Y150000D01*
X63418Y150000D01*
X63735Y149235D01*
X63735Y149235D01*
X76235Y136735D01*
X77000Y136418D01*
X88052D01*
X110235Y114235D01*
X111000Y113918D01*
X146500D01*
X146500Y113918D01*
X147265Y114235D01*
X167448Y134418D01*
X176052Y134418D01*
X183735Y126735D01*
X184500Y126418D01*
X202673D01*
X203521Y125148D01*
X203500Y125097D01*
Y123903D01*
X203957Y122801D01*
X204801Y121957D01*
X205903Y121500D01*
X207097D01*
X208199Y121957D01*
X209043Y122801D01*
X209500Y123903D01*
Y125097D01*
X209479Y125148D01*
X210327Y126418D01*
X216500D01*
X216500Y126418D01*
X217265Y126735D01*
X217265Y126735D01*
X222765Y132235D01*
X223082Y133000D01*
Y150052D01*
X224948Y151918D01*
X230002D01*
X232418Y149100D01*
Y132000D01*
X232735Y131235D01*
X234735Y129235D01*
X235500Y128918D01*
X240500D01*
X240500Y128918D01*
X241265Y129235D01*
X241266Y129235D01*
X243265Y131235D01*
X243582Y132000D01*
Y174052D01*
X246448Y176918D01*
X264000D01*
X264075Y176949D01*
X264153Y176929D01*
X264448Y177103D01*
X264765Y177235D01*
X264796Y177309D01*
X264866Y177351D01*
X266366Y179351D01*
X266451Y179683D01*
X266582Y180000D01*
Y185500D01*
X266265Y186265D01*
X266265Y186265D01*
X264966Y187564D01*
X264767Y187796D01*
X264848Y189106D01*
X265043Y189301D01*
X265500Y190403D01*
Y191597D01*
X265043Y192699D01*
X264199Y193543D01*
X263097Y194000D01*
X261903D01*
X260801Y193543D01*
X259957Y192699D01*
X259500Y191597D01*
Y190403D01*
X259957Y189301D01*
X259379Y188082D01*
X244500D01*
X244500Y188082D01*
X243735Y187765D01*
X235235Y179265D01*
X234918Y178500D01*
Y166448D01*
X231052Y162582D01*
X221500D01*
X220735Y162265D01*
X220735Y162265D01*
X215735Y157265D01*
X215418Y156500D01*
Y136448D01*
X213552Y134582D01*
X188448D01*
X185582Y137448D01*
Y139552D01*
X193765Y147735D01*
X194082Y148500D01*
Y177552D01*
X197765Y181235D01*
X198082Y182000D01*
Y189500D01*
X198083Y189500D01*
X197765Y190265D01*
X197765Y190266D01*
X196765Y191265D01*
X196000Y191582D01*
X183500D01*
X183500Y191583D01*
X182735Y191265D01*
X182735Y191265D01*
X181735Y190265D01*
X181418Y189500D01*
Y182500D01*
X181735Y181735D01*
X185918Y177552D01*
Y155448D01*
X175052Y144582D01*
X160000D01*
X159235Y144265D01*
X159235Y144265D01*
X139052Y124082D01*
X117448Y124082D01*
X107082Y134448D01*
Y202052D01*
X112765Y207735D01*
X113082Y208500D01*
Y217052D01*
X136948Y240918D01*
X155552D01*
X159735Y236735D01*
X160500Y236418D01*
X182500D01*
X182500Y236418D01*
X183265Y236735D01*
X183265Y236735D01*
X186765Y240235D01*
X187082Y241000D01*
Y248918D01*
X208552D01*
X209918Y247552D01*
X209918Y213500D01*
X209918Y213500D01*
X210235Y212735D01*
X211735Y211235D01*
X211735Y211235D01*
X212500Y210918D01*
X216000D01*
X216765Y211235D01*
X216765Y211235D01*
X218265Y212735D01*
X218265Y212735D01*
X218582Y213500D01*
Y238918D01*
X274552D01*
X286235Y227235D01*
X286235Y227235D01*
X298418Y215052D01*
Y213700D01*
X297148Y213447D01*
X297043Y213699D01*
X296199Y214543D01*
X295097Y215000D01*
X293903D01*
X292801Y214543D01*
X291957Y213699D01*
X291500Y212597D01*
Y211403D01*
X291957Y210301D01*
X292801Y209457D01*
X293903Y209000D01*
X295097D01*
X296199Y209457D01*
X297043Y210301D01*
X297148Y210553D01*
X298418Y210300D01*
Y191948D01*
X294235Y187765D01*
X293918Y187000D01*
Y184500D01*
X294235Y183735D01*
X296235Y181735D01*
X297000Y181418D01*
X303500D01*
X303500Y181418D01*
X304265Y181735D01*
X307765Y185235D01*
X308082Y186000D01*
Y254000D01*
X307765Y254765D01*
X307765Y254765D01*
X299082Y263448D01*
Y292052D01*
X302448Y295418D01*
X379552D01*
X379735Y295235D01*
X380500Y294918D01*
X384000D01*
X384765Y295235D01*
X384765Y295235D01*
X386265Y296735D01*
X386582Y297500D01*
Y301000D01*
X386582Y301000D01*
X386265Y301765D01*
X386265Y301765D01*
X385265Y302765D01*
X384500Y303082D01*
X320948D01*
X320582Y303448D01*
Y308500D01*
X320265Y309265D01*
X320265Y309265D01*
X318765Y310765D01*
X318000Y311082D01*
X311500D01*
X310735Y310765D01*
X310735Y310765D01*
X309235Y309265D01*
X308918Y308500D01*
Y303448D01*
X308552Y303082D01*
X298948D01*
X293765Y308265D01*
X293000Y308582D01*
X283500D01*
X282735Y308265D01*
X282735Y308265D01*
X282210Y307741D01*
X282095Y307727D01*
X280786Y308113D01*
X280543Y308699D01*
X279699Y309543D01*
X278597Y310000D01*
X277403D01*
X276301Y309543D01*
X275457Y308699D01*
X275000Y307597D01*
Y306403D01*
X275457Y305301D01*
X275487Y305270D01*
X274961Y304000D01*
X274903D01*
X273801Y303543D01*
X272957Y302699D01*
X272500Y301597D01*
Y300403D01*
X272957Y299301D01*
X273475Y298783D01*
X273680Y298000D01*
X273475Y297217D01*
X272957Y296699D01*
X272500Y295597D01*
Y294403D01*
X272957Y293301D01*
X273475Y292783D01*
X273680Y292000D01*
X273475Y291217D01*
X272957Y290699D01*
X272500Y289597D01*
Y288403D01*
X272957Y287301D01*
X273801Y286457D01*
X274903Y286000D01*
X276097D01*
X277199Y286457D01*
X278043Y287301D01*
X278500Y288403D01*
Y289597D01*
X278043Y290699D01*
X277526Y291217D01*
X277320Y292000D01*
X277526Y292783D01*
X278043Y293301D01*
X278500Y294403D01*
Y295597D01*
X278043Y296699D01*
X277526Y297217D01*
X277320Y298000D01*
X277526Y298783D01*
X278043Y299301D01*
X278500Y300403D01*
Y301597D01*
X278043Y302699D01*
X278013Y302730D01*
X278536Y303994D01*
X278552Y304000D01*
X278597D01*
X279271Y304279D01*
X279712Y304451D01*
X280918Y303879D01*
Y303000D01*
X281235Y302235D01*
X283235Y300235D01*
X284000Y299918D01*
X290052D01*
X290918Y299052D01*
Y275448D01*
X289735Y274265D01*
X289418Y273500D01*
Y263448D01*
X288552Y262582D01*
X261949D01*
X257828Y266703D01*
X258314Y267876D01*
X280925D01*
X280957Y267801D01*
X281801Y266957D01*
X282903Y266500D01*
X284097D01*
X285199Y266957D01*
X286043Y267801D01*
X286500Y268903D01*
Y270097D01*
X286043Y271199D01*
X285199Y272043D01*
X284097Y272500D01*
X282903D01*
X281801Y272043D01*
X280957Y271199D01*
X280925Y271124D01*
X256673D01*
X233552Y294244D01*
X234038Y295418D01*
X249500D01*
X250265Y295735D01*
X250265Y295735D01*
X251765Y297235D01*
X252082Y298000D01*
Y322000D01*
X252083Y322000D01*
X251765Y322765D01*
X251765Y322766D01*
X246765Y327765D01*
X246000Y328082D01*
X191000D01*
X191000Y328083D01*
D02*
G37*
G36*
X154917Y299430D02*
X153723D01*
X152621Y298973D01*
X151777Y298129D01*
X151320Y297027D01*
Y295833D01*
X151777Y294731D01*
X152621Y293887D01*
X153723Y293430D01*
X154917D01*
X155532Y292310D01*
X155897Y291431D01*
X156741Y290587D01*
X157843Y290130D01*
X159037D01*
X160139Y290587D01*
X160983Y291431D01*
X161440Y292533D01*
Y293727D01*
X160983Y294829D01*
X160139Y295673D01*
X159037Y296130D01*
X157843D01*
X157228Y297250D01*
X156863Y298129D01*
X156019Y298973D01*
X154917Y299430D01*
D02*
G37*
G36*
X345597Y294000D02*
X344403D01*
X343301Y293543D01*
X342457Y292699D01*
X342000Y291597D01*
Y290403D01*
X342457Y289301D01*
X343301Y288457D01*
X344403Y288000D01*
X345597D01*
X346699Y288457D01*
X347543Y289301D01*
X348000Y290403D01*
Y291597D01*
X347543Y292699D01*
X346699Y293543D01*
X345597Y294000D01*
D02*
G37*
G36*
X365097Y293500D02*
X363903D01*
X362801Y293043D01*
X361957Y292199D01*
X361500Y291097D01*
Y289903D01*
X361957Y288801D01*
X362801Y287957D01*
X363903Y287500D01*
X365097D01*
X366199Y287957D01*
X367043Y288801D01*
X367500Y289903D01*
Y291097D01*
X367043Y292199D01*
X366199Y293043D01*
X365097Y293500D01*
D02*
G37*
G36*
X151597Y267500D02*
X150403D01*
X149301Y267043D01*
X148457Y266199D01*
X148425Y266124D01*
X83000D01*
X81852Y265648D01*
X74672Y258469D01*
X74597Y258500D01*
X73403D01*
X72301Y258043D01*
X71457Y257199D01*
X71000Y256097D01*
Y254903D01*
X71457Y253801D01*
X72301Y252957D01*
X73403Y252500D01*
X74597D01*
X75699Y252957D01*
X76543Y253801D01*
X77000Y254903D01*
Y256097D01*
X76969Y256173D01*
X83673Y262876D01*
X148425D01*
X148457Y262801D01*
X149301Y261957D01*
X150403Y261500D01*
X151597D01*
X152699Y261957D01*
X153543Y262801D01*
X154000Y263903D01*
Y265097D01*
X153543Y266199D01*
X152699Y267043D01*
X151597Y267500D01*
D02*
G37*
G36*
X362585Y278500D02*
X360215D01*
X357926Y277887D01*
X355874Y276702D01*
X354198Y275026D01*
X353013Y272974D01*
X352400Y270685D01*
Y268315D01*
X353013Y266026D01*
X354198Y263974D01*
X355874Y262298D01*
X357926Y261113D01*
X360215Y260500D01*
X362585D01*
X364874Y261113D01*
X366926Y262298D01*
X368602Y263974D01*
X369787Y266026D01*
X370400Y268315D01*
Y270685D01*
X369787Y272974D01*
X368602Y275026D01*
X366926Y276702D01*
X364874Y277887D01*
X362585Y278500D01*
D02*
G37*
G36*
X337185D02*
X334815D01*
X332526Y277887D01*
X330474Y276702D01*
X328798Y275026D01*
X327613Y272974D01*
X327000Y270685D01*
Y268315D01*
X327613Y266026D01*
X328798Y263974D01*
X330474Y262298D01*
X332526Y261113D01*
X334815Y260500D01*
X337185D01*
X339474Y261113D01*
X341526Y262298D01*
X343202Y263974D01*
X344387Y266026D01*
X345000Y268315D01*
Y270685D01*
X344387Y272974D01*
X343202Y275026D01*
X341526Y276702D01*
X339474Y277887D01*
X337185Y278500D01*
D02*
G37*
G36*
X390800Y278598D02*
X382800D01*
X380849Y278210D01*
X379195Y277105D01*
X378090Y275451D01*
X377702Y273500D01*
Y265500D01*
X378090Y263549D01*
X379195Y261895D01*
X380849Y260790D01*
X382800Y260402D01*
X390800D01*
X392751Y260790D01*
X394405Y261895D01*
X395510Y263549D01*
X395898Y265500D01*
Y273500D01*
X395510Y275451D01*
X394405Y277105D01*
X392751Y278210D01*
X390800Y278598D01*
D02*
G37*
G36*
X70597Y249500D02*
X69403D01*
X68301Y249043D01*
X67457Y248199D01*
X67000Y247097D01*
Y245903D01*
X67457Y244801D01*
X68301Y243957D01*
X69403Y243500D01*
X70597D01*
X71699Y243957D01*
X72543Y244801D01*
X73000Y245903D01*
Y247097D01*
X72543Y248199D01*
X71699Y249043D01*
X70597Y249500D01*
D02*
G37*
G36*
X76597Y239500D02*
X75403D01*
X74301Y239043D01*
X73457Y238199D01*
X73000Y237097D01*
Y235903D01*
X73457Y234801D01*
X74301Y233957D01*
X75403Y233500D01*
X76597D01*
X77699Y233957D01*
X78543Y234801D01*
X79000Y235903D01*
Y237097D01*
X78543Y238199D01*
X77699Y239043D01*
X76597Y239500D01*
D02*
G37*
G36*
X131097Y229500D02*
X129903D01*
X128801Y229043D01*
X127957Y228199D01*
X127500Y227097D01*
Y225903D01*
X127957Y224801D01*
X128801Y223957D01*
X129903Y223500D01*
X131097D01*
X132199Y223957D01*
X133043Y224801D01*
X133500Y225903D01*
Y227097D01*
X133043Y228199D01*
X132199Y229043D01*
X131097Y229500D01*
D02*
G37*
G36*
X362185Y234500D02*
X359815D01*
X357526Y233887D01*
X355474Y232702D01*
X353798Y231026D01*
X352613Y228974D01*
X352000Y226685D01*
Y224315D01*
X352613Y222026D01*
X353798Y219974D01*
X355474Y218298D01*
X357526Y217113D01*
X359815Y216500D01*
X362185D01*
X364474Y217113D01*
X366526Y218298D01*
X368202Y219974D01*
X369387Y222026D01*
X370000Y224315D01*
Y226685D01*
X369387Y228974D01*
X368202Y231026D01*
X366526Y232702D01*
X364474Y233887D01*
X362185Y234500D01*
D02*
G37*
G36*
X336785D02*
X334415D01*
X332126Y233887D01*
X330074Y232702D01*
X328398Y231026D01*
X327213Y228974D01*
X326600Y226685D01*
Y224315D01*
X327213Y222026D01*
X328398Y219974D01*
X330074Y218298D01*
X332126Y217113D01*
X334415Y216500D01*
X336785D01*
X339074Y217113D01*
X341126Y218298D01*
X342802Y219974D01*
X343987Y222026D01*
X344600Y224315D01*
Y226685D01*
X343987Y228974D01*
X342802Y231026D01*
X341126Y232702D01*
X339074Y233887D01*
X336785Y234500D01*
D02*
G37*
G36*
X390400Y234598D02*
X382400D01*
X380449Y234210D01*
X378795Y233105D01*
X377690Y231451D01*
X377302Y229500D01*
Y221500D01*
X377690Y219549D01*
X378795Y217895D01*
X380449Y216790D01*
X382400Y216402D01*
X390400D01*
X392351Y216790D01*
X394005Y217895D01*
X395110Y219549D01*
X395498Y221500D01*
Y229500D01*
X395110Y231451D01*
X394005Y233105D01*
X392351Y234210D01*
X390400Y234598D01*
D02*
G37*
G36*
X229597Y218000D02*
X228403D01*
X227301Y217543D01*
X226457Y216699D01*
X226000Y215597D01*
Y214403D01*
X226457Y213301D01*
X227301Y212457D01*
X228403Y212000D01*
X229597D01*
X230699Y212457D01*
X231543Y213301D01*
X232000Y214403D01*
Y215597D01*
X231543Y216699D01*
X230699Y217543D01*
X229597Y218000D01*
D02*
G37*
G36*
X292597Y197500D02*
X291403D01*
X290301Y197043D01*
X289457Y196199D01*
X289000Y195097D01*
Y193903D01*
X289457Y192801D01*
X290301Y191957D01*
X291403Y191500D01*
X292597D01*
X293699Y191957D01*
X294543Y192801D01*
X295000Y193903D01*
Y195097D01*
X294543Y196199D01*
X293699Y197043D01*
X292597Y197500D01*
D02*
G37*
G36*
X362185Y192500D02*
X359815D01*
X357526Y191887D01*
X355474Y190702D01*
X353798Y189026D01*
X352613Y186974D01*
X352000Y184685D01*
Y182315D01*
X352613Y180026D01*
X353798Y177974D01*
X355474Y176298D01*
X357526Y175113D01*
X359815Y174500D01*
X362185D01*
X364474Y175113D01*
X366526Y176298D01*
X368202Y177974D01*
X369387Y180026D01*
X370000Y182315D01*
Y184685D01*
X369387Y186974D01*
X368202Y189026D01*
X366526Y190702D01*
X364474Y191887D01*
X362185Y192500D01*
D02*
G37*
G36*
X336785D02*
X334415D01*
X332126Y191887D01*
X330074Y190702D01*
X328398Y189026D01*
X327213Y186974D01*
X326600Y184685D01*
Y182315D01*
X327213Y180026D01*
X328398Y177974D01*
X330074Y176298D01*
X332126Y175113D01*
X334415Y174500D01*
X336785D01*
X339074Y175113D01*
X341126Y176298D01*
X342802Y177974D01*
X343987Y180026D01*
X344600Y182315D01*
Y184685D01*
X343987Y186974D01*
X342802Y189026D01*
X341126Y190702D01*
X339074Y191887D01*
X336785Y192500D01*
D02*
G37*
G36*
X390400Y192598D02*
X382400D01*
X380449Y192210D01*
X378795Y191105D01*
X377690Y189451D01*
X377302Y187500D01*
Y179500D01*
X377690Y177549D01*
X378795Y175895D01*
X380449Y174790D01*
X382400Y174402D01*
X390400D01*
X392351Y174790D01*
X394005Y175895D01*
X395110Y177549D01*
X395498Y179500D01*
Y187500D01*
X395110Y189451D01*
X394005Y191105D01*
X392351Y192210D01*
X390400Y192598D01*
D02*
G37*
G36*
X154097Y179500D02*
X152903D01*
X151801Y179043D01*
X150957Y178199D01*
X150500Y177097D01*
Y175903D01*
X150957Y174801D01*
X151801Y173957D01*
X152903Y173500D01*
X154097D01*
X155199Y173957D01*
X156043Y174801D01*
X156500Y175903D01*
Y177097D01*
X156043Y178199D01*
X155199Y179043D01*
X154097Y179500D01*
D02*
G37*
G36*
X200505Y158883D02*
X199311D01*
X198209Y158426D01*
X197365Y157582D01*
X196908Y156480D01*
Y155286D01*
X197365Y154183D01*
X198209Y153340D01*
X199311Y152883D01*
X200505D01*
X201607Y153340D01*
X202451Y154183D01*
X202908Y155286D01*
Y156480D01*
X202451Y157582D01*
X201607Y158426D01*
X200505Y158883D01*
D02*
G37*
G36*
X208097Y151500D02*
X206903D01*
X205801Y151043D01*
X204957Y150199D01*
X204500Y149097D01*
Y147903D01*
X204957Y146801D01*
X205801Y145957D01*
X206903Y145500D01*
X208097D01*
X209199Y145957D01*
X210043Y146801D01*
X210500Y147903D01*
Y149097D01*
X210043Y150199D01*
X209199Y151043D01*
X208097Y151500D01*
D02*
G37*
G36*
X261597Y143500D02*
X260403D01*
X259301Y143043D01*
X258457Y142199D01*
X258000Y141097D01*
Y139903D01*
X258457Y138801D01*
X259301Y137957D01*
X260403Y137500D01*
X261597D01*
X262699Y137957D01*
X263543Y138801D01*
X264000Y139903D01*
Y141097D01*
X263543Y142199D01*
X262699Y143043D01*
X261597Y143500D01*
D02*
G37*
G36*
Y127500D02*
X260403D01*
X259301Y127043D01*
X258457Y126199D01*
X258000Y125097D01*
Y123903D01*
X258457Y122801D01*
X259301Y121957D01*
X260403Y121500D01*
X261597D01*
X262699Y121957D01*
X263543Y122801D01*
X264000Y123903D01*
Y125097D01*
X263543Y126199D01*
X262699Y127043D01*
X261597Y127500D01*
D02*
G37*
G36*
X285118Y113750D02*
X282682D01*
X280330Y113120D01*
X278220Y111902D01*
X276498Y110180D01*
X275280Y108070D01*
X274650Y105718D01*
Y103282D01*
X275280Y100930D01*
X276498Y98820D01*
X278220Y97098D01*
X280330Y95880D01*
X282682Y95250D01*
X285118D01*
X287470Y95880D01*
X289580Y97098D01*
X291302Y98820D01*
X292520Y100930D01*
X293150Y103282D01*
Y105718D01*
X292520Y108070D01*
X291302Y110180D01*
X289580Y111902D01*
X287470Y113120D01*
X285118Y113750D01*
D02*
G37*
G36*
X158118D02*
X155682D01*
X153330Y113120D01*
X151220Y111902D01*
X149498Y110180D01*
X148280Y108070D01*
X147650Y105718D01*
Y103282D01*
X148280Y100930D01*
X149498Y98820D01*
X151220Y97098D01*
X153330Y95880D01*
X155682Y95250D01*
X158118D01*
X160470Y95880D01*
X162580Y97098D01*
X164302Y98820D01*
X165520Y100930D01*
X166150Y103282D01*
Y105718D01*
X165520Y108070D01*
X164302Y110180D01*
X162580Y111902D01*
X160470Y113120D01*
X158118Y113750D01*
D02*
G37*
G36*
X335918Y88350D02*
X333482D01*
X331130Y87720D01*
X329020Y86502D01*
X327298Y84780D01*
X326080Y82670D01*
X325450Y80318D01*
Y77882D01*
X326080Y75530D01*
X327298Y73420D01*
X329020Y71698D01*
X331130Y70480D01*
X333482Y69850D01*
X335918D01*
X338270Y70480D01*
X340380Y71698D01*
X342102Y73420D01*
X343320Y75530D01*
X343950Y77882D01*
Y80318D01*
X343320Y82670D01*
X342102Y84780D01*
X340380Y86502D01*
X338270Y87720D01*
X335918Y88350D01*
D02*
G37*
G36*
X310518D02*
X308082D01*
X305730Y87720D01*
X303620Y86502D01*
X301898Y84780D01*
X300680Y82670D01*
X300050Y80318D01*
Y77882D01*
X300680Y75530D01*
X301898Y73420D01*
X303620Y71698D01*
X305730Y70480D01*
X308082Y69850D01*
X310518D01*
X312870Y70480D01*
X314980Y71698D01*
X316702Y73420D01*
X317920Y75530D01*
X318550Y77882D01*
Y80318D01*
X317920Y82670D01*
X316702Y84780D01*
X314980Y86502D01*
X312870Y87720D01*
X310518Y88350D01*
D02*
G37*
G36*
X285118D02*
X282682D01*
X280330Y87720D01*
X278220Y86502D01*
X276498Y84780D01*
X275280Y82670D01*
X274650Y80318D01*
Y77882D01*
X275280Y75530D01*
X276498Y73420D01*
X278220Y71698D01*
X280330Y70480D01*
X282682Y69850D01*
X285118D01*
X287470Y70480D01*
X289580Y71698D01*
X291302Y73420D01*
X292520Y75530D01*
X293150Y77882D01*
Y80318D01*
X292520Y82670D01*
X291302Y84780D01*
X289580Y86502D01*
X287470Y87720D01*
X285118Y88350D01*
D02*
G37*
G36*
X259718D02*
X257282D01*
X254930Y87720D01*
X252820Y86502D01*
X251098Y84780D01*
X249880Y82670D01*
X249250Y80318D01*
Y77882D01*
X249880Y75530D01*
X251098Y73420D01*
X252820Y71698D01*
X254930Y70480D01*
X257282Y69850D01*
X259718D01*
X262070Y70480D01*
X264180Y71698D01*
X265902Y73420D01*
X267120Y75530D01*
X267750Y77882D01*
Y80318D01*
X267120Y82670D01*
X265902Y84780D01*
X264180Y86502D01*
X262070Y87720D01*
X259718Y88350D01*
D02*
G37*
G36*
X234318D02*
X231882D01*
X229530Y87720D01*
X227420Y86502D01*
X225698Y84780D01*
X224480Y82670D01*
X223850Y80318D01*
Y77882D01*
X224480Y75530D01*
X225698Y73420D01*
X227420Y71698D01*
X229530Y70480D01*
X231882Y69850D01*
X234318D01*
X236670Y70480D01*
X238780Y71698D01*
X240502Y73420D01*
X241720Y75530D01*
X242350Y77882D01*
Y80318D01*
X241720Y82670D01*
X240502Y84780D01*
X238780Y86502D01*
X236670Y87720D01*
X234318Y88350D01*
D02*
G37*
G36*
X208918D02*
X206482D01*
X204130Y87720D01*
X202020Y86502D01*
X200298Y84780D01*
X199080Y82670D01*
X198450Y80318D01*
Y77882D01*
X199080Y75530D01*
X200298Y73420D01*
X202020Y71698D01*
X204130Y70480D01*
X206482Y69850D01*
X208918D01*
X211270Y70480D01*
X213380Y71698D01*
X215102Y73420D01*
X216320Y75530D01*
X216950Y77882D01*
Y80318D01*
X216320Y82670D01*
X215102Y84780D01*
X213380Y86502D01*
X211270Y87720D01*
X208918Y88350D01*
D02*
G37*
G36*
X183518D02*
X181082D01*
X178730Y87720D01*
X176620Y86502D01*
X174898Y84780D01*
X173680Y82670D01*
X173050Y80318D01*
Y77882D01*
X173680Y75530D01*
X174898Y73420D01*
X176620Y71698D01*
X178730Y70480D01*
X181082Y69850D01*
X183518D01*
X185870Y70480D01*
X187980Y71698D01*
X189702Y73420D01*
X190920Y75530D01*
X191550Y77882D01*
Y80318D01*
X190920Y82670D01*
X189702Y84780D01*
X187980Y86502D01*
X185870Y87720D01*
X183518Y88350D01*
D02*
G37*
G36*
X161025Y88450D02*
X152775D01*
X150775Y88053D01*
X149080Y86920D01*
X147947Y85225D01*
X147550Y83225D01*
Y74975D01*
X147947Y72975D01*
X149080Y71280D01*
X150775Y70147D01*
X152775Y69750D01*
X161025D01*
X163025Y70147D01*
X164720Y71280D01*
X165853Y72975D01*
X166250Y74975D01*
Y83225D01*
X165853Y85225D01*
X164720Y86920D01*
X163025Y88053D01*
X161025Y88450D01*
D02*
G37*
G36*
X228116Y62855D02*
X226923D01*
X225820Y62398D01*
X224976Y61554D01*
X224520Y60452D01*
Y59258D01*
X224976Y58156D01*
X225820Y57312D01*
X226923Y56855D01*
X228116D01*
X229219Y57312D01*
X230063Y58156D01*
X230520Y59258D01*
Y60452D01*
X230063Y61554D01*
X229219Y62398D01*
X228116Y62855D01*
D02*
G37*
G36*
X204097Y62500D02*
X202903D01*
X201801Y62043D01*
X200957Y61199D01*
X200500Y60097D01*
Y58903D01*
X200957Y57801D01*
X201801Y56957D01*
X202903Y56500D01*
X204097D01*
X205199Y56957D01*
X206043Y57801D01*
X206500Y58903D01*
Y60097D01*
X206043Y61199D01*
X205199Y62043D01*
X204097Y62500D01*
D02*
G37*
G36*
X389561Y66000D02*
X384439D01*
X379416Y65001D01*
X374684Y63041D01*
X370426Y60195D01*
X366805Y56574D01*
X363959Y52316D01*
X361999Y47584D01*
X361000Y42561D01*
Y37439D01*
X361999Y32416D01*
X363959Y27684D01*
X366805Y23426D01*
X370426Y19805D01*
X374684Y16959D01*
X379416Y14999D01*
X384439Y14000D01*
X389561D01*
X394584Y14999D01*
X399316Y16959D01*
X403574Y19805D01*
X407196Y23426D01*
X410041Y27684D01*
X412001Y32416D01*
X413000Y37439D01*
Y42561D01*
X412001Y47584D01*
X410041Y52316D01*
X407196Y56574D01*
X403574Y60195D01*
X399316Y63041D01*
X394584Y65001D01*
X389561Y66000D01*
D02*
G37*
G36*
X42561D02*
X37439D01*
X32416Y65001D01*
X27684Y63041D01*
X23426Y60195D01*
X19805Y56574D01*
X16959Y52316D01*
X14999Y47584D01*
X14000Y42561D01*
Y37439D01*
X14999Y32416D01*
X16959Y27684D01*
X19805Y23426D01*
X23426Y19805D01*
X27684Y16959D01*
X32416Y14999D01*
X37439Y14000D01*
X42561D01*
X47584Y14999D01*
X52316Y16959D01*
X56574Y19805D01*
X60195Y23426D01*
X63041Y27684D01*
X65001Y32416D01*
X66000Y37439D01*
Y42561D01*
X65001Y47584D01*
X63041Y52316D01*
X60195Y56574D01*
X56574Y60195D01*
X52316Y63041D01*
X47584Y65001D01*
X42561Y66000D01*
D02*
G37*
%LPD*%
G36*
X230418Y320052D02*
Y313918D01*
X229000Y312500D01*
X224950D01*
X224834Y312601D01*
X224765Y312765D01*
X224533Y312862D01*
X224342Y313027D01*
X224165Y313014D01*
X224000Y313082D01*
X220500D01*
X220335Y313014D01*
X220158Y313027D01*
X219967Y312862D01*
X219735Y312765D01*
X219667Y312601D01*
X219550Y312500D01*
X218138Y312500D01*
X218080D01*
X217597Y312700D01*
X216403D01*
X215920Y312500D01*
X212783D01*
X212297Y312701D01*
X211103D01*
X210617Y312500D01*
X209500D01*
X207500Y310500D01*
Y307692D01*
X206997Y307900D01*
X205803D01*
X204701Y307443D01*
X203857Y306599D01*
X203400Y305497D01*
Y304303D01*
X203857Y303201D01*
X204701Y302357D01*
X205803Y301900D01*
X206997D01*
X207500Y302108D01*
Y300106D01*
X225000Y281545D01*
Y277243D01*
X224699Y277543D01*
X223597Y278000D01*
X222403D01*
X221301Y277543D01*
X220457Y276699D01*
X220000Y275597D01*
Y274403D01*
X220457Y273301D01*
X221301Y272457D01*
X222403Y272000D01*
X223597D01*
X224699Y272457D01*
X225000Y272757D01*
Y259000D01*
X224000Y258000D01*
X213000D01*
X212000Y259000D01*
Y265500D01*
X209531D01*
X209265Y265765D01*
X208500Y266082D01*
X194448D01*
X194082Y266448D01*
Y279582D01*
X195004Y279200D01*
X196596D01*
X198066Y279809D01*
X199191Y280934D01*
X199800Y282404D01*
Y283996D01*
X199191Y285466D01*
X198066Y286591D01*
X196596Y287200D01*
X195004D01*
X194082Y286818D01*
Y298052D01*
X194448Y298418D01*
X197500D01*
X198265Y298735D01*
X198265Y298735D01*
X199765Y300235D01*
X200082Y301000D01*
Y304000D01*
X199765Y304765D01*
X199765Y304765D01*
X198265Y306265D01*
X197500Y306582D01*
X193948D01*
X193582Y306948D01*
Y317052D01*
X197448Y320918D01*
X229552D01*
X230418Y320052D01*
D02*
G37*
G36*
X251000Y322000D02*
Y298000D01*
X249500Y296500D01*
X231000D01*
X224000Y303500D01*
X222000Y303500D01*
X220000Y305500D01*
Y311000D01*
X220500Y312000D01*
X224000D01*
X224500Y311000D01*
Y308000D01*
X226000Y306500D01*
X228700D01*
X230422Y307935D01*
X231201Y307157D01*
X232303Y306700D01*
X233497D01*
X234599Y307157D01*
X235443Y308001D01*
X235550Y308258D01*
X235657Y308001D01*
X236501Y307157D01*
X236535Y307143D01*
X235769Y306378D01*
X235313Y305275D01*
Y304081D01*
X235769Y302979D01*
X236613Y302135D01*
X237716Y301678D01*
X238909D01*
X240012Y302135D01*
X240856Y302979D01*
X241313Y304081D01*
Y305275D01*
X240856Y306378D01*
X240012Y307222D01*
X239978Y307236D01*
X240743Y308001D01*
X241200Y309103D01*
Y310297D01*
X240743Y311399D01*
X239899Y312243D01*
X238797Y312700D01*
X237603D01*
X236501Y312243D01*
X235657Y311399D01*
X235550Y311142D01*
X235443Y311399D01*
X234599Y312243D01*
X233497Y312700D01*
X232303D01*
X231500Y312367D01*
Y320500D01*
X230000Y322000D01*
X197000D01*
X192500Y317500D01*
Y306500D01*
X193500Y305500D01*
X197500D01*
X199000Y304000D01*
Y301000D01*
X197500Y299500D01*
X194000D01*
X193000Y298500D01*
Y286057D01*
X192409Y285466D01*
X191800Y283996D01*
Y282404D01*
X192409Y280934D01*
X193000Y280343D01*
Y266000D01*
X194000Y265000D01*
X208500D01*
X209000Y264500D01*
Y259000D01*
X208000Y258000D01*
X189000D01*
X185500Y261500D01*
Y321500D01*
X191000Y327000D01*
X246000D01*
X251000Y322000D01*
D02*
G37*
G36*
X212369Y311500D02*
X212584D01*
X212783Y311418D01*
X213582D01*
X214000Y311000D01*
Y309995D01*
X213941Y309700D01*
X214000Y309405D01*
Y308111D01*
X220656Y301825D01*
X220174Y301104D01*
X219941Y299933D01*
X220174Y298763D01*
X220837Y297770D01*
X221829Y297107D01*
X223000Y296874D01*
X223636Y297001D01*
X226785Y293852D01*
X227933Y293376D01*
X229601D01*
X230000Y293000D01*
X261500Y261500D01*
X289000D01*
X290500Y263000D01*
Y273500D01*
X292000Y275000D01*
Y299500D01*
X290500Y301000D01*
X284000D01*
X282000Y303000D01*
Y306000D01*
X283500Y307500D01*
X293000D01*
X298500Y302000D01*
X309000D01*
X310000Y303000D01*
Y308500D01*
X311500Y310000D01*
X318000D01*
X319500Y308500D01*
Y303000D01*
X320500Y302000D01*
X384500D01*
X385500Y301000D01*
Y297500D01*
X384000Y296000D01*
X380500D01*
X380000Y296500D01*
X302000D01*
X298000Y292500D01*
Y263000D01*
X307000Y254000D01*
Y186000D01*
X303500Y182500D01*
X297000D01*
X295000Y184500D01*
Y187000D01*
X299500Y191500D01*
Y215500D01*
X287000Y228000D01*
X275000Y240000D01*
X217500D01*
Y213500D01*
X216000Y212000D01*
X212500D01*
X211000Y213500D01*
X211000Y248000D01*
X209000Y250000D01*
X173000D01*
X171500Y251500D01*
Y256000D01*
X172500Y257000D01*
X177000D01*
X179000Y255000D01*
X226500D01*
X227000Y255500D01*
Y258000D01*
X226058Y258942D01*
X226082Y259000D01*
D01*
Y259000D01*
Y272757D01*
X226082Y272757D01*
X226000Y272956D01*
Y274704D01*
X226059Y275000D01*
X226000Y275296D01*
Y277044D01*
X226082Y277243D01*
Y281545D01*
X226000Y281744D01*
Y283000D01*
X210534Y298466D01*
X210000Y299032D01*
Y307000D01*
X209000Y308000D01*
Y310469D01*
X209948Y311418D01*
X210617D01*
X210816Y311500D01*
X211031D01*
X211319Y311619D01*
X212081D01*
X212369Y311500D01*
D02*
G37*
G36*
X167000Y258000D02*
Y255000D01*
X170418Y251582D01*
Y251500D01*
X170735Y250735D01*
X170735Y250735D01*
X172235Y249235D01*
X173000Y248918D01*
X186000D01*
Y241000D01*
X182500Y237500D01*
X160500D01*
X156000Y242000D01*
X136500D01*
X112000Y217500D01*
Y208500D01*
X106000Y202500D01*
Y134000D01*
X117000Y123000D01*
X139500Y123000D01*
X160000Y143500D01*
X175500D01*
X187000Y155000D01*
Y178000D01*
X182500Y182500D01*
Y189500D01*
X183500Y190500D01*
X196000D01*
X197000Y189500D01*
Y182000D01*
X193000Y178000D01*
Y148500D01*
X184500Y140000D01*
Y137000D01*
X188000Y133500D01*
X214000D01*
X216500Y136000D01*
Y156500D01*
X221500Y161500D01*
X231500D01*
X236000Y166000D01*
Y178500D01*
X244500Y187000D01*
X264000D01*
X265500Y185500D01*
Y180000D01*
X264000Y178000D01*
X246000D01*
X242500Y174500D01*
Y132000D01*
X240500Y130000D01*
X235500D01*
X233500Y132000D01*
Y149500D01*
X230500Y153000D01*
X224500D01*
X222000Y150500D01*
Y133000D01*
X216500Y127500D01*
X206796D01*
X206500Y127559D01*
X206204Y127500D01*
X184500D01*
X176500Y135500D01*
X167000Y135500D01*
X146500Y115000D01*
X111000D01*
X88500Y137500D01*
X77000D01*
X64500Y150000D01*
Y174000D01*
X81500Y191000D01*
X96000D01*
Y214000D01*
X130000Y248000D01*
X153000D01*
Y259000D01*
X153500Y259500D01*
X155500Y261000D01*
X164000D01*
X167000Y258000D01*
D02*
G37*
%LPC*%
G36*
X207062Y317455D02*
X205868D01*
X204766Y316998D01*
X203922Y316154D01*
X203465Y315052D01*
Y313858D01*
X203922Y312756D01*
X204766Y311912D01*
X205868Y311455D01*
X207062D01*
X208164Y311912D01*
X209008Y312756D01*
X209465Y313858D01*
Y315052D01*
X209008Y316154D01*
X208164Y316998D01*
X207062Y317455D01*
D02*
G37*
G36*
X210097Y278000D02*
X208903D01*
X207801Y277543D01*
X206957Y276699D01*
X206500Y275597D01*
Y274403D01*
X206957Y273301D01*
X207801Y272457D01*
X208903Y272000D01*
X210097D01*
X211199Y272457D01*
X212043Y273301D01*
X212500Y274403D01*
Y275597D01*
X212043Y276699D01*
X211199Y277543D01*
X210097Y278000D01*
D02*
G37*
G36*
X239000Y258000D02*
X242500Y254500D01*
X242500D01*
X239000Y258000D01*
D02*
G37*
G36*
X296000Y247059D02*
X294830Y246826D01*
X293837Y246163D01*
X293174Y245170D01*
X292941Y244000D01*
X293174Y242829D01*
X293837Y241837D01*
X294830Y241174D01*
X296000Y240941D01*
X297171Y241174D01*
X298163Y241837D01*
X298826Y242829D01*
X299059Y244000D01*
X298826Y245170D01*
X298163Y246163D01*
X297171Y246826D01*
X296000Y247059D01*
D02*
G37*
G36*
X71648Y177681D02*
X70477Y177448D01*
X69485Y176785D01*
X68822Y175793D01*
X68589Y174622D01*
X68822Y173452D01*
X69485Y172459D01*
X70477Y171796D01*
X71648Y171563D01*
X72818Y171796D01*
X73811Y172459D01*
X74474Y173452D01*
X74707Y174622D01*
X74474Y175793D01*
X73811Y176785D01*
X72818Y177448D01*
X71648Y177681D01*
D02*
G37*
G36*
X93782Y156171D02*
X92612Y155938D01*
X91619Y155275D01*
X90956Y154283D01*
X90723Y153112D01*
X90956Y151941D01*
X91619Y150949D01*
X92612Y150286D01*
X93782Y150053D01*
X94953Y150286D01*
X95945Y150949D01*
X96608Y151941D01*
X96841Y153112D01*
X96608Y154283D01*
X95945Y155275D01*
X94953Y155938D01*
X93782Y156171D01*
D02*
G37*
G36*
X72139Y151198D02*
X70968Y150965D01*
X69976Y150302D01*
X69313Y149310D01*
X69080Y148139D01*
X69313Y146969D01*
X69976Y145976D01*
X70968Y145313D01*
X72139Y145080D01*
X73310Y145313D01*
X74302Y145976D01*
X74965Y146969D01*
X75198Y148139D01*
X74965Y149310D01*
X74302Y150302D01*
X73310Y150965D01*
X72139Y151198D01*
D02*
G37*
%LPD*%
D10*
X223000Y299933D02*
X227933Y295000D01*
X230500D01*
X256000Y269500D01*
X283500D01*
X74000Y255500D02*
X83000Y264500D01*
X151000D01*
D12*
X228000Y290079D02*
Y290500D01*
D50*
X111500Y150500D02*
D03*
X120000Y159000D02*
D03*
Y150500D02*
D03*
Y142000D02*
D03*
X128500Y150500D02*
D03*
D65*
X386800Y269500D02*
D03*
X386400Y225500D02*
D03*
Y183500D02*
D03*
D66*
X361400Y269500D02*
D03*
X336000D02*
D03*
X361000Y225500D02*
D03*
X335600D02*
D03*
X361000Y183500D02*
D03*
X335600D02*
D03*
D67*
X283900Y104500D02*
D03*
Y79100D02*
D03*
X233100Y104500D02*
D03*
Y79100D02*
D03*
X182300Y104500D02*
D03*
Y79100D02*
D03*
X156900Y104500D02*
D03*
X207700Y79100D02*
D03*
Y104500D02*
D03*
X258500Y79100D02*
D03*
Y104500D02*
D03*
X309300Y79100D02*
D03*
X334700D02*
D03*
X309300Y104500D02*
D03*
X334700D02*
D03*
D68*
X156900Y79100D02*
D03*
D69*
X387000Y440500D02*
D03*
X40000D02*
D03*
X387000Y40000D02*
D03*
X40000D02*
D03*
D70*
X238200Y309700D02*
D03*
X232900D02*
D03*
X238313Y304678D02*
D03*
X283000Y290500D02*
D03*
X268574Y304333D02*
D03*
X180500Y335543D02*
D03*
X140378Y365817D02*
D03*
X128378Y312817D02*
D03*
X181477Y353021D02*
D03*
X200300Y315003D02*
D03*
X204004Y331039D02*
D03*
X194269Y340519D02*
D03*
X203500Y59500D02*
D03*
X227519Y59855D02*
D03*
X258500Y307500D02*
D03*
X134000Y118000D02*
D03*
Y108000D02*
D03*
X226900Y314571D02*
D03*
X223000Y299933D02*
D03*
X199000Y333300D02*
D03*
X199156Y338700D02*
D03*
X116500Y258000D02*
D03*
X86000Y122000D02*
D03*
X351000Y250500D02*
D03*
X311000Y326000D02*
D03*
X251000Y233500D02*
D03*
X175500Y223000D02*
D03*
X403000Y400500D02*
D03*
X378000Y350500D02*
D03*
X403000Y300500D02*
D03*
X378000Y250500D02*
D03*
X403000Y100500D02*
D03*
X328000Y450500D02*
D03*
X353000Y400500D02*
D03*
X328000Y350500D02*
D03*
X353000Y200500D02*
D03*
X328000Y150500D02*
D03*
Y50500D02*
D03*
X278000Y450500D02*
D03*
X303000Y400500D02*
D03*
X278000Y50500D02*
D03*
X228000Y450500D02*
D03*
X253000Y400500D02*
D03*
X228000Y350500D02*
D03*
Y50500D02*
D03*
X178000Y450500D02*
D03*
X203000Y400500D02*
D03*
X178000Y50500D02*
D03*
X128000Y450500D02*
D03*
X153000Y400500D02*
D03*
X128000Y250500D02*
D03*
X153000Y200500D02*
D03*
X128000Y50500D02*
D03*
X78000Y450500D02*
D03*
X103000Y400500D02*
D03*
X78000Y350500D02*
D03*
Y250500D02*
D03*
Y50500D02*
D03*
X53000Y400500D02*
D03*
X28000Y350500D02*
D03*
X53000Y300500D02*
D03*
X28000Y250500D02*
D03*
X53000Y200500D02*
D03*
X28000Y150500D02*
D03*
X199500Y262000D02*
D03*
X230000D02*
D03*
X206465Y314455D02*
D03*
X221000Y215000D02*
D03*
X235500D02*
D03*
X229000D02*
D03*
X213841D02*
D03*
X202500D02*
D03*
X195500Y301500D02*
D03*
X196340Y292539D02*
D03*
X165500Y247500D02*
D03*
X150500Y275500D02*
D03*
X142000Y176500D02*
D03*
X71500Y165000D02*
D03*
X71648Y174622D02*
D03*
X101000Y210500D02*
D03*
X109500D02*
D03*
X74500Y306500D02*
D03*
X113855Y306376D02*
D03*
X75500Y366500D02*
D03*
X114855Y366376D02*
D03*
X108355Y336376D02*
D03*
X298558Y311880D02*
D03*
X190000Y183000D02*
D03*
X206500Y124500D02*
D03*
X238500Y151500D02*
D03*
Y135500D02*
D03*
X224500Y158000D02*
D03*
X275000Y177500D02*
D03*
X259500Y183000D02*
D03*
X262500Y191000D02*
D03*
X182000Y261000D02*
D03*
X174500Y254000D02*
D03*
X207500Y148500D02*
D03*
X202408Y139383D02*
D03*
X261000Y124500D02*
D03*
X301000Y186500D02*
D03*
X294500Y212000D02*
D03*
X159000Y256000D02*
D03*
X176000Y243000D02*
D03*
X292000Y194500D02*
D03*
X305000Y164500D02*
D03*
X261000Y156500D02*
D03*
X153500Y176500D02*
D03*
X179408Y162383D02*
D03*
X177408Y139383D02*
D03*
X105500Y219000D02*
D03*
X150500Y300000D02*
D03*
X130500Y226500D02*
D03*
X285500Y355000D02*
D03*
X324000Y251500D02*
D03*
X345000Y291000D02*
D03*
X275500Y289000D02*
D03*
Y295000D02*
D03*
Y301000D02*
D03*
X364500Y290500D02*
D03*
X283500Y269500D02*
D03*
X238200Y319300D02*
D03*
X278000Y307000D02*
D03*
X261200Y331700D02*
D03*
X229500Y331000D02*
D03*
X214500Y262000D02*
D03*
X205500D02*
D03*
X211700Y309701D02*
D03*
X209500Y275000D02*
D03*
X221000Y262000D02*
D03*
X223000Y275000D02*
D03*
X284500Y304500D02*
D03*
X247500Y300000D02*
D03*
X228000Y290500D02*
D03*
X236000Y262000D02*
D03*
X206500Y234000D02*
D03*
X221500D02*
D03*
X236500D02*
D03*
X217408Y173279D02*
D03*
X199908Y155883D02*
D03*
X171000Y298500D02*
D03*
X293000Y312000D02*
D03*
X382000Y299500D02*
D03*
X258000Y243000D02*
D03*
X293000Y258000D02*
D03*
X290000Y243000D02*
D03*
X296000Y244000D02*
D03*
X93782Y153112D02*
D03*
X261000Y140500D02*
D03*
X267921Y140469D02*
D03*
X320088Y208669D02*
D03*
X378000Y313500D02*
D03*
X352000Y311500D02*
D03*
X303000Y221500D02*
D03*
X336228Y340925D02*
D03*
X362228Y338925D02*
D03*
X86000Y141500D02*
D03*
X76000Y236500D02*
D03*
X70000Y246500D02*
D03*
X72139Y148139D02*
D03*
X74000Y255500D02*
D03*
X148000Y153000D02*
D03*
X151000Y264500D02*
D03*
X357718Y315040D02*
D03*
X332768Y315628D02*
D03*
X154320Y296430D02*
D03*
X158440Y293130D02*
D03*
X272000Y330500D02*
D03*
X71000Y272500D02*
D03*
X64000D02*
D03*
Y280500D02*
D03*
X71000D02*
D03*
X118059Y245196D02*
D03*
X315000Y306000D02*
D03*
X222300Y309700D02*
D03*
X217000D02*
D03*
X206400Y304900D02*
D03*
X162500Y289500D02*
D03*
M02*
