G04*
G04 #@! TF.GenerationSoftware,Altium Limited,Altium Designer,24.2.2 (26)*
G04*
G04 Layer_Physical_Order=1*
G04 Layer_Color=255*
%FSLAX44Y44*%
%MOMM*%
G71*
G04*
G04 #@! TF.SameCoordinates,6EDC250C-81D3-48BC-95F6-F0A130F5604E*
G04*
G04*
G04 #@! TF.FilePolarity,Positive*
G04*
G01*
G75*
%ADD10C,0.1000*%
%ADD12C,0.2000*%
%ADD17C,0.2000*%
%ADD18R,0.9000X0.8000*%
%ADD19R,0.5000X0.2500*%
%ADD20R,0.5000X0.4500*%
%ADD21R,0.7500X0.2500*%
%ADD22R,2.0000X0.6000*%
%ADD23R,4.2000X0.7000*%
%ADD24R,0.3800X0.4800*%
%ADD25R,0.4800X0.3800*%
%ADD26R,0.5000X0.3750*%
%ADD49C,0.1168*%
%ADD50C,0.5000*%
G04:AMPARAMS|DCode=51|XSize=0.25mm|YSize=0.4mm|CornerRadius=0.0625mm|HoleSize=0mm|Usage=FLASHONLY|Rotation=180.000|XOffset=0mm|YOffset=0mm|HoleType=Round|Shape=RoundedRectangle|*
%AMROUNDEDRECTD51*
21,1,0.2500,0.2750,0,0,180.0*
21,1,0.1250,0.4000,0,0,180.0*
1,1,0.1250,-0.0625,0.1375*
1,1,0.1250,0.0625,0.1375*
1,1,0.1250,0.0625,-0.1375*
1,1,0.1250,-0.0625,-0.1375*
%
%ADD51ROUNDEDRECTD51*%
G04:AMPARAMS|DCode=52|XSize=0.4mm|YSize=0.7mm|CornerRadius=0.1mm|HoleSize=0mm|Usage=FLASHONLY|Rotation=90.000|XOffset=0mm|YOffset=0mm|HoleType=Round|Shape=RoundedRectangle|*
%AMROUNDEDRECTD52*
21,1,0.4000,0.5000,0,0,90.0*
21,1,0.2000,0.7000,0,0,90.0*
1,1,0.2000,0.2500,0.1000*
1,1,0.2000,0.2500,-0.1000*
1,1,0.2000,-0.2500,-0.1000*
1,1,0.2000,-0.2500,0.1000*
%
%ADD52ROUNDEDRECTD52*%
G04:AMPARAMS|DCode=53|XSize=0.4mm|YSize=0.7mm|CornerRadius=0.1mm|HoleSize=0mm|Usage=FLASHONLY|Rotation=180.000|XOffset=0mm|YOffset=0mm|HoleType=Round|Shape=RoundedRectangle|*
%AMROUNDEDRECTD53*
21,1,0.4000,0.5000,0,0,180.0*
21,1,0.2000,0.7000,0,0,180.0*
1,1,0.2000,-0.1000,0.2500*
1,1,0.2000,0.1000,0.2500*
1,1,0.2000,0.1000,-0.2500*
1,1,0.2000,-0.1000,-0.2500*
%
%ADD53ROUNDEDRECTD53*%
G04:AMPARAMS|DCode=54|XSize=0.25mm|YSize=0.4mm|CornerRadius=0.0625mm|HoleSize=0mm|Usage=FLASHONLY|Rotation=270.000|XOffset=0mm|YOffset=0mm|HoleType=Round|Shape=RoundedRectangle|*
%AMROUNDEDRECTD54*
21,1,0.2500,0.2750,0,0,270.0*
21,1,0.1250,0.4000,0,0,270.0*
1,1,0.1250,-0.1375,-0.0625*
1,1,0.1250,-0.1375,0.0625*
1,1,0.1250,0.1375,0.0625*
1,1,0.1250,0.1375,-0.0625*
%
%ADD54ROUNDEDRECTD54*%
%AMCUSTOMSHAPE55*
4,1,5,0.1550,0.1400,-0.1550,0.1400,-0.1550,-0.1349,0.0301,-0.3200,0.1550,-0.3200,0.1550,0.1400,0.0*%
%ADD55CUSTOMSHAPE55*%

%AMCUSTOMSHAPE56*
4,1,5,0.1550,-0.1400,-0.1550,-0.1400,-0.1550,0.1349,0.0301,0.3200,0.1550,0.3200,0.1550,-0.1400,0.0*%
%ADD56CUSTOMSHAPE56*%

%AMCUSTOMSHAPE57*
4,1,5,-0.1550,0.1400,0.1550,0.1400,0.1550,-0.1349,-0.0301,-0.3200,-0.1550,-0.3200,-0.1550,0.1400,0.0*%
%ADD57CUSTOMSHAPE57*%

%AMCUSTOMSHAPE58*
4,1,5,-0.1550,-0.1400,0.1550,-0.1400,0.1550,0.1349,-0.0301,0.3200,-0.1550,0.3200,-0.1550,-0.1400,0.0*%
%ADD58CUSTOMSHAPE58*%

%ADD59P,0.8202X4X360.0*%
%ADD60R,0.1500X0.2500*%
%ADD61R,0.2500X0.1500*%
%ADD62R,0.2500X0.5000*%
%ADD63R,0.2700X0.3000*%
%ADD64C,0.1500*%
G04:AMPARAMS|DCode=65|XSize=1.6mm|YSize=1.6mm|CornerRadius=0.4mm|HoleSize=0mm|Usage=FLASHONLY|Rotation=180.000|XOffset=0mm|YOffset=0mm|HoleType=Round|Shape=RoundedRectangle|*
%AMROUNDEDRECTD65*
21,1,1.6000,0.8000,0,0,180.0*
21,1,0.8000,1.6000,0,0,180.0*
1,1,0.8000,-0.4000,0.4000*
1,1,0.8000,0.4000,0.4000*
1,1,0.8000,0.4000,-0.4000*
1,1,0.8000,-0.4000,-0.4000*
%
%ADD65ROUNDEDRECTD65*%
%ADD66C,1.6000*%
%ADD67C,1.6500*%
G04:AMPARAMS|DCode=68|XSize=1.65mm|YSize=1.65mm|CornerRadius=0.4125mm|HoleSize=0mm|Usage=FLASHONLY|Rotation=180.000|XOffset=0mm|YOffset=0mm|HoleType=Round|Shape=RoundedRectangle|*
%AMROUNDEDRECTD68*
21,1,1.6500,0.8250,0,0,180.0*
21,1,0.8250,1.6500,0,0,180.0*
1,1,0.8250,-0.4125,0.4125*
1,1,0.8250,0.4125,0.4125*
1,1,0.8250,0.4125,-0.4125*
1,1,0.8250,-0.4125,-0.4125*
%
%ADD68ROUNDEDRECTD68*%
%ADD69C,5.0000*%
%ADD70C,0.4000*%
G36*
X423941Y215933D02*
Y3059D01*
X3059D01*
X3059Y288000D01*
Y477441D01*
X423941D01*
Y215933D01*
D02*
G37*
%LPC*%
G36*
X389561Y466500D02*
X384439D01*
X379416Y465501D01*
X374684Y463541D01*
X370426Y460695D01*
X366805Y457074D01*
X363959Y452816D01*
X361999Y448084D01*
X361000Y443061D01*
Y437939D01*
X361999Y432916D01*
X363959Y428184D01*
X366805Y423926D01*
X370426Y420304D01*
X374684Y417459D01*
X379416Y415499D01*
X384439Y414500D01*
X389561D01*
X394584Y415499D01*
X399316Y417459D01*
X403574Y420304D01*
X407196Y423926D01*
X410041Y428184D01*
X412001Y432916D01*
X413000Y437939D01*
Y443061D01*
X412001Y448084D01*
X410041Y452816D01*
X407196Y457074D01*
X403574Y460695D01*
X399316Y463541D01*
X394584Y465501D01*
X389561Y466500D01*
D02*
G37*
G36*
X42561D02*
X37439D01*
X32416Y465501D01*
X27684Y463541D01*
X23426Y460695D01*
X19805Y457074D01*
X16959Y452816D01*
X14999Y448084D01*
X14000Y443061D01*
Y437939D01*
X14999Y432916D01*
X16959Y428184D01*
X19805Y423926D01*
X23426Y420304D01*
X27684Y417459D01*
X32416Y415499D01*
X37439Y414500D01*
X42561D01*
X47584Y415499D01*
X52316Y417459D01*
X56574Y420304D01*
X60195Y423926D01*
X63041Y428184D01*
X65001Y432916D01*
X66000Y437939D01*
Y443061D01*
X65001Y448084D01*
X63041Y452816D01*
X60195Y457074D01*
X56574Y460695D01*
X52316Y463541D01*
X47584Y465501D01*
X42561Y466500D01*
D02*
G37*
G36*
X72097Y168000D02*
X70903D01*
X69801Y167543D01*
X68957Y166699D01*
X68500Y165597D01*
Y164403D01*
X68957Y163301D01*
X69801Y162457D01*
X70903Y162000D01*
X72097D01*
X73199Y162457D01*
X74043Y163301D01*
X74500Y164403D01*
Y165597D01*
X74043Y166699D01*
X73199Y167543D01*
X72097Y168000D01*
D02*
G37*
G36*
X86597Y144500D02*
X85403D01*
X84301Y144043D01*
X83457Y143199D01*
X83000Y142097D01*
Y140903D01*
X83457Y139801D01*
X84301Y138957D01*
X85403Y138500D01*
X86597D01*
X87699Y138957D01*
X88543Y139801D01*
X89000Y140903D01*
Y142097D01*
X88543Y143199D01*
X87699Y144043D01*
X86597Y144500D01*
D02*
G37*
G36*
X277500Y394000D02*
X51500D01*
X36500Y379000D01*
Y288000D01*
X45500Y279000D01*
Y204500D01*
X106454D01*
X132500Y178454D01*
Y120626D01*
X132301Y120543D01*
X131457Y119699D01*
X131000Y118597D01*
Y117403D01*
X131457Y116301D01*
X132301Y115457D01*
X132500Y115374D01*
Y68296D01*
X106124Y94672D01*
Y143000D01*
X105648Y144148D01*
X96782Y153014D01*
Y153709D01*
X96325Y154811D01*
X95482Y155655D01*
X94379Y156112D01*
X93185D01*
X92083Y155655D01*
X91239Y154811D01*
X90782Y153709D01*
Y152515D01*
X91239Y151413D01*
X92083Y150569D01*
X93185Y150112D01*
X94379D01*
X94883Y150321D01*
X102876Y142327D01*
Y94000D01*
X103352Y92852D01*
X132500Y63704D01*
Y55000D01*
X140700Y46800D01*
X332800D01*
X407500Y121500D01*
Y215933D01*
Y317200D01*
X386867Y345000D01*
X326500D01*
X277500Y394000D01*
D02*
G37*
G36*
X389561Y66000D02*
X384439D01*
X379416Y65001D01*
X374684Y63041D01*
X370426Y60195D01*
X366805Y56574D01*
X363959Y52316D01*
X361999Y47584D01*
X361000Y42561D01*
Y37439D01*
X361999Y32416D01*
X363959Y27684D01*
X366805Y23426D01*
X370426Y19805D01*
X374684Y16959D01*
X379416Y14999D01*
X384439Y14000D01*
X389561D01*
X394584Y14999D01*
X399316Y16959D01*
X403574Y19805D01*
X407196Y23426D01*
X410041Y27684D01*
X412001Y32416D01*
X413000Y37439D01*
Y42561D01*
X412001Y47584D01*
X410041Y52316D01*
X407196Y56574D01*
X403574Y60195D01*
X399316Y63041D01*
X394584Y65001D01*
X389561Y66000D01*
D02*
G37*
G36*
X42561D02*
X37439D01*
X32416Y65001D01*
X27684Y63041D01*
X23426Y60195D01*
X19805Y56574D01*
X16959Y52316D01*
X14999Y47584D01*
X14000Y42561D01*
Y37439D01*
X14999Y32416D01*
X16959Y27684D01*
X19805Y23426D01*
X23426Y19805D01*
X27684Y16959D01*
X32416Y14999D01*
X37439Y14000D01*
X42561D01*
X47584Y14999D01*
X52316Y16959D01*
X56574Y19805D01*
X60195Y23426D01*
X63041Y27684D01*
X65001Y32416D01*
X66000Y37439D01*
Y42561D01*
X65001Y47584D01*
X63041Y52316D01*
X60195Y56574D01*
X56574Y60195D01*
X52316Y63041D01*
X47584Y65001D01*
X42561Y66000D01*
D02*
G37*
%LPD*%
G36*
X281000Y338325D02*
X281000Y327946D01*
X280566Y327512D01*
X279012D01*
X266850Y315350D01*
Y312100D01*
X263050D01*
Y326628D01*
X275872Y339450D01*
X279875D01*
X281000Y338325D01*
D02*
G37*
G36*
X302000Y313875D02*
Y302500D01*
X298500Y299000D01*
Y291500D01*
X298000Y291000D01*
X289000D01*
Y299500D01*
X290500Y301000D01*
Y315500D01*
X292000Y317000D01*
X299500D01*
X302000Y313875D01*
D02*
G37*
G36*
X81000Y279500D02*
X97000D01*
Y273500D01*
X81000Y273500D01*
X75000Y265500D01*
X60000D01*
X56000Y269500D01*
Y282500D01*
X60000Y286500D01*
X75000D01*
X81000Y279500D01*
D02*
G37*
G36*
X222664Y259948D02*
X220168Y257452D01*
X219718D01*
Y252652D01*
X215992D01*
X215918Y252726D01*
Y257452D01*
X215464Y257452D01*
X212664Y260253D01*
Y264140D01*
X222664D01*
Y259948D01*
D02*
G37*
G36*
X237646Y259896D02*
X235150Y257400D01*
X234700D01*
Y252600D01*
X230974D01*
X230900Y252674D01*
Y257400D01*
X230446Y257400D01*
X227646Y260200D01*
Y264088D01*
X237646D01*
Y259896D01*
D02*
G37*
G36*
X207632Y259881D02*
X205136Y257385D01*
X204686D01*
Y252585D01*
X200960D01*
X200886Y252659D01*
Y257385D01*
X200432Y257385D01*
X197632Y260185D01*
Y264072D01*
X207632D01*
Y259881D01*
D02*
G37*
G36*
X175000Y248000D02*
X188000D01*
Y244000D01*
X191595Y240405D01*
Y236500D01*
X186000D01*
X183500Y239000D01*
X165000D01*
X149000Y255000D01*
X149000Y260000D01*
X163000D01*
X175000Y248000D01*
D02*
G37*
G36*
X242600Y257400D02*
Y237655D01*
X241238Y236293D01*
X240051D01*
X238232Y238112D01*
Y240893D01*
X238221Y240903D01*
X238800Y241482D01*
X238800Y257400D01*
X242600Y257400D01*
D02*
G37*
G36*
X227600D02*
Y237655D01*
X226238Y236293D01*
X225051D01*
X223232Y238112D01*
Y240893D01*
X223221Y240903D01*
X223800Y241482D01*
X223800Y257400D01*
X227600Y257400D01*
D02*
G37*
G36*
X212600Y257400D02*
Y237655D01*
X211238Y236293D01*
X210051D01*
X208232Y238112D01*
Y240893D01*
X208221Y240903D01*
X208800Y241482D01*
X208800Y257400D01*
X212600Y257400D01*
D02*
G37*
G36*
X234789Y239792D02*
X240585Y233996D01*
X239685Y233096D01*
X236798Y230270D01*
X236493Y229905D01*
X233613Y232785D01*
X232959D01*
X232949Y232789D01*
X231700D01*
X231690Y232785D01*
X226310D01*
X226300Y232789D01*
X226039D01*
X225056Y232813D01*
X225043Y232808D01*
X225030Y232813D01*
X224963Y232785D01*
X224369D01*
X221494Y229910D01*
X218619Y232785D01*
X217959D01*
X217949Y232789D01*
X216700D01*
X216690Y232785D01*
X211310D01*
X211300Y232789D01*
X210051D01*
X210041Y232785D01*
X209376D01*
X206495Y229904D01*
X201700Y234699D01*
Y240893D01*
X200900Y241693D01*
X200900Y248400D01*
X204803D01*
Y239798D01*
X209597Y235005D01*
X215516D01*
X216700Y236189D01*
Y240928D01*
X215906Y241722D01*
Y248395D01*
X219806D01*
Y239806D01*
X221543Y238070D01*
X221582D01*
Y238031D01*
X225063Y234550D01*
X229957D01*
X231700Y236293D01*
Y242881D01*
X230900Y243681D01*
Y248400D01*
X234789D01*
Y239792D01*
D02*
G37*
G36*
X118500Y229500D02*
Y212000D01*
X114000Y207500D01*
X98000D01*
X96500Y209000D01*
Y220500D01*
X94500Y223500D01*
Y229500D01*
X97000Y230500D01*
X117500D01*
X118500Y229500D01*
D02*
G37*
G36*
X195256Y220807D02*
X198052Y218011D01*
X199472D01*
X199998Y216740D01*
X199957Y216699D01*
X199500Y215597D01*
Y214403D01*
X199957Y213301D01*
X200801Y212457D01*
X201903Y212000D01*
X203097D01*
X204199Y212457D01*
X205043Y213301D01*
X205500Y214403D01*
Y215597D01*
X205043Y216699D01*
X205002Y216740D01*
X205445Y218011D01*
X207230D01*
X208800Y219580D01*
Y226508D01*
X208200Y227108D01*
Y229866D01*
X210030Y231696D01*
X211300Y231666D01*
Y227118D01*
X212476Y225941D01*
Y217682D01*
X212142Y217543D01*
X211298Y216699D01*
X210842Y215597D01*
Y214403D01*
X211298Y213301D01*
X212142Y212457D01*
X213245Y212000D01*
X214438D01*
X215541Y212457D01*
X216385Y213301D01*
X216786Y214269D01*
X217421Y214339D01*
X218056Y214269D01*
X218457Y213301D01*
X219301Y212457D01*
X220403Y212000D01*
X221597D01*
X222699Y212457D01*
X223543Y213301D01*
X224000Y214403D01*
Y215597D01*
X223543Y216699D01*
X223211Y217032D01*
X222753Y217668D01*
X223200Y218703D01*
X223800Y219303D01*
Y224411D01*
X223200Y225011D01*
X223200Y229901D01*
X225030Y231731D01*
X226300Y231701D01*
Y227152D01*
X227579Y225873D01*
Y219611D01*
X227777Y219414D01*
Y217740D01*
X227301Y217543D01*
X226457Y216699D01*
X226000Y215597D01*
Y214403D01*
X226457Y213301D01*
X227301Y212457D01*
X228403Y212000D01*
X229597D01*
X230699Y212457D01*
X231543Y213301D01*
X231563Y213347D01*
X232937D01*
X232957Y213301D01*
X233801Y212457D01*
X234903Y212000D01*
X236097D01*
X237199Y212457D01*
X238043Y213301D01*
X238500Y214403D01*
Y215597D01*
X238043Y216699D01*
X237774Y216968D01*
X237341Y217788D01*
X237808Y218594D01*
X238824Y219611D01*
X238814Y219621D01*
Y224391D01*
X238200Y225007D01*
Y229866D01*
X240030Y231696D01*
X241300Y231666D01*
Y227118D01*
X242600Y225818D01*
Y213216D01*
X235940Y206557D01*
X200277Y206557D01*
X190190Y216644D01*
Y232507D01*
X195256D01*
Y220807D01*
D02*
G37*
D10*
X235400Y296138D02*
X238538Y293000D01*
X227600Y309700D02*
X230400Y312500D01*
Y325866D01*
X227600Y309700D02*
X227854D01*
X230400Y325866D02*
X233034Y328500D01*
X227854Y309700D02*
X228007Y309547D01*
X235400Y296138D02*
Y302400D01*
X232900Y304900D02*
X235400Y302400D01*
X187765Y282265D02*
Y288265D01*
X192039Y292539D02*
X196340D01*
X187765Y288265D02*
X192039Y292539D01*
X187000Y281500D02*
X187765Y282265D01*
X156448Y173552D02*
Y173552D01*
X156882Y104518D02*
Y173118D01*
X153500Y176500D02*
X156448Y173552D01*
Y173552D02*
X156882Y173118D01*
X259987Y55000D02*
X271387Y66400D01*
X143500Y55000D02*
X259987D01*
X104500Y94000D02*
X143500Y55000D01*
X195000Y68000D02*
X203500Y59500D01*
X195000Y68000D02*
Y150975D01*
X219000Y68942D02*
X228378Y59565D01*
Y59565D02*
Y59565D01*
X219000Y68942D02*
Y144500D01*
X222000Y71500D02*
X227100Y66400D01*
X245800D01*
X258500Y79100D01*
X222000Y147500D02*
X234100Y159600D01*
X222000Y71500D02*
Y147500D01*
X246500Y92500D02*
Y110500D01*
X233100Y79100D02*
X246500Y92500D01*
X233000Y124000D02*
Y140500D01*
Y124000D02*
X246500Y110500D01*
X271387Y66400D02*
Y91987D01*
X283900Y104500D01*
Y79100D02*
X296500Y91700D01*
X290606Y118500D02*
X296500Y112606D01*
Y91700D02*
Y112606D01*
X247150Y118500D02*
X290606D01*
X134500Y226500D02*
X169000Y192000D01*
Y91200D02*
Y192000D01*
X156900Y79100D02*
X169000Y91200D01*
X352000Y311500D02*
Y312300D01*
X353286Y313586D01*
Y321886D01*
X354000Y322600D01*
X209500Y275000D02*
Y279383D01*
Y274500D02*
Y275000D01*
X219499Y291687D02*
Y299063D01*
X219500Y299065D02*
Y301136D01*
X219499Y301137D02*
X219500Y301136D01*
X219499Y291687D02*
X231186Y280000D01*
X219499Y302099D02*
X222300Y304900D01*
X219499Y301137D02*
Y302099D01*
Y299063D02*
X219500Y299065D01*
X199500Y262000D02*
X200000Y262500D01*
Y268000D01*
X195500Y272500D02*
X200000Y268000D01*
X229400Y214900D02*
Y225021D01*
X229000Y214500D02*
X229400Y214900D01*
X213841Y215031D02*
X214100Y215289D01*
Y227600D01*
X215007Y228507D01*
X218250D01*
X260000Y200500D02*
X265500Y206000D01*
X143050Y238950D02*
X181500Y200500D01*
X260000D01*
X229400Y225021D02*
X232886Y228507D01*
X233250D01*
X81000Y266500D02*
X93500D01*
X74000Y259500D02*
X81000Y266500D01*
X207500Y148500D02*
X215000D01*
X219000Y144500D01*
X252900Y167600D02*
Y172914D01*
X252314Y173500D02*
X252900Y172914D01*
X230500Y173500D02*
X252314D01*
X210500Y153500D02*
X227500Y170500D01*
Y170500D02*
X230500Y173500D01*
X198500Y147500D02*
X204500Y153500D01*
X210500D01*
X195000Y150975D02*
X199908Y155883D01*
X198500Y126500D02*
X200500Y124500D01*
X198500Y126500D02*
Y147500D01*
X200500Y124500D02*
X206500D01*
X234100Y159600D02*
X245000D01*
X233000Y140500D02*
X236000Y143500D01*
X262500Y191000D02*
X263000Y191500D01*
X274000D01*
X287050Y178450D01*
X274000Y205000D02*
Y246000D01*
X178500Y196000D02*
X265000D01*
X274000Y205000D01*
X261000Y124500D02*
X261100Y124600D01*
Y132400D02*
X261200Y132500D01*
X261100Y124600D02*
Y132400D01*
X294500Y212000D02*
Y229242D01*
X302858Y237600D01*
X287050Y178450D02*
X295000D01*
X303000D01*
X180000Y234500D02*
X193589D01*
X194175Y235086D01*
Y237470D01*
X194425Y237720D01*
X143050Y238950D02*
Y257500D01*
X135900Y238600D02*
Y257500D01*
Y238600D02*
X178500Y196000D01*
X130500Y226500D02*
X134500D01*
X292000Y194500D02*
X315000D01*
X295000Y165379D02*
X295879Y164500D01*
X305000D01*
X315250Y165086D02*
Y171250D01*
X314664Y164500D02*
X315250Y165086D01*
X305000Y164500D02*
X314664D01*
X283900Y160500D02*
Y168500D01*
X285062Y159339D02*
X376839D01*
X283900Y160500D02*
X285062Y159339D01*
X376839D02*
X387000Y169500D01*
X259079Y167600D02*
X260950Y165730D01*
X252900Y167600D02*
X259079D01*
X94000Y153500D02*
X104500Y143000D01*
Y94000D02*
Y143000D01*
X362000Y330450D02*
X378000D01*
X285500Y346200D02*
Y355000D01*
Y346200D02*
X286250Y345450D01*
X270900Y249400D02*
Y258000D01*
X269500Y248000D02*
X270900Y249400D01*
X265500Y206000D02*
Y238000D01*
X344379Y300071D02*
X345000Y299450D01*
Y291000D02*
Y299450D01*
X236633Y288696D02*
X275196D01*
X275500Y289000D01*
X269500Y295000D02*
X275500D01*
X264500Y293000D02*
X272500Y301000D01*
X238538Y293000D02*
X264500D01*
X272500Y301000D02*
X275500D01*
X265267Y290767D02*
X269500Y295000D01*
X237391Y290767D02*
X265267D01*
X269000Y271500D02*
X278050Y262450D01*
X214500Y275322D02*
X218322Y271500D01*
X269000D01*
X206000Y268000D02*
X265000D01*
X203000Y271000D02*
Y284916D01*
Y271000D02*
X206000Y268000D01*
X203000Y284916D02*
X208900Y290816D01*
X265000Y268000D02*
X270900Y262100D01*
X364500Y290500D02*
Y298950D01*
X365050Y299500D01*
X361000Y225500D02*
Y229559D01*
X296000Y244000D02*
Y250000D01*
X293000Y253000D02*
X296000Y250000D01*
Y239000D02*
Y244000D01*
X258000Y328500D02*
X261200Y331700D01*
X233034Y328500D02*
X258000D01*
X234823Y323323D02*
X235177D01*
X278000Y307000D02*
Y314200D01*
X278300Y314500D01*
X193925Y231220D02*
X196638Y228507D01*
X192675Y231220D02*
X193925D01*
X211700Y281583D02*
Y300100D01*
X209500Y279383D02*
X211700Y281583D01*
X208900Y290816D02*
Y300835D01*
X214500Y275322D02*
Y302400D01*
X217000Y281000D02*
X223000Y275000D01*
X278050Y258000D02*
Y262450D01*
X270900Y258000D02*
Y262100D01*
X278050Y253950D02*
Y258000D01*
X231186Y280000D02*
X275546D01*
X233091Y295066D02*
Y299909D01*
X230400Y294929D02*
X236633Y288696D01*
X233091Y295066D02*
X237391Y290767D01*
X230400Y294929D02*
Y302100D01*
X214500Y302400D02*
X217000Y304900D01*
X302858Y237600D02*
X306233D01*
X306233Y237600D01*
X232900Y300100D02*
X233091Y299909D01*
X217000Y281000D02*
Y300100D01*
X196638Y228507D02*
X203250D01*
X240700Y222000D02*
X249750D01*
X227600Y304900D02*
X230400Y302100D01*
X208900Y300835D02*
X211509Y303444D01*
X295000Y238000D02*
X296000Y239000D01*
X282500Y238000D02*
X295000D01*
X245000Y120650D02*
X247150Y118500D01*
X260975Y140525D02*
Y148225D01*
Y140525D02*
X261000Y140500D01*
X260950Y148250D02*
X260975Y148225D01*
X245000Y120650D02*
Y127500D01*
X236000Y143500D02*
X245000D01*
X252900Y133600D02*
X254300D01*
X260950Y164500D02*
Y165730D01*
X252900Y159600D02*
Y167600D01*
X252900Y143500D02*
Y151000D01*
X255650Y148250D01*
X260950D01*
X252900Y151000D02*
Y151500D01*
X260100Y133600D02*
X261200Y132500D01*
X254300Y133600D02*
X260100D01*
X252900Y127500D02*
Y133600D01*
Y135000D02*
X254300Y133600D01*
X252900Y135000D02*
Y135500D01*
X316129Y208669D02*
X320088D01*
X373000Y128500D02*
X404000Y159500D01*
X283950Y128500D02*
X373000D01*
X283900Y144500D02*
X375500D01*
X399000Y168000D01*
X378000Y313500D02*
Y322550D01*
X378000Y322550D02*
X378000Y322550D01*
X307050Y225550D02*
Y229500D01*
X303000Y221500D02*
X307050Y225550D01*
X295000Y165379D02*
Y170550D01*
X303700Y171250D02*
X310750D01*
X303000Y170550D02*
X303700Y171250D01*
X315415Y185965D02*
X315950Y186500D01*
X315415Y179712D02*
Y185965D01*
X313000Y178250D02*
X313953D01*
X315415Y179712D01*
X332730Y186370D02*
X335600Y183500D01*
X327514Y186500D02*
X327644Y186370D01*
X315950Y186500D02*
X327514D01*
X327644Y186370D02*
X332730D01*
X404000Y159500D02*
Y251500D01*
X384832Y270669D02*
X404000Y251500D01*
X387000Y169500D02*
Y182900D01*
X315000Y207540D02*
X316129Y208669D01*
X315000Y202400D02*
Y207540D01*
X314950Y229500D02*
X327541D01*
X314950Y229000D02*
Y229500D01*
X313000Y221250D02*
Y227050D01*
X314950Y229000D01*
X310750Y214151D02*
Y214250D01*
X308586Y213411D02*
X310009D01*
X307000Y211825D02*
X308586Y213411D01*
X310009D02*
X310750Y214151D01*
X307000Y202400D02*
Y211825D01*
X315250Y209548D02*
Y214250D01*
Y209548D02*
X316129Y208669D01*
X331541Y225500D02*
X335600D01*
X327541Y229500D02*
X331541Y225500D01*
X313000Y260250D02*
X314000Y261250D01*
Y268550D01*
X314950Y269500D02*
X336000D01*
X314000Y268550D02*
X314950Y269500D01*
X386400Y183500D02*
X387000Y182900D01*
X399000Y168000D02*
Y212900D01*
X283900Y128550D02*
Y136500D01*
Y128550D02*
X283950Y128500D01*
X268466Y145484D02*
X271450D01*
X272434Y144500D02*
X276000D01*
X267950Y146000D02*
X268466Y145484D01*
X271450D02*
X272434Y144500D01*
X283900Y144500D02*
X283900Y144500D01*
X283900Y144500D02*
Y152500D01*
X386400Y225500D02*
X399000Y212900D01*
X362000Y330450D02*
X362228Y330678D01*
X362000Y330450D02*
X362000Y330450D01*
X362228Y330678D02*
Y338925D01*
X338000Y330450D02*
X353950D01*
X336228Y340113D02*
X338000Y338340D01*
Y330450D02*
Y338340D01*
X336228Y340113D02*
Y340925D01*
X76000Y236500D02*
X93500D01*
X70000Y246500D02*
X93500D01*
X93500Y246500D01*
X106000D01*
X74000Y255500D02*
Y259500D01*
X136000Y257500D02*
Y272500D01*
X143050Y257500D02*
Y275450D01*
X166950Y265600D02*
Y273500D01*
Y265600D02*
X167050Y265500D01*
X151000Y264500D02*
X166050D01*
X167050Y265500D01*
X306233Y237600D02*
X314233D01*
X366512Y307500D02*
X366750D01*
X365050Y299500D02*
Y306038D01*
X366512Y307500D01*
X315000Y194500D02*
X315000Y194500D01*
X268768Y162250D02*
X270518Y160500D01*
X276000D01*
X267950Y162250D02*
X268768D01*
X303000Y178450D02*
X303000Y178450D01*
X344379Y300071D02*
Y306038D01*
X341750Y307500D02*
X342917D01*
X344379Y306038D01*
X369000Y321550D02*
X370000Y322550D01*
X369000Y314500D02*
Y321550D01*
X353950Y330450D02*
X354000Y330500D01*
X346000Y317318D02*
Y322550D01*
X344000Y314500D02*
Y315317D01*
X346000Y317318D01*
X278250Y345450D02*
X286250D01*
X139500Y279000D02*
X143050Y275450D01*
X124000Y279000D02*
X139500D01*
X279000Y253000D02*
X293000D01*
X274000Y246000D02*
X276000Y248000D01*
X124000Y274000D02*
X134500D01*
X136000Y272500D01*
X116000Y279000D02*
X124000D01*
X276000Y248000D02*
X282500D01*
X278050Y253950D02*
X279000Y253000D01*
X265500Y248000D02*
X269314D01*
X293000Y280000D02*
X293750Y280750D01*
X278300Y314500D02*
Y320029D01*
X280771Y322500D01*
X282000D01*
X284250Y330318D02*
X286250Y332318D01*
Y337550D01*
X284250Y329500D02*
Y330318D01*
X211509Y303444D02*
Y304709D01*
X116000Y274000D02*
X124000D01*
X93500Y236500D02*
X105000D01*
X111000Y242500D02*
Y272500D01*
X105000Y236500D02*
X111000Y242500D01*
X108000Y248500D02*
Y275500D01*
X106000Y246500D02*
X108000Y248500D01*
X112500Y274000D02*
X116000D01*
X111000Y272500D02*
X112500Y274000D01*
X108000Y275500D02*
X111500Y279000D01*
X116000D01*
X211509Y304709D02*
X211700Y304900D01*
D12*
X238200Y300100D02*
X238683Y299617D01*
X247117D01*
X247500Y300000D01*
X192993Y307696D02*
X204597Y319300D01*
X187850Y307696D02*
X192993D01*
X186950Y306500D02*
Y306796D01*
X187850Y307696D01*
X204597Y319300D02*
X206400D01*
X195500Y301500D02*
X203700Y309700D01*
X206400D01*
X238200Y314500D02*
X257050D01*
X218700Y217341D02*
Y220600D01*
X221000Y214500D02*
Y215041D01*
X218700Y217341D02*
X221000Y215041D01*
X232800Y221500D02*
X233700Y220600D01*
Y217341D02*
Y220600D01*
X235500Y215000D02*
Y215541D01*
X232800Y221500D02*
Y222000D01*
X233700Y217341D02*
X235500Y215541D01*
X217800Y221500D02*
Y222000D01*
Y221500D02*
X218700Y220600D01*
X202650Y215150D02*
Y221592D01*
X202929Y221871D01*
X202500Y215000D02*
X202650Y215150D01*
X196340Y292539D02*
Y292996D01*
X203444Y300100D01*
X206400D01*
X257050Y314500D02*
X257050Y314500D01*
D17*
X206400Y319300D02*
D03*
X211700D02*
D03*
X217000D02*
D03*
X222300D02*
D03*
X227600D02*
D03*
X238200D02*
D03*
X206400Y314500D02*
D03*
X211700D02*
D03*
X217000D02*
D03*
X222300D02*
D03*
X227600D02*
D03*
X232900D02*
D03*
X238200D02*
D03*
X206400Y309700D02*
D03*
X211700D02*
D03*
X217000D02*
D03*
X222300D02*
D03*
X227600D02*
D03*
X232900D02*
D03*
X238200D02*
D03*
X206400Y304900D02*
D03*
X211700D02*
D03*
X217000D02*
D03*
X222300D02*
D03*
X227600D02*
D03*
X232900D02*
D03*
X238200D02*
D03*
X206400Y300100D02*
D03*
X211700D02*
D03*
X217000D02*
D03*
X222300D02*
D03*
X227600D02*
D03*
X232900D02*
D03*
X238200D02*
D03*
D18*
X312250Y295250D02*
D03*
X293750D02*
D03*
Y280750D02*
D03*
X312250D02*
D03*
D19*
X192675Y231220D02*
D03*
X124000Y294000D02*
D03*
X124000Y289000D02*
D03*
Y279000D02*
D03*
X124000Y274000D02*
D03*
X116000D02*
D03*
Y279000D02*
D03*
Y289000D02*
D03*
Y294000D02*
D03*
X124000Y346500D02*
D03*
X124000Y341500D02*
D03*
Y331500D02*
D03*
X124000Y326500D02*
D03*
X116000D02*
D03*
Y331500D02*
D03*
Y341500D02*
D03*
Y346500D02*
D03*
D20*
X124000Y284000D02*
D03*
X116000D02*
D03*
X124000Y336500D02*
D03*
X116000D02*
D03*
D21*
X135500Y294000D02*
D03*
Y289000D02*
D03*
X144500Y294000D02*
D03*
Y289000D02*
D03*
X135421Y331521D02*
D03*
Y326521D02*
D03*
X144421Y331521D02*
D03*
Y326521D02*
D03*
X135494Y346482D02*
D03*
Y341482D02*
D03*
X144494Y346482D02*
D03*
Y341482D02*
D03*
D22*
X93500Y226500D02*
D03*
Y236500D02*
D03*
Y246500D02*
D03*
Y256500D02*
D03*
Y266500D02*
D03*
Y276500D02*
D03*
Y286500D02*
D03*
Y296500D02*
D03*
Y306500D02*
D03*
Y316500D02*
D03*
Y326500D02*
D03*
Y336500D02*
D03*
Y346500D02*
D03*
Y356500D02*
D03*
Y366500D02*
D03*
D23*
X72500Y216500D02*
D03*
Y376500D02*
D03*
D24*
X159050Y273500D02*
D03*
X166950D02*
D03*
X278050Y258000D02*
D03*
X285950D02*
D03*
X202800Y222000D02*
D03*
X210700D02*
D03*
X217800D02*
D03*
X225700D02*
D03*
X240700D02*
D03*
X232800D02*
D03*
X202800Y246000D02*
D03*
X210700D02*
D03*
X217800D02*
D03*
X225700D02*
D03*
X240700Y255000D02*
D03*
X232800D02*
D03*
X240700Y246000D02*
D03*
X232800D02*
D03*
X202800Y255000D02*
D03*
X210700D02*
D03*
X217800D02*
D03*
X225700D02*
D03*
X179050Y306500D02*
D03*
X186950D02*
D03*
X315450Y269000D02*
D03*
X307550D02*
D03*
X337050Y299500D02*
D03*
X344950D02*
D03*
X276000Y136500D02*
D03*
X283900D02*
D03*
X283950Y128500D02*
D03*
X276050D02*
D03*
X252900Y135500D02*
D03*
X245000D02*
D03*
X252900Y127500D02*
D03*
X245000D02*
D03*
X252900Y159600D02*
D03*
X245000D02*
D03*
X252900Y143500D02*
D03*
X245000D02*
D03*
X135900Y257500D02*
D03*
X128000D02*
D03*
X143050Y257500D02*
D03*
X150950D02*
D03*
X276000Y168500D02*
D03*
X283900D02*
D03*
X315950Y186500D02*
D03*
X308050D02*
D03*
X283900Y160500D02*
D03*
X276000D02*
D03*
X252900Y167600D02*
D03*
X245000D02*
D03*
X314950Y229500D02*
D03*
X307050D02*
D03*
X365050Y299500D02*
D03*
X372950D02*
D03*
X276000Y152500D02*
D03*
X283900D02*
D03*
X283900Y144500D02*
D03*
X276000D02*
D03*
X252900Y151500D02*
D03*
X245000D02*
D03*
X275546Y280000D02*
D03*
X283446D02*
D03*
X278300Y314500D02*
D03*
X286200D02*
D03*
X270900Y258000D02*
D03*
X263000D02*
D03*
X167050Y265500D02*
D03*
X174950D02*
D03*
X186050Y245500D02*
D03*
X193950D02*
D03*
X264950Y322500D02*
D03*
X257050D02*
D03*
X264950Y314500D02*
D03*
X257050D02*
D03*
D25*
X338000Y330450D02*
D03*
Y322550D02*
D03*
X346000Y322550D02*
D03*
Y330450D02*
D03*
X354000Y322600D02*
D03*
Y330500D02*
D03*
X314609Y245318D02*
D03*
Y237418D02*
D03*
X306233Y237420D02*
D03*
Y245320D02*
D03*
X295000Y170550D02*
D03*
Y178450D02*
D03*
X303000Y178450D02*
D03*
Y170550D02*
D03*
X378000Y330450D02*
D03*
Y322550D02*
D03*
X315000Y202400D02*
D03*
Y194500D02*
D03*
X362000Y322550D02*
D03*
Y330450D02*
D03*
X307000Y194500D02*
D03*
Y202400D02*
D03*
X370000Y330450D02*
D03*
Y322550D02*
D03*
X278250Y337550D02*
D03*
Y345450D02*
D03*
X286250Y345450D02*
D03*
Y337550D02*
D03*
X116000Y235450D02*
D03*
Y227550D02*
D03*
D26*
X265500Y248000D02*
D03*
Y243000D02*
D03*
Y238000D02*
D03*
X282500D02*
D03*
Y243000D02*
D03*
Y248000D02*
D03*
D49*
X190334Y324762D02*
G03*
X188500Y322928I0J-1834D01*
G01*
X186666Y318092D02*
G03*
X188500Y319925I0J1834D01*
G01*
X184832D02*
G03*
X186666Y318092I1834J0D01*
G01*
X184832Y322928D02*
G03*
X182998Y324762I-1834J0D01*
G01*
X170765Y324762D02*
G03*
X168930Y322928I0J-1834D01*
G01*
X160886Y318101D02*
G03*
X168930Y318101I4022J0D01*
G01*
X160886Y329663D02*
G03*
X157219Y329663I-1834J0D01*
G01*
X153197Y324762D02*
G03*
X157219Y328784I0J4022D01*
G01*
X170765Y326950D02*
G03*
X166742Y322928I0J-4022D01*
G01*
X163074Y318101D02*
G03*
X166742Y318101I1834J0D01*
G01*
X163074Y329663D02*
G03*
X155031Y329663I-4022J0D01*
G01*
X153197Y326950D02*
G03*
X155031Y328784I0J1834D01*
G01*
X175924Y344294D02*
G03*
X174090Y342460I0J-1834D01*
G01*
X172256Y339976D02*
G03*
X174090Y341810I0J1834D01*
G01*
X170422D02*
G03*
X172256Y339976I1834J0D01*
G01*
X170422Y342460D02*
G03*
X168588Y344294I-1834J0D01*
G01*
X168588D02*
G03*
X166754Y342460I0J-1834D01*
G01*
X164920Y339976D02*
G03*
X166754Y341810I0J1834D01*
G01*
X163086D02*
G03*
X164920Y339976I1834J0D01*
G01*
X163086Y342460D02*
G03*
X161252Y344294I-1834J0D01*
G01*
X190334Y324762D02*
X196870D01*
X188500Y319925D02*
Y322928D01*
X186666Y318092D02*
X186666D01*
X184832Y319925D02*
Y322928D01*
X178746Y324762D02*
X182998D01*
X178694D02*
X178746D01*
X196870D02*
X211114D01*
X178694Y326950D02*
X212020D01*
X178694Y324762D02*
Y324762D01*
X170765Y324762D02*
X178694D01*
X168930Y318101D02*
Y322928D01*
X160886Y318101D02*
Y329663D01*
X157219Y328784D02*
Y329663D01*
X151518Y324762D02*
X153197D01*
X151518D02*
Y324762D01*
X170765Y326950D02*
X178694D01*
X166742Y318101D02*
Y322928D01*
X163074Y318101D02*
Y329663D01*
X155031Y328784D02*
Y329663D01*
X151518Y326950D02*
X153197D01*
X150585Y324762D02*
X151518D01*
X151491Y326950D02*
X151518D01*
X144618Y326324D02*
X149023D01*
X150585Y324762D01*
X146921Y331521D02*
X151491Y326950D01*
X144421Y326521D02*
X144618Y326324D01*
X144421Y331521D02*
X146921D01*
X214284Y318230D02*
Y324686D01*
X212096Y320284D02*
Y323780D01*
X211114Y324762D02*
X212096Y323780D01*
X212020Y326950D02*
X214284Y324686D01*
X211859Y320047D02*
X212096Y320284D01*
X211700Y319300D02*
X211859Y319459D01*
Y320047D01*
X199852Y338498D02*
X201257Y337093D01*
X201100Y334905D02*
X215844D01*
X199695Y333500D02*
X201100Y334905D01*
X199000Y333500D02*
X199695D01*
X199156Y338498D02*
X199852D01*
X201257Y337093D02*
X216750D01*
X219716Y334127D01*
X175924Y344294D02*
X180071D01*
X174090Y341810D02*
Y342460D01*
X172256Y339976D02*
X172256D01*
X170422Y341810D02*
Y342460D01*
X168588Y344294D02*
X168588D01*
X166754Y341810D02*
Y342460D01*
X164920Y339976D02*
X164920D01*
X163086Y341810D02*
Y342460D01*
X157000Y344294D02*
X161252D01*
X180071D02*
X219023D01*
X170199Y346482D02*
X201279D01*
X219929D01*
X224884Y341527D01*
X144494Y346482D02*
X170199D01*
X158258Y293150D02*
X158340Y293231D01*
X156375Y293150D02*
X158258D01*
X154416Y296330D02*
X154565Y296181D01*
Y294434D02*
Y296181D01*
X217000Y319525D02*
X217528Y320053D01*
Y333221D01*
X217159Y315805D02*
X219716Y318362D01*
Y334127D01*
X217159Y314659D02*
Y315805D01*
X217000Y314500D02*
X217159Y314659D01*
X149806Y344294D02*
X157000D01*
X219023D02*
X222696Y340621D01*
X146994Y341482D02*
X149806Y344294D01*
X153632Y290406D02*
X156375Y293150D01*
X148350Y290406D02*
X153632D01*
X147666Y289722D02*
X148350Y290406D01*
X147666Y289666D02*
Y289722D01*
X144500Y289000D02*
X145166Y289666D01*
X147666D01*
X215844Y334905D02*
X217528Y333221D01*
X217000Y319300D02*
Y319525D01*
X152725Y292594D02*
X154565Y294434D01*
X148350Y292594D02*
X152725D01*
X147666Y293278D02*
X148350Y292594D01*
X145166Y293334D02*
X147666D01*
X144500Y294000D02*
X145166Y293334D01*
X147666Y293278D02*
Y293334D01*
X211859Y315805D02*
X214284Y318230D01*
X224884D02*
Y341527D01*
X222696Y320284D02*
Y340621D01*
X222459Y320047D02*
X222696Y320284D01*
X222459Y315805D02*
X224884Y318230D01*
X222459Y319459D02*
Y320047D01*
X222300Y319300D02*
X222459Y319459D01*
X211700Y314500D02*
X211859Y314659D01*
Y315805D01*
X222459Y314659D02*
Y315805D01*
X222300Y314500D02*
X222459Y314659D01*
X144494Y341482D02*
X146994D01*
X122723Y294000D02*
X123973D01*
X122057Y293334D02*
X122723Y294000D01*
X117223D02*
X117889Y293334D01*
X115973Y294000D02*
X117223D01*
X117889Y293278D02*
Y293334D01*
X121373Y292594D02*
X122057Y293278D01*
Y293334D01*
X117889Y293278D02*
X118573Y292594D01*
X121373D01*
X114057Y293334D02*
X114723Y294000D01*
X115973D01*
X114057Y293278D02*
Y293334D01*
X100500Y296500D02*
X102916Y294084D01*
X93500Y296500D02*
X100500D01*
X102916Y293278D02*
Y294084D01*
X113373Y292594D02*
X114057Y293278D01*
X105072Y292594D02*
X113373D01*
X105072Y292594D02*
X105072Y292594D01*
X102916Y293278D02*
X103600Y292594D01*
X105072D01*
X122057Y289666D02*
Y289722D01*
X121373Y290406D02*
X122057Y289722D01*
X118573Y290406D02*
X121373D01*
X117889Y289722D02*
X118573Y290406D01*
X117889Y289666D02*
Y289722D01*
X122723Y289000D02*
X123973D01*
X122057Y289666D02*
X122723Y289000D01*
X117223D02*
X117889Y289666D01*
X115973Y289000D02*
X117223D01*
X113373Y290406D02*
X114057Y289722D01*
X105978Y290406D02*
X113373D01*
X114057Y289666D02*
X114723Y289000D01*
X114057Y289666D02*
Y289722D01*
X105978Y290406D02*
X105978Y290406D01*
X102916Y289722D02*
X103600Y290406D01*
X105978D01*
X114723Y289000D02*
X115973D01*
X102916Y288916D02*
Y289722D01*
X100500Y286500D02*
X102916Y288916D01*
X93500Y286500D02*
X100500D01*
X123973Y294000D02*
X125223D01*
X125889Y293334D01*
Y293278D02*
X126573Y292594D01*
X133000Y294000D02*
X135500D01*
X123973Y289000D02*
X125223D01*
X125889Y289666D01*
X132334Y293334D02*
X133000Y294000D01*
X128642Y290406D02*
X131650D01*
X125889Y289722D02*
X126573Y290406D01*
X132334Y289666D02*
X133000Y289000D01*
X129549Y292594D02*
X131650D01*
X129549Y292594D02*
X129549Y292594D01*
X125889Y289666D02*
Y289722D01*
X131650Y292594D02*
X132334Y293278D01*
X133000Y289000D02*
X135500D01*
X132334Y293278D02*
Y293334D01*
X131650Y290406D02*
X132334Y289722D01*
Y289666D02*
Y289722D01*
X128642Y290406D02*
X128642Y290406D01*
X126573Y290406D02*
X128642D01*
X126573Y292594D02*
X129549D01*
X125889Y293278D02*
Y293334D01*
X122084Y330834D02*
X122750Y331500D01*
X117250D02*
X117916Y330834D01*
X122750Y331500D02*
X124000D01*
X121400Y330094D02*
X122084Y330778D01*
Y330834D01*
X117916Y330778D02*
Y330834D01*
X118600Y330094D02*
X121400D01*
X117916Y330778D02*
X118600Y330094D01*
X114084Y330834D02*
X114750Y331500D01*
X116000D02*
X117250D01*
X114750D02*
X116000D01*
X114084Y330778D02*
Y330834D01*
X113400Y330094D02*
X114084Y330778D01*
X110842Y330094D02*
X113400D01*
X108876Y328128D02*
X110842Y330094D01*
X108876Y326398D02*
Y328128D01*
X105072Y322594D02*
X108876Y326398D01*
X103600Y322594D02*
X105072D01*
X100500Y326500D02*
X102916Y324084D01*
X93500Y326500D02*
X100500D01*
X102916Y323278D02*
X103600Y322594D01*
X102916Y323278D02*
Y324084D01*
X122084Y327166D02*
Y327222D01*
X118600Y327906D02*
X121400D01*
X117916Y327222D02*
X118600Y327906D01*
X121400D02*
X122084Y327222D01*
X117916Y327166D02*
Y327222D01*
X122084Y327166D02*
X122750Y326500D01*
X117250D02*
X117916Y327166D01*
X122750Y326500D02*
X124000D01*
X116000D02*
X117250D01*
X114084Y327166D02*
Y327222D01*
X114750Y326500D02*
X116000D01*
X114084Y327166D02*
X114750Y326500D01*
X111748Y327906D02*
X113400D01*
X111064Y327222D02*
X111748Y327906D01*
X113400D02*
X114084Y327222D01*
X111064Y325492D02*
Y327222D01*
X105978Y320406D02*
X111064Y325492D01*
X102916Y319722D02*
X103600Y320406D01*
X105978D01*
X102916Y318916D02*
Y319722D01*
X100500Y316500D02*
X102916Y318916D01*
X93500Y316500D02*
X100500D01*
X132255Y330799D02*
Y330855D01*
X131570Y330115D02*
X132255Y330799D01*
X124000Y326500D02*
X125250D01*
X132255Y330855D02*
X132921Y331521D01*
X125250Y326500D02*
X125916Y327166D01*
X132921Y331521D02*
X135421D01*
X124000Y331500D02*
X125250D01*
X132255Y327187D02*
X132921Y326521D01*
X131570Y327927D02*
X132255Y327243D01*
Y327187D02*
Y327243D01*
X129533Y327927D02*
X131570D01*
X128627Y330115D02*
X131570D01*
X129512Y327906D02*
X129533Y327927D01*
X128606Y330094D02*
X128627Y330115D01*
X126600Y327906D02*
X129512D01*
X126600Y330094D02*
X128606D01*
X125916Y330778D02*
X126600Y330094D01*
X132921Y326521D02*
X135421D01*
X125916Y327166D02*
Y327222D01*
X126600Y327906D01*
X125916Y330778D02*
Y330834D01*
X125250Y331500D02*
X125916Y330834D01*
X122750Y346500D02*
X124000D01*
X116000D02*
X117250D01*
X114750D02*
X116000D01*
X122084Y345834D02*
X122750Y346500D01*
X117250D02*
X117916Y345834D01*
X122084Y345778D02*
Y345834D01*
X121400Y345094D02*
X122084Y345778D01*
X117916Y345778D02*
X118600Y345094D01*
X117916Y345778D02*
Y345834D01*
X118600Y345094D02*
X121400D01*
X102916Y353278D02*
X103600Y352594D01*
X105978D02*
X110732Y347840D01*
X103600Y352594D02*
X105978D01*
X100500Y356500D02*
X102916Y354084D01*
X93500Y356500D02*
X100500D01*
X102916Y353278D02*
Y354084D01*
X114084Y345834D02*
X114750Y346500D01*
X114084Y345778D02*
Y345834D01*
X113400Y345094D02*
X114084Y345778D01*
X110732D02*
X111416Y345094D01*
X110732Y345778D02*
Y347840D01*
X111416Y345094D02*
X113400D01*
X122084Y342166D02*
Y342222D01*
X118600Y342906D02*
X121400D01*
X117916Y342222D02*
X118600Y342906D01*
X121400D02*
X122084Y342222D01*
X117916Y342166D02*
Y342222D01*
X122084Y342166D02*
X122750Y341500D01*
X124000D01*
X103600Y350406D02*
X105072D01*
X108544Y346934D01*
Y344872D02*
X110510Y342906D01*
X108544Y344872D02*
Y346934D01*
X102916Y348916D02*
Y349722D01*
X103600Y350406D01*
X100500Y346500D02*
X102916Y348916D01*
X93500Y346500D02*
X100500D01*
X117250Y341500D02*
X117916Y342166D01*
X116000Y341500D02*
X117250D01*
X114750D02*
X116000D01*
X113400Y342906D02*
X114084Y342222D01*
X110510Y342906D02*
X113400D01*
X114084Y342166D02*
X114750Y341500D01*
X114084Y342166D02*
Y342222D01*
X124000Y346500D02*
X125250D01*
X125916Y345778D02*
Y345834D01*
X125250Y346500D02*
X125916Y345834D01*
X126600Y345094D02*
X129551D01*
X125916Y345778D02*
X126600Y345094D01*
X129551D02*
X129568Y345076D01*
X131644D01*
X132328Y345760D02*
Y345816D01*
Y342148D02*
X132994Y341482D01*
X132328Y342148D02*
Y342204D01*
X128662Y342888D02*
X131644D01*
X132994Y341482D02*
X135494D01*
X124000Y341500D02*
X125250D01*
X131644Y342888D02*
X132328Y342204D01*
X131644Y345076D02*
X132328Y345760D01*
X128644Y342906D02*
X128662Y342888D01*
X132994Y346482D02*
X135494D01*
X132328Y345816D02*
X132994Y346482D01*
X125916Y342222D02*
X126600Y342906D01*
X128644D01*
X125916Y342166D02*
Y342222D01*
X125250Y341500D02*
X125916Y342166D01*
D50*
X100527Y196750D02*
D03*
X313500Y365000D02*
D03*
X195500Y272500D02*
D03*
X187000Y281500D02*
D03*
X249750Y222000D02*
D03*
X310000Y312000D02*
D03*
X180000Y234500D02*
D03*
X111500Y150500D02*
D03*
X120000Y159000D02*
D03*
Y150500D02*
D03*
Y142000D02*
D03*
X128500Y150500D02*
D03*
D51*
X315250Y253250D02*
D03*
X310750D02*
D03*
Y171250D02*
D03*
X315250D02*
D03*
X310750Y214250D02*
D03*
X315250D02*
D03*
X284250Y329500D02*
D03*
X279750D02*
D03*
X339500Y314500D02*
D03*
X344000D02*
D03*
X369000Y314500D02*
D03*
X364500D02*
D03*
D52*
X313000Y260250D02*
D03*
Y178250D02*
D03*
Y221250D02*
D03*
X282000Y322500D02*
D03*
X341750Y307500D02*
D03*
X366750Y307500D02*
D03*
D53*
X260950Y148250D02*
D03*
X261200Y132500D02*
D03*
X260950Y164500D02*
D03*
D54*
X267950Y146000D02*
D03*
Y150500D02*
D03*
X268200Y130250D02*
D03*
Y134750D02*
D03*
X267950Y162250D02*
D03*
Y166750D02*
D03*
D55*
X239750Y239493D02*
D03*
X224750D02*
D03*
X209750D02*
D03*
D56*
X239750Y228507D02*
D03*
X224750D02*
D03*
X209750D02*
D03*
D57*
X233250Y239493D02*
D03*
X218250D02*
D03*
X203250D02*
D03*
D58*
X233250Y228507D02*
D03*
X218250D02*
D03*
X203250D02*
D03*
D59*
X236500Y234000D02*
D03*
X221500D02*
D03*
X206500D02*
D03*
D60*
X194425Y237720D02*
D03*
X190925D02*
D03*
D61*
X186750Y252250D02*
D03*
Y255750D02*
D03*
D62*
X193250Y254000D02*
D03*
D63*
X305500Y304000D02*
D03*
X300500D02*
D03*
D64*
X237604Y304996D02*
X238104D01*
X238200Y304900D01*
X238313Y304787D01*
Y304678D02*
Y304787D01*
X361500Y318319D02*
Y322050D01*
X358221Y315040D02*
X361500Y318319D01*
Y322050D02*
X362000Y322550D01*
X357718Y315040D02*
X358221D01*
X267950Y166750D02*
X268700D01*
X269950Y168000D01*
X276000D01*
X268700Y150500D02*
Y155235D01*
Y150500D02*
X273971D01*
X274321Y150850D02*
X274850D01*
X273971Y150500D02*
X274321Y150850D01*
X274850D02*
X276000Y152000D01*
Y152500D01*
X267950Y150500D02*
X268700D01*
X261386Y156114D02*
X267821D01*
X268700Y155235D01*
X153368Y273308D02*
X158858D01*
X151177Y275500D02*
X153368Y273308D01*
X150500Y275500D02*
X151177D01*
X158858Y273308D02*
X159050Y273500D01*
X74500Y306500D02*
X92500D01*
X92624Y306376D02*
X113855D01*
X93000Y316000D02*
X93124Y315876D01*
X75500Y366500D02*
X93500D01*
X93624Y366376D01*
X114855D02*
X114876D01*
X93624D02*
X114855D01*
X114876D02*
X115000Y366500D01*
X93500Y336500D02*
X124000D01*
X124000Y336500D01*
X275000Y176824D02*
Y177000D01*
X276000Y168500D02*
Y175823D01*
X275000Y176824D02*
X276000Y175823D01*
X293750Y295250D02*
Y303000D01*
X293000Y303500D02*
X293500Y303000D01*
X293000Y303500D02*
Y312000D01*
X234000Y167500D02*
X244900D01*
X224500Y158000D02*
X234000Y167500D01*
X238500Y151500D02*
X245000D01*
X245000Y151500D01*
X238500Y135500D02*
X245000D01*
X245000Y135500D01*
X244900Y167500D02*
X245000Y167600D01*
X182000Y253129D02*
Y261000D01*
Y253129D02*
X182879Y252250D01*
X186750D01*
Y255750D02*
Y263750D01*
X185000Y265500D02*
X186750Y263750D01*
X301000Y186500D02*
X308050D01*
X261000Y156500D02*
X261386Y156114D01*
X323324Y251500D02*
X324000D01*
X321573Y253250D02*
X323324Y251500D01*
X315250Y253250D02*
X321573D01*
X310500Y279500D02*
Y281000D01*
X307550Y269000D02*
Y276550D01*
X310500Y279500D01*
X314121Y312000D02*
X315000Y311121D01*
X310000Y312000D02*
X314121D01*
X315000Y306000D02*
Y311121D01*
X321500Y299500D02*
X337050D01*
X315000Y306000D02*
X321500Y299500D01*
X232900Y321400D02*
X234823Y323323D01*
X232900Y314500D02*
Y321400D01*
X256227Y323323D02*
X257050Y322500D01*
X235177Y323323D02*
X256227D01*
X229500Y330323D02*
Y331000D01*
X227600Y328424D02*
X229500Y330323D01*
X227600Y319300D02*
Y328424D01*
X284500Y305177D02*
X285714Y306391D01*
Y313514D01*
X284500Y304500D02*
Y305177D01*
X174950Y265500D02*
X185000D01*
X193600Y245500D02*
Y253150D01*
X194425Y237720D02*
Y245025D01*
X193950Y245500D02*
X194425Y245025D01*
X227600Y300100D02*
X227696Y300004D01*
Y290804D02*
X228000Y290500D01*
X227696Y290804D02*
Y300004D01*
X193250Y253500D02*
X193600Y253150D01*
X202800Y222000D02*
X202929Y221871D01*
X171000Y298500D02*
Y305318D01*
X172182Y306500D02*
X179050D01*
X171000Y305318D02*
X172182Y306500D01*
X293000Y280000D02*
X293000Y280000D01*
X283446Y280000D02*
X293000D01*
X372950Y299500D02*
X382000D01*
X372950Y299500D02*
X372950Y299500D01*
X258000Y243000D02*
Y257000D01*
X285500Y258000D02*
X285950D01*
X293000D01*
X282500Y243000D02*
X290000D01*
X267921Y140469D02*
X267950Y140440D01*
Y135000D02*
Y138732D01*
Y140440D01*
Y135000D02*
X268200Y134750D01*
X364500Y314500D02*
Y314540D01*
X357718Y315040D02*
X364000D01*
X364500Y314540D01*
X308050Y186500D02*
X308050Y186500D01*
X315250Y245959D02*
Y253250D01*
X314609Y245318D02*
X315250Y245959D01*
X306000Y245733D02*
Y251621D01*
X306879Y252500D02*
X310250D01*
X306000Y245733D02*
X306233Y245500D01*
X306000Y251621D02*
X306879Y252500D01*
X310750Y253000D02*
Y253250D01*
X310250Y252500D02*
X310750Y253000D01*
X307500Y268950D02*
X307550Y269000D01*
X293000Y258000D02*
X293250Y258250D01*
X274268Y138732D02*
X276000Y137000D01*
X267950Y138732D02*
X274268D01*
X276000Y136500D02*
Y137000D01*
X270700Y128500D02*
X276050D01*
X268950Y130250D02*
X270700Y128500D01*
X268200Y130250D02*
X268950D01*
X174950Y265500D02*
X175700Y266250D01*
X332050Y315088D02*
X332638Y314500D01*
X339500D01*
X338000Y316750D02*
Y322550D01*
Y316750D02*
X339500Y315250D01*
Y314500D02*
Y315250D01*
X116000Y284000D02*
X124000D01*
X100500Y276500D02*
X108000Y284000D01*
X116000D01*
X93500Y276500D02*
X100500D01*
X116000Y242461D02*
X118059Y244519D01*
Y245196D01*
X116000Y235450D02*
Y242461D01*
X124000Y229500D02*
Y253000D01*
X128000Y257000D01*
Y257500D01*
X122050Y227550D02*
X124000Y229500D01*
X116000Y227550D02*
X122050D01*
X93500Y226500D02*
X94550Y227550D01*
X116000D01*
X294629Y304000D02*
X300500D01*
X293750Y303121D02*
X294629Y304000D01*
X314324Y306000D02*
X315000D01*
X312323Y304000D02*
X314324Y306000D01*
X311000Y304000D02*
X312323D01*
X311000D02*
X312000Y303000D01*
X305500Y304000D02*
X311000D01*
X312000Y295500D02*
X312250Y295250D01*
X312000Y295500D02*
Y303000D01*
X312250Y280750D02*
Y295250D01*
X259000Y258000D02*
X263000D01*
X258000Y257000D02*
X259000Y258000D01*
X258000Y243000D02*
X265500D01*
D65*
X386800Y269500D02*
D03*
X386400Y225500D02*
D03*
Y183500D02*
D03*
D66*
X361400Y269500D02*
D03*
X336000D02*
D03*
X361000Y225500D02*
D03*
X335600D02*
D03*
X361000Y183500D02*
D03*
X335600D02*
D03*
D67*
X283900Y104500D02*
D03*
Y79100D02*
D03*
X233100Y104500D02*
D03*
Y79100D02*
D03*
X182300Y104500D02*
D03*
Y79100D02*
D03*
X156900Y104500D02*
D03*
X207700Y79100D02*
D03*
Y104500D02*
D03*
X258500Y79100D02*
D03*
Y104500D02*
D03*
X309300Y79100D02*
D03*
X334700D02*
D03*
X309300Y104500D02*
D03*
X334700D02*
D03*
D68*
X156900Y79100D02*
D03*
D69*
X387000Y440500D02*
D03*
X40000D02*
D03*
X387000Y40000D02*
D03*
X40000D02*
D03*
D70*
X238200Y309700D02*
D03*
X232900D02*
D03*
X238313Y304678D02*
D03*
X283000Y290500D02*
D03*
X268574Y304333D02*
D03*
X180500Y335543D02*
D03*
X140378Y365817D02*
D03*
X128378Y312817D02*
D03*
X181477Y353021D02*
D03*
X200300Y315003D02*
D03*
X204004Y331039D02*
D03*
X194269Y340519D02*
D03*
X203500Y59500D02*
D03*
X227519Y59855D02*
D03*
X258500Y307500D02*
D03*
X134000Y118000D02*
D03*
Y108000D02*
D03*
X226900Y314571D02*
D03*
X223000Y299933D02*
D03*
X199000Y333300D02*
D03*
X199156Y338700D02*
D03*
X116500Y258000D02*
D03*
X86000Y122000D02*
D03*
X351000Y250500D02*
D03*
X311000Y326000D02*
D03*
X251000Y233500D02*
D03*
X175500Y223000D02*
D03*
X403000Y400500D02*
D03*
X378000Y350500D02*
D03*
X403000Y300500D02*
D03*
X378000Y250500D02*
D03*
X403000Y100500D02*
D03*
X328000Y450500D02*
D03*
X353000Y400500D02*
D03*
X328000Y350500D02*
D03*
X353000Y200500D02*
D03*
X328000Y150500D02*
D03*
Y50500D02*
D03*
X278000Y450500D02*
D03*
X303000Y400500D02*
D03*
X278000Y50500D02*
D03*
X228000Y450500D02*
D03*
X253000Y400500D02*
D03*
X228000Y350500D02*
D03*
Y50500D02*
D03*
X178000Y450500D02*
D03*
X203000Y400500D02*
D03*
X178000Y50500D02*
D03*
X128000Y450500D02*
D03*
X153000Y400500D02*
D03*
X128000Y250500D02*
D03*
X153000Y200500D02*
D03*
X128000Y50500D02*
D03*
X78000Y450500D02*
D03*
X103000Y400500D02*
D03*
X78000Y350500D02*
D03*
Y250500D02*
D03*
Y50500D02*
D03*
X53000Y400500D02*
D03*
X28000Y350500D02*
D03*
X53000Y300500D02*
D03*
X28000Y250500D02*
D03*
X53000Y200500D02*
D03*
X28000Y150500D02*
D03*
X199500Y262000D02*
D03*
X230000D02*
D03*
X206465Y314455D02*
D03*
X221000Y215000D02*
D03*
X235500D02*
D03*
X229000D02*
D03*
X213841D02*
D03*
X202500D02*
D03*
X195500Y301500D02*
D03*
X196340Y292539D02*
D03*
X165500Y247500D02*
D03*
X150500Y275500D02*
D03*
X142000Y176500D02*
D03*
X71500Y165000D02*
D03*
X71648Y174622D02*
D03*
X101000Y210500D02*
D03*
X109500D02*
D03*
X74500Y306500D02*
D03*
X113855Y306376D02*
D03*
X75500Y366500D02*
D03*
X114855Y366376D02*
D03*
X108355Y336376D02*
D03*
X298558Y311880D02*
D03*
X190000Y183000D02*
D03*
X206500Y124500D02*
D03*
X238500Y151500D02*
D03*
Y135500D02*
D03*
X224500Y158000D02*
D03*
X275000Y177500D02*
D03*
X259500Y183000D02*
D03*
X262500Y191000D02*
D03*
X182000Y261000D02*
D03*
X174500Y254000D02*
D03*
X207500Y148500D02*
D03*
X202408Y139383D02*
D03*
X261000Y124500D02*
D03*
X301000Y186500D02*
D03*
X294500Y212000D02*
D03*
X159000Y256000D02*
D03*
X176000Y243000D02*
D03*
X292000Y194500D02*
D03*
X305000Y164500D02*
D03*
X261000Y156500D02*
D03*
X153500Y176500D02*
D03*
X179408Y162383D02*
D03*
X177408Y139383D02*
D03*
X105500Y219000D02*
D03*
X150500Y300000D02*
D03*
X130500Y226500D02*
D03*
X285500Y355000D02*
D03*
X324000Y251500D02*
D03*
X345000Y291000D02*
D03*
X275500Y289000D02*
D03*
Y295000D02*
D03*
Y301000D02*
D03*
X364500Y290500D02*
D03*
X283500Y269500D02*
D03*
X238200Y319300D02*
D03*
X278000Y307000D02*
D03*
X261200Y331700D02*
D03*
X229500Y331000D02*
D03*
X214500Y262000D02*
D03*
X205500D02*
D03*
X211700Y309701D02*
D03*
X209500Y275000D02*
D03*
X221000Y262000D02*
D03*
X223000Y275000D02*
D03*
X284500Y304500D02*
D03*
X247500Y300000D02*
D03*
X228000Y290500D02*
D03*
X236000Y262000D02*
D03*
X206500Y234000D02*
D03*
X221500D02*
D03*
X236500D02*
D03*
X217408Y173279D02*
D03*
X199908Y155883D02*
D03*
X171000Y298500D02*
D03*
X293000Y312000D02*
D03*
X382000Y299500D02*
D03*
X258000Y243000D02*
D03*
X293000Y258000D02*
D03*
X290000Y243000D02*
D03*
X296000Y244000D02*
D03*
X93782Y153112D02*
D03*
X261000Y140500D02*
D03*
X267921Y140469D02*
D03*
X320088Y208669D02*
D03*
X378000Y313500D02*
D03*
X352000Y311500D02*
D03*
X303000Y221500D02*
D03*
X336228Y340925D02*
D03*
X362228Y338925D02*
D03*
X86000Y141500D02*
D03*
X76000Y236500D02*
D03*
X70000Y246500D02*
D03*
X72139Y148139D02*
D03*
X74000Y255500D02*
D03*
X148000Y153000D02*
D03*
X151000Y264500D02*
D03*
X357718Y315040D02*
D03*
X332768Y315628D02*
D03*
X154320Y296430D02*
D03*
X158440Y293130D02*
D03*
X272000Y330500D02*
D03*
X71000Y272500D02*
D03*
X64000D02*
D03*
Y280500D02*
D03*
X71000D02*
D03*
X118059Y245196D02*
D03*
X315000Y306000D02*
D03*
X222300Y309700D02*
D03*
X217000D02*
D03*
X206400Y304900D02*
D03*
X162500Y289500D02*
D03*
M02*
