G04*
G04 #@! TF.GenerationSoftware,Altium Limited,Altium Designer,24.2.2 (26)*
G04*
G04 Layer_Color=8421504*
%FSLAX44Y44*%
%MOMM*%
G71*
G04*
G04 #@! TF.SameCoordinates,6EDC250C-81D3-48BC-95F6-F0A130F5604E*
G04*
G04*
G04 #@! TF.FilePolarity,Positive*
G04*
G01*
G75*
%ADD17C,0.2000*%
%ADD18R,0.9000X0.8000*%
%ADD19R,0.5000X0.2500*%
%ADD20R,0.5000X0.4500*%
%ADD21R,0.7500X0.2500*%
%ADD22R,2.0000X0.6000*%
%ADD23R,4.2000X0.7000*%
%ADD24R,0.3800X0.4800*%
%ADD25R,0.4800X0.3800*%
%ADD26R,0.5000X0.3750*%
G36*
X285229Y330905D02*
X285405Y330729D01*
X285500Y330499D01*
Y330375D01*
Y328625D01*
Y328501D01*
X285405Y328271D01*
X285229Y328095D01*
X284999Y328000D01*
X283501D01*
X283271Y328095D01*
X283095Y328271D01*
X283000Y328501D01*
Y328625D01*
Y330375D01*
Y330499D01*
X283095Y330729D01*
X283271Y330905D01*
X283501Y331000D01*
X284999D01*
X285229Y330905D01*
D02*
G37*
G36*
X280729D02*
X280905Y330729D01*
X281000Y330499D01*
Y330375D01*
Y328625D01*
Y328501D01*
X280905Y328271D01*
X280729Y328095D01*
X280499Y328000D01*
X279001D01*
X278771Y328095D01*
X278595Y328271D01*
X278500Y328501D01*
Y328625D01*
Y330375D01*
Y330499D01*
X278595Y330729D01*
X278771Y330905D01*
X279001Y331000D01*
X280499D01*
X280729Y330905D01*
D02*
G37*
G36*
X284566Y324348D02*
X284848Y324067D01*
X285000Y323699D01*
Y323500D01*
Y321500D01*
Y321301D01*
X284848Y320934D01*
X284566Y320652D01*
X284199Y320500D01*
X279801D01*
X279433Y320652D01*
X279152Y320934D01*
X279000Y321301D01*
Y321500D01*
Y323500D01*
Y323699D01*
X279152Y324067D01*
X279433Y324348D01*
X279801Y324500D01*
X284199D01*
X284566Y324348D01*
D02*
G37*
G36*
X369979Y315905D02*
X370155Y315729D01*
X370250Y315499D01*
Y315375D01*
Y313625D01*
Y313501D01*
X370155Y313271D01*
X369979Y313095D01*
X369749Y313000D01*
X368251D01*
X368021Y313095D01*
X367845Y313271D01*
X367750Y313501D01*
Y313625D01*
Y315375D01*
Y315499D01*
X367845Y315729D01*
X368021Y315905D01*
X368251Y316000D01*
X369749D01*
X369979Y315905D01*
D02*
G37*
G36*
X365479D02*
X365655Y315729D01*
X365750Y315499D01*
Y315375D01*
Y313625D01*
Y313501D01*
X365655Y313271D01*
X365479Y313095D01*
X365249Y313000D01*
X363751D01*
X363521Y313095D01*
X363345Y313271D01*
X363250Y313501D01*
Y313625D01*
Y315375D01*
Y315499D01*
X363345Y315729D01*
X363521Y315905D01*
X363751Y316000D01*
X365249D01*
X365479Y315905D01*
D02*
G37*
G36*
X344979Y315905D02*
X345155Y315729D01*
X345250Y315499D01*
Y315375D01*
Y313625D01*
Y313500D01*
X345155Y313271D01*
X344979Y313095D01*
X344749Y313000D01*
X343251D01*
X343021Y313095D01*
X342845Y313271D01*
X342750Y313500D01*
Y313625D01*
Y315375D01*
Y315499D01*
X342845Y315729D01*
X343021Y315905D01*
X343251Y316000D01*
X344749D01*
X344979Y315905D01*
D02*
G37*
G36*
X340479D02*
X340655Y315729D01*
X340750Y315499D01*
Y315375D01*
Y313625D01*
Y313500D01*
X340655Y313271D01*
X340479Y313095D01*
X340249Y313000D01*
X338751D01*
X338521Y313095D01*
X338345Y313271D01*
X338250Y313500D01*
Y313625D01*
Y315375D01*
Y315499D01*
X338345Y315729D01*
X338521Y315905D01*
X338751Y316000D01*
X340249D01*
X340479Y315905D01*
D02*
G37*
G36*
X369316Y309348D02*
X369598Y309067D01*
X369750Y308699D01*
Y308500D01*
Y306500D01*
Y306301D01*
X369598Y305934D01*
X369316Y305652D01*
X368949Y305500D01*
X364551D01*
X364184Y305652D01*
X363902Y305934D01*
X363750Y306301D01*
Y306500D01*
Y308500D01*
Y308699D01*
X363902Y309067D01*
X364184Y309348D01*
X364551Y309500D01*
X368949D01*
X369316Y309348D01*
D02*
G37*
G36*
X344316Y309348D02*
X344598Y309066D01*
X344750Y308699D01*
Y308500D01*
Y306500D01*
Y306301D01*
X344598Y305933D01*
X344316Y305652D01*
X343949Y305500D01*
X339551D01*
X339184Y305652D01*
X338902Y305933D01*
X338750Y306301D01*
Y306500D01*
Y308500D01*
Y308699D01*
X338902Y309066D01*
X339184Y309348D01*
X339551Y309500D01*
X343949D01*
X344316Y309348D01*
D02*
G37*
G36*
X306239Y305105D02*
X306605Y304739D01*
X306804Y304259D01*
Y304000D01*
Y303741D01*
X306605Y303261D01*
X306239Y302895D01*
X305759Y302696D01*
X305241D01*
X304761Y302895D01*
X304395Y303261D01*
X304196Y303741D01*
Y304000D01*
Y304259D01*
X304395Y304739D01*
X304761Y305105D01*
X305241Y305304D01*
X305759D01*
X306239Y305105D01*
D02*
G37*
G36*
X301239D02*
X301605Y304739D01*
X301804Y304259D01*
Y304000D01*
Y303741D01*
X301605Y303261D01*
X301239Y302895D01*
X300759Y302696D01*
X300241D01*
X299761Y302895D01*
X299395Y303261D01*
X299196Y303741D01*
Y304000D01*
Y304259D01*
X299395Y304739D01*
X299761Y305105D01*
X300241Y305304D01*
X300759D01*
X301239Y305105D01*
D02*
G37*
G36*
X315567Y262098D02*
X315848Y261816D01*
X316000Y261449D01*
Y261250D01*
Y259250D01*
Y259051D01*
X315848Y258683D01*
X315567Y258402D01*
X315199Y258250D01*
X310801D01*
X310434Y258402D01*
X310152Y258683D01*
X310000Y259051D01*
Y259250D01*
Y261250D01*
Y261449D01*
X310152Y261816D01*
X310434Y262098D01*
X310801Y262250D01*
X315199D01*
X315567Y262098D01*
D02*
G37*
G36*
X194000Y256000D02*
X194082Y256000D01*
X194235Y255937D01*
X194352Y255820D01*
X194415Y255668D01*
X194415Y255585D01*
X194415D01*
X194415Y252415D01*
X194415Y252332D01*
X194352Y252180D01*
X194235Y252063D01*
X194082Y252000D01*
X194000Y252000D01*
X192418D01*
X192265Y252063D01*
X192148Y252180D01*
X192085Y252332D01*
X192085Y252415D01*
Y255585D01*
Y255668D01*
X192148Y255820D01*
X192265Y255937D01*
X192418Y256000D01*
X192500Y256000D01*
X192500Y256000D01*
X194000Y256000D01*
D02*
G37*
G36*
X187500Y256500D02*
X187599Y256500D01*
X187783Y256424D01*
X187924Y256283D01*
X188000Y256099D01*
X188000Y256000D01*
X188000Y256000D01*
X188000Y255500D01*
X188000Y255401D01*
X187924Y255217D01*
X187783Y255076D01*
X187599Y255000D01*
X187500Y255000D01*
X185901D01*
X185717Y255076D01*
X185576Y255217D01*
X185500Y255401D01*
X185500Y255500D01*
Y256000D01*
Y256099D01*
X185576Y256283D01*
X185717Y256424D01*
X185900Y256500D01*
X186000D01*
X186000Y256500D01*
X187500Y256500D01*
D02*
G37*
G36*
X316229Y254655D02*
X316405Y254479D01*
X316500Y254249D01*
Y254125D01*
Y252375D01*
Y252251D01*
X316405Y252021D01*
X316229Y251845D01*
X315999Y251750D01*
X314501D01*
X314271Y251845D01*
X314095Y252021D01*
X314000Y252251D01*
Y252375D01*
Y254125D01*
Y254249D01*
X314095Y254479D01*
X314271Y254655D01*
X314501Y254750D01*
X315999D01*
X316229Y254655D01*
D02*
G37*
G36*
X311729D02*
X311905Y254479D01*
X312000Y254249D01*
Y254125D01*
Y252375D01*
Y252251D01*
X311905Y252021D01*
X311729Y251845D01*
X311499Y251750D01*
X310001D01*
X309771Y251845D01*
X309595Y252021D01*
X309500Y252251D01*
Y252375D01*
Y254125D01*
Y254249D01*
X309595Y254479D01*
X309771Y254655D01*
X310001Y254750D01*
X311499D01*
X311729Y254655D01*
D02*
G37*
G36*
X187500Y253000D02*
X187599Y253000D01*
X187783Y252924D01*
X187924Y252783D01*
X188000Y252599D01*
X188000Y252500D01*
X188000Y252500D01*
X188000Y252000D01*
X188000Y251901D01*
X187924Y251717D01*
X187783Y251576D01*
X187599Y251500D01*
X187500Y251500D01*
X186000D01*
X185900Y251500D01*
X185717Y251576D01*
X185576Y251717D01*
X185500Y251900D01*
X185500Y252000D01*
X185500Y252000D01*
Y252500D01*
Y252599D01*
X185576Y252783D01*
X185717Y252924D01*
X185900Y253000D01*
X186000D01*
X186000Y253000D01*
X187500Y253000D01*
D02*
G37*
G36*
X191458Y238894D02*
X191599Y238753D01*
X191675Y238569D01*
Y238470D01*
X191675D01*
X191675Y236970D01*
X191675Y236870D01*
X191599Y236686D01*
X191458Y236546D01*
X191275Y236470D01*
X191175Y236470D01*
X191175Y236470D01*
X190675Y236470D01*
X190576Y236470D01*
X190392Y236546D01*
X190251Y236686D01*
X190175Y236870D01*
X190175Y236970D01*
Y238470D01*
X190175Y238569D01*
X190251Y238753D01*
X190392Y238894D01*
X190576Y238970D01*
X190675Y238970D01*
X190675Y238970D01*
X191275D01*
X191458Y238894D01*
D02*
G37*
G36*
X240800Y236793D02*
X240207D01*
X238700Y238300D01*
Y240893D01*
X240800D01*
Y236793D01*
D02*
G37*
G36*
X234300Y238300D02*
X232793Y236793D01*
X232200D01*
Y240893D01*
X234300D01*
Y238300D01*
D02*
G37*
G36*
X225800Y236793D02*
X225207D01*
X223700Y238300D01*
Y240893D01*
X225800D01*
Y236793D01*
D02*
G37*
G36*
X219300Y238300D02*
X217793Y236793D01*
X217200D01*
Y240893D01*
X219300D01*
Y238300D01*
D02*
G37*
G36*
X210800Y236793D02*
X210207D01*
X208700Y238300D01*
Y240893D01*
X210800D01*
Y236793D01*
D02*
G37*
G36*
X204300Y238300D02*
X202793Y236793D01*
X202200D01*
Y240893D01*
X204300D01*
Y238300D01*
D02*
G37*
G36*
X194675Y238970D02*
X194775D01*
X194958Y238894D01*
X195099Y238753D01*
X195175Y238569D01*
Y238470D01*
X195175Y238470D01*
X195175Y236970D01*
X195175Y236870D01*
X195099Y236686D01*
X194958Y236546D01*
X194775Y236470D01*
X194675Y236470D01*
X194675Y236470D01*
X194175Y236470D01*
X194076Y236470D01*
X193892Y236546D01*
X193751Y236686D01*
X193675Y236870D01*
X193675Y236970D01*
Y238470D01*
Y238569D01*
X193751Y238753D01*
X193892Y238894D01*
X194076Y238970D01*
X194175D01*
X194675Y238970D01*
D02*
G37*
G36*
X239682Y234000D02*
X236500Y230818D01*
X233318Y234000D01*
X236500Y237182D01*
X239682Y234000D01*
D02*
G37*
G36*
X224682D02*
X221500Y230818D01*
X218318Y234000D01*
X221500Y237182D01*
X224682Y234000D01*
D02*
G37*
G36*
X209682D02*
X206500Y230818D01*
X203318Y234000D01*
X206500Y237182D01*
X209682Y234000D01*
D02*
G37*
G36*
X194496Y232321D02*
X194612Y232205D01*
X194675Y232052D01*
X194675Y231970D01*
X194675D01*
X194675Y230470D01*
X194675Y230387D01*
X194612Y230235D01*
X194496Y230118D01*
X194343Y230055D01*
X194261Y230055D01*
Y230055D01*
X191090Y230055D01*
X191008Y230055D01*
X190855Y230118D01*
X190738Y230235D01*
X190675Y230387D01*
X190675Y230470D01*
Y231970D01*
Y232052D01*
X190739Y232205D01*
X190855Y232321D01*
X191008Y232384D01*
X194343D01*
X194496Y232321D01*
D02*
G37*
G36*
X240800Y227107D02*
X238700D01*
Y229700D01*
X240207Y231207D01*
X240800D01*
Y227107D01*
D02*
G37*
G36*
X234300Y229700D02*
Y227107D01*
X232200D01*
Y231207D01*
X232793D01*
X234300Y229700D01*
D02*
G37*
G36*
X225800Y227107D02*
X223700D01*
Y229700D01*
X225207Y231207D01*
X225800D01*
Y227107D01*
D02*
G37*
G36*
X219300Y229700D02*
Y227107D01*
X217200D01*
Y231207D01*
X217793D01*
X219300Y229700D01*
D02*
G37*
G36*
X210800Y227107D02*
X208700D01*
Y229700D01*
X210207Y231207D01*
X210800D01*
Y227107D01*
D02*
G37*
G36*
X204300Y229700D02*
Y227107D01*
X202200D01*
Y231207D01*
X202793D01*
X204300Y229700D01*
D02*
G37*
G36*
X315567Y223098D02*
X315848Y222816D01*
X316000Y222449D01*
Y222250D01*
Y220250D01*
Y220051D01*
X315848Y219683D01*
X315567Y219402D01*
X315199Y219250D01*
X310801D01*
X310434Y219402D01*
X310152Y219683D01*
X310000Y220051D01*
Y220250D01*
Y222250D01*
Y222449D01*
X310152Y222816D01*
X310434Y223098D01*
X310801Y223250D01*
X315199D01*
X315567Y223098D01*
D02*
G37*
G36*
X316229Y215655D02*
X316405Y215479D01*
X316500Y215249D01*
Y215125D01*
Y213375D01*
Y213251D01*
X316405Y213021D01*
X316229Y212845D01*
X315999Y212750D01*
X314501D01*
X314271Y212845D01*
X314095Y213021D01*
X314000Y213251D01*
Y213375D01*
Y215125D01*
Y215249D01*
X314095Y215479D01*
X314271Y215655D01*
X314501Y215750D01*
X315999D01*
X316229Y215655D01*
D02*
G37*
G36*
X311729D02*
X311905Y215479D01*
X312000Y215249D01*
Y215125D01*
Y213375D01*
Y213251D01*
X311905Y213021D01*
X311729Y212845D01*
X311499Y212750D01*
X310001D01*
X309771Y212845D01*
X309595Y213021D01*
X309500Y213251D01*
Y213375D01*
Y215125D01*
Y215249D01*
X309595Y215479D01*
X309771Y215655D01*
X310001Y215750D01*
X311499D01*
X311729Y215655D01*
D02*
G37*
G36*
X315567Y180098D02*
X315848Y179816D01*
X316000Y179449D01*
Y179250D01*
Y177250D01*
Y177051D01*
X315848Y176684D01*
X315567Y176402D01*
X315199Y176250D01*
X310801D01*
X310434Y176402D01*
X310152Y176684D01*
X310000Y177051D01*
Y177250D01*
Y179250D01*
Y179449D01*
X310152Y179816D01*
X310434Y180098D01*
X310801Y180250D01*
X315199D01*
X315567Y180098D01*
D02*
G37*
G36*
X316229Y172655D02*
X316405Y172479D01*
X316500Y172249D01*
Y172125D01*
Y170375D01*
Y170251D01*
X316405Y170021D01*
X316229Y169845D01*
X315999Y169750D01*
X314501D01*
X314271Y169845D01*
X314095Y170021D01*
X314000Y170251D01*
Y170375D01*
Y172125D01*
Y172249D01*
X314095Y172479D01*
X314271Y172655D01*
X314501Y172750D01*
X315999D01*
X316229Y172655D01*
D02*
G37*
G36*
X311729D02*
X311905Y172479D01*
X312000Y172249D01*
Y172125D01*
Y170375D01*
Y170251D01*
X311905Y170021D01*
X311729Y169845D01*
X311499Y169750D01*
X310001D01*
X309771Y169845D01*
X309595Y170021D01*
X309500Y170251D01*
Y170375D01*
Y172125D01*
Y172249D01*
X309595Y172479D01*
X309771Y172655D01*
X310001Y172750D01*
X311499D01*
X311729Y172655D01*
D02*
G37*
G36*
X269179Y167905D02*
X269355Y167729D01*
X269450Y167500D01*
Y167375D01*
Y166125D01*
Y166001D01*
X269355Y165771D01*
X269179Y165595D01*
X268949Y165500D01*
X266951D01*
X266721Y165595D01*
X266545Y165771D01*
X266450Y166001D01*
Y166125D01*
Y167375D01*
Y167500D01*
X266545Y167729D01*
X266721Y167905D01*
X266951Y168000D01*
X268949D01*
X269179Y167905D01*
D02*
G37*
G36*
X262516Y167348D02*
X262798Y167067D01*
X262950Y166699D01*
Y166500D01*
Y162500D01*
Y162301D01*
X262798Y161934D01*
X262516Y161652D01*
X262149Y161500D01*
X259751D01*
X259384Y161652D01*
X259102Y161934D01*
X258950Y162301D01*
Y162500D01*
Y166500D01*
Y166699D01*
X259102Y167067D01*
X259384Y167348D01*
X259751Y167500D01*
X262149D01*
X262516Y167348D01*
D02*
G37*
G36*
X269179Y163405D02*
X269355Y163229D01*
X269450Y162999D01*
Y162875D01*
Y161625D01*
Y161501D01*
X269355Y161271D01*
X269179Y161095D01*
X268949Y161000D01*
X266951D01*
X266721Y161095D01*
X266545Y161271D01*
X266450Y161501D01*
Y161625D01*
Y162875D01*
Y162999D01*
X266545Y163229D01*
X266721Y163405D01*
X266951Y163500D01*
X268949D01*
X269179Y163405D01*
D02*
G37*
G36*
Y151655D02*
X269355Y151479D01*
X269450Y151250D01*
Y151125D01*
Y149875D01*
Y149751D01*
X269355Y149521D01*
X269179Y149345D01*
X268949Y149250D01*
X266951D01*
X266721Y149345D01*
X266545Y149521D01*
X266450Y149751D01*
Y149875D01*
Y151125D01*
Y151250D01*
X266545Y151479D01*
X266721Y151655D01*
X266951Y151750D01*
X268949D01*
X269179Y151655D01*
D02*
G37*
G36*
X262516Y151098D02*
X262798Y150817D01*
X262950Y150449D01*
Y150250D01*
Y146250D01*
Y146051D01*
X262798Y145684D01*
X262516Y145402D01*
X262149Y145250D01*
X259751D01*
X259384Y145402D01*
X259102Y145684D01*
X258950Y146051D01*
Y146250D01*
Y150250D01*
Y150449D01*
X259102Y150817D01*
X259384Y151098D01*
X259751Y151250D01*
X262149D01*
X262516Y151098D01*
D02*
G37*
G36*
X269179Y147155D02*
X269355Y146979D01*
X269450Y146749D01*
Y146625D01*
Y145375D01*
Y145251D01*
X269355Y145021D01*
X269179Y144845D01*
X268949Y144750D01*
X266951D01*
X266721Y144845D01*
X266545Y145021D01*
X266450Y145251D01*
Y145375D01*
Y146625D01*
Y146749D01*
X266545Y146979D01*
X266721Y147155D01*
X266951Y147250D01*
X268949D01*
X269179Y147155D01*
D02*
G37*
G36*
X269429Y135905D02*
X269605Y135729D01*
X269700Y135499D01*
Y135375D01*
Y134125D01*
Y134001D01*
X269605Y133771D01*
X269429Y133595D01*
X269199Y133500D01*
X267201D01*
X266971Y133595D01*
X266795Y133771D01*
X266700Y134001D01*
Y134125D01*
Y135375D01*
Y135499D01*
X266795Y135729D01*
X266971Y135905D01*
X267201Y136000D01*
X269199D01*
X269429Y135905D01*
D02*
G37*
G36*
X262766Y135348D02*
X263048Y135067D01*
X263200Y134699D01*
Y134500D01*
Y130500D01*
Y130301D01*
X263048Y129934D01*
X262766Y129652D01*
X262399Y129500D01*
X260001D01*
X259634Y129652D01*
X259352Y129934D01*
X259200Y130301D01*
Y130500D01*
Y134500D01*
Y134699D01*
X259352Y135067D01*
X259634Y135348D01*
X260001Y135500D01*
X262399D01*
X262766Y135348D01*
D02*
G37*
G36*
X269429Y131405D02*
X269605Y131229D01*
X269700Y130999D01*
Y130875D01*
Y129625D01*
Y129501D01*
X269605Y129271D01*
X269429Y129095D01*
X269199Y129000D01*
X267201D01*
X266971Y129095D01*
X266795Y129271D01*
X266700Y129501D01*
Y129625D01*
Y130875D01*
Y130999D01*
X266795Y131229D01*
X266971Y131405D01*
X267201Y131500D01*
X269199D01*
X269429Y131405D01*
D02*
G37*
D17*
X206400Y319300D02*
D03*
X211700D02*
D03*
X217000D02*
D03*
X222300D02*
D03*
X227600D02*
D03*
X238200D02*
D03*
X206400Y314500D02*
D03*
X211700D02*
D03*
X217000D02*
D03*
X222300D02*
D03*
X227600D02*
D03*
X232900D02*
D03*
X238200D02*
D03*
X206400Y309700D02*
D03*
X211700D02*
D03*
X217000D02*
D03*
X222300D02*
D03*
X227600D02*
D03*
X232900D02*
D03*
X238200D02*
D03*
X206400Y304900D02*
D03*
X211700D02*
D03*
X217000D02*
D03*
X222300D02*
D03*
X227600D02*
D03*
X232900D02*
D03*
X238200D02*
D03*
X206400Y300100D02*
D03*
X211700D02*
D03*
X217000D02*
D03*
X222300D02*
D03*
X227600D02*
D03*
X232900D02*
D03*
X238200D02*
D03*
D18*
X312250Y295250D02*
D03*
X293750D02*
D03*
Y280750D02*
D03*
X312250D02*
D03*
D19*
X124000Y294000D02*
D03*
X124000Y289000D02*
D03*
Y279000D02*
D03*
X124000Y274000D02*
D03*
X116000D02*
D03*
Y279000D02*
D03*
Y289000D02*
D03*
Y294000D02*
D03*
X124000Y346500D02*
D03*
X124000Y341500D02*
D03*
Y331500D02*
D03*
X124000Y326500D02*
D03*
X116000D02*
D03*
Y331500D02*
D03*
Y341500D02*
D03*
Y346500D02*
D03*
D20*
X124000Y284000D02*
D03*
X116000D02*
D03*
X124000Y336500D02*
D03*
X116000D02*
D03*
D21*
X135500Y294000D02*
D03*
Y289000D02*
D03*
X144500Y294000D02*
D03*
Y289000D02*
D03*
X135421Y331521D02*
D03*
Y326521D02*
D03*
X144421Y331521D02*
D03*
Y326521D02*
D03*
X135494Y346482D02*
D03*
Y341482D02*
D03*
X144494Y346482D02*
D03*
Y341482D02*
D03*
D22*
X93500Y226500D02*
D03*
Y236500D02*
D03*
Y246500D02*
D03*
Y256500D02*
D03*
Y266500D02*
D03*
Y276500D02*
D03*
Y286500D02*
D03*
Y296500D02*
D03*
Y306500D02*
D03*
Y316500D02*
D03*
Y326500D02*
D03*
Y336500D02*
D03*
Y346500D02*
D03*
Y356500D02*
D03*
Y366500D02*
D03*
D23*
X72500Y216500D02*
D03*
Y376500D02*
D03*
D24*
X159050Y273500D02*
D03*
X166950D02*
D03*
X278050Y258000D02*
D03*
X285950D02*
D03*
X202800Y222000D02*
D03*
X210700D02*
D03*
X217800D02*
D03*
X225700D02*
D03*
X240700D02*
D03*
X232800D02*
D03*
X202800Y246000D02*
D03*
X210700D02*
D03*
X217800D02*
D03*
X225700D02*
D03*
X240700Y255000D02*
D03*
X232800D02*
D03*
X240700Y246000D02*
D03*
X232800D02*
D03*
X202800Y255000D02*
D03*
X210700D02*
D03*
X217800D02*
D03*
X225700D02*
D03*
X179050Y306500D02*
D03*
X186950D02*
D03*
X315450Y269000D02*
D03*
X307550D02*
D03*
X337050Y299500D02*
D03*
X344950D02*
D03*
X276000Y136500D02*
D03*
X283900D02*
D03*
X283950Y128500D02*
D03*
X276050D02*
D03*
X252900Y135500D02*
D03*
X245000D02*
D03*
X252900Y127500D02*
D03*
X245000D02*
D03*
X252900Y159600D02*
D03*
X245000D02*
D03*
X252900Y143500D02*
D03*
X245000D02*
D03*
X135900Y257500D02*
D03*
X128000D02*
D03*
X143050Y257500D02*
D03*
X150950D02*
D03*
X276000Y168500D02*
D03*
X283900D02*
D03*
X315950Y186500D02*
D03*
X308050D02*
D03*
X283900Y160500D02*
D03*
X276000D02*
D03*
X252900Y167600D02*
D03*
X245000D02*
D03*
X314950Y229500D02*
D03*
X307050D02*
D03*
X365050Y299500D02*
D03*
X372950D02*
D03*
X276000Y152500D02*
D03*
X283900D02*
D03*
X283900Y144500D02*
D03*
X276000D02*
D03*
X252900Y151500D02*
D03*
X245000D02*
D03*
X275546Y280000D02*
D03*
X283446D02*
D03*
X278300Y314500D02*
D03*
X286200D02*
D03*
X270900Y258000D02*
D03*
X263000D02*
D03*
X167050Y265500D02*
D03*
X174950D02*
D03*
X186050Y245500D02*
D03*
X193950D02*
D03*
X264950Y322500D02*
D03*
X257050D02*
D03*
X264950Y314500D02*
D03*
X257050D02*
D03*
D25*
X338000Y330450D02*
D03*
Y322550D02*
D03*
X346000Y322550D02*
D03*
Y330450D02*
D03*
X354000Y322600D02*
D03*
Y330500D02*
D03*
X314609Y245318D02*
D03*
Y237418D02*
D03*
X306233Y237420D02*
D03*
Y245320D02*
D03*
X295000Y170550D02*
D03*
Y178450D02*
D03*
X303000Y178450D02*
D03*
Y170550D02*
D03*
X378000Y330450D02*
D03*
Y322550D02*
D03*
X315000Y202400D02*
D03*
Y194500D02*
D03*
X362000Y322550D02*
D03*
Y330450D02*
D03*
X307000Y194500D02*
D03*
Y202400D02*
D03*
X370000Y330450D02*
D03*
Y322550D02*
D03*
X278250Y337550D02*
D03*
Y345450D02*
D03*
X286250Y345450D02*
D03*
Y337550D02*
D03*
X116000Y235450D02*
D03*
Y227550D02*
D03*
D26*
X265500Y248000D02*
D03*
Y243000D02*
D03*
Y238000D02*
D03*
X282500D02*
D03*
Y243000D02*
D03*
Y248000D02*
D03*
M02*
