G04*
G04 #@! TF.GenerationSoftware,Altium Limited,Altium Designer,24.2.2 (26)*
G04*
G04 Layer_Color=128*
%FSLAX44Y44*%
%MOMM*%
G71*
G04*
G04 #@! TF.SameCoordinates,6EDC250C-81D3-48BC-95F6-F0A130F5604E*
G04*
G04*
G04 #@! TF.FilePolarity,Positive*
G04*
G01*
G75*
%ADD24R,0.3800X0.4800*%
%ADD25R,0.4800X0.3800*%
%ADD71R,0.2500X0.6000*%
%ADD72R,0.6000X0.2500*%
%ADD73R,2.2000X2.2000*%
%ADD74O,0.8000X0.4500*%
%ADD75O,0.4500X0.8000*%
D24*
X186950Y298500D02*
D03*
X179050D02*
D03*
X220200Y316950D02*
D03*
X212300D02*
D03*
X122950Y220000D02*
D03*
X115050D02*
D03*
X207458Y158383D02*
D03*
X215358D02*
D03*
X259458Y175383D02*
D03*
X267358D02*
D03*
X184458Y139383D02*
D03*
X192358D02*
D03*
X215358Y166383D02*
D03*
X207458D02*
D03*
X86950Y148000D02*
D03*
X79050D02*
D03*
X160950Y161000D02*
D03*
X153050D02*
D03*
X160950Y169000D02*
D03*
X153050D02*
D03*
X94050Y194000D02*
D03*
X101950D02*
D03*
X94050Y184000D02*
D03*
X101950D02*
D03*
X86950Y175000D02*
D03*
X79050D02*
D03*
X79050Y167000D02*
D03*
X86950D02*
D03*
X86950Y156000D02*
D03*
X79050D02*
D03*
X118050Y108000D02*
D03*
X125950D02*
D03*
X125950Y116500D02*
D03*
X118050D02*
D03*
X170900Y270750D02*
D03*
X163000D02*
D03*
X171000Y279500D02*
D03*
X163100D02*
D03*
D25*
X249440Y311879D02*
D03*
Y319779D02*
D03*
X154000Y144900D02*
D03*
Y137000D02*
D03*
X209408Y184333D02*
D03*
Y176433D02*
D03*
X201408Y176433D02*
D03*
Y184333D02*
D03*
X153000Y191950D02*
D03*
Y184050D02*
D03*
X145000Y191950D02*
D03*
Y184050D02*
D03*
X137000Y191950D02*
D03*
Y184050D02*
D03*
X129000Y191950D02*
D03*
Y184050D02*
D03*
X121000Y191950D02*
D03*
Y184050D02*
D03*
D71*
X107500Y169500D02*
D03*
X112500D02*
D03*
X117500D02*
D03*
X122500D02*
D03*
X127500D02*
D03*
X132500D02*
D03*
Y131500D02*
D03*
X127500D02*
D03*
X122500D02*
D03*
X117500D02*
D03*
X112500D02*
D03*
X107500D02*
D03*
D72*
X139000Y163000D02*
D03*
Y158000D02*
D03*
Y153000D02*
D03*
Y148000D02*
D03*
Y143000D02*
D03*
Y138000D02*
D03*
X101000D02*
D03*
Y143000D02*
D03*
Y148000D02*
D03*
Y153000D02*
D03*
Y158000D02*
D03*
Y163000D02*
D03*
D73*
X120000Y150500D02*
D03*
D74*
X248408Y181883D02*
D03*
Y175383D02*
D03*
Y168883D02*
D03*
X226408Y181883D02*
D03*
Y175383D02*
D03*
Y168883D02*
D03*
D75*
X176908Y172383D02*
D03*
X183408D02*
D03*
X189908D02*
D03*
X176908Y150383D02*
D03*
X183408D02*
D03*
X189908D02*
D03*
M02*
