G04*
G04 #@! TF.GenerationSoftware,Altium Limited,Altium Designer,24.2.2 (26)*
G04*
G04 Layer_Physical_Order=2*
G04 Layer_Color=36540*
%FSLAX44Y44*%
%MOMM*%
G71*
G04*
G04 #@! TF.SameCoordinates,6EDC250C-81D3-48BC-95F6-F0A130F5604E*
G04*
G04*
G04 #@! TF.FilePolarity,Positive*
G04*
G01*
G75*
%ADD50C,0.5000*%
G04:AMPARAMS|DCode=65|XSize=1.6mm|YSize=1.6mm|CornerRadius=0.4mm|HoleSize=0mm|Usage=FLASHONLY|Rotation=180.000|XOffset=0mm|YOffset=0mm|HoleType=Round|Shape=RoundedRectangle|*
%AMROUNDEDRECTD65*
21,1,1.6000,0.8000,0,0,180.0*
21,1,0.8000,1.6000,0,0,180.0*
1,1,0.8000,-0.4000,0.4000*
1,1,0.8000,0.4000,0.4000*
1,1,0.8000,0.4000,-0.4000*
1,1,0.8000,-0.4000,-0.4000*
%
%ADD65ROUNDEDRECTD65*%
%ADD66C,1.6000*%
%ADD67C,1.6500*%
G04:AMPARAMS|DCode=68|XSize=1.65mm|YSize=1.65mm|CornerRadius=0.4125mm|HoleSize=0mm|Usage=FLASHONLY|Rotation=180.000|XOffset=0mm|YOffset=0mm|HoleType=Round|Shape=RoundedRectangle|*
%AMROUNDEDRECTD68*
21,1,1.6500,0.8250,0,0,180.0*
21,1,0.8250,1.6500,0,0,180.0*
1,1,0.8250,-0.4125,0.4125*
1,1,0.8250,0.4125,0.4125*
1,1,0.8250,0.4125,-0.4125*
1,1,0.8250,-0.4125,-0.4125*
%
%ADD68ROUNDEDRECTD68*%
%ADD69C,5.0000*%
%ADD70C,0.4000*%
G36*
X423941Y3059D02*
X3059D01*
X3059Y477441D01*
X423941D01*
Y3059D01*
D02*
G37*
%LPC*%
G36*
X389561Y466500D02*
X384439D01*
X379416Y465501D01*
X374684Y463541D01*
X370426Y460695D01*
X366805Y457074D01*
X363959Y452816D01*
X361999Y448084D01*
X361000Y443061D01*
Y437939D01*
X361999Y432916D01*
X363959Y428184D01*
X366805Y423926D01*
X370426Y420304D01*
X374684Y417459D01*
X379416Y415499D01*
X384439Y414500D01*
X389561D01*
X394584Y415499D01*
X399316Y417459D01*
X403574Y420304D01*
X407196Y423926D01*
X410041Y428184D01*
X412001Y432916D01*
X413000Y437939D01*
Y443061D01*
X412001Y448084D01*
X410041Y452816D01*
X407196Y457074D01*
X403574Y460695D01*
X399316Y463541D01*
X394584Y465501D01*
X389561Y466500D01*
D02*
G37*
G36*
X42561D02*
X37439D01*
X32416Y465501D01*
X27684Y463541D01*
X23426Y460695D01*
X19805Y457074D01*
X16959Y452816D01*
X14999Y448084D01*
X14000Y443061D01*
Y437939D01*
X14999Y432916D01*
X16959Y428184D01*
X19805Y423926D01*
X23426Y420304D01*
X27684Y417459D01*
X32416Y415499D01*
X37439Y414500D01*
X42561D01*
X47584Y415499D01*
X52316Y417459D01*
X56574Y420304D01*
X60195Y423926D01*
X63041Y428184D01*
X65001Y432916D01*
X66000Y437939D01*
Y443061D01*
X65001Y448084D01*
X63041Y452816D01*
X60195Y457074D01*
X56574Y460695D01*
X52316Y463541D01*
X47584Y465501D01*
X42561Y466500D01*
D02*
G37*
G36*
X286097Y358000D02*
X284903D01*
X283801Y357543D01*
X282957Y356699D01*
X282500Y355597D01*
Y354403D01*
X282957Y353301D01*
X283801Y352457D01*
X284903Y352000D01*
X286097D01*
X287199Y352457D01*
X288043Y353301D01*
X288500Y354403D01*
Y355597D01*
X288043Y356699D01*
X287199Y357543D01*
X286097Y358000D01*
D02*
G37*
G36*
X336824Y343925D02*
X335631D01*
X334528Y343468D01*
X333684Y342624D01*
X333228Y341521D01*
Y340328D01*
X333684Y339225D01*
X334528Y338382D01*
X335631Y337925D01*
X336824D01*
X337927Y338382D01*
X338771Y339225D01*
X339228Y340328D01*
Y341521D01*
X338771Y342624D01*
X337927Y343468D01*
X336824Y343925D01*
D02*
G37*
G36*
X362824Y341925D02*
X361631D01*
X360528Y341468D01*
X359684Y340624D01*
X359228Y339521D01*
Y338328D01*
X359684Y337225D01*
X360528Y336381D01*
X361631Y335925D01*
X362824D01*
X363927Y336381D01*
X364771Y337225D01*
X365228Y338328D01*
Y339521D01*
X364771Y340624D01*
X363927Y341468D01*
X362824Y341925D01*
D02*
G37*
G36*
X249596Y340200D02*
X248004D01*
X246534Y339591D01*
X245409Y338466D01*
X244800Y336996D01*
Y335404D01*
X245409Y333934D01*
X246534Y332809D01*
X248004Y332200D01*
X249596D01*
X251066Y332809D01*
X252191Y333934D01*
X252800Y335404D01*
Y336996D01*
X252191Y338466D01*
X251066Y339591D01*
X249596Y340200D01*
D02*
G37*
G36*
X199753Y341700D02*
X198560D01*
X197457Y341243D01*
X196613Y340399D01*
X196156Y339297D01*
Y338103D01*
X196613Y337001D01*
X196706Y336908D01*
X197259Y335918D01*
X196706Y335248D01*
X196457Y334999D01*
X196000Y333897D01*
Y332703D01*
X196457Y331601D01*
X197301Y330757D01*
X198403Y330300D01*
X199597D01*
X200699Y330757D01*
X201543Y331601D01*
X202000Y332703D01*
Y333897D01*
X201543Y334999D01*
X201451Y335092D01*
X200897Y336082D01*
X201451Y336752D01*
X201700Y337001D01*
X202156Y338103D01*
Y339297D01*
X201700Y340399D01*
X200856Y341243D01*
X199753Y341700D01*
D02*
G37*
G36*
X261797Y334700D02*
X260603D01*
X259501Y334243D01*
X258657Y333399D01*
X258200Y332297D01*
Y331103D01*
X258657Y330001D01*
X259501Y329157D01*
X260603Y328700D01*
X261797D01*
X262899Y329157D01*
X263743Y330001D01*
X264200Y331103D01*
Y332297D01*
X263743Y333399D01*
X262899Y334243D01*
X261797Y334700D01*
D02*
G37*
G36*
X238797Y322300D02*
X237603D01*
X236501Y321843D01*
X235657Y320999D01*
X235200Y319897D01*
Y318703D01*
X235657Y317601D01*
X236501Y316757D01*
X237603Y316300D01*
X238797D01*
X239899Y316757D01*
X240743Y317601D01*
X241200Y318703D01*
Y319897D01*
X240743Y320999D01*
X239899Y321843D01*
X238797Y322300D01*
D02*
G37*
G36*
X227497Y317571D02*
X226303D01*
X225201Y317114D01*
X224357Y316270D01*
X223900Y315168D01*
Y313974D01*
X224058Y313594D01*
X223086Y312622D01*
X222897Y312700D01*
X221703D01*
X220601Y312243D01*
X219757Y311399D01*
X219300Y310297D01*
Y309103D01*
X219757Y308001D01*
X220601Y307157D01*
X221703Y306700D01*
X222897D01*
X223999Y307157D01*
X224843Y308001D01*
X225300Y309103D01*
Y310297D01*
X225142Y310677D01*
X226115Y311649D01*
X226303Y311571D01*
X227497D01*
X228599Y312028D01*
X229443Y312872D01*
X229900Y313974D01*
Y315168D01*
X229443Y316270D01*
X228599Y317114D01*
X227497Y317571D01*
D02*
G37*
G36*
X200897Y318003D02*
X199703D01*
X198601Y317547D01*
X197757Y316703D01*
X197300Y315600D01*
Y314407D01*
X197757Y313304D01*
X198601Y312460D01*
X199703Y312003D01*
X200897D01*
X201999Y312460D01*
X202843Y313304D01*
X203300Y314407D01*
Y315600D01*
X202843Y316703D01*
X201999Y317547D01*
X200897Y318003D01*
D02*
G37*
G36*
X378597Y316500D02*
X377403D01*
X376301Y316043D01*
X375457Y315199D01*
X375000Y314097D01*
Y312903D01*
X375457Y311801D01*
X376301Y310957D01*
X377403Y310500D01*
X378597D01*
X379699Y310957D01*
X380543Y311801D01*
X381000Y312903D01*
Y314097D01*
X380543Y315199D01*
X379699Y316043D01*
X378597Y316500D01*
D02*
G37*
G36*
X352597Y314500D02*
X351403D01*
X350301Y314043D01*
X349457Y313199D01*
X349000Y312097D01*
Y310903D01*
X349457Y309801D01*
X350301Y308957D01*
X351403Y308500D01*
X352597D01*
X353699Y308957D01*
X354543Y309801D01*
X355000Y310903D01*
Y312097D01*
X354543Y313199D01*
X353699Y314043D01*
X352597Y314500D01*
D02*
G37*
G36*
X212297Y312701D02*
X211103D01*
X210001Y312245D01*
X209157Y311401D01*
X208700Y310298D01*
Y309104D01*
X209029Y308309D01*
X208284Y307616D01*
X208025Y307474D01*
X206997Y307900D01*
X205803D01*
X204701Y307443D01*
X203857Y306599D01*
X203400Y305497D01*
Y304303D01*
X203857Y303201D01*
X204701Y302357D01*
X205803Y301900D01*
X206997D01*
X208099Y302357D01*
X208943Y303201D01*
X209400Y304303D01*
Y305497D01*
X209071Y306292D01*
X209816Y306986D01*
X210075Y307127D01*
X211103Y306701D01*
X212297D01*
X213399Y307158D01*
X214243Y308002D01*
X214700Y309104D01*
Y310298D01*
X214243Y311401D01*
X213399Y312245D01*
X212297Y312701D01*
D02*
G37*
G36*
X238797Y312700D02*
X237603D01*
X236501Y312243D01*
X235657Y311399D01*
X235200Y310297D01*
Y309103D01*
X235657Y308001D01*
X236501Y307157D01*
X237603Y306700D01*
X238797D01*
X239899Y307157D01*
X240743Y308001D01*
X241200Y309103D01*
Y310297D01*
X240743Y311399D01*
X239899Y312243D01*
X238797Y312700D01*
D02*
G37*
G36*
X315597Y309000D02*
X314403D01*
X313301Y308543D01*
X312457Y307699D01*
X312000Y306597D01*
Y305403D01*
X312457Y304301D01*
X313301Y303457D01*
X314403Y303000D01*
X315597D01*
X316699Y303457D01*
X317543Y304301D01*
X318000Y305403D01*
Y306597D01*
X317543Y307699D01*
X316699Y308543D01*
X315597Y309000D01*
D02*
G37*
G36*
X278597Y310000D02*
X277403D01*
X276301Y309543D01*
X275457Y308699D01*
X275000Y307597D01*
Y306403D01*
X275457Y305301D01*
X275487Y305270D01*
X274961Y304000D01*
X274903D01*
X273801Y303543D01*
X272957Y302699D01*
X272500Y301597D01*
Y300403D01*
X272957Y299301D01*
X273475Y298783D01*
X273680Y298000D01*
X273475Y297217D01*
X272957Y296699D01*
X272500Y295597D01*
Y294403D01*
X272957Y293301D01*
X273475Y292783D01*
X273680Y292000D01*
X273475Y291217D01*
X272957Y290699D01*
X272500Y289597D01*
Y288403D01*
X272957Y287301D01*
X273801Y286457D01*
X274903Y286000D01*
X276097D01*
X277199Y286457D01*
X278043Y287301D01*
X278500Y288403D01*
Y289597D01*
X278043Y290699D01*
X277526Y291217D01*
X277320Y292000D01*
X277526Y292783D01*
X278043Y293301D01*
X278500Y294403D01*
Y295597D01*
X278043Y296699D01*
X277526Y297217D01*
X277320Y298000D01*
X277526Y298783D01*
X278043Y299301D01*
X278500Y300403D01*
Y301597D01*
X278043Y302699D01*
X278013Y302730D01*
X278539Y304000D01*
X278597D01*
X279699Y304457D01*
X280230Y304987D01*
X281500Y304544D01*
Y303903D01*
X281957Y302801D01*
X282801Y301957D01*
X283903Y301500D01*
X285097D01*
X286199Y301957D01*
X287043Y302801D01*
X287500Y303903D01*
Y305097D01*
X287043Y306199D01*
X286199Y307043D01*
X285097Y307500D01*
X283903D01*
X282801Y307043D01*
X282270Y306513D01*
X281000Y306956D01*
Y307597D01*
X280543Y308699D01*
X279699Y309543D01*
X278597Y310000D01*
D02*
G37*
G36*
X196097Y304500D02*
X194903D01*
X193801Y304043D01*
X192957Y303199D01*
X192500Y302097D01*
Y300903D01*
X192957Y299801D01*
X193801Y298957D01*
X194903Y298500D01*
X196097D01*
X197199Y298957D01*
X198043Y299801D01*
X198500Y300903D01*
Y302097D01*
X198043Y303199D01*
X197199Y304043D01*
X196097Y304500D01*
D02*
G37*
G36*
X248097Y303000D02*
X246903D01*
X245801Y302543D01*
X244957Y301699D01*
X244500Y300597D01*
Y299403D01*
X244957Y298301D01*
X245801Y297457D01*
X246903Y297000D01*
X248097D01*
X249199Y297457D01*
X250043Y298301D01*
X250500Y299403D01*
Y300597D01*
X250043Y301699D01*
X249199Y302543D01*
X248097Y303000D01*
D02*
G37*
G36*
X223597Y302933D02*
X222403D01*
X221301Y302477D01*
X220457Y301633D01*
X220000Y300530D01*
Y299336D01*
X220457Y298234D01*
X221301Y297390D01*
X222403Y296933D01*
X223597D01*
X224699Y297390D01*
X225543Y298234D01*
X226000Y299336D01*
Y300530D01*
X225543Y301633D01*
X224699Y302477D01*
X223597Y302933D01*
D02*
G37*
G36*
X382597Y302500D02*
X381403D01*
X380301Y302043D01*
X379457Y301199D01*
X379000Y300097D01*
Y298903D01*
X379457Y297801D01*
X380301Y296957D01*
X381403Y296500D01*
X382597D01*
X383699Y296957D01*
X384543Y297801D01*
X385000Y298903D01*
Y300097D01*
X384543Y301199D01*
X383699Y302043D01*
X382597Y302500D01*
D02*
G37*
G36*
X154917Y299430D02*
X153723D01*
X152621Y298973D01*
X151777Y298129D01*
X151320Y297027D01*
Y295833D01*
X151777Y294731D01*
X152621Y293887D01*
X153723Y293430D01*
X154917D01*
X155532Y292310D01*
X155897Y291431D01*
X156741Y290587D01*
X157843Y290130D01*
X159037D01*
X160139Y290587D01*
X160983Y291431D01*
X161440Y292533D01*
Y293727D01*
X160983Y294829D01*
X160139Y295673D01*
X159037Y296130D01*
X157843D01*
X157228Y297250D01*
X156863Y298129D01*
X156019Y298973D01*
X154917Y299430D01*
D02*
G37*
G36*
X196936Y295539D02*
X195743D01*
X194640Y295082D01*
X193797Y294239D01*
X193340Y293136D01*
Y291943D01*
X193797Y290840D01*
X194640Y289996D01*
X195743Y289539D01*
X196936D01*
X198039Y289996D01*
X198883Y290840D01*
X199340Y291943D01*
Y293136D01*
X198883Y294239D01*
X198039Y295082D01*
X196936Y295539D01*
D02*
G37*
G36*
X345597Y294000D02*
X344403D01*
X343301Y293543D01*
X342457Y292699D01*
X342000Y291597D01*
Y290403D01*
X342457Y289301D01*
X343301Y288457D01*
X344403Y288000D01*
X345597D01*
X346699Y288457D01*
X347543Y289301D01*
X348000Y290403D01*
Y291597D01*
X347543Y292699D01*
X346699Y293543D01*
X345597Y294000D01*
D02*
G37*
G36*
X365097Y293500D02*
X363903D01*
X362801Y293043D01*
X361957Y292199D01*
X361500Y291097D01*
Y289903D01*
X361957Y288801D01*
X362801Y287957D01*
X363903Y287500D01*
X365097D01*
X366199Y287957D01*
X367043Y288801D01*
X367500Y289903D01*
Y291097D01*
X367043Y292199D01*
X366199Y293043D01*
X365097Y293500D01*
D02*
G37*
G36*
X228597D02*
X227403D01*
X226301Y293043D01*
X225457Y292199D01*
X225000Y291097D01*
Y289903D01*
X225457Y288801D01*
X226301Y287957D01*
X227403Y287500D01*
X228597D01*
X229699Y287957D01*
X230543Y288801D01*
X231000Y289903D01*
Y291097D01*
X230543Y292199D01*
X229699Y293043D01*
X228597Y293500D01*
D02*
G37*
G36*
X196596Y287200D02*
X195004D01*
X193534Y286591D01*
X192409Y285466D01*
X191800Y283996D01*
Y282404D01*
X192409Y280934D01*
X193534Y279809D01*
X195004Y279200D01*
X196596D01*
X198066Y279809D01*
X199191Y280934D01*
X199800Y282404D01*
Y283996D01*
X199191Y285466D01*
X198066Y286591D01*
X196596Y287200D01*
D02*
G37*
G36*
X223597Y278000D02*
X222403D01*
X221301Y277543D01*
X220457Y276699D01*
X220000Y275597D01*
Y274403D01*
X220457Y273301D01*
X221301Y272457D01*
X222403Y272000D01*
X223597D01*
X224699Y272457D01*
X225543Y273301D01*
X226000Y274403D01*
Y275597D01*
X225543Y276699D01*
X224699Y277543D01*
X223597Y278000D01*
D02*
G37*
G36*
X210097D02*
X208903D01*
X207801Y277543D01*
X206957Y276699D01*
X206500Y275597D01*
Y274403D01*
X206957Y273301D01*
X207801Y272457D01*
X208903Y272000D01*
X210097D01*
X211199Y272457D01*
X212043Y273301D01*
X212500Y274403D01*
Y275597D01*
X212043Y276699D01*
X211199Y277543D01*
X210097Y278000D01*
D02*
G37*
G36*
X284097Y272500D02*
X282903D01*
X281801Y272043D01*
X280957Y271199D01*
X280500Y270097D01*
Y268903D01*
X280957Y267801D01*
X281801Y266957D01*
X282903Y266500D01*
X284097D01*
X285199Y266957D01*
X286043Y267801D01*
X286500Y268903D01*
Y270097D01*
X286043Y271199D01*
X285199Y272043D01*
X284097Y272500D01*
D02*
G37*
G36*
X236597Y265000D02*
X235403D01*
X234301Y264543D01*
X233783Y264025D01*
X233000Y263820D01*
X232217Y264025D01*
X231699Y264543D01*
X230597Y265000D01*
X229403D01*
X228301Y264543D01*
X227457Y263699D01*
X227000Y262597D01*
Y261403D01*
X227457Y260301D01*
X228301Y259457D01*
X229403Y259000D01*
X230597D01*
X231699Y259457D01*
X232217Y259974D01*
X233000Y260180D01*
X233783Y259974D01*
X234301Y259457D01*
X235403Y259000D01*
X236597D01*
X237699Y259457D01*
X238543Y260301D01*
X239000Y261403D01*
Y262597D01*
X238543Y263699D01*
X237699Y264543D01*
X236597Y265000D01*
D02*
G37*
G36*
X206097D02*
X204903D01*
X203801Y264543D01*
X203283Y264025D01*
X202500Y263820D01*
X201717Y264025D01*
X201199Y264543D01*
X200097Y265000D01*
X198903D01*
X197801Y264543D01*
X196957Y263699D01*
X196500Y262597D01*
Y261403D01*
X196957Y260301D01*
X197801Y259457D01*
X198903Y259000D01*
X200097D01*
X201199Y259457D01*
X201717Y259974D01*
X202500Y260180D01*
X203283Y259974D01*
X203801Y259457D01*
X204903Y259000D01*
X206097D01*
X207199Y259457D01*
X208043Y260301D01*
X208500Y261403D01*
Y262597D01*
X208043Y263699D01*
X207199Y264543D01*
X206097Y265000D01*
D02*
G37*
G36*
X221597D02*
X220403D01*
X219301Y264543D01*
X218457Y263699D01*
X218437Y263652D01*
X217063D01*
X217043Y263699D01*
X216199Y264543D01*
X215097Y265000D01*
X213903D01*
X212801Y264543D01*
X211957Y263699D01*
X211500Y262597D01*
Y261403D01*
X211957Y260301D01*
X212801Y259457D01*
X213903Y259000D01*
X215097D01*
X216199Y259457D01*
X217043Y260301D01*
X217063Y260347D01*
X218437D01*
X218457Y260301D01*
X219301Y259457D01*
X220403Y259000D01*
X221597D01*
X222699Y259457D01*
X223543Y260301D01*
X224000Y261403D01*
Y262597D01*
X223543Y263699D01*
X222699Y264543D01*
X221597Y265000D01*
D02*
G37*
G36*
X151597Y267500D02*
X150403D01*
X149301Y267043D01*
X148457Y266199D01*
X148000Y265097D01*
Y263903D01*
X148457Y262801D01*
X149301Y261957D01*
X150403Y261500D01*
X151597D01*
X152699Y261957D01*
X153543Y262801D01*
X154000Y263903D01*
Y265097D01*
X153543Y266199D01*
X152699Y267043D01*
X151597Y267500D01*
D02*
G37*
G36*
X362585Y278500D02*
X360215D01*
X357926Y277887D01*
X355874Y276702D01*
X354198Y275026D01*
X353013Y272974D01*
X352400Y270685D01*
Y268315D01*
X353013Y266026D01*
X354198Y263974D01*
X355874Y262298D01*
X357926Y261113D01*
X360215Y260500D01*
X362585D01*
X364874Y261113D01*
X366926Y262298D01*
X368602Y263974D01*
X369787Y266026D01*
X370400Y268315D01*
Y270685D01*
X369787Y272974D01*
X368602Y275026D01*
X366926Y276702D01*
X364874Y277887D01*
X362585Y278500D01*
D02*
G37*
G36*
X337185D02*
X334815D01*
X332526Y277887D01*
X330474Y276702D01*
X328798Y275026D01*
X327613Y272974D01*
X327000Y270685D01*
Y268315D01*
X327613Y266026D01*
X328798Y263974D01*
X330474Y262298D01*
X332526Y261113D01*
X334815Y260500D01*
X337185D01*
X339474Y261113D01*
X341526Y262298D01*
X343202Y263974D01*
X344387Y266026D01*
X345000Y268315D01*
Y270685D01*
X344387Y272974D01*
X343202Y275026D01*
X341526Y276702D01*
X339474Y277887D01*
X337185Y278500D01*
D02*
G37*
G36*
X390800Y278598D02*
X382800D01*
X380849Y278210D01*
X379195Y277105D01*
X378090Y275451D01*
X377702Y273500D01*
Y265500D01*
X378090Y263549D01*
X379195Y261895D01*
X380849Y260790D01*
X382800Y260402D01*
X390800D01*
X392751Y260790D01*
X394405Y261895D01*
X395510Y263549D01*
X395898Y265500D01*
Y273500D01*
X395510Y275451D01*
X394405Y277105D01*
X392751Y278210D01*
X390800Y278598D01*
D02*
G37*
G36*
X293597Y261000D02*
X292403D01*
X291301Y260543D01*
X290457Y259699D01*
X290000Y258597D01*
Y257403D01*
X290457Y256301D01*
X291301Y255457D01*
X292403Y255000D01*
X293597D01*
X294699Y255457D01*
X295543Y256301D01*
X296000Y257403D01*
Y258597D01*
X295543Y259699D01*
X294699Y260543D01*
X293597Y261000D01*
D02*
G37*
G36*
X159597Y259000D02*
X158403D01*
X157301Y258543D01*
X156457Y257699D01*
X156000Y256597D01*
Y255403D01*
X156457Y254301D01*
X157301Y253457D01*
X158403Y253000D01*
X159597D01*
X160699Y253457D01*
X161543Y254301D01*
X162000Y255403D01*
Y256597D01*
X161543Y257699D01*
X160699Y258543D01*
X159597Y259000D01*
D02*
G37*
G36*
X74597Y258500D02*
X73403D01*
X72301Y258043D01*
X71457Y257199D01*
X71000Y256097D01*
Y254903D01*
X71457Y253801D01*
X72301Y252957D01*
X73403Y252500D01*
X74597D01*
X75699Y252957D01*
X76543Y253801D01*
X77000Y254903D01*
Y256097D01*
X76543Y257199D01*
X75699Y258043D01*
X74597Y258500D01*
D02*
G37*
G36*
X175097Y257000D02*
X173903D01*
X172801Y256543D01*
X171957Y255699D01*
X171500Y254597D01*
Y253403D01*
X171957Y252301D01*
X172801Y251457D01*
X173903Y251000D01*
X175097D01*
X176199Y251457D01*
X177043Y252301D01*
X177500Y253403D01*
Y254597D01*
X177043Y255699D01*
X176199Y256543D01*
X175097Y257000D01*
D02*
G37*
G36*
X296597Y247000D02*
X295403D01*
X294301Y246543D01*
X293457Y245699D01*
X293422Y245616D01*
X291924Y245318D01*
X291699Y245543D01*
X290597Y246000D01*
X289403D01*
X288301Y245543D01*
X287457Y244699D01*
X287000Y243597D01*
Y242403D01*
X287457Y241301D01*
X288301Y240457D01*
X289403Y240000D01*
X290597D01*
X291699Y240457D01*
X292543Y241301D01*
X292578Y241384D01*
X294076Y241682D01*
X294301Y241457D01*
X295403Y241000D01*
X296597D01*
X297699Y241457D01*
X298543Y242301D01*
X299000Y243403D01*
Y244597D01*
X298543Y245699D01*
X297699Y246543D01*
X296597Y247000D01*
D02*
G37*
G36*
X166097Y250500D02*
X164903D01*
X163801Y250043D01*
X162957Y249199D01*
X162500Y248097D01*
Y246903D01*
X162957Y245801D01*
X163801Y244957D01*
X164903Y244500D01*
X166097D01*
X167199Y244957D01*
X168043Y245801D01*
X168500Y246903D01*
Y248097D01*
X168043Y249199D01*
X167199Y250043D01*
X166097Y250500D01*
D02*
G37*
G36*
X70597Y249500D02*
X69403D01*
X68301Y249043D01*
X67457Y248199D01*
X67000Y247097D01*
Y245903D01*
X67457Y244801D01*
X68301Y243957D01*
X69403Y243500D01*
X70597D01*
X71699Y243957D01*
X72543Y244801D01*
X73000Y245903D01*
Y247097D01*
X72543Y248199D01*
X71699Y249043D01*
X70597Y249500D01*
D02*
G37*
G36*
X176597Y246000D02*
X175403D01*
X174301Y245543D01*
X173457Y244699D01*
X173000Y243597D01*
Y242403D01*
X173457Y241301D01*
X174301Y240457D01*
X175403Y240000D01*
X176597D01*
X177699Y240457D01*
X178543Y241301D01*
X179000Y242403D01*
Y243597D01*
X178543Y244699D01*
X177699Y245543D01*
X176597Y246000D01*
D02*
G37*
G36*
X258597Y246000D02*
X257403D01*
X256301Y245543D01*
X255457Y244699D01*
X255000Y243597D01*
Y242403D01*
X255457Y241301D01*
X256301Y240457D01*
X257403Y240000D01*
X258597D01*
X259699Y240457D01*
X260543Y241301D01*
X261000Y242403D01*
Y243597D01*
X260543Y244699D01*
X259699Y245543D01*
X258597Y246000D01*
D02*
G37*
G36*
X76597Y239500D02*
X75403D01*
X74301Y239043D01*
X73457Y238199D01*
X73000Y237097D01*
Y235903D01*
X73457Y234801D01*
X74301Y233957D01*
X75403Y233500D01*
X76597D01*
X77699Y233957D01*
X78543Y234801D01*
X79000Y235903D01*
Y237097D01*
X78543Y238199D01*
X77699Y239043D01*
X76597Y239500D01*
D02*
G37*
G36*
X131097Y229500D02*
X129903D01*
X128801Y229043D01*
X127957Y228199D01*
X127500Y227097D01*
Y225903D01*
X127957Y224801D01*
X128801Y223957D01*
X129903Y223500D01*
X131097D01*
X132199Y223957D01*
X133043Y224801D01*
X133500Y225903D01*
Y227097D01*
X133043Y228199D01*
X132199Y229043D01*
X131097Y229500D01*
D02*
G37*
G36*
X303597Y224500D02*
X302403D01*
X301301Y224043D01*
X300457Y223199D01*
X300000Y222097D01*
Y220903D01*
X300457Y219801D01*
X301301Y218957D01*
X302403Y218500D01*
X303597D01*
X304699Y218957D01*
X305543Y219801D01*
X306000Y220903D01*
Y222097D01*
X305543Y223199D01*
X304699Y224043D01*
X303597Y224500D01*
D02*
G37*
G36*
X362185Y234500D02*
X359815D01*
X357526Y233887D01*
X355474Y232702D01*
X353798Y231026D01*
X352613Y228974D01*
X352000Y226685D01*
Y224315D01*
X352613Y222026D01*
X353798Y219974D01*
X355474Y218298D01*
X357526Y217113D01*
X359815Y216500D01*
X362185D01*
X364474Y217113D01*
X366526Y218298D01*
X368202Y219974D01*
X369387Y222026D01*
X370000Y224315D01*
Y226685D01*
X369387Y228974D01*
X368202Y231026D01*
X366526Y232702D01*
X364474Y233887D01*
X362185Y234500D01*
D02*
G37*
G36*
X336785D02*
X334415D01*
X332126Y233887D01*
X330074Y232702D01*
X328398Y231026D01*
X327213Y228974D01*
X326600Y226685D01*
Y224315D01*
X327213Y222026D01*
X328398Y219974D01*
X330074Y218298D01*
X332126Y217113D01*
X334415Y216500D01*
X336785D01*
X339074Y217113D01*
X341126Y218298D01*
X342802Y219974D01*
X343987Y222026D01*
X344600Y224315D01*
Y226685D01*
X343987Y228974D01*
X342802Y231026D01*
X341126Y232702D01*
X339074Y233887D01*
X336785Y234500D01*
D02*
G37*
G36*
X390400Y234598D02*
X382400D01*
X380449Y234210D01*
X378795Y233105D01*
X377690Y231451D01*
X377302Y229500D01*
Y221500D01*
X377690Y219549D01*
X378795Y217895D01*
X380449Y216790D01*
X382400Y216402D01*
X390400D01*
X392351Y216790D01*
X394005Y217895D01*
X395110Y219549D01*
X395498Y221500D01*
Y229500D01*
X395110Y231451D01*
X394005Y233105D01*
X392351Y234210D01*
X390400Y234598D01*
D02*
G37*
G36*
X106097Y222000D02*
X104903D01*
X103801Y221543D01*
X102957Y220699D01*
X102500Y219597D01*
Y218403D01*
X102957Y217301D01*
X103801Y216457D01*
X104903Y216000D01*
X106097D01*
X107199Y216457D01*
X108043Y217301D01*
X108500Y218403D01*
Y219597D01*
X108043Y220699D01*
X107199Y221543D01*
X106097Y222000D01*
D02*
G37*
G36*
X229597Y218000D02*
X228403D01*
X227301Y217543D01*
X226457Y216699D01*
X226000Y215597D01*
Y214403D01*
X226457Y213301D01*
X227301Y212457D01*
X228403Y212000D01*
X229597D01*
X230699Y212457D01*
X231543Y213301D01*
X232000Y214403D01*
Y215597D01*
X231543Y216699D01*
X230699Y217543D01*
X229597Y218000D01*
D02*
G37*
G36*
X214438D02*
X213245D01*
X212142Y217543D01*
X211298Y216699D01*
X210842Y215597D01*
Y214403D01*
X211298Y213301D01*
X212142Y212457D01*
X213245Y212000D01*
X214438D01*
X215541Y212457D01*
X216385Y213301D01*
X216842Y214403D01*
Y215597D01*
X216385Y216699D01*
X215541Y217543D01*
X214438Y218000D01*
D02*
G37*
G36*
X295097Y215000D02*
X293903D01*
X292801Y214543D01*
X291957Y213699D01*
X291500Y212597D01*
Y211403D01*
X291957Y210301D01*
X292801Y209457D01*
X293903Y209000D01*
X295097D01*
X296199Y209457D01*
X297043Y210301D01*
X297500Y211403D01*
Y212597D01*
X297043Y213699D01*
X296199Y214543D01*
X295097Y215000D01*
D02*
G37*
G36*
X110097Y213500D02*
X108903D01*
X107801Y213043D01*
X106957Y212199D01*
X106500Y211097D01*
Y209903D01*
X106957Y208801D01*
X107801Y207957D01*
X108903Y207500D01*
X110097D01*
X111199Y207957D01*
X112043Y208801D01*
X112500Y209903D01*
Y211097D01*
X112043Y212199D01*
X111199Y213043D01*
X110097Y213500D01*
D02*
G37*
G36*
X101597D02*
X100403D01*
X99301Y213043D01*
X98457Y212199D01*
X98000Y211097D01*
Y209903D01*
X98457Y208801D01*
X99301Y207957D01*
X100403Y207500D01*
X101597D01*
X102699Y207957D01*
X103543Y208801D01*
X104000Y209903D01*
Y211097D01*
X103543Y212199D01*
X102699Y213043D01*
X101597Y213500D01*
D02*
G37*
G36*
X292597Y197500D02*
X291403D01*
X290301Y197043D01*
X289457Y196199D01*
X289000Y195097D01*
Y193903D01*
X289457Y192801D01*
X290301Y191957D01*
X291403Y191500D01*
X292597D01*
X293699Y191957D01*
X294543Y192801D01*
X295000Y193903D01*
Y195097D01*
X294543Y196199D01*
X293699Y197043D01*
X292597Y197500D01*
D02*
G37*
G36*
X263097Y194000D02*
X261903D01*
X260801Y193543D01*
X259957Y192699D01*
X259500Y191597D01*
Y190403D01*
X259957Y189301D01*
X260801Y188457D01*
X261903Y188000D01*
X263097D01*
X264199Y188457D01*
X265043Y189301D01*
X265500Y190403D01*
Y191597D01*
X265043Y192699D01*
X264199Y193543D01*
X263097Y194000D01*
D02*
G37*
G36*
X301597Y189500D02*
X300403D01*
X299301Y189043D01*
X298457Y188199D01*
X298000Y187097D01*
Y185903D01*
X298457Y184801D01*
X299301Y183957D01*
X300403Y183500D01*
X301597D01*
X302699Y183957D01*
X303543Y184801D01*
X304000Y185903D01*
Y187097D01*
X303543Y188199D01*
X302699Y189043D01*
X301597Y189500D01*
D02*
G37*
G36*
X260097Y186000D02*
X258903D01*
X257801Y185543D01*
X256957Y184699D01*
X256500Y183597D01*
Y182403D01*
X256957Y181301D01*
X257801Y180457D01*
X258903Y180000D01*
X260097D01*
X261199Y180457D01*
X262043Y181301D01*
X262500Y182403D01*
Y183597D01*
X262043Y184699D01*
X261199Y185543D01*
X260097Y186000D01*
D02*
G37*
G36*
X190597D02*
X189403D01*
X188301Y185543D01*
X187457Y184699D01*
X187000Y183597D01*
Y182403D01*
X187457Y181301D01*
X188301Y180457D01*
X189403Y180000D01*
X190597D01*
X191699Y180457D01*
X192543Y181301D01*
X193000Y182403D01*
Y183597D01*
X192543Y184699D01*
X191699Y185543D01*
X190597Y186000D01*
D02*
G37*
G36*
X362185Y192500D02*
X359815D01*
X357526Y191887D01*
X355474Y190702D01*
X353798Y189026D01*
X352613Y186974D01*
X352000Y184685D01*
Y182315D01*
X352613Y180026D01*
X353798Y177974D01*
X355474Y176298D01*
X357526Y175113D01*
X359815Y174500D01*
X362185D01*
X364474Y175113D01*
X366526Y176298D01*
X368202Y177974D01*
X369387Y180026D01*
X370000Y182315D01*
Y184685D01*
X369387Y186974D01*
X368202Y189026D01*
X366526Y190702D01*
X364474Y191887D01*
X362185Y192500D01*
D02*
G37*
G36*
X336785D02*
X334415D01*
X332126Y191887D01*
X330074Y190702D01*
X328398Y189026D01*
X327213Y186974D01*
X326600Y184685D01*
Y182315D01*
X327213Y180026D01*
X328398Y177974D01*
X330074Y176298D01*
X332126Y175113D01*
X334415Y174500D01*
X336785D01*
X339074Y175113D01*
X341126Y176298D01*
X342802Y177974D01*
X343987Y180026D01*
X344600Y182315D01*
Y184685D01*
X343987Y186974D01*
X342802Y189026D01*
X341126Y190702D01*
X339074Y191887D01*
X336785Y192500D01*
D02*
G37*
G36*
X390400Y192598D02*
X382400D01*
X380449Y192210D01*
X378795Y191105D01*
X377690Y189451D01*
X377302Y187500D01*
Y179500D01*
X377690Y177549D01*
X378795Y175895D01*
X380449Y174790D01*
X382400Y174402D01*
X390400D01*
X392351Y174790D01*
X394005Y175895D01*
X395110Y177549D01*
X395498Y179500D01*
Y187500D01*
X395110Y189451D01*
X394005Y191105D01*
X392351Y192210D01*
X390400Y192598D01*
D02*
G37*
G36*
X154097Y179500D02*
X152903D01*
X151801Y179043D01*
X150957Y178199D01*
X150500Y177097D01*
Y175903D01*
X150957Y174801D01*
X151801Y173957D01*
X152903Y173500D01*
X154097D01*
X155199Y173957D01*
X156043Y174801D01*
X156500Y175903D01*
Y177097D01*
X156043Y178199D01*
X155199Y179043D01*
X154097Y179500D01*
D02*
G37*
G36*
X72097Y168000D02*
X70903D01*
X69801Y167543D01*
X68957Y166699D01*
X68500Y165597D01*
Y164403D01*
X68957Y163301D01*
X69801Y162457D01*
X70903Y162000D01*
X72097D01*
X73199Y162457D01*
X74043Y163301D01*
X74500Y164403D01*
Y165597D01*
X74043Y166699D01*
X73199Y167543D01*
X72097Y168000D01*
D02*
G37*
G36*
X225097Y161000D02*
X223903D01*
X222801Y160543D01*
X221957Y159699D01*
X221500Y158597D01*
Y157403D01*
X221957Y156301D01*
X222801Y155457D01*
X223903Y155000D01*
X225097D01*
X226199Y155457D01*
X227043Y156301D01*
X227500Y157403D01*
Y158597D01*
X227043Y159699D01*
X226199Y160543D01*
X225097Y161000D01*
D02*
G37*
G36*
X200505Y158883D02*
X199311D01*
X198209Y158426D01*
X197365Y157582D01*
X196908Y156480D01*
Y155286D01*
X197365Y154183D01*
X198209Y153340D01*
X199311Y152883D01*
X200505D01*
X201607Y153340D01*
X202451Y154183D01*
X202908Y155286D01*
Y156480D01*
X202451Y157582D01*
X201607Y158426D01*
X200505Y158883D01*
D02*
G37*
G36*
X94379Y156112D02*
X93185D01*
X92083Y155655D01*
X91239Y154811D01*
X90782Y153709D01*
Y152515D01*
X91239Y151413D01*
X92083Y150569D01*
X93185Y150112D01*
X94379D01*
X95482Y150569D01*
X96325Y151413D01*
X96782Y152515D01*
Y153709D01*
X96325Y154811D01*
X95482Y155655D01*
X94379Y156112D01*
D02*
G37*
G36*
X239097Y154500D02*
X237903D01*
X236801Y154043D01*
X235957Y153199D01*
X235500Y152097D01*
Y150903D01*
X235957Y149801D01*
X236801Y148957D01*
X237903Y148500D01*
X239097D01*
X240199Y148957D01*
X241043Y149801D01*
X241500Y150903D01*
Y152097D01*
X241043Y153199D01*
X240199Y154043D01*
X239097Y154500D01*
D02*
G37*
G36*
X208097Y151500D02*
X206903D01*
X205801Y151043D01*
X204957Y150199D01*
X204500Y149097D01*
Y147903D01*
X204957Y146801D01*
X205801Y145957D01*
X206903Y145500D01*
X208097D01*
X209199Y145957D01*
X210043Y146801D01*
X210500Y147903D01*
Y149097D01*
X210043Y150199D01*
X209199Y151043D01*
X208097Y151500D01*
D02*
G37*
G36*
X86597Y144500D02*
X85403D01*
X84301Y144043D01*
X83457Y143199D01*
X83000Y142097D01*
Y140903D01*
X83457Y139801D01*
X84301Y138957D01*
X85403Y138500D01*
X86597D01*
X87699Y138957D01*
X88543Y139801D01*
X89000Y140903D01*
Y142097D01*
X88543Y143199D01*
X87699Y144043D01*
X86597Y144500D01*
D02*
G37*
G36*
X261597Y143500D02*
X260403D01*
X259301Y143043D01*
X258457Y142199D01*
X258000Y141097D01*
Y139903D01*
X258457Y138801D01*
X259301Y137957D01*
X260403Y137500D01*
X261597D01*
X262699Y137957D01*
X263543Y138801D01*
X264000Y139903D01*
Y141097D01*
X263543Y142199D01*
X262699Y143043D01*
X261597Y143500D01*
D02*
G37*
G36*
X178005Y142383D02*
X176811D01*
X175709Y141926D01*
X174865Y141082D01*
X174408Y139979D01*
Y138786D01*
X174865Y137683D01*
X175709Y136840D01*
X176811Y136383D01*
X178005D01*
X179107Y136840D01*
X179951Y137683D01*
X180408Y138786D01*
Y139979D01*
X179951Y141082D01*
X179107Y141926D01*
X178005Y142383D01*
D02*
G37*
G36*
X239097Y138500D02*
X237903D01*
X236801Y138043D01*
X235957Y137199D01*
X235500Y136097D01*
Y134903D01*
X235957Y133801D01*
X236801Y132957D01*
X237903Y132500D01*
X239097D01*
X240199Y132957D01*
X241043Y133801D01*
X241500Y134903D01*
Y136097D01*
X241043Y137199D01*
X240199Y138043D01*
X239097Y138500D01*
D02*
G37*
G36*
X261597Y127500D02*
X260403D01*
X259301Y127043D01*
X258457Y126199D01*
X258000Y125097D01*
Y123903D01*
X258457Y122801D01*
X259301Y121957D01*
X260403Y121500D01*
X261597D01*
X262699Y121957D01*
X263543Y122801D01*
X264000Y123903D01*
Y125097D01*
X263543Y126199D01*
X262699Y127043D01*
X261597Y127500D01*
D02*
G37*
G36*
X207097D02*
X205903D01*
X204801Y127043D01*
X203957Y126199D01*
X203500Y125097D01*
Y123903D01*
X203957Y122801D01*
X204801Y121957D01*
X205903Y121500D01*
X207097D01*
X208199Y121957D01*
X209043Y122801D01*
X209500Y123903D01*
Y125097D01*
X209043Y126199D01*
X208199Y127043D01*
X207097Y127500D01*
D02*
G37*
G36*
X134597Y121000D02*
X133403D01*
X132301Y120543D01*
X131457Y119699D01*
X131000Y118597D01*
Y117403D01*
X131457Y116301D01*
X132301Y115457D01*
X133403Y115000D01*
X134597D01*
X135699Y115457D01*
X136543Y116301D01*
X137000Y117403D01*
Y118597D01*
X136543Y119699D01*
X135699Y120543D01*
X134597Y121000D01*
D02*
G37*
G36*
X285118Y113750D02*
X282682D01*
X280330Y113120D01*
X278220Y111902D01*
X276498Y110180D01*
X275280Y108070D01*
X274650Y105718D01*
Y103282D01*
X275280Y100930D01*
X276498Y98820D01*
X278220Y97098D01*
X280330Y95880D01*
X282682Y95250D01*
X285118D01*
X287470Y95880D01*
X289580Y97098D01*
X291302Y98820D01*
X292520Y100930D01*
X293150Y103282D01*
Y105718D01*
X292520Y108070D01*
X291302Y110180D01*
X289580Y111902D01*
X287470Y113120D01*
X285118Y113750D01*
D02*
G37*
G36*
X158118D02*
X155682D01*
X153330Y113120D01*
X151220Y111902D01*
X149498Y110180D01*
X148280Y108070D01*
X147650Y105718D01*
Y103282D01*
X148280Y100930D01*
X149498Y98820D01*
X151220Y97098D01*
X153330Y95880D01*
X155682Y95250D01*
X158118D01*
X160470Y95880D01*
X162580Y97098D01*
X164302Y98820D01*
X165520Y100930D01*
X166150Y103282D01*
Y105718D01*
X165520Y108070D01*
X164302Y110180D01*
X162580Y111902D01*
X160470Y113120D01*
X158118Y113750D01*
D02*
G37*
G36*
X335918Y88350D02*
X333482D01*
X331130Y87720D01*
X329020Y86502D01*
X327298Y84780D01*
X326080Y82670D01*
X325450Y80318D01*
Y77882D01*
X326080Y75530D01*
X327298Y73420D01*
X329020Y71698D01*
X331130Y70480D01*
X333482Y69850D01*
X335918D01*
X338270Y70480D01*
X340380Y71698D01*
X342102Y73420D01*
X343320Y75530D01*
X343950Y77882D01*
Y80318D01*
X343320Y82670D01*
X342102Y84780D01*
X340380Y86502D01*
X338270Y87720D01*
X335918Y88350D01*
D02*
G37*
G36*
X310518D02*
X308082D01*
X305730Y87720D01*
X303620Y86502D01*
X301898Y84780D01*
X300680Y82670D01*
X300050Y80318D01*
Y77882D01*
X300680Y75530D01*
X301898Y73420D01*
X303620Y71698D01*
X305730Y70480D01*
X308082Y69850D01*
X310518D01*
X312870Y70480D01*
X314980Y71698D01*
X316702Y73420D01*
X317920Y75530D01*
X318550Y77882D01*
Y80318D01*
X317920Y82670D01*
X316702Y84780D01*
X314980Y86502D01*
X312870Y87720D01*
X310518Y88350D01*
D02*
G37*
G36*
X285118D02*
X282682D01*
X280330Y87720D01*
X278220Y86502D01*
X276498Y84780D01*
X275280Y82670D01*
X274650Y80318D01*
Y77882D01*
X275280Y75530D01*
X276498Y73420D01*
X278220Y71698D01*
X280330Y70480D01*
X282682Y69850D01*
X285118D01*
X287470Y70480D01*
X289580Y71698D01*
X291302Y73420D01*
X292520Y75530D01*
X293150Y77882D01*
Y80318D01*
X292520Y82670D01*
X291302Y84780D01*
X289580Y86502D01*
X287470Y87720D01*
X285118Y88350D01*
D02*
G37*
G36*
X259718D02*
X257282D01*
X254930Y87720D01*
X252820Y86502D01*
X251098Y84780D01*
X249880Y82670D01*
X249250Y80318D01*
Y77882D01*
X249880Y75530D01*
X251098Y73420D01*
X252820Y71698D01*
X254930Y70480D01*
X257282Y69850D01*
X259718D01*
X262070Y70480D01*
X264180Y71698D01*
X265902Y73420D01*
X267120Y75530D01*
X267750Y77882D01*
Y80318D01*
X267120Y82670D01*
X265902Y84780D01*
X264180Y86502D01*
X262070Y87720D01*
X259718Y88350D01*
D02*
G37*
G36*
X234318D02*
X231882D01*
X229530Y87720D01*
X227420Y86502D01*
X225698Y84780D01*
X224480Y82670D01*
X223850Y80318D01*
Y77882D01*
X224480Y75530D01*
X225698Y73420D01*
X227420Y71698D01*
X229530Y70480D01*
X231882Y69850D01*
X234318D01*
X236670Y70480D01*
X238780Y71698D01*
X240502Y73420D01*
X241720Y75530D01*
X242350Y77882D01*
Y80318D01*
X241720Y82670D01*
X240502Y84780D01*
X238780Y86502D01*
X236670Y87720D01*
X234318Y88350D01*
D02*
G37*
G36*
X208918D02*
X206482D01*
X204130Y87720D01*
X202020Y86502D01*
X200298Y84780D01*
X199080Y82670D01*
X198450Y80318D01*
Y77882D01*
X199080Y75530D01*
X200298Y73420D01*
X202020Y71698D01*
X204130Y70480D01*
X206482Y69850D01*
X208918D01*
X211270Y70480D01*
X213380Y71698D01*
X215102Y73420D01*
X216320Y75530D01*
X216950Y77882D01*
Y80318D01*
X216320Y82670D01*
X215102Y84780D01*
X213380Y86502D01*
X211270Y87720D01*
X208918Y88350D01*
D02*
G37*
G36*
X183518D02*
X181082D01*
X178730Y87720D01*
X176620Y86502D01*
X174898Y84780D01*
X173680Y82670D01*
X173050Y80318D01*
Y77882D01*
X173680Y75530D01*
X174898Y73420D01*
X176620Y71698D01*
X178730Y70480D01*
X181082Y69850D01*
X183518D01*
X185870Y70480D01*
X187980Y71698D01*
X189702Y73420D01*
X190920Y75530D01*
X191550Y77882D01*
Y80318D01*
X190920Y82670D01*
X189702Y84780D01*
X187980Y86502D01*
X185870Y87720D01*
X183518Y88350D01*
D02*
G37*
G36*
X161025Y88450D02*
X152775D01*
X150775Y88053D01*
X149080Y86920D01*
X147947Y85225D01*
X147550Y83225D01*
Y74975D01*
X147947Y72975D01*
X149080Y71280D01*
X150775Y70147D01*
X152775Y69750D01*
X161025D01*
X163025Y70147D01*
X164720Y71280D01*
X165853Y72975D01*
X166250Y74975D01*
Y83225D01*
X165853Y85225D01*
X164720Y86920D01*
X163025Y88053D01*
X161025Y88450D01*
D02*
G37*
G36*
X228116Y62855D02*
X226923D01*
X225820Y62398D01*
X224976Y61554D01*
X224520Y60452D01*
Y59258D01*
X224976Y58156D01*
X225820Y57312D01*
X226923Y56855D01*
X228116D01*
X229219Y57312D01*
X230063Y58156D01*
X230520Y59258D01*
Y60452D01*
X230063Y61554D01*
X229219Y62398D01*
X228116Y62855D01*
D02*
G37*
G36*
X204097Y62500D02*
X202903D01*
X201801Y62043D01*
X200957Y61199D01*
X200500Y60097D01*
Y58903D01*
X200957Y57801D01*
X201801Y56957D01*
X202903Y56500D01*
X204097D01*
X205199Y56957D01*
X206043Y57801D01*
X206500Y58903D01*
Y60097D01*
X206043Y61199D01*
X205199Y62043D01*
X204097Y62500D01*
D02*
G37*
G36*
X389561Y66000D02*
X384439D01*
X379416Y65001D01*
X374684Y63041D01*
X370426Y60195D01*
X366805Y56574D01*
X363959Y52316D01*
X361999Y47584D01*
X361000Y42561D01*
Y37439D01*
X361999Y32416D01*
X363959Y27684D01*
X366805Y23426D01*
X370426Y19805D01*
X374684Y16959D01*
X379416Y14999D01*
X384439Y14000D01*
X389561D01*
X394584Y14999D01*
X399316Y16959D01*
X403574Y19805D01*
X407196Y23426D01*
X410041Y27684D01*
X412001Y32416D01*
X413000Y37439D01*
Y42561D01*
X412001Y47584D01*
X410041Y52316D01*
X407196Y56574D01*
X403574Y60195D01*
X399316Y63041D01*
X394584Y65001D01*
X389561Y66000D01*
D02*
G37*
G36*
X42561D02*
X37439D01*
X32416Y65001D01*
X27684Y63041D01*
X23426Y60195D01*
X19805Y56574D01*
X16959Y52316D01*
X14999Y47584D01*
X14000Y42561D01*
Y37439D01*
X14999Y32416D01*
X16959Y27684D01*
X19805Y23426D01*
X23426Y19805D01*
X27684Y16959D01*
X32416Y14999D01*
X37439Y14000D01*
X42561D01*
X47584Y14999D01*
X52316Y16959D01*
X56574Y19805D01*
X60195Y23426D01*
X63041Y27684D01*
X65001Y32416D01*
X66000Y37439D01*
Y42561D01*
X65001Y47584D01*
X63041Y52316D01*
X60195Y56574D01*
X56574Y60195D01*
X52316Y63041D01*
X47584Y65001D01*
X42561Y66000D01*
D02*
G37*
%LPD*%
D50*
X111500Y150500D02*
D03*
X120000Y159000D02*
D03*
Y150500D02*
D03*
Y142000D02*
D03*
X128500Y150500D02*
D03*
D65*
X386800Y269500D02*
D03*
X386400Y225500D02*
D03*
Y183500D02*
D03*
D66*
X361400Y269500D02*
D03*
X336000D02*
D03*
X361000Y225500D02*
D03*
X335600D02*
D03*
X361000Y183500D02*
D03*
X335600D02*
D03*
D67*
X283900Y104500D02*
D03*
Y79100D02*
D03*
X233100Y104500D02*
D03*
Y79100D02*
D03*
X182300Y104500D02*
D03*
Y79100D02*
D03*
X156900Y104500D02*
D03*
X207700Y79100D02*
D03*
Y104500D02*
D03*
X258500Y79100D02*
D03*
Y104500D02*
D03*
X309300Y79100D02*
D03*
X334700D02*
D03*
X309300Y104500D02*
D03*
X334700D02*
D03*
D68*
X156900Y79100D02*
D03*
D69*
X387000Y440500D02*
D03*
X40000D02*
D03*
X387000Y40000D02*
D03*
X40000D02*
D03*
D70*
X238200Y309700D02*
D03*
X232900D02*
D03*
X238313Y304678D02*
D03*
X283000Y290500D02*
D03*
X268574Y304333D02*
D03*
X180500Y335543D02*
D03*
X140378Y365817D02*
D03*
X128378Y312817D02*
D03*
X181477Y353021D02*
D03*
X200300Y315003D02*
D03*
X204004Y331039D02*
D03*
X194269Y340519D02*
D03*
X203500Y59500D02*
D03*
X227519Y59855D02*
D03*
X258500Y307500D02*
D03*
X134000Y118000D02*
D03*
Y108000D02*
D03*
X226900Y314571D02*
D03*
X223000Y299933D02*
D03*
X199000Y333300D02*
D03*
X199156Y338700D02*
D03*
X116500Y258000D02*
D03*
X86000Y122000D02*
D03*
X351000Y250500D02*
D03*
X311000Y326000D02*
D03*
X251000Y233500D02*
D03*
X175500Y223000D02*
D03*
X403000Y400500D02*
D03*
X378000Y350500D02*
D03*
X403000Y300500D02*
D03*
X378000Y250500D02*
D03*
X403000Y100500D02*
D03*
X328000Y450500D02*
D03*
X353000Y400500D02*
D03*
X328000Y350500D02*
D03*
X353000Y200500D02*
D03*
X328000Y150500D02*
D03*
Y50500D02*
D03*
X278000Y450500D02*
D03*
X303000Y400500D02*
D03*
X278000Y50500D02*
D03*
X228000Y450500D02*
D03*
X253000Y400500D02*
D03*
X228000Y350500D02*
D03*
Y50500D02*
D03*
X178000Y450500D02*
D03*
X203000Y400500D02*
D03*
X178000Y50500D02*
D03*
X128000Y450500D02*
D03*
X153000Y400500D02*
D03*
X128000Y250500D02*
D03*
X153000Y200500D02*
D03*
X128000Y50500D02*
D03*
X78000Y450500D02*
D03*
X103000Y400500D02*
D03*
X78000Y350500D02*
D03*
Y250500D02*
D03*
Y50500D02*
D03*
X53000Y400500D02*
D03*
X28000Y350500D02*
D03*
X53000Y300500D02*
D03*
X28000Y250500D02*
D03*
X53000Y200500D02*
D03*
X28000Y150500D02*
D03*
X199500Y262000D02*
D03*
X230000D02*
D03*
X206465Y314455D02*
D03*
X221000Y215000D02*
D03*
X235500D02*
D03*
X229000D02*
D03*
X213841D02*
D03*
X202500D02*
D03*
X195500Y301500D02*
D03*
X196340Y292539D02*
D03*
X165500Y247500D02*
D03*
X150500Y275500D02*
D03*
X142000Y176500D02*
D03*
X71500Y165000D02*
D03*
X71648Y174622D02*
D03*
X101000Y210500D02*
D03*
X109500D02*
D03*
X74500Y306500D02*
D03*
X113855Y306376D02*
D03*
X75500Y366500D02*
D03*
X114855Y366376D02*
D03*
X108355Y336376D02*
D03*
X298558Y311880D02*
D03*
X190000Y183000D02*
D03*
X206500Y124500D02*
D03*
X238500Y151500D02*
D03*
Y135500D02*
D03*
X224500Y158000D02*
D03*
X275000Y177500D02*
D03*
X259500Y183000D02*
D03*
X262500Y191000D02*
D03*
X182000Y261000D02*
D03*
X174500Y254000D02*
D03*
X207500Y148500D02*
D03*
X202408Y139383D02*
D03*
X261000Y124500D02*
D03*
X301000Y186500D02*
D03*
X294500Y212000D02*
D03*
X159000Y256000D02*
D03*
X176000Y243000D02*
D03*
X292000Y194500D02*
D03*
X305000Y164500D02*
D03*
X261000Y156500D02*
D03*
X153500Y176500D02*
D03*
X179408Y162383D02*
D03*
X177408Y139383D02*
D03*
X105500Y219000D02*
D03*
X150500Y300000D02*
D03*
X130500Y226500D02*
D03*
X285500Y355000D02*
D03*
X324000Y251500D02*
D03*
X345000Y291000D02*
D03*
X275500Y289000D02*
D03*
Y295000D02*
D03*
Y301000D02*
D03*
X364500Y290500D02*
D03*
X283500Y269500D02*
D03*
X238200Y319300D02*
D03*
X278000Y307000D02*
D03*
X261200Y331700D02*
D03*
X229500Y331000D02*
D03*
X214500Y262000D02*
D03*
X205500D02*
D03*
X211700Y309701D02*
D03*
X209500Y275000D02*
D03*
X221000Y262000D02*
D03*
X223000Y275000D02*
D03*
X284500Y304500D02*
D03*
X247500Y300000D02*
D03*
X228000Y290500D02*
D03*
X236000Y262000D02*
D03*
X206500Y234000D02*
D03*
X221500D02*
D03*
X236500D02*
D03*
X217408Y173279D02*
D03*
X199908Y155883D02*
D03*
X171000Y298500D02*
D03*
X293000Y312000D02*
D03*
X382000Y299500D02*
D03*
X258000Y243000D02*
D03*
X293000Y258000D02*
D03*
X290000Y243000D02*
D03*
X296000Y244000D02*
D03*
X93782Y153112D02*
D03*
X261000Y140500D02*
D03*
X267921Y140469D02*
D03*
X320088Y208669D02*
D03*
X378000Y313500D02*
D03*
X352000Y311500D02*
D03*
X303000Y221500D02*
D03*
X336228Y340925D02*
D03*
X362228Y338925D02*
D03*
X86000Y141500D02*
D03*
X76000Y236500D02*
D03*
X70000Y246500D02*
D03*
X72139Y148139D02*
D03*
X74000Y255500D02*
D03*
X148000Y153000D02*
D03*
X151000Y264500D02*
D03*
X357718Y315040D02*
D03*
X332768Y315628D02*
D03*
X154320Y296430D02*
D03*
X158440Y293130D02*
D03*
X272000Y330500D02*
D03*
X71000Y272500D02*
D03*
X64000D02*
D03*
Y280500D02*
D03*
X71000D02*
D03*
X118059Y245196D02*
D03*
X315000Y306000D02*
D03*
X222300Y309700D02*
D03*
X217000D02*
D03*
X206400Y304900D02*
D03*
X162500Y289500D02*
D03*
M02*
