G04*
G04 #@! TF.GenerationSoftware,Altium Limited,Altium Designer,24.2.2 (26)*
G04*
G04 Layer_Physical_Order=4*
G04 Layer_Color=16711680*
%FSLAX44Y44*%
%MOMM*%
G71*
G04*
G04 #@! TF.SameCoordinates,6EDC250C-81D3-48BC-95F6-F0A130F5604E*
G04*
G04*
G04 #@! TF.FilePolarity,Positive*
G04*
G01*
G75*
%ADD10C,0.1000*%
%ADD12C,0.2000*%
%ADD24R,0.3800X0.4800*%
%ADD25R,0.4800X0.3800*%
%ADD49C,0.1168*%
%ADD50C,0.5000*%
%ADD64C,0.1500*%
G04:AMPARAMS|DCode=65|XSize=1.6mm|YSize=1.6mm|CornerRadius=0.4mm|HoleSize=0mm|Usage=FLASHONLY|Rotation=180.000|XOffset=0mm|YOffset=0mm|HoleType=Round|Shape=RoundedRectangle|*
%AMROUNDEDRECTD65*
21,1,1.6000,0.8000,0,0,180.0*
21,1,0.8000,1.6000,0,0,180.0*
1,1,0.8000,-0.4000,0.4000*
1,1,0.8000,0.4000,0.4000*
1,1,0.8000,0.4000,-0.4000*
1,1,0.8000,-0.4000,-0.4000*
%
%ADD65ROUNDEDRECTD65*%
%ADD66C,1.6000*%
%ADD67C,1.6500*%
G04:AMPARAMS|DCode=68|XSize=1.65mm|YSize=1.65mm|CornerRadius=0.4125mm|HoleSize=0mm|Usage=FLASHONLY|Rotation=180.000|XOffset=0mm|YOffset=0mm|HoleType=Round|Shape=RoundedRectangle|*
%AMROUNDEDRECTD68*
21,1,1.6500,0.8250,0,0,180.0*
21,1,0.8250,1.6500,0,0,180.0*
1,1,0.8250,-0.4125,0.4125*
1,1,0.8250,0.4125,0.4125*
1,1,0.8250,0.4125,-0.4125*
1,1,0.8250,-0.4125,-0.4125*
%
%ADD68ROUNDEDRECTD68*%
%ADD69C,5.0000*%
%ADD70C,0.4000*%
%ADD71R,0.2500X0.6000*%
%ADD72R,0.6000X0.2500*%
%ADD73R,2.2000X2.2000*%
%ADD74O,0.8000X0.4500*%
%ADD75O,0.4500X0.8000*%
G36*
X423941Y3059D02*
X3059D01*
X3059Y477441D01*
X423941D01*
Y3059D01*
D02*
G37*
%LPC*%
G36*
X387000Y466626D02*
X381903Y466124D01*
X377002Y464637D01*
X372485Y462223D01*
X368526Y458974D01*
X365277Y455015D01*
X362863Y450498D01*
X361376Y445597D01*
X360874Y440500D01*
X361376Y435403D01*
X362863Y430502D01*
X365277Y425985D01*
X368526Y422026D01*
X372485Y418777D01*
X377002Y416363D01*
X381903Y414876D01*
X387000Y414374D01*
X392097Y414876D01*
X396998Y416363D01*
X401515Y418777D01*
X405474Y422026D01*
X408723Y425985D01*
X411137Y430502D01*
X412624Y435403D01*
X413126Y440500D01*
X412624Y445597D01*
X411137Y450498D01*
X408723Y455015D01*
X405474Y458974D01*
X401515Y462223D01*
X396998Y464637D01*
X392097Y466124D01*
X387000Y466626D01*
D02*
G37*
G36*
X40000D02*
X34903Y466124D01*
X30002Y464637D01*
X25485Y462223D01*
X21526Y458974D01*
X18277Y455015D01*
X15863Y450498D01*
X14376Y445597D01*
X13874Y440500D01*
X14376Y435403D01*
X15863Y430502D01*
X18277Y425985D01*
X21526Y422026D01*
X25485Y418777D01*
X30002Y416363D01*
X34903Y414876D01*
X40000Y414374D01*
X45097Y414876D01*
X49998Y416363D01*
X54515Y418777D01*
X58474Y422026D01*
X61723Y425985D01*
X64137Y430502D01*
X65624Y435403D01*
X66126Y440500D01*
X65624Y445597D01*
X64137Y450498D01*
X61723Y455015D01*
X58474Y458974D01*
X54515Y462223D01*
X49998Y464637D01*
X45097Y466124D01*
X40000Y466626D01*
D02*
G37*
G36*
X396000Y379500D02*
X53112D01*
X32692Y358000D01*
Y142308D01*
X49000Y126000D01*
X81000D01*
X95000Y112000D01*
Y82000D01*
X133000Y44000D01*
X321000D01*
X388399Y111399D01*
X388500D01*
X417500Y142500D01*
Y358000D01*
X396000Y379500D01*
D02*
G37*
G36*
X387000Y66126D02*
X381903Y65624D01*
X377002Y64137D01*
X372485Y61723D01*
X368526Y58474D01*
X365277Y54515D01*
X362863Y49998D01*
X361376Y45097D01*
X360874Y40000D01*
X361376Y34903D01*
X362863Y30002D01*
X365277Y25485D01*
X368526Y21526D01*
X372485Y18277D01*
X377002Y15863D01*
X381903Y14376D01*
X387000Y13874D01*
X392097Y14376D01*
X396998Y15863D01*
X401515Y18277D01*
X405474Y21526D01*
X408723Y25485D01*
X411137Y30002D01*
X412624Y34903D01*
X413126Y40000D01*
X412624Y45097D01*
X411137Y49998D01*
X408723Y54515D01*
X405474Y58474D01*
X401515Y61723D01*
X396998Y64137D01*
X392097Y65624D01*
X387000Y66126D01*
D02*
G37*
G36*
X40000D02*
X34903Y65624D01*
X30002Y64137D01*
X25485Y61723D01*
X21526Y58474D01*
X18277Y54515D01*
X15863Y49998D01*
X14376Y45097D01*
X13874Y40000D01*
X14376Y34903D01*
X15863Y30002D01*
X18277Y25485D01*
X21526Y21526D01*
X25485Y18277D01*
X30002Y15863D01*
X34903Y14376D01*
X40000Y13874D01*
X45097Y14376D01*
X49998Y15863D01*
X54515Y18277D01*
X58474Y21526D01*
X61723Y25485D01*
X64137Y30002D01*
X65624Y34903D01*
X66126Y40000D01*
X65624Y45097D01*
X64137Y49998D01*
X61723Y54515D01*
X58474Y58474D01*
X54515Y61723D01*
X49998Y64137D01*
X45097Y65624D01*
X40000Y66126D01*
D02*
G37*
%LPD*%
G36*
X252000Y314779D02*
X246041D01*
Y308979D01*
X251084D01*
X251465Y307709D01*
X244079Y302847D01*
Y292375D01*
X233328Y281624D01*
X221000D01*
X219852Y281148D01*
X217704Y279000D01*
X207160D01*
Y276903D01*
X206957Y276699D01*
X206500Y275597D01*
Y274403D01*
X206957Y273301D01*
X207160Y273097D01*
Y265702D01*
X206104Y264997D01*
X206097Y265000D01*
X204903D01*
X203801Y264543D01*
X203283Y264025D01*
X202500Y263820D01*
X201717Y264025D01*
X201199Y264543D01*
X200097Y265000D01*
X198903D01*
X197801Y264543D01*
X196957Y263699D01*
X196500Y262597D01*
Y261403D01*
X196957Y260301D01*
X196987Y260270D01*
X196461Y259000D01*
X186475D01*
X185000Y260475D01*
Y261597D01*
X184543Y262699D01*
X183699Y263543D01*
X182597Y264000D01*
X181475D01*
X175500Y269975D01*
Y295168D01*
Y302000D01*
X197839Y323748D01*
X252000D01*
Y314779D01*
D02*
G37*
%LPC*%
G36*
X238797Y322300D02*
X237603D01*
X236501Y321843D01*
X235657Y320999D01*
X235200Y319897D01*
Y318703D01*
X235657Y317601D01*
X236501Y316757D01*
X237603Y316300D01*
X238797D01*
X239899Y316757D01*
X240743Y317601D01*
X241200Y318703D01*
Y319897D01*
X240743Y320999D01*
X239899Y321843D01*
X238797Y322300D01*
D02*
G37*
G36*
X223100Y320350D02*
X217300D01*
Y316573D01*
X216352Y315792D01*
X215200Y316269D01*
Y320350D01*
X209400D01*
Y317559D01*
X208164Y316998D01*
X207062Y317455D01*
X205868D01*
X204766Y316998D01*
X204292Y316525D01*
X202943Y316652D01*
X202843Y316703D01*
X201999Y317547D01*
X200897Y318003D01*
X199703D01*
X198601Y317547D01*
X197757Y316703D01*
X197300Y315600D01*
Y314407D01*
X197757Y313304D01*
X198601Y312460D01*
X199703Y312003D01*
X200897D01*
X201999Y312460D01*
X202473Y312934D01*
X203822Y312806D01*
X203922Y312756D01*
X204766Y311912D01*
X205868Y311455D01*
X207062D01*
X207959Y311826D01*
X208595Y311422D01*
X208983Y310981D01*
X208700Y310298D01*
Y309104D01*
X209157Y308002D01*
X210001Y307158D01*
X211103Y306701D01*
X212297D01*
X213399Y307158D01*
X213520Y307278D01*
X214351Y307919D01*
X215179Y307278D01*
X215301Y307157D01*
X216403Y306700D01*
X217597D01*
X218699Y307157D01*
X218820Y307278D01*
X219650Y307918D01*
X220480Y307278D01*
X220601Y307157D01*
X221703Y306700D01*
X222897D01*
X223999Y307157D01*
X224843Y308001D01*
X225300Y309103D01*
Y310297D01*
X225142Y310677D01*
X226115Y311649D01*
X226303Y311571D01*
X227497D01*
X228599Y312028D01*
X229443Y312872D01*
X229900Y313974D01*
Y315168D01*
X229443Y316270D01*
X228599Y317114D01*
X227497Y317571D01*
X226303D01*
X225201Y317114D01*
X224370Y316283D01*
X224294Y316285D01*
X223100Y316555D01*
Y320350D01*
D02*
G37*
G36*
X233497Y312700D02*
X232303D01*
X231201Y312243D01*
X230357Y311399D01*
X229900Y310297D01*
Y309103D01*
X230357Y308001D01*
X231201Y307157D01*
X232303Y306700D01*
X233497D01*
X234599Y307157D01*
X235443Y308001D01*
X235900Y309103D01*
Y310297D01*
X235443Y311399D01*
X234599Y312243D01*
X233497Y312700D01*
D02*
G37*
G36*
X238909Y307678D02*
X237716D01*
X236613Y307222D01*
X235769Y306378D01*
X235313Y305275D01*
Y304081D01*
X235769Y302979D01*
X236613Y302135D01*
X237716Y301678D01*
X238909D01*
X240012Y302135D01*
X240856Y302979D01*
X241313Y304081D01*
Y305275D01*
X240856Y306378D01*
X240012Y307222D01*
X238909Y307678D01*
D02*
G37*
G36*
X196097Y304500D02*
X194903D01*
X193801Y304043D01*
X192957Y303199D01*
X192500Y302097D01*
Y301925D01*
X191120Y300545D01*
X189850Y300554D01*
Y301900D01*
X184050D01*
Y295100D01*
X189850D01*
Y296461D01*
X191959D01*
X192739Y296616D01*
X193401Y297058D01*
X194860Y298518D01*
X194903Y298500D01*
X196097D01*
X197199Y298957D01*
X198043Y299801D01*
X198500Y300903D01*
Y302097D01*
X198043Y303199D01*
X197199Y304043D01*
X196097Y304500D01*
D02*
G37*
G36*
X223597Y302933D02*
X222403D01*
X221301Y302477D01*
X220457Y301633D01*
X220000Y300530D01*
Y299336D01*
X220457Y298234D01*
X221301Y297390D01*
X222403Y296933D01*
X223597D01*
X224699Y297390D01*
X225543Y298234D01*
X226000Y299336D01*
Y300530D01*
X225543Y301633D01*
X224699Y302477D01*
X223597Y302933D01*
D02*
G37*
G36*
X196936Y295539D02*
X195743D01*
X194640Y295082D01*
X193797Y294239D01*
X193340Y293136D01*
Y291943D01*
X193797Y290840D01*
X194640Y289996D01*
X195743Y289539D01*
X196936D01*
X198039Y289996D01*
X198883Y290840D01*
X199340Y291943D01*
Y293136D01*
X198883Y294239D01*
X198039Y295082D01*
X196936Y295539D01*
D02*
G37*
G36*
X228597Y293500D02*
X227403D01*
X226301Y293043D01*
X225457Y292199D01*
X225000Y291097D01*
Y289903D01*
X225457Y288801D01*
X226301Y287957D01*
X227403Y287500D01*
X228597D01*
X229699Y287957D01*
X230543Y288801D01*
X231000Y289903D01*
Y291097D01*
X230543Y292199D01*
X229699Y293043D01*
X228597Y293500D01*
D02*
G37*
G36*
X196596Y287200D02*
X195004D01*
X193534Y286591D01*
X192409Y285466D01*
X191800Y283996D01*
Y282404D01*
X192409Y280934D01*
X193534Y279809D01*
X195004Y279200D01*
X196596D01*
X198066Y279809D01*
X199191Y280934D01*
X199800Y282404D01*
Y283996D01*
X199191Y285466D01*
X198066Y286591D01*
X196596Y287200D01*
D02*
G37*
%LPD*%
D10*
X247750Y299750D02*
X248000Y300000D01*
X280000Y284500D02*
X368500D01*
X275517Y288983D02*
X280000Y284500D01*
X275500Y295000D02*
X341000D01*
X345000Y291000D01*
X205488Y56310D02*
X206798Y55000D01*
X203500Y58688D02*
Y59500D01*
Y58688D02*
X205488Y56700D01*
Y56310D02*
Y56700D01*
X206798Y55000D02*
X323000D01*
X334700Y66700D01*
X227519Y59855D02*
X299711D01*
X334700Y66700D02*
Y79100D01*
X299711Y59855D02*
X309206Y69350D01*
Y79006D01*
X309300Y79100D01*
X176745Y64000D02*
X218200D01*
X222000Y67800D01*
X169000Y71745D02*
X176745Y64000D01*
X222000Y86500D02*
X226000Y90500D01*
X358914D01*
X222000Y67800D02*
Y86500D01*
X219000Y88698D02*
X223995Y93694D01*
X357194D01*
X219000Y72000D02*
Y88698D01*
X182300Y79100D02*
X193655Y67745D01*
X214745D02*
X219000Y72000D01*
X193655Y67745D02*
X214745D01*
X410000Y146500D02*
Y303500D01*
X357194Y93694D02*
X410000Y146500D01*
X413500Y145086D02*
Y306500D01*
X358914Y90500D02*
X413500Y145086D01*
X169000Y71745D02*
Y84874D01*
X207700Y79100D02*
Y79574D01*
X194274Y93000D02*
X207700Y79574D01*
X177126Y93000D02*
X194274D01*
X169000Y84874D02*
X177126Y93000D01*
X86950Y156000D02*
X90082D01*
X92970Y153112D01*
X93782D01*
X93838Y153056D01*
X261975Y134025D02*
Y138713D01*
X267000Y123500D02*
Y129000D01*
X261975Y134025D02*
X267000Y129000D01*
X260688Y140000D02*
X261975Y138713D01*
X260500Y140000D02*
X260688D01*
X148000Y145000D02*
X153050D01*
X145000Y148000D02*
X148000Y145000D01*
X139000Y148000D02*
X145000D01*
X229000Y214500D02*
Y244000D01*
X225000Y248000D02*
X229000Y244000D01*
X80500Y255500D02*
X83500Y252500D01*
X74000Y255500D02*
X80500D01*
X132000Y246000D02*
Y336000D01*
X115050Y229050D02*
X132000Y246000D01*
X115050Y220000D02*
Y229050D01*
X140500Y329000D02*
X169000Y357500D01*
X140500Y222000D02*
Y329000D01*
X115500Y197000D02*
X140500Y222000D01*
X132000Y207500D02*
X225500D01*
X233408Y199592D01*
Y170408D02*
Y199592D01*
X194000Y204000D02*
X201408Y196592D01*
X136500Y204000D02*
X194000D01*
X201408Y184333D02*
Y196592D01*
X129000Y196500D02*
X136500Y204000D01*
X121000Y196500D02*
X132000Y207500D01*
X362000Y184000D02*
X373500Y195500D01*
Y279500D01*
X165000Y127500D02*
X168000Y124500D01*
X206500D01*
X168500Y131000D02*
Y167500D01*
X160950Y169000D02*
X167000D01*
X168500Y167500D01*
X165000Y127500D02*
Y160414D01*
X160950Y161000D02*
X164414D01*
X165000Y160414D01*
X226500Y129500D02*
X231500Y124500D01*
X261000D01*
X170000Y129500D02*
X226500D01*
X168500Y131000D02*
X170000Y129500D01*
X171908Y134092D02*
X173500Y132500D01*
X226000D02*
X242500Y149000D01*
X173500Y132500D02*
X226000D01*
X171908Y134092D02*
Y145158D01*
X242500Y149000D02*
X274025D01*
X296500Y171475D01*
X215358Y158383D02*
Y166383D01*
X224322Y168883D02*
X231883D01*
X215358Y166883D02*
X222322D01*
X224322Y168883D01*
X231883D02*
X233408Y170408D01*
X117500Y169500D02*
Y174000D01*
X115500Y176000D02*
Y197000D01*
Y176000D02*
X117500Y174000D01*
X254000Y191500D02*
X262000D01*
X262500Y191000D01*
X248408Y185908D02*
X254000Y191500D01*
X248408Y181883D02*
Y185908D01*
X163000Y265500D02*
X174500Y254000D01*
X163000Y265500D02*
Y270750D01*
X207458Y158383D02*
X207500Y158341D01*
Y148500D02*
Y158341D01*
X263000Y119500D02*
X267000Y123500D01*
X163000Y119500D02*
X263000D01*
X154000Y128500D02*
X163000Y119500D01*
X154000Y128500D02*
Y137000D01*
X280000Y163000D02*
X291500Y174500D01*
X250828Y166463D02*
X254291Y163000D01*
X280000D01*
X250828Y166463D02*
Y167266D01*
X249211Y168883D02*
X250828Y167266D01*
X291500Y174500D02*
Y194000D01*
X248408Y168883D02*
X249211D01*
X296500Y171475D02*
Y209914D01*
X294500Y211914D02*
X296500Y209914D01*
X294500Y211914D02*
Y212000D01*
X291500Y194000D02*
X292000Y194500D01*
X56500Y144500D02*
Y232188D01*
Y144500D02*
X69000Y132000D01*
X97031D01*
X100867Y135836D01*
X74500Y136500D02*
X90000D01*
X65000Y146000D02*
X74500Y136500D01*
X90000D02*
X96500Y143000D01*
X101000D01*
X100867Y135836D02*
Y137867D01*
X101000Y138000D01*
X83500Y187500D02*
Y252500D01*
X87000Y184000D02*
X94050D01*
X83500Y187500D02*
X87000Y184000D01*
X153500Y176500D02*
Y183550D01*
X153000Y184050D02*
X153500Y183550D01*
X65000Y146000D02*
Y170500D01*
Y225500D02*
X76000Y236500D01*
X65000Y170525D02*
Y225500D01*
X56500Y232188D02*
X70000Y245688D01*
X169000Y357500D02*
X264000D01*
X287000Y334500D01*
X357803D01*
X362228Y338925D01*
X287575Y340925D02*
X336228D01*
X266000Y362500D02*
X287575Y340925D01*
X218500Y272000D02*
Y277500D01*
X225000Y248000D02*
Y265500D01*
X218500Y272000D02*
X225000Y265500D01*
X221000Y280000D02*
X234000D01*
X247500Y293500D01*
X218500Y277500D02*
X221000Y280000D01*
X223086Y275000D02*
X268500D01*
X274000Y280500D01*
X350400D01*
X247500Y293500D02*
Y300000D01*
X107500Y169500D02*
Y198500D01*
X115050Y206050D01*
Y220000D01*
X177000Y172000D02*
Y186000D01*
X137000Y191950D02*
X153000D01*
X171050Y191950D02*
X177000Y186000D01*
X153000Y191950D02*
X171050D01*
X129000Y191950D02*
Y196500D01*
X136500Y333000D02*
X166000Y362500D01*
X266000D01*
X136500Y222500D02*
Y333000D01*
X163500Y367500D02*
X273000D01*
X132000Y336000D02*
X163500Y367500D01*
X273000D02*
X285000Y355500D01*
Y355000D02*
Y355500D01*
Y355000D02*
X285500D01*
X112500Y198500D02*
X136500Y222500D01*
X112500Y169500D02*
Y198500D01*
X128376Y225926D02*
X129426D01*
X130000Y226500D01*
X122950Y220500D02*
X128376Y225926D01*
X122950Y220000D02*
Y220500D01*
X121000Y191950D02*
Y196500D01*
X406500Y313500D02*
X413500Y306500D01*
X378000Y313500D02*
X406500D01*
X283500Y269500D02*
X317000D01*
X356500Y230000D01*
X360500D01*
X350400Y280500D02*
X361400Y269500D01*
X368500Y284500D02*
X373500Y279500D01*
X275500Y301000D02*
X280000D01*
X282000Y299000D01*
X356000D01*
X276500Y337500D02*
X278000Y336000D01*
X262500Y337500D02*
X276500D01*
X278000Y307000D02*
Y336000D01*
X261200Y336200D02*
X262500Y337500D01*
X261200Y331700D02*
Y336200D01*
X356000Y299000D02*
X364500Y290500D01*
X209500Y257750D02*
Y275000D01*
X183750Y253500D02*
X205250D01*
X209500Y257750D01*
X170900Y266350D02*
X183750Y253500D01*
X170900Y266350D02*
Y270750D01*
Y279400D01*
X171000Y279500D01*
X352000Y311500D02*
X352086D01*
X354086Y309500D01*
X404000D01*
X410000Y303500D01*
X201408Y158195D02*
Y176433D01*
X199908Y155883D02*
Y156695D01*
X201408Y158195D01*
X171908Y145158D02*
X174713Y147963D01*
X175291D02*
X176908Y149580D01*
X174713Y147963D02*
X175291D01*
X176908Y149580D02*
Y150383D01*
X122950Y220000D02*
X122950Y220000D01*
X222633Y184333D02*
X225083Y181883D01*
X226408D01*
X209408Y184333D02*
X222633D01*
X201408Y184333D02*
X209408D01*
X93838Y153056D02*
X100944D01*
X101000Y153000D01*
X132500Y169500D02*
Y176000D01*
X137000Y180500D01*
Y184050D01*
X176908Y172383D02*
Y174747D01*
X153000Y191950D02*
X153000Y191950D01*
X151650Y159100D02*
X153050Y160500D01*
X150050Y158000D02*
X151150Y159100D01*
X153050Y160500D02*
Y161000D01*
X151150Y159100D02*
X151650D01*
X139000Y158000D02*
X150050D01*
X70000Y245688D02*
Y246500D01*
X145000Y163000D02*
X149100Y167100D01*
X139000Y163000D02*
X145000D01*
X149100Y167100D02*
X151650D01*
X153050Y168500D02*
Y169000D01*
X151650Y167100D02*
X153050Y168500D01*
X121000Y177700D02*
X122500Y176200D01*
Y169500D02*
Y176200D01*
X121000Y177700D02*
Y184050D01*
X127500Y182650D02*
X128900Y184050D01*
X127500Y169500D02*
Y182650D01*
X128900Y184050D02*
X129000D01*
D12*
X113000Y116500D02*
X118050D01*
X107500Y122000D02*
X113000Y116500D01*
X107500Y122000D02*
Y131500D01*
X117500Y107500D02*
X118050Y108050D01*
X117500Y116000D02*
X118050Y115450D01*
Y108050D02*
Y115450D01*
X194959Y301500D02*
X195500D01*
X191959Y298500D02*
X194959Y301500D01*
X186950Y298500D02*
X191959D01*
X249440Y319779D02*
X249766Y320104D01*
X101700Y163000D02*
X101950Y163250D01*
Y184000D01*
X101000Y163000D02*
X101700D01*
X101950Y184000D02*
Y194000D01*
X118050Y108000D02*
X118050Y108000D01*
D24*
X186950Y298500D02*
D03*
X179050D02*
D03*
X220200Y316950D02*
D03*
X212300D02*
D03*
X122950Y220000D02*
D03*
X115050D02*
D03*
X207458Y158383D02*
D03*
X215358D02*
D03*
X259458Y175383D02*
D03*
X267358D02*
D03*
X184458Y139383D02*
D03*
X192358D02*
D03*
X215358Y166383D02*
D03*
X207458D02*
D03*
X86950Y148000D02*
D03*
X79050D02*
D03*
X160950Y161000D02*
D03*
X153050D02*
D03*
X160950Y169000D02*
D03*
X153050D02*
D03*
X94050Y194000D02*
D03*
X101950D02*
D03*
X94050Y184000D02*
D03*
X101950D02*
D03*
X86950Y175000D02*
D03*
X79050D02*
D03*
X79050Y167000D02*
D03*
X86950D02*
D03*
X86950Y156000D02*
D03*
X79050D02*
D03*
X118050Y108000D02*
D03*
X125950D02*
D03*
X125950Y116500D02*
D03*
X118050D02*
D03*
X170900Y270750D02*
D03*
X163000D02*
D03*
X171000Y279500D02*
D03*
X163100D02*
D03*
D25*
X249440Y311879D02*
D03*
Y319779D02*
D03*
X154000Y144900D02*
D03*
Y137000D02*
D03*
X209408Y184333D02*
D03*
Y176433D02*
D03*
X201408Y176433D02*
D03*
Y184333D02*
D03*
X153000Y191950D02*
D03*
Y184050D02*
D03*
X145000Y191950D02*
D03*
Y184050D02*
D03*
X137000Y191950D02*
D03*
Y184050D02*
D03*
X129000Y191950D02*
D03*
Y184050D02*
D03*
X121000Y191950D02*
D03*
Y184050D02*
D03*
D49*
X172034Y310854D02*
G03*
X172034Y308260I1297J-1297D01*
G01*
X172988Y304712D02*
G03*
X172988Y307306I-1297J1297D01*
G01*
X170395Y304712D02*
G03*
X172988Y304712I1297J1297D01*
G01*
X169440Y305667D02*
G03*
X166847Y305667I-1297J-1297D01*
G01*
X177801Y316621D02*
X195932Y334752D01*
X198456Y338498D02*
X199156D01*
X195932Y334752D02*
X196982D01*
X195026Y336940D02*
X196898D01*
X196982Y334752D02*
X198234Y333500D01*
X196898Y336940D02*
X198456Y338498D01*
X156970Y298885D02*
X195026Y336940D01*
X198234Y333500D02*
X199000D01*
X172034Y310854D02*
X177801Y316621D01*
X172034Y308260D02*
X172988Y307306D01*
X172988Y307306D02*
X172988Y307306D01*
X170395Y304712D02*
X170395Y304712D01*
X169440Y305667D02*
X170395Y304712D01*
X169440Y305667D02*
X169440Y305667D01*
X163840Y302660D02*
X166847Y305667D01*
X159158Y297978D02*
X163840Y302660D01*
X156970Y298884D02*
Y298885D01*
X159158Y297978D02*
Y297978D01*
X154416Y296330D02*
X154416D01*
X156970Y298884D01*
X158518Y297337D02*
X159158Y297978D01*
X158518Y293409D02*
Y297337D01*
X158340Y293231D02*
X158518Y293409D01*
D50*
X76000Y108000D02*
D03*
X216500Y386500D02*
D03*
X111500Y150500D02*
D03*
X120000Y159000D02*
D03*
Y150500D02*
D03*
Y142000D02*
D03*
X128500Y150500D02*
D03*
D64*
X249440Y311879D02*
X254121D01*
X258500Y307500D01*
X131824Y116500D02*
X133323Y118000D01*
X125950Y116500D02*
X131824D01*
X133323Y118000D02*
X134000D01*
X125950Y108000D02*
X134000D01*
X125950Y108000D02*
X125950Y108000D01*
X125950Y116500D02*
X125950Y116500D01*
X152510Y278439D02*
X153571Y279500D01*
X150500Y275500D02*
Y276176D01*
X152510Y278187D02*
Y278439D01*
X153571Y279500D02*
X163100D01*
X150500Y276176D02*
X152510Y278187D01*
X142000Y176510D02*
X145000Y179510D01*
Y184050D01*
X142000Y176500D02*
Y176510D01*
X145000Y184050D02*
X145000Y184050D01*
X72176Y165000D02*
X74441Y167264D01*
X78947D01*
X71500Y165000D02*
X72176D01*
X71648Y174622D02*
X78698D01*
X109382Y207608D02*
Y210382D01*
X104274Y202500D02*
X109382Y207608D01*
Y210382D02*
X109500Y210500D01*
X183000Y150500D02*
X183633Y151133D01*
X189908Y172383D02*
Y182908D01*
X190000Y183000D01*
X189908Y162908D02*
Y172383D01*
X272206Y175383D02*
X274324Y177500D01*
X275000D01*
X267358Y175383D02*
X272206D01*
X259479Y182979D02*
X259500Y183000D01*
X259479Y175404D02*
Y182979D01*
X259458Y175383D02*
X259479Y175404D01*
X192358Y139383D02*
X202408D01*
X183633Y151133D02*
Y156633D01*
X189908Y162908D01*
X183408Y166383D02*
Y172383D01*
X179408Y162383D02*
X183408Y166383D01*
X184458Y139383D02*
X184458Y139383D01*
X177408Y139383D02*
X184458D01*
X94050Y194000D02*
Y199550D01*
Y193450D02*
Y194000D01*
Y193450D02*
X94500Y193000D01*
X97000Y202500D02*
X104274D01*
X94050Y199550D02*
X97000Y202500D01*
X211700Y309701D02*
Y314775D01*
X217126Y173279D02*
X217408D01*
X215279Y171433D02*
X217126Y173279D01*
X218084Y173383D02*
X220084Y175383D01*
X192358Y139383D02*
X192358Y139383D01*
X220200Y316450D02*
Y316950D01*
X219050Y315300D02*
X220200Y316450D01*
X218550Y315300D02*
X219050D01*
X217000Y309703D02*
Y313750D01*
X218550Y315300D01*
X211700Y314775D02*
X211727Y314802D01*
Y316154D01*
X212877Y317304D01*
X208337Y171433D02*
X209408Y172504D01*
X207458Y170554D02*
X208337Y171433D01*
X209408Y172504D02*
Y176433D01*
X207458Y166383D02*
Y170554D01*
X208337Y171433D02*
X215279D01*
X220084Y175383D02*
X226408D01*
X248408D02*
X259458D01*
X183933Y139908D02*
X184458Y139383D01*
X183933Y139908D02*
Y149858D01*
X183408Y150383D02*
X183933Y149858D01*
X80700Y154350D02*
X85400Y149650D01*
X79050Y155500D02*
X80200Y154350D01*
X79050Y155500D02*
Y156000D01*
X85400Y149650D02*
X85800D01*
X80200Y154350D02*
X80700D01*
X86950Y148000D02*
X86950Y148000D01*
X86000Y147050D02*
X86950Y148000D01*
Y148500D01*
X85800Y149650D02*
X86950Y148500D01*
X86950Y148000D02*
X101000D01*
X86000Y141500D02*
Y147050D01*
X78911Y148139D02*
X79050Y148000D01*
X72139Y148139D02*
X78911D01*
X88159Y165350D02*
X95168Y158341D01*
X100659D01*
X101000Y158000D01*
X86950Y166500D02*
X88100Y165350D01*
X88159D01*
X86950Y166500D02*
Y172250D01*
X139000Y153000D02*
X139000Y153000D01*
X148000D01*
D65*
X386800Y269500D02*
D03*
X386400Y225500D02*
D03*
Y183500D02*
D03*
D66*
X361400Y269500D02*
D03*
X336000D02*
D03*
X361000Y225500D02*
D03*
X335600D02*
D03*
X361000Y183500D02*
D03*
X335600D02*
D03*
D67*
X283900Y104500D02*
D03*
Y79100D02*
D03*
X233100Y104500D02*
D03*
Y79100D02*
D03*
X182300Y104500D02*
D03*
Y79100D02*
D03*
X156900Y104500D02*
D03*
X207700Y79100D02*
D03*
Y104500D02*
D03*
X258500Y79100D02*
D03*
Y104500D02*
D03*
X309300Y79100D02*
D03*
X334700D02*
D03*
X309300Y104500D02*
D03*
X334700D02*
D03*
D68*
X156900Y79100D02*
D03*
D69*
X387000Y440500D02*
D03*
X40000D02*
D03*
X387000Y40000D02*
D03*
X40000D02*
D03*
D70*
X238200Y309700D02*
D03*
X232900D02*
D03*
X238313Y304678D02*
D03*
X283000Y290500D02*
D03*
X268574Y304333D02*
D03*
X180500Y335543D02*
D03*
X140378Y365817D02*
D03*
X128378Y312817D02*
D03*
X181477Y353021D02*
D03*
X200300Y315003D02*
D03*
X204004Y331039D02*
D03*
X194269Y340519D02*
D03*
X203500Y59500D02*
D03*
X227519Y59855D02*
D03*
X258500Y307500D02*
D03*
X134000Y118000D02*
D03*
Y108000D02*
D03*
X226900Y314571D02*
D03*
X223000Y299933D02*
D03*
X199000Y333300D02*
D03*
X199156Y338700D02*
D03*
X116500Y258000D02*
D03*
X86000Y122000D02*
D03*
X351000Y250500D02*
D03*
X311000Y326000D02*
D03*
X251000Y233500D02*
D03*
X175500Y223000D02*
D03*
X403000Y400500D02*
D03*
X378000Y350500D02*
D03*
X403000Y300500D02*
D03*
X378000Y250500D02*
D03*
X403000Y100500D02*
D03*
X328000Y450500D02*
D03*
X353000Y400500D02*
D03*
X328000Y350500D02*
D03*
X353000Y200500D02*
D03*
X328000Y150500D02*
D03*
Y50500D02*
D03*
X278000Y450500D02*
D03*
X303000Y400500D02*
D03*
X278000Y50500D02*
D03*
X228000Y450500D02*
D03*
X253000Y400500D02*
D03*
X228000Y350500D02*
D03*
Y50500D02*
D03*
X178000Y450500D02*
D03*
X203000Y400500D02*
D03*
X178000Y50500D02*
D03*
X128000Y450500D02*
D03*
X153000Y400500D02*
D03*
X128000Y250500D02*
D03*
X153000Y200500D02*
D03*
X128000Y50500D02*
D03*
X78000Y450500D02*
D03*
X103000Y400500D02*
D03*
X78000Y350500D02*
D03*
Y250500D02*
D03*
Y50500D02*
D03*
X53000Y400500D02*
D03*
X28000Y350500D02*
D03*
X53000Y300500D02*
D03*
X28000Y250500D02*
D03*
X53000Y200500D02*
D03*
X28000Y150500D02*
D03*
X199500Y262000D02*
D03*
X230000D02*
D03*
X206465Y314455D02*
D03*
X221000Y215000D02*
D03*
X235500D02*
D03*
X229000D02*
D03*
X213841D02*
D03*
X202500D02*
D03*
X195500Y301500D02*
D03*
X196340Y292539D02*
D03*
X165500Y247500D02*
D03*
X150500Y275500D02*
D03*
X142000Y176500D02*
D03*
X71500Y165000D02*
D03*
X71648Y174622D02*
D03*
X101000Y210500D02*
D03*
X109500D02*
D03*
X74500Y306500D02*
D03*
X113855Y306376D02*
D03*
X75500Y366500D02*
D03*
X114855Y366376D02*
D03*
X108355Y336376D02*
D03*
X298558Y311880D02*
D03*
X190000Y183000D02*
D03*
X206500Y124500D02*
D03*
X238500Y151500D02*
D03*
Y135500D02*
D03*
X224500Y158000D02*
D03*
X275000Y177500D02*
D03*
X259500Y183000D02*
D03*
X262500Y191000D02*
D03*
X182000Y261000D02*
D03*
X174500Y254000D02*
D03*
X207500Y148500D02*
D03*
X202408Y139383D02*
D03*
X261000Y124500D02*
D03*
X301000Y186500D02*
D03*
X294500Y212000D02*
D03*
X159000Y256000D02*
D03*
X176000Y243000D02*
D03*
X292000Y194500D02*
D03*
X305000Y164500D02*
D03*
X261000Y156500D02*
D03*
X153500Y176500D02*
D03*
X179408Y162383D02*
D03*
X177408Y139383D02*
D03*
X105500Y219000D02*
D03*
X150500Y300000D02*
D03*
X130500Y226500D02*
D03*
X285500Y355000D02*
D03*
X324000Y251500D02*
D03*
X345000Y291000D02*
D03*
X275500Y289000D02*
D03*
Y295000D02*
D03*
Y301000D02*
D03*
X364500Y290500D02*
D03*
X283500Y269500D02*
D03*
X238200Y319300D02*
D03*
X278000Y307000D02*
D03*
X261200Y331700D02*
D03*
X229500Y331000D02*
D03*
X214500Y262000D02*
D03*
X205500D02*
D03*
X211700Y309701D02*
D03*
X209500Y275000D02*
D03*
X221000Y262000D02*
D03*
X223000Y275000D02*
D03*
X284500Y304500D02*
D03*
X247500Y300000D02*
D03*
X228000Y290500D02*
D03*
X236000Y262000D02*
D03*
X206500Y234000D02*
D03*
X221500D02*
D03*
X236500D02*
D03*
X217408Y173279D02*
D03*
X199908Y155883D02*
D03*
X171000Y298500D02*
D03*
X293000Y312000D02*
D03*
X382000Y299500D02*
D03*
X258000Y243000D02*
D03*
X293000Y258000D02*
D03*
X290000Y243000D02*
D03*
X296000Y244000D02*
D03*
X93782Y153112D02*
D03*
X261000Y140500D02*
D03*
X267921Y140469D02*
D03*
X320088Y208669D02*
D03*
X378000Y313500D02*
D03*
X352000Y311500D02*
D03*
X303000Y221500D02*
D03*
X336228Y340925D02*
D03*
X362228Y338925D02*
D03*
X86000Y141500D02*
D03*
X76000Y236500D02*
D03*
X70000Y246500D02*
D03*
X72139Y148139D02*
D03*
X74000Y255500D02*
D03*
X148000Y153000D02*
D03*
X151000Y264500D02*
D03*
X357718Y315040D02*
D03*
X332768Y315628D02*
D03*
X154320Y296430D02*
D03*
X158440Y293130D02*
D03*
X272000Y330500D02*
D03*
X71000Y272500D02*
D03*
X64000D02*
D03*
Y280500D02*
D03*
X71000D02*
D03*
X118059Y245196D02*
D03*
X315000Y306000D02*
D03*
X222300Y309700D02*
D03*
X217000D02*
D03*
X206400Y304900D02*
D03*
X162500Y289500D02*
D03*
D71*
X107500Y169500D02*
D03*
X112500D02*
D03*
X117500D02*
D03*
X122500D02*
D03*
X127500D02*
D03*
X132500D02*
D03*
Y131500D02*
D03*
X127500D02*
D03*
X122500D02*
D03*
X117500D02*
D03*
X112500D02*
D03*
X107500D02*
D03*
D72*
X139000Y163000D02*
D03*
Y158000D02*
D03*
Y153000D02*
D03*
Y148000D02*
D03*
Y143000D02*
D03*
Y138000D02*
D03*
X101000D02*
D03*
Y143000D02*
D03*
Y148000D02*
D03*
Y153000D02*
D03*
Y158000D02*
D03*
Y163000D02*
D03*
D73*
X120000Y150500D02*
D03*
D74*
X248408Y181883D02*
D03*
Y175383D02*
D03*
Y168883D02*
D03*
X226408Y181883D02*
D03*
Y175383D02*
D03*
Y168883D02*
D03*
D75*
X176908Y172383D02*
D03*
X183408D02*
D03*
X189908D02*
D03*
X176908Y150383D02*
D03*
X183408D02*
D03*
X189908D02*
D03*
M02*
