G04*
G04 #@! TF.GenerationSoftware,Altium Limited,Altium Designer,24.2.2 (26)*
G04*
G04 Layer_Color=32896*
%FSLAX44Y44*%
%MOMM*%
G71*
G04*
G04 #@! TF.SameCoordinates,6EDC250C-81D3-48BC-95F6-F0A130F5604E*
G04*
G04*
G04 #@! TF.FilePolarity,Positive*
G04*
G01*
G75*
%ADD10C,0.1000*%
%ADD11C,0.2500*%
%ADD12C,0.2000*%
%ADD13C,0.1530*%
D10*
X340391Y131050D02*
X343538D01*
X347021D02*
X350168D01*
X353198D02*
X356345D01*
X366091Y145550D02*
X369239D01*
X372024Y145426D02*
X375171D01*
X378205Y145384D02*
X381352D01*
X378387Y160000D02*
X381534D01*
X372206D02*
X375353D01*
X366273D02*
X369421D01*
X353137D02*
X356284D01*
X346960D02*
X350107D01*
X340330D02*
X343477D01*
X293500Y167200D02*
X413400D01*
Y122800D02*
Y167200D01*
Y114380D02*
Y122800D01*
X293500Y114380D02*
X413400D01*
X293500D02*
Y167200D01*
D11*
X100750Y179000D02*
G03*
X100750Y179000I-1250J0D01*
G01*
X406750Y269500D02*
G03*
X406750Y269500I-1250J0D01*
G01*
X406350Y225500D02*
G03*
X406350Y225500I-1250J0D01*
G01*
Y183500D02*
G03*
X406350Y183500I-1250J0D01*
G01*
X143850Y78800D02*
G03*
X143850Y78800I-1250J0D01*
G01*
X227658Y161133D02*
G03*
X227658Y161133I-1250J0D01*
G01*
X170408Y172383D02*
G03*
X170408Y172383I-1250J0D01*
G01*
D12*
X340330Y131046D02*
G03*
X340330Y131046I-4730J0D01*
G01*
X365730D02*
G03*
X365730Y131046I-4730J0D01*
G01*
X391130D02*
G03*
X391130Y131046I-4730J0D01*
G01*
X340330Y145547D02*
G03*
X340330Y145547I-4730J0D01*
G01*
X365730D02*
G03*
X365730Y145547I-4730J0D01*
G01*
X391130D02*
G03*
X391130Y145547I-4730J0D01*
G01*
Y160000D02*
G03*
X391130Y160000I-4730J0D01*
G01*
X365730D02*
G03*
X365730Y160000I-4730J0D01*
G01*
X340330D02*
G03*
X340330Y160000I-4730J0D01*
G01*
X98000Y172500D02*
X102250D01*
X98000Y168250D02*
Y172500D01*
Y128500D02*
Y132750D01*
Y128500D02*
X102250D01*
X137750D02*
X142000D01*
Y132750D01*
X137750Y172500D02*
X142000D01*
Y168250D02*
Y172500D01*
X366235Y131050D02*
X381670D01*
X340736Y145550D02*
X356299Y145541D01*
X321800Y256050D02*
Y282950D01*
X401000D01*
Y256050D02*
Y282950D01*
X321800Y256050D02*
X401000D01*
X321400Y212050D02*
Y238950D01*
X400600D01*
Y212050D02*
Y238950D01*
X321400Y212050D02*
X400600D01*
X321400Y170050D02*
Y196950D01*
X400600D01*
Y170050D02*
Y196950D01*
X321400Y170050D02*
X400600D01*
X142700Y65250D02*
X348900D01*
X142700Y38350D02*
Y65250D01*
Y38350D02*
X348900D01*
Y65250D01*
X234408Y186383D02*
X240408D01*
X234408Y164383D02*
X240408D01*
Y186383D01*
X234408Y164383D02*
Y186383D01*
X172408Y164383D02*
X194408D01*
X172408Y158383D02*
X194408D01*
X172408D02*
Y164383D01*
X194408Y158383D02*
Y164383D01*
D13*
X322970Y154530D02*
Y164527D01*
X316306Y154530D01*
Y164527D01*
X306309Y162861D02*
X307975Y164527D01*
X311307D01*
X312973Y162861D01*
Y156196D01*
X311307Y154530D01*
X307975D01*
X306309Y156196D01*
X371382Y250811D02*
X373049Y252477D01*
X376381D01*
X378047Y250811D01*
Y249144D01*
X376381Y247478D01*
X373049D01*
X371382Y245812D01*
Y244146D01*
X373049Y242480D01*
X376381D01*
X378047Y244146D01*
X368050Y252477D02*
X361386D01*
X364718D01*
Y242480D01*
X358053D02*
Y252477D01*
X353055D01*
X351389Y250811D01*
Y247478D01*
X353055Y245812D01*
X358053D01*
X354721D02*
X351389Y242480D01*
X343058Y252477D02*
X346390D01*
X348057Y250811D01*
Y244146D01*
X346390Y242480D01*
X343058D01*
X341392Y244146D01*
Y250811D01*
X343058Y252477D01*
X338060D02*
Y242480D01*
X333061D01*
X331395Y244146D01*
Y245812D01*
X333061Y247478D01*
X338060D01*
X333061D01*
X331395Y249144D01*
Y250811D01*
X333061Y252477D01*
X338060D01*
X321399D02*
X328063D01*
Y242480D01*
X321399D01*
X328063Y247478D02*
X324731D01*
X318472Y135527D02*
X321804D01*
X323470Y133861D01*
Y127196D01*
X321804Y125530D01*
X318472D01*
X316805Y127196D01*
Y133861D01*
X318472Y135527D01*
X313473D02*
Y127196D01*
X311807Y125530D01*
X308475D01*
X306809Y127196D01*
Y135527D01*
X303477D02*
X296812D01*
X300144D01*
Y125530D01*
X349219Y294811D02*
X350885Y296477D01*
X354217D01*
X355883Y294811D01*
Y288146D01*
X354217Y286480D01*
X350885D01*
X349219Y288146D01*
Y291478D01*
X352551D01*
X345887Y286480D02*
Y296477D01*
X340888D01*
X339222Y294811D01*
Y291478D01*
X340888Y289812D01*
X345887D01*
X335890Y296477D02*
X332558D01*
X334224D01*
Y286480D01*
X335890D01*
X332558D01*
X322561Y296477D02*
X325893D01*
X327559Y294811D01*
Y288146D01*
X325893Y286480D01*
X322561D01*
X320895Y288146D01*
Y294811D01*
X322561Y296477D01*
X349898Y209255D02*
X356562D01*
Y204257D01*
X353230D01*
X356562D01*
Y199258D01*
X339901Y207589D02*
X341567Y209255D01*
X344899D01*
X346565Y207589D01*
Y205923D01*
X344899Y204257D01*
X341567D01*
X339901Y202590D01*
Y200924D01*
X341567Y199258D01*
X344899D01*
X346565Y200924D01*
X336568Y209255D02*
X333236D01*
X334902D01*
Y199258D01*
X336568D01*
X333236D01*
X328238D02*
Y209255D01*
X321573Y199258D01*
Y209255D01*
X407935Y122574D02*
Y119242D01*
Y120908D01*
X399605D01*
X397939Y119242D01*
Y117576D01*
X399605Y115910D01*
X402937Y125907D02*
Y132571D01*
X406269Y142568D02*
X407935Y140902D01*
Y137570D01*
X406269Y135904D01*
X399605D01*
X397939Y137570D01*
Y140902D01*
X399605Y142568D01*
X407935Y152565D02*
Y145900D01*
X402937D01*
Y149233D01*
Y145900D01*
X397939D01*
X406269Y162561D02*
X407935Y160895D01*
Y157563D01*
X406269Y155897D01*
X399605D01*
X397939Y157563D01*
Y160895D01*
X399605Y162561D01*
X402937D01*
Y159229D01*
X322970Y150027D02*
X319638D01*
X321304D01*
Y140030D01*
X322970D01*
X319638D01*
X314639D02*
Y150027D01*
X307975Y140030D01*
Y150027D01*
X83829Y98498D02*
X77165D01*
X80497D01*
Y88502D01*
X73832D02*
Y98498D01*
X68834D01*
X67168Y96832D01*
Y93500D01*
X68834Y91834D01*
X73832D01*
X57171Y98498D02*
X60503Y96832D01*
X63836Y93500D01*
Y90168D01*
X62169Y88502D01*
X58837D01*
X57171Y90168D01*
Y91834D01*
X58837Y93500D01*
X63836D01*
X241506Y406440D02*
X234841D01*
X238173D01*
Y396443D01*
X231509D02*
Y406440D01*
X226511D01*
X224844Y404774D01*
Y401442D01*
X226511Y399776D01*
X231509D01*
X221512Y406440D02*
X214848D01*
Y404774D01*
X221512Y398110D01*
Y396443D01*
X185331Y190998D02*
Y182668D01*
X183664Y181002D01*
X180332D01*
X178666Y182668D01*
Y190998D01*
X175334Y189332D02*
X173668Y190998D01*
X170336D01*
X168669Y189332D01*
Y187666D01*
X170336Y186000D01*
X168669Y184334D01*
Y182668D01*
X170336Y181002D01*
X173668D01*
X175334Y182668D01*
Y184334D01*
X173668Y186000D01*
X175334Y187666D01*
Y189332D01*
X173668Y186000D02*
X170336D01*
X110831Y124998D02*
Y116668D01*
X109164Y115002D01*
X105832D01*
X104166Y116668D01*
Y124998D01*
X100834D02*
X94169D01*
Y123332D01*
X100834Y116668D01*
Y115002D01*
X243831Y201498D02*
Y193168D01*
X242164Y191502D01*
X238832D01*
X237166Y193168D01*
Y201498D01*
X227169D02*
X230502Y199832D01*
X233834Y196500D01*
Y193168D01*
X232168Y191502D01*
X228836D01*
X227169Y193168D01*
Y194834D01*
X228836Y196500D01*
X233834D01*
X394666Y296998D02*
X397998D01*
X396332D01*
Y288668D01*
X397998Y287002D01*
X399664D01*
X401331Y288668D01*
X384669Y296998D02*
X391334D01*
Y292000D01*
X388002Y293666D01*
X386335D01*
X384669Y292000D01*
Y288668D01*
X386335Y287002D01*
X389668D01*
X391334Y288668D01*
X151166Y31998D02*
X154498D01*
X152832D01*
Y23668D01*
X154498Y22002D01*
X156165D01*
X157831Y23668D01*
X142836Y22002D02*
Y31998D01*
X147834Y27000D01*
X141169D01*
X394666Y209498D02*
X397998D01*
X396332D01*
Y201168D01*
X397998Y199502D01*
X399664D01*
X401331Y201168D01*
X391334Y207832D02*
X389668Y209498D01*
X386335D01*
X384669Y207832D01*
Y206166D01*
X386335Y204500D01*
X388002D01*
X386335D01*
X384669Y202834D01*
Y201168D01*
X386335Y199502D01*
X389668D01*
X391334Y201168D01*
X394666Y252498D02*
X397998D01*
X396332D01*
Y244168D01*
X397998Y242502D01*
X399664D01*
X401331Y244168D01*
X384669Y242502D02*
X391334D01*
X384669Y249166D01*
Y250832D01*
X386335Y252498D01*
X389668D01*
X391334Y250832D01*
M02*
