G04*
G04 #@! TF.GenerationSoftware,Altium Limited,Altium Designer,24.5.2 (23)*
G04*
G04 Layer_Color=16711935*
%FSLAX44Y44*%
%MOMM*%
G71*
G04*
G04 #@! TF.SameCoordinates,5A08705E-C27C-47AC-A7BE-410B2864E99F*
G04*
G04*
G04 #@! TF.FilePolarity,Positive*
G04*
G01*
G75*
%ADD95C,0.0100*%
D95*
X643000Y316700D02*
G03*
X663000Y296700I20000J0D01*
G01*
X1002800Y294700D02*
G03*
X1000800Y296700I-2000J0D01*
G01*
X1000800Y194300D02*
G03*
X1002800Y196300I0J2000D01*
G01*
X663000Y194300D02*
G03*
X643000Y174300I0J-20000D01*
G01*
X0Y20000D02*
G03*
X20000Y0I20000J0D01*
G01*
X623000D02*
G03*
X643000Y20000I0J20000D01*
G01*
X643000Y471000D02*
G03*
X623000Y491000I-20000J0D01*
G01*
X20000D02*
G03*
X0Y471000I0J-20000D01*
G01*
X643000Y316700D02*
Y471000D01*
X-0Y20000D02*
X0Y471000D01*
X663000Y296700D02*
X943004D01*
X985338Y296700D02*
X1000800D01*
X943005D02*
X985338D01*
X1002800Y196300D02*
Y294700D01*
X663000Y194300D02*
X942967D01*
X942967Y194300D02*
X942967Y194300D01*
X985301Y194300D02*
X1000800D01*
X942967Y194300D02*
X985300D01*
X643000Y20000D02*
Y174300D01*
X20000Y0D02*
X623000Y0D01*
X20000Y491000D02*
X623000D01*
M02*
