G04*
G04 #@! TF.GenerationSoftware,Altium Limited,Altium Designer,24.5.2 (23)*
G04*
G04 Layer_Physical_Order=2*
G04 Layer_Color=16711680*
%FSLAX44Y44*%
%MOMM*%
G71*
G04*
G04 #@! TF.SameCoordinates,5A08705E-C27C-47AC-A7BE-410B2864E99F*
G04*
G04*
G04 #@! TF.FilePolarity,Positive*
G04*
G01*
G75*
%ADD11C,0.2000*%
%ADD12C,0.1500*%
%ADD86C,0.3000*%
%ADD89R,1.7000X1.7000*%
%ADD90C,1.7000*%
%ADD91C,3.0000*%
%ADD92C,0.7000*%
%ADD93C,0.4000*%
%ADD94C,0.5000*%
G36*
X627942Y487290D02*
X631025Y486013D01*
X633800Y484159D01*
X636159Y481800D01*
X638013Y479025D01*
X639290Y475942D01*
X639941Y472669D01*
Y471000D01*
X639941Y316700D01*
Y316700D01*
Y316700D01*
Y307285D01*
X647232Y299994D01*
X647232Y299994D01*
X648149Y299077D01*
X648400Y298909D01*
X648613Y298696D01*
X651873Y296518D01*
X652151Y296403D01*
X652402Y296236D01*
X656024Y294735D01*
X656024Y294735D01*
X656319Y294676D01*
X656598Y294561D01*
X660443Y293796D01*
X660670D01*
X660890Y293741D01*
X662850Y293645D01*
X662925Y293656D01*
X663000Y293641D01*
X939046Y293641D01*
Y293641D01*
X939046Y293641D01*
X946062D01*
Y293641D01*
X981379Y293641D01*
D01*
X988395D01*
D01*
X999742D01*
X999742Y197359D01*
X989258Y197358D01*
D01*
X988745D01*
X985300Y197358D01*
X946925D01*
X946062Y198222D01*
Y198222D01*
X946925Y197359D01*
X939909D01*
D01*
X663000Y197359D01*
X662925Y197344D01*
X662850Y197355D01*
X660890Y197259D01*
X660670Y197204D01*
X660443D01*
X656598Y196439D01*
X656319Y196324D01*
X656024Y196265D01*
X652402Y194764D01*
X652151Y194597D01*
X651873Y194482D01*
X648613Y192304D01*
X648400Y192090D01*
X648149Y191923D01*
X647232Y191006D01*
D01*
X642338Y189382D01*
X639941Y184224D01*
Y174300D01*
X639941Y174300D01*
Y20000D01*
Y18332D01*
X639290Y15059D01*
X638013Y11976D01*
X636159Y9201D01*
X633800Y6841D01*
X631025Y4987D01*
X627942Y3710D01*
X624669Y3059D01*
X18331D01*
X15058Y3710D01*
X11975Y4987D01*
X9201Y6841D01*
X6841Y9201D01*
X4987Y11976D01*
X3710Y15059D01*
X3059Y18332D01*
Y20000D01*
Y471000D01*
Y472669D01*
X3710Y475942D01*
X4987Y479025D01*
X6841Y481800D01*
X9201Y484159D01*
X11975Y486013D01*
X15058Y487290D01*
X18331Y487942D01*
X624669D01*
X627942Y487290D01*
D02*
G37*
%LPC*%
G36*
X621876Y485000D02*
X618724D01*
X615633Y484385D01*
X612721Y483179D01*
X610101Y481428D01*
X607872Y479199D01*
X606121Y476579D01*
X604915Y473667D01*
X604300Y470576D01*
Y467424D01*
X604915Y464333D01*
X606121Y461421D01*
X607872Y458801D01*
X610101Y456572D01*
X612721Y454821D01*
X615633Y453615D01*
X618724Y453000D01*
X621876D01*
X624967Y453615D01*
X627879Y454821D01*
X630499Y456572D01*
X632728Y458801D01*
X634479Y461421D01*
X635685Y464333D01*
X636300Y467424D01*
Y470576D01*
X635685Y473667D01*
X634479Y476579D01*
X632728Y479199D01*
X630499Y481428D01*
X627879Y483179D01*
X624967Y484385D01*
X621876Y485000D01*
D02*
G37*
G36*
X22576D02*
X19424D01*
X16333Y484385D01*
X13421Y483179D01*
X10801Y481428D01*
X8572Y479199D01*
X6821Y476579D01*
X5615Y473667D01*
X5000Y470576D01*
Y467424D01*
X5615Y464333D01*
X6821Y461421D01*
X8572Y458801D01*
X10801Y456572D01*
X13421Y454821D01*
X16333Y453615D01*
X19424Y453000D01*
X22576D01*
X25667Y453615D01*
X28579Y454821D01*
X31199Y456572D01*
X33428Y458801D01*
X35179Y461421D01*
X36385Y464333D01*
X37000Y467424D01*
Y470576D01*
X36385Y473667D01*
X35179Y476579D01*
X33428Y479199D01*
X31199Y481428D01*
X28579Y483179D01*
X25667Y484385D01*
X22576Y485000D01*
D02*
G37*
G36*
X127395Y391750D02*
X125605D01*
X123951Y391065D01*
X122685Y389799D01*
X122000Y388145D01*
Y386355D01*
X122685Y384701D01*
X123951Y383435D01*
X125605Y382750D01*
X127395D01*
X129049Y383435D01*
X130315Y384701D01*
X131000Y386355D01*
Y388145D01*
X130315Y389799D01*
X129049Y391065D01*
X127395Y391750D01*
D02*
G37*
G36*
Y350250D02*
X125605D01*
X123951Y349565D01*
X122685Y348299D01*
X122000Y346645D01*
Y344855D01*
X122685Y343201D01*
X123951Y341935D01*
X125605Y341250D01*
X127395D01*
X129049Y341935D01*
X130315Y343201D01*
X131000Y344855D01*
Y346645D01*
X130315Y348299D01*
X129049Y349565D01*
X127395Y350250D01*
D02*
G37*
G36*
X320597Y366500D02*
X319403D01*
X318301Y366043D01*
X317457Y365199D01*
X317000Y364097D01*
Y362903D01*
X317457Y361801D01*
X318301Y360957D01*
X318318Y360950D01*
Y344605D01*
X318206Y344558D01*
X317362Y343714D01*
X316905Y342612D01*
Y341418D01*
X317362Y340316D01*
X318206Y339472D01*
X319308Y339015D01*
X320502D01*
X321605Y339472D01*
X322449Y340316D01*
X322905Y341418D01*
Y342612D01*
X322449Y343714D01*
X321682Y344481D01*
Y360950D01*
X321699Y360957D01*
X322543Y361801D01*
X323000Y362903D01*
Y364097D01*
X322543Y365199D01*
X321699Y366043D01*
X320597Y366500D01*
D02*
G37*
G36*
X233000Y478474D02*
X111000D01*
X110311Y478189D01*
X40311Y408189D01*
X40026Y407500D01*
Y78500D01*
X40311Y77811D01*
X90811Y27311D01*
X91500Y27026D01*
X427500D01*
X428189Y27311D01*
X457689Y56811D01*
X457974Y57500D01*
Y195500D01*
X457689Y196189D01*
X457000Y196474D01*
X443500D01*
X442811Y196189D01*
X442526Y195500D01*
Y64903D01*
X419096Y41474D01*
X100904D01*
X57974Y84403D01*
Y289553D01*
X146704D01*
X146801Y289457D01*
X147903Y289000D01*
X149097D01*
X150199Y289457D01*
X151043Y290301D01*
X151500Y291403D01*
Y292597D01*
X151043Y293699D01*
X150199Y294543D01*
X149097Y295000D01*
X147903D01*
X146801Y294543D01*
X146704Y294447D01*
X57974D01*
Y401096D01*
X119403Y462526D01*
X189597D01*
X203526Y448596D01*
Y427500D01*
X203811Y426811D01*
X215811Y414811D01*
X216500Y414526D01*
X229097D01*
X229311Y414311D01*
X230000Y414026D01*
X230689Y414311D01*
X244904Y428526D01*
X245500D01*
X246189Y428811D01*
X246474Y429500D01*
Y445818D01*
X377803D01*
X423318Y400303D01*
Y335550D01*
X423301Y335543D01*
X422457Y334699D01*
X422000Y333597D01*
Y332403D01*
X422457Y331301D01*
X423301Y330457D01*
X424403Y330000D01*
X425597D01*
X426699Y330457D01*
X427543Y331301D01*
X428000Y332403D01*
Y333597D01*
X427543Y334699D01*
X426699Y335543D01*
X426682Y335550D01*
Y401000D01*
X426554Y401644D01*
X426190Y402190D01*
X379690Y448690D01*
X379144Y449054D01*
X378500Y449182D01*
X246474D01*
Y465000D01*
X246189Y465689D01*
X233689Y478189D01*
X233000Y478474D01*
D02*
G37*
G36*
X138700Y100000D02*
X119700D01*
Y81000D01*
X138700D01*
Y100000D01*
D02*
G37*
G36*
X623576Y37000D02*
X620424D01*
X617333Y36385D01*
X614421Y35179D01*
X611801Y33428D01*
X609572Y31199D01*
X607821Y28579D01*
X606615Y25667D01*
X606000Y22576D01*
Y19424D01*
X606615Y16333D01*
X607821Y13421D01*
X609572Y10801D01*
X611801Y8572D01*
X614421Y6821D01*
X617333Y5615D01*
X620424Y5000D01*
X623576D01*
X626667Y5615D01*
X629579Y6821D01*
X632199Y8572D01*
X634428Y10801D01*
X636179Y13421D01*
X637385Y16333D01*
X638000Y19424D01*
Y22576D01*
X637385Y25667D01*
X636179Y28579D01*
X634428Y31199D01*
X632199Y33428D01*
X629579Y35179D01*
X626667Y36385D01*
X623576Y37000D01*
D02*
G37*
G36*
X22576D02*
X19424D01*
X16333Y36385D01*
X13421Y35179D01*
X10801Y33428D01*
X8572Y31199D01*
X6821Y28579D01*
X5615Y25667D01*
X5000Y22576D01*
Y19424D01*
X5615Y16333D01*
X6821Y13421D01*
X8572Y10801D01*
X10801Y8572D01*
X13421Y6821D01*
X16333Y5615D01*
X19424Y5000D01*
X22576D01*
X25667Y5615D01*
X28579Y6821D01*
X31199Y8572D01*
X33428Y10801D01*
X35179Y13421D01*
X36385Y16333D01*
X37000Y19424D01*
Y22576D01*
X36385Y25667D01*
X35179Y28579D01*
X33428Y31199D01*
X31199Y33428D01*
X28579Y35179D01*
X25667Y36385D01*
X22576Y37000D01*
D02*
G37*
%LPD*%
G36*
X245500Y465000D02*
Y429500D01*
X244500D01*
X230000Y415000D01*
X229500Y415500D01*
X216500D01*
X204500Y427500D01*
Y449000D01*
X190000Y463500D01*
X119000D01*
X57000Y401500D01*
Y84000D01*
X100500Y40500D01*
X419500D01*
X443500Y64500D01*
Y195500D01*
X457000D01*
Y57500D01*
X427500Y28000D01*
X91500D01*
X41000Y78500D01*
Y407500D01*
X111000Y477500D01*
X233000D01*
X245500Y465000D01*
D02*
G37*
D11*
X524550Y253278D02*
Y268834D01*
Y253278D02*
X532328Y261056D01*
X516772D02*
X524550Y253278D01*
X516772Y245500D02*
X524550Y253278D01*
Y253278D02*
Y253278D01*
X532328Y245500D02*
X540107Y253278D01*
X524550Y245500D02*
Y253278D01*
X508994D02*
X516772Y245500D01*
X540107D02*
Y253278D01*
X524550D02*
X532328Y245500D01*
X532328D02*
X540107Y237722D01*
X524550D02*
Y245500D01*
X532328D02*
X532328D01*
X524550Y237722D02*
X532328Y245500D01*
X508994Y237722D02*
X516772Y245500D01*
X532328D02*
X540107D01*
X547885D01*
X516772D02*
X524550Y237722D01*
X540107Y237722D02*
Y245500D01*
X501216D02*
X516772D01*
X524550D01*
X532328D01*
X540107Y237722D02*
X540107D01*
X524550Y237722D02*
Y237722D01*
Y237722D02*
X532328Y229944D01*
X516772D02*
X524550Y237722D01*
Y222166D02*
Y237722D01*
X516772Y229944D02*
X516772D01*
D12*
X319500Y342000D02*
X320000Y342500D01*
X233000Y447500D02*
X378500D01*
X425000Y401000D01*
Y333000D02*
Y401000D01*
X320000Y342500D02*
Y363500D01*
D86*
X53000Y292000D02*
X148500D01*
D89*
X129200Y90500D02*
D03*
D90*
X103800D02*
D03*
D91*
X21000Y469000D02*
D03*
X620300D02*
D03*
X622000Y21000D02*
D03*
X21000D02*
D03*
D92*
X126500Y345750D02*
D03*
Y387250D02*
D03*
D93*
X602300Y452000D02*
D03*
X627300Y402000D02*
D03*
X602300Y352000D02*
D03*
X627300Y302000D02*
D03*
X602300Y152000D02*
D03*
X627300Y102000D02*
D03*
X602300Y52000D02*
D03*
X552300Y452000D02*
D03*
X577300Y402000D02*
D03*
X552300Y352000D02*
D03*
X577300Y302000D02*
D03*
X552300Y152000D02*
D03*
X577300Y102000D02*
D03*
X552300Y52000D02*
D03*
X502300Y452000D02*
D03*
X527300Y402000D02*
D03*
X502300Y352000D02*
D03*
X527300Y302000D02*
D03*
Y202000D02*
D03*
X502300Y152000D02*
D03*
X527300Y102000D02*
D03*
X502300Y52000D02*
D03*
X452300Y452000D02*
D03*
X477300Y402000D02*
D03*
X452300Y352000D02*
D03*
X477300Y302000D02*
D03*
Y102000D02*
D03*
X402300Y452000D02*
D03*
Y352000D02*
D03*
X427300Y302000D02*
D03*
X402300Y152000D02*
D03*
X427300Y102000D02*
D03*
X402300Y52000D02*
D03*
X352300Y452000D02*
D03*
X377300Y402000D02*
D03*
Y202000D02*
D03*
X352300Y152000D02*
D03*
Y52000D02*
D03*
X302300Y452000D02*
D03*
Y252000D02*
D03*
X327300Y202000D02*
D03*
X302300Y152000D02*
D03*
X327300Y102000D02*
D03*
X302300Y52000D02*
D03*
X252300Y452000D02*
D03*
Y52000D02*
D03*
X227300Y402000D02*
D03*
X202300Y352000D02*
D03*
X227300Y102000D02*
D03*
X202300Y52000D02*
D03*
X152300Y452000D02*
D03*
Y152000D02*
D03*
X177300Y102000D02*
D03*
X152300Y52000D02*
D03*
X127300Y202000D02*
D03*
X102300Y52000D02*
D03*
X52300Y452000D02*
D03*
X77300Y402000D02*
D03*
Y202000D02*
D03*
Y102000D02*
D03*
X52300Y52000D02*
D03*
X466320Y228636D02*
D03*
X487000Y200500D02*
D03*
X448156Y193000D02*
D03*
X148500Y292000D02*
D03*
X136500Y260000D02*
D03*
X425000Y333000D02*
D03*
X198000Y34500D02*
D03*
X189500D02*
D03*
X162000Y239500D02*
D03*
X168000Y195500D02*
D03*
X49025Y193475D02*
D03*
X231000Y422000D02*
D03*
X224364Y422118D02*
D03*
X217864D02*
D03*
X220759Y222466D02*
D03*
X221259Y201966D02*
D03*
X221009Y212966D02*
D03*
X212500Y222500D02*
D03*
Y213000D02*
D03*
Y202500D02*
D03*
X230000D02*
D03*
Y212500D02*
D03*
Y222500D02*
D03*
X454500Y187000D02*
D03*
X448016Y186962D02*
D03*
X454525Y192887D02*
D03*
X173204Y434910D02*
D03*
X164204D02*
D03*
X169000Y430000D02*
D03*
X534500Y373500D02*
D03*
X320000Y363500D02*
D03*
X319905Y342015D02*
D03*
X139000Y336500D02*
D03*
X131000D02*
D03*
X121500D02*
D03*
Y329000D02*
D03*
X131000Y329000D02*
D03*
X139000D02*
D03*
X121500Y321500D02*
D03*
X131000Y321500D02*
D03*
X139000D02*
D03*
X184000Y291000D02*
D03*
X198000Y287000D02*
D03*
X207500D02*
D03*
X255847Y280454D02*
D03*
X266847D02*
D03*
X276346Y275954D02*
D03*
X278846Y267454D02*
D03*
X738000Y265500D02*
D03*
X753000D02*
D03*
X888000D02*
D03*
X663000D02*
D03*
X918000D02*
D03*
X648000D02*
D03*
X903000D02*
D03*
X768000D02*
D03*
X678000D02*
D03*
X828000D02*
D03*
X783000Y265000D02*
D03*
X963000D02*
D03*
X693000D02*
D03*
X708000D02*
D03*
X798000D02*
D03*
X948000D02*
D03*
X813000D02*
D03*
X858000D02*
D03*
X723000D02*
D03*
X873000D02*
D03*
X843000D02*
D03*
X933000D02*
D03*
X630500Y261000D02*
D03*
X279347Y257954D02*
D03*
X738000Y253000D02*
D03*
X828000D02*
D03*
X753000D02*
D03*
X768000D02*
D03*
X888000D02*
D03*
X648000D02*
D03*
X663000D02*
D03*
X678000D02*
D03*
X903000D02*
D03*
X918000D02*
D03*
X723000Y252500D02*
D03*
X708000D02*
D03*
X693000D02*
D03*
X933000D02*
D03*
X948000D02*
D03*
X963000D02*
D03*
X843000D02*
D03*
X858000D02*
D03*
X873000D02*
D03*
X798000D02*
D03*
X783000D02*
D03*
X813000D02*
D03*
X621500Y251500D02*
D03*
X279846Y248954D02*
D03*
X104750Y246750D02*
D03*
X613000Y243500D02*
D03*
X828000Y243000D02*
D03*
X632500D02*
D03*
X918000D02*
D03*
X678000D02*
D03*
X888000D02*
D03*
X903000D02*
D03*
X738000D02*
D03*
X663000D02*
D03*
X753000D02*
D03*
X648000D02*
D03*
X768000D02*
D03*
X723000Y242500D02*
D03*
X948000D02*
D03*
X933000D02*
D03*
X843000D02*
D03*
X798000D02*
D03*
X783000D02*
D03*
X813000D02*
D03*
X963000D02*
D03*
X858000D02*
D03*
X708000D02*
D03*
X693000D02*
D03*
X873000D02*
D03*
X603000Y233000D02*
D03*
X445250Y223608D02*
D03*
X413632Y223502D02*
D03*
X422632D02*
D03*
X593252Y223477D02*
D03*
X421632Y217002D02*
D03*
X583252Y213477D02*
D03*
X279983Y202654D02*
D03*
X209000Y169500D02*
D03*
X245000Y148000D02*
D03*
X236000D02*
D03*
X366778Y140285D02*
D03*
X182587Y127388D02*
D03*
X219000Y122000D02*
D03*
X182587Y119388D02*
D03*
X193148Y119265D02*
D03*
X149174Y113238D02*
D03*
X104000Y112000D02*
D03*
X337779Y103285D02*
D03*
X350000Y76000D02*
D03*
D94*
X501216Y245500D02*
D03*
X508994Y253278D02*
D03*
X516772Y261056D02*
D03*
X524550Y268834D02*
D03*
X508994Y237722D02*
D03*
X516772Y245500D02*
D03*
X524550Y253278D02*
D03*
X532328Y261056D02*
D03*
X516772Y229944D02*
D03*
X524550Y237722D02*
D03*
X532328Y245500D02*
D03*
X540107Y253278D02*
D03*
X524550Y222166D02*
D03*
X532328Y229944D02*
D03*
X540107Y237722D02*
D03*
X547885Y245500D02*
D03*
M02*
