G04*
G04 #@! TF.GenerationSoftware,Altium Limited,Altium Designer,24.5.2 (23)*
G04*
G04 Layer_Color=16711935*
%FSLAX44Y44*%
%MOMM*%
G71*
G04*
G04 #@! TF.SameCoordinates,5A08705E-C27C-47AC-A7BE-410B2864E99F*
G04*
G04*
G04 #@! TF.FilePolarity,Negative*
G04*
G01*
G75*
%ADD59R,1.7760X1.7760*%
%ADD60C,1.7760*%
%ADD61C,3.0760*%
%ADD62C,0.7760*%
%ADD63C,0.4760*%
%ADD64C,0.4800*%
%ADD65C,0.5760*%
D59*
X129200Y90500D02*
D03*
D60*
X103800D02*
D03*
D61*
X21000Y469000D02*
D03*
X620300D02*
D03*
X622000Y21000D02*
D03*
X21000D02*
D03*
D62*
X126500Y345750D02*
D03*
Y387250D02*
D03*
D63*
X602300Y452000D02*
D03*
X627300Y402000D02*
D03*
X602300Y352000D02*
D03*
X627300Y302000D02*
D03*
X602300Y152000D02*
D03*
X627300Y102000D02*
D03*
X602300Y52000D02*
D03*
X552300Y452000D02*
D03*
X577300Y402000D02*
D03*
X552300Y352000D02*
D03*
X577300Y302000D02*
D03*
X552300Y152000D02*
D03*
X577300Y102000D02*
D03*
X552300Y52000D02*
D03*
X502300Y452000D02*
D03*
X527300Y402000D02*
D03*
X502300Y352000D02*
D03*
X527300Y302000D02*
D03*
Y202000D02*
D03*
X502300Y152000D02*
D03*
X527300Y102000D02*
D03*
X502300Y52000D02*
D03*
X452300Y452000D02*
D03*
X477300Y402000D02*
D03*
X452300Y352000D02*
D03*
X477300Y302000D02*
D03*
Y102000D02*
D03*
X402300Y452000D02*
D03*
Y352000D02*
D03*
X427300Y302000D02*
D03*
X402300Y152000D02*
D03*
X427300Y102000D02*
D03*
X402300Y52000D02*
D03*
X352300Y452000D02*
D03*
X377300Y402000D02*
D03*
Y202000D02*
D03*
X352300Y152000D02*
D03*
Y52000D02*
D03*
X302300Y452000D02*
D03*
Y252000D02*
D03*
X327300Y202000D02*
D03*
X302300Y152000D02*
D03*
X327300Y102000D02*
D03*
X302300Y52000D02*
D03*
X252300Y452000D02*
D03*
Y52000D02*
D03*
X227300Y402000D02*
D03*
X202300Y352000D02*
D03*
X227300Y102000D02*
D03*
X202300Y52000D02*
D03*
X152300Y452000D02*
D03*
Y152000D02*
D03*
X177300Y102000D02*
D03*
X152300Y52000D02*
D03*
X127300Y202000D02*
D03*
X102300Y52000D02*
D03*
X52300Y452000D02*
D03*
X77300Y402000D02*
D03*
Y202000D02*
D03*
Y102000D02*
D03*
X52300Y52000D02*
D03*
D64*
X466320Y228636D02*
D03*
X487000Y200500D02*
D03*
X448156Y193000D02*
D03*
X148500Y292000D02*
D03*
X136500Y260000D02*
D03*
X425000Y333000D02*
D03*
X198000Y34500D02*
D03*
X189500D02*
D03*
X162000Y239500D02*
D03*
X168000Y195500D02*
D03*
X49025Y193475D02*
D03*
X231000Y422000D02*
D03*
X224364Y422118D02*
D03*
X217864D02*
D03*
X220759Y222466D02*
D03*
X221259Y201966D02*
D03*
X221009Y212966D02*
D03*
X212500Y222500D02*
D03*
Y213000D02*
D03*
Y202500D02*
D03*
X230000D02*
D03*
Y212500D02*
D03*
Y222500D02*
D03*
X454500Y187000D02*
D03*
X448016Y186962D02*
D03*
X454525Y192887D02*
D03*
X173204Y434910D02*
D03*
X164204D02*
D03*
X169000Y430000D02*
D03*
X534500Y373500D02*
D03*
X320000Y363500D02*
D03*
X319905Y342015D02*
D03*
X139000Y336500D02*
D03*
X131000D02*
D03*
X121500D02*
D03*
Y329000D02*
D03*
X131000Y329000D02*
D03*
X139000D02*
D03*
X121500Y321500D02*
D03*
X131000Y321500D02*
D03*
X139000D02*
D03*
X184000Y291000D02*
D03*
X198000Y287000D02*
D03*
X207500D02*
D03*
X255847Y280454D02*
D03*
X266847D02*
D03*
X276346Y275954D02*
D03*
X278846Y267454D02*
D03*
X738000Y265500D02*
D03*
X753000D02*
D03*
X888000D02*
D03*
X663000D02*
D03*
X918000D02*
D03*
X648000D02*
D03*
X903000D02*
D03*
X768000D02*
D03*
X678000D02*
D03*
X828000D02*
D03*
X783000Y265000D02*
D03*
X963000D02*
D03*
X693000D02*
D03*
X708000D02*
D03*
X798000D02*
D03*
X948000D02*
D03*
X813000D02*
D03*
X858000D02*
D03*
X723000D02*
D03*
X873000D02*
D03*
X843000D02*
D03*
X933000D02*
D03*
X630500Y261000D02*
D03*
X279347Y257954D02*
D03*
X738000Y253000D02*
D03*
X828000D02*
D03*
X753000D02*
D03*
X768000D02*
D03*
X888000D02*
D03*
X648000D02*
D03*
X663000D02*
D03*
X678000D02*
D03*
X903000D02*
D03*
X918000D02*
D03*
X723000Y252500D02*
D03*
X708000D02*
D03*
X693000D02*
D03*
X933000D02*
D03*
X948000D02*
D03*
X963000D02*
D03*
X843000D02*
D03*
X858000D02*
D03*
X873000D02*
D03*
X798000D02*
D03*
X783000D02*
D03*
X813000D02*
D03*
X621500Y251500D02*
D03*
X279846Y248954D02*
D03*
X104750Y246750D02*
D03*
X613000Y243500D02*
D03*
X828000Y243000D02*
D03*
X632500D02*
D03*
X918000D02*
D03*
X678000D02*
D03*
X888000D02*
D03*
X903000D02*
D03*
X738000D02*
D03*
X663000D02*
D03*
X753000D02*
D03*
X648000D02*
D03*
X768000D02*
D03*
X723000Y242500D02*
D03*
X948000D02*
D03*
X933000D02*
D03*
X843000D02*
D03*
X798000D02*
D03*
X783000D02*
D03*
X813000D02*
D03*
X963000D02*
D03*
X858000D02*
D03*
X708000D02*
D03*
X693000D02*
D03*
X873000D02*
D03*
X603000Y233000D02*
D03*
X445250Y223608D02*
D03*
X413632Y223502D02*
D03*
X422632D02*
D03*
X593252Y223477D02*
D03*
X421632Y217002D02*
D03*
X583252Y213477D02*
D03*
X279983Y202654D02*
D03*
X209000Y169500D02*
D03*
X245000Y148000D02*
D03*
X236000D02*
D03*
X366778Y140285D02*
D03*
X182587Y127388D02*
D03*
X219000Y122000D02*
D03*
X182587Y119388D02*
D03*
X193148Y119265D02*
D03*
X149174Y113238D02*
D03*
X104000Y112000D02*
D03*
X337779Y103285D02*
D03*
X350000Y76000D02*
D03*
D65*
X501216Y245500D02*
D03*
X508994Y253278D02*
D03*
X516772Y261056D02*
D03*
X524550Y268834D02*
D03*
X508994Y237722D02*
D03*
X516772Y245500D02*
D03*
X524550Y253278D02*
D03*
X532328Y261056D02*
D03*
X516772Y229944D02*
D03*
X524550Y237722D02*
D03*
X532328Y245500D02*
D03*
X540107Y253278D02*
D03*
X524550Y222166D02*
D03*
X532328Y229944D02*
D03*
X540107Y237722D02*
D03*
X547885Y245500D02*
D03*
M02*
