G04*
G04 #@! TF.GenerationSoftware,Altium Limited,Altium Designer,24.5.2 (23)*
G04*
G04 Layer_Color=2752767*
%FSLAX44Y44*%
%MOMM*%
G71*
G04*
G04 #@! TF.SameCoordinates,5A08705E-C27C-47AC-A7BE-410B2864E99F*
G04*
G04*
G04 #@! TF.FilePolarity,Positive*
G04*
G01*
G75*
%ADD97C,0.1270*%
%ADD98C,0.1693*%
D97*
X124120Y85420D02*
Y95580D01*
X134280D01*
Y85420D01*
X124120D01*
X98720D02*
Y95580D01*
X108880D01*
Y85420D01*
X98720D01*
X21000Y463920D02*
X15920Y474080D01*
X26080D01*
X21000Y463920D01*
X620300D02*
X615220Y474080D01*
X625380D01*
X620300Y463920D01*
X622000Y15920D02*
X616920Y26080D01*
X627080D01*
X622000Y15920D01*
X21000D02*
X15920Y26080D01*
X26080D01*
X21000Y15920D01*
X602300Y446920D02*
X604840Y449460D01*
X607380D01*
X604840Y452000D01*
X607380Y454540D01*
X604840D01*
X602300Y457080D01*
X599760Y454540D01*
X597220D01*
X599760Y452000D01*
X597220Y449460D01*
X599760D01*
X602300Y446920D01*
X627300Y396920D02*
X629840Y399460D01*
X632380D01*
X629840Y402000D01*
X632380Y404540D01*
X629840D01*
X627300Y407080D01*
X624760Y404540D01*
X622220D01*
X624760Y402000D01*
X622220Y399460D01*
X624760D01*
X627300Y396920D01*
X602300Y346920D02*
X604840Y349460D01*
X607380D01*
X604840Y352000D01*
X607380Y354540D01*
X604840D01*
X602300Y357080D01*
X599760Y354540D01*
X597220D01*
X599760Y352000D01*
X597220Y349460D01*
X599760D01*
X602300Y346920D01*
X627300Y296920D02*
X629840Y299460D01*
X632380D01*
X629840Y302000D01*
X632380Y304540D01*
X629840D01*
X627300Y307080D01*
X624760Y304540D01*
X622220D01*
X624760Y302000D01*
X622220Y299460D01*
X624760D01*
X627300Y296920D01*
X602300Y146920D02*
X604840Y149460D01*
X607380D01*
X604840Y152000D01*
X607380Y154540D01*
X604840D01*
X602300Y157080D01*
X599760Y154540D01*
X597220D01*
X599760Y152000D01*
X597220Y149460D01*
X599760D01*
X602300Y146920D01*
X627300Y96920D02*
X629840Y99460D01*
X632380D01*
X629840Y102000D01*
X632380Y104540D01*
X629840D01*
X627300Y107080D01*
X624760Y104540D01*
X622220D01*
X624760Y102000D01*
X622220Y99460D01*
X624760D01*
X627300Y96920D01*
X602300Y46920D02*
X604840Y49460D01*
X607380D01*
X604840Y52000D01*
X607380Y54540D01*
X604840D01*
X602300Y57080D01*
X599760Y54540D01*
X597220D01*
X599760Y52000D01*
X597220Y49460D01*
X599760D01*
X602300Y46920D01*
X552300Y446920D02*
X554840Y449460D01*
X557380D01*
X554840Y452000D01*
X557380Y454540D01*
X554840D01*
X552300Y457080D01*
X549760Y454540D01*
X547220D01*
X549760Y452000D01*
X547220Y449460D01*
X549760D01*
X552300Y446920D01*
X577300Y396920D02*
X579840Y399460D01*
X582380D01*
X579840Y402000D01*
X582380Y404540D01*
X579840D01*
X577300Y407080D01*
X574760Y404540D01*
X572220D01*
X574760Y402000D01*
X572220Y399460D01*
X574760D01*
X577300Y396920D01*
X552300Y346920D02*
X554840Y349460D01*
X557380D01*
X554840Y352000D01*
X557380Y354540D01*
X554840D01*
X552300Y357080D01*
X549760Y354540D01*
X547220D01*
X549760Y352000D01*
X547220Y349460D01*
X549760D01*
X552300Y346920D01*
X577300Y296920D02*
X579840Y299460D01*
X582380D01*
X579840Y302000D01*
X582380Y304540D01*
X579840D01*
X577300Y307080D01*
X574760Y304540D01*
X572220D01*
X574760Y302000D01*
X572220Y299460D01*
X574760D01*
X577300Y296920D01*
X552300Y146920D02*
X554840Y149460D01*
X557380D01*
X554840Y152000D01*
X557380Y154540D01*
X554840D01*
X552300Y157080D01*
X549760Y154540D01*
X547220D01*
X549760Y152000D01*
X547220Y149460D01*
X549760D01*
X552300Y146920D01*
X577300Y96920D02*
X579840Y99460D01*
X582380D01*
X579840Y102000D01*
X582380Y104540D01*
X579840D01*
X577300Y107080D01*
X574760Y104540D01*
X572220D01*
X574760Y102000D01*
X572220Y99460D01*
X574760D01*
X577300Y96920D01*
X552300Y46920D02*
X554840Y49460D01*
X557380D01*
X554840Y52000D01*
X557380Y54540D01*
X554840D01*
X552300Y57080D01*
X549760Y54540D01*
X547220D01*
X549760Y52000D01*
X547220Y49460D01*
X549760D01*
X552300Y46920D01*
X502300Y446920D02*
X504840Y449460D01*
X507380D01*
X504840Y452000D01*
X507380Y454540D01*
X504840D01*
X502300Y457080D01*
X499760Y454540D01*
X497220D01*
X499760Y452000D01*
X497220Y449460D01*
X499760D01*
X502300Y446920D01*
X527300Y396920D02*
X529840Y399460D01*
X532380D01*
X529840Y402000D01*
X532380Y404540D01*
X529840D01*
X527300Y407080D01*
X524760Y404540D01*
X522220D01*
X524760Y402000D01*
X522220Y399460D01*
X524760D01*
X527300Y396920D01*
X502300Y346920D02*
X504840Y349460D01*
X507380D01*
X504840Y352000D01*
X507380Y354540D01*
X504840D01*
X502300Y357080D01*
X499760Y354540D01*
X497220D01*
X499760Y352000D01*
X497220Y349460D01*
X499760D01*
X502300Y346920D01*
X527300Y296920D02*
X529840Y299460D01*
X532380D01*
X529840Y302000D01*
X532380Y304540D01*
X529840D01*
X527300Y307080D01*
X524760Y304540D01*
X522220D01*
X524760Y302000D01*
X522220Y299460D01*
X524760D01*
X527300Y296920D01*
Y196920D02*
X529840Y199460D01*
X532380D01*
X529840Y202000D01*
X532380Y204540D01*
X529840D01*
X527300Y207080D01*
X524760Y204540D01*
X522220D01*
X524760Y202000D01*
X522220Y199460D01*
X524760D01*
X527300Y196920D01*
X502300Y146920D02*
X504840Y149460D01*
X507380D01*
X504840Y152000D01*
X507380Y154540D01*
X504840D01*
X502300Y157080D01*
X499760Y154540D01*
X497220D01*
X499760Y152000D01*
X497220Y149460D01*
X499760D01*
X502300Y146920D01*
X527300Y96920D02*
X529840Y99460D01*
X532380D01*
X529840Y102000D01*
X532380Y104540D01*
X529840D01*
X527300Y107080D01*
X524760Y104540D01*
X522220D01*
X524760Y102000D01*
X522220Y99460D01*
X524760D01*
X527300Y96920D01*
X502300Y46920D02*
X504840Y49460D01*
X507380D01*
X504840Y52000D01*
X507380Y54540D01*
X504840D01*
X502300Y57080D01*
X499760Y54540D01*
X497220D01*
X499760Y52000D01*
X497220Y49460D01*
X499760D01*
X502300Y46920D01*
X452300Y446920D02*
X454840Y449460D01*
X457380D01*
X454840Y452000D01*
X457380Y454540D01*
X454840D01*
X452300Y457080D01*
X449760Y454540D01*
X447220D01*
X449760Y452000D01*
X447220Y449460D01*
X449760D01*
X452300Y446920D01*
X477300Y396920D02*
X479840Y399460D01*
X482380D01*
X479840Y402000D01*
X482380Y404540D01*
X479840D01*
X477300Y407080D01*
X474760Y404540D01*
X472220D01*
X474760Y402000D01*
X472220Y399460D01*
X474760D01*
X477300Y396920D01*
X452300Y346920D02*
X454840Y349460D01*
X457380D01*
X454840Y352000D01*
X457380Y354540D01*
X454840D01*
X452300Y357080D01*
X449760Y354540D01*
X447220D01*
X449760Y352000D01*
X447220Y349460D01*
X449760D01*
X452300Y346920D01*
X477300Y296920D02*
X479840Y299460D01*
X482380D01*
X479840Y302000D01*
X482380Y304540D01*
X479840D01*
X477300Y307080D01*
X474760Y304540D01*
X472220D01*
X474760Y302000D01*
X472220Y299460D01*
X474760D01*
X477300Y296920D01*
Y96920D02*
X479840Y99460D01*
X482380D01*
X479840Y102000D01*
X482380Y104540D01*
X479840D01*
X477300Y107080D01*
X474760Y104540D01*
X472220D01*
X474760Y102000D01*
X472220Y99460D01*
X474760D01*
X477300Y96920D01*
X402300Y446920D02*
X404840Y449460D01*
X407380D01*
X404840Y452000D01*
X407380Y454540D01*
X404840D01*
X402300Y457080D01*
X399760Y454540D01*
X397220D01*
X399760Y452000D01*
X397220Y449460D01*
X399760D01*
X402300Y446920D01*
Y346920D02*
X404840Y349460D01*
X407380D01*
X404840Y352000D01*
X407380Y354540D01*
X404840D01*
X402300Y357080D01*
X399760Y354540D01*
X397220D01*
X399760Y352000D01*
X397220Y349460D01*
X399760D01*
X402300Y346920D01*
X427300Y296920D02*
X429840Y299460D01*
X432380D01*
X429840Y302000D01*
X432380Y304540D01*
X429840D01*
X427300Y307080D01*
X424760Y304540D01*
X422220D01*
X424760Y302000D01*
X422220Y299460D01*
X424760D01*
X427300Y296920D01*
X402300Y146920D02*
X404840Y149460D01*
X407380D01*
X404840Y152000D01*
X407380Y154540D01*
X404840D01*
X402300Y157080D01*
X399760Y154540D01*
X397220D01*
X399760Y152000D01*
X397220Y149460D01*
X399760D01*
X402300Y146920D01*
X427300Y96920D02*
X429840Y99460D01*
X432380D01*
X429840Y102000D01*
X432380Y104540D01*
X429840D01*
X427300Y107080D01*
X424760Y104540D01*
X422220D01*
X424760Y102000D01*
X422220Y99460D01*
X424760D01*
X427300Y96920D01*
X402300Y46920D02*
X404840Y49460D01*
X407380D01*
X404840Y52000D01*
X407380Y54540D01*
X404840D01*
X402300Y57080D01*
X399760Y54540D01*
X397220D01*
X399760Y52000D01*
X397220Y49460D01*
X399760D01*
X402300Y46920D01*
X352300Y446920D02*
X354840Y449460D01*
X357380D01*
X354840Y452000D01*
X357380Y454540D01*
X354840D01*
X352300Y457080D01*
X349760Y454540D01*
X347220D01*
X349760Y452000D01*
X347220Y449460D01*
X349760D01*
X352300Y446920D01*
X377300Y396920D02*
X379840Y399460D01*
X382380D01*
X379840Y402000D01*
X382380Y404540D01*
X379840D01*
X377300Y407080D01*
X374760Y404540D01*
X372220D01*
X374760Y402000D01*
X372220Y399460D01*
X374760D01*
X377300Y396920D01*
Y196920D02*
X379840Y199460D01*
X382380D01*
X379840Y202000D01*
X382380Y204540D01*
X379840D01*
X377300Y207080D01*
X374760Y204540D01*
X372220D01*
X374760Y202000D01*
X372220Y199460D01*
X374760D01*
X377300Y196920D01*
X352300Y146920D02*
X354840Y149460D01*
X357380D01*
X354840Y152000D01*
X357380Y154540D01*
X354840D01*
X352300Y157080D01*
X349760Y154540D01*
X347220D01*
X349760Y152000D01*
X347220Y149460D01*
X349760D01*
X352300Y146920D01*
Y46920D02*
X354840Y49460D01*
X357380D01*
X354840Y52000D01*
X357380Y54540D01*
X354840D01*
X352300Y57080D01*
X349760Y54540D01*
X347220D01*
X349760Y52000D01*
X347220Y49460D01*
X349760D01*
X352300Y46920D01*
X302300Y446920D02*
X304840Y449460D01*
X307380D01*
X304840Y452000D01*
X307380Y454540D01*
X304840D01*
X302300Y457080D01*
X299760Y454540D01*
X297220D01*
X299760Y452000D01*
X297220Y449460D01*
X299760D01*
X302300Y446920D01*
Y246920D02*
X304840Y249460D01*
X307380D01*
X304840Y252000D01*
X307380Y254540D01*
X304840D01*
X302300Y257080D01*
X299760Y254540D01*
X297220D01*
X299760Y252000D01*
X297220Y249460D01*
X299760D01*
X302300Y246920D01*
X327300Y196920D02*
X329840Y199460D01*
X332380D01*
X329840Y202000D01*
X332380Y204540D01*
X329840D01*
X327300Y207080D01*
X324760Y204540D01*
X322220D01*
X324760Y202000D01*
X322220Y199460D01*
X324760D01*
X327300Y196920D01*
X302300Y146920D02*
X304840Y149460D01*
X307380D01*
X304840Y152000D01*
X307380Y154540D01*
X304840D01*
X302300Y157080D01*
X299760Y154540D01*
X297220D01*
X299760Y152000D01*
X297220Y149460D01*
X299760D01*
X302300Y146920D01*
X327300Y96920D02*
X329840Y99460D01*
X332380D01*
X329840Y102000D01*
X332380Y104540D01*
X329840D01*
X327300Y107080D01*
X324760Y104540D01*
X322220D01*
X324760Y102000D01*
X322220Y99460D01*
X324760D01*
X327300Y96920D01*
X302300Y46920D02*
X304840Y49460D01*
X307380D01*
X304840Y52000D01*
X307380Y54540D01*
X304840D01*
X302300Y57080D01*
X299760Y54540D01*
X297220D01*
X299760Y52000D01*
X297220Y49460D01*
X299760D01*
X302300Y46920D01*
X252300Y446920D02*
X254840Y449460D01*
X257380D01*
X254840Y452000D01*
X257380Y454540D01*
X254840D01*
X252300Y457080D01*
X249760Y454540D01*
X247220D01*
X249760Y452000D01*
X247220Y449460D01*
X249760D01*
X252300Y446920D01*
Y46920D02*
X254840Y49460D01*
X257380D01*
X254840Y52000D01*
X257380Y54540D01*
X254840D01*
X252300Y57080D01*
X249760Y54540D01*
X247220D01*
X249760Y52000D01*
X247220Y49460D01*
X249760D01*
X252300Y46920D01*
X227300Y396920D02*
X229840Y399460D01*
X232380D01*
X229840Y402000D01*
X232380Y404540D01*
X229840D01*
X227300Y407080D01*
X224760Y404540D01*
X222220D01*
X224760Y402000D01*
X222220Y399460D01*
X224760D01*
X227300Y396920D01*
X202300Y346920D02*
X204840Y349460D01*
X207380D01*
X204840Y352000D01*
X207380Y354540D01*
X204840D01*
X202300Y357080D01*
X199760Y354540D01*
X197220D01*
X199760Y352000D01*
X197220Y349460D01*
X199760D01*
X202300Y346920D01*
X227300Y96920D02*
X229840Y99460D01*
X232380D01*
X229840Y102000D01*
X232380Y104540D01*
X229840D01*
X227300Y107080D01*
X224760Y104540D01*
X222220D01*
X224760Y102000D01*
X222220Y99460D01*
X224760D01*
X227300Y96920D01*
X202300Y46920D02*
X204840Y49460D01*
X207380D01*
X204840Y52000D01*
X207380Y54540D01*
X204840D01*
X202300Y57080D01*
X199760Y54540D01*
X197220D01*
X199760Y52000D01*
X197220Y49460D01*
X199760D01*
X202300Y46920D01*
X152300Y446920D02*
X154840Y449460D01*
X157380D01*
X154840Y452000D01*
X157380Y454540D01*
X154840D01*
X152300Y457080D01*
X149760Y454540D01*
X147220D01*
X149760Y452000D01*
X147220Y449460D01*
X149760D01*
X152300Y446920D01*
Y146920D02*
X154840Y149460D01*
X157380D01*
X154840Y152000D01*
X157380Y154540D01*
X154840D01*
X152300Y157080D01*
X149760Y154540D01*
X147220D01*
X149760Y152000D01*
X147220Y149460D01*
X149760D01*
X152300Y146920D01*
X177300Y96920D02*
X179840Y99460D01*
X182380D01*
X179840Y102000D01*
X182380Y104540D01*
X179840D01*
X177300Y107080D01*
X174760Y104540D01*
X172220D01*
X174760Y102000D01*
X172220Y99460D01*
X174760D01*
X177300Y96920D01*
X152300Y46920D02*
X154840Y49460D01*
X157380D01*
X154840Y52000D01*
X157380Y54540D01*
X154840D01*
X152300Y57080D01*
X149760Y54540D01*
X147220D01*
X149760Y52000D01*
X147220Y49460D01*
X149760D01*
X152300Y46920D01*
X127300Y196920D02*
X129840Y199460D01*
X132380D01*
X129840Y202000D01*
X132380Y204540D01*
X129840D01*
X127300Y207080D01*
X124760Y204540D01*
X122220D01*
X124760Y202000D01*
X122220Y199460D01*
X124760D01*
X127300Y196920D01*
X102300Y46920D02*
X104840Y49460D01*
X107380D01*
X104840Y52000D01*
X107380Y54540D01*
X104840D01*
X102300Y57080D01*
X99760Y54540D01*
X97220D01*
X99760Y52000D01*
X97220Y49460D01*
X99760D01*
X102300Y46920D01*
X52300Y446920D02*
X54840Y449460D01*
X57380D01*
X54840Y452000D01*
X57380Y454540D01*
X54840D01*
X52300Y457080D01*
X49760Y454540D01*
X47220D01*
X49760Y452000D01*
X47220Y449460D01*
X49760D01*
X52300Y446920D01*
X77300Y396920D02*
X79840Y399460D01*
X82380D01*
X79840Y402000D01*
X82380Y404540D01*
X79840D01*
X77300Y407080D01*
X74760Y404540D01*
X72220D01*
X74760Y402000D01*
X72220Y399460D01*
X74760D01*
X77300Y396920D01*
Y196920D02*
X79840Y199460D01*
X82380D01*
X79840Y202000D01*
X82380Y204540D01*
X79840D01*
X77300Y207080D01*
X74760Y204540D01*
X72220D01*
X74760Y202000D01*
X72220Y199460D01*
X74760D01*
X77300Y196920D01*
Y96920D02*
X79840Y99460D01*
X82380D01*
X79840Y102000D01*
X82380Y104540D01*
X79840D01*
X77300Y107080D01*
X74760Y104540D01*
X72220D01*
X74760Y102000D01*
X72220Y99460D01*
X74760D01*
X77300Y96920D01*
X52300Y46920D02*
X54840Y49460D01*
X57380D01*
X54840Y52000D01*
X57380Y54540D01*
X54840D01*
X52300Y57080D01*
X49760Y54540D01*
X47220D01*
X49760Y52000D01*
X47220Y49460D01*
X49760D01*
X52300Y46920D01*
X466320Y223556D02*
X468860Y226096D01*
X471400D01*
X468860Y228636D01*
X471400Y231176D01*
X468860D01*
X466320Y233716D01*
X463780Y231176D01*
X461240D01*
X463780Y228636D01*
X461240Y226096D01*
X463780D01*
X466320Y223556D01*
X487000Y195420D02*
X489540Y197960D01*
X492080D01*
X489540Y200500D01*
X492080Y203040D01*
X489540D01*
X487000Y205580D01*
X484460Y203040D01*
X481920D01*
X484460Y200500D01*
X481920Y197960D01*
X484460D01*
X487000Y195420D01*
X448156Y187920D02*
X450696Y190460D01*
X453236D01*
X450696Y193000D01*
X453236Y195540D01*
X450696D01*
X448156Y198080D01*
X445616Y195540D01*
X443076D01*
X445616Y193000D01*
X443076Y190460D01*
X445616D01*
X448156Y187920D01*
X148500Y286920D02*
X151040Y289460D01*
X153580D01*
X151040Y292000D01*
X153580Y294540D01*
X151040D01*
X148500Y297080D01*
X145960Y294540D01*
X143420D01*
X145960Y292000D01*
X143420Y289460D01*
X145960D01*
X148500Y286920D01*
X136500Y254920D02*
X139040Y257460D01*
X141580D01*
X139040Y260000D01*
X141580Y262540D01*
X139040D01*
X136500Y265080D01*
X133960Y262540D01*
X131420D01*
X133960Y260000D01*
X131420Y257460D01*
X133960D01*
X136500Y254920D01*
X425000Y327920D02*
X427540Y330460D01*
X430080D01*
X427540Y333000D01*
X430080Y335540D01*
X427540D01*
X425000Y338080D01*
X422460Y335540D01*
X419920D01*
X422460Y333000D01*
X419920Y330460D01*
X422460D01*
X425000Y327920D01*
X198000Y29420D02*
X200540Y31960D01*
X203080D01*
X200540Y34500D01*
X203080Y37040D01*
X200540D01*
X198000Y39580D01*
X195460Y37040D01*
X192920D01*
X195460Y34500D01*
X192920Y31960D01*
X195460D01*
X198000Y29420D01*
X189500D02*
X192040Y31960D01*
X194580D01*
X192040Y34500D01*
X194580Y37040D01*
X192040D01*
X189500Y39580D01*
X186960Y37040D01*
X184420D01*
X186960Y34500D01*
X184420Y31960D01*
X186960D01*
X189500Y29420D01*
X162000Y234420D02*
X164540Y236960D01*
X167080D01*
X164540Y239500D01*
X167080Y242040D01*
X164540D01*
X162000Y244580D01*
X159460Y242040D01*
X156920D01*
X159460Y239500D01*
X156920Y236960D01*
X159460D01*
X162000Y234420D01*
X168000Y190420D02*
X170540Y192960D01*
X173080D01*
X170540Y195500D01*
X173080Y198040D01*
X170540D01*
X168000Y200580D01*
X165460Y198040D01*
X162920D01*
X165460Y195500D01*
X162920Y192960D01*
X165460D01*
X168000Y190420D01*
X49025Y188395D02*
X51565Y190935D01*
X54105D01*
X51565Y193475D01*
X54105Y196015D01*
X51565D01*
X49025Y198555D01*
X46485Y196015D01*
X43945D01*
X46485Y193475D01*
X43945Y190935D01*
X46485D01*
X49025Y188395D01*
X231000Y416920D02*
X233540Y419460D01*
X236080D01*
X233540Y422000D01*
X236080Y424540D01*
X233540D01*
X231000Y427080D01*
X228460Y424540D01*
X225920D01*
X228460Y422000D01*
X225920Y419460D01*
X228460D01*
X231000Y416920D01*
X224364Y417038D02*
X226904Y419578D01*
X229444D01*
X226904Y422118D01*
X229444Y424658D01*
X226904D01*
X224364Y427198D01*
X221824Y424658D01*
X219284D01*
X221824Y422118D01*
X219284Y419578D01*
X221824D01*
X224364Y417038D01*
X217864D02*
X220404Y419578D01*
X222944D01*
X220404Y422118D01*
X222944Y424658D01*
X220404D01*
X217864Y427198D01*
X215324Y424658D01*
X212784D01*
X215324Y422118D01*
X212784Y419578D01*
X215324D01*
X217864Y417038D01*
X220759Y217386D02*
X223299Y219926D01*
X225839D01*
X223299Y222466D01*
X225839Y225006D01*
X223299D01*
X220759Y227546D01*
X218219Y225006D01*
X215679D01*
X218219Y222466D01*
X215679Y219926D01*
X218219D01*
X220759Y217386D01*
X221259Y196886D02*
X223799Y199426D01*
X226339D01*
X223799Y201966D01*
X226339Y204506D01*
X223799D01*
X221259Y207046D01*
X218719Y204506D01*
X216179D01*
X218719Y201966D01*
X216179Y199426D01*
X218719D01*
X221259Y196886D01*
X221009Y207886D02*
X223549Y210426D01*
X226089D01*
X223549Y212966D01*
X226089Y215506D01*
X223549D01*
X221009Y218046D01*
X218469Y215506D01*
X215929D01*
X218469Y212966D01*
X215929Y210426D01*
X218469D01*
X221009Y207886D01*
X212500Y217420D02*
X215040Y219960D01*
X217580D01*
X215040Y222500D01*
X217580Y225040D01*
X215040D01*
X212500Y227580D01*
X209960Y225040D01*
X207420D01*
X209960Y222500D01*
X207420Y219960D01*
X209960D01*
X212500Y217420D01*
Y207920D02*
X215040Y210460D01*
X217580D01*
X215040Y213000D01*
X217580Y215540D01*
X215040D01*
X212500Y218080D01*
X209960Y215540D01*
X207420D01*
X209960Y213000D01*
X207420Y210460D01*
X209960D01*
X212500Y207920D01*
Y197420D02*
X215040Y199960D01*
X217580D01*
X215040Y202500D01*
X217580Y205040D01*
X215040D01*
X212500Y207580D01*
X209960Y205040D01*
X207420D01*
X209960Y202500D01*
X207420Y199960D01*
X209960D01*
X212500Y197420D01*
X230000D02*
X232540Y199960D01*
X235080D01*
X232540Y202500D01*
X235080Y205040D01*
X232540D01*
X230000Y207580D01*
X227460Y205040D01*
X224920D01*
X227460Y202500D01*
X224920Y199960D01*
X227460D01*
X230000Y197420D01*
Y207420D02*
X232540Y209960D01*
X235080D01*
X232540Y212500D01*
X235080Y215040D01*
X232540D01*
X230000Y217580D01*
X227460Y215040D01*
X224920D01*
X227460Y212500D01*
X224920Y209960D01*
X227460D01*
X230000Y207420D01*
Y217420D02*
X232540Y219960D01*
X235080D01*
X232540Y222500D01*
X235080Y225040D01*
X232540D01*
X230000Y227580D01*
X227460Y225040D01*
X224920D01*
X227460Y222500D01*
X224920Y219960D01*
X227460D01*
X230000Y217420D01*
X454500Y181920D02*
X457040Y184460D01*
X459580D01*
X457040Y187000D01*
X459580Y189540D01*
X457040D01*
X454500Y192080D01*
X451960Y189540D01*
X449420D01*
X451960Y187000D01*
X449420Y184460D01*
X451960D01*
X454500Y181920D01*
X448016Y181882D02*
X450556Y184422D01*
X453096D01*
X450556Y186962D01*
X453096Y189502D01*
X450556D01*
X448016Y192042D01*
X445476Y189502D01*
X442936D01*
X445476Y186962D01*
X442936Y184422D01*
X445476D01*
X448016Y181882D01*
X454525Y187807D02*
X457065Y190347D01*
X459605D01*
X457065Y192887D01*
X459605Y195427D01*
X457065D01*
X454525Y197967D01*
X451985Y195427D01*
X449445D01*
X451985Y192887D01*
X449445Y190347D01*
X451985D01*
X454525Y187807D01*
X173204Y429830D02*
X175744Y432370D01*
X178284D01*
X175744Y434910D01*
X178284Y437450D01*
X175744D01*
X173204Y439990D01*
X170664Y437450D01*
X168124D01*
X170664Y434910D01*
X168124Y432370D01*
X170664D01*
X173204Y429830D01*
X164204D02*
X166744Y432370D01*
X169284D01*
X166744Y434910D01*
X169284Y437450D01*
X166744D01*
X164204Y439990D01*
X161664Y437450D01*
X159124D01*
X161664Y434910D01*
X159124Y432370D01*
X161664D01*
X164204Y429830D01*
X169000Y424920D02*
X171540Y427460D01*
X174080D01*
X171540Y430000D01*
X174080Y432540D01*
X171540D01*
X169000Y435080D01*
X166460Y432540D01*
X163920D01*
X166460Y430000D01*
X163920Y427460D01*
X166460D01*
X169000Y424920D01*
X534500Y368420D02*
X537040Y370960D01*
X539580D01*
X537040Y373500D01*
X539580Y376040D01*
X537040D01*
X534500Y378580D01*
X531960Y376040D01*
X529420D01*
X531960Y373500D01*
X529420Y370960D01*
X531960D01*
X534500Y368420D01*
X320000Y358420D02*
X322540Y360960D01*
X325080D01*
X322540Y363500D01*
X325080Y366040D01*
X322540D01*
X320000Y368580D01*
X317460Y366040D01*
X314920D01*
X317460Y363500D01*
X314920Y360960D01*
X317460D01*
X320000Y358420D01*
X319905Y336935D02*
X322445Y339475D01*
X324985D01*
X322445Y342015D01*
X324985Y344555D01*
X322445D01*
X319905Y347095D01*
X317365Y344555D01*
X314825D01*
X317365Y342015D01*
X314825Y339475D01*
X317365D01*
X319905Y336935D01*
X139000Y331420D02*
X141540Y333960D01*
X144080D01*
X141540Y336500D01*
X144080Y339040D01*
X141540D01*
X139000Y341580D01*
X136460Y339040D01*
X133920D01*
X136460Y336500D01*
X133920Y333960D01*
X136460D01*
X139000Y331420D01*
X131000D02*
X133540Y333960D01*
X136080D01*
X133540Y336500D01*
X136080Y339040D01*
X133540D01*
X131000Y341580D01*
X128460Y339040D01*
X125920D01*
X128460Y336500D01*
X125920Y333960D01*
X128460D01*
X131000Y331420D01*
X121500D02*
X124040Y333960D01*
X126580D01*
X124040Y336500D01*
X126580Y339040D01*
X124040D01*
X121500Y341580D01*
X118960Y339040D01*
X116420D01*
X118960Y336500D01*
X116420Y333960D01*
X118960D01*
X121500Y331420D01*
Y323920D02*
X124040Y326460D01*
X126580D01*
X124040Y329000D01*
X126580Y331540D01*
X124040D01*
X121500Y334080D01*
X118960Y331540D01*
X116420D01*
X118960Y329000D01*
X116420Y326460D01*
X118960D01*
X121500Y323920D01*
X131000Y323920D02*
X133540Y326460D01*
X136080D01*
X133540Y329000D01*
X136080Y331540D01*
X133540D01*
X131000Y334080D01*
X128460Y331540D01*
X125920D01*
X128460Y329000D01*
X125920Y326460D01*
X128460D01*
X131000Y323920D01*
X139000D02*
X141540Y326460D01*
X144080D01*
X141540Y329000D01*
X144080Y331540D01*
X141540D01*
X139000Y334080D01*
X136460Y331540D01*
X133920D01*
X136460Y329000D01*
X133920Y326460D01*
X136460D01*
X139000Y323920D01*
X121500Y316420D02*
X124040Y318960D01*
X126580D01*
X124040Y321500D01*
X126580Y324040D01*
X124040D01*
X121500Y326580D01*
X118960Y324040D01*
X116420D01*
X118960Y321500D01*
X116420Y318960D01*
X118960D01*
X121500Y316420D01*
X131000Y316420D02*
X133540Y318960D01*
X136080D01*
X133540Y321500D01*
X136080Y324040D01*
X133540D01*
X131000Y326580D01*
X128460Y324040D01*
X125920D01*
X128460Y321500D01*
X125920Y318960D01*
X128460D01*
X131000Y316420D01*
X139000D02*
X141540Y318960D01*
X144080D01*
X141540Y321500D01*
X144080Y324040D01*
X141540D01*
X139000Y326580D01*
X136460Y324040D01*
X133920D01*
X136460Y321500D01*
X133920Y318960D01*
X136460D01*
X139000Y316420D01*
X501216Y240420D02*
X503756Y242960D01*
X506296D01*
X503756Y245500D01*
X506296Y248040D01*
X503756D01*
X501216Y250580D01*
X498676Y248040D01*
X496136D01*
X498676Y245500D01*
X496136Y242960D01*
X498676D01*
X501216Y240420D01*
X508994Y248198D02*
X511534Y250738D01*
X514074D01*
X511534Y253278D01*
X514074Y255818D01*
X511534D01*
X508994Y258358D01*
X506454Y255818D01*
X503914D01*
X506454Y253278D01*
X503914Y250738D01*
X506454D01*
X508994Y248198D01*
X516772Y255976D02*
X519312Y258516D01*
X521852D01*
X519312Y261056D01*
X521852Y263596D01*
X519312D01*
X516772Y266136D01*
X514232Y263596D01*
X511692D01*
X514232Y261056D01*
X511692Y258516D01*
X514232D01*
X516772Y255976D01*
X524550Y263755D02*
X527090Y266294D01*
X529630D01*
X527090Y268834D01*
X529630Y271374D01*
X527090D01*
X524550Y273915D01*
X522010Y271374D01*
X519470D01*
X522010Y268834D01*
X519470Y266294D01*
X522010D01*
X524550Y263755D01*
X508994Y232642D02*
X511534Y235182D01*
X514074D01*
X511534Y237722D01*
X514074Y240262D01*
X511534D01*
X508994Y242802D01*
X506454Y240262D01*
X503914D01*
X506454Y237722D01*
X503914Y235182D01*
X506454D01*
X508994Y232642D01*
X516772Y240420D02*
X519312Y242960D01*
X521852D01*
X519312Y245500D01*
X521852Y248040D01*
X519312D01*
X516772Y250580D01*
X514232Y248040D01*
X511692D01*
X514232Y245500D01*
X511692Y242960D01*
X514232D01*
X516772Y240420D01*
X524550Y248198D02*
X527090Y250738D01*
X529630D01*
X527090Y253278D01*
X529630Y255818D01*
X527090D01*
X524550Y258358D01*
X522010Y255818D01*
X519470D01*
X522010Y253278D01*
X519470Y250738D01*
X522010D01*
X524550Y248198D01*
X532328Y255976D02*
X534868Y258516D01*
X537408D01*
X534868Y261056D01*
X537408Y263596D01*
X534868D01*
X532328Y266136D01*
X529788Y263596D01*
X527248D01*
X529788Y261056D01*
X527248Y258516D01*
X529788D01*
X532328Y255976D01*
X516772Y224864D02*
X519312Y227404D01*
X521852D01*
X519312Y229944D01*
X521852Y232484D01*
X519312D01*
X516772Y235024D01*
X514232Y232484D01*
X511692D01*
X514232Y229944D01*
X511692Y227404D01*
X514232D01*
X516772Y224864D01*
X524550Y232642D02*
X527090Y235182D01*
X529630D01*
X527090Y237722D01*
X529630Y240262D01*
X527090D01*
X524550Y242802D01*
X522010Y240262D01*
X519470D01*
X522010Y237722D01*
X519470Y235182D01*
X522010D01*
X524550Y232642D01*
X532328Y240420D02*
X534868Y242960D01*
X537408D01*
X534868Y245500D01*
X537408Y248040D01*
X534868D01*
X532328Y250580D01*
X529788Y248040D01*
X527248D01*
X529788Y245500D01*
X527248Y242960D01*
X529788D01*
X532328Y240420D01*
X540107Y248198D02*
X542647Y250738D01*
X545187D01*
X542647Y253278D01*
X545187Y255818D01*
X542647D01*
X540107Y258358D01*
X537567Y255818D01*
X535027D01*
X537567Y253278D01*
X535027Y250738D01*
X537567D01*
X540107Y248198D01*
X524550Y217085D02*
X527090Y219625D01*
X529630D01*
X527090Y222166D01*
X529630Y224706D01*
X527090D01*
X524550Y227246D01*
X522010Y224706D01*
X519470D01*
X522010Y222166D01*
X519470Y219625D01*
X522010D01*
X524550Y217085D01*
X532328Y224864D02*
X534868Y227404D01*
X537408D01*
X534868Y229944D01*
X537408Y232484D01*
X534868D01*
X532328Y235024D01*
X529788Y232484D01*
X527248D01*
X529788Y229944D01*
X527248Y227404D01*
X529788D01*
X532328Y224864D01*
X540107Y232642D02*
X542647Y235182D01*
X545187D01*
X542647Y237722D01*
X545187Y240262D01*
X542647D01*
X540107Y242802D01*
X537567Y240262D01*
X535027D01*
X537567Y237722D01*
X535027Y235182D01*
X537567D01*
X540107Y232642D01*
X547885Y240420D02*
X550425Y242960D01*
X552965D01*
X550425Y245500D01*
X552965Y248040D01*
X550425D01*
X547885Y250580D01*
X545345Y248040D01*
X542805D01*
X545345Y245500D01*
X542805Y242960D01*
X545345D01*
X547885Y240420D01*
X184000Y285920D02*
X186540Y288460D01*
X189080D01*
X186540Y291000D01*
X189080Y293540D01*
X186540D01*
X184000Y296080D01*
X181460Y293540D01*
X178920D01*
X181460Y291000D01*
X178920Y288460D01*
X181460D01*
X184000Y285920D01*
X198000Y281920D02*
X200540Y284460D01*
X203080D01*
X200540Y287000D01*
X203080Y289540D01*
X200540D01*
X198000Y292080D01*
X195460Y289540D01*
X192920D01*
X195460Y287000D01*
X192920Y284460D01*
X195460D01*
X198000Y281920D01*
X207500D02*
X210040Y284460D01*
X212580D01*
X210040Y287000D01*
X212580Y289540D01*
X210040D01*
X207500Y292080D01*
X204960Y289540D01*
X202420D01*
X204960Y287000D01*
X202420Y284460D01*
X204960D01*
X207500Y281920D01*
X255847Y275374D02*
X258386Y277914D01*
X260926D01*
X258386Y280454D01*
X260926Y282994D01*
X258386D01*
X255847Y285534D01*
X253307Y282994D01*
X250767D01*
X253307Y280454D01*
X250767Y277914D01*
X253307D01*
X255847Y275374D01*
X266847D02*
X269387Y277914D01*
X271926D01*
X269387Y280454D01*
X271926Y282994D01*
X269387D01*
X266847Y285534D01*
X264307Y282994D01*
X261766D01*
X264307Y280454D01*
X261766Y277914D01*
X264307D01*
X266847Y275374D01*
X276346Y270874D02*
X278887Y273414D01*
X281427D01*
X278887Y275954D01*
X281427Y278494D01*
X278887D01*
X276346Y281034D01*
X273806Y278494D01*
X271266D01*
X273806Y275954D01*
X271266Y273414D01*
X273806D01*
X276346Y270874D01*
X278846Y262374D02*
X281387Y264914D01*
X283927D01*
X281387Y267454D01*
X283927Y269994D01*
X281387D01*
X278846Y272534D01*
X276306Y269994D01*
X273766D01*
X276306Y267454D01*
X273766Y264914D01*
X276306D01*
X278846Y262374D01*
X738000Y260420D02*
X740540Y262960D01*
X743080D01*
X740540Y265500D01*
X743080Y268040D01*
X740540D01*
X738000Y270580D01*
X735460Y268040D01*
X732920D01*
X735460Y265500D01*
X732920Y262960D01*
X735460D01*
X738000Y260420D01*
X753000D02*
X755540Y262960D01*
X758080D01*
X755540Y265500D01*
X758080Y268040D01*
X755540D01*
X753000Y270580D01*
X750460Y268040D01*
X747920D01*
X750460Y265500D01*
X747920Y262960D01*
X750460D01*
X753000Y260420D01*
X888000D02*
X890540Y262960D01*
X893080D01*
X890540Y265500D01*
X893080Y268040D01*
X890540D01*
X888000Y270580D01*
X885460Y268040D01*
X882920D01*
X885460Y265500D01*
X882920Y262960D01*
X885460D01*
X888000Y260420D01*
X663000D02*
X665540Y262960D01*
X668080D01*
X665540Y265500D01*
X668080Y268040D01*
X665540D01*
X663000Y270580D01*
X660460Y268040D01*
X657920D01*
X660460Y265500D01*
X657920Y262960D01*
X660460D01*
X663000Y260420D01*
X918000D02*
X920540Y262960D01*
X923080D01*
X920540Y265500D01*
X923080Y268040D01*
X920540D01*
X918000Y270580D01*
X915460Y268040D01*
X912920D01*
X915460Y265500D01*
X912920Y262960D01*
X915460D01*
X918000Y260420D01*
X648000D02*
X650540Y262960D01*
X653080D01*
X650540Y265500D01*
X653080Y268040D01*
X650540D01*
X648000Y270580D01*
X645460Y268040D01*
X642920D01*
X645460Y265500D01*
X642920Y262960D01*
X645460D01*
X648000Y260420D01*
X903000D02*
X905540Y262960D01*
X908080D01*
X905540Y265500D01*
X908080Y268040D01*
X905540D01*
X903000Y270580D01*
X900460Y268040D01*
X897920D01*
X900460Y265500D01*
X897920Y262960D01*
X900460D01*
X903000Y260420D01*
X768000D02*
X770540Y262960D01*
X773080D01*
X770540Y265500D01*
X773080Y268040D01*
X770540D01*
X768000Y270580D01*
X765460Y268040D01*
X762920D01*
X765460Y265500D01*
X762920Y262960D01*
X765460D01*
X768000Y260420D01*
X678000D02*
X680540Y262960D01*
X683080D01*
X680540Y265500D01*
X683080Y268040D01*
X680540D01*
X678000Y270580D01*
X675460Y268040D01*
X672920D01*
X675460Y265500D01*
X672920Y262960D01*
X675460D01*
X678000Y260420D01*
X828000D02*
X830540Y262960D01*
X833080D01*
X830540Y265500D01*
X833080Y268040D01*
X830540D01*
X828000Y270580D01*
X825460Y268040D01*
X822920D01*
X825460Y265500D01*
X822920Y262960D01*
X825460D01*
X828000Y260420D01*
X783000Y259920D02*
X785540Y262460D01*
X788080D01*
X785540Y265000D01*
X788080Y267540D01*
X785540D01*
X783000Y270080D01*
X780460Y267540D01*
X777920D01*
X780460Y265000D01*
X777920Y262460D01*
X780460D01*
X783000Y259920D01*
X963000D02*
X965540Y262460D01*
X968080D01*
X965540Y265000D01*
X968080Y267540D01*
X965540D01*
X963000Y270080D01*
X960460Y267540D01*
X957920D01*
X960460Y265000D01*
X957920Y262460D01*
X960460D01*
X963000Y259920D01*
X693000D02*
X695540Y262460D01*
X698080D01*
X695540Y265000D01*
X698080Y267540D01*
X695540D01*
X693000Y270080D01*
X690460Y267540D01*
X687920D01*
X690460Y265000D01*
X687920Y262460D01*
X690460D01*
X693000Y259920D01*
X708000D02*
X710540Y262460D01*
X713080D01*
X710540Y265000D01*
X713080Y267540D01*
X710540D01*
X708000Y270080D01*
X705460Y267540D01*
X702920D01*
X705460Y265000D01*
X702920Y262460D01*
X705460D01*
X708000Y259920D01*
X798000D02*
X800540Y262460D01*
X803080D01*
X800540Y265000D01*
X803080Y267540D01*
X800540D01*
X798000Y270080D01*
X795460Y267540D01*
X792920D01*
X795460Y265000D01*
X792920Y262460D01*
X795460D01*
X798000Y259920D01*
X948000D02*
X950540Y262460D01*
X953080D01*
X950540Y265000D01*
X953080Y267540D01*
X950540D01*
X948000Y270080D01*
X945460Y267540D01*
X942920D01*
X945460Y265000D01*
X942920Y262460D01*
X945460D01*
X948000Y259920D01*
X813000D02*
X815540Y262460D01*
X818080D01*
X815540Y265000D01*
X818080Y267540D01*
X815540D01*
X813000Y270080D01*
X810460Y267540D01*
X807920D01*
X810460Y265000D01*
X807920Y262460D01*
X810460D01*
X813000Y259920D01*
X858000D02*
X860540Y262460D01*
X863080D01*
X860540Y265000D01*
X863080Y267540D01*
X860540D01*
X858000Y270080D01*
X855460Y267540D01*
X852920D01*
X855460Y265000D01*
X852920Y262460D01*
X855460D01*
X858000Y259920D01*
X723000D02*
X725540Y262460D01*
X728080D01*
X725540Y265000D01*
X728080Y267540D01*
X725540D01*
X723000Y270080D01*
X720460Y267540D01*
X717920D01*
X720460Y265000D01*
X717920Y262460D01*
X720460D01*
X723000Y259920D01*
X873000D02*
X875540Y262460D01*
X878080D01*
X875540Y265000D01*
X878080Y267540D01*
X875540D01*
X873000Y270080D01*
X870460Y267540D01*
X867920D01*
X870460Y265000D01*
X867920Y262460D01*
X870460D01*
X873000Y259920D01*
X843000D02*
X845540Y262460D01*
X848080D01*
X845540Y265000D01*
X848080Y267540D01*
X845540D01*
X843000Y270080D01*
X840460Y267540D01*
X837920D01*
X840460Y265000D01*
X837920Y262460D01*
X840460D01*
X843000Y259920D01*
X933000D02*
X935540Y262460D01*
X938080D01*
X935540Y265000D01*
X938080Y267540D01*
X935540D01*
X933000Y270080D01*
X930460Y267540D01*
X927920D01*
X930460Y265000D01*
X927920Y262460D01*
X930460D01*
X933000Y259920D01*
X630500Y255920D02*
X633040Y258460D01*
X635580D01*
X633040Y261000D01*
X635580Y263540D01*
X633040D01*
X630500Y266080D01*
X627960Y263540D01*
X625420D01*
X627960Y261000D01*
X625420Y258460D01*
X627960D01*
X630500Y255920D01*
X279347Y252874D02*
X281887Y255414D01*
X284426D01*
X281887Y257954D01*
X284426Y260494D01*
X281887D01*
X279347Y263034D01*
X276807Y260494D01*
X274266D01*
X276807Y257954D01*
X274266Y255414D01*
X276807D01*
X279347Y252874D01*
X738000Y247920D02*
X740540Y250460D01*
X743080D01*
X740540Y253000D01*
X743080Y255540D01*
X740540D01*
X738000Y258080D01*
X735460Y255540D01*
X732920D01*
X735460Y253000D01*
X732920Y250460D01*
X735460D01*
X738000Y247920D01*
X828000D02*
X830540Y250460D01*
X833080D01*
X830540Y253000D01*
X833080Y255540D01*
X830540D01*
X828000Y258080D01*
X825460Y255540D01*
X822920D01*
X825460Y253000D01*
X822920Y250460D01*
X825460D01*
X828000Y247920D01*
X753000D02*
X755540Y250460D01*
X758080D01*
X755540Y253000D01*
X758080Y255540D01*
X755540D01*
X753000Y258080D01*
X750460Y255540D01*
X747920D01*
X750460Y253000D01*
X747920Y250460D01*
X750460D01*
X753000Y247920D01*
X768000D02*
X770540Y250460D01*
X773080D01*
X770540Y253000D01*
X773080Y255540D01*
X770540D01*
X768000Y258080D01*
X765460Y255540D01*
X762920D01*
X765460Y253000D01*
X762920Y250460D01*
X765460D01*
X768000Y247920D01*
X888000D02*
X890540Y250460D01*
X893080D01*
X890540Y253000D01*
X893080Y255540D01*
X890540D01*
X888000Y258080D01*
X885460Y255540D01*
X882920D01*
X885460Y253000D01*
X882920Y250460D01*
X885460D01*
X888000Y247920D01*
X648000D02*
X650540Y250460D01*
X653080D01*
X650540Y253000D01*
X653080Y255540D01*
X650540D01*
X648000Y258080D01*
X645460Y255540D01*
X642920D01*
X645460Y253000D01*
X642920Y250460D01*
X645460D01*
X648000Y247920D01*
X663000D02*
X665540Y250460D01*
X668080D01*
X665540Y253000D01*
X668080Y255540D01*
X665540D01*
X663000Y258080D01*
X660460Y255540D01*
X657920D01*
X660460Y253000D01*
X657920Y250460D01*
X660460D01*
X663000Y247920D01*
X678000D02*
X680540Y250460D01*
X683080D01*
X680540Y253000D01*
X683080Y255540D01*
X680540D01*
X678000Y258080D01*
X675460Y255540D01*
X672920D01*
X675460Y253000D01*
X672920Y250460D01*
X675460D01*
X678000Y247920D01*
X903000D02*
X905540Y250460D01*
X908080D01*
X905540Y253000D01*
X908080Y255540D01*
X905540D01*
X903000Y258080D01*
X900460Y255540D01*
X897920D01*
X900460Y253000D01*
X897920Y250460D01*
X900460D01*
X903000Y247920D01*
X918000D02*
X920540Y250460D01*
X923080D01*
X920540Y253000D01*
X923080Y255540D01*
X920540D01*
X918000Y258080D01*
X915460Y255540D01*
X912920D01*
X915460Y253000D01*
X912920Y250460D01*
X915460D01*
X918000Y247920D01*
X723000Y247420D02*
X725540Y249960D01*
X728080D01*
X725540Y252500D01*
X728080Y255040D01*
X725540D01*
X723000Y257580D01*
X720460Y255040D01*
X717920D01*
X720460Y252500D01*
X717920Y249960D01*
X720460D01*
X723000Y247420D01*
X708000D02*
X710540Y249960D01*
X713080D01*
X710540Y252500D01*
X713080Y255040D01*
X710540D01*
X708000Y257580D01*
X705460Y255040D01*
X702920D01*
X705460Y252500D01*
X702920Y249960D01*
X705460D01*
X708000Y247420D01*
X693000D02*
X695540Y249960D01*
X698080D01*
X695540Y252500D01*
X698080Y255040D01*
X695540D01*
X693000Y257580D01*
X690460Y255040D01*
X687920D01*
X690460Y252500D01*
X687920Y249960D01*
X690460D01*
X693000Y247420D01*
X933000D02*
X935540Y249960D01*
X938080D01*
X935540Y252500D01*
X938080Y255040D01*
X935540D01*
X933000Y257580D01*
X930460Y255040D01*
X927920D01*
X930460Y252500D01*
X927920Y249960D01*
X930460D01*
X933000Y247420D01*
X948000D02*
X950540Y249960D01*
X953080D01*
X950540Y252500D01*
X953080Y255040D01*
X950540D01*
X948000Y257580D01*
X945460Y255040D01*
X942920D01*
X945460Y252500D01*
X942920Y249960D01*
X945460D01*
X948000Y247420D01*
X963000D02*
X965540Y249960D01*
X968080D01*
X965540Y252500D01*
X968080Y255040D01*
X965540D01*
X963000Y257580D01*
X960460Y255040D01*
X957920D01*
X960460Y252500D01*
X957920Y249960D01*
X960460D01*
X963000Y247420D01*
X843000D02*
X845540Y249960D01*
X848080D01*
X845540Y252500D01*
X848080Y255040D01*
X845540D01*
X843000Y257580D01*
X840460Y255040D01*
X837920D01*
X840460Y252500D01*
X837920Y249960D01*
X840460D01*
X843000Y247420D01*
X858000D02*
X860540Y249960D01*
X863080D01*
X860540Y252500D01*
X863080Y255040D01*
X860540D01*
X858000Y257580D01*
X855460Y255040D01*
X852920D01*
X855460Y252500D01*
X852920Y249960D01*
X855460D01*
X858000Y247420D01*
X873000D02*
X875540Y249960D01*
X878080D01*
X875540Y252500D01*
X878080Y255040D01*
X875540D01*
X873000Y257580D01*
X870460Y255040D01*
X867920D01*
X870460Y252500D01*
X867920Y249960D01*
X870460D01*
X873000Y247420D01*
X798000D02*
X800540Y249960D01*
X803080D01*
X800540Y252500D01*
X803080Y255040D01*
X800540D01*
X798000Y257580D01*
X795460Y255040D01*
X792920D01*
X795460Y252500D01*
X792920Y249960D01*
X795460D01*
X798000Y247420D01*
X783000D02*
X785540Y249960D01*
X788080D01*
X785540Y252500D01*
X788080Y255040D01*
X785540D01*
X783000Y257580D01*
X780460Y255040D01*
X777920D01*
X780460Y252500D01*
X777920Y249960D01*
X780460D01*
X783000Y247420D01*
X813000D02*
X815540Y249960D01*
X818080D01*
X815540Y252500D01*
X818080Y255040D01*
X815540D01*
X813000Y257580D01*
X810460Y255040D01*
X807920D01*
X810460Y252500D01*
X807920Y249960D01*
X810460D01*
X813000Y247420D01*
X621500Y246420D02*
X624040Y248960D01*
X626580D01*
X624040Y251500D01*
X626580Y254040D01*
X624040D01*
X621500Y256580D01*
X618960Y254040D01*
X616420D01*
X618960Y251500D01*
X616420Y248960D01*
X618960D01*
X621500Y246420D01*
X279846Y243874D02*
X282386Y246414D01*
X284926D01*
X282386Y248954D01*
X284926Y251494D01*
X282386D01*
X279846Y254034D01*
X277306Y251494D01*
X274767D01*
X277306Y248954D01*
X274767Y246414D01*
X277306D01*
X279846Y243874D01*
X104750Y241670D02*
X107290Y244210D01*
X109830D01*
X107290Y246750D01*
X109830Y249290D01*
X107290D01*
X104750Y251830D01*
X102210Y249290D01*
X99670D01*
X102210Y246750D01*
X99670Y244210D01*
X102210D01*
X104750Y241670D01*
X613000Y238420D02*
X615540Y240960D01*
X618080D01*
X615540Y243500D01*
X618080Y246040D01*
X615540D01*
X613000Y248580D01*
X610460Y246040D01*
X607920D01*
X610460Y243500D01*
X607920Y240960D01*
X610460D01*
X613000Y238420D01*
X828000Y237920D02*
X830540Y240460D01*
X833080D01*
X830540Y243000D01*
X833080Y245540D01*
X830540D01*
X828000Y248080D01*
X825460Y245540D01*
X822920D01*
X825460Y243000D01*
X822920Y240460D01*
X825460D01*
X828000Y237920D01*
X632500D02*
X635040Y240460D01*
X637580D01*
X635040Y243000D01*
X637580Y245540D01*
X635040D01*
X632500Y248080D01*
X629960Y245540D01*
X627420D01*
X629960Y243000D01*
X627420Y240460D01*
X629960D01*
X632500Y237920D01*
X918000D02*
X920540Y240460D01*
X923080D01*
X920540Y243000D01*
X923080Y245540D01*
X920540D01*
X918000Y248080D01*
X915460Y245540D01*
X912920D01*
X915460Y243000D01*
X912920Y240460D01*
X915460D01*
X918000Y237920D01*
X678000D02*
X680540Y240460D01*
X683080D01*
X680540Y243000D01*
X683080Y245540D01*
X680540D01*
X678000Y248080D01*
X675460Y245540D01*
X672920D01*
X675460Y243000D01*
X672920Y240460D01*
X675460D01*
X678000Y237920D01*
X888000D02*
X890540Y240460D01*
X893080D01*
X890540Y243000D01*
X893080Y245540D01*
X890540D01*
X888000Y248080D01*
X885460Y245540D01*
X882920D01*
X885460Y243000D01*
X882920Y240460D01*
X885460D01*
X888000Y237920D01*
X903000D02*
X905540Y240460D01*
X908080D01*
X905540Y243000D01*
X908080Y245540D01*
X905540D01*
X903000Y248080D01*
X900460Y245540D01*
X897920D01*
X900460Y243000D01*
X897920Y240460D01*
X900460D01*
X903000Y237920D01*
X738000D02*
X740540Y240460D01*
X743080D01*
X740540Y243000D01*
X743080Y245540D01*
X740540D01*
X738000Y248080D01*
X735460Y245540D01*
X732920D01*
X735460Y243000D01*
X732920Y240460D01*
X735460D01*
X738000Y237920D01*
X663000D02*
X665540Y240460D01*
X668080D01*
X665540Y243000D01*
X668080Y245540D01*
X665540D01*
X663000Y248080D01*
X660460Y245540D01*
X657920D01*
X660460Y243000D01*
X657920Y240460D01*
X660460D01*
X663000Y237920D01*
X753000D02*
X755540Y240460D01*
X758080D01*
X755540Y243000D01*
X758080Y245540D01*
X755540D01*
X753000Y248080D01*
X750460Y245540D01*
X747920D01*
X750460Y243000D01*
X747920Y240460D01*
X750460D01*
X753000Y237920D01*
X648000D02*
X650540Y240460D01*
X653080D01*
X650540Y243000D01*
X653080Y245540D01*
X650540D01*
X648000Y248080D01*
X645460Y245540D01*
X642920D01*
X645460Y243000D01*
X642920Y240460D01*
X645460D01*
X648000Y237920D01*
X768000D02*
X770540Y240460D01*
X773080D01*
X770540Y243000D01*
X773080Y245540D01*
X770540D01*
X768000Y248080D01*
X765460Y245540D01*
X762920D01*
X765460Y243000D01*
X762920Y240460D01*
X765460D01*
X768000Y237920D01*
X723000Y237420D02*
X725540Y239960D01*
X728080D01*
X725540Y242500D01*
X728080Y245040D01*
X725540D01*
X723000Y247580D01*
X720460Y245040D01*
X717920D01*
X720460Y242500D01*
X717920Y239960D01*
X720460D01*
X723000Y237420D01*
X948000D02*
X950540Y239960D01*
X953080D01*
X950540Y242500D01*
X953080Y245040D01*
X950540D01*
X948000Y247580D01*
X945460Y245040D01*
X942920D01*
X945460Y242500D01*
X942920Y239960D01*
X945460D01*
X948000Y237420D01*
X933000D02*
X935540Y239960D01*
X938080D01*
X935540Y242500D01*
X938080Y245040D01*
X935540D01*
X933000Y247580D01*
X930460Y245040D01*
X927920D01*
X930460Y242500D01*
X927920Y239960D01*
X930460D01*
X933000Y237420D01*
X843000D02*
X845540Y239960D01*
X848080D01*
X845540Y242500D01*
X848080Y245040D01*
X845540D01*
X843000Y247580D01*
X840460Y245040D01*
X837920D01*
X840460Y242500D01*
X837920Y239960D01*
X840460D01*
X843000Y237420D01*
X798000D02*
X800540Y239960D01*
X803080D01*
X800540Y242500D01*
X803080Y245040D01*
X800540D01*
X798000Y247580D01*
X795460Y245040D01*
X792920D01*
X795460Y242500D01*
X792920Y239960D01*
X795460D01*
X798000Y237420D01*
X783000D02*
X785540Y239960D01*
X788080D01*
X785540Y242500D01*
X788080Y245040D01*
X785540D01*
X783000Y247580D01*
X780460Y245040D01*
X777920D01*
X780460Y242500D01*
X777920Y239960D01*
X780460D01*
X783000Y237420D01*
X813000D02*
X815540Y239960D01*
X818080D01*
X815540Y242500D01*
X818080Y245040D01*
X815540D01*
X813000Y247580D01*
X810460Y245040D01*
X807920D01*
X810460Y242500D01*
X807920Y239960D01*
X810460D01*
X813000Y237420D01*
X963000D02*
X965540Y239960D01*
X968080D01*
X965540Y242500D01*
X968080Y245040D01*
X965540D01*
X963000Y247580D01*
X960460Y245040D01*
X957920D01*
X960460Y242500D01*
X957920Y239960D01*
X960460D01*
X963000Y237420D01*
X858000D02*
X860540Y239960D01*
X863080D01*
X860540Y242500D01*
X863080Y245040D01*
X860540D01*
X858000Y247580D01*
X855460Y245040D01*
X852920D01*
X855460Y242500D01*
X852920Y239960D01*
X855460D01*
X858000Y237420D01*
X708000D02*
X710540Y239960D01*
X713080D01*
X710540Y242500D01*
X713080Y245040D01*
X710540D01*
X708000Y247580D01*
X705460Y245040D01*
X702920D01*
X705460Y242500D01*
X702920Y239960D01*
X705460D01*
X708000Y237420D01*
X693000D02*
X695540Y239960D01*
X698080D01*
X695540Y242500D01*
X698080Y245040D01*
X695540D01*
X693000Y247580D01*
X690460Y245040D01*
X687920D01*
X690460Y242500D01*
X687920Y239960D01*
X690460D01*
X693000Y237420D01*
X873000D02*
X875540Y239960D01*
X878080D01*
X875540Y242500D01*
X878080Y245040D01*
X875540D01*
X873000Y247580D01*
X870460Y245040D01*
X867920D01*
X870460Y242500D01*
X867920Y239960D01*
X870460D01*
X873000Y237420D01*
X603000Y227920D02*
X605540Y230460D01*
X608080D01*
X605540Y233000D01*
X608080Y235540D01*
X605540D01*
X603000Y238080D01*
X600460Y235540D01*
X597920D01*
X600460Y233000D01*
X597920Y230460D01*
X600460D01*
X603000Y227920D01*
X445250Y218528D02*
X447790Y221068D01*
X450330D01*
X447790Y223608D01*
X450330Y226148D01*
X447790D01*
X445250Y228688D01*
X442710Y226148D01*
X440170D01*
X442710Y223608D01*
X440170Y221068D01*
X442710D01*
X445250Y218528D01*
X413632Y218422D02*
X416172Y220962D01*
X418712D01*
X416172Y223502D01*
X418712Y226042D01*
X416172D01*
X413632Y228582D01*
X411092Y226042D01*
X408552D01*
X411092Y223502D01*
X408552Y220962D01*
X411092D01*
X413632Y218422D01*
X422632D02*
X425172Y220962D01*
X427712D01*
X425172Y223502D01*
X427712Y226042D01*
X425172D01*
X422632Y228582D01*
X420092Y226042D01*
X417552D01*
X420092Y223502D01*
X417552Y220962D01*
X420092D01*
X422632Y218422D01*
X593252Y218397D02*
X595792Y220937D01*
X598332D01*
X595792Y223477D01*
X598332Y226017D01*
X595792D01*
X593252Y228557D01*
X590712Y226017D01*
X588172D01*
X590712Y223477D01*
X588172Y220937D01*
X590712D01*
X593252Y218397D01*
X421632Y211922D02*
X424172Y214462D01*
X426712D01*
X424172Y217002D01*
X426712Y219542D01*
X424172D01*
X421632Y222082D01*
X419092Y219542D01*
X416552D01*
X419092Y217002D01*
X416552Y214462D01*
X419092D01*
X421632Y211922D01*
X583252Y208397D02*
X585792Y210937D01*
X588332D01*
X585792Y213477D01*
X588332Y216017D01*
X585792D01*
X583252Y218557D01*
X580712Y216017D01*
X578172D01*
X580712Y213477D01*
X578172Y210937D01*
X580712D01*
X583252Y208397D01*
X279983Y197574D02*
X282523Y200114D01*
X285063D01*
X282523Y202654D01*
X285063Y205194D01*
X282523D01*
X279983Y207734D01*
X277443Y205194D01*
X274903D01*
X277443Y202654D01*
X274903Y200114D01*
X277443D01*
X279983Y197574D01*
X209000Y164420D02*
X211540Y166960D01*
X214080D01*
X211540Y169500D01*
X214080Y172040D01*
X211540D01*
X209000Y174580D01*
X206460Y172040D01*
X203920D01*
X206460Y169500D01*
X203920Y166960D01*
X206460D01*
X209000Y164420D01*
X245000Y142920D02*
X247540Y145460D01*
X250080D01*
X247540Y148000D01*
X250080Y150540D01*
X247540D01*
X245000Y153080D01*
X242460Y150540D01*
X239920D01*
X242460Y148000D01*
X239920Y145460D01*
X242460D01*
X245000Y142920D01*
X236000D02*
X238540Y145460D01*
X241080D01*
X238540Y148000D01*
X241080Y150540D01*
X238540D01*
X236000Y153080D01*
X233460Y150540D01*
X230920D01*
X233460Y148000D01*
X230920Y145460D01*
X233460D01*
X236000Y142920D01*
X366778Y135205D02*
X369319Y137745D01*
X371858D01*
X369319Y140285D01*
X371858Y142825D01*
X369319D01*
X366778Y145365D01*
X364239Y142825D01*
X361698D01*
X364239Y140285D01*
X361698Y137745D01*
X364239D01*
X366778Y135205D01*
X182587Y122308D02*
X185127Y124848D01*
X187667D01*
X185127Y127388D01*
X187667Y129928D01*
X185127D01*
X182587Y132468D01*
X180047Y129928D01*
X177507D01*
X180047Y127388D01*
X177507Y124848D01*
X180047D01*
X182587Y122308D01*
X219000Y116920D02*
X221540Y119460D01*
X224080D01*
X221540Y122000D01*
X224080Y124540D01*
X221540D01*
X219000Y127080D01*
X216460Y124540D01*
X213920D01*
X216460Y122000D01*
X213920Y119460D01*
X216460D01*
X219000Y116920D01*
X182587Y114308D02*
X185127Y116848D01*
X187667D01*
X185127Y119388D01*
X187667Y121928D01*
X185127D01*
X182587Y124468D01*
X180047Y121928D01*
X177507D01*
X180047Y119388D01*
X177507Y116848D01*
X180047D01*
X182587Y114308D01*
X193148Y114185D02*
X195688Y116726D01*
X198228D01*
X195688Y119265D01*
X198228Y121805D01*
X195688D01*
X193148Y124346D01*
X190608Y121805D01*
X188068D01*
X190608Y119265D01*
X188068Y116726D01*
X190608D01*
X193148Y114185D01*
X149174Y108158D02*
X151714Y110698D01*
X154254D01*
X151714Y113238D01*
X154254Y115778D01*
X151714D01*
X149174Y118318D01*
X146634Y115778D01*
X144094D01*
X146634Y113238D01*
X144094Y110698D01*
X146634D01*
X149174Y108158D01*
X104000Y106920D02*
X106540Y109460D01*
X109080D01*
X106540Y112000D01*
X109080Y114540D01*
X106540D01*
X104000Y117080D01*
X101460Y114540D01*
X98920D01*
X101460Y112000D01*
X98920Y109460D01*
X101460D01*
X104000Y106920D01*
X337779Y98205D02*
X340318Y100745D01*
X342859D01*
X340318Y103285D01*
X342859Y105825D01*
X340318D01*
X337779Y108365D01*
X335238Y105825D01*
X332699D01*
X335238Y103285D01*
X332699Y100745D01*
X335238D01*
X337779Y98205D01*
X350000Y70920D02*
X352540Y73460D01*
X355080D01*
X352540Y76000D01*
X355080Y78540D01*
X352540D01*
X350000Y81080D01*
X347460Y78540D01*
X344920D01*
X347460Y76000D01*
X344920Y73460D01*
X347460D01*
X350000Y70920D01*
D98*
X131580Y345750D02*
G03*
X131580Y345750I-5080J0D01*
G01*
Y387250D02*
G03*
X131580Y387250I-5080J0D01*
G01*
M02*
