G04*
G04 #@! TF.GenerationSoftware,Altium Limited,Altium Designer,24.5.2 (23)*
G04*
G04 Layer_Color=8421504*
%FSLAX44Y44*%
%MOMM*%
G71*
G04*
G04 #@! TF.SameCoordinates,5A08705E-C27C-47AC-A7BE-410B2864E99F*
G04*
G04*
G04 #@! TF.FilePolarity,Positive*
G04*
G01*
G75*
%ADD14R,1.2500X1.2500*%
%ADD15R,0.4800X0.3800*%
%ADD16R,1.3500X1.0500*%
%ADD17R,1.3500X0.4000*%
%ADD18R,1.9000X1.8000*%
%ADD19R,1.9000X1.9000*%
%ADD20R,0.3800X0.4800*%
%ADD21R,1.2000X4.7500*%
%ADD22R,0.7000X1.0000*%
G04:AMPARAMS|DCode=23|XSize=0.2mm|YSize=1mm|CornerRadius=0mm|HoleSize=0mm|Usage=FLASHONLY|Rotation=135.000|XOffset=0mm|YOffset=0mm|HoleType=Round|Shape=Rectangle|*
%AMROTATEDRECTD23*
4,1,4,0.4243,0.2828,-0.2828,-0.4243,-0.4243,-0.2828,0.2828,0.4243,0.4243,0.2828,0.0*
%
%ADD23ROTATEDRECTD23*%

G04:AMPARAMS|DCode=24|XSize=0.2mm|YSize=1mm|CornerRadius=0mm|HoleSize=0mm|Usage=FLASHONLY|Rotation=45.000|XOffset=0mm|YOffset=0mm|HoleType=Round|Shape=Rectangle|*
%AMROTATEDRECTD24*
4,1,4,0.2828,-0.4243,-0.4243,0.2828,-0.2828,0.4243,0.4243,-0.2828,0.2828,-0.4243,0.0*
%
%ADD24ROTATEDRECTD24*%

%ADD25P,6.3640X4X90.0*%
G04:AMPARAMS|DCode=26|XSize=0.48mm|YSize=0.38mm|CornerRadius=0mm|HoleSize=0mm|Usage=FLASHONLY|Rotation=135.000|XOffset=0mm|YOffset=0mm|HoleType=Round|Shape=Rectangle|*
%AMROTATEDRECTD26*
4,1,4,0.3041,-0.0354,0.0354,-0.3041,-0.3041,0.0354,-0.0354,0.3041,0.3041,-0.0354,0.0*
%
%ADD26ROTATEDRECTD26*%

%ADD27O,0.7500X0.2500*%
%ADD28R,0.2500X1.6000*%
%ADD29R,0.8000X0.6300*%
%ADD30O,0.2000X0.8000*%
%ADD31O,0.8000X0.2000*%
G04:AMPARAMS|DCode=32|XSize=0.48mm|YSize=0.38mm|CornerRadius=0mm|HoleSize=0mm|Usage=FLASHONLY|Rotation=45.000|XOffset=0mm|YOffset=0mm|HoleType=Round|Shape=Rectangle|*
%AMROTATEDRECTD32*
4,1,4,-0.0354,-0.3041,-0.3041,-0.0354,0.0354,0.3041,0.3041,0.0354,-0.0354,-0.3041,0.0*
%
%ADD32ROTATEDRECTD32*%

%ADD33R,1.0000X1.2000*%
%ADD34R,1.2000X1.8000*%
%ADD35R,0.6000X1.5500*%
G36*
X175393Y419950D02*
X172800D01*
X171293Y421457D01*
Y422050D01*
X175393D01*
Y419950D01*
D02*
G37*
G36*
X165707Y421457D02*
X164200Y419950D01*
X161607D01*
Y422050D01*
X165707D01*
Y421457D01*
D02*
G37*
G36*
X171682Y417750D02*
X168500Y414568D01*
X165318Y417750D01*
X168500Y420932D01*
X171682Y417750D01*
D02*
G37*
G36*
X175393Y413450D02*
X171293D01*
Y414043D01*
X172800Y415550D01*
X175393D01*
Y413450D01*
D02*
G37*
G36*
X165707Y414043D02*
Y413450D01*
X161607D01*
Y415550D01*
X164200D01*
X165707Y414043D01*
D02*
G37*
G36*
X533743Y287219D02*
X526672Y280148D01*
X525965Y280855D01*
Y282269D01*
X532328Y288633D01*
X533743Y287219D01*
D02*
G37*
G36*
X523138Y282267D02*
X523136Y280855D01*
X522429Y280148D01*
X515358Y287219D01*
X516772Y288633D01*
X523138Y282267D01*
D02*
G37*
G36*
X567684Y253278D02*
X561320Y246914D01*
X559906D01*
X559198Y247621D01*
X566270Y254692D01*
X567684Y253278D01*
D02*
G37*
G36*
X489902Y247621D02*
X489195Y246914D01*
X487781Y246914D01*
X481417Y253278D01*
X482831Y254692D01*
X489902Y247621D01*
D02*
G37*
G36*
X567684Y237722D02*
X566270Y236308D01*
X559198Y243379D01*
X559906Y244086D01*
X561320D01*
X567684Y237722D01*
D02*
G37*
G36*
X489902Y243379D02*
X482831Y236308D01*
X481417Y237722D01*
X487781Y244086D01*
X489195Y244086D01*
X489902Y243379D01*
D02*
G37*
G36*
X533743Y203781D02*
X532328Y202367D01*
X525965Y208730D01*
Y210145D01*
X526672Y210852D01*
X533743Y203781D01*
D02*
G37*
G36*
X523136Y210145D02*
X523136Y208730D01*
X516772Y202367D01*
X515358Y203781D01*
X522429Y210852D01*
X523136Y210145D01*
D02*
G37*
D14*
X213504Y205250D02*
D03*
X229004D02*
D03*
X213504Y220749D02*
D03*
X229004D02*
D03*
D15*
X332500Y421950D02*
D03*
Y414050D02*
D03*
X361000Y237000D02*
D03*
Y229100D02*
D03*
X197000Y419850D02*
D03*
Y427750D02*
D03*
X534500Y358100D02*
D03*
Y366000D02*
D03*
X204000Y279450D02*
D03*
Y271550D02*
D03*
X212000Y275500D02*
D03*
Y267600D02*
D03*
X220000Y274500D02*
D03*
Y266600D02*
D03*
X236828Y258650D02*
D03*
Y266550D02*
D03*
X228328Y258600D02*
D03*
Y266500D02*
D03*
X360000Y255950D02*
D03*
Y263850D02*
D03*
X351500Y230900D02*
D03*
Y223000D02*
D03*
X464500Y221400D02*
D03*
Y213500D02*
D03*
X488000Y209000D02*
D03*
X488000Y216900D02*
D03*
X479500Y199050D02*
D03*
Y206950D02*
D03*
X82000Y193450D02*
D03*
Y185550D02*
D03*
X126126Y194189D02*
D03*
Y186289D02*
D03*
X224954Y158500D02*
D03*
Y166400D02*
D03*
X232954Y153950D02*
D03*
Y161850D02*
D03*
X219000Y143550D02*
D03*
Y151450D02*
D03*
X183500Y135500D02*
D03*
Y143400D02*
D03*
X219000Y128600D02*
D03*
Y136500D02*
D03*
D16*
X184500Y418000D02*
D03*
Y432500D02*
D03*
X152500Y418000D02*
D03*
Y432500D02*
D03*
X434500Y218750D02*
D03*
Y204250D02*
D03*
X452000Y218750D02*
D03*
Y204250D02*
D03*
X469000Y174250D02*
D03*
Y188750D02*
D03*
D17*
X128750Y360000D02*
D03*
Y366500D02*
D03*
Y373000D02*
D03*
Y353500D02*
D03*
Y379500D02*
D03*
D18*
X102000Y326500D02*
D03*
Y406500D02*
D03*
D19*
Y354500D02*
D03*
Y378500D02*
D03*
D20*
X204500Y412250D02*
D03*
X196600D02*
D03*
X459500Y326500D02*
D03*
X467400D02*
D03*
X120500Y299000D02*
D03*
X128400D02*
D03*
X143450Y299000D02*
D03*
X135550D02*
D03*
X171450Y293000D02*
D03*
X163550D02*
D03*
X482900Y268000D02*
D03*
X475000D02*
D03*
X271450Y250500D02*
D03*
X263550D02*
D03*
X271450Y242500D02*
D03*
X263550D02*
D03*
X171100Y239500D02*
D03*
X179000D02*
D03*
X460033Y239073D02*
D03*
X452133D02*
D03*
X142650Y235000D02*
D03*
X150550D02*
D03*
X460000Y231000D02*
D03*
X452100D02*
D03*
X150488Y226660D02*
D03*
X142588D02*
D03*
X473000Y223000D02*
D03*
X480900D02*
D03*
X271500Y203000D02*
D03*
X263600D02*
D03*
X171100Y202500D02*
D03*
X179000D02*
D03*
X147500Y90500D02*
D03*
X155400D02*
D03*
D21*
X256200Y325250D02*
D03*
X281600D02*
D03*
X307000D02*
D03*
X332400D02*
D03*
X357800D02*
D03*
X256200Y382750D02*
D03*
X281600D02*
D03*
X307000D02*
D03*
X332400D02*
D03*
X357800D02*
D03*
D22*
X501250Y385500D02*
D03*
Y340500D02*
D03*
X522750D02*
D03*
Y385500D02*
D03*
X445750D02*
D03*
Y340500D02*
D03*
X467250D02*
D03*
Y385500D02*
D03*
X104750Y260500D02*
D03*
Y305500D02*
D03*
X83250D02*
D03*
Y260500D02*
D03*
X147816Y128209D02*
D03*
Y173210D02*
D03*
X126316D02*
D03*
Y128209D02*
D03*
X103750Y128000D02*
D03*
Y173000D02*
D03*
X82250D02*
D03*
Y128000D02*
D03*
X387750Y122500D02*
D03*
Y77500D02*
D03*
X366250D02*
D03*
Y122500D02*
D03*
D23*
X488488Y237722D02*
D03*
X491316Y234893D02*
D03*
X494145Y232065D02*
D03*
X496973Y229237D02*
D03*
X499801Y226408D02*
D03*
X502630Y223580D02*
D03*
X505458Y220751D02*
D03*
X508287Y217923D02*
D03*
X511115Y215094D02*
D03*
X513944Y212266D02*
D03*
X516772Y209438D02*
D03*
X560613Y253278D02*
D03*
X557784Y256107D02*
D03*
X554956Y258935D02*
D03*
X552127Y261763D02*
D03*
X549299Y264592D02*
D03*
X546471Y267420D02*
D03*
X543642Y270249D02*
D03*
X540814Y273077D02*
D03*
X537985Y275906D02*
D03*
X535157Y278734D02*
D03*
X532328Y281562D02*
D03*
D24*
Y209438D02*
D03*
X535157Y212266D02*
D03*
X537985Y215094D02*
D03*
X540814Y217923D02*
D03*
X543642Y220751D02*
D03*
X546471Y223580D02*
D03*
X549299Y226408D02*
D03*
X552127Y229237D02*
D03*
X554956Y232065D02*
D03*
X557784Y234893D02*
D03*
X560613Y237722D02*
D03*
X516772Y281562D02*
D03*
X513944Y278734D02*
D03*
X511115Y275906D02*
D03*
X508287Y273077D02*
D03*
X505458Y270249D02*
D03*
X502630Y267420D02*
D03*
X499801Y264592D02*
D03*
X496973Y261763D02*
D03*
X494145Y258935D02*
D03*
X491316Y256107D02*
D03*
X488488Y253278D02*
D03*
D25*
X524550Y245500D02*
D03*
D26*
X553000Y289000D02*
D03*
X547414Y283414D02*
D03*
X559000Y283000D02*
D03*
X553414Y277414D02*
D03*
X565000Y277000D02*
D03*
X559414Y271414D02*
D03*
X571086Y271086D02*
D03*
X565500Y265500D02*
D03*
X571500Y259500D02*
D03*
X577086Y265086D02*
D03*
X583086Y259086D02*
D03*
X577500Y253500D02*
D03*
D27*
X136750Y268000D02*
D03*
Y273000D02*
D03*
Y278000D02*
D03*
Y283000D02*
D03*
X163250Y268000D02*
D03*
Y283000D02*
D03*
Y278000D02*
D03*
Y273000D02*
D03*
D28*
X150000Y275500D02*
D03*
D29*
X246783Y259746D02*
D03*
Y273246D02*
D03*
X258760Y259745D02*
D03*
Y273245D02*
D03*
D30*
X195250Y246250D02*
D03*
X199250D02*
D03*
X203250D02*
D03*
X207250D02*
D03*
X211250D02*
D03*
X215250D02*
D03*
X219250D02*
D03*
X223250D02*
D03*
X227250D02*
D03*
X231250D02*
D03*
X235250D02*
D03*
X239250D02*
D03*
X243250D02*
D03*
X247250D02*
D03*
Y179750D02*
D03*
X243250D02*
D03*
X239250D02*
D03*
X235250D02*
D03*
X231250D02*
D03*
X227250D02*
D03*
X223250D02*
D03*
X219250D02*
D03*
X215250D02*
D03*
X211250D02*
D03*
X207250D02*
D03*
X203250D02*
D03*
X199250D02*
D03*
X195250D02*
D03*
D31*
X254500Y239000D02*
D03*
Y235000D02*
D03*
Y231000D02*
D03*
Y227000D02*
D03*
Y223000D02*
D03*
Y219000D02*
D03*
Y215000D02*
D03*
Y211000D02*
D03*
Y207000D02*
D03*
Y203000D02*
D03*
Y199000D02*
D03*
Y195000D02*
D03*
Y191000D02*
D03*
Y187000D02*
D03*
X188000D02*
D03*
Y191000D02*
D03*
Y195000D02*
D03*
Y199000D02*
D03*
Y203000D02*
D03*
Y207000D02*
D03*
Y211000D02*
D03*
Y215000D02*
D03*
Y219000D02*
D03*
Y223000D02*
D03*
Y227000D02*
D03*
Y231000D02*
D03*
Y235000D02*
D03*
Y239000D02*
D03*
D32*
X575217Y234616D02*
D03*
X580803Y229030D02*
D03*
X569424Y228909D02*
D03*
X575010Y223323D02*
D03*
X563717Y223116D02*
D03*
X569303Y217530D02*
D03*
D33*
X194500Y130500D02*
D03*
X207500D02*
D03*
X194500Y147500D02*
D03*
X207500D02*
D03*
D34*
X324000Y80125D02*
D03*
X263000D02*
D03*
D35*
X303500Y118875D02*
D03*
X293500D02*
D03*
X283500D02*
D03*
X273500D02*
D03*
X313500D02*
D03*
M02*
