G04*
G04 #@! TF.GenerationSoftware,Altium Limited,Altium Designer,24.5.2 (23)*
G04*
G04 Layer_Physical_Order=1*
G04 Layer_Color=255*
%FSLAX44Y44*%
%MOMM*%
G71*
G04*
G04 #@! TF.SameCoordinates,5A08705E-C27C-47AC-A7BE-410B2864E99F*
G04*
G04*
G04 #@! TF.FilePolarity,Positive*
G04*
G01*
G75*
%ADD11C,0.2000*%
%ADD12C,0.1500*%
%ADD15R,0.4800X0.3800*%
%ADD16R,1.3500X1.0500*%
%ADD17R,1.3500X0.4000*%
%ADD18R,1.9000X1.8000*%
%ADD19R,1.9000X1.9000*%
%ADD20R,0.3800X0.4800*%
%ADD21R,1.2000X4.7500*%
%ADD22R,0.7000X1.0000*%
G04:AMPARAMS|DCode=23|XSize=0.2mm|YSize=1mm|CornerRadius=0mm|HoleSize=0mm|Usage=FLASHONLY|Rotation=135.000|XOffset=0mm|YOffset=0mm|HoleType=Round|Shape=Rectangle|*
%AMROTATEDRECTD23*
4,1,4,0.4243,0.2828,-0.2828,-0.4243,-0.4243,-0.2828,0.2828,0.4243,0.4243,0.2828,0.0*
%
%ADD23ROTATEDRECTD23*%

G04:AMPARAMS|DCode=24|XSize=0.2mm|YSize=1mm|CornerRadius=0mm|HoleSize=0mm|Usage=FLASHONLY|Rotation=45.000|XOffset=0mm|YOffset=0mm|HoleType=Round|Shape=Rectangle|*
%AMROTATEDRECTD24*
4,1,4,0.2828,-0.4243,-0.4243,0.2828,-0.2828,0.4243,0.4243,-0.2828,0.2828,-0.4243,0.0*
%
%ADD24ROTATEDRECTD24*%

%ADD25P,6.3640X4X90.0*%
G04:AMPARAMS|DCode=26|XSize=0.48mm|YSize=0.38mm|CornerRadius=0mm|HoleSize=0mm|Usage=FLASHONLY|Rotation=135.000|XOffset=0mm|YOffset=0mm|HoleType=Round|Shape=Rectangle|*
%AMROTATEDRECTD26*
4,1,4,0.3041,-0.0354,0.0354,-0.3041,-0.3041,0.0354,-0.0354,0.3041,0.3041,-0.0354,0.0*
%
%ADD26ROTATEDRECTD26*%

%ADD27O,0.7500X0.2500*%
%ADD28R,0.2500X1.6000*%
%ADD29R,0.8000X0.6300*%
%ADD30O,0.2000X0.8000*%
%ADD31O,0.8000X0.2000*%
G04:AMPARAMS|DCode=32|XSize=0.48mm|YSize=0.38mm|CornerRadius=0mm|HoleSize=0mm|Usage=FLASHONLY|Rotation=45.000|XOffset=0mm|YOffset=0mm|HoleType=Round|Shape=Rectangle|*
%AMROTATEDRECTD32*
4,1,4,-0.0354,-0.3041,-0.3041,-0.0354,0.0354,0.3041,0.3041,0.0354,-0.0354,-0.3041,0.0*
%
%ADD32ROTATEDRECTD32*%

%ADD33R,1.0000X1.2000*%
%ADD34R,1.2000X1.8000*%
%ADD35R,0.6000X1.5500*%
%ADD66P,0.8202X4X270.0*%
%AMCUSTOMSHAPE67*
4,1,5,-0.1400,0.1550,-0.1400,-0.1550,0.1349,-0.1550,0.3200,0.0301,0.3200,0.1550,-0.1400,0.1550,0.0*%
%ADD67CUSTOMSHAPE67*%

%AMCUSTOMSHAPE68*
4,1,5,0.1400,0.1550,0.1400,-0.1550,-0.1349,-0.1550,-0.3200,0.0301,-0.3200,0.1550,0.1400,0.1550,0.0*%
%ADD68CUSTOMSHAPE68*%

%AMCUSTOMSHAPE69*
4,1,5,-0.1400,-0.1550,-0.1400,0.1550,0.1349,0.1550,0.3200,-0.0301,0.3200,-0.1550,-0.1400,-0.1550,0.0*%
%ADD69CUSTOMSHAPE69*%

%AMCUSTOMSHAPE70*
4,1,5,0.1400,-0.1550,0.1400,0.1550,-0.1349,0.1550,-0.3200,-0.0301,-0.3200,-0.1550,0.1400,-0.1550,0.0*%
%ADD70CUSTOMSHAPE70*%

%ADD71C,0.7500*%
%AMCUSTOMSHAPE72*
4,1,5,-0.2828,-0.4243,0.3536,0.2121,0.3536,0.3536,0.2828,0.4243,-0.4243,-0.2828,-0.2828,-0.4243,0.0*%
%ADD72CUSTOMSHAPE72*%

%AMCUSTOMSHAPE73*
4,1,5,-0.4243,0.2828,0.2828,-0.4243,0.3536,-0.3536,0.3538,-0.2123,-0.2828,0.4243,-0.4243,0.2828,0.0*%
%ADD73CUSTOMSHAPE73*%

%AMCUSTOMSHAPE74*
4,1,5,-0.3536,0.3536,-0.3536,0.2121,0.2828,-0.4243,0.4243,-0.2828,-0.2828,0.4243,-0.3536,0.3536,0.0*%
%ADD74CUSTOMSHAPE74*%

%AMCUSTOMSHAPE75*
4,1,5,-0.3536,-0.3536,-0.2828,-0.4243,0.4243,0.2828,0.2828,0.4243,-0.3536,-0.2121,-0.3536,-0.3536,0.0*%
%ADD75CUSTOMSHAPE75*%

%AMCUSTOMSHAPE76*
4,1,5,-0.4243,0.2828,0.2121,-0.3536,0.3536,-0.3536,0.4243,-0.2828,-0.2828,0.4243,-0.4243,0.2828,0.0*%
%ADD76CUSTOMSHAPE76*%

%AMCUSTOMSHAPE77*
4,1,5,-0.2828,-0.4243,0.4243,0.2828,0.3536,0.3536,0.2121,0.3536,-0.4243,-0.2828,-0.2828,-0.4243,0.0*%
%ADD77CUSTOMSHAPE77*%

%AMCUSTOMSHAPE78*
4,1,5,-0.3536,-0.3536,-0.2121,-0.3536,0.4243,0.2828,0.2828,0.4243,-0.4243,-0.2828,-0.3536,-0.3536,0.0*%
%ADD78CUSTOMSHAPE78*%

%AMCUSTOMSHAPE79*
4,1,5,-0.4243,0.2828,0.2828,-0.4243,0.4243,-0.2828,-0.2121,0.3536,-0.3536,0.3536,-0.4243,0.2828,0.0*%
%ADD79CUSTOMSHAPE79*%

%AMCUSTOMSHAPE80*
4,1,6,0.7500,-0.0500,0.7500,0.0500,0.6500,0.1500,-0.2500,0.1500,-0.2500,-0.1500,0.6500,-0.1500,0.7500,-0.0500,0.0*%
%ADD80CUSTOMSHAPE80*%

%AMCUSTOMSHAPE81*
4,1,8,1.3000,0.1500,0.7500,0.1500,0.6500,0.0500,-0.2500,0.0500,-0.2500,-0.0500,0.6500,-0.0500,0.7500,-0.1500,1.3000,-0.1500,1.3000,0.1500,0.0*%
%ADD81CUSTOMSHAPE81*%

%AMCUSTOMSHAPE82*
4,1,8,1.3000,0.0500,0.2500,0.0500,0.2500,0.1500,-0.2500,0.1500,-0.2500,-0.1500,0.6500,-0.1500,0.7500,-0.2500,1.3000,-0.2500,1.3000,0.0500,0.0*%
%ADD82CUSTOMSHAPE82*%

%AMCUSTOMSHAPE83*
4,1,8,0.2500,-0.0500,1.3000,-0.0500,1.3000,0.2500,0.7500,0.2500,0.6500,0.1500,-0.2500,0.1500,-0.2500,-0.1500,0.2500,-0.1500,0.2500,-0.0500,0.0*%
%ADD83CUSTOMSHAPE83*%

%ADD84R,3.1000X3.1000*%
%ADD85C,0.5000*%
%ADD86C,0.3000*%
%ADD87C,0.4000*%
%ADD88C,0.1000*%
%ADD89R,1.7000X1.7000*%
%ADD90C,1.7000*%
%ADD91C,3.0000*%
%ADD92C,0.7000*%
%ADD93C,0.4000*%
%ADD94C,0.5000*%
G36*
X192750Y421750D02*
X199400D01*
Y417950D01*
X198500Y417050D01*
Y409850D01*
X194700D01*
X191800Y412750D01*
X177750D01*
X177550Y412950D01*
X170890D01*
X170807Y413033D01*
Y414213D01*
X172644Y416050D01*
X176399D01*
X177750Y417401D01*
Y423250D01*
X191250D01*
X192750Y421750D01*
D02*
G37*
G36*
X159950Y422550D02*
X166207D01*
Y421302D01*
X164351Y419446D01*
Y419446D01*
X163444D01*
Y418209D01*
X162985Y417750D01*
X163444Y417291D01*
Y416052D01*
X164357D01*
X166205Y414204D01*
Y412951D01*
X166203Y412950D01*
X159450D01*
X150500Y404000D01*
Y384000D01*
X144000Y377500D01*
X122000D01*
X118000Y381500D01*
Y399000D01*
X142250Y423250D01*
X159250D01*
X159950Y422550D01*
D02*
G37*
G36*
X551418Y432703D02*
Y370297D01*
X540903Y359782D01*
X537900D01*
Y361000D01*
X531100D01*
Y355200D01*
X532818D01*
Y348197D01*
X529098Y344477D01*
X527250Y345242D01*
Y346500D01*
X519129D01*
X506440Y359190D01*
X505894Y359554D01*
X505250Y359682D01*
X434000D01*
X433356Y359554D01*
X432810Y359190D01*
X364310Y290690D01*
X364306Y290682D01*
X332697D01*
X324511Y298868D01*
X325708Y300500D01*
X327273Y300500D01*
X339400D01*
Y350000D01*
X325400D01*
Y302475D01*
X325400Y300808D01*
X323768Y299611D01*
X321588Y301792D01*
Y339465D01*
X321605Y339472D01*
X322449Y340316D01*
X322905Y341418D01*
Y342612D01*
X322449Y343714D01*
X321605Y344558D01*
X320502Y345015D01*
X319308D01*
X318206Y344558D01*
X317362Y343714D01*
X316905Y342612D01*
Y341418D01*
X317362Y340316D01*
X318206Y339472D01*
X318223Y339465D01*
Y301095D01*
X318351Y300451D01*
X318716Y299905D01*
X330810Y287810D01*
X331356Y287446D01*
X332000Y287318D01*
X365000D01*
X365644Y287446D01*
X366190Y287810D01*
X366390Y288110D01*
X366690Y288310D01*
X434697Y356318D01*
X504553D01*
X518250Y342621D01*
Y334500D01*
X527250D01*
Y338818D01*
X527500D01*
X528144Y338946D01*
X528690Y339310D01*
X530970Y341591D01*
X532818Y340825D01*
Y291564D01*
X532328Y289716D01*
X531563Y289399D01*
X525813Y283649D01*
X524554Y283242D01*
X523288Y283648D01*
X517537Y289399D01*
X516772Y289716D01*
X516007Y289399D01*
X514593Y287985D01*
X513944Y287219D01*
X509701Y282977D01*
X508287Y281562D01*
X506873Y280148D01*
X501216Y274491D01*
X499801Y273077D01*
X498387Y271663D01*
X492730Y266006D01*
X491316Y264592D01*
X487029Y260305D01*
X486312Y260239D01*
X484437Y261866D01*
Y264600D01*
X485800D01*
Y271400D01*
X480682D01*
Y279000D01*
X480554Y279644D01*
X480190Y280190D01*
X469082Y291297D01*
Y323100D01*
X470300D01*
Y329900D01*
X468932D01*
Y334500D01*
X471750D01*
Y346500D01*
X462750D01*
Y334500D01*
X465568D01*
Y329900D01*
X464500D01*
Y323100D01*
X465718D01*
Y290600D01*
X465846Y289956D01*
X466210Y289410D01*
X477318Y278303D01*
Y271400D01*
X472100D01*
Y264600D01*
X472100D01*
X472099Y262600D01*
X467132Y257632D01*
X363400D01*
Y258850D01*
X356600D01*
Y257632D01*
X331747D01*
X291940Y297440D01*
X291394Y297804D01*
X290750Y297932D01*
X269447D01*
X263200Y304179D01*
Y341821D01*
X273697Y352318D01*
X339500D01*
X340144Y352446D01*
X340690Y352810D01*
X348690Y360810D01*
X349054Y361356D01*
X349182Y362000D01*
Y431000D01*
X349054Y431644D01*
X348690Y432190D01*
X301409Y479470D01*
X302175Y481318D01*
X502803D01*
X551418Y432703D01*
D02*
G37*
G36*
X345818Y430303D02*
Y362697D01*
X341400Y358279D01*
X339400Y359108D01*
X339400Y359506D01*
X339400Y359506D01*
X339400Y359541D01*
Y407500D01*
X334082D01*
Y411150D01*
X335900D01*
Y416950D01*
X335900D01*
X335661Y418269D01*
X335900Y419050D01*
X335900D01*
Y421917D01*
X335917Y422000D01*
X335900Y422084D01*
Y424850D01*
X334305D01*
X333777Y425203D01*
X332450Y425467D01*
X224414D01*
X224162Y425417D01*
X214200D01*
X212873Y425153D01*
X211749Y424401D01*
X202997Y415650D01*
X201861D01*
X200959Y416453D01*
X200400Y417153D01*
Y422750D01*
X193600D01*
X192250Y424191D01*
Y424250D01*
X176750D01*
Y418542D01*
X175393Y417132D01*
X172644D01*
X171879Y416815D01*
X170028Y414964D01*
X170028Y414964D01*
X169711Y414199D01*
Y412950D01*
X170028Y412185D01*
X170793Y411868D01*
X175393D01*
X176750Y411750D01*
Y411750D01*
X182818D01*
Y407195D01*
X181809Y406777D01*
X180473Y405441D01*
X179750Y403695D01*
Y401805D01*
X180473Y400059D01*
X181809Y398723D01*
X183555Y398000D01*
X185445D01*
X187191Y398723D01*
X188527Y400059D01*
X189250Y401805D01*
Y403695D01*
X188527Y405441D01*
X187191Y406777D01*
X186182Y407195D01*
Y411750D01*
X191422D01*
X193700Y409472D01*
Y408850D01*
X199500D01*
X199500Y408850D01*
X201456Y408967D01*
X201600Y408850D01*
X201600Y408850D01*
X204165D01*
X204500Y408783D01*
X204835Y408850D01*
X207400D01*
Y410247D01*
X215636Y418483D01*
X224364D01*
X224615Y418533D01*
X328094D01*
X329100Y416950D01*
X329100Y416533D01*
Y411150D01*
X330718D01*
Y407500D01*
X325400D01*
Y358000D01*
X336231D01*
X337300Y356000D01*
X337088Y355682D01*
X273000D01*
X272356Y355554D01*
X271810Y355190D01*
X265048Y348427D01*
X263200Y349192D01*
Y350000D01*
X249200D01*
Y301508D01*
X247200Y300679D01*
X245182Y302697D01*
Y349803D01*
X248197Y352818D01*
X265050D01*
X265694Y352946D01*
X266239Y353310D01*
X272752Y359823D01*
X274600Y359058D01*
Y358000D01*
X288600D01*
Y407500D01*
X274600D01*
Y366429D01*
X265436Y357265D01*
X263228Y357886D01*
X263200Y358000D01*
X263200D01*
Y407500D01*
X249200D01*
Y384432D01*
X239750D01*
X239750Y384432D01*
X239106Y384304D01*
X238560Y383940D01*
X238560Y383940D01*
X224810Y370190D01*
X224446Y369644D01*
X224318Y369000D01*
Y315295D01*
X222470Y314530D01*
X159500Y377500D01*
X147991D01*
X147225Y379348D01*
X151189Y383311D01*
X151474Y384000D01*
Y403596D01*
X158653Y410776D01*
X160250Y411750D01*
X162201Y411868D01*
X166207D01*
X166972Y412185D01*
X167290Y412950D01*
Y414199D01*
X166972Y414964D01*
X166972Y414964D01*
X165330Y416606D01*
X165305Y416852D01*
X164408Y417751D01*
X165306Y418651D01*
X165330Y418894D01*
X166972Y420536D01*
X166972Y420536D01*
X167290Y421301D01*
Y422550D01*
X166972Y423315D01*
X166207Y423632D01*
X161607D01*
X160250Y424250D01*
Y424250D01*
X144750D01*
Y424224D01*
X142250D01*
X141561Y423939D01*
X117311Y399689D01*
X117026Y399000D01*
Y381500D01*
X117311Y380811D01*
X121000Y377122D01*
Y366208D01*
X119000Y365379D01*
X116690Y367690D01*
X116144Y368054D01*
X115500Y368182D01*
X112500D01*
Y389000D01*
X91500D01*
Y368182D01*
X84500D01*
X83856Y368054D01*
X83310Y367690D01*
X82060Y366440D01*
X81696Y365894D01*
X81568Y365250D01*
Y314000D01*
Y311500D01*
X78750D01*
Y299500D01*
X87750D01*
Y311500D01*
X89411Y312318D01*
X98589D01*
X100250Y311500D01*
X100250Y310318D01*
Y299500D01*
X109250D01*
Y310042D01*
X111250Y310871D01*
X117721Y304400D01*
X117600Y302400D01*
X117600D01*
Y295600D01*
X123400D01*
Y302400D01*
X122182D01*
Y304000D01*
X122054Y304644D01*
X121690Y305190D01*
X112379Y314500D01*
X112500Y316500D01*
X112500Y317054D01*
Y336500D01*
X91500D01*
Y317682D01*
X91500Y316500D01*
X89839Y315682D01*
X84932D01*
Y364553D01*
X85197Y364818D01*
X91500D01*
Y344000D01*
X112500D01*
Y364818D01*
X114803D01*
X120810Y358810D01*
X121000Y358684D01*
Y357000D01*
X136500D01*
Y359387D01*
X138348Y360152D01*
X195715Y302785D01*
X194950Y300937D01*
X167500D01*
X167500Y300937D01*
X166759Y300790D01*
X166130Y300370D01*
X166130Y300370D01*
X162180Y296420D01*
X162167Y296400D01*
X160650D01*
Y295447D01*
X149500D01*
X148677Y295283D01*
X146350Y297611D01*
Y302400D01*
X140550D01*
Y295600D01*
X141532D01*
X141720Y295320D01*
X145500Y291539D01*
Y291403D01*
X145957Y290301D01*
X146801Y289457D01*
X147903Y289000D01*
X149097D01*
X150199Y289457D01*
X151043Y290301D01*
X151148Y290553D01*
X160650D01*
Y289600D01*
X161568D01*
Y285294D01*
X160750D01*
X159872Y285119D01*
X159128Y284622D01*
X158631Y283878D01*
X158456Y283000D01*
X158631Y282122D01*
X158912Y281700D01*
X159128Y281345D01*
Y279655D01*
X158912Y279300D01*
X158631Y278878D01*
X158456Y278000D01*
X158631Y277122D01*
X158912Y276700D01*
X159128Y276345D01*
Y274655D01*
X158912Y274300D01*
X158631Y273878D01*
X158456Y273000D01*
X158631Y272122D01*
X158912Y271700D01*
X159128Y271345D01*
Y269655D01*
X158912Y269300D01*
X158631Y268878D01*
X158456Y268000D01*
X158631Y267122D01*
X159128Y266378D01*
X159872Y265881D01*
X160750Y265706D01*
X165750D01*
X166628Y265881D01*
X167282Y266318D01*
X189732D01*
X197020Y259030D01*
X196254Y257182D01*
X133197D01*
X126182Y264197D01*
Y270303D01*
X127197Y271318D01*
X132718D01*
X133372Y270881D01*
X134250Y270706D01*
X139250D01*
X140128Y270881D01*
X140872Y271378D01*
X141369Y272122D01*
X141544Y273000D01*
X141369Y273878D01*
X141088Y274300D01*
X140872Y274655D01*
Y276345D01*
X141088Y276700D01*
X141369Y277122D01*
X141544Y278000D01*
X141369Y278878D01*
X141088Y279300D01*
X140872Y279655D01*
Y281345D01*
X141088Y281700D01*
X141369Y282122D01*
X141544Y283000D01*
X141369Y283878D01*
X140872Y284622D01*
X140128Y285119D01*
X139250Y285294D01*
X137282D01*
Y295600D01*
X138450D01*
Y302400D01*
X132650D01*
Y302400D01*
X131300Y302400D01*
Y302400D01*
X125500D01*
Y295600D01*
X131300D01*
Y295600D01*
X131918Y295600D01*
X133918Y294125D01*
Y285228D01*
X133372Y285119D01*
X132718Y284682D01*
X124000D01*
X123356Y284554D01*
X122810Y284190D01*
X116310Y277690D01*
X115946Y277144D01*
X115818Y276500D01*
Y260500D01*
X115946Y259856D01*
X116310Y259310D01*
X130560Y245060D01*
X131106Y244696D01*
X131750Y244568D01*
X175298D01*
X176100Y242900D01*
Y236100D01*
X174273Y235682D01*
X153450D01*
Y238400D01*
X147650D01*
Y231600D01*
X147650D01*
X147588Y230060D01*
X147588D01*
X147588Y229626D01*
Y223260D01*
X153388D01*
Y224978D01*
X172160D01*
X172804Y225106D01*
X173350Y225471D01*
X177197Y229318D01*
X181738D01*
X182214Y228787D01*
X183024Y227318D01*
X182961Y227000D01*
X183116Y226220D01*
X183558Y225558D01*
Y224442D01*
X183116Y223780D01*
X182961Y223000D01*
X183116Y222220D01*
X183141Y222182D01*
X182321Y220252D01*
X182255Y220182D01*
X132000D01*
X131356Y220054D01*
X130810Y219690D01*
X98103Y186982D01*
X85400D01*
Y188450D01*
X84289D01*
X83220Y190450D01*
X83287Y190550D01*
X85400D01*
Y196350D01*
X78600D01*
Y195132D01*
X51586D01*
X51568Y195174D01*
X50724Y196018D01*
X49622Y196475D01*
X48428D01*
X47326Y196018D01*
X46482Y195174D01*
X46025Y194072D01*
Y192878D01*
X46482Y191776D01*
X47326Y190932D01*
X48428Y190475D01*
X49622D01*
X50724Y190932D01*
X51560Y191768D01*
X75325D01*
X76091Y189920D01*
X67310Y181140D01*
X66946Y180594D01*
X66818Y179950D01*
Y164000D01*
X66946Y163356D01*
X67310Y162810D01*
X76121Y154000D01*
X64310Y142190D01*
X63946Y141644D01*
X63818Y141000D01*
Y102500D01*
X63946Y101856D01*
X64310Y101310D01*
X90810Y74810D01*
X91356Y74446D01*
X92000Y74318D01*
X140900D01*
X141544Y74446D01*
X142090Y74810D01*
X154379Y87100D01*
X158300D01*
X158818Y85314D01*
Y78197D01*
X150303Y69682D01*
X83697D01*
X26682Y126697D01*
Y404803D01*
X29318Y407439D01*
X31318Y406610D01*
Y255500D01*
X31446Y254856D01*
X31810Y254310D01*
X52310Y233811D01*
X52310Y233811D01*
X52856Y233446D01*
X53500Y233318D01*
X53500Y233318D01*
X139067D01*
X139739Y231318D01*
X139688Y230060D01*
X139688D01*
X139688Y229626D01*
Y223260D01*
X145488D01*
Y230060D01*
X145488D01*
X145550Y231600D01*
X145550D01*
X145550Y232034D01*
Y238400D01*
X139750D01*
Y236682D01*
X54197D01*
X34682Y256197D01*
Y407303D01*
X106197Y478818D01*
X297303D01*
X345818Y430303D01*
D02*
G37*
G36*
X985300Y293000D02*
X981800D01*
Y295000D01*
X985300D01*
Y293000D01*
D02*
G37*
G36*
X627942Y487290D02*
X631025Y486013D01*
X633800Y484159D01*
X636159Y481800D01*
X638013Y479025D01*
X639290Y475942D01*
X639941Y472669D01*
Y471000D01*
X639941Y316700D01*
Y295937D01*
X558000D01*
X557259Y295790D01*
X556630Y295370D01*
X556630Y295370D01*
X553681Y292420D01*
X552646Y293455D01*
X548545Y289354D01*
X553354Y284545D01*
X554545Y283354D01*
X559353Y278545D01*
X559353D01*
X560545Y277353D01*
X565354Y272545D01*
X565354D01*
X566631Y271440D01*
X571440Y266631D01*
X577440Y260631D01*
X578631Y259440D01*
X583440Y254631D01*
X587541Y258733D01*
X586507Y259767D01*
X603302Y276563D01*
X625710D01*
X626475Y274715D01*
X583201Y231441D01*
X581157Y233485D01*
X576803Y229131D01*
X575364Y227778D01*
X575364D01*
X570556Y222970D01*
Y222970D01*
X569657Y221985D01*
X564849Y217177D01*
X568950Y213076D01*
X569969Y214095D01*
X570974Y215100D01*
X571822Y214252D01*
X571822Y214252D01*
X571822D01*
D01*
X572451Y213832D01*
X572451Y213832D01*
X573192Y213684D01*
X573192Y213684D01*
X578621D01*
X578621Y213684D01*
X579363Y213832D01*
X579991Y214252D01*
X633302Y267563D01*
X639941D01*
Y267500D01*
X970947D01*
X970914Y262500D01*
X639941D01*
Y262437D01*
X637813D01*
X637072Y262290D01*
X636443Y261870D01*
X636443Y261870D01*
X618811Y244238D01*
X615466Y240892D01*
X615432Y240870D01*
X615432Y240870D01*
X584999Y210437D01*
X568010D01*
X554911Y223535D01*
X556370Y224994D01*
X557692Y226316D01*
X558134Y226381D01*
X559727Y226056D01*
X560721Y224221D01*
X559263Y222763D01*
X563364Y218662D01*
X567717Y223015D01*
X568172Y223470D01*
X569525Y224909D01*
X573879Y229263D01*
X574864Y230162D01*
X574864D01*
X579672Y234970D01*
X575571Y239071D01*
X573053Y236554D01*
X570177D01*
X568594Y238137D01*
X568449Y238487D01*
X562698Y244238D01*
X562293Y245500D01*
X562698Y246762D01*
X567499Y251563D01*
X575336D01*
X577854Y249045D01*
X581955Y253146D01*
X577146Y257955D01*
Y257955D01*
X575955Y259146D01*
X571369Y263732D01*
X571147Y263955D01*
X569955Y265147D01*
X569955Y265147D01*
X565333Y269768D01*
X565146Y269955D01*
X563682Y271247D01*
X559060Y275869D01*
X559060Y275869D01*
X557869Y277060D01*
X557646Y277283D01*
X553060Y281869D01*
X553060Y281869D01*
X551869Y283060D01*
X551646Y283283D01*
X547060Y287869D01*
X542959Y283767D01*
X545418Y281308D01*
X545235Y279556D01*
X543384Y278992D01*
X542228Y280148D01*
X535157Y287219D01*
X536053Y288745D01*
X536054Y288747D01*
X536073Y288840D01*
X536182Y289391D01*
Y347500D01*
Y355200D01*
X537900D01*
Y356418D01*
X541600D01*
X542244Y356546D01*
X542790Y356910D01*
X554290Y368410D01*
X554654Y368956D01*
X554782Y369600D01*
Y433400D01*
X554654Y434044D01*
X554290Y434590D01*
X554290Y434590D01*
X504690Y484190D01*
X504144Y484554D01*
X503500Y484682D01*
X102500D01*
X102500Y484682D01*
X101856Y484554D01*
X101310Y484190D01*
X101310Y484189D01*
X23810Y406690D01*
X23446Y406144D01*
X23318Y405500D01*
Y126000D01*
X23446Y125356D01*
X23810Y124810D01*
X81810Y66810D01*
X82356Y66446D01*
X83000Y66318D01*
X151000D01*
X151644Y66446D01*
X152190Y66810D01*
X160533Y75154D01*
X162533Y74326D01*
Y45500D01*
X162797Y44173D01*
X163549Y43049D01*
X174549Y32049D01*
X175673Y31297D01*
X177000Y31033D01*
X253000D01*
X254327Y31297D01*
X255451Y32049D01*
X275951Y52549D01*
X276703Y53673D01*
X276967Y55000D01*
Y110125D01*
X277500D01*
Y127478D01*
X279018Y128789D01*
X279637Y127956D01*
X279500Y127625D01*
X279500D01*
Y110125D01*
X287500D01*
Y127625D01*
X287141D01*
X285182Y128000D01*
X285054Y128644D01*
X284690Y129190D01*
X284690Y129190D01*
X281190Y132690D01*
X280644Y133054D01*
X280000Y133182D01*
X275539D01*
X274513Y134474D01*
X275320Y136318D01*
X281803D01*
X285310Y132810D01*
X285644Y132587D01*
X286663Y131569D01*
X286886Y131235D01*
X289792Y128329D01*
X289500Y127625D01*
X289500D01*
Y110125D01*
X297500D01*
Y127625D01*
X295058D01*
X295054Y127644D01*
X294690Y128190D01*
X289488Y133391D01*
X289265Y133725D01*
X287800Y135190D01*
X287467Y135413D01*
X284562Y138318D01*
X285390Y140318D01*
X292303D01*
X301818Y130803D01*
Y127625D01*
X299500D01*
Y110125D01*
X307500D01*
Y127625D01*
X305182D01*
Y131500D01*
X305054Y132144D01*
X304690Y132690D01*
X298909Y138470D01*
X299675Y140318D01*
X316303D01*
X357310Y99310D01*
X357856Y98946D01*
X358500Y98818D01*
X380303D01*
X386068Y93053D01*
Y83500D01*
X383250D01*
Y71500D01*
X392250D01*
Y83500D01*
X389432D01*
Y93750D01*
X389304Y94394D01*
X388940Y94940D01*
X382190Y101690D01*
X381644Y102054D01*
X381000Y102182D01*
X359197D01*
X318190Y143190D01*
X317644Y143554D01*
X317000Y143682D01*
X273697D01*
X245236Y172143D01*
X245575Y174462D01*
X246374Y174823D01*
X246642Y174832D01*
X247250Y174711D01*
X248030Y174866D01*
X248692Y175308D01*
X249134Y175970D01*
X249289Y176750D01*
Y179300D01*
X251289Y179906D01*
X251381Y179770D01*
X252174Y179239D01*
X253111Y179053D01*
X259000D01*
X259937Y179239D01*
X260730Y179770D01*
X264457Y183496D01*
X264462Y183495D01*
X444127D01*
X444811Y182811D01*
X445500Y182526D01*
X461250D01*
Y182500D01*
X476750D01*
Y195000D01*
X476724D01*
Y203297D01*
X477477Y204050D01*
X482550D01*
X482900Y204400D01*
Y208472D01*
X488428Y214000D01*
X491400Y214000D01*
X492063Y212274D01*
Y186000D01*
X492063Y186000D01*
X492210Y185259D01*
X492630Y184630D01*
X512130Y165130D01*
X512130Y165130D01*
X512759Y164710D01*
X513500Y164563D01*
X604743D01*
X604743Y164563D01*
X605484Y164710D01*
X606113Y165130D01*
X636045Y195063D01*
X639941D01*
Y174300D01*
X639941Y174300D01*
Y23068D01*
X637941Y22871D01*
X637385Y25667D01*
X636179Y28579D01*
X634428Y31199D01*
X632199Y33428D01*
X629579Y35179D01*
X626667Y36385D01*
X623576Y37000D01*
X620424D01*
X617333Y36385D01*
X614421Y35179D01*
X611801Y33428D01*
X609572Y31199D01*
X607821Y28579D01*
X606615Y25667D01*
X606000Y22576D01*
Y19424D01*
X606615Y16333D01*
X607821Y13421D01*
X609572Y10801D01*
X611801Y8572D01*
X614421Y6821D01*
X617333Y5615D01*
X620128Y5059D01*
X619931Y3059D01*
X23069D01*
X22872Y5059D01*
X25667Y5615D01*
X28579Y6821D01*
X31199Y8572D01*
X33428Y10801D01*
X35179Y13421D01*
X36385Y16333D01*
X37000Y19424D01*
Y22576D01*
X36385Y25667D01*
X35179Y28579D01*
X33428Y31199D01*
X31199Y33428D01*
X28579Y35179D01*
X25667Y36385D01*
X22576Y37000D01*
X19424D01*
X16333Y36385D01*
X13421Y35179D01*
X10801Y33428D01*
X8572Y31199D01*
X6821Y28579D01*
X5615Y25667D01*
X5059Y22871D01*
X3059Y23068D01*
Y466932D01*
X5059Y467129D01*
X5615Y464333D01*
X6821Y461421D01*
X8572Y458801D01*
X10801Y456572D01*
X13421Y454821D01*
X16333Y453615D01*
X19424Y453000D01*
X22576D01*
X25667Y453615D01*
X28579Y454821D01*
X31199Y456572D01*
X33428Y458801D01*
X35179Y461421D01*
X36385Y464333D01*
X37000Y467424D01*
Y470576D01*
X36385Y473667D01*
X35179Y476579D01*
X33428Y479199D01*
X31199Y481428D01*
X28579Y483179D01*
X25667Y484385D01*
X22576Y485000D01*
X19424D01*
X16333Y484385D01*
X13421Y483179D01*
X10801Y481428D01*
X8572Y479199D01*
X6821Y476579D01*
X5615Y473667D01*
X5400Y472585D01*
X3327Y472417D01*
X3119Y472973D01*
X3710Y475942D01*
X4987Y479025D01*
X6841Y481800D01*
X9201Y484159D01*
X11975Y486013D01*
X15058Y487290D01*
X18331Y487942D01*
X624669D01*
X627942Y487290D01*
D02*
G37*
G36*
X249200Y358000D02*
X249200D01*
X248760Y356182D01*
X247500D01*
X246856Y356054D01*
X246310Y355690D01*
X242310Y351690D01*
X241946Y351144D01*
X241818Y350500D01*
Y302000D01*
X241946Y301356D01*
X242310Y300810D01*
X249257Y293864D01*
X248584Y291708D01*
X247812Y291567D01*
X227682Y311697D01*
Y368303D01*
X240447Y381068D01*
X249200D01*
Y358000D01*
D02*
G37*
G36*
X985300Y289000D02*
X981800D01*
X980300Y289500D01*
Y291500D01*
X981800Y292000D01*
X985300D01*
Y289000D01*
D02*
G37*
G36*
X981800Y288000D02*
X985300D01*
Y287000D01*
X981800D01*
X980300Y286500D01*
X979300Y286500D01*
X979301Y288500D01*
X980300D01*
X981800Y288000D01*
D02*
G37*
G36*
X985300Y283000D02*
X981800D01*
X980300Y283500D01*
Y285500D01*
X981800Y286000D01*
X985300D01*
Y283000D01*
D02*
G37*
G36*
X981800Y282000D02*
X985300D01*
Y281000D01*
X981800D01*
X980300Y280500D01*
X979300Y280500D01*
X979301Y282500D01*
X980300D01*
X981800Y282000D01*
D02*
G37*
G36*
X525906Y279383D02*
X526672Y278734D01*
X526672Y278734D01*
X533743Y271663D01*
X535157Y270249D01*
X537985Y267420D01*
Y267420D01*
X537985Y267420D01*
X537985Y267420D01*
X543642Y261763D01*
X543642Y261763D01*
X543642Y261763D01*
X545056Y260349D01*
X547885Y257521D01*
X549299Y256107D01*
X550713Y254692D01*
X552127Y253278D01*
X552127D01*
X552127Y253278D01*
X553542Y251864D01*
X554956Y250450D01*
Y250450D01*
X554956Y250450D01*
X557784Y247621D01*
Y247621D01*
X558433Y246856D01*
X558433Y246856D01*
X558433Y246856D01*
X558527Y246762D01*
X558783Y245963D01*
X558433Y244144D01*
X557784Y243379D01*
X557784Y243379D01*
X556370Y241964D01*
X554973Y240568D01*
X553542Y239136D01*
X552127Y237722D01*
X552127Y237722D01*
X552127Y237722D01*
X549534Y235128D01*
X547885Y233479D01*
X543642Y229237D01*
X543642D01*
X543642Y229237D01*
X539399Y224994D01*
X537985Y223580D01*
X537985D01*
X537985Y223580D01*
X535157Y220751D01*
X535157D01*
X535157Y220751D01*
X526672Y212266D01*
X525906Y211617D01*
X525812Y211523D01*
X525449Y211407D01*
X523652Y211407D01*
X523288Y211523D01*
X523195Y211617D01*
X523194Y211617D01*
X522429Y212266D01*
X522429Y212266D01*
X516772Y217923D01*
Y217923D01*
X516772Y217923D01*
X508287Y226408D01*
Y226408D01*
X508287Y226408D01*
X501216Y233479D01*
X499801Y234893D01*
X496973Y237722D01*
X488488Y229237D01*
Y229237D01*
X487118Y227778D01*
X485782Y226442D01*
X483800Y226400D01*
Y226400D01*
X478000D01*
Y221231D01*
X466760Y216400D01*
X461100D01*
Y211958D01*
X459732Y210500D01*
X444250D01*
Y210474D01*
X442250D01*
Y210500D01*
X426750D01*
Y198000D01*
X442250D01*
X442250Y198000D01*
Y198000D01*
X442256Y198001D01*
X442744Y196026D01*
X442526Y195500D01*
Y190428D01*
X355151D01*
X353182Y192398D01*
Y220100D01*
X354900D01*
Y221318D01*
X360000D01*
X360644Y221446D01*
X361190Y221810D01*
X362190Y222810D01*
X362554Y223356D01*
X362682Y224000D01*
X362682Y224000D01*
Y226200D01*
X364400D01*
Y231318D01*
X449200D01*
Y227600D01*
X455000D01*
Y229713D01*
X455100Y229780D01*
X457100Y228710D01*
Y227600D01*
X462900D01*
Y231063D01*
X483766D01*
X483766Y231063D01*
X484507Y231210D01*
X485136Y231630D01*
X485615Y232109D01*
X485659Y232065D01*
X494145Y240550D01*
X491316Y243379D01*
Y243379D01*
X490667Y244144D01*
X490573Y244238D01*
X490168Y245500D01*
X490573Y246762D01*
X490667Y246856D01*
X490667Y246856D01*
X490667Y246856D01*
X491316Y247621D01*
Y247621D01*
X492730Y249035D01*
X494145Y250450D01*
X498387Y254692D01*
X499801Y256107D01*
X501216Y257521D01*
X506873Y263178D01*
X508287Y264592D01*
X509701Y266006D01*
X515358Y271663D01*
X516772Y273077D01*
X522429Y278734D01*
X522429D01*
X523194Y279383D01*
X523194Y279383D01*
X523194Y279383D01*
X523288Y279477D01*
X524086Y279733D01*
X525906Y279383D01*
D02*
G37*
G36*
X985300Y277000D02*
X981800D01*
X980300Y277500D01*
Y279500D01*
X981800Y280000D01*
X985300D01*
Y277000D01*
D02*
G37*
G36*
X981800Y276000D02*
X987800D01*
Y275000D01*
X981800D01*
X980300Y274500D01*
X979300Y274500D01*
X979301Y276500D01*
X980300D01*
X981800Y276000D01*
D02*
G37*
G36*
X985300Y271000D02*
X981800D01*
X980300Y271500D01*
Y273500D01*
X981800Y274000D01*
X985300D01*
Y271000D01*
D02*
G37*
G36*
X222991Y275509D02*
Y272330D01*
X220161Y269501D01*
X215792D01*
X215400Y269893D01*
Y270500D01*
X214523D01*
X214304Y270593D01*
X209618Y270632D01*
X209612Y270631D01*
X209610Y270632D01*
X208600Y270500D01*
X207400Y272003D01*
Y274450D01*
X200600D01*
Y270107D01*
X198600Y269279D01*
X188690Y279190D01*
X188144Y279554D01*
X187500Y279682D01*
X168435D01*
X167921Y280502D01*
X167612Y281559D01*
X167654Y281799D01*
X167869Y282122D01*
X168044Y283000D01*
X167869Y283878D01*
X167372Y284622D01*
X166628Y285119D01*
X165750Y285294D01*
X164932D01*
Y289600D01*
X166450D01*
Y295210D01*
X168302Y297063D01*
X201437D01*
X222991Y275509D01*
D02*
G37*
G36*
X981800Y270000D02*
X985300D01*
Y269000D01*
X981800D01*
X980300Y268500D01*
X979300Y268500D01*
X979301Y270500D01*
X980300D01*
X981800Y270000D01*
D02*
G37*
G36*
X985300Y265000D02*
X981800D01*
X980300Y265500D01*
Y267500D01*
X981800Y268000D01*
X985300D01*
Y265000D01*
D02*
G37*
G36*
X981800Y264000D02*
X985300D01*
Y263000D01*
X981800D01*
X980300Y262500D01*
X979300Y262500D01*
X979301Y264500D01*
X980300D01*
X981800Y264000D01*
D02*
G37*
G36*
X985421Y259000D02*
X981921D01*
X980421Y259500D01*
Y261500D01*
X981921Y262000D01*
X985421D01*
Y259000D01*
D02*
G37*
G36*
X214296Y269619D02*
X215388Y268527D01*
X222031D01*
X222076Y268572D01*
X222304Y268345D01*
Y260838D01*
X219893Y258426D01*
X215721D01*
X209590Y264558D01*
Y269638D01*
X209610Y269658D01*
X214296Y269619D01*
D02*
G37*
G36*
X981921Y258000D02*
X985421D01*
Y257000D01*
X981921D01*
X980421Y256500D01*
X979421Y256500D01*
X979422Y258500D01*
X980421D01*
X981921Y258000D01*
D02*
G37*
G36*
X328938Y255682D02*
X328110Y253682D01*
X326197D01*
X287311Y292568D01*
X288140Y294568D01*
X290053D01*
X328938Y255682D01*
D02*
G37*
G36*
X985300Y253000D02*
X981800D01*
X980300Y253500D01*
Y255500D01*
X981800Y256000D01*
X985300D01*
Y253000D01*
D02*
G37*
G36*
X981800Y252000D02*
X987800D01*
Y251000D01*
X981800D01*
X980300Y250500D01*
X979300Y250500D01*
X979301Y252500D01*
X980300D01*
X981800Y252000D01*
D02*
G37*
G36*
X192750Y249703D02*
X191988Y247932D01*
X132447D01*
X131061Y249318D01*
X131890Y251318D01*
X191623D01*
X192750Y249703D01*
D02*
G37*
G36*
X985300Y247000D02*
X981800D01*
X980300Y247500D01*
Y249500D01*
X981800Y250000D01*
X985300D01*
Y247000D01*
D02*
G37*
G36*
X981800Y246000D02*
X985300D01*
Y245000D01*
X981800D01*
X980300Y244500D01*
X979300Y244500D01*
X979301Y246500D01*
X980300D01*
X981800Y246000D01*
D02*
G37*
G36*
X985300Y241000D02*
X981800D01*
X980300Y241500D01*
Y243500D01*
X981800Y244000D01*
X985300D01*
Y241000D01*
D02*
G37*
G36*
X477318Y260232D02*
Y257109D01*
X477446Y256465D01*
X477810Y255919D01*
X480369Y253361D01*
X480334Y253278D01*
X480651Y252513D01*
X486402Y246762D01*
X486807Y245500D01*
X486402Y244238D01*
X481101Y238937D01*
X462933D01*
Y242473D01*
X457715D01*
Y248967D01*
X457587Y249611D01*
X457223Y250156D01*
X455112Y252268D01*
X455940Y254268D01*
X467828D01*
X468472Y254396D01*
X469018Y254760D01*
X475318Y261060D01*
X477318Y260232D01*
D02*
G37*
G36*
X324310Y250810D02*
X324856Y250446D01*
X325500Y250318D01*
X452303D01*
X454351Y248270D01*
Y242473D01*
X449233D01*
Y240756D01*
X442073D01*
X441430Y240628D01*
X440884Y240263D01*
X439303Y238682D01*
X364400D01*
Y239900D01*
X357600D01*
Y238682D01*
X332697D01*
X331116Y240263D01*
X284243Y287136D01*
X284916Y289292D01*
X285688Y289433D01*
X324310Y250810D01*
D02*
G37*
G36*
X981800Y240000D02*
X985300D01*
Y239000D01*
X981800D01*
X980300Y238500D01*
X979300Y238500D01*
X979301Y240500D01*
X980300D01*
X981800Y240000D01*
D02*
G37*
G36*
X970793Y238500D02*
X639941Y238500D01*
Y238437D01*
X626000D01*
X626000Y238437D01*
X621318D01*
X621292Y238500D01*
X618553D01*
X638553Y258500D01*
X970927D01*
X970793Y238500D01*
D02*
G37*
G36*
X246810Y287810D02*
X247356Y287446D01*
X248000Y287318D01*
X279303D01*
X324017Y242603D01*
X323252Y240756D01*
X279573D01*
X278930Y240628D01*
X278384Y240263D01*
X274803Y236682D01*
X268003D01*
X266370Y238682D01*
X266450Y239100D01*
X266450D01*
Y245100D01*
X266450Y245900D01*
X266450Y245900D01*
Y247100D01*
X266450D01*
X266450Y247900D01*
Y253900D01*
X266424D01*
Y260206D01*
X266139Y260894D01*
X263760Y263273D01*
Y263895D01*
X253783D01*
X253760Y263895D01*
Y263895D01*
X251783Y263896D01*
Y263896D01*
X241783D01*
X240228Y264969D01*
Y269450D01*
Y291780D01*
X242076Y292545D01*
X246810Y287810D01*
D02*
G37*
G36*
X985300Y235000D02*
X981800D01*
X980300Y235500D01*
Y237500D01*
X981800Y238000D01*
X985300D01*
Y235000D01*
D02*
G37*
G36*
X330810Y235810D02*
X331356Y235446D01*
X332000Y235318D01*
X345506D01*
X346750Y233318D01*
X346437Y232682D01*
X278390D01*
X277561Y234682D01*
X280270Y237391D01*
X329230D01*
X330810Y235810D01*
D02*
G37*
G36*
X981800Y234000D02*
X985300D01*
Y233000D01*
X981800D01*
X980300Y232500D01*
X979300Y232500D01*
X979301Y234500D01*
X980300D01*
X981800Y234000D01*
D02*
G37*
G36*
X985300Y229000D02*
X981800D01*
X980300Y229500D01*
Y231500D01*
X981800Y232000D01*
X985300D01*
Y229000D01*
D02*
G37*
G36*
X357600Y227106D02*
X355844Y225611D01*
X354900Y225900D01*
Y225900D01*
X348100D01*
Y220100D01*
X349818D01*
Y191701D01*
X348143Y190428D01*
X266047D01*
Y199600D01*
X266500D01*
Y206400D01*
X261459D01*
X260378Y206738D01*
X259384Y207780D01*
X258942Y208442D01*
Y209558D01*
X259384Y210220D01*
X259539Y211000D01*
X259384Y211780D01*
X258942Y212442D01*
Y213558D01*
X259384Y214220D01*
X259539Y215000D01*
X259384Y215780D01*
X258942Y216442D01*
Y217558D01*
X259384Y218220D01*
X259539Y219000D01*
X259476Y219318D01*
X260286Y220787D01*
X260762Y221318D01*
X262803D01*
X271810Y212311D01*
X271810Y212310D01*
X272356Y211946D01*
X273000Y211818D01*
X282055D01*
X282473Y210809D01*
X283809Y209473D01*
X285555Y208750D01*
X287445D01*
X289191Y209473D01*
X290527Y210809D01*
X291250Y212555D01*
Y214445D01*
X290527Y216191D01*
X289191Y217527D01*
X287997Y218021D01*
X287789Y220054D01*
X287798Y220104D01*
X288691Y220473D01*
X290027Y221809D01*
X290750Y223555D01*
Y225445D01*
X290027Y227191D01*
X289900Y227318D01*
X290728Y229318D01*
X348100D01*
Y228000D01*
X354900D01*
Y231318D01*
X357600D01*
Y227106D01*
D02*
G37*
G36*
X981800Y228000D02*
X987800D01*
Y227000D01*
X981800D01*
X980300Y226500D01*
X979300Y226500D01*
X979301Y228500D01*
X980300D01*
X981800Y228000D01*
D02*
G37*
G36*
X985300Y223000D02*
X981800D01*
X980300Y223500D01*
Y225500D01*
X981800Y226000D01*
X985300D01*
Y223000D01*
D02*
G37*
G36*
X981800Y222000D02*
X985300D01*
Y221000D01*
X981800D01*
X980300Y220500D01*
X979300Y220500D01*
X979301Y222500D01*
X980300D01*
X981800Y222000D01*
D02*
G37*
G36*
X985300Y217000D02*
X981800D01*
X980300Y217500D01*
Y219500D01*
X981800Y220000D01*
X985300D01*
Y217000D01*
D02*
G37*
G36*
X981800Y216000D02*
X985300D01*
Y215000D01*
X981800D01*
X980300Y214500D01*
X979300Y214500D01*
X979301Y216500D01*
X980300D01*
X981800Y216000D01*
D02*
G37*
G36*
X985300Y211000D02*
X981800D01*
X980300Y211500D01*
Y213500D01*
X981800Y214000D01*
X985300D01*
Y211000D01*
D02*
G37*
G36*
X981800Y210000D02*
X985300D01*
Y209000D01*
X981800D01*
X980300Y208500D01*
X979300Y208500D01*
X979301Y210500D01*
X980300D01*
X981800Y210000D01*
D02*
G37*
G36*
X985309Y205000D02*
X981809D01*
X980309Y205500D01*
Y207500D01*
X981809Y208000D01*
X985309D01*
Y205000D01*
D02*
G37*
G36*
X981809Y204000D02*
X985309D01*
Y203000D01*
X981809D01*
X980309Y202500D01*
X979309Y202500D01*
X979310Y204500D01*
X980309D01*
X981809Y204000D01*
D02*
G37*
G36*
X482800Y220600D02*
X466015Y203815D01*
X458696Y199000D01*
X427750D01*
Y209500D01*
X460130D01*
X462100Y211600D01*
Y215400D01*
X466900D01*
X479000Y220600D01*
Y225400D01*
X482800D01*
Y220600D01*
D02*
G37*
G36*
X985300Y199000D02*
X981800D01*
X980300Y199500D01*
Y201500D01*
X981800Y202000D01*
X985300D01*
Y199000D01*
D02*
G37*
G36*
Y196000D02*
X981800D01*
Y198000D01*
X985300D01*
Y196000D01*
D02*
G37*
G36*
X490400Y215000D02*
X488050D01*
X481900Y208850D01*
Y205050D01*
X477100D01*
X475750Y203700D01*
Y183500D01*
X445500D01*
X443500Y185500D01*
Y195500D01*
X462200D01*
X462250Y195450D01*
X485600Y218800D01*
X490400D01*
Y215000D01*
D02*
G37*
G36*
X525812Y207352D02*
X531563Y201601D01*
X531913Y201456D01*
X545085Y188285D01*
X544319Y186437D01*
X522302D01*
X513937Y194802D01*
Y198206D01*
X517187Y201456D01*
X517537Y201601D01*
X523288Y207352D01*
X524550Y207757D01*
X525812Y207352D01*
D02*
G37*
G36*
X265450Y260206D02*
Y240100D01*
X263351Y238001D01*
X251145D01*
X248683Y237052D01*
X248683Y203864D01*
X251513D01*
Y202095D01*
X249935Y202095D01*
X249096Y201256D01*
Y185467D01*
X246324D01*
X242269Y189523D01*
Y239596D01*
X242320Y245924D01*
X242366Y245945D01*
Y249470D01*
X243313Y250250D01*
X247250D01*
X253595Y256595D01*
X254760D01*
Y262895D01*
X262760D01*
X265450Y260206D01*
D02*
G37*
G36*
X160438Y211318D02*
X136810Y187690D01*
X136446Y187144D01*
X136318Y186500D01*
Y111697D01*
X128010Y103390D01*
X127646Y102844D01*
X127518Y102200D01*
Y100000D01*
X119700D01*
Y81000D01*
X138700D01*
Y88818D01*
X144600D01*
Y87100D01*
X147008D01*
X147773Y85252D01*
X140203Y77682D01*
X92697D01*
X67182Y103197D01*
Y140303D01*
X79197Y152318D01*
X106000D01*
X106644Y152446D01*
X107190Y152810D01*
X117190Y162810D01*
X117554Y163356D01*
X117682Y164000D01*
Y185587D01*
X120726Y188632D01*
X122726Y187803D01*
Y183389D01*
X124318D01*
Y179209D01*
X121816D01*
Y167210D01*
X130816D01*
Y179209D01*
X127682D01*
Y183389D01*
X129526D01*
Y184607D01*
X131789D01*
X132433Y184735D01*
X132979Y185100D01*
X133690Y185810D01*
X134054Y186356D01*
X134182Y187000D01*
X134182Y187000D01*
Y206803D01*
X140697Y213318D01*
X159610D01*
X160438Y211318D01*
D02*
G37*
G36*
X137438Y214818D02*
X131310Y208690D01*
X130946Y208144D01*
X130818Y207500D01*
Y198554D01*
X129526Y197089D01*
X122726D01*
Y195386D01*
X122715Y195379D01*
X122715Y195379D01*
X114810Y187474D01*
X114446Y186928D01*
X114318Y186284D01*
Y164697D01*
X105303Y155682D01*
X79197D01*
X70182Y164697D01*
Y179253D01*
X76752Y185823D01*
X78600Y185058D01*
Y182650D01*
X80568D01*
Y179000D01*
X77750D01*
Y167000D01*
X86750D01*
Y179000D01*
X83932D01*
Y182650D01*
X85400D01*
Y183618D01*
X98800D01*
X99444Y183746D01*
X99990Y184110D01*
X132697Y216818D01*
X136610D01*
X137438Y214818D01*
D02*
G37*
G36*
X174840Y204839D02*
X175696Y203318D01*
X175533Y202500D01*
Y191436D01*
X166049Y181951D01*
X163549Y179451D01*
X162797Y178327D01*
X162533Y177000D01*
Y135174D01*
X160533Y134346D01*
X159182Y135697D01*
Y198803D01*
X165697Y205318D01*
X174388D01*
X174840Y204839D01*
D02*
G37*
G36*
X154882Y199740D02*
X155818Y199110D01*
Y135000D01*
X155946Y134356D01*
X156310Y133810D01*
X158818Y131303D01*
Y95686D01*
X158300Y93900D01*
X152500D01*
Y91787D01*
X152400Y91720D01*
X150400Y92789D01*
Y93900D01*
X144600D01*
Y92182D01*
X138700D01*
Y100000D01*
X132082D01*
X131379Y102000D01*
X139190Y109810D01*
X139554Y110356D01*
X139682Y111000D01*
Y185803D01*
X153878Y199998D01*
X154882Y199740D01*
D02*
G37*
G36*
X193211Y179392D02*
Y176750D01*
X193366Y175970D01*
X193808Y175308D01*
X194470Y174866D01*
X195250Y174711D01*
X196030Y174866D01*
X196692Y175308D01*
X197808D01*
X198470Y174866D01*
X199250Y174711D01*
X200030Y174866D01*
X200692Y175308D01*
X201808D01*
X202470Y174866D01*
X203250Y174711D01*
X204030Y174866D01*
X204692Y175308D01*
X205808D01*
X206470Y174866D01*
X207250Y174711D01*
X208030Y174866D01*
X208692Y175308D01*
X209134Y175970D01*
X209289Y176750D01*
Y179750D01*
X213211D01*
Y176750D01*
X213366Y175970D01*
X213568Y175668D01*
Y168947D01*
X208303Y163682D01*
X202500D01*
X202500Y163682D01*
X201856Y163554D01*
X201310Y163190D01*
X201310Y163190D01*
X193310Y155190D01*
X192946Y154644D01*
X192917Y154500D01*
X188500D01*
Y149682D01*
X183500D01*
X182856Y149554D01*
X182310Y149190D01*
X181946Y148644D01*
X181818Y148000D01*
Y146300D01*
X180100D01*
Y140500D01*
X186500D01*
X186900Y140500D01*
Y140500D01*
X188500Y140500D01*
Y140500D01*
X200500D01*
Y154500D01*
X199992D01*
X199227Y156348D01*
X203197Y160318D01*
X209000D01*
X209644Y160446D01*
X210190Y160810D01*
X215568Y166189D01*
X217568Y165360D01*
Y154350D01*
X215600D01*
Y148550D01*
X222400D01*
Y154350D01*
X220932D01*
Y161758D01*
X221554Y163500D01*
X228072D01*
X228354Y163500D01*
X229554Y161997D01*
Y158950D01*
X236354D01*
Y164438D01*
X237989Y165632D01*
X273311Y130310D01*
X273856Y129946D01*
X274500Y129818D01*
X278253D01*
X278795Y129089D01*
X277391Y127625D01*
X269500D01*
Y110125D01*
X270033D01*
Y92111D01*
X270000Y90125D01*
X268033Y90125D01*
X256000D01*
Y70125D01*
X270000Y70125D01*
X270033Y68139D01*
Y56436D01*
X251564Y37967D01*
X178436D01*
X169467Y46936D01*
Y175564D01*
X171720Y177818D01*
X188111D01*
X188755Y177946D01*
X189300Y178310D01*
X191211Y180221D01*
X193211Y179392D01*
D02*
G37*
%LPC*%
G36*
X127395Y391750D02*
X125605D01*
X123951Y391065D01*
X122685Y389799D01*
X122000Y388145D01*
Y386355D01*
X122685Y384701D01*
X123951Y383435D01*
X125605Y382750D01*
X127395D01*
X129049Y383435D01*
X130315Y384701D01*
X131000Y386355D01*
Y388145D01*
X130315Y389799D01*
X129049Y391065D01*
X127395Y391750D01*
D02*
G37*
G36*
X527250Y391500D02*
X518250D01*
Y379500D01*
X527250D01*
Y391500D01*
D02*
G37*
G36*
X471750D02*
X462750D01*
Y379500D01*
X471750D01*
Y391500D01*
D02*
G37*
G36*
X505750Y346500D02*
X496750D01*
Y334500D01*
X505750D01*
Y346500D01*
D02*
G37*
G36*
X450250D02*
X441250D01*
Y334500D01*
X450250D01*
Y346500D01*
D02*
G37*
G36*
X364800Y350000D02*
X350800D01*
Y300500D01*
X364800D01*
Y350000D01*
D02*
G37*
G36*
X314000D02*
X300000D01*
Y300500D01*
X314000D01*
Y350000D01*
D02*
G37*
G36*
X288600D02*
X274600D01*
Y300500D01*
X288600D01*
Y350000D01*
D02*
G37*
G36*
X425597Y336000D02*
X424403D01*
X423301Y335543D01*
X422457Y334699D01*
X422000Y333597D01*
Y332403D01*
X422457Y331301D01*
X423301Y330457D01*
X424403Y330000D01*
X425597D01*
X425614Y330007D01*
X430310Y325310D01*
X430856Y324946D01*
X431500Y324818D01*
X456600D01*
Y323100D01*
X457818D01*
Y302197D01*
X421153Y265532D01*
X363400D01*
Y266750D01*
X356600D01*
Y260950D01*
X363400D01*
Y262168D01*
X421850D01*
X422494Y262296D01*
X423040Y262660D01*
X460690Y300310D01*
X461054Y300856D01*
X461182Y301500D01*
Y323100D01*
X462400D01*
Y329900D01*
X456600D01*
Y328182D01*
X432197D01*
X427993Y332386D01*
X428000Y332403D01*
Y333597D01*
X427543Y334699D01*
X426699Y335543D01*
X425597Y336000D01*
D02*
G37*
G36*
X112500Y416500D02*
X91500D01*
Y396500D01*
X112500D01*
Y416500D01*
D02*
G37*
G36*
X314000Y407500D02*
X300000D01*
Y358000D01*
X314000D01*
Y370758D01*
X315848Y371523D01*
X318318Y369053D01*
Y366050D01*
X318301Y366043D01*
X317457Y365199D01*
X317000Y364097D01*
Y362903D01*
X317457Y361801D01*
X318301Y360957D01*
X319403Y360500D01*
X320597D01*
X321699Y360957D01*
X322543Y361801D01*
X323000Y362903D01*
Y364097D01*
X322543Y365199D01*
X321699Y366043D01*
X321682Y366050D01*
Y369750D01*
X321554Y370394D01*
X321190Y370940D01*
X314000Y378129D01*
Y407500D01*
D02*
G37*
G36*
X127395Y350250D02*
X125605D01*
X123951Y349565D01*
X122685Y348299D01*
X122000Y346645D01*
Y344855D01*
X122685Y343201D01*
X123951Y341935D01*
X125605Y341250D01*
X127395D01*
X129049Y341935D01*
X130315Y343201D01*
X131000Y344855D01*
Y346645D01*
X130315Y348299D01*
X129049Y349565D01*
X127395Y350250D01*
D02*
G37*
G36*
X152250Y284500D02*
X147750D01*
Y266500D01*
X152250D01*
Y284500D01*
D02*
G37*
G36*
X87750Y266500D02*
X78750D01*
Y254500D01*
X87750D01*
Y266500D01*
D02*
G37*
G36*
X621876Y485000D02*
X618724D01*
X615633Y484385D01*
X612721Y483179D01*
X610101Y481428D01*
X607872Y479199D01*
X606121Y476579D01*
X604915Y473667D01*
X604300Y470576D01*
Y467424D01*
X604915Y464333D01*
X606121Y461421D01*
X607872Y458801D01*
X610101Y456572D01*
X612721Y454821D01*
X615633Y453615D01*
X618724Y453000D01*
X621876D01*
X624967Y453615D01*
X627879Y454821D01*
X630499Y456572D01*
X632728Y458801D01*
X634479Y461421D01*
X635685Y464333D01*
X636300Y467424D01*
Y470576D01*
X635685Y473667D01*
X634479Y476579D01*
X632728Y479199D01*
X630499Y481428D01*
X627879Y483179D01*
X624967Y484385D01*
X621876Y485000D01*
D02*
G37*
G36*
X392250Y128500D02*
X383250D01*
Y116500D01*
X392250D01*
Y128500D01*
D02*
G37*
G36*
X331000Y90125D02*
X317000D01*
Y70125D01*
X331000D01*
Y90125D01*
D02*
G37*
G36*
X130816Y134209D02*
X121816D01*
Y122210D01*
X130816D01*
Y134209D01*
D02*
G37*
G36*
X86750Y134000D02*
X77750D01*
Y122000D01*
X86750D01*
Y134000D01*
D02*
G37*
G36*
X108250Y179000D02*
X99250D01*
Y167000D01*
X108250D01*
Y179000D01*
D02*
G37*
G36*
X152316Y179209D02*
X143316D01*
Y167210D01*
X152316D01*
Y179209D01*
D02*
G37*
G36*
X222400Y146450D02*
X215600D01*
Y140650D01*
X215600D01*
X215600Y139400D01*
X215600D01*
Y137287D01*
X215500Y137220D01*
X213500Y137500D01*
Y137500D01*
X201500D01*
Y123500D01*
X213500D01*
Y128917D01*
X213644Y128946D01*
X214190Y129310D01*
X218479Y133600D01*
X222400D01*
Y139400D01*
X222400D01*
X222400Y140650D01*
X222400D01*
Y146450D01*
D02*
G37*
%LPD*%
D11*
X635243Y197000D02*
X981800D01*
X167500Y299000D02*
X203000D01*
X163550Y295050D02*
X167500Y299000D01*
X163550Y293000D02*
Y295050D01*
X466668Y228288D02*
X484711D01*
X466320Y228636D02*
X466668Y228288D01*
X484711D02*
X488488Y232065D01*
X219250Y240000D02*
Y246250D01*
Y233750D02*
Y240000D01*
X239250Y240750D02*
Y246250D01*
X236500Y238000D02*
X239250Y240750D01*
X221250Y238000D02*
X236500D01*
X219250Y240000D02*
X221250Y238000D01*
X224928Y271528D02*
Y277072D01*
X220000Y266600D02*
X224928Y271528D01*
X203000Y299000D02*
X224928Y277072D01*
X254500Y203000D02*
X263600D01*
X136750Y260250D02*
Y268000D01*
X136500Y260000D02*
X136750Y260250D01*
X162000Y239500D02*
X171100D01*
X168000Y195500D02*
Y199400D01*
X171100Y202500D01*
X202500Y195500D02*
X205000Y193000D01*
X202500Y195500D02*
Y230500D01*
X205000Y193000D02*
X222500D01*
X227250Y188250D01*
Y179750D02*
Y188250D01*
X202500Y230500D02*
X204000Y232000D01*
X217500D01*
X219250Y233750D01*
X332200Y413750D02*
X332800Y414350D01*
X553000Y289000D02*
X558000Y294000D01*
X981800D01*
X566500Y290500D02*
X970800D01*
X970800Y290500D01*
X559000Y283000D02*
X566500Y290500D01*
X970800Y290500D02*
X987800D01*
X575500Y287500D02*
X979301D01*
X565000Y277000D02*
X575500Y287500D01*
X584500Y284500D02*
X987800D01*
X571086Y271086D02*
X584500Y284500D01*
X547414Y283414D02*
X547767Y283060D01*
Y281787D02*
Y283060D01*
X547466Y281486D02*
X547767Y281787D01*
X593500Y281500D02*
X979301D01*
X577086Y265086D02*
X593500Y281500D01*
X547466Y274073D02*
Y281486D01*
X602500Y278500D02*
X987800D01*
X583086Y259086D02*
X602500Y278500D01*
X553414Y277414D02*
X553767Y277060D01*
Y275788D02*
Y277060D01*
X553414Y275434D02*
X553767Y275788D01*
X942987Y275500D02*
X943003D01*
X979301D01*
X643000D02*
X942987D01*
X583884Y229384D02*
X630000Y275500D01*
X643000D01*
X553414Y268707D02*
Y275434D01*
X543642Y270249D02*
X547466Y274073D01*
X985337Y272500D02*
X987800D01*
X985301D02*
X985337D01*
X942987D02*
X943003D01*
X580638Y221895D02*
X631243Y272500D01*
X643000D02*
X942987D01*
X943003D02*
X985301D01*
X631243D02*
X643000D01*
X559414Y271414D02*
X559767Y271060D01*
Y269788D02*
Y271060D01*
X559414Y269434D02*
X559767Y269788D01*
X643000Y269500D02*
X942987D01*
X632500D02*
X643000D01*
X943003D02*
X979421D01*
X578621Y215621D02*
X632500Y269500D01*
X942987D02*
X943003D01*
X559414Y269050D02*
Y269434D01*
X552127Y261763D02*
X559414Y269050D01*
X549299Y264592D02*
X553414Y268707D01*
X482500Y267600D02*
X482900Y268000D01*
X482500Y259266D02*
Y267600D01*
X970800Y266500D02*
X987800D01*
X565146Y265854D02*
X565500Y265500D01*
X563520D02*
X563874Y265854D01*
X565146D01*
X561521Y265500D02*
X563520D01*
X554956Y258935D02*
X561521Y265500D01*
X970921Y263500D02*
X979421D01*
X637813Y260500D02*
X987800D01*
X616813Y239500D02*
X637813Y260500D01*
X104750Y246750D02*
Y260500D01*
X569874Y259853D02*
X571147D01*
X571500Y259500D01*
X569520D02*
X569874Y259853D01*
X557784Y256107D02*
X561199Y259521D01*
X564270D02*
X564290Y259500D01*
X561199Y259521D02*
X564270D01*
X564290Y259500D02*
X569520D01*
X482500Y259266D02*
X488488Y253278D01*
X970921Y257500D02*
X979421D01*
X557784Y256107D02*
X557784D01*
X970800Y254500D02*
X987800D01*
X577146Y253853D02*
X577500Y253500D01*
X575520D02*
X575874Y253853D01*
X577146D01*
X563441Y250450D02*
X566491Y253500D01*
X575520D01*
X970800Y251500D02*
X979301D01*
X970800Y248500D02*
X987800D01*
X970800Y245500D02*
X979301D01*
X970800Y242500D02*
X987800D01*
X482109Y237000D02*
X485659Y240550D01*
X563441D02*
X569375Y234616D01*
X970800Y239500D02*
X979301D01*
X585802Y208500D02*
X616802Y239500D01*
X616813D01*
X460033Y238573D02*
Y239073D01*
Y238573D02*
X461606Y237000D01*
X483766Y233000D02*
X488488Y237722D01*
X560613Y237721D02*
X563855Y234479D01*
X461606Y237000D02*
X482109D01*
X626000Y236500D02*
X987800D01*
X626000Y236500D02*
X626000Y236500D01*
X618787Y236500D02*
X618787Y236500D01*
X626000D01*
X587044Y205500D02*
X618044Y236500D01*
X618787D01*
X557784Y234893D02*
Y234893D01*
X488488Y232065D02*
X491316Y234893D01*
X557784Y234893D02*
X561462Y231215D01*
X573237Y234616D02*
X573591Y234263D01*
X574864D02*
X575217Y234616D01*
X569375D02*
X573237D01*
X563855Y234478D02*
Y234479D01*
Y234478D02*
X569424Y228909D01*
X573591Y234263D02*
X574864D01*
X627243Y233500D02*
X979301D01*
X627243Y233500D02*
X627243Y233500D01*
X620029Y233500D02*
X620029Y233500D01*
X627243D01*
X588287Y202500D02*
X619287Y233500D01*
X620029D01*
X462000Y233000D02*
X483766D01*
X460000Y231000D02*
X462000Y233000D01*
X488898Y226818D02*
X494145Y232065D01*
X488488Y232065D02*
Y232065D01*
X561462Y227351D02*
Y231215D01*
X985337Y230500D02*
X987800D01*
X942987D02*
X985301D01*
X621272Y230500D02*
X621272Y230500D01*
X643000D02*
X942967D01*
X942987D01*
X985301D02*
X985337D01*
X621272D02*
X643000D01*
X620530Y230500D02*
X621272D01*
X589529Y199500D02*
X620530Y230500D01*
X581157Y229384D02*
X583884D01*
X580803Y229030D02*
X581157Y229384D01*
X488000Y220263D02*
X496973Y229237D01*
X569424Y228909D02*
Y228909D01*
X643000Y227500D02*
X942967D01*
X942987D01*
X622515Y227500D02*
X622515Y227500D01*
X942987D02*
X979301D01*
X622515D02*
X643000D01*
X590772Y196500D02*
X621772Y227500D01*
X622515D01*
X561462Y227351D02*
X564071Y224743D01*
X488898Y226818D02*
Y226818D01*
X485080Y223000D02*
X488898Y226818D01*
X549299Y226408D02*
X567207Y208500D01*
X564071Y223470D02*
Y224743D01*
X985301Y224500D02*
X985337D01*
X987800D01*
X942967D02*
X942987D01*
X985301D01*
X643000D02*
X942967D01*
X623757D02*
X643000D01*
X623757Y224500D02*
X623757Y224500D01*
X592015Y193500D02*
X623015Y224500D01*
X623757D01*
X575364Y223677D02*
X576637D01*
X578418Y221895D01*
X575010Y223323D02*
X575364Y223677D01*
X494000Y214950D02*
X502630Y223580D01*
X546471Y223580D02*
X564550Y205500D01*
X563717Y223116D02*
X564071Y223470D01*
X480900Y223000D02*
X485080D01*
X578418Y221895D02*
X580638D01*
X643000Y221500D02*
X942967D01*
X625000Y221500D02*
X625000Y221500D01*
X942967D02*
X942987D01*
X625000D02*
X643000D01*
X942987D02*
X979301D01*
X593257Y190500D02*
X624257Y221500D01*
X625000D01*
X543642Y220751D02*
X561893Y202500D01*
X497000Y212293D02*
X505458Y220751D01*
X488000Y216900D02*
Y220263D01*
X985337Y218500D02*
X987800D01*
X942987D02*
X985301D01*
X643000D02*
X942967D01*
X985301D02*
X985337D01*
X594500Y187500D02*
X625500Y218500D01*
X942967D02*
X942987D01*
X625500D02*
X643000D01*
X540814Y217923D02*
X559236Y199500D01*
X500000Y209636D02*
X508287Y217923D01*
X570930Y217884D02*
X573192Y215621D01*
X569657Y217884D02*
X570930D01*
X569303Y217530D02*
X569657Y217884D01*
X573192Y215621D02*
X578621D01*
X638509Y215500D02*
Y215500D01*
X979309D01*
X627000Y215500D02*
X638509D01*
X596000Y184500D02*
X627000Y215500D01*
X503000Y206979D02*
X511115Y215094D01*
X537985Y215094D02*
X556580Y196500D01*
X494000Y186000D02*
Y214950D01*
X985301Y212500D02*
X985337D01*
X987800D01*
X942987D02*
X985301D01*
X942967D02*
X942987D01*
X628500D02*
X643000D01*
X597500Y181500D02*
X628500Y212500D01*
X643000D02*
X942967D01*
X497000Y187500D02*
Y212293D01*
X506000Y204322D02*
X513944Y212266D01*
X535157D02*
X553923Y193500D01*
X500000Y188757D02*
Y209636D01*
X630000Y209500D02*
X979814D01*
X599000Y178500D02*
X630000Y209500D01*
X509000Y201665D02*
X516772Y209438D01*
X532328D02*
X551266Y190500D01*
X532328Y209438D02*
X532328D01*
X567207Y208500D02*
X585802D01*
X503000Y190000D02*
Y206979D01*
X529500Y206609D02*
X548609Y187500D01*
X512000Y199009D02*
X519600Y206609D01*
X600500Y175500D02*
X631500Y206500D01*
X643000D02*
X987800Y206500D01*
X631500Y206500D02*
X643000D01*
X564550Y205500D02*
X587044D01*
X506000Y191243D02*
Y204322D01*
X633000Y203500D02*
X979309D01*
X602000Y172500D02*
X633000Y203500D01*
X271500Y203000D02*
X280000D01*
X561893Y202500D02*
X588287D01*
X509000Y192485D02*
Y201665D01*
X634500Y200500D02*
X987800D01*
X603500Y169500D02*
X634500Y200500D01*
X559236Y199500D02*
X589529D01*
X512000Y194000D02*
Y199009D01*
X604743Y166500D02*
X635243Y197000D01*
X556580Y196500D02*
X590772D01*
X512000Y194000D02*
X521500Y184500D01*
X553923Y193500D02*
X592015D01*
X509000Y192485D02*
X519985Y181500D01*
X506000Y191243D02*
X518743Y178500D01*
X551266Y190500D02*
X593257D01*
X503000Y190000D02*
X517500Y175500D01*
X500000Y188757D02*
X516257Y172500D01*
X548609Y187500D02*
X594500D01*
X497000D02*
X515000Y169500D01*
X494000Y186000D02*
X513500Y166500D01*
X521500Y184500D02*
X596000D01*
X519985Y181500D02*
X597500D01*
X211250Y171750D02*
Y179750D01*
X518743Y178500D02*
X599000D01*
X517500Y175500D02*
X600500D01*
X516257Y172500D02*
X602000D01*
X209000Y169500D02*
X211250Y171750D01*
X515000Y169500D02*
X603500D01*
X513500Y166500D02*
X604743D01*
X367000Y123250D02*
Y140500D01*
X219000Y122000D02*
Y128600D01*
X147816Y114684D02*
Y128209D01*
X103750Y128000D02*
X104000Y127750D01*
Y112000D02*
Y127750D01*
X366250Y122500D02*
X367000Y123250D01*
X219000Y122000D02*
X219000Y122000D01*
X313500Y106000D02*
Y118875D01*
X147816Y114684D02*
X149000Y113500D01*
X103800Y111800D02*
X104000Y112000D01*
X103800Y90500D02*
Y111800D01*
X313500Y106000D02*
X316000Y103500D01*
X338000D01*
X364750Y76000D02*
X366250Y77500D01*
X350000Y76000D02*
X364750D01*
D12*
X179000Y203000D02*
X188000D01*
X162500Y292000D02*
X163250Y291250D01*
X131789Y186289D02*
X132500Y187000D01*
X126126Y186289D02*
X131789D01*
X116000Y164000D02*
Y186284D01*
X123905Y194189D02*
X126126D01*
X116000Y186284D02*
X123905Y194189D01*
X351500Y191701D02*
X356239Y186962D01*
X351500Y191701D02*
Y223000D01*
X360000D01*
X361000Y224000D01*
Y229100D01*
X65500Y141000D02*
X78500Y154000D01*
X65500Y102500D02*
Y141000D01*
Y102500D02*
X92000Y76000D01*
X140900D01*
X155400Y90500D01*
X83250Y314000D02*
Y365250D01*
Y305500D02*
Y314000D01*
X110500D01*
X120500Y304000D01*
Y299000D02*
Y304000D01*
X83250Y365250D02*
X84500Y366500D01*
X115500D01*
X122000Y360000D01*
X128750D01*
X135600Y284150D02*
Y299000D01*
X534500Y358100D02*
X541600D01*
X553100Y369600D01*
Y433400D01*
X425000Y333000D02*
X431500Y326500D01*
X459500D01*
X479000Y257109D02*
Y279000D01*
X467400Y290600D02*
Y326500D01*
Y290600D02*
X479000Y279000D01*
X459500Y301500D02*
Y326500D01*
X421850Y263850D02*
X459500Y301500D01*
X360000Y263850D02*
X421850D01*
X329927Y239073D02*
X332000Y237000D01*
X361000D01*
X440000D01*
X442073Y239073D01*
X452133D01*
X351500Y230900D02*
X353600Y233000D01*
X450100D02*
X452100Y231000D01*
X353600Y233000D02*
X450100D01*
X254500Y231000D02*
X351400D01*
X102500Y483000D02*
X503500D01*
X553100Y433400D01*
X247000Y187611D02*
Y188000D01*
Y187611D02*
X253111Y181500D01*
X160500Y77500D02*
Y132000D01*
X157500Y135000D02*
X160500Y132000D01*
X151000Y68000D02*
X160500Y77500D01*
X49025Y193475D02*
X49050Y193450D01*
X49000Y193500D02*
X49025Y193475D01*
X188111Y179500D02*
X198305Y189694D01*
X168500Y179500D02*
X188111D01*
X49050Y193450D02*
X82000D01*
X68500Y179950D02*
X82000Y193450D01*
X68500Y164000D02*
Y179950D01*
Y164000D02*
X78500Y154000D01*
X106000D01*
X116000Y164000D01*
X142650Y226722D02*
Y235000D01*
X33000Y255500D02*
Y408000D01*
Y255500D02*
X53500Y235000D01*
X142650D01*
X33000Y408000D02*
X105500Y480500D01*
X298000D01*
X25000Y126000D02*
Y405500D01*
X102500Y483000D01*
X25000Y126000D02*
X83000Y68000D01*
X298000Y480500D02*
X347500Y431000D01*
X263600Y187824D02*
X264462Y186962D01*
X221500Y187000D02*
X223250Y185250D01*
Y179750D02*
Y185250D01*
X195000Y203000D02*
X197000Y205000D01*
X188000Y203000D02*
X195000D01*
X332000Y289000D02*
X365000D01*
X319905Y301095D02*
X332000Y289000D01*
X319905Y301095D02*
Y342015D01*
X347500Y362000D02*
Y431000D01*
X184500Y402750D02*
Y418000D01*
X332400Y382750D02*
Y413900D01*
X501250Y373250D02*
Y385500D01*
X445750Y378250D02*
Y385500D01*
X239750Y382750D02*
X256200D01*
X226000Y369000D02*
X239750Y382750D01*
X307000D02*
X320000Y369750D01*
X281600Y371050D02*
Y382750D01*
X445750Y378250D02*
X454500Y369500D01*
X534500Y366000D02*
Y373500D01*
X497500Y369500D02*
X501250Y373250D01*
X265050Y354500D02*
X281600Y371050D01*
X320000Y363500D02*
Y369750D01*
X454500Y369500D02*
X497500D01*
X531000D01*
X534500Y366000D01*
X226000Y311000D02*
Y369000D01*
X339500Y354000D02*
X347500Y362000D01*
X534500Y347500D02*
Y358100D01*
X434000Y358000D02*
X505250D01*
X365500Y289500D02*
X434000Y358000D01*
X505250D02*
X522750Y340500D01*
X243500Y350500D02*
X247500Y354500D01*
X265050D01*
X256200Y337200D02*
X273000Y354000D01*
X339500D01*
X243500Y302000D02*
Y350500D01*
X534500Y289391D02*
Y347500D01*
X527500Y340500D02*
X534500Y347500D01*
X522750Y340500D02*
X527500D01*
X467250Y326650D02*
Y340500D01*
X256200Y325250D02*
Y337200D01*
X467250Y326650D02*
X467400Y326500D01*
X256200Y308800D02*
Y325250D01*
X226000Y311000D02*
X248000Y289000D01*
X256200Y308800D02*
X268750Y296250D01*
X243500Y302000D02*
X253500Y292000D01*
X143450Y297050D02*
Y299000D01*
X128400Y299000D02*
X135550D01*
X290750Y296250D02*
X331050Y255950D01*
X268750Y296250D02*
X290750D01*
X285500Y292000D02*
X325500Y252000D01*
X253500Y292000D02*
X285500D01*
X163250Y283000D02*
Y291250D01*
X529500Y284391D02*
X534500Y289391D01*
X248000Y289000D02*
X280000D01*
X329927Y239073D01*
X135600Y284150D02*
X136750Y283000D01*
X124000D02*
X136750D01*
X117500Y276500D02*
X124000Y283000D01*
X187500Y278000D02*
X215250Y250250D01*
X163250Y278000D02*
X187500D01*
X121500Y274500D02*
X125000Y278000D01*
X136750D01*
X117500Y260500D02*
Y276500D01*
X121500Y261000D02*
Y274500D01*
X188965Y273000D02*
X198965Y263000D01*
X163250Y273000D02*
X188965D01*
X126500D02*
X136750D01*
X124500Y271000D02*
X126500Y273000D01*
X204000Y266500D02*
Y271550D01*
X124500Y263500D02*
Y271000D01*
X190429Y268000D02*
X207250Y251179D01*
X163250Y268000D02*
X190429D01*
X475000Y263121D02*
Y268000D01*
X212000Y263000D02*
Y267600D01*
X220000Y259500D02*
Y266600D01*
X204000Y266500D02*
X219250Y251250D01*
X124500Y263500D02*
X132500Y255500D01*
X467828Y255950D02*
X475000Y263121D01*
X198965Y263000D02*
X211250Y250714D01*
X212000Y263000D02*
X223250Y251750D01*
X198965Y263000D02*
X198965D01*
X121500Y261000D02*
X129500Y253000D01*
X117500Y260500D02*
X131750Y246250D01*
X246783Y256189D02*
Y259746D01*
X220000Y259500D02*
X227250Y252250D01*
X479000Y257109D02*
X485659Y250450D01*
X245094Y254500D02*
X246783Y256189D01*
X331050Y255950D02*
X360000D01*
X467828D01*
X132500Y255500D02*
X199394D01*
X203250Y251644D01*
X241500Y254500D02*
X245094D01*
X239250Y252250D02*
X241500Y254500D01*
X197500Y253000D02*
X199250Y251250D01*
X129500Y253000D02*
X197500D01*
X227250Y246250D02*
Y252250D01*
X239250Y246250D02*
Y252250D01*
X325500Y252000D02*
X453000D01*
X456033Y248967D01*
X223250Y246250D02*
Y251750D01*
X203250Y246250D02*
Y251644D01*
X199250Y246250D02*
Y251250D01*
X219250Y246250D02*
Y251250D01*
X207250Y246250D02*
Y251179D01*
X211250Y246250D02*
Y250714D01*
X215250Y246250D02*
Y250250D01*
X456033Y234933D02*
Y248967D01*
X131750Y246250D02*
X195250D01*
X179000Y239500D02*
X179500Y239000D01*
X279573Y239073D02*
X329927D01*
X275500Y235000D02*
X279573Y239073D01*
X179500Y239000D02*
X188000D01*
X150550Y235000D02*
X151550Y234000D01*
X179000D02*
X180000Y235000D01*
X254500D02*
X275500D01*
X180000D02*
X188000D01*
X452100Y231000D02*
X456033Y234933D01*
X151550Y234000D02*
X179000D01*
X176500Y231000D02*
X188000D01*
X172160Y226660D02*
X176500Y231000D01*
X254500Y227000D02*
X267000D01*
X269500Y224500D01*
X150488Y226660D02*
X150488Y226660D01*
X172160D01*
X269500Y224500D02*
X286000D01*
X254500Y223000D02*
X263500D01*
X273000Y213500D01*
X187500Y218500D02*
X188000Y219000D01*
X132000Y218500D02*
X187500D01*
X98800Y185300D02*
X132000Y218500D01*
X132500Y207500D02*
X140000Y215000D01*
X188000D01*
X273000Y213500D02*
X286500D01*
X162500Y211000D02*
X188000D01*
X138000Y186500D02*
X162500Y211000D01*
X132500Y187000D02*
Y207500D01*
X165000Y207000D02*
X188000D01*
X157500Y199500D02*
X165000Y207000D01*
X157500Y135000D02*
Y199500D01*
X138000Y111000D02*
Y186500D01*
X82250Y173000D02*
Y185300D01*
X92200D01*
X98800D01*
X126000Y173525D02*
Y185100D01*
X239250Y175750D02*
Y179750D01*
X223250Y172659D02*
Y179750D01*
X231250Y174750D02*
Y179750D01*
X235250Y175250D02*
Y179750D01*
X219250Y151700D02*
Y179750D01*
X215250Y168250D02*
Y179750D01*
X227250Y174250D02*
Y179750D01*
X239250Y175750D02*
X273000Y142000D01*
X235250Y175250D02*
X272500Y138000D01*
X231250Y174750D02*
X274500Y131500D01*
X227250Y174250D02*
X232954Y168546D01*
X223250Y172659D02*
X224954Y170954D01*
Y166400D02*
Y170954D01*
X232954Y161850D02*
Y168546D01*
X209000Y162000D02*
X215250Y168250D01*
X194500Y154000D02*
X202500Y162000D01*
X209000D01*
X194500Y147500D02*
Y154000D01*
X194000Y148000D02*
X194500Y147500D01*
X183500Y148000D02*
X194000D01*
X183500Y143400D02*
Y148000D01*
X219000Y136500D02*
Y143550D01*
X317000Y142000D02*
X358500Y100500D01*
X293000Y142000D02*
X317000D01*
X293000D02*
X303500Y131500D01*
X273000Y142000D02*
X293000D01*
X272500Y138000D02*
X282500D01*
X286500Y134000D01*
X219000Y136500D02*
X219000Y136500D01*
X213000Y130500D02*
X219000Y136500D01*
X286500Y134000D02*
X286611D01*
X288075Y132535D01*
Y132425D02*
Y132535D01*
Y132425D02*
X293500Y127000D01*
X303500Y118875D02*
Y131500D01*
X280000Y131500D02*
X283500Y128000D01*
X274500Y131500D02*
X280000D01*
X207500Y130500D02*
X213000D01*
X283500Y118875D02*
Y128000D01*
X293500Y118875D02*
Y127000D01*
X285575Y120950D02*
Y125425D01*
X283500Y118875D02*
X285575Y120950D01*
X129200Y102200D02*
X138000Y111000D01*
X129200Y90500D02*
Y102200D01*
X381000Y100500D02*
X387750Y93750D01*
X358500Y100500D02*
X381000D01*
X387750Y77500D02*
Y93750D01*
X129200Y90500D02*
X147500D01*
X83000Y68000D02*
X151000D01*
D15*
X332500Y421950D02*
D03*
Y414050D02*
D03*
X361000Y237000D02*
D03*
Y229100D02*
D03*
X197000Y419850D02*
D03*
Y427750D02*
D03*
X534500Y358100D02*
D03*
Y366000D02*
D03*
X204000Y279450D02*
D03*
Y271550D02*
D03*
X212000Y275500D02*
D03*
Y267600D02*
D03*
X220000Y274500D02*
D03*
Y266600D02*
D03*
X236828Y258650D02*
D03*
Y266550D02*
D03*
X228328Y258600D02*
D03*
Y266500D02*
D03*
X360000Y255950D02*
D03*
Y263850D02*
D03*
X351500Y230900D02*
D03*
Y223000D02*
D03*
X464500Y221400D02*
D03*
Y213500D02*
D03*
X488000Y209000D02*
D03*
X488000Y216900D02*
D03*
X479500Y199050D02*
D03*
Y206950D02*
D03*
X82000Y193450D02*
D03*
Y185550D02*
D03*
X126126Y194189D02*
D03*
Y186289D02*
D03*
X224954Y158500D02*
D03*
Y166400D02*
D03*
X232954Y153950D02*
D03*
Y161850D02*
D03*
X219000Y143550D02*
D03*
Y151450D02*
D03*
X183500Y135500D02*
D03*
Y143400D02*
D03*
X219000Y128600D02*
D03*
Y136500D02*
D03*
D16*
X184500Y418000D02*
D03*
Y432500D02*
D03*
X152500Y418000D02*
D03*
Y432500D02*
D03*
X434500Y218750D02*
D03*
Y204250D02*
D03*
X452000Y218750D02*
D03*
Y204250D02*
D03*
X469000Y174250D02*
D03*
Y188750D02*
D03*
D17*
X128750Y360000D02*
D03*
Y366500D02*
D03*
Y373000D02*
D03*
Y353500D02*
D03*
Y379500D02*
D03*
D18*
X102000Y326500D02*
D03*
Y406500D02*
D03*
D19*
Y354500D02*
D03*
Y378500D02*
D03*
D20*
X204500Y412250D02*
D03*
X196600D02*
D03*
X459500Y326500D02*
D03*
X467400D02*
D03*
X120500Y299000D02*
D03*
X128400D02*
D03*
X143450Y299000D02*
D03*
X135550D02*
D03*
X171450Y293000D02*
D03*
X163550D02*
D03*
X482900Y268000D02*
D03*
X475000D02*
D03*
X271450Y250500D02*
D03*
X263550D02*
D03*
X271450Y242500D02*
D03*
X263550D02*
D03*
X171100Y239500D02*
D03*
X179000D02*
D03*
X460033Y239073D02*
D03*
X452133D02*
D03*
X142650Y235000D02*
D03*
X150550D02*
D03*
X460000Y231000D02*
D03*
X452100D02*
D03*
X150488Y226660D02*
D03*
X142588D02*
D03*
X473000Y223000D02*
D03*
X480900D02*
D03*
X271500Y203000D02*
D03*
X263600D02*
D03*
X171100Y202500D02*
D03*
X179000D02*
D03*
X147500Y90500D02*
D03*
X155400D02*
D03*
D21*
X256200Y325250D02*
D03*
X281600D02*
D03*
X307000D02*
D03*
X332400D02*
D03*
X357800D02*
D03*
X256200Y382750D02*
D03*
X281600D02*
D03*
X307000D02*
D03*
X332400D02*
D03*
X357800D02*
D03*
D22*
X501250Y385500D02*
D03*
Y340500D02*
D03*
X522750D02*
D03*
Y385500D02*
D03*
X445750D02*
D03*
Y340500D02*
D03*
X467250D02*
D03*
Y385500D02*
D03*
X104750Y260500D02*
D03*
Y305500D02*
D03*
X83250D02*
D03*
Y260500D02*
D03*
X147816Y128209D02*
D03*
Y173210D02*
D03*
X126316D02*
D03*
Y128209D02*
D03*
X103750Y128000D02*
D03*
Y173000D02*
D03*
X82250D02*
D03*
Y128000D02*
D03*
X387750Y122500D02*
D03*
Y77500D02*
D03*
X366250D02*
D03*
Y122500D02*
D03*
D23*
X488488Y237722D02*
D03*
X491316Y234893D02*
D03*
X494145Y232065D02*
D03*
X496973Y229237D02*
D03*
X499801Y226408D02*
D03*
X502630Y223580D02*
D03*
X505458Y220751D02*
D03*
X508287Y217923D02*
D03*
X511115Y215094D02*
D03*
X513944Y212266D02*
D03*
X516772Y209438D02*
D03*
X560613Y253278D02*
D03*
X557784Y256107D02*
D03*
X554956Y258935D02*
D03*
X552127Y261763D02*
D03*
X549299Y264592D02*
D03*
X546471Y267420D02*
D03*
X543642Y270249D02*
D03*
X540814Y273077D02*
D03*
X537985Y275906D02*
D03*
X535157Y278734D02*
D03*
X532328Y281562D02*
D03*
D24*
Y209438D02*
D03*
X535157Y212266D02*
D03*
X537985Y215094D02*
D03*
X540814Y217923D02*
D03*
X543642Y220751D02*
D03*
X546471Y223580D02*
D03*
X549299Y226408D02*
D03*
X552127Y229237D02*
D03*
X554956Y232065D02*
D03*
X557784Y234893D02*
D03*
X560613Y237722D02*
D03*
X516772Y281562D02*
D03*
X513944Y278734D02*
D03*
X511115Y275906D02*
D03*
X508287Y273077D02*
D03*
X505458Y270249D02*
D03*
X502630Y267420D02*
D03*
X499801Y264592D02*
D03*
X496973Y261763D02*
D03*
X494145Y258935D02*
D03*
X491316Y256107D02*
D03*
X488488Y253278D02*
D03*
D25*
X524550Y245500D02*
D03*
D26*
X553000Y289000D02*
D03*
X547414Y283414D02*
D03*
X559000Y283000D02*
D03*
X553414Y277414D02*
D03*
X565000Y277000D02*
D03*
X559414Y271414D02*
D03*
X571086Y271086D02*
D03*
X565500Y265500D02*
D03*
X571500Y259500D02*
D03*
X577086Y265086D02*
D03*
X583086Y259086D02*
D03*
X577500Y253500D02*
D03*
D27*
X136750Y268000D02*
D03*
Y273000D02*
D03*
Y278000D02*
D03*
Y283000D02*
D03*
X163250Y268000D02*
D03*
Y283000D02*
D03*
Y278000D02*
D03*
Y273000D02*
D03*
D28*
X150000Y275500D02*
D03*
D29*
X246783Y259746D02*
D03*
Y273246D02*
D03*
X258760Y259745D02*
D03*
Y273245D02*
D03*
D30*
X195250Y246250D02*
D03*
X199250D02*
D03*
X203250D02*
D03*
X207250D02*
D03*
X211250D02*
D03*
X215250D02*
D03*
X219250D02*
D03*
X223250D02*
D03*
X227250D02*
D03*
X231250D02*
D03*
X235250D02*
D03*
X239250D02*
D03*
X243250D02*
D03*
X247250D02*
D03*
Y179750D02*
D03*
X243250D02*
D03*
X239250D02*
D03*
X235250D02*
D03*
X231250D02*
D03*
X227250D02*
D03*
X223250D02*
D03*
X219250D02*
D03*
X215250D02*
D03*
X211250D02*
D03*
X207250D02*
D03*
X203250D02*
D03*
X199250D02*
D03*
X195250D02*
D03*
D31*
X254500Y239000D02*
D03*
Y235000D02*
D03*
Y231000D02*
D03*
Y227000D02*
D03*
Y223000D02*
D03*
Y219000D02*
D03*
Y215000D02*
D03*
Y211000D02*
D03*
Y207000D02*
D03*
Y203000D02*
D03*
Y199000D02*
D03*
Y195000D02*
D03*
Y191000D02*
D03*
Y187000D02*
D03*
X188000D02*
D03*
Y191000D02*
D03*
Y195000D02*
D03*
Y199000D02*
D03*
Y203000D02*
D03*
Y207000D02*
D03*
Y211000D02*
D03*
Y215000D02*
D03*
Y219000D02*
D03*
Y223000D02*
D03*
Y227000D02*
D03*
Y231000D02*
D03*
Y235000D02*
D03*
Y239000D02*
D03*
D32*
X575217Y234616D02*
D03*
X580803Y229030D02*
D03*
X569424Y228909D02*
D03*
X575010Y223323D02*
D03*
X563717Y223116D02*
D03*
X569303Y217530D02*
D03*
D33*
X194500Y130500D02*
D03*
X207500D02*
D03*
X194500Y147500D02*
D03*
X207500D02*
D03*
D34*
X324000Y80125D02*
D03*
X263000D02*
D03*
D35*
X303500Y118875D02*
D03*
X293500D02*
D03*
X283500D02*
D03*
X273500D02*
D03*
X313500D02*
D03*
D66*
X168500Y417750D02*
D03*
D67*
X163007Y421000D02*
D03*
D68*
X173993D02*
D03*
D69*
X163007Y414500D02*
D03*
D70*
X173993D02*
D03*
D71*
X184500Y402750D02*
D03*
X286000Y224500D02*
D03*
X286500Y213500D02*
D03*
D72*
X519600Y206609D02*
D03*
D73*
Y284391D02*
D03*
D74*
X529500Y206609D02*
D03*
D75*
Y284391D02*
D03*
D76*
X485659Y250450D02*
D03*
D77*
Y240550D02*
D03*
D78*
X563441Y250450D02*
D03*
D79*
Y240550D02*
D03*
D80*
X987800Y224500D02*
D03*
X987800Y230500D02*
D03*
Y236500D02*
D03*
Y242500D02*
D03*
X987800Y200500D02*
D03*
X987800Y206500D02*
D03*
Y212500D02*
D03*
Y218500D02*
D03*
X987800Y266500D02*
D03*
Y260500D02*
D03*
Y254500D02*
D03*
X987800Y248500D02*
D03*
X987800Y290500D02*
D03*
Y284500D02*
D03*
Y278500D02*
D03*
X987800Y272500D02*
D03*
D81*
X987800Y227500D02*
D03*
X987800Y233500D02*
D03*
Y239500D02*
D03*
Y245500D02*
D03*
X987800Y203500D02*
D03*
X987800Y209500D02*
D03*
Y215500D02*
D03*
Y221500D02*
D03*
X987800Y269500D02*
D03*
Y263500D02*
D03*
Y257500D02*
D03*
X987800Y251500D02*
D03*
X987800Y287500D02*
D03*
Y281500D02*
D03*
X987800Y275500D02*
D03*
D82*
Y294500D02*
D03*
D83*
X987800Y196500D02*
D03*
D84*
X221250Y213000D02*
D03*
D85*
X214200Y421950D02*
X224364D01*
X356239Y186962D02*
X448016D01*
X264462D02*
X356239D01*
X198000Y34500D02*
X253000D01*
X273500Y55000D01*
Y118875D01*
X166000Y45500D02*
Y177000D01*
Y45500D02*
X177000Y34500D01*
X166000Y177000D02*
X168500Y179500D01*
X189500Y34500D02*
X198000D01*
X177000D02*
X189500D01*
X168500Y179500D02*
X179000Y190000D01*
Y202500D01*
X231000Y422000D02*
X332450D01*
X224414D02*
X231000D01*
X224364Y421950D02*
X224414Y422000D01*
X204500Y412250D02*
X214200Y421950D01*
D86*
X148500Y292000D02*
X149500Y293000D01*
X163550D01*
X259000Y181500D02*
X264462Y186962D01*
X253111Y181500D02*
X259000D01*
X263600Y187824D02*
Y203000D01*
X143450Y297050D02*
X148500Y292000D01*
D87*
X197000Y191000D02*
X201000Y187000D01*
X221500D01*
X197000Y191000D02*
Y205000D01*
Y237500D01*
X195500Y239000D02*
X197000Y237500D01*
X188000Y239000D02*
X195500D01*
D88*
X149328Y370500D02*
X233000Y286828D01*
X148500Y368500D02*
X231000Y286000D01*
X137329Y373000D02*
X139828Y370500D01*
X139000Y368500D02*
X148500D01*
X139828Y370500D02*
X149328D01*
X130750Y368500D02*
X139000D01*
X128750Y366500D02*
X130750Y368500D01*
X227828Y266500D02*
X228078Y266750D01*
X128750Y373000D02*
X137329D01*
X233000Y270378D02*
Y286828D01*
X231000Y269172D02*
Y286000D01*
X233000Y270378D02*
X236828Y266550D01*
X228328Y266500D02*
X231000Y269172D01*
X235250Y257072D02*
X236828Y258650D01*
X228328Y258600D02*
X231250Y255678D01*
X235250Y246250D02*
Y257072D01*
X231250Y246250D02*
Y255678D01*
D89*
X129200Y90500D02*
D03*
D90*
X103800D02*
D03*
D91*
X21000Y469000D02*
D03*
X620300D02*
D03*
X622000Y21000D02*
D03*
X21000D02*
D03*
D92*
X126500Y345750D02*
D03*
Y387250D02*
D03*
D93*
X602300Y452000D02*
D03*
X627300Y402000D02*
D03*
X602300Y352000D02*
D03*
X627300Y302000D02*
D03*
X602300Y152000D02*
D03*
X627300Y102000D02*
D03*
X602300Y52000D02*
D03*
X552300Y452000D02*
D03*
X577300Y402000D02*
D03*
X552300Y352000D02*
D03*
X577300Y302000D02*
D03*
X552300Y152000D02*
D03*
X577300Y102000D02*
D03*
X552300Y52000D02*
D03*
X502300Y452000D02*
D03*
X527300Y402000D02*
D03*
X502300Y352000D02*
D03*
X527300Y302000D02*
D03*
Y202000D02*
D03*
X502300Y152000D02*
D03*
X527300Y102000D02*
D03*
X502300Y52000D02*
D03*
X452300Y452000D02*
D03*
X477300Y402000D02*
D03*
X452300Y352000D02*
D03*
X477300Y302000D02*
D03*
Y102000D02*
D03*
X402300Y452000D02*
D03*
Y352000D02*
D03*
X427300Y302000D02*
D03*
X402300Y152000D02*
D03*
X427300Y102000D02*
D03*
X402300Y52000D02*
D03*
X352300Y452000D02*
D03*
X377300Y402000D02*
D03*
Y202000D02*
D03*
X352300Y152000D02*
D03*
Y52000D02*
D03*
X302300Y452000D02*
D03*
Y252000D02*
D03*
X327300Y202000D02*
D03*
X302300Y152000D02*
D03*
X327300Y102000D02*
D03*
X302300Y52000D02*
D03*
X252300Y452000D02*
D03*
Y52000D02*
D03*
X227300Y402000D02*
D03*
X202300Y352000D02*
D03*
X227300Y102000D02*
D03*
X202300Y52000D02*
D03*
X152300Y452000D02*
D03*
Y152000D02*
D03*
X177300Y102000D02*
D03*
X152300Y52000D02*
D03*
X127300Y202000D02*
D03*
X102300Y52000D02*
D03*
X52300Y452000D02*
D03*
X77300Y402000D02*
D03*
Y202000D02*
D03*
Y102000D02*
D03*
X52300Y52000D02*
D03*
X466320Y228636D02*
D03*
X487000Y200500D02*
D03*
X448156Y193000D02*
D03*
X148500Y292000D02*
D03*
X136500Y260000D02*
D03*
X425000Y333000D02*
D03*
X198000Y34500D02*
D03*
X189500D02*
D03*
X162000Y239500D02*
D03*
X168000Y195500D02*
D03*
X49025Y193475D02*
D03*
X231000Y422000D02*
D03*
X224364Y422118D02*
D03*
X217864D02*
D03*
X220759Y222466D02*
D03*
X221259Y201966D02*
D03*
X221009Y212966D02*
D03*
X212500Y222500D02*
D03*
Y213000D02*
D03*
Y202500D02*
D03*
X230000D02*
D03*
Y212500D02*
D03*
Y222500D02*
D03*
X454500Y187000D02*
D03*
X448016Y186962D02*
D03*
X454525Y192887D02*
D03*
X173204Y434910D02*
D03*
X164204D02*
D03*
X169000Y430000D02*
D03*
X534500Y373500D02*
D03*
X320000Y363500D02*
D03*
X319905Y342015D02*
D03*
X139000Y336500D02*
D03*
X131000D02*
D03*
X121500D02*
D03*
Y329000D02*
D03*
X131000Y329000D02*
D03*
X139000D02*
D03*
X121500Y321500D02*
D03*
X131000Y321500D02*
D03*
X139000D02*
D03*
X184000Y291000D02*
D03*
X198000Y287000D02*
D03*
X207500D02*
D03*
X255847Y280454D02*
D03*
X266847D02*
D03*
X276346Y275954D02*
D03*
X278846Y267454D02*
D03*
X738000Y265500D02*
D03*
X753000D02*
D03*
X888000D02*
D03*
X663000D02*
D03*
X918000D02*
D03*
X648000D02*
D03*
X903000D02*
D03*
X768000D02*
D03*
X678000D02*
D03*
X828000D02*
D03*
X783000Y265000D02*
D03*
X963000D02*
D03*
X693000D02*
D03*
X708000D02*
D03*
X798000D02*
D03*
X948000D02*
D03*
X813000D02*
D03*
X858000D02*
D03*
X723000D02*
D03*
X873000D02*
D03*
X843000D02*
D03*
X933000D02*
D03*
X630500Y261000D02*
D03*
X279347Y257954D02*
D03*
X738000Y253000D02*
D03*
X828000D02*
D03*
X753000D02*
D03*
X768000D02*
D03*
X888000D02*
D03*
X648000D02*
D03*
X663000D02*
D03*
X678000D02*
D03*
X903000D02*
D03*
X918000D02*
D03*
X723000Y252500D02*
D03*
X708000D02*
D03*
X693000D02*
D03*
X933000D02*
D03*
X948000D02*
D03*
X963000D02*
D03*
X843000D02*
D03*
X858000D02*
D03*
X873000D02*
D03*
X798000D02*
D03*
X783000D02*
D03*
X813000D02*
D03*
X621500Y251500D02*
D03*
X279846Y248954D02*
D03*
X104750Y246750D02*
D03*
X613000Y243500D02*
D03*
X828000Y243000D02*
D03*
X632500D02*
D03*
X918000D02*
D03*
X678000D02*
D03*
X888000D02*
D03*
X903000D02*
D03*
X738000D02*
D03*
X663000D02*
D03*
X753000D02*
D03*
X648000D02*
D03*
X768000D02*
D03*
X723000Y242500D02*
D03*
X948000D02*
D03*
X933000D02*
D03*
X843000D02*
D03*
X798000D02*
D03*
X783000D02*
D03*
X813000D02*
D03*
X963000D02*
D03*
X858000D02*
D03*
X708000D02*
D03*
X693000D02*
D03*
X873000D02*
D03*
X603000Y233000D02*
D03*
X445250Y223608D02*
D03*
X413632Y223502D02*
D03*
X422632D02*
D03*
X593252Y223477D02*
D03*
X421632Y217002D02*
D03*
X583252Y213477D02*
D03*
X279983Y202654D02*
D03*
X209000Y169500D02*
D03*
X245000Y148000D02*
D03*
X236000D02*
D03*
X366778Y140285D02*
D03*
X182587Y127388D02*
D03*
X219000Y122000D02*
D03*
X182587Y119388D02*
D03*
X193148Y119265D02*
D03*
X149174Y113238D02*
D03*
X104000Y112000D02*
D03*
X337779Y103285D02*
D03*
X350000Y76000D02*
D03*
D94*
X501216Y245500D02*
D03*
X508994Y253278D02*
D03*
X516772Y261056D02*
D03*
X524550Y268834D02*
D03*
X508994Y237722D02*
D03*
X516772Y245500D02*
D03*
X524550Y253278D02*
D03*
X532328Y261056D02*
D03*
X516772Y229944D02*
D03*
X524550Y237722D02*
D03*
X532328Y245500D02*
D03*
X540107Y253278D02*
D03*
X524550Y222166D02*
D03*
X532328Y229944D02*
D03*
X540107Y237722D02*
D03*
X547885Y245500D02*
D03*
M02*
